<svg width="75" height="75" viewBox="0 0 75 75" fill="none" xmlns="http://www.w3.org/2000/svg">
<circle cx="37.5" cy="37.5" r="37.5" fill="#2D2D2D"/>
<path fill-rule="evenodd" clip-rule="evenodd" d="M14 38.134C14 50.066 22.666 59.988 34 62V44.666H28V38H34V32.666C34 26.666 37.866 23.334 43.334 23.334C45.066 23.334 46.934 23.6 48.666 23.866V30H45.6C42.666 30 42 31.466 42 33.334V38H48.4L47.334 44.666H42V62C53.334 59.988 62 50.068 62 38.134C62 24.86 51.2 14 38 14C24.8 14 14 24.86 14 38.134Z" fill="white"/>
</svg>
