<svg width="75" height="60" viewBox="0 0 75 60" fill="none" xmlns="http://www.w3.org/2000/svg">
<path d="M1 1H60C67.732 1 74 7.26801 74 15V45C74 52.732 67.732 59 60 59H1V1Z" fill="#43A367" stroke="#43A367" stroke-width="2"/>
<path d="M50.5805 17.4427C49.9136 16.7582 48.9265 16.5032 48.0061 16.7716L26.544 23.0128C25.5729 23.2826 24.8846 24.057 24.6992 25.0408C24.5098 26.0421 25.1714 27.3131 26.0358 27.8446L32.7465 31.9692C33.4348 32.3919 34.3232 32.2859 34.8927 31.7115L42.5772 23.9792C42.964 23.5765 43.6043 23.5765 43.9911 23.9792C44.378 24.3684 44.378 24.9992 43.9911 25.4019L36.2933 33.1355C35.7224 33.7086 35.6157 34.6012 36.0359 35.2937L40.1362 42.0718C40.6164 42.8771 41.4434 43.3334 42.3505 43.3334C42.4572 43.3334 42.5772 43.3334 42.6839 43.32C43.7244 43.1858 44.5514 42.4744 44.8581 41.4678L51.2208 20.0331C51.5009 19.1205 51.2474 18.1272 50.5805 17.4427Z" fill="white"/>
</svg>
