<svg width="75" height="75" viewBox="0 0 75 75" fill="none" xmlns="http://www.w3.org/2000/svg">
<circle cx="37.5" cy="37.5" r="37.5" fill="#2D2D2D"/>
<path d="M60.9348 20.7195C59.2445 21.52 57.4283 22.0609 55.522 22.3043C57.468 21.0587 58.9621 19.0862 59.6657 16.7361C57.8158 17.9084 55.7919 18.7344 53.6814 19.1784C51.9623 17.2224 49.5132 16 46.8025 16C41.5979 16 37.3781 20.5064 37.3781 26.0645C37.3781 26.8535 37.4616 27.6215 37.6222 28.3583C29.7899 27.9385 22.8459 23.9316 18.1977 17.8423C17.3866 19.3288 16.9219 21.0579 16.9219 22.9022C16.9219 26.3941 18.5858 29.4746 21.1144 31.2796C19.6178 31.2295 18.1542 30.7978 16.8456 30.0206C16.8451 30.0627 16.8451 30.1049 16.8451 30.1472C16.8451 35.0237 20.0936 39.0916 24.4046 40.0163C23.0169 40.4193 21.5612 40.4783 20.1488 40.1887C21.348 44.1873 24.8284 47.0971 28.9522 47.1785C25.7269 49.8778 21.6632 51.487 17.2481 51.487C16.4873 51.487 15.7373 51.4393 15 51.3463C19.1706 54.202 24.1242 55.8683 29.4461 55.8683C46.7806 55.8683 56.2595 40.5318 56.2595 27.2317C56.2595 26.7952 56.2505 26.3612 56.2322 25.9296C58.0772 24.5052 59.6697 22.7409 60.9348 20.7195" fill="white"/>
</svg>
