<svg width="75" height="75" viewBox="0 0 75 75" fill="none" xmlns="http://www.w3.org/2000/svg">
<circle cx="37.5" cy="37.5" r="37.5" fill="#2D2D2D"/>
<g clip-path="url(#clip0)">
<path d="M61.8956 26.459C61.6088 25.4039 61.0493 24.4419 60.273 23.669C59.4966 22.8961 58.5304 22.3391 57.4706 22.0535C53.5905 21 37.9745 21 37.9745 21C37.9745 21 22.3577 21.0319 18.4776 22.0854C17.4177 22.371 16.4515 22.928 15.6751 23.701C14.8988 24.474 14.3394 25.4359 14.0526 26.4911C12.879 33.3546 12.4237 43.813 14.0848 50.4019C14.3716 51.4571 14.931 52.419 15.7074 53.192C16.4838 53.9649 17.45 54.5219 18.5098 54.8075C22.3899 55.861 38.0063 55.861 38.0063 55.861C38.0063 55.861 53.6225 55.861 57.5024 54.8075C58.5623 54.5219 59.5285 53.965 60.3049 53.192C61.0813 52.4191 61.6408 51.4571 61.9276 50.4019C63.1655 43.5287 63.5469 33.0769 61.8956 26.4592V26.459Z" fill="white"/>
<path d="M33.0039 45.9005L45.9588 38.4304L33.0041 30.9602L33.0039 45.9005Z" fill="#202020"/>
</g>
<defs>
<clipPath id="clip0">
<rect width="50" height="35" fill="white" transform="translate(13 21)"/>
</clipPath>
</defs>
</svg>
