<svg width="551" height="627" viewBox="0 0 551 627" fill="none" xmlns="http://www.w3.org/2000/svg">
<path fill-rule="evenodd" clip-rule="evenodd" d="M341.948 115.103C397.381 112.445 452.128 94.7582 504.357 113.52C568.835 136.682 636.533 169.973 666.373 231.645C697.588 296.161 683.909 372.82 662.982 441.367C641.748 510.92 615.321 593.465 547.724 620.284C480.348 647.015 414.34 572.416 341.948 568.734C275.859 565.373 203.594 640.046 150.839 600.096C97.7641 559.905 146.123 470.64 127.865 406.617C110.727 346.516 34.9243 302.729 48.653 241.76C62.273 181.273 133.553 153.151 190.474 128.57C238.178 107.97 290.046 117.592 341.948 115.103Z" fill="#E8FFEE"/>
<path d="M3.3894 244.535H506.248" stroke="#B2B2B2" stroke-width="7" stroke-miterlimit="10"/>
<path d="M3.3894 78.71H506.248" stroke="#B2B2B2" stroke-width="7" stroke-miterlimit="10"/>
<path d="M450.25 246.717V15.4344" stroke="#B2B2B2" stroke-width="7" stroke-miterlimit="10"/>
<path d="M306.897 246.717V15.4344" stroke="#B2B2B2" stroke-width="7" stroke-miterlimit="10"/>
<path d="M163.543 246.717V15.4344" stroke="#B2B2B2" stroke-width="7" stroke-miterlimit="10"/>
<path d="M20.1887 246.717V15.4344" stroke="#B2B2B2" stroke-width="7" stroke-miterlimit="10"/>
<path d="M466.579 124.988L462.57 128.894" stroke="#B2B2B2" stroke-linecap="round" stroke-linejoin="round"/>
<path d="M493.929 98.347L469.861 121.792" stroke="#B2B2B2" stroke-linecap="round" stroke-linejoin="round"/>
<path d="M498.297 107.391L481.049 124.192" stroke="#B2B2B2" stroke-linecap="round" stroke-linejoin="round"/>
<path d="M349.186 45.7412L345.177 49.6468" stroke="#B2B2B2" stroke-linecap="round" stroke-linejoin="round"/>
<path d="M376.535 19.1001L352.468 42.5447" stroke="#B2B2B2" stroke-linecap="round" stroke-linejoin="round"/>
<path d="M380.903 28.1442L363.656 44.9449" stroke="#B2B2B2" stroke-linecap="round" stroke-linejoin="round"/>
<path d="M85.9971 45.7412L81.9877 49.6468" stroke="#B2B2B2" stroke-linecap="round" stroke-linejoin="round"/>
<path d="M113.346 19.1001L89.2787 42.5447" stroke="#B2B2B2" stroke-linecap="round" stroke-linejoin="round"/>
<path d="M117.714 28.1442L100.467 44.9449" stroke="#B2B2B2" stroke-linecap="round" stroke-linejoin="round"/>
<path d="M264.014 128.174L260.004 132.09" stroke="#B2B2B2" stroke-linecap="round" stroke-linejoin="round"/>
<path d="M291.363 101.544L267.295 124.988" stroke="#B2B2B2" stroke-linecap="round" stroke-linejoin="round"/>
<path d="M295.731 110.577L278.483 127.377" stroke="#B2B2B2" stroke-linecap="round" stroke-linejoin="round"/>
<path d="M48.4674 173.918L37.1671 184.914" stroke="#B2B2B2" stroke-linecap="round" stroke-linejoin="round"/>
<path d="M125.487 98.8926L57.6848 164.928" stroke="#B2B2B2" stroke-linecap="round" stroke-linejoin="round"/>
<path d="M137.784 124.355L89.2114 171.67" stroke="#B2B2B2" stroke-linecap="round" stroke-linejoin="round"/>
<path d="M468.562 269.016C468.562 269.016 452.009 260.059 450.788 280.362C449.567 300.665 446.499 432.605 446.499 432.605" stroke="#263238" stroke-width="2" stroke-linecap="round" stroke-linejoin="round"/>
<path d="M442.198 282.151C442.198 282.151 455.693 311.4 449.556 430.816" stroke="#263238" stroke-width="2" stroke-linecap="round" stroke-linejoin="round"/>
<path d="M455.458 273.096C455.458 273.096 449.119 277.056 445.524 272.529C441.929 268.002 447.955 259.721 442.635 256.165C437.315 252.608 428.132 258.019 428.132 258.019C428.132 258.019 435.198 260.048 434.974 263.812C434.75 267.576 431.335 268.994 430.887 267.347C430.439 265.7 427.056 257.419 421.311 260.867C419.655 261.82 418.214 263.091 417.076 264.602C415.939 266.114 415.127 267.834 414.692 269.66C414.692 269.66 428.064 268.263 428.871 273.173C429.677 278.082 423.383 272.311 417.873 271.994C412.363 271.678 407.323 272.474 407.67 275.725C407.798 278.601 407.626 281.481 407.155 284.322C407.155 284.322 411.825 280.275 417.895 280.624C423.965 280.973 423.741 284.737 418.22 284.42C412.699 284.104 407.961 289.232 407.961 289.232C407.961 289.232 412.99 297.61 419.385 301.745C425.78 305.879 428.087 304.407 428.837 301.21C429.587 298.014 427.863 289.832 431.727 290.05C435.59 290.268 425.332 304.232 430.259 305.072C435.187 305.912 439.152 304.505 440.451 301.341L441.75 298.177C441.75 298.177 440.037 289.995 440.776 286.799C441.515 283.602 442.433 286.897 443.307 290.715C444.18 294.534 444.74 303.741 446.42 303.305C448.1 302.868 453.498 296.159 454.764 293.486C456.03 290.813 447.663 282.839 447.764 281.224C447.865 279.609 454.316 282.675 455.324 284.355C456.052 285.616 456.714 286.912 457.306 288.239C457.306 288.239 461.327 285.773 461.226 278.224C461.125 270.674 455.458 273.096 455.458 273.096Z" fill="#92E3A9"/>
<path opacity="0.3" d="M455.458 273.096C455.458 273.096 449.119 277.056 445.524 272.529C441.929 268.002 447.955 259.721 442.635 256.165C437.315 252.608 428.132 258.019 428.132 258.019C428.132 258.019 435.198 260.048 434.974 263.812C434.75 267.576 431.335 268.994 430.887 267.347C430.439 265.7 427.056 257.419 421.311 260.867C419.655 261.82 418.214 263.091 417.076 264.602C415.939 266.114 415.127 267.834 414.692 269.66C414.692 269.66 428.064 268.263 428.871 273.173C429.677 278.082 423.383 272.311 417.873 271.994C412.363 271.678 407.323 272.474 407.67 275.725C407.798 278.601 407.626 281.481 407.155 284.322C407.155 284.322 411.825 280.275 417.895 280.624C423.965 280.973 423.741 284.737 418.22 284.42C412.699 284.104 407.961 289.232 407.961 289.232C407.961 289.232 412.99 297.61 419.385 301.745C425.78 305.879 428.087 304.407 428.837 301.21C429.587 298.014 427.863 289.832 431.727 290.05C435.59 290.268 425.332 304.232 430.259 305.072C435.187 305.912 439.152 304.505 440.451 301.341L441.75 298.177C441.75 298.177 440.037 289.995 440.776 286.799C441.515 283.602 442.433 286.897 443.307 290.715C444.18 294.534 444.74 303.741 446.42 303.305C448.1 302.868 453.498 296.159 454.764 293.486C456.03 290.813 447.663 282.839 447.764 281.224C447.865 279.609 454.316 282.675 455.324 284.355C456.052 285.616 456.714 286.912 457.306 288.239C457.306 288.239 461.327 285.773 461.226 278.224C461.125 270.674 455.458 273.096 455.458 273.096Z" fill="#263238"/>
<path d="M423.372 290.813C427.504 285.85 433.586 279.118 438.681 275.911" stroke="#263238" stroke-linecap="round" stroke-linejoin="round"/>
<path d="M418.578 296.901C418.578 296.901 419.642 295.472 421.356 293.312" stroke="#263238" stroke-linecap="round" stroke-linejoin="round"/>
<path d="M441.369 277.144C441.369 277.144 447.496 285.588 448.638 294.283" stroke="#263238" stroke-linecap="round" stroke-linejoin="round"/>
<path d="M434.415 282.14C434.415 282.14 436.139 281.158 435.535 291.904" stroke="#263238" stroke-linecap="round" stroke-linejoin="round"/>
<path d="M438.905 272.147C438.905 272.147 442.411 269.114 440.552 263.07" stroke="#263238" stroke-linecap="round" stroke-linejoin="round"/>
<path d="M434.157 277.275L431.659 272.813" stroke="#263238" stroke-linecap="round" stroke-linejoin="round"/>
<path d="M428.904 281.824C428.904 281.824 420.953 275.976 415.98 275.682" stroke="#263238" stroke-linecap="round" stroke-linejoin="round"/>
<path d="M478.014 257.168C478.014 257.168 477.768 266.038 470.656 266.463C463.544 266.889 459.154 255.368 451.886 258.139C444.617 260.91 443.912 273.554 443.912 273.554C443.912 273.554 450.822 268.034 454.529 270.827C458.236 273.62 457.385 277.907 455.38 277.231C453.375 276.555 442.568 274.198 442.198 282.151C442.042 284.413 442.359 286.683 443.129 288.822C443.899 290.962 445.106 292.927 446.678 294.599C446.678 294.599 454.361 280.613 459.961 283.155C465.56 285.697 455.335 287.922 451.247 293.093C447.16 298.265 444.528 303.698 448.134 305.574C451.18 307.409 454.025 309.544 456.623 311.945C456.623 311.945 455.649 304.625 460.14 298.941C464.631 293.257 468.349 296.05 464.261 301.21C460.173 306.37 462.212 314.487 462.212 314.487C462.212 314.487 474.251 315.294 482.864 311.891C491.476 308.487 491.532 305.214 488.755 302.312C485.977 299.41 476.435 295.494 479.257 291.882C482.08 288.271 489.483 307.8 493.694 303.545C497.905 299.29 499.17 294.49 496.807 291.064L494.444 287.639C494.444 287.639 484.857 283.733 482.124 280.831C479.392 277.929 483.356 279.282 487.881 281.038C492.406 282.795 502.239 288.522 502.933 286.58C503.628 284.639 500.424 274.809 498.588 271.776C496.751 268.743 482.785 271.449 481.195 270.26C479.605 269.071 487.164 264.805 489.572 265.012C491.364 265.163 493.147 265.404 494.914 265.732C494.914 265.732 495.127 260.125 487.299 255.074C479.47 250.023 478.014 257.168 478.014 257.168Z" fill="#92E3A9"/>
<path opacity="0.2" d="M478.014 257.168C478.014 257.168 477.768 266.038 470.656 266.463C463.544 266.889 459.154 255.368 451.886 258.139C444.617 260.91 443.912 273.554 443.912 273.554C443.912 273.554 450.822 268.034 454.529 270.827C458.236 273.62 457.385 277.907 455.38 277.231C453.375 276.555 442.568 274.198 442.198 282.151C442.042 284.413 442.359 286.683 443.129 288.822C443.899 290.962 445.106 292.927 446.678 294.599C446.678 294.599 454.361 280.613 459.961 283.155C465.56 285.697 455.335 287.922 451.247 293.093C447.16 298.265 444.528 303.698 448.134 305.574C451.18 307.409 454.025 309.544 456.623 311.945C456.623 311.945 455.649 304.625 460.14 298.941C464.631 293.257 468.349 296.05 464.261 301.21C460.173 306.37 462.212 314.487 462.212 314.487C462.212 314.487 474.251 315.294 482.864 311.891C491.476 308.487 491.532 305.214 488.755 302.312C485.977 299.41 476.435 295.494 479.257 291.882C482.08 288.271 489.483 307.8 493.694 303.545C497.905 299.29 499.17 294.49 496.807 291.064L494.444 287.639C494.444 287.639 484.857 283.733 482.124 280.831C479.392 277.929 483.356 279.282 487.881 281.038C492.406 282.795 502.239 288.522 502.933 286.58C503.628 284.639 500.424 274.809 498.588 271.776C496.751 268.743 482.785 271.449 481.195 270.26C479.605 269.071 487.164 264.805 489.572 265.012C491.364 265.163 493.147 265.404 494.914 265.732C494.914 265.732 495.127 260.125 487.299 255.074C479.47 250.023 478.014 257.168 478.014 257.168Z" fill="#263238"/>
<path d="M474.352 300.545C472.112 293.126 469.29 282.609 469.469 275.453" stroke="#263238" stroke-linecap="round" stroke-linejoin="round"/>
<path d="M477.309 309.338C477.309 309.338 476.558 307.32 475.517 304.178" stroke="#263238" stroke-linecap="round" stroke-linejoin="round"/>
<path d="M472.571 273.664C472.571 273.664 485.428 273.434 495.138 278.257" stroke="#263238" stroke-linecap="round" stroke-linejoin="round"/>
<path d="M472.974 283.809C472.974 283.809 473.131 281.464 483.737 289.428" stroke="#263238" stroke-linecap="round" stroke-linejoin="round"/>
<path d="M465.751 272.671C465.751 272.671 465.023 267.216 457.553 264.86" stroke="#263238" stroke-linecap="round" stroke-linejoin="round"/>
<path d="M467.789 280.777L461.506 280.177" stroke="#263238" stroke-linecap="round" stroke-linejoin="round"/>
<path d="M468.887 289.013C468.887 289.013 457.452 292.777 453.767 297.425" stroke="#263238" stroke-linecap="round" stroke-linejoin="round"/>
<path d="M401.757 316.178C401.757 316.178 437.931 339.448 437.304 429.616" stroke="#263238" stroke-width="2" stroke-linecap="round" stroke-linejoin="round"/>
<path d="M446.342 309.992C446.342 309.992 445.222 320.204 436.945 320.051C428.669 319.898 424.76 306.174 416.103 308.716C407.446 311.258 405.452 325.811 405.452 325.811C405.452 325.811 413.953 320.073 417.962 323.629C421.972 327.186 420.572 332.062 418.321 331.091C416.069 330.121 403.828 326.411 402.641 335.553C402.233 338.152 402.371 340.804 403.047 343.349C403.723 345.893 404.922 348.278 406.572 350.358C406.572 350.358 416.797 334.921 423.002 338.357C429.207 341.794 417.212 343.441 411.993 349.016C406.774 354.591 403.224 360.645 407.188 363.133C411.153 365.62 416.361 371.271 416.361 371.271C416.361 371.271 415.946 362.74 421.692 356.598C427.437 350.456 431.435 354.002 426.171 359.587C420.908 365.173 422.52 374.73 422.52 374.73C422.52 374.73 436.341 376.759 446.611 373.639C456.881 370.519 457.25 366.733 454.327 363.133C451.404 359.533 440.731 354.132 444.382 350.227C448.033 346.321 454.641 369.526 459.904 365.009C465.168 360.493 467.106 355.06 464.709 350.892L462.312 346.725C462.312 346.725 451.628 341.336 448.716 337.735C445.804 334.135 450.273 336.055 455.335 338.499C460.397 340.943 471.182 348.459 472.134 346.278C473.086 344.096 470.365 332.455 468.55 328.822C466.736 325.189 450.351 326.989 448.627 325.462C446.902 323.935 456.041 319.778 458.796 320.182C460.852 320.524 462.889 320.968 464.899 321.513C464.899 321.513 465.683 315.054 457.138 308.498C448.593 301.941 446.342 309.992 446.342 309.992Z" fill="#92E3A9"/>
<path opacity="0.3" d="M446.342 309.992C446.342 309.992 445.222 320.204 436.945 320.051C428.669 319.898 424.76 306.174 416.103 308.716C407.446 311.258 405.452 325.811 405.452 325.811C405.452 325.811 413.953 320.073 417.962 323.629C421.972 327.186 420.572 332.062 418.321 331.091C416.069 330.121 403.828 326.411 402.641 335.553C402.233 338.152 402.371 340.804 403.047 343.349C403.723 345.893 404.922 348.278 406.572 350.358C406.572 350.358 416.797 334.921 423.002 338.357C429.207 341.794 417.212 343.441 411.993 349.016C406.774 354.591 403.224 360.645 407.188 363.133C411.153 365.62 416.361 371.271 416.361 371.271C416.361 371.271 415.946 362.74 421.692 356.598C427.437 350.456 431.435 354.002 426.171 359.587C420.908 365.173 422.52 374.73 422.52 374.73C422.52 374.73 436.341 376.759 446.611 373.639C456.881 370.519 457.25 366.733 454.327 363.133C451.404 359.533 440.731 354.132 444.382 350.227C448.033 346.321 454.641 369.526 459.904 365.009C465.168 360.493 467.106 355.06 464.709 350.892L462.312 346.725C462.312 346.725 451.628 341.336 448.716 337.735C445.804 334.135 450.273 336.055 455.335 338.499C460.397 340.943 471.182 348.459 472.134 346.278C473.086 344.096 470.365 332.455 468.55 328.822C466.736 325.189 450.351 326.989 448.627 325.462C446.902 323.935 456.041 319.778 458.796 320.182C460.852 320.524 462.889 320.968 464.899 321.513C464.899 321.513 465.683 315.054 457.138 308.498C448.593 301.941 446.342 309.992 446.342 309.992Z" fill="#263238"/>
<path d="M437.931 359.74C436.005 351.012 433.832 338.586 434.728 330.284" stroke="#263238" stroke-linecap="round" stroke-linejoin="round"/>
<path d="M440.473 370.159C440.473 370.159 439.801 367.769 438.905 364.049" stroke="#263238" stroke-linecap="round" stroke-linejoin="round"/>
<path d="M438.458 328.539C438.458 328.539 453.319 329.466 464.06 335.914" stroke="#263238" stroke-linecap="round" stroke-linejoin="round"/>
<path d="M437.931 340.343C437.931 340.343 438.346 337.659 449.814 347.816" stroke="#263238" stroke-linecap="round" stroke-linejoin="round"/>
<path d="M430.696 326.782C430.696 326.782 430.383 320.378 421.983 317.029" stroke="#263238" stroke-linecap="round" stroke-linejoin="round"/>
<path d="M432.253 336.328L425.052 335.063" stroke="#263238" stroke-linecap="round" stroke-linejoin="round"/>
<path d="M432.712 345.928C432.712 345.928 419.161 349.201 414.468 354.252" stroke="#263238" stroke-linecap="round" stroke-linejoin="round"/>
<path d="M415.857 387.232C415.857 387.232 439.141 404.546 441.616 430.216L436.71 344.238" stroke="#263238" stroke-width="2" stroke-linecap="round" stroke-linejoin="round"/>
<path d="M472.235 374.686C441.593 369.319 441.593 430.216 441.593 430.216" stroke="#263238" stroke-width="2" stroke-linecap="round" stroke-linejoin="round"/>
<path d="M445.267 429.616C445.267 429.616 427.493 303.643 478.977 303.643" stroke="#263238" stroke-width="2" stroke-linecap="round" stroke-linejoin="round"/>
<path d="M460.565 371.086C456.377 366.504 447.484 366.504 442.243 378.232C437.002 389.959 441.728 387.908 441.728 387.908C441.728 387.908 451.662 384.854 457.945 382.814C464.228 380.774 472.65 375.657 473.12 378.723C473.59 381.788 468.931 384.843 463.175 385.857C457.418 386.872 442.243 390.963 443.822 394.018C445.401 397.072 449.052 406.247 449.052 406.247C453.526 402.554 458.244 399.15 463.175 396.058C469.984 391.978 474.162 393.505 470.499 398.098C466.837 402.691 456.377 407.775 458.471 413.895C460.565 420.015 473.12 427.652 473.12 427.652C473.12 427.652 474.688 414.91 478.35 410.84C482.012 406.771 482.012 411.342 480.971 418.477C480.445 421.51 480.094 424.57 479.918 427.641L494.578 432.747C494.578 432.747 499.809 425.11 502.418 422.546L505.039 420.004C505.039 420.004 493.526 410.317 492.999 404.196C492.473 398.076 500.839 404.196 503.471 405.222C506.103 406.247 510.269 413.371 510.269 413.371C510.269 413.371 512.89 401.654 513.416 397.574L513.931 393.494C513.931 393.494 502.944 389.414 498.756 389.414C494.567 389.414 492.484 392.479 492.484 388.399C492.484 384.319 496.661 381.777 501.376 382.279C505.638 382.976 509.836 384.001 513.931 385.345C513.931 385.345 517.078 382.792 516.025 375.144C514.973 367.497 512.363 367.508 506.08 369.537C499.797 371.566 495.62 376.17 490.916 376.17C486.212 376.17 488.822 370.562 491.958 369.035C495.094 367.508 502.944 364.442 504.512 363.929C506.08 363.416 496.146 356.293 490.916 355.267C485.686 354.242 478.899 357.842 479.403 362.904C480.489 373.617 464.743 375.657 460.565 371.086Z" fill="#92E3A9"/>
<path d="M494.242 423.55C494.399 425.088 494.511 426.626 494.578 428.154" stroke="#263238" stroke-linecap="round" stroke-linejoin="round"/>
<path d="M483.737 386.959C488.33 397.056 491.637 407.663 493.581 418.542" stroke="#263238" stroke-linecap="round" stroke-linejoin="round"/>
<path d="M481.845 382.868C479.257 377.413 477.365 374.141 477.365 374.141C480.218 372.823 482.59 370.688 484.163 368.02C485.385 365.606 487.177 363.508 489.393 361.9" stroke="#263238" stroke-linecap="round" stroke-linejoin="round"/>
<path d="M458.998 391.454C458.998 391.454 477.835 383.817 477.835 385.345" stroke="#263238" stroke-linecap="round" stroke-linejoin="round"/>
<path d="M488.329 381.777C488.329 381.777 496.695 377.697 504.008 377.697" stroke="#263238" stroke-linecap="round" stroke-linejoin="round"/>
<path d="M485.16 393.996C481.528 396.902 478.197 400.146 475.214 403.684C472.157 407.191 469.685 411.145 467.89 415.401" stroke="#263238" stroke-linecap="round" stroke-linejoin="round"/>
<path d="M490.916 396.047C490.916 396.047 501.903 392.981 507.659 398.087" stroke="#263238" stroke-linecap="round" stroke-linejoin="round"/>
<path d="M510.818 327.175C505.117 323.902 498.823 323.815 495.732 320.357C492.641 316.898 498.7 315.142 501.948 316.451C505.195 317.76 512.71 321.524 514.133 322.342C515.555 323.16 514.569 311.171 511.893 306.654C509.216 302.138 502.037 299.508 498.453 303.196C490.849 310.985 478.977 300.774 479.784 294.686C480.59 288.599 474.766 282.064 462.245 285.893C449.724 289.722 454.406 291.861 454.406 291.861C454.406 291.861 463.298 297.163 468.965 300.447C474.632 303.73 484.096 306.545 482.068 308.934C480.041 311.323 474.587 309.872 470.018 306.305C465.448 302.738 452.345 294.25 450.978 297.414C449.612 300.577 444.931 309.272 444.931 309.272C450.731 310.143 456.466 311.382 462.1 312.982C469.715 315.316 471.272 319.396 465.314 319.713C459.356 320.029 448.515 315.665 445.155 321.218C441.795 326.771 444.091 341.019 444.091 341.019C444.091 341.019 454.999 333.819 460.565 333.841C466.131 333.863 462.57 336.863 456.354 340.779C453.644 342.382 451.026 344.13 448.515 346.016L454.114 360.198C454.114 360.198 463.477 359.031 467.162 359.282L470.858 359.533C470.858 359.533 470.858 344.718 475.214 340.332C479.571 335.946 480.355 346.103 481.284 348.689C482.214 351.274 479.425 359.042 479.425 359.042C479.425 359.042 490.222 353.282 493.727 350.991L497.233 348.71C497.233 348.71 493.19 337.954 490.446 334.866C487.702 331.779 483.961 332.259 487.086 329.586C490.21 326.913 494.925 328.32 497.658 332.117C499.914 335.707 501.876 339.464 503.527 343.354C503.527 343.354 507.559 343.998 512.8 338.215C518.041 332.433 516.507 330.459 510.818 327.175ZM461.293 343.485C457.105 341.445 467.05 337.375 467.05 337.375C470.712 336.863 465.482 345.525 461.293 343.485ZM468.349 324.459C466.557 323.586 471.91 321.851 471.91 321.851C479.649 323.302 470.13 325.331 468.349 324.459Z" fill="#92E3A9"/>
<path d="M461.181 353.871C460.061 354.962 458.941 356.053 457.822 357.143" stroke="#263238" stroke-linecap="round" stroke-linejoin="round"/>
<path d="M482.662 322.146C477.844 332.144 471.789 341.53 464.631 350.096" stroke="#263238" stroke-linecap="round" stroke-linejoin="round"/>
<path d="M484.6 318.087C487.108 312.633 488.396 309.011 488.396 309.011C491.285 310.249 494.494 310.595 497.591 310.003C500.264 309.319 503.067 309.263 505.767 309.84" stroke="#263238" stroke-linecap="round" stroke-linejoin="round"/>
<path d="M480.041 316.745C481.229 315.742 462.951 306.927 462.951 306.927" stroke="#263238" stroke-linecap="round" stroke-linejoin="round"/>
<path d="M489.673 322.102C489.673 322.102 498.319 325.593 503.112 330.982" stroke="#263238" stroke-linecap="round" stroke-linejoin="round"/>
<path d="M478.126 327.819C473.495 327.055 468.8 326.73 464.104 326.848C459.38 326.9 454.693 327.677 450.217 329.15" stroke="#263238" stroke-linecap="round" stroke-linejoin="round"/>
<path d="M480.321 333.382C480.321 333.382 489.897 339.448 489.718 347.085" stroke="#263238" stroke-linecap="round" stroke-linejoin="round"/>
<path d="M429.509 397.803C424.917 395.163 419.855 395.098 417.369 392.349C414.883 389.599 419.765 388.148 422.375 389.196C424.984 390.243 431.032 393.287 432.175 393.941C433.317 394.596 432.533 384.952 430.405 381.319C428.277 377.686 422.465 375.57 419.564 378.537C413.438 384.81 403.885 376.584 404.534 371.686C405.184 366.788 400.491 361.529 390.423 364.617C380.354 367.704 384.106 369.417 384.106 369.417C384.106 369.417 391.263 373.682 395.843 376.322C400.424 378.963 408.028 381.232 406.393 383.163C404.758 385.094 400.368 383.905 396.694 380.981C393.021 378.057 382.471 371.282 381.396 373.824C380.321 376.366 376.524 383.381 376.524 383.381C381.19 384.074 385.803 385.069 390.333 386.359C396.47 388.236 397.725 391.52 392.931 391.814C388.138 392.109 379.436 388.541 376.726 393.025C374.015 397.509 375.863 408.964 375.863 408.964C375.863 408.964 384.644 403.171 389.124 403.182C393.603 403.193 390.736 405.626 385.764 408.768C383.592 410.056 381.498 411.466 379.492 412.99L384.039 424.346C387.518 423.893 391.023 423.649 394.533 423.615L397.512 423.823C397.512 423.823 397.512 411.899 401.018 408.364C404.523 404.829 405.161 413.011 405.9 415.095C406.64 417.179 404.333 423.452 404.333 423.452C404.333 423.452 413.035 418.815 415.846 416.971L418.668 415.128C418.668 415.128 415.42 406.477 413.203 403.989C410.985 401.502 407.984 401.894 410.526 399.734C413.068 397.574 416.876 398.72 419.038 401.774C420.854 404.666 422.431 407.694 423.753 410.829C423.753 410.829 427 411.342 431.223 406.684C435.445 402.025 434.09 400.444 429.509 397.803ZM389.661 410.895C386.29 409.269 394.253 405.996 394.253 405.996C397.232 405.593 393.021 412.542 389.661 410.928V410.895ZM395.328 395.621C393.895 394.923 398.195 393.527 398.195 393.527C404.422 394.683 396.762 396.32 395.373 395.611L395.328 395.621Z" fill="#92E3A9"/>
<path d="M389.571 419.284C388.687 420.19 387.791 421.063 386.861 421.914" stroke="#263238" stroke-linecap="round" stroke-linejoin="round"/>
<path d="M406.852 393.756C402.965 401.808 398.075 409.363 392.293 416.251" stroke="#263238" stroke-linecap="round" stroke-linejoin="round"/>
<path d="M408.409 390.483C410.425 386.119 411.467 383.185 411.467 383.185C413.793 384.181 416.376 384.459 418.87 383.981C421.02 383.435 423.272 383.39 425.444 383.85" stroke="#263238" stroke-linecap="round" stroke-linejoin="round"/>
<path d="M390.994 381.483C390.994 381.483 405.699 388.607 404.747 389.414" stroke="#263238" stroke-linecap="round" stroke-linejoin="round"/>
<path d="M412.486 393.723C412.486 393.723 419.452 396.527 423.316 400.858" stroke="#263238" stroke-linecap="round" stroke-linejoin="round"/>
<path d="M403.213 398.36C399.484 397.746 395.703 397.486 391.923 397.585C388.114 397.626 384.335 398.248 380.724 399.429" stroke="#263238" stroke-linecap="round" stroke-linejoin="round"/>
<path d="M404.971 402.8C404.971 402.8 412.676 407.687 412.531 413.786" stroke="#263238" stroke-linecap="round" stroke-linejoin="round"/>
<path d="M410.817 313.625C410.817 313.625 405.06 317.705 401.398 313.625C397.736 309.545 402.966 301.396 397.736 298.352C392.506 295.308 384.173 300.883 384.173 300.883C384.173 300.883 390.971 302.421 390.971 305.989C390.971 309.556 387.836 311.083 387.309 309.556C386.783 308.029 383.121 300.381 377.89 303.949C376.378 304.937 375.089 306.215 374.099 307.704C373.109 309.193 372.441 310.862 372.134 312.611C372.134 312.611 384.7 310.571 385.741 315.164C386.783 319.756 380.511 314.651 375.281 314.651C370.051 314.651 365.336 315.665 365.862 318.731C366.142 321.441 366.142 324.171 365.862 326.88C368.566 324.407 372.09 322.96 375.796 322.8C381.553 322.8 381.553 326.368 376.322 326.368C371.092 326.368 366.904 331.473 366.904 331.473C366.904 331.473 372.134 339.11 378.417 342.688C384.7 346.267 386.783 344.718 387.309 341.663C387.836 338.608 385.741 330.961 389.403 330.961C393.066 330.961 384.173 344.718 388.877 345.23C393.581 345.743 397.254 344.216 398.296 341.15L399.349 338.095C399.349 338.095 397.254 330.459 397.781 327.393C398.307 324.328 399.349 327.393 400.39 330.961C401.432 334.528 402.485 343.19 404.052 342.688C405.62 342.187 410.335 335.543 411.377 333.001C412.419 330.459 404.052 323.313 404.052 321.786C404.052 320.258 410.335 322.8 411.377 324.338C412.141 325.49 412.84 326.681 413.471 327.906C413.471 327.906 417.134 325.353 416.618 318.218C416.103 311.083 410.817 313.625 410.817 313.625Z" fill="#92E3A9"/>
<path d="M381.497 332.117C385.114 327.197 390.456 320.509 395.115 317.204" stroke="#263238" stroke-linecap="round" stroke-linejoin="round"/>
<path d="M377.319 338.095C377.319 338.095 378.249 336.677 379.75 334.561" stroke="#263238" stroke-linecap="round" stroke-linejoin="round"/>
<path d="M397.736 318.218C397.736 318.218 404.008 325.855 405.576 334.015" stroke="#263238" stroke-linecap="round" stroke-linejoin="round"/>
<path d="M391.453 323.313C391.453 323.313 393.021 322.298 393.021 332.488" stroke="#263238" stroke-linecap="round" stroke-linejoin="round"/>
<path d="M395.115 313.625C395.115 313.625 398.251 310.571 396.157 304.963" stroke="#263238" stroke-linecap="round" stroke-linejoin="round"/>
<path d="M390.927 318.731L388.317 314.651" stroke="#263238" stroke-linecap="round" stroke-linejoin="round"/>
<path d="M386.223 323.313C386.223 323.313 378.383 318.218 373.657 318.218" stroke="#263238" stroke-linecap="round" stroke-linejoin="round"/>
<path d="M463.656 427.827H423.204V484.545H463.656V427.827Z" fill="#263238" stroke="#263238" stroke-width="2" stroke-linecap="round" stroke-linejoin="round"/>
<path d="M38.108 484.545H7.86926" stroke="#263238" stroke-miterlimit="10" stroke-linecap="round"/>
<path d="M480.489 484.545H52.6672" stroke="#263238" stroke-miterlimit="10" stroke-linecap="round"/>
<path d="M305.889 186.398C306.933 189.993 307.682 193.663 308.129 197.373C308.633 202.49 308.386 208.588 308.633 209.559C308.879 210.53 321.647 216.105 321.647 216.105L318.645 232.687C318.645 232.687 307.378 224.396 302.876 219.999C298.374 215.603 296.369 213.17 294.107 211.272C291.845 209.374 283.098 203.221 279.839 200.046C276.58 196.871 274.832 191.024 277.845 189.562C280.858 188.1 293.11 190.293 294.107 191.024C295.104 191.755 298.867 191.275 298.867 191.275L303.626 186.911L305.889 186.398Z" fill="white" stroke="#263238" stroke-miterlimit="10" stroke-linecap="round"/>
<path d="M267.34 178.347L293.121 206.395L308.386 200.297L286.368 173.47L267.34 178.347Z" fill="#263238" stroke="#263238" stroke-miterlimit="10" stroke-linecap="round"/>
<path d="M303.884 190.293C302.383 191.755 298.127 194.929 296.627 195.42C295.126 195.911 291.621 193.958 293.368 192.246C295.115 190.533 301.879 182.983 301.879 182.983C302.045 182.726 302.28 182.518 302.559 182.382C302.838 182.245 303.15 182.186 303.461 182.211C303.771 182.236 304.069 182.343 304.322 182.522C304.574 182.7 304.771 182.943 304.892 183.223C306.393 185.405 306.135 189.562 306.135 189.562" fill="white"/>
<path d="M303.884 190.293C302.383 191.755 298.127 194.929 296.627 195.42C295.126 195.911 291.621 193.958 293.368 192.246C295.115 190.533 301.879 182.983 301.879 182.983C302.045 182.726 302.28 182.518 302.559 182.382C302.838 182.245 303.15 182.186 303.461 182.211C303.771 182.236 304.069 182.343 304.322 182.522C304.574 182.7 304.771 182.943 304.892 183.223C306.393 185.405 306.135 189.562 306.135 189.562" stroke="#263238" stroke-miterlimit="10" stroke-linecap="round"/>
<path d="M275.538 186.54C275.538 186.54 273.802 194.613 275.157 195.704C275.483 195.934 275.864 196.077 276.264 196.121C276.663 196.164 277.068 196.107 277.438 195.953C277.807 195.799 278.13 195.555 278.374 195.243C278.618 194.932 278.776 194.565 278.831 194.177C278.831 192.649 280.567 187.849 279.413 186.103C278.259 184.358 276.747 183.922 275.538 186.54Z" fill="white" stroke="#263238" stroke-miterlimit="10" stroke-linecap="round"/>
<path d="M280.802 192.66C280.802 192.66 279.144 201.388 280.432 202.479C280.751 202.717 281.131 202.864 281.531 202.904C281.931 202.945 282.334 202.876 282.696 202.707C283.058 202.537 283.364 202.273 283.582 201.944C283.799 201.615 283.918 201.234 283.927 200.842C283.927 199.195 285.584 194.046 284.487 192.169C283.389 190.293 281.899 189.846 280.802 192.66Z" fill="white" stroke="#263238" stroke-miterlimit="10" stroke-linecap="round"/>
<path d="M284.8 195.333C284.8 195.333 283.143 204.061 284.431 205.152C284.755 205.37 285.133 205.5 285.527 205.531C285.92 205.561 286.314 205.489 286.67 205.323C287.026 205.157 287.33 204.902 287.553 204.585C287.775 204.267 287.907 203.898 287.936 203.515C287.936 201.868 289.594 196.708 288.485 194.788C287.376 192.867 285.909 192.529 284.8 195.333Z" fill="white" stroke="#263238" stroke-miterlimit="10" stroke-linecap="round"/>
<path d="M288.059 199.031C288.059 199.031 286.883 205.217 287.802 206.057C288.03 206.223 288.302 206.325 288.586 206.351C288.87 206.377 289.156 206.326 289.413 206.205C289.669 206.083 289.887 205.895 290.041 205.661C290.195 205.427 290.281 205.157 290.288 204.879C290.288 203.712 291.475 200.035 290.691 198.704C289.907 197.373 288.843 197.024 288.059 199.031Z" fill="white" stroke="#263238" stroke-miterlimit="10" stroke-linecap="round"/>
<path d="M337.684 218.09L319.653 214.436L314.154 240.28L331.928 244.917L337.684 218.09Z" fill="#92E3A9" stroke="#263238" stroke-miterlimit="10" stroke-linecap="round"/>
<path d="M405.643 469.468C405.643 469.468 405.318 481.327 405.318 482.952C405.318 484.578 397.971 485.876 392.64 485.723C387.309 485.571 378.63 485.876 373.288 485.069C367.753 484.442 362.182 484.173 356.611 484.262C353.252 484.262 351.941 478.894 355.491 476.134C359.042 473.374 367.811 472.861 373.008 470.93C378.204 468.999 380.679 463.621 380.679 463.621C385.27 463.757 389.842 464.246 394.354 465.083C398.332 465.951 402.143 467.431 405.643 469.468Z" fill="white" stroke="#263238" stroke-miterlimit="10" stroke-linecap="round"/>
<path d="M405.318 482.952C405.318 482.68 405.318 482.112 405.318 481.36C398.083 481.992 385.372 482.309 376.771 482.309C368.169 482.309 357.115 481.218 353.397 480.825C353.588 482.691 354.797 484.262 356.589 484.262C362.16 484.173 367.731 484.443 373.265 485.069C378.607 485.876 387.276 485.56 392.618 485.723C397.96 485.887 405.318 484.545 405.318 482.952Z" fill="white" stroke="#263238" stroke-miterlimit="10" stroke-linecap="round"/>
<path d="M390.501 403.815C390.501 403.815 401.141 431.088 403.381 442.543C405.621 453.998 405.621 470.363 405.621 470.363C405.621 470.363 398.901 469.817 395.541 468.181C392.181 466.544 389.381 464.908 389.381 464.908L390.501 403.815Z" fill="white" stroke="#263238" stroke-miterlimit="10" stroke-linecap="round"/>
<path d="M358.583 463.817C354.142 467.72 349.467 471.363 344.583 474.727C337.304 479.636 330.584 481.818 332.824 484.545C335.064 487.273 338.424 490 354.103 490C369.782 490 383.782 488.364 387.141 486.182C390.501 484 387.701 470.363 387.701 470.363L358.583 463.817Z" fill="white" stroke="#263238" stroke-miterlimit="10" stroke-linecap="round"/>
<path d="M388.72 482.003C385.311 483.022 381.825 483.777 378.294 484.262C370.622 485.232 347.439 485.876 341.604 484.098C339.158 483.471 336.937 482.199 335.187 480.421C332.835 481.938 331.692 483.171 332.824 484.545C335.064 487.273 338.423 490 354.103 490C369.782 490 383.781 488.364 387.141 486.182C388.116 485.549 388.564 483.956 388.72 482.003Z" fill="white" stroke="#263238" stroke-miterlimit="10" stroke-linecap="round"/>
<path d="M331.704 249.99C331.704 249.99 326.664 320.356 328.904 346.539C331.144 372.722 342.343 400.542 348.503 413.088C354.663 425.634 356.903 448.544 357.462 450.18C358.022 451.817 356.343 453.998 356.343 453.998C356.343 453.998 355.223 452.362 355.223 456.726C355.337 460.202 355.711 463.666 356.343 467.09C356.343 467.09 366.982 472.545 374.262 475.818C378.944 477.812 384.028 478.752 389.135 478.567C389.135 478.567 393.861 467.657 395.541 458.362C397.221 449.067 393.861 424.543 392.741 413.088C391.621 401.633 398.901 315.993 398.901 309.447C398.901 302.901 401.141 281.628 397.221 264.718C393.301 247.808 366.982 246.717 353.543 242.899C340.103 239.08 331.144 243.99 331.704 249.99Z" fill="white" stroke="#263238" stroke-miterlimit="10" stroke-linecap="round"/>
<path d="M374.262 475.818C374.643 475.992 375.035 476.145 375.382 476.298C376.11 470.461 377.106 460.85 375.908 453.06C373.092 433.256 371.64 413.291 371.563 393.298C371.563 368.577 365.638 334.779 360.565 313.352C355.805 293.257 360.565 247.077 360.621 246.619L355.021 246.062C354.808 247.993 350.104 293.606 355.077 314.574C360.083 335.717 365.929 369.035 365.929 393.298C366.01 413.561 367.484 433.796 370.342 453.868C371.316 460.206 370.633 468.366 370.006 473.876C371.518 474.563 372.974 475.228 374.262 475.818Z" fill="#263238"/>
<path d="M367.475 456.279L367.901 455.46L367.733 454.566C367.733 454.424 364.978 440.012 362.29 419.044C361.416 412.28 360.531 401.949 359.579 390.996C357.463 366.384 355.1 338.488 351.236 326.968C345.983 311.072 346.454 270.238 346.454 269.802H346.263C347.529 255.946 348.604 245.233 348.626 245.004L343.027 244.47C342.971 244.961 338.088 293.29 337.001 318.109C336.419 331.517 340.271 355.911 343.721 377.424C344.438 381.919 345.132 386.359 345.782 390.581C344.214 385.072 342.422 378.668 340.361 371.293C332.286 342.099 336.408 258.096 340.91 251.583C340.715 251.795 340.477 251.964 340.211 252.081C339.945 252.197 339.656 252.258 339.364 252.259L339.23 246.804C338.672 246.825 338.127 246.973 337.639 247.236C337.15 247.499 336.733 247.871 336.419 248.321C330.36 256.197 326.81 343.234 334.952 372.69C337.74 382.748 340.092 391.007 341.985 397.64C342.153 398.207 342.31 398.731 342.467 399.32C344.706 404.851 346.79 409.553 348.514 413.066C351.874 419.873 354.047 429.725 355.436 437.59C355.167 432.779 354.719 426.43 354.092 422.175C354.092 421.837 353.991 421.499 353.924 421.084C353.856 420.67 354.036 420.583 354.08 420.31C355.2 414.059 352.445 396.658 349.253 376.519C345.894 355.245 342.075 331.146 342.635 318.262C342.713 316.691 342.791 314.989 342.892 313.298C343.426 318.468 344.442 323.58 345.927 328.571C349.545 339.481 352.02 368.271 354.013 391.389C354.965 402.396 355.861 412.782 356.746 419.655C359.075 437.82 361.427 451.129 362.066 454.566C359.972 458.663 358.313 462.959 357.115 467.384L362.346 470.014C362.57 466.894 365.56 460.021 367.475 456.279Z" fill="#263238"/>
<path d="M388.922 478.578C390.733 467.271 391.702 455.852 391.823 444.409C391.823 430.772 390.602 409.771 389.516 391.247C389.157 385.072 388.821 379.192 388.541 373.988C388.15 366.602 387.422 358.322 386.66 349.561C385.271 333.546 383.826 316.996 384.174 303.381C384.711 282.293 384.722 254.081 384.722 253.797H379.123C379.123 254.081 379.123 282.228 378.574 303.239C378.216 317.16 379.694 333.862 381.083 350.02C381.844 358.747 382.561 366.973 382.953 374.271C383.222 379.486 383.569 385.377 383.927 391.552C385.047 410.011 386.223 430.936 386.223 444.409C386.083 455.758 385.106 467.082 383.3 478.294C385.162 478.548 387.043 478.643 388.922 478.578Z" fill="#263238"/>
<path d="M394.556 319.287C394.556 303.392 395.776 270.38 396.112 261.467C395.744 260.665 395.313 259.892 394.824 259.154L390.602 258.99C390.602 259.405 388.956 300.785 388.956 319.266C388.956 336.721 392.708 384.963 393.279 392.119C393.928 380.261 394.97 365.249 395.989 351.252C395.194 338.685 394.556 326.357 394.556 319.287Z" fill="#263238"/>
<path d="M383.625 451.337C383.625 442.663 382.505 431.219 381.262 419.11C380.007 406.618 378.708 393.712 378.708 383.708C378.722 357.752 376.884 331.827 373.209 306.119C369.48 280.657 371.843 253.655 372.515 247.088C370.667 246.641 368.83 246.237 367.016 245.855C366.433 251.31 363.712 279.882 367.665 306.949C371.305 332.4 373.123 358.066 373.108 383.763C373.108 394.029 374.419 407.076 375.684 419.688C376.894 431.688 378.025 442.991 378.025 451.391C378.111 459.789 377.27 468.172 375.516 476.396C377.261 477.071 379.063 477.593 380.903 477.956C382.814 469.207 383.727 460.28 383.625 451.337Z" fill="#263238"/>
<path d="M345.669 168.648C345.669 168.648 333.126 191.613 333.126 199.391C333.126 207.17 335.791 209.385 335.791 214.196C335.791 219.007 326.664 242.713 326.664 247.895C326.664 253.077 337.303 253.819 340.73 253.819H348.335C352.12 255.657 356.27 256.669 360.498 256.787C366.96 256.787 375.707 259.372 379.537 261.969C383.367 264.565 399.696 272.704 399.696 272.704C399.696 272.704 403.504 269.747 401.936 259.743C400.368 249.739 395.854 243.084 396.616 236.418C397.378 229.753 398.509 195.682 398.509 181.238C398.509 166.794 390.904 154.575 384.061 149.764C377.218 144.953 362.782 151.248 358.213 156.43C353.643 161.612 345.669 168.648 345.669 168.648Z" fill="#92E3A9" stroke="#263238" stroke-miterlimit="10" stroke-linecap="round"/>
<path d="M339.095 243.324L348.335 253.819" stroke="#263238" stroke-miterlimit="10" stroke-linecap="round"/>
<path d="M334.649 238.273L337.113 241.066" stroke="#263238" stroke-miterlimit="10" stroke-linecap="round"/>
<path d="M367.542 159.441C367.542 159.441 355.223 181.26 355.223 212.897C355.223 244.535 351.303 287.082 351.303 287.082L398.341 282.173C398.341 282.173 402.877 218.538 394.421 185.078C385.966 151.618 373.142 152.895 367.542 159.441Z" stroke="#263238" stroke-width="2" stroke-miterlimit="10" stroke-linecap="round"/>
<path d="M352.983 281.082C352.983 281.082 349.063 313.811 353.543 318.174C358.022 322.538 392.181 317.084 398.341 315.993C404.5 314.902 403.75 306.174 403.19 300.719C402.63 295.264 399.651 272.703 399.651 272.703L352.983 281.082Z" fill="white" stroke="#263238" stroke-miterlimit="10" stroke-linecap="round"/>
<path d="M352.983 281.082C352.983 281.082 352.983 299.628 363.622 301.81C374.262 303.992 394.981 301.81 397.781 295.264C400.581 288.719 399.651 272.703 399.651 272.703L352.983 281.082Z" fill="#263238" stroke="#263238" stroke-miterlimit="10" stroke-linecap="round"/>
<path d="M370.174 64.8548C370.174 64.8548 351.896 63.7638 340.204 71.2587C328.512 78.7535 337.281 88.714 339.476 90.8959C341.671 93.0778 345.681 98.0198 354.092 98.0198C362.502 98.0198 380.041 94.4524 382.594 83.0628C385.148 71.6732 370.174 64.8548 370.174 64.8548Z" fill="#263238" stroke="#263238" stroke-miterlimit="10" stroke-linecap="round"/>
<path d="M361.035 81.9828C361.035 81.9828 346.778 86.9685 343.497 91.9541C340.215 96.9398 340.204 103.344 339.107 105.842C338.009 108.34 329.968 111.537 329.968 113.315C329.968 115.093 336.183 120.079 336.183 120.079C336.183 120.079 336.553 141.233 338.737 141.44C342.881 141.697 347.026 140.947 350.799 139.258L358.471 160.259C358.471 160.259 369.804 135.341 373.456 124.661C377.107 113.98 377.846 90.4922 374.575 86.5757C371.305 82.6592 361.035 81.9828 361.035 81.9828Z" fill="white" stroke="#263238" stroke-miterlimit="10" stroke-linecap="round"/>
<path d="M346.005 105.395C345.557 107.107 344.639 108.362 343.956 108.187C343.273 108.013 343.082 106.486 343.53 104.773C343.978 103.06 344.897 101.805 345.58 101.98C346.263 102.155 346.465 103.682 346.005 105.395Z" fill="#263238"/>
<path d="M340.932 122.174C340.932 122.174 348.245 125.021 352.266 119.675" stroke="#263238" stroke-miterlimit="10" stroke-linecap="round"/>
<path d="M344.225 98.3471C344.225 98.3471 345.681 93.7215 349.343 98.3471" stroke="#263238" stroke-miterlimit="10" stroke-linecap="round"/>
<path d="M343.127 110.424L348.245 109.355" stroke="#263238" stroke-miterlimit="10" stroke-linecap="round"/>
<path d="M354.092 79.8009C354.092 79.8009 357.743 78.0117 360.666 84.7756C363.589 91.5395 365.056 113.97 358.84 136.051C352.624 158.131 340.574 175.565 342.041 184.827C343.508 194.089 352.636 201.911 358.84 187.314C365.045 172.718 366.881 156.702 376.02 153.146C385.159 149.589 388.721 159.375 392.741 168.986C396.762 178.598 396.851 206.537 395.754 220.425C394.656 234.313 396.482 242.135 403.056 240.357C409.63 238.578 418.041 236.8 417.683 225.083C417.324 213.367 411.467 209.068 413.292 204.792C415.118 200.515 427.908 190.195 424.985 177.027C422.062 163.859 409.641 159.942 405.621 144.625C401.6 129.308 412.195 109.028 408.902 94.4415C405.609 79.8554 393.223 68.1058 382.225 64.1893C371.227 60.2728 354.092 67.3967 351.527 73.4406" fill="#263238"/>
<path d="M354.092 79.8009C354.092 79.8009 357.743 78.0117 360.666 84.7756C363.589 91.5395 365.056 113.97 358.84 136.051C352.624 158.131 340.574 175.565 342.041 184.827C343.508 194.089 352.636 201.911 358.84 187.315C365.045 172.718 366.881 156.702 376.02 153.146C385.159 149.589 388.721 159.375 392.741 168.986C396.762 178.598 396.851 206.537 395.754 220.425C394.656 234.313 396.482 242.135 403.056 240.357C409.63 238.578 418.041 236.8 417.683 225.083C417.324 213.367 411.467 209.068 413.292 204.792C415.118 200.515 427.908 190.195 424.985 177.027C422.062 163.859 409.641 159.942 405.621 144.625C401.6 129.308 412.195 109.028 408.902 94.4415C405.609 79.8554 393.223 68.1058 382.225 64.1893C371.227 60.2728 354.092 67.3967 351.527 73.4406" stroke="#263238" stroke-miterlimit="10" stroke-linecap="round"/>
<path d="M351.695 160.062C347.954 166.03 347.114 168.703 347.114 168.703" stroke="#7A7A7A" stroke-miterlimit="10" stroke-linecap="round"/>
<path d="M376.076 79.1244C379.089 82.2663 380.623 88.943 379.951 103.998C378.831 128.097 370.532 134.381 359.792 148.531C357.832 151.106 356.163 153.418 354.752 155.469" stroke="#7A7A7A" stroke-miterlimit="10" stroke-linecap="round"/>
<path d="M357.093 79.1136C358.816 77.8831 360.771 76.9953 362.847 76.5012C364.922 76.007 367.077 75.916 369.188 76.2335C370.607 76.3951 371.996 76.7399 373.321 77.259" stroke="#7A7A7A" stroke-miterlimit="10" stroke-linecap="round"/>
<path d="M394.186 111.853C394.869 109.769 395.508 107.751 396.09 105.831C399.853 93.2523 396.627 70.4622 385.865 69.9386C375.102 69.4149 355.48 77.8044 355.48 77.8044C355.48 77.8044 353.061 80.4226 353.061 81.7318C353.061 83.0409 354.943 83.8264 354.943 83.8264" stroke="#7A7A7A" stroke-miterlimit="10" stroke-linecap="round"/>
<path d="M405.598 165.212C399.304 157.335 391.498 149.873 389.09 144.342C386.593 138.592 388.844 129.068 391.744 119.544" stroke="#7A7A7A" stroke-miterlimit="10" stroke-linecap="round"/>
<path d="M410.324 212.45C407.312 209.635 404.052 208.086 404.422 204.813C404.96 200.09 417.335 190.925 413.561 178.63C412.347 175.113 410.579 171.8 408.32 168.812" stroke="#7A7A7A" stroke-miterlimit="10" stroke-linecap="round"/>
<path d="M413.83 217.163C413.515 216.471 413.141 215.807 412.71 215.177" stroke="#7A7A7A" stroke-miterlimit="10" stroke-linecap="round"/>
<path d="M340.495 86.5538C340.993 87.4489 341.699 88.2184 342.556 88.8012" stroke="#7A7A7A" stroke-miterlimit="10" stroke-linecap="round"/>
<path d="M357.093 77.2807C357.093 77.2807 350.373 73.0915 343.911 76.7571C342.922 77.2521 342.046 77.9391 341.34 78.7759C340.633 79.6126 340.109 80.5815 339.801 81.6227" stroke="#7A7A7A" stroke-miterlimit="10" stroke-linecap="round"/>
<path d="M398.251 448.14C398.251 456.802 397.725 464.155 397.266 468.868C399.069 469.41 400.916 469.804 402.787 470.046C403.269 465.29 403.851 457.533 403.851 448.162C403.851 447.18 403.851 446.165 403.851 445.14C403.851 444.114 403.56 443.394 403.403 442.565C401.795 435.735 399.775 429.003 397.355 422.404C397.77 429.856 398.251 439.882 398.251 448.14Z" fill="#263238"/>
<path d="M389.381 464.908L390.625 465.617C391.274 459.399 391.823 451.937 391.823 444.409C391.823 434.59 391.196 421.03 390.434 407.317L389.381 464.908Z" fill="#263238"/>
<path d="M341.492 274.929C341.492 274.929 330.461 294.184 327.806 295.297C325.152 296.41 312.217 300.479 312.217 300.479C312.217 300.479 301.577 309.741 300.435 312.698C299.292 315.654 302.339 315.294 302.339 315.294C302.339 315.294 301.219 319.735 303.1 319.735C303.69 319.735 304.271 319.6 304.798 319.343C305.325 319.085 305.783 318.711 306.135 318.251C306.135 318.251 306.516 321.589 308.039 320.433C309.322 319.334 310.468 318.093 311.455 316.734C311.455 316.734 310.694 320.433 313.695 318.578C316.696 316.724 320.538 310.069 320.538 310.069C320.538 310.069 328.142 307.472 329.666 306.73C331.189 305.989 335.747 298.21 335.747 298.21L358.146 281.18L341.492 274.929Z" fill="white" stroke="#263238" stroke-miterlimit="10" stroke-linecap="round"/>
<path d="M302.338 315.294C302.338 315.294 308.946 305.945 310.514 304.298" stroke="#263238" stroke-miterlimit="10" stroke-linecap="round"/>
<path d="M306.135 318.251C306.135 318.251 311.556 307.854 313.639 305.563" stroke="#263238" stroke-miterlimit="10" stroke-linecap="round"/>
<path d="M311.455 316.778C311.455 316.778 315.599 308.487 317.548 306.327" stroke="#263238" stroke-miterlimit="10" stroke-linecap="round"/>
<path d="M365.437 182.351L366.557 225.312L341.47 274.929L359.187 292.221C359.187 292.221 387.321 252.946 389.975 248.092C392.629 243.237 395.832 235.676 395.832 227.527C395.832 219.378 395.451 181.609 395.071 176.427C394.69 171.245 392.024 154.946 385.943 151.618C379.862 148.291 366.176 154.891 364.664 167.906" fill="#92E3A9"/>
<path d="M365.437 182.351L366.557 225.312L341.47 274.929L359.187 292.221C359.187 292.221 387.321 252.946 389.975 248.092C392.629 243.237 395.832 235.676 395.832 227.527C395.832 219.378 395.451 181.609 395.071 176.427C394.69 171.245 392.024 154.946 385.943 151.618C379.862 148.291 366.176 154.891 364.664 167.906" stroke="#263238" stroke-miterlimit="10" stroke-linecap="round"/>
<path d="M238.02 15.4344H31.9482C21.1238 15.4344 12.349 23.9821 12.349 34.5262V433.816C12.349 444.36 21.1238 452.907 31.9482 452.907H238.02C248.844 452.907 257.619 444.36 257.619 433.816V34.5262C257.619 23.9821 248.844 15.4344 238.02 15.4344Z" fill="#263238" stroke="#263238" stroke-miterlimit="10" stroke-linecap="round"/>
<path d="M239.912 57.2944H29.4395V418.117H239.912V57.2944Z" fill="#E5E5E5" stroke="#263238" stroke-miterlimit="10" stroke-linecap="round"/>
<path d="M239.912 57.2944H29.4395V77.8371H239.912V57.2944Z" fill="#263238" stroke="#263238" stroke-miterlimit="10" stroke-linecap="round"/>
<path d="M239.912 72.4805H29.4395V100.703H239.912V72.4805Z" fill="#92E3A9" stroke="#263238" stroke-miterlimit="10" stroke-linecap="round"/>
<path d="M40.9526 82.7028H52.2194" stroke="#263238" stroke-width="2" stroke-miterlimit="10" stroke-linecap="round"/>
<path d="M40.9526 88.0048H52.2194" stroke="#263238" stroke-width="2" stroke-miterlimit="10" stroke-linecap="round"/>
<path d="M40.9526 93.3069H52.2194" stroke="#263238" stroke-width="2" stroke-miterlimit="10" stroke-linecap="round"/>
<path d="M217.065 82.7028H227.492" stroke="#263238" stroke-width="2" stroke-miterlimit="10" stroke-linecap="round"/>
<path d="M218.387 88.0048H227.492" stroke="#263238" stroke-width="2" stroke-miterlimit="10" stroke-linecap="round"/>
<path d="M222.956 93.3069H227.492" stroke="#263238" stroke-width="2" stroke-miterlimit="10" stroke-linecap="round"/>
<path d="M230.426 119.206H40.4374V278.715H230.426V119.206Z" fill="white"/>
<path d="M230.426 290.846H40.4374V416.175H230.426V290.846Z" fill="white"/>
<path d="M44.9619 416.175V333.262H225.89V416.175" stroke="#CCCCCC" stroke-miterlimit="10" stroke-linecap="round"/>
<path d="M222.9 235.807H47.437V269.267H222.9V235.807Z" fill="#E8E8E8"/>
<path d="M222.9 237.258H189.302V269.256H222.9V237.258Z" fill="#D4D4D4"/>
<path d="M200.994 249.193H196.559V257.463H200.994V249.193Z" fill="#263238"/>
<path d="M213.324 249.401H209.181V246.281C209.181 245.55 208.766 243.357 207.523 243.171C206.28 242.986 206.493 243.717 206.493 244.819C206.249 246.145 205.831 247.436 205.25 248.659L202.349 248.986V257.507C204.813 257.659 212.014 258.085 212.697 257.637C213.38 257.19 213.324 251.779 213.324 251.779C213.617 251.448 213.778 251.026 213.778 250.59C213.778 250.153 213.617 249.731 213.324 249.401Z" fill="#263238"/>
<path d="M42.4534 63.5783C42.4534 65.1384 40.6502 65.6948 40.6502 66.8512V66.9276H42.3862V67.4621H40.0679V67.0148C40.0679 65.3457 41.8598 65.0184 41.8598 63.5674C41.8598 63.0328 41.6806 62.7492 41.2438 62.7492C40.807 62.7492 40.6166 63.0547 40.6166 63.5129V63.9711H40.0679V63.5456C40.0679 62.7601 40.4375 62.2365 41.255 62.2365C42.0726 62.2365 42.4534 62.7819 42.4534 63.5783Z" fill="white"/>
<path d="M45.354 63.5675V63.6984C45.3759 63.9221 45.3264 64.147 45.2121 64.3423C45.0978 64.5376 44.9245 64.6937 44.7156 64.7893C44.9323 64.875 45.1131 65.0291 45.2289 65.227C45.3447 65.4249 45.3888 65.655 45.354 65.8803V66.273C45.354 67.0694 44.9732 67.5822 44.1557 67.5822C43.3381 67.5822 42.9685 67.0694 42.9685 66.273V65.9239H43.5173V66.3167C43.5173 66.7749 43.7189 67.0585 44.1445 67.0585C44.57 67.0585 44.8276 66.7094 44.8276 66.2185V65.8148C44.8276 65.313 44.6036 65.0621 44.1557 65.0512H43.8309V64.5275H44.1893C44.2806 64.5266 44.3708 64.5069 44.4538 64.4698C44.5369 64.4327 44.6109 64.3789 44.6712 64.312C44.7314 64.245 44.7765 64.1665 44.8035 64.0814C44.8304 63.9964 44.8387 63.9067 44.8276 63.8184V63.5784C44.8276 63.0438 44.6372 62.7711 44.2005 62.7711C43.7637 62.7711 43.5733 63.0656 43.5733 63.5238V63.7966H43.0245V63.5565C43.0245 62.7711 43.4053 62.2583 44.2117 62.2583C45.018 62.2583 45.354 62.782 45.354 63.5675Z" fill="white"/>
<path d="M46.5074 63.9602V64.6802H45.9474V63.9602H46.5074ZM46.5074 66.7749V67.4949H45.9474V66.7749H46.5074Z" fill="white"/>
<path d="M47.7059 64.4293C47.7814 64.2923 47.8949 64.1787 48.0336 64.1015C48.1722 64.0243 48.3303 63.9867 48.4898 63.9929C49.173 63.9929 49.4754 64.4839 49.4754 65.2257V66.2294C49.4754 67.0258 49.0946 67.5385 48.2771 67.5385C47.4595 67.5385 47.0675 67.0258 47.0675 66.2294V65.8912H47.6163V66.273C47.6163 66.7312 47.8179 67.0149 48.2435 67.0149C48.669 67.0149 48.8594 66.7312 48.8594 66.273V65.2693C48.8594 64.8002 48.669 64.5166 48.2435 64.5166C48.1661 64.5137 48.0888 64.5258 48.0163 64.5523C47.9438 64.5789 47.8774 64.6192 47.8211 64.671C47.7648 64.7228 47.7196 64.7851 47.6883 64.8541C47.657 64.9231 47.6401 64.9975 47.6387 65.073V65.193H47.0675L47.2579 62.3456H49.3074V62.8583H47.7395L47.7059 64.4293Z" fill="white"/>
<path d="M52.432 63.5565V63.6547H51.8721V63.5238C51.8721 63.0547 51.6705 62.7819 51.2449 62.7819C50.8193 62.7819 50.5953 63.0656 50.5953 63.6219V64.7784C50.6595 64.6083 50.7778 64.4626 50.9329 64.3625C51.088 64.2624 51.2718 64.2132 51.4577 64.222C52.1409 64.222 52.4432 64.702 52.4432 65.4548V66.2293C52.4432 67.0257 52.0401 67.5385 51.2337 67.5385C50.4273 67.5385 50.0129 67.0257 50.0129 66.2293V63.6001C50.0129 62.7819 50.3825 62.2692 51.2337 62.2692C52.0849 62.2692 52.432 62.771 52.432 63.5565ZM50.5953 65.4984V66.273C50.5953 66.7312 50.7969 67.0148 51.2337 67.0148C51.6705 67.0148 51.8609 66.7312 51.8609 66.273V65.4984C51.8609 65.0293 51.6481 64.7456 51.2337 64.7456C50.8193 64.7456 50.5953 65.0293 50.5953 65.4984Z" fill="white"/>
<path d="M184.9 62.6729H182.739V67.9422H184.9V62.6729Z" fill="white"/>
<path d="M187.778 61.6255H185.617V67.9421H187.778V61.6255Z" fill="white"/>
<path d="M190.668 60.8728H188.506V67.9422H190.668V60.8728Z" fill="white"/>
<path d="M193.546 59.5746H191.385V67.9531H193.546V59.5746Z" fill="white"/>
<path d="M228.153 67.8004H215.172V60.0764H228.153V67.8004ZM215.889 67.1022H227.38V60.7746H215.844L215.889 67.1022Z" fill="white"/>
<path d="M223.818 61.5382H216.976V66.3275H223.818V61.5382Z" fill="white"/>
<path d="M229.328 63.0328H227.693V64.8547H229.328V63.0328Z" fill="white"/>
<path d="M207.053 66.1202C206.966 66.1189 206.882 66.0964 206.806 66.0548C206.162 65.584 205.381 65.325 204.576 65.3152C203.77 65.3054 202.983 65.5453 202.327 66.0002C202.282 66.0441 202.229 66.0789 202.17 66.1027C202.111 66.1264 202.049 66.1387 201.985 66.1387C201.922 66.1387 201.859 66.1264 201.8 66.1027C201.741 66.0789 201.688 66.0441 201.643 66.0002C201.555 65.9108 201.506 65.7915 201.506 65.6675C201.506 65.5434 201.555 65.4242 201.643 65.3347C202.454 64.7518 203.436 64.4373 204.443 64.4373C205.451 64.4373 206.432 64.7518 207.243 65.3347C207.356 65.3986 207.438 65.5033 207.472 65.626C207.505 65.7487 207.487 65.8793 207.422 65.9893C207.321 66.0778 207.189 66.1247 207.053 66.1202Z" fill="white"/>
<path d="M208.038 64.5274C207.948 64.528 207.859 64.5054 207.781 64.462C203.973 62.2801 201.397 64.3965 201.375 64.462C201.283 64.548 201.16 64.596 201.033 64.596C200.906 64.596 200.783 64.548 200.691 64.462C200.646 64.4184 200.611 64.3665 200.586 64.3094C200.562 64.2523 200.549 64.1911 200.549 64.1292C200.549 64.0674 200.562 64.0061 200.586 63.949C200.611 63.8919 200.646 63.8401 200.691 63.7965C200.691 63.7965 203.816 61.1782 208.24 63.7965C208.348 63.862 208.425 63.9655 208.457 64.0855C208.488 64.2054 208.47 64.3325 208.408 64.4402C208.356 64.4784 208.296 64.5058 208.232 64.5208C208.169 64.5358 208.103 64.5381 208.038 64.5274Z" fill="white"/>
<path d="M208.923 62.6947C208.836 62.6949 208.751 62.6723 208.677 62.6293C203.838 59.8255 200.624 62.4656 200.49 62.5747C200.393 62.6572 200.267 62.6989 200.139 62.6907C200.011 62.6825 199.891 62.6251 199.807 62.5311C199.722 62.437 199.679 62.3141 199.688 62.1893C199.696 62.0645 199.755 61.948 199.851 61.8656C199.851 61.8656 203.704 58.6582 209.169 61.8656C209.224 61.897 209.271 61.9387 209.309 61.9881C209.347 62.0375 209.375 62.0937 209.391 62.1535C209.406 62.2133 209.409 62.2755 209.4 62.3365C209.391 62.3976 209.37 62.4563 209.337 62.5092C209.288 62.5697 209.225 62.618 209.153 62.6502C209.081 62.6825 209.002 62.6977 208.923 62.6947Z" fill="white"/>
<path d="M204.387 68.095C205.061 68.095 205.608 67.5626 205.608 66.9058C205.608 66.2491 205.061 65.7167 204.387 65.7167C203.713 65.7167 203.167 66.2491 203.167 66.9058C203.167 67.5626 203.713 68.095 204.387 68.095Z" fill="white"/>
<path d="M220.134 91.8014C218.397 91.1342 216.601 90.6229 214.769 90.2741L214.422 88.9322C215.37 87.9389 215.877 86.6218 215.833 85.2666C215.833 82.801 214.366 80.8046 212.552 80.8046C210.737 80.8046 209.281 82.801 209.281 85.2666C209.246 86.0103 209.386 86.7522 209.69 87.4349C209.995 88.1177 210.457 88.7233 211.04 89.2049L210.771 90.2959C208.939 90.6447 207.143 91.156 205.406 91.8232C204.286 92.4778 204.51 95.3034 204.51 95.3034H221.03C221.03 95.3034 221.254 92.4669 220.134 91.8014Z" fill="#263238"/>
<path d="M39.9783 133.258H230.37" stroke="#CCCCCC" stroke-miterlimit="10" stroke-linecap="round"/>
<path d="M47.437 175.445H180.342" stroke="#263238" stroke-miterlimit="10" stroke-linecap="round"/>
<path d="M61.6268 166.717C69.4636 166.717 75.8166 160.529 75.8166 152.895C75.8166 145.261 69.4636 139.072 61.6268 139.072C53.79 139.072 47.437 145.261 47.437 152.895C47.437 160.529 53.79 166.717 61.6268 166.717Z" fill="#92E3A9"/>
<path d="M61.6269 166.717C63.9536 166.721 66.2454 166.167 68.3 165.103C70.3546 164.04 72.1087 162.499 73.4072 160.619C74.7057 158.738 75.5088 156.575 75.7454 154.32C75.982 152.065 75.6449 149.789 74.7639 147.691C72.1096 151.171 68.6714 154.859 64.5275 155.48C56.9678 156.571 59.2974 151.509 55.8031 152.077C54.1568 152.349 51.2113 155.273 48.557 158.284C49.6465 160.783 51.4664 162.915 53.7903 164.415C56.1142 165.914 58.8394 166.715 61.6269 166.717Z" fill="#263238"/>
<path d="M84.0259 147.08H140.024" stroke="#263238" stroke-width="2" stroke-miterlimit="10" stroke-linecap="round"/>
<path d="M51.1777 126.712H107.175" stroke="#CCCCCC" stroke-miterlimit="10" stroke-linecap="round"/>
<path d="M84.0259 156.528H110.905" stroke="#263238" stroke-miterlimit="10" stroke-linecap="round"/>
<path d="M74.7407 357.468C77.7397 350.416 74.3015 342.33 67.0613 339.409C59.821 336.487 51.5204 339.836 48.5214 346.889C45.5224 353.942 48.9606 362.028 56.2009 364.949C63.4411 367.87 71.7417 364.521 74.7407 357.468Z" fill="#263238"/>
<path d="M61.6269 358.725C65.3381 358.725 68.3467 355.795 68.3467 352.18C68.3467 348.565 65.3381 345.634 61.6269 345.634C57.9157 345.634 54.9072 348.565 54.9072 352.18C54.9072 355.795 57.9157 358.725 61.6269 358.725Z" fill="#92E3A9"/>
<path d="M84.0259 346.354H140.024" stroke="#263238" stroke-width="2" stroke-miterlimit="10" stroke-linecap="round"/>
<path d="M84.0259 355.812H110.905" stroke="#263238" stroke-miterlimit="10" stroke-linecap="round"/>
<path d="M56.3967 245.266H112.394" stroke="#263238" stroke-width="2" stroke-miterlimit="10" stroke-linecap="round"/>
<path d="M56.3967 254.714H83.2756" stroke="#263238" stroke-miterlimit="10" stroke-linecap="round"/>
<path d="M56.3967 264.172H137.784" stroke="#263238" stroke-miterlimit="10" stroke-linecap="round"/>
<path d="M56.3967 375.45H199.751" stroke="#263238" stroke-miterlimit="10" stroke-linecap="round"/>
<path d="M56.3967 387.09H131.814" stroke="#263238" stroke-miterlimit="10" stroke-linecap="round"/>
<path d="M56.3967 304.178H166.902" stroke="#263238" stroke-miterlimit="10" stroke-linecap="round"/>
<path d="M56.3967 314.356H121.354" stroke="#263238" stroke-miterlimit="10" stroke-linecap="round"/>
<path d="M222.9 184.172H47.437V237.258H222.9V184.172Z" fill="white"/>
<path d="M222.9 184.172V213.105L187.062 191.438L145.993 219.083L104.935 200.897L47.437 237.258V184.172H222.9Z" fill="#92E3A9"/>
<path d="M75.0663 201.628C75.0663 203.067 74.6282 204.474 73.8073 205.671C72.9865 206.867 71.8198 207.8 70.4549 208.351C69.0899 208.901 67.5879 209.045 66.1388 208.765C64.6898 208.484 63.3587 207.791 62.314 206.773C61.2693 205.756 60.5579 204.459 60.2696 203.047C59.9814 201.636 60.1293 200.173 60.6947 198.843C61.2601 197.514 62.2176 196.377 63.446 195.577C64.6745 194.778 66.1187 194.351 67.5962 194.351C68.5776 194.35 69.5496 194.537 70.4566 194.902C71.3636 195.267 72.1877 195.803 72.8816 196.479C73.5756 197.155 74.1258 197.958 74.5006 198.841C74.8755 199.725 75.0677 200.672 75.0663 201.628Z" fill="white"/>
<path d="M190.052 244.535V263.441" stroke="#263238" stroke-miterlimit="10" stroke-linecap="round"/>
<path d="M213.437 123.941L217.076 126.537L220.795 123.941" stroke="#263238" stroke-miterlimit="10" stroke-linecap="round"/>
<path d="M213.437 344.903L217.076 347.499L220.795 344.903" stroke="#263238" stroke-miterlimit="10" stroke-linecap="round"/>
<path d="M151.223 38.3445H118.744C118.002 38.3445 117.29 38.0572 116.765 37.5457C116.24 37.0342 115.945 36.3405 115.945 35.6172C115.945 34.8938 116.24 34.2001 116.765 33.6886C117.29 33.1771 118.002 32.8898 118.744 32.8898H151.223C151.966 32.8898 152.678 33.1771 153.203 33.6886C153.728 34.2001 154.023 34.8938 154.023 35.6172C154.023 36.3405 153.728 37.0342 153.203 37.5457C152.678 38.0572 151.966 38.3445 151.223 38.3445Z" fill="#595959"/>
<path d="M134.984 444.18C141.169 444.18 146.183 439.296 146.183 433.27C146.183 427.245 141.169 422.361 134.984 422.361C128.798 422.361 123.784 427.245 123.784 433.27C123.784 439.296 128.798 444.18 134.984 444.18Z" fill="#595959"/>
</svg>
