<svg width="720" height="497" viewBox="0 0 720 497" fill="none" xmlns="http://www.w3.org/2000/svg">
<path d="M596.838 330.502C598.118 337.28 613.489 359.36 619.159 371.783C617.847 370.165 616.324 368.257 614.818 366.494C613.635 364.439 612.582 362.142 611.4 360.379C609.57 357.645 607.642 354.976 605.553 352.437C602.35 348.406 598.686 344.763 594.635 341.583C589.953 337.766 584.255 335.398 578.243 334.773C576.623 334.66 567.375 333.964 569.529 337.684C569.925 338.255 570.453 338.721 571.068 339.043C576.753 342.521 583.038 344.381 589.031 347.131C598.004 351.321 609.861 362.482 614.801 367.335L617.312 370.651C608.484 362.433 594.068 357.71 589.128 360.023C583.022 362.806 596.158 365.652 607.302 368.532C612.288 369.664 616.924 371.99 620.811 375.309C622.949 378.189 625.362 381.424 627.776 384.74C628.067 385.258 628.359 385.743 628.65 386.228C626.94 384.243 625.005 382.463 622.884 380.922C617.182 377.024 601.487 374.662 599.835 379.936C598.183 385.209 609.31 382.799 618.883 384.319C624.064 385.276 628.826 387.8 632.522 391.55L633.153 392.229C634.239 393.847 635.275 395.254 636.247 396.678C638.531 400.01 640.702 403.148 642.726 406.173C639.506 401.958 635.686 398.236 631.388 395.125C623.03 389.398 611.87 388.185 607.804 391.259C603.738 394.332 622.495 397.114 631.712 400.35C637.023 402.368 641.729 405.709 645.383 410.055C648.412 414.342 651.408 418.515 654.632 422.882C649.495 418.341 643.996 414.224 638.191 410.573C628.748 404.394 618.964 405.235 616.356 408.955C613.749 412.676 621.734 412.918 636.587 416.105C644.42 417.764 651.681 421.445 657.644 426.781L661.904 432.442C663.524 434.658 665.549 436.923 667.606 439.155C665.095 438.023 661.386 436.405 657.272 434.642C652.673 432.756 648.227 430.517 643.973 427.945C639.114 424.904 632.505 421.685 626.691 424.274C626.249 424.416 625.844 424.652 625.502 424.965C625.16 425.278 624.889 425.66 624.708 426.087C624.527 426.513 624.44 426.973 624.452 427.436C624.464 427.899 624.576 428.354 624.779 428.77C625.422 429.942 626.428 430.873 627.646 431.423C634.125 434.966 642.111 435.904 649.189 437.473C655.685 438.924 662.271 439.945 668.902 440.53C670.829 442.552 672.838 444.542 674.83 446.418L671.85 446.968C668.335 447.631 651.198 442.892 642.694 441.84C634.19 440.789 627.306 446.37 636.539 449.605C645.771 452.84 668.756 448.214 668.756 448.214L675.397 446.968C683.285 454.393 690.59 460.071 690.59 460.071L693.668 458C693.668 458 687.302 456.253 676.612 446.159C676.361 444.163 676.329 442.145 676.515 440.142C677.195 428.819 686.541 416.04 679.365 405.089C677.632 402.436 673.891 400.98 671.817 403.892C670.327 405.995 670.408 409.537 670.878 411.98C672.498 419.987 675.008 427.088 674.393 435.435C674.393 435.807 674.393 441.404 674.781 444.445C673.324 443.005 671.817 441.436 670.23 439.705C668.922 436.56 667.872 433.314 667.088 430C665.03 421.184 667.088 411.834 665.614 402.857C665.144 400.107 660.851 393.588 658.746 399.25C657.822 401.757 659.005 406.513 659.167 409.182C659.653 416.736 660.398 424.629 663.378 431.682L662.099 430.064C659.534 423.027 657.541 415.794 656.138 408.437C653.854 396.289 654.243 385.953 650.323 382.718C646.403 379.483 646.614 393.006 650.323 407.224C652.023 413.705 654.787 419.86 658.503 425.438C654.324 420.1 650.161 414.617 646.193 409.262C642.508 403.431 640.209 396.836 639.47 389.981C638.774 379.192 638.126 370.376 633.137 365.022C628.148 359.667 627.922 363.679 631.858 375.859C634.563 384.206 637.802 395.432 641.576 402.986C638.482 398.797 635.583 394.817 632.975 391.21C631.242 387.474 627.031 377.817 625.719 369.47C624.099 358.859 622.026 353.294 619.24 356.109C617.312 358.082 620.859 370.958 626.026 381.44C623.84 378.35 622.204 375.973 621.167 374.565C620.735 373.918 620.249 373.239 619.709 372.527C617.198 363.962 614.141 355.566 610.558 347.39C604.289 333.091 595.461 323.11 596.838 330.502Z" fill="#92E3A9"/>
<g opacity="0.6">
<path opacity="0.6" d="M596.838 330.502C598.118 337.28 613.489 359.36 619.159 371.783C617.847 370.165 616.324 368.257 614.818 366.494C613.635 364.439 612.582 362.142 611.4 360.379C609.57 357.645 607.642 354.976 605.553 352.437C602.35 348.406 598.686 344.763 594.635 341.583C589.953 337.766 584.255 335.398 578.243 334.773C576.623 334.66 567.375 333.964 569.529 337.684C569.925 338.255 570.453 338.721 571.068 339.043C576.753 342.521 583.038 344.381 589.031 347.131C598.004 351.321 609.861 362.482 614.801 367.335L617.312 370.651C608.484 362.433 594.068 357.71 589.128 360.023C583.022 362.806 596.158 365.652 607.302 368.532C612.288 369.664 616.924 371.99 620.811 375.309C622.949 378.189 625.362 381.424 627.776 384.74C628.067 385.258 628.359 385.743 628.65 386.228C626.94 384.243 625.005 382.463 622.884 380.922C617.182 377.024 601.487 374.662 599.835 379.936C598.183 385.209 609.31 382.799 618.883 384.319C624.064 385.276 628.826 387.8 632.522 391.55L633.153 392.229C634.239 393.847 635.275 395.254 636.247 396.678C638.531 400.01 640.702 403.148 642.726 406.173C639.506 401.958 635.686 398.236 631.388 395.125C623.03 389.398 611.87 388.185 607.804 391.259C603.738 394.332 622.495 397.114 631.712 400.35C637.023 402.368 641.729 405.709 645.383 410.055C648.412 414.342 651.408 418.515 654.632 422.882C649.495 418.341 643.996 414.224 638.191 410.573C628.748 404.394 618.964 405.235 616.356 408.955C613.749 412.676 621.734 412.918 636.587 416.105C644.42 417.764 651.681 421.445 657.644 426.781L661.904 432.442C663.524 434.658 665.549 436.923 667.606 439.155C665.095 438.023 661.386 436.405 657.272 434.642C652.673 432.756 648.227 430.517 643.973 427.945C639.114 424.904 632.505 421.685 626.691 424.274C626.249 424.416 625.844 424.652 625.502 424.965C625.16 425.278 624.889 425.66 624.708 426.087C624.527 426.513 624.44 426.973 624.452 427.436C624.464 427.899 624.576 428.354 624.779 428.77C625.422 429.942 626.428 430.873 627.646 431.423C634.125 434.966 642.111 435.904 649.189 437.473C655.685 438.924 662.271 439.945 668.902 440.53C670.829 442.552 672.838 444.542 674.83 446.418L671.85 446.968C668.335 447.631 651.198 442.892 642.694 441.84C634.19 440.789 627.306 446.37 636.539 449.605C645.771 452.84 668.756 448.214 668.756 448.214L675.397 446.968C683.285 454.393 690.59 460.071 690.59 460.071L693.668 458C693.668 458 687.302 456.253 676.612 446.159C676.361 444.163 676.329 442.145 676.515 440.142C677.195 428.819 686.541 416.04 679.365 405.089C677.632 402.436 673.891 400.98 671.817 403.892C670.327 405.995 670.408 409.537 670.878 411.98C672.498 419.987 675.008 427.088 674.393 435.435C674.393 435.807 674.393 441.404 674.781 444.445C673.324 443.005 671.817 441.436 670.23 439.705C668.922 436.56 667.872 433.314 667.088 430C665.03 421.184 667.088 411.834 665.614 402.857C665.144 400.107 660.851 393.588 658.746 399.25C657.822 401.757 659.005 406.513 659.167 409.182C659.653 416.736 660.398 424.629 663.378 431.682L662.099 430.064C659.534 423.027 657.541 415.794 656.138 408.437C653.854 396.289 654.243 385.953 650.323 382.718C646.403 379.483 646.614 393.006 650.323 407.224C652.023 413.705 654.787 419.86 658.503 425.438C654.324 420.1 650.161 414.617 646.193 409.262C642.508 403.431 640.209 396.836 639.47 389.981C638.774 379.192 638.126 370.376 633.137 365.022C628.148 359.667 627.922 363.679 631.858 375.859C634.563 384.206 637.802 395.432 641.576 402.986C638.482 398.797 635.583 394.817 632.975 391.21C631.242 387.474 627.031 377.817 625.719 369.47C624.099 358.859 622.026 353.294 619.24 356.109C617.312 358.082 620.859 370.958 626.026 381.44C623.84 378.35 622.204 375.973 621.167 374.565C620.735 373.918 620.249 373.239 619.709 372.527C617.198 363.962 614.141 355.566 610.558 347.39C604.289 333.091 595.461 323.11 596.838 330.502Z" fill="white"/>
</g>
<path d="M711.648 298.976C707.89 304.75 703.776 331.327 699.305 344.268C699.532 342.133 699.694 339.771 699.807 337.458C700.374 335.161 701.2 332.783 701.573 330.664C702.123 327.429 702.561 324.194 702.82 320.959C703.287 315.832 703.146 310.669 702.399 305.575C701.629 299.602 699.136 293.982 695.223 289.4C694.203 288.251 687.918 281.312 686.914 285.501C686.803 286.185 686.864 286.885 687.092 287.539C688.793 294.01 692.065 299.655 694.478 305.818C698.074 315.038 698.949 331.279 699.175 338.17C699.046 339.286 698.884 340.693 698.706 342.294C697.993 330.276 690.769 316.947 685.634 315.184C679.285 313.016 686.833 324.113 692.923 333.867C695.746 338.12 697.497 342.993 698.025 348.069C697.588 351.644 697.086 355.639 696.551 359.7C696.406 360.282 696.276 360.832 696.163 361.398C696.289 358.777 696.115 356.15 695.644 353.569C694.203 346.824 684.468 334.304 679.625 336.989C674.782 339.674 684.484 345.594 690.396 353.278C693.487 357.541 695.184 362.654 695.256 367.917C695.256 368.224 695.256 368.532 695.256 368.839C694.98 370.699 694.705 372.495 694.429 374.193C693.782 378.172 693.198 381.925 692.632 385.516C693.21 380.255 693.024 374.937 692.081 369.729C689.959 359.829 682.719 351.256 677.649 350.69C672.579 350.123 684.241 365.038 688.695 373.74C691.165 378.84 692.281 384.488 691.935 390.142C691.174 395.319 690.461 400.414 689.781 405.801C689.189 398.97 688.052 392.198 686.379 385.548C683.804 374.581 676.126 368.434 671.623 369.373C667.12 370.311 672.789 375.94 681.342 388.476C685.849 395.064 688.552 402.715 689.181 410.67C688.906 412.934 688.631 415.263 688.355 417.69C688.048 420.456 687.886 423.448 687.853 426.489C686.8 423.934 685.245 420.197 683.48 416.105C681.455 411.57 679.781 406.887 678.475 402.096C677.017 396.516 674.49 389.657 668.497 387.538C668.079 387.338 667.623 387.23 667.159 387.222C666.696 387.213 666.236 387.304 665.811 387.488C665.385 387.672 665.005 387.945 664.694 388.288C664.383 388.632 664.15 389.038 664.01 389.479C663.664 390.769 663.744 392.136 664.237 393.378C666.44 400.366 671.623 406.577 675.656 412.594C679.37 418.115 683.438 423.389 687.837 428.382C687.837 431.18 687.918 433.995 688.064 436.729L685.521 435.111C682.508 433.17 673.389 417.932 667.962 411.333C662.536 404.733 653.692 404.005 658.13 412.708C662.569 421.41 682.427 433.882 682.427 433.882L688.096 437.57C688.695 448.375 690.056 457.515 690.056 457.515L693.717 458.129C693.717 458.129 690.315 452.484 689.538 437.829C690.735 436.204 692.109 434.718 693.636 433.396C701.929 425.664 717.527 422.85 719.892 409.958C720.459 406.852 718.775 403.229 715.243 403.908C712.717 404.393 710.384 407.03 709.024 409.084C704.634 415.959 701.573 422.866 695.385 428.495C695.11 428.754 691.271 432.83 689.441 435.289C689.441 433.251 689.36 431.067 689.441 428.722C690.673 425.536 692.157 422.453 693.879 419.501C698.479 411.705 706.432 406.367 711.55 398.829C713.17 396.516 714.498 388.848 709.072 391.501C706.659 392.682 704.213 396.936 702.593 398.974C697.734 404.782 692.874 411.025 690.088 418.175C690.088 417.496 690.218 416.816 690.267 416.137C693.276 409.276 696.829 402.666 700.892 396.37C707.631 386.001 715.033 378.771 714.434 373.724C713.834 368.677 704.715 378.577 697.475 391.517C694.236 397.385 691.992 403.747 690.834 410.346C691.498 403.584 692.259 396.758 693.036 390.191C694.386 383.429 697.279 377.068 701.492 371.605C708.424 363.307 714.045 356.481 714.126 349.169C714.207 341.858 711.275 344.591 705.719 356.125C701.913 364.035 696.519 374.403 693.992 382.443C694.656 377.283 695.304 372.398 695.92 367.998C697.232 364.099 700.779 354.2 705.638 347.26C711.761 338.428 714.126 332.977 710.157 333.123C707.404 333.22 701.022 344.931 697.588 356.125C698.139 352.388 698.592 349.541 698.884 347.859C699.013 347.104 699.127 346.279 699.224 345.384C703.294 337.399 706.854 329.166 709.882 320.732C715.26 305.964 715.729 292.699 711.648 298.976Z" fill="#92E3A9"/>
<g opacity="0.6">
<path opacity="0.6" d="M711.648 298.976C707.89 304.75 703.776 331.327 699.305 344.268C699.532 342.133 699.694 339.771 699.807 337.458C700.374 335.161 701.2 332.783 701.573 330.664C702.123 327.429 702.561 324.194 702.82 320.959C703.287 315.832 703.146 310.669 702.399 305.575C701.629 299.602 699.136 293.982 695.223 289.4C694.203 288.251 687.918 281.312 686.914 285.501C686.803 286.185 686.864 286.885 687.092 287.539C688.793 294.01 692.065 299.655 694.478 305.818C698.074 315.038 698.949 331.279 699.175 338.17C699.046 339.286 698.884 340.693 698.706 342.294C697.993 330.276 690.769 316.947 685.634 315.184C679.285 313.016 686.833 324.113 692.923 333.867C695.746 338.12 697.497 342.993 698.025 348.069C697.588 351.644 697.086 355.639 696.551 359.7C696.406 360.282 696.276 360.832 696.163 361.398C696.289 358.777 696.115 356.15 695.644 353.569C694.203 346.824 684.468 334.304 679.625 336.989C674.782 339.674 684.484 345.594 690.396 353.278C693.487 357.541 695.184 362.654 695.256 367.917C695.256 368.224 695.256 368.532 695.256 368.839C694.98 370.699 694.705 372.495 694.429 374.193C693.782 378.172 693.198 381.925 692.632 385.516C693.21 380.255 693.024 374.937 692.081 369.729C689.959 359.829 682.719 351.256 677.649 350.69C672.579 350.123 684.241 365.038 688.695 373.74C691.165 378.84 692.281 384.488 691.935 390.142C691.174 395.319 690.461 400.414 689.781 405.801C689.189 398.97 688.052 392.198 686.379 385.548C683.804 374.581 676.126 368.434 671.623 369.373C667.12 370.311 672.789 375.94 681.342 388.476C685.849 395.064 688.552 402.715 689.181 410.67C688.906 412.934 688.631 415.263 688.355 417.69C688.048 420.456 687.886 423.448 687.853 426.489C686.8 423.934 685.245 420.197 683.48 416.105C681.455 411.57 679.781 406.887 678.475 402.096C677.017 396.516 674.49 389.657 668.497 387.538C668.079 387.338 667.623 387.23 667.159 387.222C666.696 387.213 666.236 387.304 665.811 387.488C665.385 387.672 665.005 387.945 664.694 388.288C664.383 388.632 664.15 389.038 664.01 389.479C663.664 390.769 663.744 392.136 664.237 393.378C666.44 400.366 671.623 406.577 675.656 412.594C679.37 418.115 683.438 423.389 687.837 428.382C687.837 431.18 687.918 433.995 688.064 436.729L685.521 435.111C682.508 433.17 673.389 417.932 667.962 411.333C662.536 404.733 653.692 404.005 658.13 412.708C662.569 421.41 682.427 433.882 682.427 433.882L688.096 437.57C688.695 448.375 690.056 457.515 690.056 457.515L693.717 458.129C693.717 458.129 690.315 452.484 689.538 437.829C690.735 436.204 692.109 434.718 693.636 433.396C701.929 425.664 717.527 422.85 719.892 409.958C720.459 406.852 718.775 403.229 715.243 403.908C712.717 404.393 710.384 407.03 709.024 409.084C704.634 415.959 701.573 422.866 695.385 428.495C695.11 428.754 691.271 432.83 689.441 435.289C689.441 433.251 689.36 431.067 689.441 428.722C690.673 425.536 692.157 422.453 693.879 419.501C698.479 411.705 706.432 406.367 711.55 398.829C713.17 396.516 714.498 388.848 709.072 391.501C706.659 392.682 704.213 396.936 702.593 398.974C697.734 404.782 692.874 411.025 690.088 418.175C690.088 417.496 690.218 416.816 690.267 416.137C693.276 409.276 696.829 402.666 700.892 396.37C707.631 386.001 715.033 378.771 714.434 373.724C713.834 368.677 704.715 378.577 697.475 391.517C694.236 397.385 691.992 403.747 690.834 410.346C691.498 403.584 692.259 396.758 693.036 390.191C694.386 383.429 697.279 377.068 701.492 371.605C708.424 363.307 714.045 356.481 714.126 349.169C714.207 341.858 711.275 344.591 705.719 356.125C701.913 364.035 696.519 374.403 693.992 382.443C694.656 377.283 695.304 372.398 695.92 367.998C697.232 364.099 700.779 354.2 705.638 347.26C711.761 338.428 714.126 332.977 710.157 333.123C707.404 333.22 701.022 344.931 697.588 356.125C698.139 352.388 698.592 349.541 698.884 347.859C699.013 347.104 699.127 346.279 699.224 345.384C703.294 337.399 706.854 329.166 709.882 320.732C715.26 305.964 715.729 292.699 711.648 298.976Z" fill="white"/>
</g>
<path d="M20.8 357.079C21.5613 362.158 32.3975 379.095 36.2525 388.509C35.3293 387.199 34.2602 385.808 33.175 384.449C32.3489 382.831 31.6362 381.133 30.7939 379.774C29.5143 377.687 28.1537 375.649 26.6797 373.692C24.401 370.59 21.7642 367.766 18.8238 365.28C15.4451 362.3 11.2675 360.372 6.80516 359.732C5.65512 359.603 -1.29368 358.81 0.212702 361.641C0.484486 362.085 0.870414 362.448 1.33034 362.692C5.47695 365.458 10.0933 367.027 14.4991 369.308C21.0753 372.608 29.5791 381.343 33.1426 385.047L34.9081 387.587C28.5749 381.197 17.9492 377.299 14.1913 378.836C9.55876 380.745 19.2774 383.252 27.5058 385.727C31.1953 386.703 34.5881 388.569 37.3864 391.162C38.909 393.362 40.6259 395.869 42.2457 398.408C42.4401 398.797 42.6506 399.169 42.8612 399.541C41.6456 398.008 40.2539 396.624 38.7146 395.416C34.568 392.343 22.9219 390.126 21.5289 394.009C20.1359 397.891 28.5263 396.419 35.6208 397.826C39.4617 398.692 42.9443 400.713 45.5986 403.617C45.7444 403.811 45.8902 403.973 46.0521 404.151C46.8134 405.316 47.5423 406.464 48.2226 407.548C49.8424 410.104 51.3488 412.498 52.8552 414.811C50.5729 411.591 47.8463 408.711 44.7563 406.254C38.6822 401.741 30.3728 400.511 27.2628 402.695C24.1529 404.879 38.0505 407.548 44.8373 410.168C48.7401 411.811 52.1578 414.423 54.7665 417.755C56.8884 420.99 59.0103 424.225 61.2456 427.59C57.5426 424.036 53.5556 420.79 49.3241 417.884C42.4563 413.031 35.1349 413.339 33.1264 416.089C31.1179 418.839 37.03 419.211 48.0121 422.009C53.7977 423.477 59.0975 426.433 63.3837 430.582C64.3393 431.989 65.3436 433.429 66.3964 434.933C67.659 436.72 69.0105 438.442 70.4459 440.094C68.5993 439.188 65.8943 437.861 62.8653 436.438C59.4932 434.892 56.2443 433.091 53.1467 431.051C49.567 428.641 44.7725 426.053 40.3506 427.816C40.0164 427.899 39.7042 428.053 39.4354 428.268C39.1666 428.483 38.9477 428.753 38.7937 429.061C38.6397 429.368 38.5544 429.705 38.5435 430.049C38.5327 430.393 38.5966 430.735 38.7308 431.051C39.193 432.004 39.9634 432.773 40.9175 433.235C45.6148 436.066 51.5756 436.988 56.8236 438.363C61.6153 439.629 66.485 440.58 71.4015 441.21C72.7945 442.827 74.2361 444.315 75.6615 445.771L73.4262 446.111C70.7698 446.499 58.1356 442.471 51.8347 441.42C45.5338 440.369 40.221 444.364 46.9754 447.049C53.7299 449.734 71.0452 446.936 71.0452 446.936L76.0503 446.208C81.7195 451.967 86.9999 456.415 86.9999 456.415L89.3486 454.959C89.3486 454.959 84.6674 453.471 76.9735 445.642C76.8479 444.143 76.886 442.635 77.0869 441.145C77.913 432.717 85.1858 423.449 80.2131 415.07C78.9982 413.048 76.2608 411.834 74.6087 413.97C73.5847 415.781 73.2565 417.903 73.6854 419.938C74.6249 425.956 76.3256 431.262 75.6453 437.522C75.6453 437.813 75.4833 441.986 75.6453 444.251C74.6087 443.151 73.5234 441.938 72.4058 440.595C71.5229 438.2 70.8297 435.739 70.3325 433.235C69.0691 426.603 70.8832 419.68 70.0247 412.951C69.7494 410.88 66.7852 405.898 65.0034 410.055C64.2421 411.899 65.0034 415.49 65.0034 417.48C64.8873 423.214 65.7304 428.927 67.4979 434.383C67.1901 433.979 66.8824 433.575 66.5908 433.154C64.9085 427.854 63.6519 422.429 62.8329 416.93C61.4885 407.807 62.0717 400.107 59.2371 397.519C56.4025 394.931 56.1757 405.105 58.492 415.797C59.5829 420.687 61.4708 425.365 64.0802 429.644C61.116 425.519 58.168 421.33 55.3658 417.253C52.782 412.806 51.2579 407.825 50.9115 402.695C50.7009 394.607 50.4579 388.04 46.8944 383.899C43.3309 379.758 43.0394 382.734 45.631 391.987C47.4128 398.295 49.5023 406.755 52.1101 412.514C49.9396 409.279 47.8825 406.238 46.0521 403.471C43.7443 398.22 42.1115 392.698 41.1928 387.037C40.2696 379.078 38.909 374.857 36.7385 376.895C35.2483 378.302 37.4674 388.007 41.0795 395.982C39.4597 393.604 38.3744 391.793 37.7103 390.709C37.408 390.224 37.0678 389.684 36.6899 389.091C35.0597 382.614 33.0256 376.244 30.5996 370.02C26.3396 359.134 19.9901 351.466 20.8 357.079Z" fill="#92E3A9"/>
<path opacity="0.6" d="M20.8 357.079C21.5613 362.158 32.3975 379.095 36.2525 388.509C35.3293 387.199 34.2602 385.808 33.175 384.449C32.3489 382.831 31.6362 381.133 30.7939 379.774C29.5143 377.687 28.1537 375.649 26.6797 373.692C24.401 370.59 21.7642 367.766 18.8238 365.28C15.4451 362.3 11.2675 360.372 6.80516 359.732C5.65512 359.603 -1.29368 358.81 0.212702 361.641C0.484486 362.085 0.870414 362.448 1.33034 362.692C5.47695 365.458 10.0933 367.027 14.4991 369.308C21.0753 372.608 29.5791 381.343 33.1426 385.047L34.9081 387.587C28.5749 381.197 17.9492 377.299 14.1913 378.836C9.55876 380.745 19.2774 383.252 27.5058 385.727C31.1953 386.703 34.5881 388.569 37.3864 391.162C38.909 393.362 40.6259 395.869 42.2457 398.408C42.4401 398.797 42.6506 399.169 42.8612 399.541C41.6456 398.008 40.2539 396.624 38.7146 395.416C34.568 392.343 22.9219 390.126 21.5289 394.009C20.1359 397.891 28.5263 396.419 35.6208 397.826C39.4617 398.692 42.9443 400.713 45.5986 403.617C45.7444 403.811 45.8902 403.973 46.0521 404.151C46.8134 405.316 47.5423 406.464 48.2226 407.548C49.8424 410.104 51.3488 412.498 52.8552 414.811C50.5729 411.591 47.8463 408.711 44.7563 406.254C38.6822 401.741 30.3728 400.511 27.2628 402.695C24.1529 404.879 38.0505 407.548 44.8373 410.168C48.7401 411.811 52.1578 414.423 54.7665 417.755C56.8884 420.99 59.0103 424.225 61.2456 427.59C57.5426 424.036 53.5556 420.79 49.3241 417.884C42.4563 413.031 35.1349 413.339 33.1264 416.089C31.1179 418.839 37.03 419.211 48.0121 422.009C53.7977 423.477 59.0975 426.433 63.3837 430.582C64.3393 431.989 65.3436 433.429 66.3964 434.933C67.659 436.72 69.0105 438.442 70.4459 440.094C68.5993 439.188 65.8943 437.861 62.8653 436.438C59.4932 434.892 56.2443 433.091 53.1467 431.051C49.567 428.641 44.7725 426.053 40.3506 427.816C40.0164 427.899 39.7042 428.053 39.4354 428.268C39.1666 428.483 38.9477 428.753 38.7937 429.061C38.6397 429.368 38.5544 429.705 38.5435 430.049C38.5327 430.393 38.5966 430.735 38.7308 431.051C39.193 432.004 39.9634 432.773 40.9175 433.235C45.6148 436.066 51.5756 436.988 56.8236 438.363C61.6153 439.629 66.485 440.58 71.4015 441.21C72.7945 442.827 74.2361 444.315 75.6615 445.771L73.4262 446.111C70.7698 446.499 58.1356 442.471 51.8347 441.42C45.5338 440.369 40.221 444.364 46.9754 447.049C53.7299 449.734 71.0452 446.936 71.0452 446.936L76.0503 446.208C81.7195 451.967 86.9999 456.415 86.9999 456.415L89.3486 454.959C89.3486 454.959 84.6674 453.471 76.9735 445.642C76.8479 444.143 76.886 442.635 77.0869 441.145C77.913 432.717 85.1858 423.449 80.2131 415.07C78.9982 413.048 76.2608 411.834 74.6087 413.97C73.5847 415.781 73.2565 417.903 73.6854 419.938C74.6249 425.956 76.3256 431.262 75.6453 437.522C75.6453 437.813 75.4833 441.986 75.6453 444.251C74.6087 443.151 73.5234 441.938 72.4058 440.595C71.5229 438.2 70.8297 435.739 70.3325 433.235C69.0691 426.603 70.8832 419.68 70.0247 412.951C69.7494 410.88 66.7852 405.898 65.0034 410.055C64.2421 411.899 65.0034 415.49 65.0034 417.48C64.8873 423.214 65.7304 428.927 67.4979 434.383C67.1901 433.979 66.8824 433.575 66.5908 433.154C64.9085 427.854 63.6519 422.429 62.8329 416.93C61.4885 407.807 62.0717 400.107 59.2371 397.519C56.4025 394.931 56.1757 405.105 58.492 415.797C59.5829 420.687 61.4708 425.365 64.0802 429.644C61.116 425.519 58.168 421.33 55.3658 417.253C52.782 412.806 51.2579 407.825 50.9115 402.695C50.7009 394.607 50.4579 388.04 46.8944 383.899C43.3309 379.758 43.0394 382.734 45.631 391.987C47.4128 398.295 49.5023 406.755 52.1101 412.514C49.9396 409.279 47.8825 406.238 46.0521 403.471C43.7443 398.22 42.1115 392.698 41.1928 387.037C40.2696 379.078 38.909 374.857 36.7385 376.895C35.2483 378.302 37.4674 388.007 41.0795 395.982C39.4597 393.604 38.3744 391.793 37.7103 390.709C37.408 390.224 37.0678 389.684 36.6899 389.091C35.0597 382.614 33.0256 376.244 30.5996 370.02C26.3396 359.134 19.9901 351.466 20.8 357.079Z" fill="white"/>
<path d="M138.104 353.068C133.779 355.85 122.813 372.689 115.816 380.097C116.625 378.706 117.435 377.153 118.245 375.617C119.331 374.209 120.626 372.851 121.485 371.524C122.862 369.486 124.157 367.399 125.34 365.248C127.224 361.901 128.708 358.345 129.762 354.653C131.097 350.348 131.131 345.745 129.859 341.421C129.519 340.321 127.365 333.673 125.405 336.229C125.114 336.656 124.941 337.153 124.903 337.668C124.076 342.521 124.562 347.374 124.303 352.372C123.931 359.748 119.541 371.071 117.565 375.859C117.144 376.571 116.609 377.477 115.945 378.512C119.185 370.117 118.326 358.842 115.378 356.06C111.718 352.631 113.451 362.53 114.601 371.007C115.217 374.771 114.912 378.628 113.71 382.249C112.317 384.53 110.746 387.101 109.142 389.706L108.348 390.741C109.304 389.008 110.049 387.167 110.568 385.257C111.653 380.227 108.948 368.726 104.753 369.082C100.557 369.438 105.449 376.425 107.085 383.462C107.893 387.313 107.486 391.32 105.919 394.931L105.627 395.561C104.866 396.742 104.137 397.875 103.424 398.942C101.805 401.466 100.185 403.795 98.6947 406.14C100.702 402.74 102.208 399.068 103.165 395.238C104.785 387.846 102.469 379.79 99.1968 377.849C95.9249 375.908 99.1968 389.641 99.6341 396.92C99.7454 401.15 98.7695 405.338 96.7995 409.084C94.6938 412.32 92.6529 415.555 90.531 419.081C92.2089 414.243 93.4927 409.277 94.3699 404.232C95.9896 395.982 92.6529 389.447 89.2838 388.719C85.9147 387.991 88.0528 393.572 90.0289 404.701C91.0785 410.569 90.5703 416.609 88.5549 422.219C87.664 423.675 86.7732 425.179 85.8337 426.748C84.8942 428.317 83.7604 430.517 82.7885 432.588C82.7885 430.517 82.9505 427.509 82.9991 424.176C83.0195 420.466 83.3173 416.762 83.89 413.096C84.6189 408.858 85.0076 403.391 81.5737 400.155C81.3518 399.887 81.0734 399.672 80.7584 399.524C80.4434 399.376 80.0996 399.299 79.7515 399.299C79.4033 399.299 79.0595 399.376 78.7445 399.524C78.4295 399.672 78.1511 399.887 77.9292 400.155C77.295 400.923 76.9308 401.878 76.8926 402.873C76.2447 408.324 77.8644 414.196 78.7553 419.469C79.5891 424.391 80.7415 429.254 82.2054 434.027C81.3469 435.92 80.5856 437.877 79.792 439.77L78.5609 437.877C77.1193 435.629 75.5806 422.462 73.9284 416.299C72.2762 410.136 66.4451 406.949 66.8014 414.228C67.1578 421.507 76.844 436.098 76.844 436.098L79.5814 440.336C76.6658 447.858 74.7221 454.506 74.7221 454.506L77.0059 456.043C77.0059 456.043 76.439 451.19 80.4075 440.951C81.7413 440.145 83.1657 439.498 84.6513 439.026C92.7501 436.308 104.088 439.155 109.725 431.116C111.07 429.175 111.037 426.263 108.429 425.568C106.353 425.374 104.278 425.95 102.598 427.185C97.496 430.517 93.3008 434.286 87.3563 436.211C87.0809 436.308 83.2259 437.91 81.2173 439.01C81.8005 437.618 82.4646 436.114 83.2259 434.545C85.0366 432.768 86.9925 431.145 89.0732 429.692C94.5966 425.794 101.659 424.597 107.458 421.022C109.223 419.938 112.527 415.134 108.025 415.28C106.016 415.28 103.052 417.496 101.27 418.369C95.989 420.627 91.1222 423.748 86.8703 427.606C87.1133 427.169 87.3563 426.716 87.6154 426.279C91.7449 422.503 96.1701 419.063 100.849 415.991C108.624 411.009 115.88 408.356 117.047 404.668C118.213 400.98 108.948 405.008 100.071 411.543C96.0586 414.545 92.572 418.191 89.7535 422.332C92.2804 417.933 94.9044 413.517 97.4474 409.295C100.46 405.12 104.395 401.693 108.948 399.282C116.237 395.756 122.149 392.812 124.449 387.959C126.749 383.106 123.914 383.98 116.593 390.126C111.572 394.348 104.72 399.735 100.525 404.442C102.566 401.207 104.51 397.972 106.275 395.206C110.106 390.959 114.46 387.214 119.233 384.06C126.117 379.936 129.405 376.943 126.652 375.827C124.741 375.05 116.804 381.068 111.021 387.635L114.439 382.41C114.763 381.925 115.103 381.391 115.443 380.793C120.659 376.637 125.609 372.158 130.264 367.383C138.444 358.923 142.833 350.043 138.104 353.068Z" fill="#92E3A9"/>
<path opacity="0.6" d="M138.104 353.068C133.779 355.85 122.813 372.689 115.816 380.097C116.625 378.706 117.435 377.153 118.245 375.617C119.331 374.209 120.626 372.851 121.485 371.524C122.862 369.486 124.157 367.399 125.34 365.248C127.224 361.901 128.708 358.345 129.762 354.653C131.097 350.348 131.131 345.745 129.859 341.421C129.519 340.321 127.365 333.673 125.405 336.229C125.114 336.656 124.941 337.153 124.903 337.668C124.076 342.521 124.562 347.374 124.303 352.372C123.931 359.748 119.541 371.071 117.565 375.859C117.144 376.571 116.609 377.477 115.945 378.512C119.185 370.117 118.326 358.842 115.378 356.06C111.718 352.631 113.451 362.53 114.601 371.007C115.217 374.771 114.912 378.628 113.71 382.249C112.317 384.53 110.746 387.101 109.142 389.706L108.348 390.741C109.304 389.008 110.049 387.167 110.568 385.257C111.653 380.227 108.948 368.726 104.753 369.082C100.557 369.438 105.449 376.425 107.085 383.462C107.893 387.313 107.486 391.32 105.919 394.931L105.627 395.561C104.866 396.742 104.137 397.875 103.424 398.942C101.805 401.466 100.185 403.795 98.6947 406.14C100.702 402.74 102.208 399.068 103.165 395.238C104.785 387.846 102.469 379.79 99.1968 377.849C95.9249 375.908 99.1968 389.641 99.6341 396.92C99.7454 401.15 98.7695 405.338 96.7995 409.084C94.6938 412.32 92.6529 415.555 90.531 419.081C92.2089 414.243 93.4927 409.277 94.3699 404.232C95.9896 395.982 92.6529 389.447 89.2838 388.719C85.9147 387.991 88.0528 393.572 90.0289 404.701C91.0785 410.569 90.5703 416.609 88.5549 422.219C87.664 423.675 86.7732 425.179 85.8337 426.748C84.8942 428.317 83.7604 430.517 82.7885 432.588C82.7885 430.517 82.9505 427.509 82.9991 424.176C83.0195 420.466 83.3173 416.762 83.89 413.096C84.6189 408.858 85.0076 403.391 81.5737 400.155C81.3518 399.887 81.0734 399.672 80.7584 399.524C80.4434 399.376 80.0996 399.299 79.7515 399.299C79.4033 399.299 79.0595 399.376 78.7445 399.524C78.4295 399.672 78.1511 399.887 77.9292 400.155C77.295 400.923 76.9308 401.878 76.8926 402.873C76.2447 408.324 77.8644 414.196 78.7553 419.469C79.5891 424.391 80.7415 429.254 82.2054 434.027C81.3469 435.92 80.5856 437.877 79.792 439.77L78.5609 437.877C77.1193 435.629 75.5806 422.462 73.9284 416.299C72.2762 410.136 66.4451 406.949 66.8014 414.228C67.1578 421.507 76.844 436.098 76.844 436.098L79.5814 440.336C76.6658 447.858 74.7221 454.506 74.7221 454.506L77.0059 456.043C77.0059 456.043 76.439 451.19 80.4075 440.951C81.7413 440.145 83.1657 439.498 84.6513 439.026C92.7501 436.308 104.088 439.155 109.725 431.116C111.07 429.175 111.037 426.263 108.429 425.568C106.353 425.374 104.278 425.95 102.598 427.185C97.496 430.517 93.3008 434.286 87.3563 436.211C87.0809 436.308 83.2259 437.91 81.2173 439.01C81.8005 437.618 82.4646 436.114 83.2259 434.545C85.0366 432.768 86.9925 431.145 89.0732 429.692C94.5966 425.794 101.659 424.597 107.458 421.022C109.223 419.938 112.527 415.134 108.025 415.28C106.016 415.28 103.052 417.496 101.27 418.369C95.989 420.627 91.1222 423.748 86.8703 427.606C87.1133 427.169 87.3563 426.716 87.6154 426.279C91.7449 422.503 96.1701 419.063 100.849 415.991C108.624 411.009 115.88 408.356 117.047 404.668C118.213 400.98 108.948 405.008 100.071 411.543C96.0586 414.545 92.572 418.191 89.7535 422.332C92.2804 417.933 94.9044 413.517 97.4474 409.295C100.46 405.12 104.395 401.693 108.948 399.282C116.237 395.756 122.149 392.812 124.449 387.959C126.749 383.106 123.914 383.98 116.593 390.126C111.572 394.348 104.72 399.735 100.525 404.442C102.566 401.207 104.51 397.972 106.275 395.206C110.106 390.959 114.46 387.214 119.233 384.06C126.117 379.936 129.405 376.943 126.652 375.827C124.741 375.05 116.804 381.068 111.021 387.635L114.439 382.41C114.763 381.925 115.103 381.391 115.443 380.793C120.659 376.637 125.609 372.158 130.264 367.383C138.444 358.923 142.833 350.043 138.104 353.068Z" fill="white"/>
<path d="M185.595 353.504C181.254 356.303 170.288 373.142 163.291 380.534C164.101 379.159 164.911 377.606 165.721 376.053C166.806 374.662 168.102 373.287 168.96 371.977C170.337 369.939 171.633 367.852 172.815 365.701C174.696 362.353 176.18 358.797 177.237 355.106C178.57 350.801 178.609 346.201 177.351 341.874C176.994 340.774 174.84 334.126 172.88 336.665C172.592 337.1 172.419 337.601 172.378 338.121C171.568 342.974 172.038 347.827 171.779 352.809C171.406 360.201 167.016 371.524 165.04 376.312C164.619 377.024 164.085 377.93 163.421 378.965C166.66 370.554 165.818 359.279 162.854 356.513C159.193 353.084 160.926 362.983 162.076 371.46C162.702 375.218 162.397 379.072 161.185 382.685C159.792 384.982 158.221 387.538 156.618 390.159C156.342 390.498 156.083 390.854 155.824 391.194C156.723 389.453 157.413 387.613 157.881 385.71C158.982 380.68 156.261 369.179 152.066 369.535C147.871 369.89 152.762 376.878 154.398 383.915C155.209 387.761 154.801 391.763 153.232 395.367L152.941 396.014C152.179 397.179 151.45 398.328 150.738 399.395C149.118 401.902 147.498 404.248 146.008 406.593C148.018 403.188 149.524 399.511 150.479 395.675C152.098 388.298 149.782 380.243 146.51 378.302C143.238 376.361 146.591 390.094 146.948 397.373C147.059 401.603 146.083 405.791 144.113 409.537C142.007 412.772 139.966 416.008 137.844 419.534C139.541 414.702 140.847 409.742 141.748 404.701C143.368 396.451 140.031 389.916 136.662 389.188C133.293 388.46 135.431 394.041 137.423 405.17C138.459 411.039 137.946 417.077 135.933 422.688C135.042 424.144 134.151 425.648 133.212 427.217C132.272 428.787 131.139 430.986 130.167 433.041C130.167 430.986 130.329 427.978 130.377 424.629C130.398 420.924 130.696 417.226 131.268 413.565C131.997 409.327 132.386 403.86 128.952 400.625C128.73 400.357 128.452 400.141 128.137 399.993C127.822 399.845 127.478 399.768 127.13 399.768C126.781 399.768 126.438 399.845 126.123 399.993C125.808 400.141 125.529 400.357 125.307 400.625C124.673 401.393 124.309 402.347 124.271 403.342C123.623 408.777 125.243 414.665 126.133 419.938C126.968 424.828 128.121 429.659 129.584 434.4C128.725 436.308 127.964 438.249 127.17 440.158L125.939 438.249C124.498 436.001 122.959 422.85 121.307 416.687C119.654 410.524 113.823 407.337 114.18 414.617C114.536 421.896 124.222 436.47 124.222 436.47L126.96 440.708C124.044 448.246 122.1 454.894 122.1 454.894L124.384 456.431C124.384 456.431 123.817 451.578 127.786 441.339C129.098 440.595 130.488 439.998 131.932 439.56C140.031 436.842 151.369 439.705 157.006 431.666C158.351 429.709 158.318 426.732 155.71 426.118C153.633 425.917 151.555 426.493 149.879 427.735C144.777 431.067 140.582 434.836 134.637 436.761C134.362 436.842 130.507 438.46 128.498 439.56C129.081 438.152 129.746 436.664 130.507 435.079C132.321 433.306 134.277 431.683 136.354 430.226C141.894 426.328 148.94 425.131 154.739 421.556C156.52 420.472 159.808 415.668 155.306 415.797C153.297 415.797 150.333 418.03 148.551 418.887C143.273 421.156 138.407 424.283 134.151 428.14L134.896 426.797C139.051 423.048 143.498 419.635 148.195 416.59C155.97 411.592 163.226 408.955 164.392 405.267C165.559 401.579 156.294 405.607 147.417 412.142C143.404 415.144 139.918 418.79 137.099 422.931C139.626 418.531 142.25 414.115 144.793 409.877C147.791 405.694 151.708 402.252 156.245 399.816C163.534 396.289 169.446 393.345 171.746 388.412C174.046 383.478 171.212 384.416 163.89 390.579C158.869 394.785 152.017 400.188 147.822 404.895C149.863 401.579 151.807 398.425 153.572 395.642C157.409 391.406 161.762 387.667 166.531 384.513C173.415 380.372 176.703 377.396 173.949 376.28C172.038 375.503 164.101 381.521 158.318 388.088C159.938 385.71 161.039 383.915 161.736 382.863C162.06 382.378 162.4 381.844 162.74 381.246C167.96 377.094 172.915 372.621 177.577 367.852C185.903 359.376 190.293 350.496 185.595 353.504Z" fill="#92E3A9"/>
<path opacity="0.6" d="M185.595 353.504C181.254 356.303 170.288 373.142 163.291 380.534C164.101 379.159 164.911 377.606 165.721 376.053C166.806 374.662 168.102 373.287 168.96 371.977C170.337 369.939 171.633 367.852 172.815 365.701C174.696 362.353 176.18 358.797 177.237 355.106C178.57 350.801 178.609 346.201 177.351 341.874C176.994 340.774 174.84 334.126 172.88 336.665C172.592 337.1 172.419 337.601 172.378 338.121C171.568 342.974 172.038 347.827 171.779 352.809C171.406 360.201 167.016 371.524 165.04 376.312C164.619 377.024 164.085 377.93 163.421 378.965C166.66 370.554 165.818 359.279 162.854 356.513C159.193 353.084 160.926 362.983 162.076 371.46C162.702 375.218 162.397 379.072 161.185 382.685C159.792 384.982 158.221 387.538 156.618 390.159C156.342 390.498 156.083 390.854 155.824 391.194C156.723 389.453 157.413 387.613 157.881 385.71C158.982 380.68 156.261 369.179 152.066 369.535C147.871 369.89 152.762 376.878 154.398 383.915C155.209 387.761 154.801 391.763 153.232 395.367L152.941 396.014C152.179 397.179 151.45 398.328 150.738 399.395C149.118 401.902 147.498 404.248 146.008 406.593C148.018 403.188 149.524 399.511 150.479 395.675C152.098 388.298 149.782 380.243 146.51 378.302C143.238 376.361 146.591 390.094 146.948 397.373C147.059 401.603 146.083 405.791 144.113 409.537C142.007 412.772 139.966 416.008 137.844 419.534C139.541 414.702 140.847 409.742 141.748 404.701C143.368 396.451 140.031 389.916 136.662 389.188C133.293 388.46 135.431 394.041 137.423 405.17C138.459 411.039 137.946 417.077 135.933 422.688C135.042 424.144 134.151 425.648 133.212 427.217C132.272 428.787 131.139 430.986 130.167 433.041C130.167 430.986 130.329 427.978 130.377 424.629C130.398 420.924 130.696 417.226 131.268 413.565C131.997 409.327 132.386 403.86 128.952 400.625C128.73 400.357 128.452 400.141 128.137 399.993C127.822 399.845 127.478 399.768 127.13 399.768C126.781 399.768 126.438 399.845 126.123 399.993C125.808 400.141 125.529 400.357 125.307 400.625C124.673 401.393 124.309 402.347 124.271 403.342C123.623 408.777 125.243 414.665 126.133 419.938C126.968 424.828 128.121 429.659 129.584 434.4C128.725 436.308 127.964 438.249 127.17 440.158L125.939 438.249C124.498 436.001 122.959 422.85 121.307 416.687C119.654 410.524 113.823 407.337 114.18 414.617C114.536 421.896 124.222 436.47 124.222 436.47L126.96 440.708C124.044 448.246 122.1 454.894 122.1 454.894L124.384 456.431C124.384 456.431 123.817 451.578 127.786 441.339C129.098 440.595 130.488 439.998 131.932 439.56C140.031 436.842 151.369 439.705 157.006 431.666C158.351 429.709 158.318 426.732 155.71 426.118C153.633 425.917 151.555 426.493 149.879 427.735C144.777 431.067 140.582 434.836 134.637 436.761C134.362 436.842 130.507 438.46 128.498 439.56C129.081 438.152 129.746 436.664 130.507 435.079C132.321 433.306 134.277 431.683 136.354 430.226C141.894 426.328 148.94 425.131 154.739 421.556C156.52 420.472 159.808 415.668 155.306 415.797C153.297 415.797 150.333 418.03 148.551 418.887C143.273 421.156 138.407 424.283 134.151 428.14L134.896 426.797C139.051 423.048 143.498 419.635 148.195 416.59C155.97 411.592 163.226 408.955 164.392 405.267C165.559 401.579 156.294 405.607 147.417 412.142C143.404 415.144 139.918 418.79 137.099 422.931C139.626 418.531 142.25 414.115 144.793 409.877C147.791 405.694 151.708 402.252 156.245 399.816C163.534 396.289 169.446 393.345 171.746 388.412C174.046 383.478 171.212 384.416 163.89 390.579C158.869 394.785 152.017 400.188 147.822 404.895C149.863 401.579 151.807 398.425 153.572 395.642C157.409 391.406 161.762 387.667 166.531 384.513C173.415 380.372 176.703 377.396 173.949 376.28C172.038 375.503 164.101 381.521 158.318 388.088C159.938 385.71 161.039 383.915 161.736 382.863C162.06 382.378 162.4 381.844 162.74 381.246C167.96 377.094 172.915 372.621 177.577 367.852C185.903 359.376 190.293 350.496 185.595 353.504Z" fill="white"/>
<path d="M689.554 47.1347C689.554 47.1347 683.35 29.3413 665.5 28.5487C647.65 27.7561 650.76 44.8216 638.353 49.464C625.946 54.1065 621.281 40.9394 610.412 44.0451C599.543 47.1509 606.541 55.6593 597.227 58.7651C587.913 61.8709 588.691 53.3462 574.728 60.3827C560.766 67.4192 557.656 69.6838 554.546 70.4602C551.436 71.2366 523.511 75.8791 523.511 75.8791H716.717C716.717 75.8791 722.16 58.8298 711.291 51.858C700.422 44.8863 701.2 53.3462 689.554 47.1347Z" fill="#92E3A9"/>
<path opacity="0.7" d="M689.554 47.1347C689.554 47.1347 683.35 29.3413 665.5 28.5487C647.65 27.7561 650.76 44.8216 638.353 49.464C625.946 54.1065 621.281 40.9394 610.412 44.0451C599.543 47.1509 606.541 55.6593 597.227 58.7651C587.913 61.8709 588.691 53.3462 574.728 60.3827C560.766 67.4192 557.656 69.6838 554.546 70.4602C551.436 71.2366 523.511 75.8791 523.511 75.8791H716.717C716.717 75.8791 722.16 58.8298 711.291 51.858C700.422 44.8863 701.2 53.3462 689.554 47.1347Z" fill="white"/>
<path d="M334.533 18.3418C334.533 18.3418 330.759 7.53634 319.955 7.01871C309.151 6.50109 311.03 16.8698 303.498 19.7006C295.966 22.5313 293.148 14.5243 286.555 16.4654C279.963 18.4065 284.207 23.518 278.57 25.3944C272.933 27.2708 273.387 22.1593 264.915 26.3326C256.444 30.506 254.581 31.978 252.686 32.4471C250.791 32.9162 233.88 35.6822 233.88 35.6822H351.006C351.006 35.6822 354.246 25.3459 347.766 21.124C341.287 16.9021 341.579 22.0946 334.533 18.3418Z" fill="#92E3A9"/>
<path opacity="0.8" d="M334.533 18.3418C334.533 18.3418 330.759 7.53634 319.955 7.01871C309.151 6.50109 311.03 16.8698 303.498 19.7006C295.966 22.5313 293.148 14.5243 286.555 16.4654C279.963 18.4065 284.207 23.518 278.57 25.3944C272.933 27.2708 273.387 22.1593 264.915 26.3326C256.444 30.506 254.581 31.978 252.686 32.4471C250.791 32.9162 233.88 35.6822 233.88 35.6822H351.006C351.006 35.6822 354.246 25.3459 347.766 21.124C341.287 16.9021 341.579 22.0946 334.533 18.3418Z" fill="white"/>
<path d="M137.504 208.262C137.504 208.262 132.434 193.704 117.873 193.089C103.311 192.474 105.822 206.369 95.698 210.171C85.5745 213.972 81.7518 203.199 72.8917 205.738C64.0315 208.278 69.6521 215.217 62.1202 217.757C54.5883 220.297 55.1552 213.325 43.752 219.019C32.3489 224.713 29.822 226.605 27.279 227.252C24.7359 227.899 1.9458 231.668 1.9458 231.668H159.679C159.679 231.668 164.101 217.757 155.241 212.063C146.381 206.369 146.996 213.357 137.504 208.262Z" fill="#92E3A9"/>
<g opacity="0.7">
<path opacity="0.7" d="M137.504 208.262C137.504 208.262 132.434 193.704 117.873 193.089C103.311 192.474 105.822 206.369 95.698 210.171C85.5745 213.972 81.7518 203.199 72.8917 205.738C64.0315 208.278 69.6521 215.217 62.1202 217.757C54.5883 220.297 55.1552 213.325 43.752 219.019C32.3489 224.713 29.822 226.605 27.279 227.252C24.7359 227.899 1.9458 231.668 1.9458 231.668H159.679C159.679 231.668 164.101 217.757 155.241 212.063C146.381 206.369 146.996 213.357 137.504 208.262Z" fill="white"/>
</g>
<path d="M324.863 497C419.741 497 496.656 491.554 496.656 484.836C496.656 478.118 419.741 472.672 324.863 472.672C229.984 472.672 153.07 478.118 153.07 484.836C153.07 491.554 229.984 497 324.863 497Z" fill="#92E3A9"/>
<path d="M485.835 476.748C539.626 476.748 583.232 474.025 583.232 470.666C583.232 467.307 539.626 464.584 485.835 464.584C432.045 464.584 388.439 467.307 388.439 470.666C388.439 474.025 432.045 476.748 485.835 476.748Z" fill="#92E3A9"/>
<g opacity="0.6">
<path opacity="0.6" d="M324.863 497C419.741 497 496.656 491.554 496.656 484.836C496.656 478.118 419.741 472.672 324.863 472.672C229.984 472.672 153.07 478.118 153.07 484.836C153.07 491.554 229.984 497 324.863 497Z" fill="white"/>
<path opacity="0.6" d="M485.835 476.748C539.626 476.748 583.232 474.025 583.232 470.666C583.232 467.307 539.626 464.584 485.835 464.584C432.045 464.584 388.439 467.307 388.439 470.666C388.439 474.025 432.045 476.748 485.835 476.748Z" fill="white"/>
</g>
<path d="M342.377 283.623L372.586 262.013" stroke="#263238" stroke-width="0.835087" stroke-linecap="round" stroke-linejoin="round"/>
<path d="M437.863 433.751L436.162 452.92C436.162 452.92 427.561 456.689 427.577 457.95C427.593 459.212 429.197 460.943 436.21 460.943C443.224 460.943 445.508 458.29 445.508 456.3C445.508 454.311 460.442 437.73 460.442 437.73C460.808 436.735 460.91 435.662 460.737 434.616C460.564 433.57 460.122 432.586 459.454 431.762C457.122 429.109 449.152 428.785 449.152 428.785L437.863 433.751Z" fill="#92E3A9"/>
<path d="M427.593 459.228C427.593 459.228 439.272 458.468 442.398 456.689C445.524 454.909 456.652 437.989 457.543 436.647C458.126 435.551 458.431 434.329 458.434 433.088" stroke="#263238" stroke-width="0.417543" stroke-linecap="round" stroke-linejoin="round"/>
<path d="M452.829 429.06C452.829 429.06 462.305 430.856 461.398 434.916C460.491 438.976 445.621 456.98 443.37 459.18C441.118 461.379 427.172 461.428 427.593 459.18C428.014 456.931 436.162 452.871 436.162 452.871L438.867 436.695" stroke="#263238" stroke-width="0.835087" stroke-linecap="round" stroke-linejoin="round"/>
<path d="M253.274 449.329L225.382 462.932C225.382 462.932 221.737 465.585 229.042 465.585C236.347 465.585 274.849 465.909 274.849 465.909C274.849 465.909 279.174 466.912 280.162 464.922C281.782 461.687 282.495 459.616 281.49 458.614C280.486 457.611 253.274 449.329 253.274 449.329Z" fill="#92E3A9"/>
<path d="M228.005 462.463H277.489" stroke="#263238" stroke-width="0.417543" stroke-linecap="round" stroke-linejoin="round"/>
<path d="M251.395 451.059C251.395 451.059 222.984 463.223 223.438 464.566C223.891 465.909 252.286 465.925 263.106 465.925C273.926 465.925 281.604 466.378 281.604 463.676" stroke="#263238" stroke-width="0.835087" stroke-linecap="round" stroke-linejoin="round"/>
<path d="M452.829 429.06L359.061 360.62L355.821 291.728C352.365 294.765 348.465 297.258 344.256 299.12C338.457 301.336 304.863 318.288 304.863 318.288C304.863 318.288 319.749 370.973 322.454 375.486C325.159 379.999 438.786 436.711 438.786 436.711L452.829 429.06Z" fill="#263238"/>
<path d="M281.587 460.975C281.587 460.975 277.975 460.069 273.926 459.163C269.876 458.257 251.379 451.075 251.379 451.075C251.013 449.606 250.86 448.091 250.925 446.578C250.973 445.603 251.241 444.651 251.709 443.794C252.178 442.937 252.834 442.196 253.63 441.629C253.63 441.629 183.284 347.971 181.486 345.269C179.688 342.568 181.032 338.055 193.213 328.608C205.393 319.162 285.086 270.586 285.086 270.586C282.025 266.962 287.791 264.73 287.791 264.73L295.015 266.979L342.361 283.64L361.296 271.039C361.296 271.039 364.455 282.734 352.728 291.744C341 300.754 233.788 348.359 233.788 348.359L232.006 348.472L280.243 453.712C280.243 453.712 283.482 459.471 281.587 460.975Z" fill="#263238"/>
<path d="M221.769 336.502L230.678 347.631L227.115 332.944" stroke="white" stroke-width="0.835087" stroke-linecap="round" stroke-linejoin="round"/>
<path d="M309.577 319.145C309.577 319.145 327.848 347.631 334.538 353.422" stroke="white" stroke-width="0.835087" stroke-linecap="round" stroke-linejoin="round"/>
<path d="M312.25 318.256C317.286 322.657 322.647 326.675 328.285 330.274" stroke="white" stroke-width="0.835087" stroke-linecap="round" stroke-linejoin="round"/>
<g style="mix-blend-mode:multiply">
<path d="M344.289 167.449L281.02 210.509L294.853 267.448L341.81 283.171L404.463 238.59L396.899 181.312L344.289 167.449Z" fill="#92E3A9"/>
</g>
<path d="M281.361 210.509L285.378 228.302" stroke="#263238" stroke-width="0.835087" stroke-linecap="round" stroke-linejoin="round"/>
<path d="M288.714 241.291L295.031 266.962L342.377 283.623L336.514 241.291" stroke="#263238" stroke-width="0.835087" stroke-linecap="round" stroke-linejoin="round"/>
<path d="M336.06 237.7L334.262 226.895" stroke="#263238" stroke-width="0.835087" stroke-linecap="round" stroke-linejoin="round"/>
<path d="M391.975 248.506L404.593 239.043L398.276 185.469" stroke="#263238" stroke-width="0.835087" stroke-linecap="round" stroke-linejoin="round"/>
<path d="M340.563 223.741L374.837 198.07" stroke="#263238" stroke-width="0.835087" stroke-linecap="round" stroke-linejoin="round"/>
<path d="M373.039 175.1L344.629 167.449L282.397 209.781" stroke="#263238" stroke-width="0.835087" stroke-linecap="round" stroke-linejoin="round"/>
<path d="M282.851 211.576L292.327 214.278" stroke="#263238" stroke-width="0.835087" stroke-linecap="round" stroke-linejoin="round"/>
<path d="M308.557 217.885L334.262 225.083" stroke="#263238" stroke-width="0.835087" stroke-linecap="round" stroke-linejoin="round"/>
<path d="M368.52 174.21L329.743 203.925" stroke="#263238" stroke-width="0.417543" stroke-linecap="round" stroke-linejoin="round"/>
<path d="M326.585 206.627L312.606 217.432" stroke="#263238" stroke-width="0.417543" stroke-linecap="round" stroke-linejoin="round"/>
<path d="M369.492 149.364C369.492 149.364 379.34 230.486 379.34 234.093C379.34 237.7 370.318 239.496 370.318 243.993C370.066 247.68 369.308 251.316 368.067 254.798C368.067 254.798 366.269 256.61 366.269 258.033C366.269 259.457 369.427 258.939 372.132 257.597C374.837 256.254 375.728 251.288 375.728 251.288C375.109 254.263 374.661 257.272 374.384 260.298L372.586 262.094C372.586 262.094 367.176 267.043 370.772 267.496C374.368 267.949 391.068 261.641 391.975 257.597C392.882 253.553 389.707 234.174 389.707 234.174C389.707 234.174 402.795 142.765 402.795 134.208C402.858 131.816 402.203 129.46 400.916 127.443C399.629 125.425 397.768 123.838 395.571 122.885" fill="white"/>
<g style="mix-blend-mode:multiply" opacity="0.3">
<path d="M402.73 145.595C400.835 138.397 398.778 125.327 398.778 125.327L390.193 122.723L378.854 136.327L387.812 130.827V238.768C387.812 244.268 380.928 265.571 380.928 265.571C380.928 265.571 395.166 262.579 392.866 249.638C390.565 236.697 387.812 238.768 391.942 212.644C396.073 186.52 404.69 152.842 402.73 145.595Z" fill="#92E3A9"/>
</g>
<path d="M369.492 149.364C369.492 149.364 379.34 230.486 379.34 234.093C379.34 237.7 370.318 239.496 370.318 243.993C370.066 247.68 369.308 251.316 368.067 254.798C368.067 254.798 366.269 256.61 366.269 258.033C366.269 259.457 369.427 258.939 372.132 257.597C374.837 256.254 375.728 251.288 375.728 251.288C375.109 254.263 374.661 257.272 374.384 260.298L372.586 262.094C372.586 262.094 367.176 267.043 370.772 267.496C374.368 267.949 391.068 261.641 391.975 257.597C392.882 253.553 389.707 234.174 389.707 234.174C389.707 234.174 402.795 142.765 402.795 134.208C402.858 131.816 402.203 129.46 400.916 127.443C399.629 125.425 397.768 123.838 395.571 122.885" stroke="#263238" stroke-width="0.835087" stroke-linecap="round" stroke-linejoin="round"/>
<path d="M380.393 256.836C380.884 258.759 380.724 260.789 379.94 262.611C379.053 264.058 378.01 265.403 376.83 266.623" stroke="#263238" stroke-width="0.417543" stroke-linecap="round" stroke-linejoin="round"/>
<path d="M385.787 256.836C385.521 258.657 385.071 260.445 384.443 262.174" stroke="#263238" stroke-width="0.417543" stroke-linecap="round" stroke-linejoin="round"/>
<path d="M389.804 255.494C389.532 257.313 389.081 259.1 388.46 260.832" stroke="#263238" stroke-width="0.417543" stroke-linecap="round" stroke-linejoin="round"/>
<path d="M244.138 86.9094C243.62 82.2508 234.29 73.4511 221.332 70.863C208.374 68.2749 194.363 68.2749 189.18 72.4806C187.236 74.0173 185.94 77.5921 185.098 81.442C186.021 79.4685 187.884 75.4731 189.811 73.8717C199.352 65.9294 202.008 70.6365 203.595 77.5759C205.183 84.5154 203.061 103.457 203.061 103.457C203.061 103.457 181.324 109.814 184.498 98.6854C184.032 97.0995 183.707 95.4756 183.527 93.8326C183.527 94.6576 183.527 95.159 183.527 95.159L182.49 101.888L173.678 103.506L143.065 102.535C143.065 102.535 158.647 112.241 167.458 112.241C173.153 112.006 178.609 109.896 182.976 106.239L239.668 110.558C239.668 110.558 244.657 91.568 244.138 86.9094Z" fill="#92E3A9"/>
<path d="M178.052 103.053L143 102.519C143 102.519 152.719 111.675 165.677 111.675C178.635 111.675 182.944 106.288 182.944 106.288L239.635 110.607C239.635 110.607 247.038 96.5179 243.264 84.1434C239.49 71.7689 205.474 67.6117 196.015 69.8925C184.32 72.7233 183.543 82.5905 183.543 87.977C183.457 91.9497 183.095 95.9116 182.458 99.8339" stroke="#263238" stroke-width="0.835087" stroke-linecap="round" stroke-linejoin="round"/>
<g style="mix-blend-mode:multiply" opacity="0.3">
<path d="M210.82 108.698L187.932 109.103C187.932 109.103 181.453 118.727 183.073 121.542C184.327 123.488 185.984 125.143 187.932 126.395C187.932 126.395 186.313 139.238 188.337 143.654C190.362 148.07 206.414 146.048 206.414 146.048C202.862 148.146 198.868 149.386 194.752 149.672C187.123 150.464 184.725 148.863 183.51 144.447C182.296 140.031 181.891 127.349 181.891 127.349L176.302 121.542L180.32 110.704L184.741 106.304L210.82 108.698Z" fill="#92E3A9"/>
</g>
<path d="M180.757 107.906C180.757 107.906 174.812 121.914 177.517 124.081C180.222 126.249 181.826 127.317 181.826 127.317C181.826 127.317 183.446 146.161 186.134 149.397C188.823 152.632 206.09 147.245 206.09 147.245C206.09 147.245 241.093 182.233 242.227 175.763C243.361 169.293 238.987 145.029 238.987 142.376C238.987 139.723 231.439 132.671 231.439 132.671" stroke="#263238" stroke-width="0.835087" stroke-linecap="round" stroke-linejoin="round"/>
<path d="M212.035 108.44C212.035 108.44 213.104 113.292 216.343 113.826C219.583 114.36 222.271 108.973 222.271 108.973L212.035 108.44Z" fill="#263238"/>
<path d="M239.473 110.607C239.473 110.607 242.713 120.312 238.923 125.683C235.132 131.053 233.545 131.069 233.545 131.069C230.305 136.456 221.672 124.599 221.672 124.599C221.672 124.599 228.151 124.308 229.771 120.005C231.391 115.702 229.123 109.41 229.123 109.41L239.473 110.607Z" fill="#263238"/>
<path d="M229.755 110.607C229.755 110.607 231.375 118.145 229.755 121.93C228.135 125.715 221.656 124.615 221.656 124.615L218.416 132.703" stroke="#263238" stroke-width="0.835087" stroke-linecap="round" stroke-linejoin="round"/>
<path d="M185.665 130.423C185.665 130.423 191.917 131.765 195.918 124.632" stroke="#263238" stroke-width="0.626315" stroke-linecap="round" stroke-linejoin="round"/>
<path d="M296.678 165.46L283.424 170.335L290.909 190.629L304.163 185.754L296.678 165.46Z" fill="#263238"/>
<path d="M294.359 170L288.021 172.331L291.492 181.742L297.83 179.411L294.359 170Z" fill="white"/>
<path d="M289.687 162.364L286.89 163.392L289.169 169.57L291.966 168.541L289.687 162.364Z" fill="white" stroke="#263238" stroke-width="0.417543" stroke-linecap="round" stroke-linejoin="round"/>
<path d="M275.805 251.045L287.807 264.714" stroke="#263238" stroke-width="0.835087" stroke-linecap="round" stroke-linejoin="round"/>
<path d="M399.102 82.3966L387.196 89.2551L380.474 77.5277L392.363 70.6853L399.102 82.3966Z" stroke="#263238" stroke-width="0.835087" stroke-linecap="round" stroke-linejoin="round"/>
<path d="M395.085 69.0515L376.344 79.8569L365.184 59.2166L383.924 48.4111L395.085 69.0515Z" stroke="#263238" stroke-width="0.835087" stroke-linecap="round" stroke-linejoin="round"/>
<path d="M575.52 331.303C631.792 275.107 631.792 183.994 575.52 127.798C519.247 71.6015 428.012 71.6015 371.739 127.798C315.467 183.994 315.467 275.107 371.739 331.303C428.012 387.5 519.247 387.5 575.52 331.303Z" fill="white"/>
<path d="M474.891 60.9635C441.991 60.9539 409.827 70.6879 382.467 88.9344C355.107 107.181 333.78 133.12 321.183 163.472C308.586 193.824 305.286 227.224 311.698 259.449C318.111 291.675 333.949 321.277 357.209 344.513C380.469 367.748 410.107 383.574 442.374 389.987C474.641 396.4 508.088 393.113 538.484 380.542C568.881 367.971 594.861 346.681 613.14 319.363C631.42 292.046 641.176 259.928 641.176 227.073C641.176 183.026 623.658 140.783 592.475 109.633C561.292 78.4828 518.997 60.9764 474.891 60.9635ZM474.891 370.973C446.379 370.973 418.507 362.529 394.8 346.71C371.093 330.891 352.616 308.407 341.705 282.101C330.794 255.795 327.939 226.848 333.501 198.922C339.064 170.996 352.793 145.344 372.955 125.21C393.116 105.076 418.802 91.3646 446.767 85.8097C474.731 80.2548 503.716 83.1058 530.058 94.0021C556.4 104.898 578.914 123.351 594.755 147.026C610.595 170.701 619.05 198.535 619.05 227.008C619.05 245.914 615.321 264.634 608.077 282.101C600.832 299.568 590.213 315.438 576.827 328.807C563.44 342.175 547.548 352.779 530.058 360.014C512.568 367.249 493.822 370.973 474.891 370.973Z" fill="#263238" stroke="#263238" stroke-width="0.835087" stroke-linecap="round" stroke-linejoin="round"/>
<path d="M576.952 101.775C560.375 88.2866 541.282 78.2194 520.779 72.1572" stroke="white" stroke-width="1.67017" stroke-linecap="round" stroke-linejoin="round"/>
<path d="M505.439 68.4368C499.548 67.3205 493.6 66.5267 487.622 66.059" stroke="white" stroke-width="1.67017" stroke-linecap="round" stroke-linejoin="round"/>
<path d="M596.211 315.878C615.644 289.378 625.848 257.25 625.263 224.409C624.678 191.568 613.336 159.823 592.972 134.03" stroke="white" stroke-width="0.835087" stroke-linecap="round" stroke-linejoin="round"/>
<path d="M575.187 338.993C579.91 334.781 584.357 330.269 588.501 325.487" stroke="white" stroke-width="0.835087" stroke-linecap="round" stroke-linejoin="round"/>
<path d="M413.744 364.341C439.024 375.553 466.907 379.597 494.336 376.03C521.764 372.463 547.68 361.424 569.242 344.121" stroke="white" stroke-width="0.835087" stroke-linecap="round" stroke-linejoin="round"/>
<path d="M392.282 352.613C396.782 355.558 401.437 358.258 406.229 360.701" stroke="white" stroke-width="0.835087" stroke-linecap="round" stroke-linejoin="round"/>
<path d="M376.149 340.384C379.943 343.681 383.9 346.786 388.006 349.685" stroke="white" stroke-width="0.835087" stroke-linecap="round" stroke-linejoin="round"/>
<path d="M433.295 82.6875C407.735 90.0378 384.584 104.024 366.2 123.221C347.816 142.417 334.857 166.138 328.644 191.966C322.431 217.793 323.185 244.804 330.83 270.246C338.475 295.687 352.738 318.65 372.165 336.793" stroke="white" stroke-width="0.835087" stroke-linecap="round" stroke-linejoin="round"/>
<path d="M581.245 120.863C563.649 103.314 541.977 90.3876 518.163 83.2382C494.348 76.0887 469.131 74.9382 444.763 79.8893" stroke="white" stroke-width="0.835087" stroke-linecap="round" stroke-linejoin="round"/>
<path d="M496.45 280.275H453.169V291.986H496.45V280.275Z" fill="#92E3A9"/>
<path d="M486.974 227.073C486.974 224.25 485.982 221.517 484.17 219.35C482.358 217.183 479.842 215.72 477.061 215.216L475.782 136.165H473.984L472.72 215.216C469.967 215.71 467.471 217.145 465.659 219.274C463.847 221.403 462.833 224.094 462.789 226.887C462.745 229.681 463.674 232.403 465.418 234.588C467.161 236.773 469.611 238.285 472.348 238.865L471.894 266.914H477.887L477.434 238.865C480.133 238.282 482.551 236.794 484.286 234.649C486.022 232.504 486.97 229.831 486.974 227.073ZM474.891 233.543C473.609 233.543 472.357 233.164 471.291 232.453C470.226 231.742 469.395 230.731 468.905 229.549C468.414 228.367 468.286 227.066 468.536 225.811C468.786 224.556 469.403 223.403 470.309 222.498C471.215 221.593 472.37 220.977 473.627 220.727C474.883 220.477 476.186 220.605 477.37 221.095C478.554 221.585 479.566 222.414 480.278 223.478C480.99 224.542 481.37 225.793 481.37 227.073C481.37 227.923 481.202 228.764 480.877 229.549C480.551 230.334 480.074 231.047 479.472 231.648C478.87 232.249 478.156 232.726 477.37 233.051C476.584 233.376 475.741 233.543 474.891 233.543Z" fill="#263238"/>
<path d="M474.891 233.721C478.567 233.721 481.548 230.745 481.548 227.073C481.548 223.401 478.567 220.425 474.891 220.425C471.214 220.425 468.233 223.401 468.233 227.073C468.233 230.745 471.214 233.721 474.891 233.721Z" fill="#92E3A9"/>
<path d="M474.891 91.2448V115.201" stroke="#263238" stroke-width="3.34035" stroke-linecap="round" stroke-linejoin="round"/>
<path d="M474.891 339.77V363.726" stroke="#263238" stroke-width="3.34035" stroke-linecap="round" stroke-linejoin="round"/>
<path d="M406.682 109.507L418.668 130.244" stroke="#263238" stroke-width="3.34035" stroke-linecap="round" stroke-linejoin="round"/>
<path d="M531.113 324.726L543.099 345.48" stroke="#263238" stroke-width="3.34035" stroke-linecap="round" stroke-linejoin="round"/>
<path d="M356.745 159.361L377.51 171.347" stroke="#263238" stroke-width="3.34035" stroke-linecap="round" stroke-linejoin="round"/>
<path d="M572.255 283.624L593.037 295.61" stroke="#263238" stroke-width="3.34035" stroke-linecap="round" stroke-linejoin="round"/>
<path d="M611.307 227.494H587.319" stroke="#263238" stroke-width="3.34035" stroke-linecap="round" stroke-linejoin="round"/>
<path d="M362.446 227.494H338.457" stroke="#263238" stroke-width="3.34035" stroke-linecap="round" stroke-linejoin="round"/>
<path d="M611.307 227.494H587.319" stroke="#263238" stroke-width="3.34035" stroke-linecap="round" stroke-linejoin="round"/>
<path d="M362.446 227.494H338.457" stroke="#263238" stroke-width="3.34035" stroke-linecap="round" stroke-linejoin="round"/>
<path d="M593.037 159.361L572.255 171.347" stroke="#263238" stroke-width="3.34035" stroke-linecap="round" stroke-linejoin="round"/>
<path d="M377.51 283.624L356.745 295.61" stroke="#263238" stroke-width="3.34035" stroke-linecap="round" stroke-linejoin="round"/>
<path d="M543.099 109.507L531.113 130.244" stroke="#263238" stroke-width="3.34035" stroke-linecap="round" stroke-linejoin="round"/>
<path d="M418.668 324.726L406.682 345.48" stroke="#263238" stroke-width="3.34035" stroke-linecap="round" stroke-linejoin="round"/>
<path d="M481.758 55.7388H468.023V67.8706H481.758V55.7388Z" stroke="#263238" stroke-width="0.835087" stroke-linecap="round" stroke-linejoin="round"/>
<path d="M485.711 23.3224H464.071V55.0431H485.711V23.3224Z" stroke="#263238" stroke-width="0.835087" stroke-linecap="round" stroke-linejoin="round"/>
<path d="M490.214 1H458.887V22.6109H490.214V1Z" fill="#92E3A9"/>
<path d="M490.554 1H459.227V22.6109H490.554V1Z" stroke="#263238" stroke-width="0.835087" stroke-linecap="round" stroke-linejoin="round"/>
<path d="M462.71 14.4427V1.48584" stroke="#263238" stroke-width="0.835087" stroke-linecap="round" stroke-linejoin="round"/>
<path d="M462.71 23.0152V17.4346" stroke="#263238" stroke-width="0.835087" stroke-linecap="round" stroke-linejoin="round"/>
<path d="M466.695 23.0158V1.48584" stroke="#263238" stroke-width="0.835087" stroke-linecap="round" stroke-linejoin="round"/>
<path d="M470.679 6.87239V1.48584" stroke="#263238" stroke-width="0.835087" stroke-linecap="round" stroke-linejoin="round"/>
<path d="M470.679 23.015V9.45972" stroke="#263238" stroke-width="0.835087" stroke-linecap="round" stroke-linejoin="round"/>
<path d="M477.272 23.0158V1.48584" stroke="#263238" stroke-width="0.835087" stroke-linecap="round" stroke-linejoin="round"/>
<g style="mix-blend-mode:multiply" opacity="0.3">
<path d="M246.163 172.48L257.809 173.288L257.42 168.872C257.42 168.872 246.973 168.064 246.163 172.48Z" fill="#92E3A9"/>
</g>
<g style="mix-blend-mode:multiply" opacity="0.3">
<path d="M214.075 264.245L237.854 248.506L207.483 260.071C207.483 260.071 204.729 198.199 206.803 193.395C208.876 188.591 221.948 179.645 221.948 179.645C221.948 179.645 221.17 174.663 225.381 172.771C228.27 171.693 231.451 171.693 234.339 172.771L237.335 173.903C233.885 171.962 228.313 168.031 219.745 160.04H219.55L221.624 162.03L220.717 170.118L211.613 177.543C209.556 179.613 201.781 189.48 201.781 189.48L201.328 271.427L213.687 263.485L214.075 264.245Z" fill="#92E3A9"/>
</g>
<path d="M220.635 170.15C220.635 170.15 201.7 185.469 201.7 189.561C201.7 193.654 200.34 269.712 201.247 271.508C202.154 273.303 237.854 248.506 237.854 248.506L234.242 215.637" stroke="#263238" stroke-width="0.835087" stroke-linecap="round" stroke-linejoin="round"/>
<path d="M224.248 207.533L262.571 238.153" stroke="#263238" stroke-width="0.835087" stroke-linecap="round" stroke-linejoin="round"/>
<g style="mix-blend-mode:multiply" opacity="0.3">
<path d="M390.193 122.723L367.111 115.638L291.873 103.004L272.808 123.887C272.808 123.887 289.33 113.583 294.141 113.583C298.951 113.583 371.517 134.191 378.369 136.116L390.193 122.723Z" fill="#92E3A9"/>
</g>
<path d="M250.196 138.284C250.196 138.284 287.37 103.004 291.873 103.004C296.376 103.004 370.772 117.854 376.182 118.76C381.592 119.665 390.614 121.461 390.614 121.461C390.614 121.461 374.837 141.276 369.427 148.022C364.017 154.767 361.329 158.827 361.329 158.827L300.458 130.924" stroke="#263238" stroke-width="0.835087" stroke-linecap="round" stroke-linejoin="round"/>
<path d="M310.808 137.734L326.147 178.254" stroke="#263238" stroke-width="0.835087" stroke-linecap="round" stroke-linejoin="round"/>
<path d="M263.916 198.522L260.304 202.13L242.729 179.613" stroke="#263238" stroke-width="0.835087" stroke-linecap="round" stroke-linejoin="round"/>
<path d="M293.525 139.335L311.359 136.213L296.198 146.889" stroke="#263238" stroke-width="0.417543" stroke-linecap="round" stroke-linejoin="round"/>
<path d="M234.16 215.637L211.516 212.321" stroke="#263238" stroke-width="0.417543" stroke-linecap="round" stroke-linejoin="round"/>
<path d="M221.543 162.046C219.915 166.069 219.755 170.534 221.089 174.663C223.341 181.408 231.002 193.12 231.002 193.12L240.915 179.16" stroke="#263238" stroke-width="0.835087" stroke-linecap="round" stroke-linejoin="round"/>
<path d="M244.074 173.757C244.074 173.757 249.046 169.26 253.549 169.26H261.211C261.211 169.26 259.866 151.694 253.549 142.231C247.232 132.768 238.664 137.734 238.664 137.734" stroke="#263238" stroke-width="0.835087" stroke-linecap="round" stroke-linejoin="round"/>
<path d="M235.959 251.207L290.075 225.989L294.578 210.234L313.06 206.222C313.06 206.222 316.672 202.615 316.218 206.222C315.765 209.829 310.808 211.172 309.01 214.779C307.212 218.386 307.196 225.585 304.945 228.739C302.693 231.893 294.578 235.5 294.578 235.5C294.578 235.5 233.707 286.373 229.204 289.075C224.701 291.776 215.679 266.105 215.679 266.105" fill="white"/>
<g style="mix-blend-mode:multiply" opacity="0.3">
<path d="M214.075 264.245C216.165 267.593 224.701 281.456 225.3 286.891C225.997 293.086 231.504 286.891 231.504 286.891L281.069 245.659C281.069 245.659 232.184 276.571 228.135 275.196C224.085 273.821 223.276 263.517 223.276 263.517L237.854 248.506L214.075 264.245Z" fill="#92E3A9"/>
</g>
<path d="M235.959 251.207L290.075 225.989L294.578 210.234L313.06 206.222C313.06 206.222 316.672 202.615 316.218 206.222C315.765 209.829 310.808 211.172 309.01 214.779C307.212 218.386 307.196 225.585 304.945 228.739C302.693 231.893 294.578 235.5 294.578 235.5C294.578 235.5 233.707 286.373 229.204 289.075C224.701 291.776 215.679 266.105 215.679 266.105" stroke="#263238" stroke-width="0.835087" stroke-linecap="round" stroke-linejoin="round"/>
<path d="M313.059 206.222C313.059 206.222 304.232 211.479 305.123 213.259" stroke="#263238" stroke-width="0.417543" stroke-linecap="round" stroke-linejoin="round"/>
<path d="M306.014 207.872L299.324 211.431" stroke="#263238" stroke-width="0.417543" stroke-linecap="round" stroke-linejoin="round"/>
</svg>
