<svg width="586" height="686" viewBox="0 0 586 686" fill="none" xmlns="http://www.w3.org/2000/svg">
<path fill-rule="evenodd" clip-rule="evenodd" d="M168.377 0.0113567C237.087 -1.20476 260.279 95.5592 312.079 140.718C357.116 179.98 420.556 195.331 451.235 246.601C486.694 305.862 506.586 376.361 493.676 444.203C479.829 516.966 438.497 584.284 378.664 627.943C318.762 671.653 241.326 694.884 168.377 681.571C100.584 669.2 64.8352 598.144 7.32423 560.177C-54.3798 519.443 -156.043 521.652 -179.883 451.664C-203.667 381.841 -139.125 313.059 -97.6228 252.079C-65.9333 205.517 -12.5595 184.482 28.3232 145.74C78.4532 98.2358 99.3247 1.23352 168.377 0.0113567Z" fill="#E8FFEE"/>
<path d="M573.338 298.649L505.589 309.137C503.001 309.538 501.228 311.96 501.629 314.548L508.017 355.813C508.418 358.401 510.84 360.174 513.428 359.773L581.177 349.285C583.765 348.884 585.538 346.462 585.137 343.874L578.749 302.609C578.349 300.022 575.926 298.248 573.338 298.649Z" stroke="#263238" stroke-linecap="round" stroke-linejoin="round"/>
<path d="M502.664 321.209L579.784 309.272" stroke="#263238" stroke-linecap="round" stroke-linejoin="round"/>
<path d="M573.754 322.808L561.296 324.737L564.073 342.675L576.531 340.747L573.754 322.808Z" stroke="#263238" stroke-linecap="round" stroke-linejoin="round"/>
<path d="M566.352 327.674C568.984 324.541 573.308 326.63 572.295 336.353L576.149 338.265L576.525 340.709L564.075 342.641L563.564 339.372L568.264 337.544C568.264 337.544 563.877 330.63 566.352 327.674Z" stroke="#263238" stroke-linecap="round" stroke-linejoin="round"/>
<path d="M539.333 349.607C539.333 349.607 548.336 349.68 545.756 347.884C543.177 346.087 542.79 344.27 544.984 344.239C547.177 344.207 550.853 348.416 550.561 345.847C550.268 343.278 551.856 344.949 552.159 345.116C552.462 345.283 555.062 344.239 555.188 344.542C555.313 344.845 555.135 345.69 563.606 344.385" stroke="#263238" stroke-linecap="round" stroke-linejoin="round"/>
<path d="M509.202 329.22L546.968 323.371" stroke="#263238" stroke-linecap="round" stroke-linejoin="round"/>
<path d="M509.87 333.502L532.116 330.055" stroke="#263238" stroke-linecap="round" stroke-linejoin="round"/>
<path d="M511.04 341.053L542.07 336.249" stroke="#263238" stroke-linecap="round" stroke-linejoin="round"/>
<path d="M520.669 312.812L558.54 306.942" stroke="#263238" stroke-linecap="round" stroke-linejoin="round"/>
<path d="M160 286.357L244.671 269.448L274.239 411.405L184.241 430.706L160 286.357Z" stroke="#263238" stroke-linecap="round" stroke-linejoin="round"/>
<path d="M180.836 410.455L270.656 394.193" stroke="#263238" stroke-linecap="round" stroke-linejoin="round"/>
<path d="M260.014 382.12L217.119 390.037" stroke="#263238" stroke-linecap="round" stroke-linejoin="round"/>
<path d="M253.653 374.997L241.12 376.845" stroke="#263238" stroke-linecap="round" stroke-linejoin="round"/>
<path d="M255.564 360.5L191.542 372.511" stroke="#263238" stroke-linecap="round" stroke-linejoin="round"/>
<path d="M171.071 352.302L258.708 336.834" stroke="#263238" stroke-linecap="round" stroke-linejoin="round" stroke-dasharray="1 2"/>
<path d="M264.191 406.81L210.957 417.964" stroke="#263238" stroke-linecap="round" stroke-linejoin="round"/>
<path d="M262.604 402.319L237.579 406.81" stroke="#263238" stroke-linecap="round" stroke-linejoin="round"/>
<path d="M249.068 327.476L205.171 336.176" stroke="#263238" stroke-linecap="round" stroke-linejoin="round"/>
<path d="M245.601 317.731L231.616 320.478" stroke="#263238" stroke-linecap="round" stroke-linejoin="round"/>
<path d="M244.776 310.964L180.836 323.288" stroke="#263238" stroke-linecap="round" stroke-linejoin="round"/>
<path d="M238.969 278.023L221.704 281.594" stroke="#263238" stroke-linecap="round" stroke-linejoin="round"/>
<path d="M180.836 290.294L165.943 293.187" stroke="#263238" stroke-linecap="round" stroke-linejoin="round"/>
<path d="M171.363 301.397C171.674 300.338 172.207 299.357 172.928 298.522C173.648 297.686 174.539 297.014 175.541 296.551" stroke="#263238" stroke-linecap="round" stroke-linejoin="round"/>
<path d="M177.985 310.963C176.136 310.744 174.426 309.869 173.167 308.497C171.908 307.125 171.183 305.347 171.123 303.485" stroke="#263238" stroke-linecap="round" stroke-linejoin="round"/>
<path d="M183.792 309.188C182.732 310.142 181.412 310.76 180.001 310.963" stroke="#263238" stroke-linecap="round" stroke-linejoin="round"/>
<path d="M178.716 295.84C180.061 295.884 181.371 296.276 182.52 296.977C183.668 297.678 184.616 298.664 185.27 299.84C185.924 301.015 186.262 302.34 186.252 303.686C186.242 305.031 185.884 306.351 185.212 307.517" stroke="#263238" stroke-linecap="round" stroke-linejoin="round"/>
<path d="M193.944 297.804C192.555 297.365 191.176 296.864 189.766 296.551" stroke="#263238" stroke-linecap="round" stroke-linejoin="round"/>
<path d="M205.787 298.806C204.607 301.616 198.006 299.057 196.085 298.472" stroke="#263238" stroke-linecap="round" stroke-linejoin="round"/>
<path d="M194.487 291.349L206.832 294.253C206.633 295.078 206.477 295.913 206.32 296.739" stroke="#263238" stroke-linecap="round" stroke-linejoin="round"/>
<path d="M188.377 294.253C189.693 291.12 189.171 290.075 192.45 290.838" stroke="#263238" stroke-linecap="round" stroke-linejoin="round"/>
<path d="M339.014 515.952L355.359 520.965L343.212 506.656C349.871 499.253 353.683 489.726 353.97 479.773" stroke="#263238" stroke-linecap="round" stroke-linejoin="round"/>
<path d="M319.18 522.26C324.659 520.512 329.829 517.915 334.502 514.563" stroke="#263238" stroke-linecap="round" stroke-linejoin="round"/>
<path d="M256.108 491.867C260.922 515.064 286.552 529.352 313.363 523.795" stroke="#263238" stroke-linecap="round" stroke-linejoin="round"/>
<path d="M260.014 465.715C258.985 467.669 258.112 469.702 257.403 471.794" stroke="#263238" stroke-linecap="round" stroke-linejoin="round"/>
<path d="M353.186 471.731C348.382 448.534 322.741 434.247 295.942 439.814C283.772 442.203 272.804 448.731 264.901 458.289" stroke="#263238" stroke-linecap="round" stroke-linejoin="round"/>
<path d="M324.747 463.229C317.028 454.822 306.511 460.65 302.135 469.183C294.908 462.916 282.97 461.381 278.938 472.065C272.129 490.061 295.419 501.037 306.198 505.006C307.42 505.466 308.422 505.852 309.258 506.134C309.937 505.56 310.731 504.829 311.691 503.951C320.214 496.254 337.76 477.413 324.747 463.229Z" stroke="#263238" stroke-linecap="round" stroke-linejoin="round"/>
<path d="M388.926 120.879L373.145 114.31L383.85 129.725C376.533 136.452 371.841 145.556 370.607 155.418" stroke="#263238" stroke-linecap="round" stroke-linejoin="round"/>
<path d="M409.251 116.482C403.632 117.7 398.237 119.786 393.26 122.665" stroke="#263238" stroke-linecap="round" stroke-linejoin="round"/>
<path d="M469.127 152.807C466.568 129.234 442.432 112.524 415.214 115.521" stroke="#263238" stroke-linecap="round" stroke-linejoin="round"/>
<path d="M462.725 178.458C463.919 176.61 464.966 174.672 465.858 172.661" stroke="#263238" stroke-linecap="round" stroke-linejoin="round"/>
<path d="M370.607 163.502C373.166 187.054 397.302 203.743 424.52 200.788C436.861 199.575 448.403 194.133 457.189 185.382" stroke="#263238" stroke-linecap="round" stroke-linejoin="round"/>
<path d="M431.314 177.915C443.381 171.455 447.928 156.436 441.468 144.368C435.008 132.3 419.988 127.754 407.921 134.214C395.853 140.674 391.307 155.693 397.767 167.761C404.227 179.829 419.246 184.375 431.314 177.915Z" stroke="#263238" stroke-linecap="round" stroke-linejoin="round"/>
<path d="M410.201 159.199L417.616 166.196L429.982 144.901" stroke="#263238" stroke-linecap="round" stroke-linejoin="round"/>
<path opacity="0.2" d="M450.599 392.125C450.599 392.125 446.881 437.119 452.26 448.033C457.639 458.947 460.333 533.519 457.921 542.898C457.921 542.898 475.237 547.263 482.089 541.06C488.94 534.856 499.478 540.83 516.836 534.793C534.195 528.756 521.672 394.768 521.672 394.768L522.205 346.025L493.577 320.52L450.599 392.125Z" fill="black" fill-opacity="0.7"/>
<path d="M473.681 413.766C473.573 414.087 473.399 414.383 473.169 414.633C469.472 418.131 453.691 422.017 440.134 424.816C428.907 427.145 419.246 428.722 419.246 428.722C419.246 428.722 411.81 366.924 411.81 360.427C411.81 353.931 399.82 248.758 399.82 248.758L428.562 247.515L466.694 245.865C466.694 245.865 466.924 248.674 467.31 253.583C469.827 284.853 478.475 401.431 473.681 413.766Z" fill="#92E3A9"/>
<path opacity="0.2" d="M473.681 413.766L440.134 420.628L427.465 423.228C424.029 419.855 421.408 419.792 421.408 419.792L420.363 410.34L418.723 394.872L404.29 258.784C407.423 256.622 408.969 251.891 408.969 251.891L428.29 251.191L461.764 249.969L467.289 253.541C469.827 284.853 478.475 401.431 473.681 413.766Z" fill="black" fill-opacity="0.7"/>
<path d="M473.681 413.766L440.134 420.628L427.465 423.228C424.029 419.855 421.408 419.792 421.408 419.792L420.363 410.34L418.723 394.872L404.29 258.784C407.423 256.622 408.969 251.891 408.969 251.891L428.29 251.191L461.764 249.969L467.289 253.541C469.827 284.853 478.475 401.431 473.681 413.766Z" stroke="#263238" stroke-linecap="round" stroke-linejoin="round"/>
<path d="M423.183 373.702L434.379 373.681L434.39 377.18L431.277 378.287L424.102 379.07L423.183 373.702Z" fill="#92E3A9" stroke="#263238" stroke-linecap="round" stroke-linejoin="round"/>
<path d="M423.872 380.908L432.102 380.626L434.212 381.629L434.108 386.277L424.499 386.381L423.872 380.908Z" fill="#92E3A9" stroke="#263238" stroke-linecap="round" stroke-linejoin="round"/>
<path d="M425.188 388.334L434.588 387.655L434.484 391.175L429.94 392.783L425.136 392.512L425.188 388.334Z" fill="#92E3A9" stroke="#263238" stroke-linecap="round" stroke-linejoin="round"/>
<path d="M425.752 394.266L433.345 394.653L434.035 396.595L432.928 398.737L426.139 399.175L424.969 395.864L425.752 394.266Z" fill="#92E3A9" stroke="#263238" stroke-linecap="round" stroke-linejoin="round"/>
<path d="M434.505 401.066L435.549 404.105C435.716 404.428 435.803 404.786 435.803 405.149C435.803 405.513 435.716 405.871 435.549 406.194C435.355 406.416 435.107 406.584 434.829 406.683C434.551 406.782 434.252 406.807 433.961 406.758C433.377 406.705 432.802 406.507 432.217 406.476C430.452 406.403 428.833 407.854 427.1 407.52C426.421 405.64 424.708 402.883 427.026 402.037C427.455 401.901 434.755 401.755 434.505 401.066Z" fill="#92E3A9" stroke="#263238" stroke-linecap="round" stroke-linejoin="round"/>
<path d="M434.473 409.619C434.639 410.342 434.758 411.075 434.828 411.813C434.934 412.279 434.919 412.765 434.784 413.224C434.648 413.683 434.398 414.1 434.055 414.434C433.61 414.679 433.112 414.811 432.604 414.821L426.567 415.364C426.479 414.224 426.461 413.08 426.515 411.938C426.87 410.58 426.619 410.695 427.904 410.142C429.94 409.275 432.384 410.653 434.473 409.619Z" fill="#92E3A9" stroke="#263238" stroke-linecap="round" stroke-linejoin="round"/>
<path d="M412.52 261.876C412.52 261.876 414.796 283.882 414.901 288.237" stroke="#263238" stroke-linecap="round" stroke-linejoin="round"/>
<path d="M417.428 262.116L418.494 274.242" stroke="#263238" stroke-linecap="round" stroke-linejoin="round"/>
<path d="M434.442 257.531L435.821 271.746L437.753 271.934L437.126 257.667L434.442 257.531Z" fill="#92E3A9" stroke="#263238" stroke-linecap="round" stroke-linejoin="round"/>
<path opacity="0.2" d="M473.681 413.766C473.573 414.087 473.398 414.383 473.169 414.633C469.472 418.131 453.691 422.017 440.134 424.816V415.416L420.405 410.361L417.428 409.598L418.765 394.893L423.872 338.703L428.332 251.233L428.52 247.515L466.694 245.865C466.694 245.865 466.923 248.674 467.31 253.583C469.827 284.853 478.475 401.431 473.681 413.766Z" fill="black" fill-opacity="0.7"/>
<path d="M473.681 413.766C473.573 414.087 473.399 414.383 473.169 414.633C469.472 418.131 453.691 422.017 440.134 424.816C428.907 427.145 419.246 428.722 419.246 428.722C419.246 428.722 411.81 366.924 411.81 360.427C411.81 353.931 399.82 248.758 399.82 248.758L428.562 247.515L466.694 245.865C466.694 245.865 466.924 248.674 467.31 253.583C469.827 284.853 478.475 401.431 473.681 413.766Z" stroke="#263238" stroke-linecap="round" stroke-linejoin="round"/>
<path d="M493.911 554C494.152 551.796 490.684 520.182 490.621 516.746C490.454 507.346 487.791 495.011 487.791 495.011C484.073 485.507 481.18 463.605 471.258 449.558C461.336 435.511 461.346 418.988 459.696 404.961C458.046 390.935 458.453 392.146 458.871 379.697C459.172 370.345 458.757 360.984 457.628 351.696C456.803 343.424 455.153 328.875 457.628 322.097C460.104 315.319 466.579 313.742 473.671 320.53C480.762 327.319 483.655 355.153 483.655 358.589C483.655 362.025 483.655 372.762 486.141 376.898C486.141 376.898 500.188 369.712 500.188 367.728C500.188 365.743 499.771 348.208 501.839 347.268L493.577 320.53L509.243 314.964C512.192 317.609 514.74 320.67 516.805 324.05C518.573 326.849 520.054 329.82 521.223 332.917C527.834 350.453 538.456 362.683 540.649 367.728C542.842 372.772 540.649 412.836 540.649 420.283C540.649 427.73 535.845 462.06 535.97 467.835C536.064 472.013 538.884 487.554 541.694 499.471C542.738 504.066 549.078 537.362 550.049 540.005L493.911 554Z" fill="white"/>
<path opacity="0.4" d="M506.277 345.502C506.173 347.748 508.857 365.649 508.857 365.649C510.716 370.109 500.564 385.316 500.564 385.316C498.371 386.548 497.431 394.193 497.431 394.193C490.559 392.668 474.819 376.845 474.819 376.845C474.819 376.845 472.96 383.331 470.871 399.384C468.783 415.437 482.026 453.569 487.666 479.898C493.306 506.228 490.621 516.714 490.621 516.714C490.454 507.314 487.791 494.98 487.791 494.98C484.073 485.476 481.18 463.574 471.258 449.527C461.336 435.479 461.346 418.988 459.696 404.961C458.046 390.935 458.453 392.146 458.871 379.697C459.172 370.345 458.757 360.984 457.628 351.696C456.803 343.424 455.153 328.875 457.628 322.097C460.104 315.319 466.579 313.742 473.671 320.53C480.762 327.319 483.655 355.153 483.655 358.589C483.655 362.025 483.655 372.762 486.141 376.898C486.141 376.898 500.188 369.712 500.188 367.728C500.188 365.743 499.771 348.208 501.839 347.268L493.577 320.53L509.243 314.964C512.192 317.609 514.74 320.67 516.805 324.05C511.74 334.181 506.382 344.103 506.277 345.502Z" fill="#92E3A9"/>
<path opacity="0.4" d="M532.618 470.603C533.307 464.337 535.364 449.443 536.67 440.148C535.072 447.406 532.492 451.083 532.492 451.083C532.492 451.083 536.941 397.817 537.38 394.569C537.819 391.321 542.31 376.72 540.66 367.675C542.853 372.71 540.66 412.784 540.66 420.231C540.66 427.677 535.855 462.007 535.981 467.783C536.075 471.961 540.555 498.583 543.365 510.5C537.328 501.727 531.928 476.901 532.618 470.603Z" fill="#92E3A9"/>
<path d="M550.028 539.953C546.728 530.448 536.127 473.527 536.002 467.783C535.876 462.039 540.681 427.667 540.681 420.231C540.681 412.794 542.874 372.71 540.681 367.675C538.487 362.641 527.865 350.401 521.254 332.865C518.755 326.008 514.647 319.851 509.275 314.911L493.609 320.478L501.87 347.215C499.781 348.155 500.22 365.691 500.22 367.675C500.22 369.66 486.172 376.845 486.172 376.845C483.687 372.668 483.687 361.973 483.687 358.537C483.687 355.101 480.793 327.256 473.702 320.478C466.61 313.7 460.124 315.256 457.66 322.045C455.195 328.833 456.835 343.372 457.66 351.644C458.79 360.942 459.205 370.314 458.902 379.676C458.485 392.125 458.067 390.893 459.728 404.94C461.388 418.988 461.378 435.511 471.289 449.558C481.201 463.605 484.104 485.507 487.822 495.011C487.822 495.011 494.841 545.739 493.943 554" stroke="#263238" stroke-linecap="round" stroke-linejoin="round"/>
<path d="M486.141 376.845C486.141 376.845 488.616 388.407 494.193 394.193" stroke="#263238" stroke-linecap="round" stroke-linejoin="round"/>
<path d="M487.645 382.12C487.645 382.12 498.089 385.316 502.455 385.514" stroke="#263238" stroke-linecap="round" stroke-linejoin="round"/>
<path d="M500.188 367.675C500.188 367.675 507.624 364.239 512.377 366.307" stroke="#263238" stroke-linecap="round" stroke-linejoin="round"/>
<path d="M501.839 347.215C501.839 347.215 507.625 346.683 508.857 343.79" stroke="#263238" stroke-linecap="round" stroke-linejoin="round"/>
<path d="M473.169 452.503C473.169 452.503 484.282 466.3 487.582 473.319" stroke="#263238" stroke-linecap="round" stroke-linejoin="round"/>
<path d="M537.787 392.125C535.928 403.081 533.443 433.035 532.617 438.404" stroke="#263238" stroke-linecap="round" stroke-linejoin="round"/>
<path d="M541.338 371.467C541.652 381.389 539.25 386.548 539.25 386.548" stroke="#263238" stroke-linecap="round" stroke-linejoin="round"/>
<path d="M455.915 232.632L532.492 252.831C532.492 252.831 505.578 334.515 500.115 344.646L490.987 415.855C490.987 415.855 442.066 413.703 419.57 406.904C419.57 406.904 433.795 332.75 434.557 322.859C435.319 312.969 455.915 232.632 455.915 232.632Z" fill="#92E3A9"/>
<path opacity="0.2" d="M439.445 318.473L456.323 246.314C456.323 246.314 463.581 242.711 466.391 239.421L521.254 255.024C521.254 255.024 521.421 260.403 524.565 263.85L496.878 343.633L490.162 402.444C490.162 402.444 481.232 403.154 480.376 409.755C480.376 409.755 451.424 411.322 432.009 406.204C432.009 406.204 429.721 399.071 426.223 394.559L439.445 318.473Z" fill="black" fill-opacity="0.7"/>
<path d="M439.445 318.473L456.323 246.314C456.323 246.314 463.581 242.711 466.391 239.421L521.254 255.024C521.254 255.024 521.421 260.403 524.565 263.85L496.878 343.633L490.162 402.444C490.162 402.444 481.232 403.154 480.376 409.755C480.376 409.755 451.424 411.322 432.009 406.204C432.009 406.204 429.721 399.071 426.223 394.559L439.445 318.473Z" stroke="#263238" stroke-linecap="round" stroke-linejoin="round"/>
<path d="M453.492 322.222C453.492 322.222 458.474 303.423 476.02 306.796C493.567 310.17 483.655 333.335 483.655 333.335C483.655 333.335 483.76 352.03 469.524 349.45C457.179 347.215 450.599 340.437 453.492 322.222Z" fill="#92E3A9" stroke="#263238" stroke-linecap="round" stroke-linejoin="round"/>
<path d="M462.996 253.176C462.996 253.176 457.691 274.659 456.323 278.795" stroke="#263238" stroke-linecap="round" stroke-linejoin="round"/>
<path d="M467.54 255.035L464.448 266.816" stroke="#263238" stroke-linecap="round" stroke-linejoin="round"/>
<path d="M506.277 263.296L516.836 267.014L515.677 270.325H512.377L505.348 268.675L506.277 263.296Z" fill="#92E3A9" stroke="#263238" stroke-linecap="round" stroke-linejoin="round"/>
<path d="M504.523 270.325L512.377 272.8L514.027 274.451L512.377 278.795L503.28 275.693L504.523 270.325Z" fill="#92E3A9" stroke="#263238" stroke-linecap="round" stroke-linejoin="round"/>
<path d="M503.28 277.761L512.377 280.268L511.092 283.547H506.277L501.839 281.688L503.28 277.761Z" fill="#92E3A9" stroke="#263238" stroke-linecap="round" stroke-linejoin="round"/>
<path d="M501.838 283.547L508.857 286.441V288.498L507.102 290.159L500.564 288.3V284.78L501.838 283.547Z" fill="#92E3A9" stroke="#263238" stroke-linecap="round" stroke-linejoin="round"/>
<path d="M507.823 292.874V296.091C507.877 296.445 507.848 296.807 507.737 297.148C507.627 297.489 507.438 297.8 507.186 298.054C506.926 298.196 506.635 298.27 506.34 298.27C506.044 298.27 505.753 298.196 505.494 298.054C504.961 297.804 504.449 297.428 503.948 297.208C502.308 296.551 500.293 297.376 498.726 296.498C498.726 294.503 498.026 291.339 500.491 291.276C500.898 291.308 507.823 293.605 507.823 292.874Z" fill="#92E3A9" stroke="#263238" stroke-linecap="round" stroke-linejoin="round"/>
<path d="M504.93 300.927C504.851 301.663 504.718 302.393 504.533 303.109C504.303 304.039 503.854 305.073 502.925 305.324C502.424 305.407 501.911 305.364 501.431 305.198L495.562 303.653C495.845 302.554 496.194 301.473 496.606 300.415C497.4 299.256 497.128 299.276 498.517 299.182C500.773 299.088 502.611 301.209 504.93 300.927Z" fill="#92E3A9" stroke="#263238" stroke-linecap="round" stroke-linejoin="round"/>
<path d="M485.107 256.487L481.587 270.325L483.342 271.15L487.582 257.51L485.107 256.487Z" fill="#92E3A9" stroke="#263238" stroke-linecap="round" stroke-linejoin="round"/>
<path d="M441.001 349.419L451.842 352.229L450.965 355.612L447.675 355.905L440.531 354.85L441.001 349.419Z" fill="#92E3A9" stroke="#263238" stroke-linecap="round" stroke-linejoin="round"/>
<path d="M439.852 356.573L447.884 358.37L449.68 359.874L448.406 364.344L439.079 362.025L439.852 356.573Z" fill="#92E3A9" stroke="#263238" stroke-linecap="round" stroke-linejoin="round"/>
<path d="M439.257 364.093L448.531 365.806L447.529 369.179L442.735 369.597L438.15 368.125L439.257 364.093Z" fill="#92E3A9" stroke="#263238" stroke-linecap="round" stroke-linejoin="round"/>
<path d="M438.306 369.973L445.555 372.261L445.732 374.318L444.124 376.114L437.45 374.819L437.147 371.321L438.306 369.973Z" fill="#92E3A9" stroke="#263238" stroke-linecap="round" stroke-linejoin="round"/>
<path d="M445.064 378.757L445.346 381.963C445.431 382.312 445.433 382.677 445.352 383.027C445.27 383.377 445.107 383.704 444.876 383.979C444.63 384.142 444.347 384.24 444.053 384.264C443.758 384.287 443.463 384.236 443.194 384.115C442.641 383.916 442.15 383.582 441.575 383.415C439.894 382.893 437.951 383.885 436.353 383.143C436.165 381.159 435.215 378.067 437.659 377.827C438.035 377.806 445.126 379.488 445.064 378.757Z" fill="#92E3A9" stroke="#263238" stroke-linecap="round" stroke-linejoin="round"/>
<path d="M442.881 387.029C442.866 387.788 442.796 388.546 442.672 389.295C442.515 390.235 442.16 391.311 441.262 391.634C440.769 391.76 440.252 391.76 439.758 391.634L433.784 390.59C433.985 389.468 434.254 388.359 434.588 387.269C435.278 386.047 435.006 386.089 436.385 385.88C438.578 385.556 440.583 387.509 442.881 387.029Z" fill="#92E3A9" stroke="#263238" stroke-linecap="round" stroke-linejoin="round"/>
<path d="M486.141 397.17C486.141 397.17 488.627 369.451 488.627 366.662" stroke="#263238" stroke-linecap="round" stroke-linejoin="round"/>
<path d="M481.18 395.927C481.18 395.927 482.224 381.514 482.412 379.007" stroke="#263238" stroke-linecap="round" stroke-linejoin="round"/>
<path d="M461.806 385.514L458.453 401.922H461.806L464.239 385.514H461.806Z" fill="#92E3A9" stroke="#263238" stroke-linecap="round" stroke-linejoin="round"/>
<path opacity="0.2" d="M500.293 344.239C493.044 342.724 486.579 340.5 481.796 337.293C481.796 337.293 485.263 347.257 497.556 364.239L490.945 415.855C490.945 415.855 459.017 414.455 434.891 410.33C442.306 389.441 455.78 349.858 454.182 342.014C452.02 331.246 459.654 318.536 459.654 318.536C483.791 314.191 507.196 295.945 523.259 280.519C515.082 304.697 503.917 337.074 500.293 344.239Z" fill="black" fill-opacity="0.7"/>
<path d="M455.915 232.632L532.492 252.831C532.492 252.831 505.578 334.515 500.115 344.646L490.987 415.855C490.987 415.855 442.066 413.703 419.57 406.904C419.57 406.904 433.795 332.75 434.557 322.859C435.319 312.969 455.915 232.632 455.915 232.632Z" stroke="#263238" stroke-linecap="round" stroke-linejoin="round"/>
<path d="M498.371 395.238L487.582 473.319C485.18 468.211 478.632 459.501 475.248 455.146C473.994 453.516 473.159 452.503 473.159 452.503L471.247 449.558C461.336 435.511 461.336 418.988 459.686 404.94C458.036 390.893 458.443 392.125 458.861 379.676C459.164 370.331 458.752 360.977 457.628 351.696C456.803 343.424 455.153 328.875 457.628 322.097C458.84 318.776 461.023 316.708 463.759 316.269C466.495 315.831 470.025 317.084 473.671 320.53C480.762 327.309 483.655 355.153 483.655 358.589C483.655 362.025 483.655 372.762 486.141 376.898C486.141 376.846 492.804 389.452 498.371 395.238Z" fill="white"/>
<path opacity="0.4" d="M470.433 443.991C472.689 446.874 474.224 451.031 475.248 455.146C473.994 453.516 473.159 452.503 473.159 452.503L471.247 449.558C461.336 435.511 461.336 418.988 459.686 404.94C458.036 390.893 458.443 392.125 458.861 379.676C459.164 370.331 458.752 360.977 457.628 351.696C456.803 343.424 455.153 328.875 457.628 322.097C458.84 318.776 461.023 316.708 463.759 316.269C468.981 317.752 474.203 323.068 476.02 332.165C479.154 347.435 465.023 335.1 461.754 348.04C458.485 360.981 463.237 364.469 465.19 367.728C467.143 370.986 464.647 378.172 461.754 387.822C458.861 397.473 464.239 436.064 470.433 443.991Z" fill="#92E3A9"/>
<path d="M498.371 395.238C492.794 389.452 486.141 376.845 486.141 376.845C483.655 372.668 483.655 361.973 483.655 358.537C483.655 355.101 480.762 327.256 473.67 320.478C466.579 313.7 460.093 315.256 457.628 322.045C455.163 328.834 456.803 343.372 457.628 351.644C458.759 360.942 459.174 370.314 458.871 379.676C458.453 392.125 458.036 390.893 459.696 404.94C461.357 418.988 461.346 435.511 471.258 449.558L473.169 452.503C473.169 452.503 484.282 466.3 487.582 473.319" stroke="#263238" stroke-linecap="round" stroke-linejoin="round"/>
<path d="M461.806 362.192C461.806 362.192 471.279 357.294 476.02 357.712" stroke="#263238" stroke-linecap="round" stroke-linejoin="round"/>
<path opacity="0.2" d="M317.144 228.256C317.144 228.256 293.185 201.874 291.534 200.255C289.884 198.636 288.641 170.499 284.088 158.113C279.534 145.726 277.33 72.9924 277.33 72.9924C277.33 72.9924 272.996 67.6241 260.776 70.5172C248.556 73.4102 236.577 68.0315 222.947 75.8855C209.318 83.7395 235.752 196.077 235.752 196.077L262.583 281.584L317.144 228.256Z" fill="black" fill-opacity="0.7"/>
<path d="M333.604 228.454C333.604 228.454 322.867 297.041 311.671 306.128C305.206 311.35 295.127 313.752 286.187 313.439C279.711 313.209 273.821 311.58 270.353 308.624C262.092 301.595 250.509 297.877 244.744 293.334C238.979 288.79 238.958 272.675 235.24 259.035C231.522 245.395 226.143 244.988 224.911 231.358C223.678 217.728 218.707 176.004 209.725 164.421C200.743 152.838 200.534 143.762 196.816 131.981C193.098 120.2 165.901 77.5775 165.901 77.5775L232.201 64C232.201 64 238.718 90.9774 245.695 112.983C249.005 123.427 252.421 132.765 255.282 137.548C260.777 146.8 265.537 156.47 269.518 166.468C277.017 174.322 281.121 191.722 282.364 206.96L300.119 216.861C313.77 220.59 333.604 228.454 333.604 228.454Z" fill="white"/>
<path opacity="0.4" d="M333.604 228.454C333.604 228.454 322.867 297.041 311.671 306.128C305.206 311.35 295.127 313.752 286.187 313.439C264.985 308.217 259.283 296.394 256.41 293.532C252.588 289.72 247.564 266.492 250.321 252.977C253.079 239.463 251.094 234.46 248.818 227.859C243.773 213.237 259.157 205.362 260.745 199.827C262.332 194.291 261.789 163.335 254.865 153.267C251.188 147.909 241.715 120.294 245.705 113.004C249.016 123.448 252.431 132.785 255.293 137.569C260.788 146.821 265.548 156.491 269.528 166.489C277.027 174.343 281.132 191.743 282.375 206.981L300.13 216.882C313.77 220.59 333.604 228.454 333.604 228.454Z" fill="#92E3A9"/>
<path d="M252.64 223.629C252.64 223.629 248.901 228.026 245.601 228.026" stroke="#263238" stroke-linecap="round" stroke-linejoin="round"/>
<path d="M260.776 238.491C260.776 238.491 256.755 247.035 250.332 248.935" stroke="#263238" stroke-linecap="round" stroke-linejoin="round"/>
<path d="M253.632 288.561C253.632 288.561 262.729 284.634 264.171 278.023" stroke="#263238" stroke-linecap="round" stroke-linejoin="round"/>
<path d="M300.14 216.872C300.14 216.872 297.864 219.765 297.864 222.094" stroke="#263238" stroke-linecap="round" stroke-linejoin="round"/>
<path d="M232.243 64C232.243 64 246.426 122.665 255.324 137.59C260.819 146.842 265.579 156.512 269.56 166.51C277.059 174.364 281.163 191.774 282.406 207.012L300.161 216.914C313.791 220.632 333.583 228.486 333.583 228.486C333.583 228.486 322.846 297.073 311.65 306.159C300.454 315.246 278.698 315.622 270.343 308.603C261.988 301.585 250.499 297.856 244.734 293.313C238.969 288.77 238.948 272.654 235.23 259.014C231.511 245.374 226.133 244.967 224.9 231.337C223.668 217.707 218.696 175.983 209.714 164.4C200.732 152.817 200.524 143.741 196.805 131.96C193.087 120.179 165.901 77.5775 165.901 77.5775" stroke="#263238" stroke-linecap="round" stroke-linejoin="round"/>
<path d="M358.722 224.005L249.068 392.794L274.949 395.676L353.583 398.945L361.636 248.81L358.722 224.005Z" fill="#263238" stroke="#263238" stroke-linecap="round" stroke-linejoin="round"/>
<path d="M358.722 223.995L348.591 396.063L249.068 392.794L256.922 260.946L259.366 220.005L302.731 221.749L358.722 223.995Z" fill="#757575"/>
<path d="M333.697 376.25C340.389 376.25 345.813 370.826 345.813 364.135C345.813 357.444 340.389 352.02 333.697 352.02C327.006 352.02 321.582 357.444 321.582 364.135C321.582 370.826 327.006 376.25 333.697 376.25Z" fill="#BFBFBF" stroke="#263238" stroke-miterlimit="10"/>
<path d="M330.282 356.093L338.491 357.169" stroke="#263238" stroke-linecap="round" stroke-linejoin="round"/>
<path d="M328.078 358.088L340.413 359.289" stroke="#263238" stroke-linecap="round" stroke-linejoin="round"/>
<path d="M326.71 370.245L339.055 371.446" stroke="#263238" stroke-linecap="round" stroke-linejoin="round"/>
<path d="M332.11 360.835C332.449 360.919 332.807 360.87 333.111 360.696C333.414 360.523 333.639 360.24 333.739 359.905L334.658 359.999L333.729 368.72L332.361 368.574L333.071 361.921L332.026 361.806L332.11 360.835Z" fill="#263238"/>
<path d="M336.674 361.2C337.217 361.2 337.468 361.607 337.405 362.182V362.286L336.873 362.234V362.14C336.873 361.889 336.81 361.775 336.632 361.754C336.455 361.733 336.34 361.827 336.319 362.077C336.298 362.328 336.382 362.547 336.716 362.903C336.886 363.046 337.019 363.228 337.104 363.433C337.189 363.639 337.225 363.861 337.207 364.083C337.144 364.657 336.831 364.95 336.277 364.887C335.724 364.824 335.483 364.469 335.536 363.905V363.686L336.058 363.738V363.999C336.058 364.25 336.131 364.354 336.309 364.375C336.486 364.396 336.611 364.312 336.632 364.062C336.653 363.811 336.57 363.592 336.235 363.237C336.066 363.093 335.933 362.911 335.847 362.706C335.762 362.501 335.727 362.278 335.745 362.057C335.818 361.43 336.141 361.096 336.674 361.2Z" fill="#263238"/>
<path d="M337.656 361.346L339.389 361.524L339.327 362.036L338.742 361.973L338.418 365.023L337.865 364.97L338.188 361.91L337.604 361.848L337.656 361.346Z" fill="#263238"/>
<path d="M308.295 231.633L288.867 227.393C288.365 227.284 287.87 227.602 287.76 228.103L285.117 240.216C285.008 240.717 285.326 241.212 285.827 241.322L305.256 245.562C305.757 245.671 306.253 245.353 306.362 244.852L309.005 232.739C309.115 232.238 308.797 231.742 308.295 231.633Z" fill="white" stroke="#263238" stroke-linecap="round" stroke-linejoin="round"/>
<path d="M295.148 239.17C295.143 239.087 295.122 239.005 295.085 238.93C295.075 238.889 295.075 238.846 295.085 238.805C295.101 238.773 295.127 238.747 295.158 238.731C295.44 238.481 295.096 238.147 294.824 238.084C294.73 238.061 294.632 238.062 294.539 238.087C294.445 238.113 294.36 238.162 294.291 238.23L294.511 237.415L295.472 237.624L295.576 237.123L294.135 236.81C294.104 236.88 294.083 236.954 294.072 237.029C294.072 237.102 294.166 237.123 294.166 237.207C294.166 237.29 294.166 237.28 294.166 237.321C294.185 237.383 294.226 237.435 294.281 237.468C294.333 237.468 294.385 237.562 294.375 237.624C294.382 237.645 294.382 237.667 294.375 237.687C294.335 237.783 294.266 237.864 294.177 237.917C294.135 237.925 294.098 237.947 294.072 237.979V238.042C294.072 238.115 293.989 238.157 293.926 238.199C293.863 238.241 293.707 238.575 293.644 238.805L294.166 238.919V238.815C294.218 238.564 294.354 238.502 294.521 238.533C294.688 238.564 294.793 238.69 294.73 238.94L294.563 239.713C294.563 239.953 294.385 240.027 294.208 239.985C294.03 239.943 293.947 239.839 293.999 239.588L294.072 239.264L293.55 239.149L293.487 239.442C293.447 239.555 293.431 239.676 293.441 239.796C293.451 239.915 293.486 240.032 293.545 240.137C293.603 240.242 293.683 240.334 293.78 240.406C293.876 240.477 293.987 240.527 294.105 240.553C294.223 240.578 294.344 240.579 294.462 240.553C294.58 240.528 294.69 240.478 294.787 240.406C294.884 240.335 294.964 240.243 295.023 240.138C295.081 240.033 295.117 239.917 295.127 239.797C295.164 239.59 295.171 239.379 295.148 239.17Z" fill="#263238"/>
<path d="M301.968 240.632C301.958 240.55 301.937 240.469 301.905 240.392C301.895 240.351 301.895 240.308 301.905 240.267C301.921 240.235 301.947 240.21 301.978 240.194C302.25 239.943 301.905 239.609 301.644 239.546C301.55 239.523 301.452 239.524 301.359 239.55C301.266 239.575 301.18 239.624 301.112 239.692L301.331 238.878L302.292 239.087L302.396 238.585L300.955 238.272C300.92 238.34 300.899 238.415 300.892 238.491C300.892 238.564 300.976 238.585 300.986 238.669C300.997 238.752 300.986 238.742 300.986 238.784C301.005 238.845 301.046 238.897 301.101 238.93C301.153 238.93 301.206 239.024 301.195 239.087C301.185 239.149 301.195 239.087 301.195 239.149C301.155 239.248 301.081 239.33 300.986 239.379C300.949 239.39 300.916 239.412 300.892 239.442C300.892 239.442 300.892 239.442 300.892 239.504C300.892 239.567 300.819 239.619 300.757 239.661C300.694 239.703 300.537 240.037 300.475 240.267L300.997 240.382V240.277C301.049 240.027 301.185 239.964 301.352 239.995C301.519 240.027 301.613 240.152 301.561 240.403L301.394 241.175C301.394 241.416 301.216 241.489 301.038 241.447C300.861 241.405 300.777 241.301 300.83 241.05L300.903 240.726L300.381 240.611L300.318 240.904C300.286 241.014 300.278 241.129 300.292 241.242C300.307 241.356 300.345 241.465 300.404 241.563C300.462 241.661 300.54 241.746 300.633 241.813C300.726 241.879 300.831 241.926 300.943 241.951C301.055 241.975 301.17 241.976 301.282 241.954C301.394 241.932 301.501 241.887 301.595 241.822C301.689 241.758 301.769 241.674 301.829 241.577C301.89 241.48 301.93 241.372 301.947 241.259C301.989 241.053 301.996 240.841 301.968 240.632Z" fill="#263238"/>
<path d="M298.908 239.859H298.96C298.96 239.807 298.96 239.755 298.96 239.682H299.19L299.367 238.878C299.407 238.763 299.423 238.642 299.412 238.521C299.402 238.4 299.366 238.283 299.307 238.177C299.248 238.071 299.168 237.979 299.07 237.907C298.973 237.835 298.862 237.784 298.743 237.758C298.625 237.732 298.502 237.731 298.384 237.756C298.265 237.781 298.153 237.83 298.055 237.902C297.957 237.973 297.876 238.064 297.815 238.17C297.755 238.275 297.718 238.392 297.707 238.512V238.658C297.78 238.721 297.822 238.825 297.895 238.878C297.968 238.93 298.083 238.878 298.051 239.055C298.02 239.233 297.989 239.201 298.051 239.254C298.114 239.306 298.124 239.254 298.135 239.327C298.148 239.343 298.154 239.363 298.154 239.384C298.154 239.405 298.148 239.425 298.135 239.442C298.135 239.442 298.062 239.442 298.051 239.536C298.041 239.63 298.051 239.692 297.989 239.713C297.926 239.734 297.79 239.588 297.675 239.598C297.634 239.61 297.597 239.633 297.568 239.664C297.538 239.696 297.518 239.734 297.508 239.776C297.455 239.953 297.417 240.135 297.393 240.319C297.355 240.429 297.342 240.547 297.355 240.663C297.367 240.779 297.405 240.891 297.466 240.991C297.527 241.091 297.609 241.176 297.707 241.24C297.804 241.305 297.915 241.347 298.03 241.363C298.149 241.395 298.273 241.401 298.394 241.379C298.515 241.357 298.63 241.309 298.73 241.238C298.823 241.158 298.9 241.063 298.96 240.956C299.007 240.903 299.033 240.834 299.033 240.763C299.033 240.692 299.007 240.623 298.96 240.57H298.908L298.835 240.319C298.835 240.319 298.835 240.319 298.908 240.256C298.981 240.194 298.908 240.058 299.012 239.985C299.117 239.912 298.887 239.88 298.908 239.859ZM298.469 240.57C298.417 240.82 298.281 240.893 298.104 240.852C297.926 240.81 297.842 240.695 297.895 240.444L298.312 238.564C298.365 238.314 298.49 238.241 298.668 238.282C298.845 238.324 298.929 238.439 298.876 238.69L298.469 240.57Z" fill="#263238"/>
<path d="M299.837 241.154L299.722 241.687L299.19 241.572L299.305 241.04L299.837 241.154Z" fill="#263238"/>
<path d="M304.203 240.225C304.266 240.225 304.266 239.985 304.287 239.901C304.327 239.787 304.342 239.665 304.332 239.545C304.321 239.424 304.286 239.307 304.227 239.201C304.168 239.095 304.087 239.003 303.99 238.931C303.892 238.858 303.781 238.807 303.663 238.781C303.544 238.755 303.422 238.755 303.303 238.779C303.185 238.804 303.073 238.854 302.975 238.925C302.877 238.997 302.795 239.088 302.735 239.193C302.675 239.298 302.638 239.415 302.626 239.536L302.469 240.235C302.605 240.361 302.469 240.559 302.532 240.705C302.595 240.852 302.532 240.705 302.532 240.768C302.532 240.831 302.375 240.862 302.375 240.946C302.375 241.029 302.375 240.946 302.375 240.946C302.375 240.946 302.292 241.071 302.24 241.134C302.207 241.183 302.189 241.241 302.187 241.301C302.147 241.415 302.132 241.537 302.142 241.657C302.153 241.778 302.188 241.895 302.247 242.001C302.306 242.107 302.387 242.199 302.484 242.271C302.582 242.344 302.693 242.395 302.811 242.421C302.93 242.447 303.052 242.447 303.171 242.422C303.289 242.398 303.401 242.348 303.499 242.277C303.597 242.205 303.679 242.114 303.739 242.009C303.799 241.904 303.836 241.787 303.848 241.666L303.973 241.092C303.973 240.946 304.161 240.559 303.973 240.444C303.785 240.329 303.89 240.444 303.869 240.371C303.856 240.347 303.849 240.32 303.849 240.293C303.849 240.266 303.856 240.239 303.869 240.215C303.994 240.11 304.088 240.288 304.203 240.225ZM303.566 241.144C303.566 241.207 303.462 241.228 303.409 241.311C303.369 241.415 303.344 241.524 303.336 241.635C303.284 241.886 303.148 241.948 302.981 241.917C302.814 241.886 302.71 241.76 302.772 241.51C302.772 241.437 302.866 241.228 302.845 241.165C302.824 241.102 302.741 241.165 302.699 241.04C302.668 240.93 302.668 240.815 302.699 240.705C302.704 240.681 302.704 240.656 302.699 240.632C302.699 240.632 302.647 240.538 302.699 240.497C302.751 240.455 302.699 240.497 302.699 240.497C302.699 240.497 302.699 240.361 302.699 240.267C302.699 240.173 302.699 240.267 302.699 240.267C303.033 240.392 303.023 239.88 303.075 239.671C303.127 239.463 303.263 239.348 303.43 239.389C303.597 239.431 303.691 239.546 303.639 239.786C303.568 239.999 303.526 240.22 303.514 240.444C303.557 240.451 303.598 240.472 303.628 240.504C303.658 240.537 303.677 240.578 303.681 240.622C303.67 240.677 303.67 240.734 303.681 240.789C303.681 240.789 303.681 240.883 303.681 240.925C303.681 240.967 303.618 240.925 303.576 240.925C303.548 240.936 303.522 240.954 303.502 240.978C303.482 241.002 303.468 241.03 303.462 241.061L303.566 241.144Z" fill="#263238"/>
<path d="M298.365 232.632L301.895 233.405" stroke="#263238" stroke-linecap="round" stroke-linejoin="round"/>
<path d="M290.344 230.877L296.61 232.256" stroke="#263238" stroke-linecap="round" stroke-linejoin="round"/>
<path d="M289.821 233.3L293.957 234.199" stroke="#263238" stroke-linecap="round" stroke-linejoin="round"/>
<path opacity="0.4" d="M253.632 391.269C259.121 389.833 264.764 389.076 270.437 389.013C280.63 388.762 287.148 390.695 295.503 386.559C303.858 382.423 309.279 389.869 317.269 385.734C325.258 381.598 328.966 374.976 333.583 375.122C338.199 375.268 345.071 301.292 347.285 288.561C349.499 275.829 354.21 240.34 355.829 233.133L346.732 393.525L253.632 391.269Z" fill="white"/>
<path d="M254.071 359.707L279.544 390.695L252.64 389.023L254.071 359.707Z" fill="#92E3A9" stroke="#263238" stroke-linecap="round" stroke-linejoin="round"/>
<path d="M321.676 298.43L321.269 310.222C321.212 311.867 320.832 313.485 320.15 314.984C319.468 316.482 318.497 317.831 317.294 318.954C316.09 320.077 314.677 320.952 313.135 321.529C311.593 322.106 309.953 322.374 308.308 322.316L296.192 321.888C294.543 321.832 292.92 321.45 291.418 320.764C289.917 320.079 288.565 319.104 287.441 317.895C286.317 316.685 285.443 315.266 284.87 313.718C284.296 312.17 284.034 310.524 284.098 308.875L284.641 293.522C284.758 290.201 286.189 287.062 288.62 284.796C291.05 282.53 294.281 281.322 297.602 281.438L309.718 281.856C310.052 281.856 310.386 281.856 310.762 281.929C309.067 283.559 307.997 285.733 307.738 288.071C307.479 290.409 308.048 292.764 309.346 294.726C310.643 296.688 312.588 298.133 314.84 298.81C317.093 299.487 319.512 299.352 321.676 298.43Z" fill="#92E3A9" stroke="#263238" stroke-linecap="round" stroke-linejoin="round"/>
<path d="M323.859 288.247C323.821 289.381 323.448 290.478 322.787 291.399C322.125 292.321 321.205 293.025 320.144 293.424C319.082 293.823 317.926 293.898 316.821 293.639C315.717 293.38 314.714 292.8 313.939 291.972C313.165 291.143 312.654 290.103 312.47 288.984C312.286 287.865 312.439 286.716 312.908 285.684C313.378 284.651 314.143 283.781 315.106 283.183C316.07 282.585 317.19 282.287 318.324 282.326C319.842 282.38 321.277 283.034 322.314 284.144C323.351 285.253 323.907 286.729 323.859 288.247Z" fill="#92E3A9" stroke="#263238" stroke-linecap="round" stroke-linejoin="round"/>
<path opacity="0.4" d="M287.545 310.337L305.352 295.109C305.352 295.109 303.096 286.952 305.352 284.373H296.798C294.738 284.366 292.753 285.146 291.249 286.553C289.745 287.96 288.834 289.889 288.704 291.945L287.545 310.337Z" fill="white"/>
<path opacity="0.4" d="M315.702 288.561L319.514 284.383C319.514 284.383 317.143 282.785 315.702 284.383C314.261 285.981 315.702 288.561 315.702 288.561Z" fill="white"/>
<path d="M313.843 379.54L342.554 380.783" stroke="#263238" stroke-linecap="round" stroke-linejoin="round"/>
<path d="M303.9 382.433L342.554 384.501" stroke="#263238" stroke-linecap="round" stroke-linejoin="round"/>
<path d="M332.434 390.695H342.554" stroke="#263238" stroke-linecap="round" stroke-linejoin="round"/>
<path opacity="0.2" d="M297.247 285.239C282.437 292.362 266.395 267.411 260.776 263.975C259.391 263.101 258.099 262.086 256.922 260.946L259.366 220.005L302.72 221.749C302.438 227.849 302.532 234.585 303.89 238.46C306.814 246.909 312.047 278.127 297.247 285.239Z" fill="black" fill-opacity="0.7"/>
<path opacity="0.4" d="M280.651 286.514C280.651 286.514 292.495 291.652 297.863 288.602C303.232 285.553 309.018 279.725 309.843 266.785C309.843 266.785 316.893 285.01 302.678 290.472C288.464 295.934 280.651 286.514 280.651 286.514Z" fill="white"/>
<path opacity="0.4" d="M276.035 293.804C276.035 293.804 300.057 300.258 310.334 288.582C310.334 288.582 308.955 295.067 297.863 296.937C286.772 298.806 276.035 293.804 276.035 293.804Z" fill="white"/>
<path opacity="0.4" d="M314.668 252.079C312.84 248.831 315.086 278.023 315.086 278.023C315.086 278.023 318.386 258.743 314.668 252.079Z" fill="white"/>
<path d="M358.722 223.995L348.591 396.063L249.068 392.794L256.922 260.946L259.366 220.005L302.731 221.749L358.722 223.995Z" stroke="#263238" stroke-linecap="round" stroke-linejoin="round"/>
<path opacity="0.4" d="M353.688 396.982L350.064 396.063L358.722 238.491L360.257 248.894L353.688 396.982Z" fill="white"/>
<path d="M297.247 285.239C295.878 285.967 294.355 286.359 292.804 286.383C291.253 286.406 289.719 286.061 288.328 285.375C285.92 284.112 283.978 282.115 282.782 279.673C278.657 272.236 267.492 255.296 265.434 250.429C263.377 245.562 258.823 231.796 254.28 226.021C249.737 220.245 247.251 211.556 247.251 211.556L245.601 127.271C248.076 139.459 254.896 153.298 254.896 153.298C260.821 156.381 265.856 160.934 269.518 166.52C270.584 167.655 271.539 168.89 272.369 170.207C279.116 180.651 282.385 199.451 282.74 214.073C283.158 230.606 288.526 238.094 297.205 252.497C305.885 266.899 302.887 282.033 297.247 285.239Z" fill="white"/>
<path opacity="0.4" d="M297.247 285.239C295.872 285.95 294.351 286.332 292.804 286.355C291.256 286.379 289.724 286.043 288.328 285.375C293.07 284.08 299.294 281.647 297.864 278.064C295.618 272.341 289.049 280.832 285.748 278.064C282.448 275.297 270.458 259.421 278.072 252.434C285.686 245.447 283.294 233.729 278.072 230.428C272.85 227.128 276.244 219.263 277.894 206.887C278.939 199.399 275.356 182.437 272.411 170.197C279.158 180.641 282.427 199.44 282.782 214.062C283.2 230.595 288.568 238.084 297.247 252.486C305.926 266.889 302.887 282.231 297.247 285.239Z" fill="#92E3A9"/>
<path d="M245.601 127.219C248.076 139.407 254.896 153.246 254.896 153.246C260.821 156.329 265.856 160.882 269.518 166.468C278.197 175.554 282.333 197.456 282.74 213.979C283.148 230.501 288.526 238 297.205 252.403C305.885 266.805 303.472 281.824 297.205 285.239C292.84 287.631 286.876 287.109 282.74 279.673C278.604 272.236 267.45 255.296 265.392 250.429C263.335 245.562 258.781 231.796 254.238 226.021C249.695 220.245 247.209 211.556 247.209 211.556" stroke="#263238" stroke-linecap="round" stroke-linejoin="round"/>
<path d="M272.432 248.894C272.432 248.894 279.179 248.288 282.27 245.76" stroke="#263238" stroke-linecap="round" stroke-linejoin="round"/>
<path d="M244.776 213.216C244.776 213.216 243.46 216.35 250.353 219.483" stroke="#263238" stroke-linecap="round" stroke-linejoin="round"/>
</svg>
