<svg width="552" height="586" viewBox="0 0 552 586" fill="none" xmlns="http://www.w3.org/2000/svg">
<path fill-rule="evenodd" clip-rule="evenodd" d="M385.57 0.449678C444.274 -4.6701 494.374 35.0446 546.372 62.77C608.009 95.6352 683.04 115.168 716.11 176.696C751.326 242.217 749.578 324.189 724.524 394.228C699.873 463.142 647.598 522.474 581.317 553.517C520.745 581.886 452.355 549.304 385.57 552.978C312.8 556.982 239.871 606.107 173.522 575.953C103.971 544.344 58.2136 470.522 40.5816 396.188C23.633 324.735 40.2562 246.296 80.8051 185.071C116.51 131.16 188.626 122.65 243.932 89.1466C292.773 59.5597 328.682 5.41099 385.57 0.449678Z" fill="#E8FFEE"/>
<path d="M398.581 120.117C398.655 120.117 400.882 114.246 400.982 113.898C402.114 109.382 401.628 99.9907 397.25 97.2416C396.502 96.8183 395.674 96.5546 394.82 96.467C393.965 96.3795 393.101 96.4701 392.283 96.7331C391.465 96.996 390.71 97.4257 390.066 97.9949C389.422 98.5642 388.904 99.2607 388.542 100.04C386.913 103.349 388.057 107.74 389.625 110.85C391.391 114.433 398.581 120.105 398.581 120.117Z" fill="#92E3A9"/>
<path d="M501.789 163.169C498.144 159.438 488.877 160.98 484.71 163.057C484.349 163.231 479.037 166.677 479.112 166.789L479.187 166.864C477.731 167.1 476.151 167.361 474.447 167.685C471.3 168.319 467.743 169.053 463.936 170.173C459.812 171.265 455.757 172.607 451.796 174.19C447.345 175.93 443.057 178.061 438.983 180.559L438.846 180.659C439.841 179.502 442.503 176.156 442.69 175.882C445.178 171.939 447.666 162.871 444.295 158.878C443.712 158.24 443.003 157.731 442.213 157.383C441.422 157.035 440.568 156.855 439.705 156.855C438.841 156.855 437.987 157.035 437.197 157.383C436.406 157.731 435.697 158.24 435.115 158.878C432.54 161.515 432.254 166.03 432.776 169.476C433.373 173.345 438.013 180.472 438.386 181.044C434.304 183.679 430.406 186.589 426.718 189.752C424.554 191.593 422.439 193.484 420.337 195.449C421.158 194.416 421.892 193.496 421.979 193.347C424.467 189.403 426.954 180.335 423.596 176.342C423.013 175.705 422.304 175.196 421.514 174.848C420.724 174.5 419.869 174.32 419.006 174.32C418.142 174.32 417.288 174.5 416.498 174.848C415.708 175.196 414.999 175.705 414.416 176.342C411.841 178.979 411.555 183.507 412.077 186.941C412.6 190.374 416.443 196.581 417.476 198.136L415.088 200.387C411.269 204.02 407.475 207.664 403.643 211.122C402.3 212.366 400.919 213.498 399.551 214.655C400.285 213.735 400.894 212.963 400.981 212.839C403.469 208.896 405.957 199.828 402.586 195.822C402.008 195.181 401.302 194.667 400.514 194.313C399.726 193.96 398.873 193.774 398.01 193.768C397.146 193.762 396.291 193.937 395.498 194.279C394.706 194.622 393.993 195.126 393.406 195.76C390.844 198.397 390.545 202.925 391.067 206.358C391.59 209.791 395.073 215.401 396.292 217.329C394.861 218.474 393.418 219.618 391.976 220.663C390.968 221.347 390.047 222.081 389.003 222.716L385.967 224.656C383.99 225.813 381.962 227.02 380.009 228.114C378.653 228.873 377.347 229.57 376.041 230.291C377.397 229.047 379.997 226.684 380.196 226.46C382.769 223.267 384.482 219.469 385.171 215.426C385.475 215.087 385.742 214.715 385.967 214.319C386.422 213.586 386.719 212.766 386.84 211.911C386.96 211.056 386.902 210.186 386.668 209.356C386.434 208.525 386.03 207.752 385.481 207.086C384.932 206.42 384.25 205.876 383.48 205.487C379.885 203.833 374.362 206.184 370.53 208.908C370.692 206.259 370.617 204.629 370.617 204.629L369.61 204.729L370.344 202.975C370.841 201.88 371.215 200.661 371.65 199.492C372.62 196.755 373.466 193.931 374.262 191.083C376.066 191.954 382.497 195.001 385.992 195.125C389.488 195.25 393.928 194.454 396.255 191.593C396.818 190.937 397.238 190.172 397.489 189.345C397.74 188.518 397.816 187.648 397.711 186.79C397.607 185.932 397.326 185.105 396.884 184.362C396.443 183.619 395.851 182.976 395.148 182.475C390.794 179.614 382.061 183.109 378.429 186.02C378.205 186.207 375.829 188.595 374.561 189.926C375.021 188.209 375.494 186.493 375.904 184.726C377.086 179.664 378.131 174.489 379.2 169.339C379.524 167.759 379.872 166.192 380.208 164.612C380.842 164.936 388.418 168.717 392.324 168.854C395.807 168.978 400.26 168.182 402.586 165.321C403.147 164.666 403.566 163.901 403.816 163.076C404.065 162.25 404.14 161.381 404.036 160.525C403.932 159.669 403.651 158.843 403.211 158.101C402.771 157.36 402.181 156.717 401.479 156.216C397.125 153.342 388.393 156.838 384.761 159.761C384.487 159.972 381.029 163.406 380.27 164.326C381.004 160.868 381.788 157.422 382.683 154.051C383.871 149.505 385.359 145.042 387.137 140.692C387.435 140.841 395.322 144.821 399.327 144.958C402.798 145.095 407.263 144.287 409.589 141.426C410.15 140.77 410.568 140.004 410.816 139.178C411.065 138.352 411.139 137.483 411.034 136.626C410.929 135.77 410.646 134.945 410.205 134.204C409.763 133.462 409.173 132.821 408.47 132.32C404.116 129.447 395.396 132.942 391.764 135.865C391.478 136.089 387.821 139.784 387.199 140.505C387.311 140.256 387.385 139.983 387.497 139.734C389.387 135.391 391.664 131.228 394.302 127.295C395.732 125.118 397.212 123.103 398.705 121.187C400.098 122.083 406.505 126.088 410.099 126.623C413.694 127.158 418.06 126.81 420.685 124.235C421.315 123.644 421.816 122.929 422.154 122.134C422.493 121.34 422.663 120.484 422.652 119.62C422.641 118.756 422.451 117.904 422.093 117.118C421.735 116.332 421.218 115.629 420.573 115.055C416.568 111.721 407.512 114.246 403.581 116.746C403.37 116.871 401.342 118.5 399.85 119.694C400.534 118.848 401.218 117.953 401.89 117.144C404.377 114.109 406.865 111.484 409.129 109.183C410.373 107.939 411.617 106.695 412.699 105.663C414.528 105.825 421.879 106.384 425.25 105.228C428.621 104.071 432.415 101.732 433.547 98.2243C433.835 97.4106 433.95 96.5459 433.886 95.6852C433.821 94.8244 433.578 93.9866 433.172 93.2249C432.766 92.4632 432.206 91.7944 431.528 91.261C430.849 90.7275 430.067 90.3411 429.231 90.1264C424.131 89.0193 417.252 95.4379 414.913 99.4558C414.714 99.8041 412.189 105.613 412.276 105.675H412.388C411.294 106.671 410.137 107.765 408.893 108.972C406.604 111.236 404.054 113.811 401.429 116.808C398.599 120.002 395.958 123.358 393.518 126.859C390.77 130.785 388.376 134.948 386.365 139.298L386.291 139.46C386.49 137.943 386.875 133.688 386.863 133.353C386.763 128.7 383.828 119.769 378.827 118.276C377.993 118.059 377.123 118.017 376.272 118.154C375.421 118.291 374.607 118.603 373.883 119.071C373.159 119.539 372.54 120.152 372.066 120.872C371.592 121.592 371.272 122.402 371.127 123.252C370.443 126.859 372.695 130.79 375.033 133.377C377.658 136.288 385.47 139.597 386.092 139.933C384.144 144.376 382.502 148.948 381.178 153.616C380.382 156.34 379.673 159.102 378.989 161.888C379.113 160.569 379.213 159.4 379.2 159.226C379.101 154.574 376.165 145.642 371.165 144.15C370.331 143.934 369.462 143.894 368.613 144.032C367.763 144.17 366.951 144.482 366.229 144.95C365.506 145.418 364.889 146.03 364.415 146.749C363.941 147.468 363.622 148.277 363.477 149.125C362.781 152.733 365.045 156.664 367.371 159.251C369.697 161.838 376.339 164.873 378.093 165.657C377.845 166.727 377.583 167.784 377.335 168.854C376.153 173.991 375.009 179.129 373.715 184.117C373.267 185.883 372.757 187.6 372.259 189.316C372.359 188.16 372.434 187.164 372.434 187.015C372.334 182.363 369.398 173.432 364.398 171.939C363.565 171.723 362.696 171.683 361.846 171.821C360.996 171.959 360.185 172.272 359.462 172.739C358.739 173.207 358.122 173.82 357.648 174.538C357.175 175.257 356.855 176.066 356.71 176.915C356.014 180.534 358.265 184.465 360.604 187.052C362.942 189.64 368.926 192.376 371.003 193.272C370.443 195.026 369.871 196.767 369.237 198.434C368.789 199.566 368.428 200.686 367.906 201.793L366.475 205.002C365.368 205.189 364.087 205.438 362.656 205.761C362.283 201.071 360.529 195.349 356.959 193.658C356.165 193.316 355.307 193.144 354.442 193.153C353.578 193.161 352.724 193.35 351.936 193.707C351.148 194.064 350.444 194.581 349.867 195.226C349.29 195.871 348.855 196.629 348.588 197.452C347.344 200.922 348.998 205.151 350.914 208.05C351.194 208.49 351.51 208.906 351.859 209.294C345.746 211.787 340.249 215.582 335.75 220.414C322.851 234.844 323.821 256.762 323.821 256.762C323.821 256.762 342.119 255.518 355.118 244.322C359.111 242.432 364.273 239.919 370.182 236.747C372.396 235.578 374.735 234.259 377.123 232.903C377.758 233.687 382.895 240.056 386.316 241.785C389.425 243.365 393.779 244.497 397.113 242.88C397.894 242.52 398.591 242.002 399.162 241.358C399.733 240.715 400.164 239.96 400.428 239.142C400.692 238.324 400.784 237.46 400.697 236.604C400.61 235.749 400.347 234.921 399.924 234.172C397.175 229.744 387.784 229.271 383.268 230.44C383.007 230.515 380.196 231.56 378.429 232.244C379.4 231.684 380.357 231.149 381.352 230.552C383.33 229.395 385.271 228.189 387.361 226.895L390.358 224.892C391.366 224.246 392.361 223.437 393.369 222.703C395.682 220.962 397.946 219.071 400.185 217.13C401.205 218.859 404.9 224.942 407.736 226.97C410.572 228.997 414.727 230.789 418.247 229.694C419.078 229.457 419.85 229.049 420.515 228.496C421.179 227.944 421.721 227.259 422.106 226.485C422.491 225.712 422.711 224.866 422.751 224.003C422.791 223.14 422.651 222.278 422.34 221.472C420.3 216.683 411.082 214.779 406.455 215.252C406.156 215.252 402.872 215.961 401.069 216.372C402.4 215.19 403.743 214.008 405.062 212.777C408.793 209.194 412.525 205.462 416.257 201.756C417.401 200.611 418.558 199.492 419.702 198.372C420.051 198.982 424.293 206.321 427.477 208.597C430.301 210.625 434.468 212.404 437.976 211.309C438.806 211.073 439.578 210.666 440.243 210.115C440.908 209.564 441.45 208.88 441.837 208.108C442.223 207.336 442.444 206.492 442.486 205.629C442.528 204.767 442.39 203.905 442.081 203.099C440.028 198.297 430.885 196.407 426.183 196.879C425.835 196.879 421.108 197.899 419.964 198.21C422.452 195.723 425.039 193.235 427.639 190.983C431.144 187.843 434.85 184.934 438.734 182.276C438.896 182.562 443.287 190.237 446.546 192.563C449.37 194.591 453.537 196.382 457.045 195.275C457.875 195.038 458.647 194.632 459.312 194.081C459.977 193.53 460.52 192.846 460.906 192.074C461.292 191.302 461.513 190.458 461.555 189.595C461.597 188.733 461.459 187.871 461.15 187.065C459.097 182.263 449.892 180.373 445.253 180.845C444.892 180.845 439.804 181.952 438.884 182.214C439.12 182.052 439.331 181.878 439.555 181.729C443.522 179.17 447.71 176.972 452.069 175.161C454.458 174.128 456.796 173.27 459.097 172.499C459.769 174.004 462.904 180.883 465.615 183.308C468.327 185.734 472.146 187.861 475.753 187.164C476.606 187.02 477.419 186.7 478.141 186.224C478.863 185.748 479.477 185.127 479.945 184.4C480.414 183.673 480.725 182.856 480.86 182.002C480.995 181.148 480.95 180.276 480.729 179.44C479.211 174.464 470.268 171.553 465.615 171.479C465.354 171.479 462.779 171.703 460.901 171.914C461.946 171.578 463.016 171.205 464.023 170.906C467.755 169.762 471.325 168.953 474.46 168.257C476.239 167.871 477.856 167.56 479.435 167.299C480.866 168.431 486.7 172.959 490.145 173.855C493.591 174.75 498.044 174.887 500.93 172.611C501.668 172.091 502.283 171.418 502.734 170.637C503.186 169.856 503.462 168.987 503.543 168.088C503.625 167.19 503.51 166.285 503.207 165.436C502.904 164.586 502.42 163.813 501.789 163.169ZM368.814 233.936C366.102 235.316 363.54 236.573 361.176 237.667C365.178 231.863 367.928 225.288 369.249 218.362C369.958 218.536 370.68 218.685 371.401 218.822C371.613 222.74 374.735 229.706 375.133 230.602C372.968 231.796 370.841 232.965 368.814 233.936Z" fill="#92E3A9"/>
<path d="M465.056 167.423C468.489 164.276 473.278 156.228 471.101 151.452C470.713 150.681 470.169 149.999 469.503 149.45C468.837 148.902 468.064 148.497 467.233 148.263C466.402 148.029 465.532 147.971 464.678 148.091C463.823 148.212 463.003 148.509 462.27 148.964C459.098 150.83 457.617 155.109 457.219 158.567C456.747 162.622 459.608 171.317 459.608 171.317C459.608 171.317 464.77 167.697 465.056 167.423Z" fill="#92E3A9"/>
<path d="M314.417 128.713C314.417 128.713 287.86 155.656 287.723 189.043C287.586 222.429 313.845 249.584 313.845 249.584C313.845 249.584 340.428 222.641 340.54 189.267C340.652 155.892 314.417 128.713 314.417 128.713Z" fill="#92E3A9"/>
<path d="M256.04 205.064C256.04 205.064 255.879 227.007 269.301 240.951C282.722 254.896 304.64 255.567 304.64 255.567C304.64 255.567 304.814 233.625 291.392 219.68C277.971 205.736 256.04 205.064 256.04 205.064Z" fill="#92E3A9"/>
<g opacity="0.5">
<path opacity="0.5" d="M398.581 120.117C398.656 120.117 400.882 114.246 400.982 113.898C402.114 109.382 401.629 99.9907 397.25 97.2416C396.502 96.8183 395.675 96.5546 394.82 96.467C393.965 96.3795 393.101 96.4701 392.283 96.7331C391.465 96.996 390.71 97.4257 390.066 97.9949C389.423 98.5642 388.904 99.2607 388.543 100.04C386.913 103.349 388.057 107.74 389.625 110.85C391.391 114.433 398.581 120.105 398.581 120.117Z" fill="white"/>
<path opacity="0.5" d="M501.789 163.169C498.144 159.438 488.877 160.98 484.71 163.057C484.349 163.231 479.038 166.677 479.112 166.789L479.187 166.864C477.731 167.1 476.152 167.361 474.447 167.685C471.3 168.319 467.743 169.053 463.936 170.173C459.812 171.265 455.758 172.607 451.796 174.19C447.345 175.93 443.057 178.061 438.983 180.559L438.847 180.659C439.842 179.502 442.504 176.156 442.69 175.882C445.178 171.939 447.666 162.871 444.295 158.878C443.712 158.24 443.003 157.731 442.213 157.383C441.423 157.035 440.568 156.855 439.705 156.855C438.841 156.855 437.987 157.035 437.197 157.383C436.407 157.731 435.698 158.24 435.115 158.878C432.54 161.515 432.254 166.03 432.776 169.476C433.373 173.345 438.013 180.472 438.386 181.044C434.304 183.679 430.406 186.589 426.718 189.752C424.554 191.593 422.439 193.484 420.337 195.449C421.158 194.416 421.892 193.496 421.979 193.347C424.467 189.403 426.955 180.335 423.596 176.342C423.013 175.705 422.304 175.196 421.514 174.848C420.724 174.5 419.87 174.32 419.006 174.32C418.142 174.32 417.288 174.5 416.498 174.848C415.708 175.196 414.999 175.705 414.416 176.342C411.841 178.979 411.555 183.507 412.077 186.941C412.6 190.374 416.444 196.581 417.476 198.136L415.088 200.387C411.269 204.02 407.475 207.664 403.644 211.122C402.3 212.366 400.92 213.498 399.551 214.655C400.285 213.735 400.895 212.963 400.982 212.839C403.47 208.896 405.957 199.828 402.586 195.822C402.008 195.181 401.302 194.667 400.514 194.313C399.727 193.96 398.874 193.774 398.01 193.768C397.146 193.762 396.291 193.937 395.498 194.279C394.706 194.622 393.993 195.126 393.406 195.76C390.844 198.397 390.545 202.925 391.068 206.358C391.59 209.791 395.073 215.401 396.292 217.329C394.862 218.474 393.419 219.618 391.976 220.663C390.968 221.347 390.048 222.081 389.003 222.716L385.968 224.656C383.99 225.813 381.962 227.02 380.009 228.114C378.653 228.873 377.347 229.57 376.041 230.291C377.397 229.047 379.997 226.684 380.196 226.46C382.77 223.267 384.483 219.469 385.172 215.426C385.475 215.087 385.742 214.715 385.968 214.319C386.422 213.586 386.719 212.766 386.84 211.911C386.961 211.056 386.902 210.186 386.668 209.356C386.434 208.525 386.03 207.752 385.481 207.086C384.932 206.42 384.251 205.876 383.48 205.487C379.885 203.833 374.362 206.184 370.531 208.908C370.692 206.259 370.618 204.629 370.618 204.629L369.61 204.729L370.344 202.975C370.842 201.88 371.215 200.661 371.65 199.492C372.62 196.755 373.466 193.931 374.262 191.083C376.066 191.954 382.497 195.001 385.993 195.125C389.488 195.25 393.929 194.454 396.255 191.593C396.818 190.937 397.238 190.172 397.489 189.345C397.74 188.518 397.816 187.648 397.712 186.79C397.608 185.932 397.326 185.105 396.884 184.362C396.443 183.619 395.851 182.976 395.148 182.475C390.794 179.614 382.062 183.109 378.429 186.02C378.206 186.207 375.83 188.595 374.561 189.926C375.021 188.209 375.494 186.493 375.904 184.726C377.086 179.664 378.131 174.489 379.201 169.339C379.524 167.759 379.872 166.192 380.208 164.612C380.843 164.936 388.418 168.717 392.324 168.854C395.807 168.978 400.26 168.182 402.586 165.321C403.148 164.666 403.566 163.901 403.816 163.076C404.065 162.25 404.141 161.381 404.037 160.525C403.932 159.669 403.651 158.843 403.211 158.101C402.771 157.36 402.181 156.717 401.479 156.216C397.126 153.342 388.393 156.838 384.761 159.761C384.487 159.972 381.029 163.406 380.271 164.326C381.004 160.868 381.788 157.422 382.684 154.051C383.872 149.505 385.359 145.042 387.137 140.692C387.435 140.841 395.322 144.821 399.327 144.958C402.798 145.095 407.264 144.287 409.59 141.426C410.15 140.77 410.568 140.004 410.817 139.178C411.065 138.352 411.139 137.483 411.034 136.626C410.929 135.77 410.646 134.945 410.205 134.204C409.764 133.462 409.173 132.821 408.47 132.32C404.116 129.447 395.397 132.942 391.764 135.865C391.478 136.089 387.821 139.784 387.199 140.505C387.311 140.256 387.386 139.983 387.498 139.734C389.387 135.391 391.665 131.228 394.302 127.295C395.732 125.118 397.213 123.103 398.705 121.187C400.099 122.083 406.505 126.088 410.1 126.623C413.695 127.158 418.061 126.81 420.685 124.235C421.316 123.644 421.816 122.929 422.155 122.134C422.493 121.34 422.663 120.484 422.652 119.62C422.642 118.756 422.451 117.904 422.094 117.118C421.736 116.332 421.218 115.629 420.573 115.055C416.568 111.721 407.512 114.246 403.582 116.746C403.37 116.871 401.342 118.5 399.85 119.694C400.534 118.848 401.218 117.953 401.89 117.144C404.378 114.109 406.865 111.484 409.129 109.183C410.373 107.939 411.617 106.695 412.699 105.663C414.528 105.825 421.88 106.384 425.251 105.228C428.622 104.071 432.416 101.732 433.547 98.2243C433.835 97.4106 433.951 96.5459 433.886 95.6852C433.821 94.8244 433.578 93.9866 433.172 93.2249C432.766 92.4632 432.206 91.7944 431.528 91.261C430.849 90.7275 430.067 90.3411 429.231 90.1264C424.131 89.0193 417.252 95.4379 414.914 99.4558C414.715 99.8041 412.189 105.613 412.277 105.675H412.388C411.294 106.671 410.137 107.765 408.893 108.972C406.604 111.236 404.054 113.811 401.43 116.808C398.599 120.002 395.958 123.358 393.518 126.859C390.77 130.785 388.376 134.948 386.366 139.298L386.291 139.46C386.49 137.943 386.876 133.688 386.863 133.353C386.764 128.7 383.828 119.769 378.828 118.276C377.993 118.059 377.123 118.017 376.272 118.154C375.421 118.291 374.608 118.603 373.884 119.071C373.16 119.539 372.541 120.152 372.066 120.872C371.592 121.592 371.272 122.402 371.128 123.252C370.444 126.859 372.695 130.79 375.034 133.377C377.658 136.288 385.47 139.597 386.092 139.933C384.144 144.376 382.502 148.948 381.179 153.616C380.382 156.34 379.673 159.102 378.989 161.888C379.114 160.569 379.213 159.4 379.201 159.226C379.101 154.574 376.166 145.642 371.165 144.15C370.332 143.934 369.463 143.894 368.613 144.032C367.763 144.17 366.952 144.482 366.229 144.95C365.507 145.418 364.889 146.03 364.415 146.749C363.942 147.468 363.622 148.277 363.478 149.125C362.781 152.733 365.045 156.664 367.371 159.251C369.697 161.838 376.34 164.873 378.094 165.657C377.845 166.727 377.584 167.784 377.335 168.854C376.153 173.991 375.009 179.129 373.715 184.117C373.267 185.883 372.757 187.6 372.26 189.316C372.359 188.16 372.434 187.164 372.434 187.015C372.334 182.363 369.399 173.432 364.398 171.939C363.565 171.723 362.696 171.683 361.846 171.821C360.997 171.959 360.185 172.272 359.462 172.739C358.74 173.207 358.122 173.82 357.648 174.538C357.175 175.257 356.855 176.066 356.711 176.915C356.014 180.534 358.266 184.465 360.604 187.052C362.943 189.64 368.926 192.376 371.003 193.272C370.444 195.026 369.871 196.767 369.237 198.434C368.789 199.566 368.428 200.686 367.906 201.793L366.475 205.002C365.368 205.189 364.087 205.438 362.657 205.761C362.283 201.071 360.53 195.349 356.96 193.658C356.165 193.316 355.308 193.144 354.443 193.153C353.578 193.161 352.724 193.35 351.936 193.707C351.148 194.064 350.444 194.581 349.867 195.226C349.291 195.871 348.855 196.629 348.588 197.452C347.344 200.922 348.998 205.151 350.914 208.05C351.194 208.49 351.51 208.906 351.859 209.294C345.746 211.787 340.249 215.582 335.751 220.414C322.851 234.844 323.822 256.762 323.822 256.762C323.822 256.762 342.12 255.518 355.118 244.322C359.111 242.432 364.274 239.919 370.182 236.747C372.396 235.578 374.735 234.259 377.123 232.903C377.758 233.687 382.895 240.056 386.316 241.785C389.426 243.365 393.779 244.497 397.113 242.88C397.894 242.52 398.592 242.002 399.162 241.358C399.733 240.715 400.164 239.96 400.428 239.142C400.692 238.324 400.784 237.46 400.697 236.604C400.61 235.749 400.347 234.921 399.924 234.172C397.175 229.744 387.784 229.271 383.268 230.44C383.007 230.515 380.196 231.56 378.429 232.244C379.4 231.684 380.358 231.149 381.353 230.552C383.331 229.395 385.271 228.189 387.361 226.895L390.359 224.892C391.366 224.246 392.361 223.437 393.369 222.703C395.683 220.962 397.947 219.071 400.186 217.13C401.206 218.859 404.9 224.942 407.736 226.97C410.572 228.997 414.727 230.789 418.247 229.694C419.078 229.457 419.85 229.049 420.515 228.496C421.179 227.944 421.721 227.259 422.106 226.485C422.491 225.712 422.711 224.866 422.751 224.003C422.791 223.14 422.651 222.278 422.34 221.472C420.3 216.683 411.082 214.779 406.455 215.252C406.156 215.252 402.872 215.961 401.069 216.372C402.4 215.19 403.743 214.008 405.062 212.777C408.794 209.194 412.525 205.462 416.257 201.756C417.401 200.611 418.558 199.492 419.703 198.372C420.051 198.982 424.293 206.321 427.477 208.597C430.301 210.625 434.468 212.404 437.976 211.309C438.806 211.073 439.578 210.666 440.243 210.115C440.908 209.564 441.451 208.88 441.837 208.108C442.223 207.336 442.444 206.492 442.486 205.629C442.528 204.767 442.39 203.905 442.081 203.099C440.028 198.297 430.886 196.407 426.184 196.879C425.835 196.879 421.108 197.899 419.964 198.21C422.452 195.723 425.039 193.235 427.639 190.983C431.144 187.843 434.851 184.934 438.735 182.276C438.896 182.562 443.287 190.237 446.546 192.563C449.37 194.591 453.537 196.382 457.045 195.275C457.876 195.038 458.648 194.632 459.312 194.081C459.977 193.53 460.52 192.846 460.906 192.074C461.292 191.302 461.513 190.458 461.555 189.595C461.597 188.733 461.459 187.871 461.15 187.065C459.098 182.263 449.893 180.373 445.253 180.845C444.892 180.845 439.804 181.952 438.884 182.214C439.12 182.052 439.332 181.878 439.556 181.729C443.522 179.17 447.71 176.972 452.069 175.161C454.458 174.128 456.796 173.27 459.098 172.499C459.769 174.004 462.904 180.883 465.616 183.308C468.327 185.734 472.146 187.861 475.754 187.164C476.606 187.02 477.419 186.7 478.141 186.224C478.863 185.748 479.477 185.127 479.946 184.4C480.414 183.673 480.725 182.856 480.86 182.002C480.995 181.148 480.951 180.276 480.729 179.44C479.212 174.464 470.268 171.553 465.616 171.479C465.354 171.479 462.78 171.703 460.901 171.914C461.946 171.578 463.016 171.205 464.023 170.906C467.755 169.762 471.325 168.953 474.46 168.257C476.239 167.871 477.856 167.56 479.436 167.299C480.866 168.431 486.7 172.959 490.146 173.855C493.591 174.75 498.045 174.887 500.931 172.611C501.668 172.091 502.283 171.418 502.735 170.637C503.186 169.856 503.462 168.987 503.544 168.088C503.625 167.19 503.511 166.285 503.208 165.436C502.905 164.586 502.42 163.813 501.789 163.169ZM368.814 233.936C366.102 235.316 363.54 236.573 361.176 237.667C365.179 231.863 367.928 225.288 369.249 218.362C369.958 218.536 370.68 218.685 371.401 218.822C371.613 222.74 374.735 229.706 375.133 230.602C372.969 231.796 370.842 232.965 368.814 233.936Z" fill="white"/>
<path opacity="0.5" d="M465.056 167.423C468.489 164.276 473.278 156.228 471.101 151.452C470.713 150.681 470.169 149.999 469.503 149.45C468.837 148.902 468.064 148.497 467.233 148.263C466.402 148.029 465.532 147.971 464.678 148.091C463.823 148.212 463.003 148.509 462.27 148.964C459.098 150.83 457.617 155.109 457.219 158.567C456.747 162.622 459.608 171.317 459.608 171.317C459.608 171.317 464.77 167.697 465.056 167.423Z" fill="white"/>
<path opacity="0.5" d="M314.417 128.713C314.417 128.713 287.86 155.656 287.723 189.043C287.586 222.429 313.845 249.584 313.845 249.584C313.845 249.584 340.428 222.641 340.54 189.267C340.652 155.892 314.417 128.713 314.417 128.713Z" fill="white"/>
<path opacity="0.5" d="M256.04 205.064C256.04 205.064 255.879 227.007 269.301 240.951C282.722 254.896 304.64 255.567 304.64 255.567C304.64 255.567 304.814 233.625 291.392 219.68C277.971 205.736 256.04 205.064 256.04 205.064Z" fill="white"/>
</g>
<path d="M331.111 219.295L330.265 218.2L314.641 230.465L314.766 203.485L336.472 184.279L335.552 183.246L314.766 201.631L314.903 172.001L329.519 159.338L328.623 158.293L314.903 170.16L315.089 128.713H313.708L313.435 189.777L296.244 164.637L295.099 165.408L313.323 192.041L313.435 191.966L313.323 217.342L292.699 198.795L291.778 199.828L313.31 219.195V219.183L313.186 249.584L314.567 249.597L314.641 232.219L331.111 219.295Z" fill="white"/>
<path d="M371.115 204.94L370.095 204.02L347.107 229.719L349.197 213.113L347.829 212.951L345.49 231.51H345.503L336.261 241.847L334.519 226.51L333.151 226.659L335.029 243.228L323.361 256.264L324.394 257.185L331.024 249.783L343.003 250.505L343.077 249.124L332.193 248.465L342.132 237.356L358.813 237.369V235.988L343.363 235.963L354.297 223.748L365.381 223.885L365.405 222.504L355.529 222.38L371.115 204.94Z" fill="white"/>
<path d="M299.863 236.038L298.495 235.851L297.027 246.661L286.69 235.914L287.959 219.282L286.578 219.183L285.409 234.583L274.027 222.765L274.998 211.719L273.617 211.607L272.759 221.447L256.538 204.592L255.543 205.55L279.451 230.391L263.056 227.057L262.782 228.413L281.118 232.132V232.107L290.733 242.108L275.309 242.693L275.358 244.074L292.014 243.439L304.143 256.04L305.138 255.082L298.259 247.93L299.863 236.038Z" fill="white"/>
<path d="M309.952 565.925L468.788 506.329L469.932 493.628L312.266 553.212L309.952 565.925Z" fill="#92E3A9" stroke="#2E353A" stroke-width="1.13593" stroke-linecap="round" stroke-linejoin="round"/>
<path d="M283.208 355.255C280.417 355.234 277.719 354.25 275.57 352.469C272.87 350.242 271.096 347.089 270.594 343.624C270.531 343.006 270.709 342.386 271.089 341.895C271.47 341.403 272.025 341.076 272.64 340.982C273.255 340.888 273.882 341.033 274.393 341.388C274.903 341.744 275.258 342.281 275.383 342.891C275.708 345.163 276.865 347.233 278.63 348.7C279.398 349.362 280.3 349.849 281.274 350.129C282.249 350.408 283.272 350.472 284.274 350.317C285.276 350.162 286.232 349.792 287.077 349.231C287.921 348.67 288.634 347.933 289.166 347.07C289.532 346.562 290.081 346.216 290.697 346.103C291.313 345.991 291.949 346.121 292.471 346.466C292.994 346.812 293.362 347.346 293.5 347.957C293.637 348.568 293.533 349.209 293.209 349.745C292.301 351.169 291.1 352.383 289.687 353.307C288.274 354.232 286.68 354.845 285.011 355.106C284.415 355.206 283.812 355.256 283.208 355.255Z" fill="#2E353A"/>
<path d="M260.282 362.333C254.15 362.333 248.664 357.457 247.632 350.715C247.582 350.401 247.595 350.081 247.669 349.772C247.744 349.463 247.879 349.172 248.066 348.916C248.253 348.659 248.489 348.442 248.76 348.277C249.032 348.112 249.333 348.002 249.647 347.953C250.281 347.87 250.923 348.034 251.44 348.411C251.957 348.789 252.308 349.351 252.421 349.981C253.142 354.72 257.135 358.054 261.302 357.444C262.303 357.281 263.257 356.908 264.102 356.348C264.947 355.788 265.663 355.055 266.203 354.198C266.57 353.69 267.118 353.343 267.735 353.231C268.351 353.118 268.986 353.248 269.509 353.594C270.031 353.94 270.399 354.474 270.537 355.085C270.674 355.696 270.57 356.336 270.246 356.872C269.338 358.296 268.138 359.511 266.724 360.435C265.311 361.359 263.717 361.972 262.049 362.234C261.464 362.315 260.873 362.348 260.282 362.333Z" fill="#2E353A"/>
<path d="M239.31 370.381C236.521 370.362 233.823 369.383 231.672 367.607C228.975 365.378 227.202 362.226 226.696 358.763C226.634 358.144 226.811 357.525 227.192 357.033C227.572 356.541 228.128 356.215 228.742 356.12C229.357 356.026 229.985 356.172 230.495 356.527C231.006 356.882 231.36 357.42 231.486 358.029C231.81 360.301 232.967 362.371 234.732 363.838C235.508 364.488 236.411 364.968 237.384 365.246C238.357 365.525 239.377 365.596 240.38 365.455C241.378 365.292 242.331 364.918 243.174 364.358C244.016 363.799 244.73 363.066 245.268 362.209C245.675 361.815 246.204 361.571 246.768 361.518C247.331 361.466 247.896 361.607 248.369 361.919C248.842 362.23 249.194 362.694 249.367 363.233C249.541 363.772 249.525 364.354 249.323 364.883C248.412 366.306 247.209 367.52 245.793 368.444C244.378 369.368 242.783 369.982 241.114 370.244C240.517 370.34 239.914 370.386 239.31 370.381Z" fill="#2E353A"/>
<path d="M216.384 376.949C210.252 376.949 204.766 372.06 203.734 365.331C203.67 365.01 203.671 364.679 203.738 364.359C203.805 364.039 203.936 363.735 204.124 363.467C204.311 363.199 204.551 362.971 204.828 362.798C205.106 362.625 205.416 362.509 205.739 362.459C206.062 362.409 206.392 362.424 206.71 362.505C207.027 362.585 207.324 362.729 207.584 362.928C207.844 363.126 208.062 363.375 208.223 363.66C208.384 363.945 208.486 364.259 208.523 364.584C209.257 369.324 213.237 372.658 217.404 372.048C218.403 371.885 219.356 371.512 220.201 370.955C221.045 370.398 221.763 369.668 222.305 368.814C222.469 368.525 222.691 368.272 222.956 368.072C223.221 367.873 223.525 367.729 223.848 367.651C224.17 367.574 224.506 367.563 224.833 367.62C225.16 367.677 225.472 367.801 225.75 367.984C226.027 368.166 226.264 368.404 226.446 368.682C226.628 368.96 226.751 369.272 226.807 369.6C226.863 369.927 226.851 370.263 226.772 370.585C226.693 370.908 226.549 371.211 226.348 371.476C225.439 372.899 224.238 374.114 222.825 375.04C221.412 375.967 219.819 376.583 218.151 376.85C217.565 376.925 216.975 376.959 216.384 376.949Z" fill="#2E353A"/>
<path d="M192.912 386.278C186.792 386.278 181.306 381.402 180.261 374.66C180.299 374.095 180.528 373.56 180.911 373.143C181.294 372.727 181.808 372.453 182.367 372.367C182.927 372.282 183.499 372.39 183.989 372.673C184.479 372.956 184.858 373.399 185.063 373.926C185.784 378.666 189.777 381.987 193.944 381.39C194.944 381.225 195.897 380.85 196.742 380.29C197.586 379.731 198.303 378.999 198.845 378.143C199.212 377.635 199.76 377.289 200.376 377.176C200.992 377.064 201.628 377.194 202.151 377.539C202.673 377.885 203.041 378.419 203.179 379.03C203.316 379.641 203.212 380.282 202.888 380.818C201.978 382.24 200.777 383.453 199.364 384.377C197.951 385.302 196.358 385.916 194.69 386.179C194.101 386.255 193.506 386.288 192.912 386.278Z" fill="#2E353A"/>
<path d="M170.185 394.6C167.396 394.583 164.698 393.603 162.548 391.826C159.85 389.597 158.077 386.445 157.572 382.982C157.509 382.363 157.686 381.744 158.067 381.252C158.448 380.76 159.003 380.434 159.618 380.339C160.233 380.245 160.86 380.391 161.371 380.746C161.881 381.101 162.236 381.639 162.361 382.248C162.686 384.52 163.843 386.59 165.608 388.057C166.375 388.719 167.278 389.207 168.252 389.486C169.227 389.765 170.25 389.83 171.252 389.675C172.254 389.52 173.21 389.149 174.054 388.589C174.899 388.028 175.612 387.291 176.144 386.428C176.55 386.034 177.079 385.79 177.643 385.737C178.207 385.685 178.772 385.826 179.244 386.138C179.717 386.449 180.069 386.913 180.243 387.452C180.416 387.991 180.401 388.573 180.199 389.102C179.287 390.525 178.084 391.739 176.669 392.663C175.254 393.587 173.659 394.201 171.989 394.463C171.393 394.559 170.789 394.605 170.185 394.6Z" fill="#2E353A"/>
<path d="M314.305 558.175L445.75 509.75" stroke="#2E353A" stroke-width="0.567964" stroke-linecap="round" stroke-linejoin="round"/>
<path d="M310.847 562.218L395.011 531.083" stroke="#2E353A" stroke-width="0.567964" stroke-linecap="round" stroke-linejoin="round"/>
<path d="M151.688 389.015V404.029L309.952 565.925L312.266 553.212L151.688 389.015Z" fill="#92E3A9" stroke="#2E353A" stroke-width="1.13593" stroke-linecap="round" stroke-linejoin="round"/>
<path d="M154.039 400.795L248.017 494.76" stroke="#2E353A" stroke-width="0.567964" stroke-linecap="round" stroke-linejoin="round"/>
<path d="M198.435 441.148L296.43 541.457" stroke="#2E353A" stroke-width="0.567964" stroke-linecap="round" stroke-linejoin="round"/>
<path d="M151.688 389.015L312.266 553.212L469.932 493.629L306.519 337.019L151.688 389.015Z" fill="white" stroke="#2E353A" stroke-width="1.13593" stroke-linecap="round" stroke-linejoin="round"/>
<path d="M149.723 386.428L1 247.619L153.343 200.114L305.349 334.544L149.723 386.428Z" fill="#92E3A9" stroke="#2E353A" stroke-width="1.13593" stroke-linecap="round" stroke-linejoin="round"/>
<path d="M23.7637 248.539L67.3008 234.981" stroke="#2E353A" stroke-width="1.21052" stroke-linecap="round" stroke-linejoin="round"/>
<path d="M30.1947 253.54L73.7318 239.981" stroke="#2E353A" stroke-width="1.21052" stroke-linecap="round" stroke-linejoin="round"/>
<path d="M178.159 390.184C177.685 390.187 177.222 390.049 176.828 389.786C176.303 389.423 175.938 388.871 175.808 388.246C175.679 387.621 175.794 386.97 176.131 386.428C177.374 384.498 177.853 382.174 177.475 379.91C177.264 378.193 176.546 376.579 175.414 375.272C174.282 373.965 172.787 373.024 171.118 372.57C170.516 372.406 170 372.015 169.679 371.479C169.358 370.944 169.255 370.305 169.393 369.696C169.531 369.086 169.898 368.554 170.419 368.209C170.94 367.864 171.573 367.733 172.188 367.844C174.806 368.515 177.165 369.951 178.962 371.97C180.759 373.989 181.913 376.497 182.276 379.176C182.845 382.637 182.099 386.186 180.186 389.127C179.958 389.453 179.654 389.718 179.301 389.902C178.948 390.086 178.557 390.183 178.159 390.184Z" fill="#2E353A"/>
<path d="M200.86 381.863C200.387 381.865 199.923 381.727 199.529 381.464C199.263 381.29 199.033 381.064 198.854 380.8C198.676 380.537 198.551 380.24 198.487 379.928C198.424 379.615 198.422 379.294 198.484 378.981C198.545 378.668 198.668 378.371 198.845 378.106C200.082 376.174 200.561 373.852 200.188 371.588C199.977 369.872 199.26 368.257 198.128 366.95C196.996 365.643 195.5 364.703 193.832 364.249C193.506 364.195 193.195 364.075 192.918 363.897C192.64 363.718 192.402 363.485 192.217 363.212C192.033 362.938 191.906 362.63 191.845 362.306C191.784 361.981 191.789 361.648 191.861 361.326C191.933 361.004 192.07 360.7 192.264 360.433C192.457 360.166 192.703 359.941 192.987 359.772C193.27 359.603 193.585 359.494 193.912 359.451C194.239 359.408 194.572 359.432 194.889 359.522C197.507 360.193 199.866 361.629 201.663 363.648C203.46 365.667 204.614 368.176 204.978 370.854C205.546 374.315 204.801 377.865 202.888 380.805C202.659 381.131 202.355 381.397 202.003 381.581C201.65 381.765 201.258 381.861 200.86 381.863Z" fill="#2E353A"/>
<path d="M291.181 350.839C290.755 350.818 290.342 350.687 289.981 350.46C289.62 350.233 289.324 349.917 289.12 349.542C288.917 349.168 288.813 348.747 288.819 348.32C288.825 347.894 288.94 347.476 289.154 347.107C290.398 345.183 290.877 342.862 290.497 340.602C290.288 338.883 289.572 337.266 288.44 335.957C287.308 334.647 285.811 333.705 284.141 333.25C283.83 333.183 283.536 333.054 283.276 332.872C283.015 332.69 282.793 332.458 282.623 332.189C282.453 331.921 282.338 331.621 282.285 331.308C282.231 330.995 282.241 330.674 282.312 330.364C282.466 329.744 282.853 329.206 283.393 328.864C283.932 328.521 284.583 328.399 285.21 328.523C287.828 329.194 290.187 330.631 291.984 332.65C293.781 334.668 294.935 337.177 295.299 339.855C295.868 343.319 295.118 346.87 293.196 349.807C292.971 350.131 292.67 350.395 292.318 350.575C291.967 350.756 291.576 350.846 291.181 350.839Z" fill="#2E353A"/>
<path d="M268.219 357.892C267.745 357.895 267.282 357.756 266.888 357.494C266.621 357.319 266.392 357.094 266.213 356.83C266.034 356.566 265.909 356.27 265.846 355.957C265.782 355.645 265.781 355.323 265.842 355.011C265.904 354.698 266.026 354.401 266.203 354.136C267.442 352.204 267.92 349.882 267.547 347.617C267.336 345.901 266.618 344.287 265.486 342.98C264.354 341.673 262.859 340.732 261.19 340.278C260.865 340.224 260.554 340.105 260.276 339.926C259.998 339.748 259.76 339.515 259.576 339.241C259.391 338.968 259.264 338.66 259.203 338.335C259.142 338.011 259.148 337.678 259.22 337.356C259.292 337.034 259.429 336.73 259.622 336.463C259.816 336.195 260.062 335.97 260.345 335.802C260.629 335.633 260.943 335.523 261.271 335.48C261.598 335.437 261.93 335.462 262.248 335.551C264.867 336.219 267.228 337.655 269.025 339.674C270.823 341.694 271.976 344.204 272.336 346.884C272.904 350.345 272.159 353.894 270.246 356.835C270.017 357.16 269.714 357.426 269.361 357.61C269.008 357.794 268.616 357.891 268.219 357.892Z" fill="#2E353A"/>
<path d="M247.246 365.978C246.771 365.976 246.308 365.833 245.915 365.567C245.39 365.204 245.025 364.652 244.895 364.027C244.766 363.402 244.881 362.751 245.218 362.209C246.468 360.281 246.951 357.956 246.574 355.691C246.363 353.974 245.646 352.36 244.514 351.053C243.382 349.746 241.886 348.805 240.218 348.351C239.892 348.297 239.581 348.178 239.303 347.999C239.026 347.821 238.787 347.588 238.603 347.315C238.419 347.041 238.292 346.733 238.231 346.408C238.169 346.084 238.175 345.751 238.247 345.429C238.319 345.107 238.456 344.803 238.649 344.536C238.843 344.268 239.089 344.044 239.372 343.875C239.656 343.706 239.971 343.596 240.298 343.553C240.625 343.51 240.958 343.535 241.275 343.625C243.893 344.295 246.252 345.732 248.049 347.751C249.846 349.77 251 352.278 251.363 354.957C251.932 358.418 251.186 361.967 249.273 364.908C249.046 365.236 248.743 365.504 248.39 365.69C248.037 365.876 247.645 365.975 247.246 365.978Z" fill="#2E353A"/>
<path d="M224.32 372.533C223.848 372.53 223.386 372.391 222.989 372.135C222.723 371.96 222.494 371.735 222.315 371.471C222.136 371.207 222.011 370.911 221.948 370.598C221.884 370.286 221.883 369.964 221.944 369.652C222.006 369.339 222.128 369.042 222.305 368.777C223.543 366.844 224.021 364.522 223.649 362.258C223.438 360.542 222.72 358.928 221.588 357.621C220.456 356.314 218.961 355.373 217.292 354.919C216.92 354.919 216.551 354.836 216.215 354.675C215.879 354.513 215.584 354.279 215.35 353.988C215.117 353.697 214.952 353.357 214.868 352.994C214.784 352.631 214.782 352.254 214.863 351.89C214.944 351.526 215.106 351.185 215.337 350.892C215.568 350.599 215.861 350.362 216.196 350.198C216.531 350.034 216.898 349.947 217.271 349.944C217.644 349.941 218.012 350.021 218.35 350.18C220.97 350.846 223.331 352.282 225.129 354.301C226.927 356.321 228.079 358.832 228.438 361.512C229.008 364.974 228.262 368.523 226.348 371.463C226.121 371.791 225.818 372.06 225.465 372.246C225.112 372.432 224.719 372.531 224.32 372.533Z" fill="#2E353A"/>
<path d="M439.581 489.835L445.701 487.583" stroke="#2E353A" stroke-width="0.567964" stroke-linecap="round" stroke-linejoin="round"/>
<path d="M318.759 534.466L434.02 491.899" stroke="#2E353A" stroke-width="0.567964" stroke-linecap="round" stroke-linejoin="round"/>
<path d="M321.993 515.223L431.993 474.597" stroke="#2E353A" stroke-width="0.567964" stroke-linecap="round" stroke-linejoin="round"/>
<path d="M305.051 521.48L314.679 517.922" stroke="#2E353A" stroke-width="0.567964" stroke-linecap="round" stroke-linejoin="round"/>
<path d="M291.343 508.493L418.297 461.61" stroke="#2E353A" stroke-width="0.567964" stroke-linecap="round" stroke-linejoin="round"/>
<path d="M277.647 495.519L404.589 448.636" stroke="#2E353A" stroke-width="0.567964" stroke-linecap="round" stroke-linejoin="round"/>
<path d="M385.557 437.615L390.881 435.65" stroke="#2E353A" stroke-width="0.567964" stroke-linecap="round" stroke-linejoin="round"/>
<path d="M263.939 482.533L377.944 440.426" stroke="#2E353A" stroke-width="0.567964" stroke-linecap="round" stroke-linejoin="round"/>
<path d="M250.231 469.546L377.185 422.663" stroke="#2E353A" stroke-width="0.567964" stroke-linecap="round" stroke-linejoin="round"/>
<path d="M236.523 456.572L363.478 409.689" stroke="#2E353A" stroke-width="0.567964" stroke-linecap="round" stroke-linejoin="round"/>
<path d="M222.828 443.586L349.77 396.702" stroke="#2E353A" stroke-width="0.567964" stroke-linecap="round" stroke-linejoin="round"/>
<path d="M209.12 430.599L336.062 383.716" stroke="#2E353A" stroke-width="0.567964" stroke-linecap="round" stroke-linejoin="round"/>
<path d="M317.863 372.396L322.366 370.729" stroke="#2E353A" stroke-width="0.567964" stroke-linecap="round" stroke-linejoin="round"/>
<path d="M195.412 417.613L313.957 373.839" stroke="#2E353A" stroke-width="0.567964" stroke-linecap="round" stroke-linejoin="round"/>
<path d="M219.606 390.632L308.658 357.755" stroke="#2E353A" stroke-width="0.567964" stroke-linecap="round" stroke-linejoin="round"/>
<path d="M181.716 404.639L206.234 395.583" stroke="#2E353A" stroke-width="0.567964" stroke-linecap="round" stroke-linejoin="round"/>
<g style="mix-blend-mode:multiply">
<path d="M225.751 438.212C238.601 439.891 237.469 417.899 234.21 410.522C231.832 413.247 230.06 416.446 229.012 419.907C227.963 423.368 227.661 427.013 228.127 430.599C228.262 432.274 228.847 433.881 229.819 435.251C230.311 435.93 230.993 436.447 231.778 436.74C232.564 437.032 233.419 437.085 234.234 436.893C235.404 436.398 236.394 435.555 237.071 434.48C239.434 431.346 241.001 427.465 243.489 424.591C246.935 426.917 259.175 430.898 257.409 422.34C256.438 417.613 258.789 418.148 261.315 420.461C262.359 421.407 264.001 420.897 265.295 420.324L277.734 414.851C279.317 414.044 281.032 413.526 282.797 413.321C288.768 413.023 292.674 418.571 298.533 414.652C301.02 413.01 301.593 408.557 304.752 406.865C307.004 405.621 309.653 405.547 312.216 405.198C321.023 404.029 325.526 399.377 333.661 395.172" stroke="#92E3A9" stroke-width="1.13593" stroke-linecap="round" stroke-linejoin="round"/>
</g>
<g style="mix-blend-mode:multiply">
<path d="M235.727 451.957C240.541 452.778 244.659 448.387 248.913 446.982C254.349 445.165 256.712 442.951 261.937 440.7C268.84 437.739 276.951 436.371 275.508 425.935C274.525 429.666 274.413 433.771 273.654 437.677C279.252 440.451 280.757 435.687 281.329 431.458C283.208 431.41 285.065 431.035 286.815 430.35C286.815 431.134 287.064 432.017 287.051 432.764C289.738 433.846 290.783 433.112 291.343 430.736C294.316 430.176 295.373 427.39 297.886 426.706C298.52 433.684 300.299 439.792 299.889 446.932C295.124 448.176 294.378 439.953 295.585 436.545C296.829 432.938 300.411 431.01 301.73 427.241C302.003 427.701 301.792 428.236 301.941 428.733C307.937 425.151 315.624 426.121 321.57 421.929C323.436 420.611 324.767 417.973 326.745 417.053C331.049 415.063 332.33 417.401 335.539 412.712" stroke="#92E3A9" stroke-width="1.13593" stroke-linecap="round" stroke-linejoin="round"/>
</g>
<g style="mix-blend-mode:multiply">
<path d="M279.065 492.944C287.711 490.457 291.505 468.974 289.017 461.088C286.106 451.547 282.101 462.008 281.168 467.133C280.421 471.238 279.227 482.06 283.058 485.182C291.554 492.074 296.742 477.905 297.786 471.499C298.16 475.505 295.746 480.443 296.729 484.759C303.608 485.568 307.016 479.846 306.581 473.937C307.435 474.755 308.014 475.818 308.237 476.979C308.46 478.141 308.316 479.342 307.825 480.418C314.393 479.958 313.311 468.875 314.044 464.409C313.671 467.531 313.957 471.188 316.06 473.713C317.813 475.803 321.16 476.724 323.361 475.107C325.563 473.489 325.128 469.235 322.453 468.676V495.606C322.538 496.385 322.381 497.171 322.005 497.858C321.122 499.102 318.958 498.841 317.95 497.646C317.063 496.344 316.646 494.777 316.769 493.206C316.644 484.386 319.368 472.308 326.197 466.287C326.548 467.145 326.664 468.081 326.533 468.999C327.187 468.744 327.778 468.351 328.265 467.846C328.753 467.342 329.125 466.738 329.357 466.076C329.805 468.054 330.974 470.541 332.977 470.193C333.641 470.019 334.25 469.676 334.743 469.198C338.027 466.486 341.585 464.695 343.786 460.839C344.097 461.809 344.421 462.779 344.744 463.762C345.267 461.884 347.058 460.652 348.812 459.806C351.488 458.549 354.381 457.818 357.333 457.654C359.821 457.53 362.532 457.791 364.796 456.721C365.799 456.186 366.76 455.575 367.67 454.893C370.247 453.194 373.232 452.215 376.315 452.057" stroke="#92E3A9" stroke-width="1.13593" stroke-linecap="round" stroke-linejoin="round"/>
</g>
<path d="M176.579 256.712C176.579 256.712 196.42 231.709 203.137 222.765C209.854 213.822 214.718 206.943 214.718 206.943C214.718 206.943 218.3 209.766 217.205 212.976C216.111 216.185 192.514 248.415 187.264 256.6C182.015 264.785 182.749 275.147 183.134 278.717C183.52 282.287 173.108 270.619 176.579 256.712Z" fill="white" stroke="#2E353A" stroke-width="1.27267" stroke-linecap="round" stroke-linejoin="round"/>
<path d="M214.717 206.943C214.717 206.943 227.069 189.764 236.237 175.459C245.405 161.154 258.789 139.672 261.974 136.811C265.158 133.95 265.929 141.413 264.897 146.414C263.865 151.414 252.906 165.371 245.504 176.815C238.103 188.259 233.525 196.494 227.157 204.007C220.788 211.52 221.161 211.881 217.205 212.976C213.25 214.07 214.021 210.152 214.717 206.943Z" fill="#2E353A" stroke="#2E353A" stroke-width="1.27267" stroke-linecap="round" stroke-linejoin="round"/>
<path d="M172.312 259.225C173.681 249.957 176.778 232.841 183.856 227.455C190.934 222.069 212.354 226.211 214.133 226.534C215.912 226.858 244.099 233.102 252.694 238.389C261.29 243.676 267.062 258.951 269.263 267.795C271.465 276.639 276.192 291.616 276.901 292.673C276.901 292.673 284.053 295.821 287.972 295.447C291.89 295.074 297.102 276.863 308.074 266.103C319.045 255.344 324.742 253.876 336.858 254.908C348.974 255.941 394.999 268.417 399.663 273.007C404.328 277.597 407.239 287.934 406.231 295.398C405.224 302.861 406.691 311.071 406.691 312.489C406.691 313.907 411.008 318.522 409.963 322.44C408.918 326.359 408.271 334.88 405.074 336.012C401.877 337.144 378.355 336.546 360.89 334.171C343.426 331.795 319.132 321.259 303.048 313.895C286.964 306.531 279.115 303.359 267.36 303.446C255.605 303.533 232.817 304.03 211.769 299.179C190.722 294.328 176.417 285.496 172.462 281.627C168.506 277.759 170.957 268.504 172.312 259.225ZM298.346 302.911C304.105 311.432 327.317 319.828 339.806 323.299C352.295 326.769 382.248 332.989 390.06 328.672C397.872 324.356 401.977 298.669 401.255 289.763C400.534 280.856 396.889 275.905 396.889 275.905C381.502 266.39 333.35 256.376 323.399 260.369C313.447 264.362 303.931 277.236 300.436 287.586C296.941 297.935 298.346 302.911 298.346 302.911ZM197.8 288.27C213.175 297.425 237.419 300.112 247.035 300.411C256.65 300.709 265.88 295.659 266.166 284.613C266.452 273.567 260.631 255.082 258.454 249.783C256.277 244.484 249.137 241.3 249.137 241.3C239.496 236.735 199.529 226.671 192.762 227.791C185.995 228.91 180.074 239.185 178.694 254.199C177.313 269.213 182.425 279.115 197.8 288.27Z" fill="#2E353A" stroke="#2E353A" stroke-width="1.27267" stroke-linecap="round" stroke-linejoin="round"/>
<path d="M405.621 312.178C405.621 312.178 409.577 318.211 412.401 313.92C415.224 309.628 451.646 268.778 451.646 268.778C451.646 268.778 453.064 268.405 452.729 271.266C452.393 274.127 414.267 325.314 412.849 327.814C411.43 330.314 405.385 331.073 403.967 330.016C402.549 328.958 405.621 312.178 405.621 312.178Z" fill="white" stroke="#2E353A" stroke-width="1.27267" stroke-linecap="round" stroke-linejoin="round"/>
<path d="M449.159 270.208C451.24 266.503 453.117 262.687 454.781 258.777C458.637 250.206 461.001 233.451 461.623 215.986C462.245 198.521 462.867 188.197 466.088 191.381C469.31 194.566 466.549 211.694 465.952 225.216C465.354 238.737 461.15 252.321 460.13 259.461C459.359 264.847 455.229 273.38 452.38 273.393C449.532 273.405 449.893 272.696 449.159 270.208Z" fill="#2E353A" stroke="#2E353A" stroke-width="1.27267" stroke-linecap="round" stroke-linejoin="round"/>
<path d="M214.133 493.491L229.794 511.217L206.508 505.968L40.8179 404.601L48.4555 392.125L214.133 493.491Z" fill="white" stroke="#2E353A" stroke-width="1.4364" stroke-linecap="round" stroke-linejoin="round"/>
<g style="mix-blend-mode:multiply" opacity="0.5">
<path d="M214.133 493.491L229.794 511.217L206.508 505.968L40.8179 404.601L48.4555 392.125L214.133 493.491Z" fill="#92E3A9"/>
<path d="M214.133 493.491L229.794 511.217L206.508 505.968L40.8179 404.601L48.4555 392.125L214.133 493.491Z" stroke="#2E353A" stroke-width="1.4364" stroke-linecap="round" stroke-linejoin="round"/>
</g>
<path d="M46.7211 394.965L42.5597 401.766L208.245 503.139L212.407 496.338L46.7211 394.965Z" stroke="#2E353A" stroke-width="0.718198" stroke-linecap="round" stroke-linejoin="round"/>
<path d="M214.17 493.529L206.545 505.98L229.794 511.217L214.17 493.529Z" fill="white" stroke="#2E353A" stroke-width="1.4364" stroke-linecap="round" stroke-linejoin="round"/>
<path d="M218.163 508.593L229.794 511.217L221.982 502.373L218.163 508.593Z" fill="#92E3A9" stroke="#2E353A" stroke-width="1.4364" stroke-linecap="round" stroke-linejoin="round"/>
<path d="M26.0899 387.012C25.5875 387.83 25.2513 388.74 25.1007 389.688C24.9501 390.636 24.9879 391.605 25.212 392.538C25.4362 393.472 25.8423 394.352 26.407 395.128C26.9717 395.905 27.684 396.562 28.5032 397.063L40.8179 404.601L48.4556 392.162L36.1408 384.624C34.4906 383.61 32.5058 383.292 30.6216 383.74C28.7375 384.188 27.1078 385.365 26.0899 387.012Z" fill="white" stroke="#2E353A" stroke-width="1.4364" stroke-linecap="round" stroke-linejoin="round"/>
<path d="M26.0899 387.012C25.5875 387.83 25.2513 388.74 25.1007 389.688C24.9501 390.636 24.9879 391.605 25.212 392.538C25.4362 393.472 25.8423 394.352 26.407 395.128C26.9717 395.905 27.684 396.562 28.5032 397.063L34.3993 400.67L42.037 388.231L36.1408 384.624C34.4906 383.61 32.5058 383.292 30.6216 383.74C28.7375 384.188 27.1078 385.365 26.0899 387.012Z" fill="#2E353A" stroke="#2E353A" stroke-width="1.4364" stroke-linecap="round" stroke-linejoin="round"/>
<path d="M360.443 327.615L356.076 324.543C355.401 324.069 354.628 323.753 353.813 323.62C352.999 323.486 352.166 323.538 351.374 323.771C346.759 325.115 338.052 328.536 335.564 331.235C332.33 334.569 331.31 340.602 332.865 343.438C334.42 346.274 340.801 349.894 340.801 349.894L367.533 333.623L360.443 327.615Z" fill="white" stroke="#2E353A" stroke-width="0.9473" stroke-miterlimit="10"/>
<g style="mix-blend-mode:multiply" opacity="0.5">
<path d="M360.443 327.615L356.076 324.543C355.401 324.069 354.628 323.753 353.813 323.62C352.999 323.486 352.166 323.538 351.374 323.771C346.759 325.115 338.052 328.536 335.564 331.235C332.33 334.569 331.31 340.602 332.865 343.438C334.42 346.274 340.801 349.894 340.801 349.894L367.533 333.623L360.443 327.615Z" fill="#92E3A9"/>
<path d="M360.443 327.615L356.076 324.543C355.401 324.069 354.628 323.753 353.813 323.62C352.999 323.486 352.166 323.538 351.374 323.771C346.759 325.115 338.052 328.536 335.564 331.235C332.33 334.569 331.31 340.602 332.865 343.438C334.42 346.274 340.801 349.894 340.801 349.894L367.533 333.623L360.443 327.615Z" stroke="#2E353A" stroke-width="0.9473" stroke-miterlimit="10"/>
</g>
<path d="M363.167 326.359L342.02 336.024C342.02 336.024 334.868 340.067 337.132 352.444L460.964 443.623C460.964 443.623 465.268 446.757 473.042 444.108C480.816 441.458 488.778 432.291 490.457 424.541C492.136 416.792 486.725 414.353 485.718 413.495C484.71 412.637 367.346 327.279 367.346 327.279C366.106 326.488 364.625 326.161 363.167 326.359Z" fill="white" stroke="#2E353A" stroke-width="0.9473" stroke-miterlimit="10"/>
<g style="mix-blend-mode:multiply" opacity="0.5">
<path d="M363.167 326.359L342.02 336.024C342.02 336.024 334.868 340.067 337.132 352.444L460.964 443.623C460.964 443.623 465.268 446.757 473.042 444.108C480.816 441.458 488.778 432.291 490.457 424.541C492.136 416.792 486.725 414.353 485.718 413.495C484.71 412.637 367.346 327.279 367.346 327.279C366.106 326.488 364.625 326.161 363.167 326.359Z" fill="#92E3A9"/>
<path d="M363.167 326.359L342.02 336.024C342.02 336.024 334.868 340.067 337.132 352.444L460.964 443.623C460.964 443.623 465.268 446.757 473.042 444.108C480.816 441.458 488.778 432.291 490.457 424.541C492.136 416.792 486.725 414.353 485.718 413.495C484.71 412.637 367.346 327.279 367.346 327.279C366.106 326.488 364.625 326.161 363.167 326.359Z" stroke="#2E353A" stroke-width="0.9473" stroke-miterlimit="10"/>
</g>
<path d="M482.123 437.677C474.323 444.954 464.882 447.516 460.976 443.387C457.07 439.257 460.292 429.99 468.091 422.7C475.891 415.411 485.332 412.861 489.238 416.991C493.144 421.12 489.91 430.388 482.123 437.677Z" fill="white" stroke="#2E353A" stroke-width="0.9473" stroke-miterlimit="10"/>
<g style="mix-blend-mode:multiply">
<path d="M482.123 437.677C474.323 444.954 464.882 447.516 460.976 443.387C457.07 439.257 460.292 429.99 468.091 422.7C475.891 415.411 485.332 412.861 489.238 416.991C493.144 421.12 489.91 430.388 482.123 437.677Z" fill="#92E3A9"/>
<path d="M482.123 437.677C474.323 444.954 464.882 447.516 460.976 443.387C457.07 439.257 460.292 429.99 468.091 422.7C475.891 415.411 485.332 412.861 489.238 416.991C493.144 421.12 489.91 430.388 482.123 437.677Z" stroke="#2E353A" stroke-width="0.9473" stroke-miterlimit="10"/>
</g>
<path d="M367.334 327.279C366.097 326.491 364.621 326.165 363.167 326.359L342.02 336.024C342.02 336.024 334.868 340.067 337.132 352.444L422.763 415.498C422.153 412.587 422.265 408.333 425.537 403.283C428.572 398.568 442.205 390.968 449.569 387.112C414.715 361.748 367.334 327.279 367.334 327.279Z" fill="#2E353A" stroke="#2E353A" stroke-width="1.27267" stroke-linecap="round" stroke-linejoin="round"/>
<path d="M465.591 422.476L420.362 389.699C419.685 389.209 419.143 388.557 418.784 387.802C418.426 387.047 418.263 386.214 418.312 385.38C418.36 384.546 418.618 383.738 419.061 383.029C419.504 382.321 420.118 381.736 420.847 381.327L427.85 377.509C428.672 377.064 429.603 376.859 430.536 376.918C431.468 376.978 432.366 377.299 433.125 377.844L480.941 412.475" fill="white"/>
<path d="M465.591 422.476L420.362 389.699C419.685 389.209 419.143 388.557 418.784 387.802C418.426 387.047 418.263 386.214 418.312 385.38C418.36 384.546 418.618 383.738 419.061 383.029C419.504 382.321 420.118 381.736 420.847 381.327L427.85 377.509C428.672 377.064 429.603 376.859 430.536 376.918C431.468 376.978 432.366 377.299 433.125 377.844L480.941 412.475" stroke="#2E353A" stroke-width="0.9473" stroke-miterlimit="10"/>
<g style="mix-blend-mode:multiply" opacity="0.5">
<path d="M465.591 422.476L420.362 389.699C419.685 389.209 419.143 388.557 418.784 387.802C418.426 387.047 418.263 386.214 418.312 385.38C418.36 384.546 418.618 383.738 419.061 383.029C419.504 382.321 420.118 381.736 420.847 381.327L427.85 377.509C428.672 377.064 429.603 376.859 430.536 376.918C431.468 376.978 432.366 377.299 433.125 377.844L480.941 412.475" fill="#92E3A9"/>
<path d="M465.591 422.476L420.362 389.699C419.685 389.209 419.143 388.557 418.784 387.802C418.426 387.047 418.263 386.214 418.312 385.38C418.36 384.546 418.618 383.738 419.061 383.029C419.504 382.321 420.118 381.736 420.847 381.327L427.85 377.509C428.672 377.064 429.603 376.859 430.536 376.918C431.468 376.978 432.366 377.299 433.125 377.844L480.941 412.475" stroke="#2E353A" stroke-width="0.9473" stroke-miterlimit="10"/>
</g>
</svg>
