<svg width="280" height="282" viewBox="0 0 280 282" fill="none" xmlns="http://www.w3.org/2000/svg">
<path d="M227.973 244.717C227.973 244.717 201.208 196.744 207.387 184.508C213.566 172.273 229.343 194.272 229.343 194.272C229.343 194.272 215.621 149.528 223.171 129.981C230.72 110.433 243.757 129.981 244.442 143.815C245.127 157.649 241.695 181.241 241.695 181.241C241.695 181.241 247.189 132.452 260.226 147.07C273.263 161.687 243.757 210.527 243.757 210.527C243.757 210.527 263.658 199.138 262.967 213.781C262.275 228.424 238.955 241.443 238.955 241.443" fill="#92E3A9"/>
<path d="M228.199 235.768C228.199 235.768 203.433 212.17 215.502 201.597C227.571 191.024 233.92 212.985 233.92 212.985C233.92 212.985 220.581 145.458 242.173 143.013C263.765 140.567 247.887 201.591 247.887 201.591C247.887 201.591 266.305 175.559 265.035 196.744C263.765 217.928 236.459 235.8 236.459 235.8" stroke="#263238" stroke-miterlimit="10"/>
<path d="M240.363 231.473L223.63 212.953" stroke="#263238" stroke-miterlimit="10"/>
<path d="M236.88 232.899L241.412 178.763" stroke="#263238" stroke-miterlimit="10"/>
<path d="M236.182 228.976L251.174 208.678" stroke="#263238" stroke-miterlimit="10"/>
<path d="M257.869 225.202H211.573L216.206 280.968H253.236L257.869 225.202Z" fill="#263238"/>
<path d="M81.1347 160.531C75.1154 157.515 68.8934 154.941 62.5159 152.828C53.3259 149.939 42.4827 152.584 42.2439 155.71C42.005 158.837 43.6394 157.405 45.7828 160.795C47.9263 164.184 46.9583 172.106 50.0258 179.328C53.0933 186.55 62.277 190.157 62.277 190.157L81.1347 160.531Z" fill="#92E3A9" stroke="#263238" stroke-linecap="round" stroke-linejoin="round"/>
<path opacity="0.3" d="M75.0059 167.516C75.0059 167.516 60.8627 158.368 52.6156 155.235C44.3685 152.103 43.8971 156.68 43.8971 156.68C45.2539 157.188 46.4182 158.122 47.2233 159.348C48.0284 160.574 48.4329 162.029 48.3789 163.504C48.3789 168.909 51.0253 180.104 57.4557 182.416C63.8862 184.727 75.0059 167.516 75.0059 167.516Z" fill="black"/>
<path d="M175.923 177.737C179.62 176.303 181.394 171.855 179.886 167.801C178.379 163.748 174.16 161.624 170.463 163.058C166.767 164.492 164.993 168.941 166.5 172.994C168.008 177.048 172.227 179.171 175.923 177.737Z" fill="#92E3A9" stroke="#263238" stroke-linecap="round" stroke-linejoin="round"/>
<path d="M74.5848 254.404L82.5176 278.708C82.7327 279.367 83.1454 279.939 83.6971 280.345C84.2489 280.751 84.9116 280.969 85.5914 280.968H97.9557C98.5883 280.969 99.2072 280.78 99.7357 280.425C100.264 280.07 100.679 279.565 100.929 278.971L106.461 265.863" fill="#92E3A9"/>
<path opacity="0.3" d="M78.5638 254.404L85.1262 278.708C85.2504 279.318 85.5674 279.87 86.0285 280.278C86.4896 280.687 87.0692 280.929 87.6783 280.968H97.9306C98.4936 280.938 99.0337 280.73 99.4754 280.372C99.9171 280.014 100.238 279.525 100.395 278.971L104.983 265.863" fill="black"/>
<path d="M74.5848 254.404L82.5176 278.708C82.7327 279.367 83.1454 279.939 83.6971 280.345C84.2489 280.751 84.9116 280.969 85.5914 280.968H97.9557C98.5883 280.969 99.2072 280.78 99.7357 280.425C100.264 280.07 100.679 279.565 100.929 278.971L106.461 265.863" stroke="#263238" stroke-linecap="round" stroke-linejoin="round"/>
<path d="M134.25 254.404L126.324 278.708C126.109 279.367 125.696 279.939 125.144 280.345C124.593 280.751 123.93 280.969 123.25 280.968H110.898C110.266 280.969 109.647 280.78 109.118 280.425C108.59 280.07 108.175 279.565 107.925 278.971L102.394 265.863" fill="#263238"/>
<path d="M134.25 254.404L126.324 278.708C126.109 279.367 125.696 279.939 125.144 280.345C124.593 280.751 123.93 280.969 123.25 280.968H110.898C110.266 280.969 109.647 280.78 109.118 280.425C108.59 280.07 108.175 279.565 107.925 278.971L102.394 265.863" stroke="#263238" stroke-linecap="round" stroke-linejoin="round"/>
<path d="M160.519 254.404L152.586 278.708C152.371 279.367 151.959 279.939 151.407 280.345C150.855 280.751 150.192 280.969 149.513 280.968H137.148C136.516 280.969 135.897 280.78 135.368 280.425C134.84 280.07 134.425 279.565 134.175 278.971L128.643 265.863" fill="#92E3A9"/>
<path opacity="0.3" d="M154.9 254.404L149.475 278.708C149.173 280.056 148.331 280.968 147.375 280.968H138.921C138.041 280.968 137.243 280.185 136.891 278.971L131.636 266.132" fill="black"/>
<path d="M160.519 254.404L152.586 278.708C152.371 279.367 151.959 279.939 151.407 280.345C150.855 280.751 150.192 280.969 149.513 280.968H137.148C136.516 280.969 135.897 280.78 135.368 280.425C134.84 280.07 134.425 279.565 134.175 278.971L128.643 265.863" stroke="#263238" stroke-linecap="round" stroke-linejoin="round"/>
<path d="M118.127 270.395C155.679 270.395 186.122 242.2 186.122 207.42C186.122 172.639 155.679 144.444 118.127 144.444C80.5748 144.444 50.1327 172.639 50.1327 207.42C50.1327 242.2 80.5748 270.395 118.127 270.395Z" fill="#92E3A9"/>
<path opacity="0.3" d="M164.957 164.389C168.944 172.465 171.022 181.383 171.023 190.427C171.023 225.208 140.58 253.402 103.028 253.402C89.054 253.475 75.3568 249.422 63.5845 241.732C75.4397 257.98 95.5105 268.694 118.272 268.694C154.73 268.694 184.274 241.34 184.274 207.593C184.236 190.703 176.856 175.444 164.957 164.389Z" fill="black"/>
<path d="M118.127 270.395C155.679 270.395 186.122 242.2 186.122 207.42C186.122 172.639 155.679 144.444 118.127 144.444C80.5748 144.444 50.1327 172.639 50.1327 207.42C50.1327 242.2 80.5748 270.395 118.127 270.395Z" stroke="#263238" stroke-linecap="round" stroke-linejoin="round"/>
<path d="M180.401 213.069C178.918 225.754 173.192 237.264 164.567 246.354" stroke="#92E3A9" stroke-width="2" stroke-linecap="round" stroke-linejoin="round"/>
<path d="M179.276 193.534C180.279 197.783 180.786 202.138 180.785 206.508" stroke="#92E3A9" stroke-width="2" stroke-linecap="round" stroke-linejoin="round"/>
<path d="M101.268 148.373C106.871 147.035 112.606 146.363 118.36 146.37C122.043 146.369 125.722 146.644 129.366 147.192" stroke="#263238" stroke-width="4" stroke-linecap="round" stroke-linejoin="round"/>
<path d="M131.466 192.334C131.466 192.334 138.066 187.757 138.305 179.334C138.544 170.912 127.694 158.638 118.976 153.579C110.257 148.52 103.89 149.49 103.657 153.098C103.424 156.705 100.357 160.801 99.1815 167.779C98.006 174.757 97.5283 185.112 106.725 188.482" fill="#92E3A9"/>
<path d="M131.466 192.334C131.466 192.334 138.066 187.757 138.305 179.334C138.544 170.912 127.694 158.638 118.976 153.579C110.257 148.52 103.89 149.49 103.657 153.098C103.424 156.705 100.357 160.801 99.1815 167.779C98.006 174.757 97.5283 185.112 106.725 188.482" stroke="#263238" stroke-linecap="round" stroke-linejoin="round"/>
<path opacity="0.3" d="M117.266 189.631L118.617 189.836C124.413 190.69 126.45 186.826 126.28 181.022C126.047 172.838 115.443 155.505 110.961 153.098C106.479 150.69 105.071 154.06 105.071 154.06C105.071 154.06 105.7 154.491 103.494 161.969C102.475 165.423 98.6849 177.466 102.438 182.807C105.757 187.525 111.923 188.816 117.266 189.631Z" fill="black"/>
<path opacity="0.3" d="M136.042 181.337H135.954C135.872 181.326 135.792 181.298 135.721 181.256C135.649 181.213 135.586 181.157 135.536 181.089C135.485 181.022 135.449 180.945 135.428 180.863C135.407 180.781 135.402 180.696 135.413 180.612C135.481 180.118 135.521 179.621 135.533 179.122C135.659 174.629 132.069 168.177 126.167 162.226C126.108 162.167 126.061 162.096 126.029 162.018C125.996 161.94 125.979 161.856 125.979 161.772C125.978 161.687 125.994 161.603 126.025 161.525C126.056 161.446 126.102 161.375 126.161 161.315C126.219 161.254 126.288 161.206 126.364 161.173C126.441 161.14 126.523 161.123 126.606 161.123C126.688 161.122 126.771 161.138 126.847 161.17C126.924 161.202 126.994 161.249 127.053 161.308C133.289 167.599 136.928 174.269 136.79 179.154C136.776 179.7 136.734 180.244 136.664 180.785C136.643 180.938 136.568 181.078 136.454 181.18C136.34 181.281 136.193 181.337 136.042 181.337Z" fill="black"/>
<path opacity="0.3" d="M132.66 189.079C132.541 189.079 132.425 189.045 132.324 188.981C132.223 188.916 132.142 188.824 132.091 188.714C132.04 188.605 132.02 188.482 132.034 188.362C132.048 188.241 132.095 188.127 132.17 188.033C133.206 186.736 134.033 185.28 134.621 183.719C134.681 183.559 134.799 183.431 134.951 183.361C135.103 183.291 135.276 183.286 135.432 183.346C135.588 183.407 135.714 183.528 135.782 183.683C135.851 183.839 135.856 184.015 135.797 184.174C135.162 185.865 134.266 187.44 133.144 188.841C133.086 188.915 133.012 188.975 132.928 189.016C132.845 189.057 132.753 189.078 132.66 189.079Z" fill="black"/>
<path opacity="0.3" d="M86.8848 219.604C88.7438 211.995 82.264 203.792 72.4116 201.281C62.5592 198.77 53.0652 202.904 51.2062 210.513C49.3471 218.122 55.827 226.326 65.6793 228.836C75.5317 231.347 85.0257 227.213 86.8848 219.604Z" fill="black"/>
<path d="M86.0001 218.223C87.8592 210.613 81.3793 202.41 71.5269 199.899C61.6746 197.389 52.1806 201.522 50.3215 209.131C48.4624 216.74 54.9423 224.944 64.7947 227.454C74.647 229.965 84.141 225.832 86.0001 218.223Z" fill="#92E3A9" stroke="#263238" stroke-linecap="round" stroke-linejoin="round"/>
<path d="M62.6102 211.38C62.7233 213.101 62.0759 214.552 61.1707 214.59C60.2655 214.629 59.4295 213.306 59.2849 211.586C59.1404 209.865 59.8192 208.408 60.7307 208.376C61.6421 208.344 62.497 209.653 62.6102 211.38Z" stroke="#263238" stroke-linecap="round" stroke-linejoin="round"/>
<path d="M75.0688 214.571C75.1819 216.298 74.5345 217.742 73.6293 217.781C72.7242 217.819 71.8881 216.497 71.7436 214.77C71.599 213.043 72.2779 211.599 73.1893 211.56C74.1008 211.522 74.9368 212.844 75.0688 214.571Z" stroke="#263238" stroke-linecap="round" stroke-linejoin="round"/>
<path d="M95.63 219.032C95.4973 220.268 95.2143 221.482 94.7876 222.647C91.1795 232.603 78.1175 236.911 65.2125 232.623" stroke="#263238" stroke-width="3" stroke-linecap="round" stroke-linejoin="round"/>
<path d="M93.5242 218.089H97.5283" stroke="#263238" stroke-width="3" stroke-linecap="round" stroke-linejoin="round"/>
<path d="M68.016 191.435C67.576 193.303 66.4508 194.645 65.5017 194.401C64.5525 194.157 64.1376 192.475 64.5839 190.588C65.0302 188.7 66.1491 187.378 67.0983 187.615C68.0474 187.853 68.4623 189.56 68.016 191.435Z" fill="#263238" stroke="#263238" stroke-linecap="round" stroke-linejoin="round"/>
<path d="M79.6086 194.016C80.0511 192.141 79.641 190.432 78.6927 190.198C77.7443 189.965 76.6168 191.296 76.1743 193.171C75.7318 195.046 76.1419 196.755 77.0903 196.988C78.0387 197.222 79.1662 195.891 79.6086 194.016Z" fill="#263238" stroke="#263238" stroke-linecap="round" stroke-linejoin="round"/>
<path d="M96.9185 262.223L103.833 278.978C104.081 279.577 104.497 280.088 105.028 280.448C105.559 280.808 106.182 281 106.819 281H119.391C120.022 280.999 120.639 280.81 121.167 280.457C121.695 280.104 122.111 279.601 122.364 279.01L129.907 261.209H129.58" fill="#92E3A9"/>
<path opacity="0.3" d="M111.527 260.085C107.542 260.085 102.903 260.618 99.15 259.732L105.612 278.946C105.766 279.504 106.087 279.999 106.53 280.361C106.973 280.724 107.515 280.936 108.082 280.968H118.441C119.001 280.936 119.538 280.728 119.977 280.371C120.416 280.015 120.736 279.528 120.893 278.978L127.147 259.379L124.633 259.732C116.656 260.618 116.864 260.085 111.527 260.085Z" fill="black"/>
<path d="M96.9185 262.223L103.833 278.978C104.081 279.577 104.497 280.088 105.028 280.448C105.559 280.808 106.182 281 106.819 281H119.391C120.022 280.999 120.639 280.81 121.167 280.457C121.695 280.104 122.111 279.601 122.364 279.01L129.907 261.209H129.58" stroke="#263238" stroke-linecap="round" stroke-linejoin="round"/>
<path d="M222.159 1.2311L187.391 52.3882C187.391 52.3882 184.418 59.6294 180.76 65.0026C177.101 70.3757 166.843 75.7488 166.843 75.7488C166.843 75.7488 165.931 85.7889 162.958 89.294C159.985 92.7991 153.58 90.6999 153.58 90.6999C153.58 90.6999 150.833 93.7363 147.859 95.1358C144.886 96.5352 135.74 91.3996 135.74 91.3996C135.74 91.3996 143.968 100.509 145.112 103.545C146.257 106.582 148.318 109.15 144.66 111.955C141.002 114.76 136.878 110.787 136.878 110.787C136.878 110.787 138.713 116.859 133.452 118.028C128.191 119.196 122.458 107.513 120.17 103.545C117.882 99.5781 111.25 84.6206 110.113 83.9209C108.975 83.2211 107.372 79.485 109.66 75.9799C111.948 72.4749 128.178 50.0515 130.007 48.4531C131.837 46.8546 166.843 38.3744 166.843 38.3744L180.112 1" fill="white"/>
<path opacity="0.2" d="M183.815 52.9467C183.815 52.9467 180.043 64.5019 175.957 66.7487C171.872 68.9955 148.614 75.094 139.499 73.8101C130.385 72.5262 125.356 68.9955 125.356 68.9955C125.356 68.9955 120.327 75.736 118.127 77.9828C116.595 79.4358 114.772 80.5311 112.784 81.1926C112.784 81.1926 123.722 109.252 131.585 117.938C132.196 118.131 132.845 118.162 133.471 118.028C138.732 116.859 136.897 110.787 136.897 110.787C136.897 110.787 141.014 114.754 144.679 111.955C148.343 109.156 146.275 106.582 145.131 103.545C143.987 100.509 135.728 91.3996 135.728 91.3996C135.728 91.3996 144.874 96.5352 147.847 95.1358C150.82 93.7363 153.567 90.6935 153.567 90.6935C153.567 90.6935 159.972 92.7991 162.946 89.294C165.919 85.789 166.83 75.7488 166.83 75.7488C166.83 75.7488 177.12 70.3757 180.785 65.0026C184.45 59.6294 187.417 52.3882 187.417 52.3882L201.742 31.313L183.815 52.9467Z" fill="black"/>
<path d="M222.159 1.2311L187.391 52.3882C187.391 52.3882 184.418 59.6294 180.76 65.0026C177.101 70.3757 166.843 75.7488 166.843 75.7488C166.843 75.7488 165.931 85.7889 162.958 89.294C159.985 92.7991 153.58 90.6999 153.58 90.6999C153.58 90.6999 150.833 93.7363 147.859 95.1358C144.886 96.5352 135.74 91.3996 135.74 91.3996C135.74 91.3996 143.968 100.509 145.112 103.545C146.257 106.582 148.318 109.15 144.66 111.955C141.002 114.76 136.878 110.787 136.878 110.787C136.878 110.787 138.713 116.859 133.452 118.028C128.191 119.196 122.458 107.513 120.17 103.545C117.882 99.5781 111.25 84.6206 110.113 83.9209C108.975 83.2211 107.372 79.485 109.66 75.9799C111.948 72.4749 128.178 50.0515 130.007 48.4531C131.837 46.8546 166.843 38.3744 166.843 38.3744L180.112 1" stroke="#263238" stroke-linecap="round" stroke-linejoin="round"/>
<path d="M103.248 137.646L104.16 141.151L118.341 137.646L131.61 102.139L122.917 99.103L103.248 137.646Z" fill="white" stroke="#263238" stroke-linecap="round" stroke-linejoin="round"/>
<path d="M107.592 90.4624L127.261 97.9411L117.656 142.319L94.5551 135.078L107.592 90.4624Z" fill="white" stroke="#263238" stroke-linecap="round" stroke-linejoin="round"/>
<path d="M95.3282 132.427L115.827 138.583L124.746 99.103L106.787 93.2099L95.3282 132.427Z" fill="#92E3A9" stroke="#263238" stroke-linecap="round" stroke-linejoin="round"/>
<path d="M106.706 102.974C105.814 102.733 104.881 102.689 103.971 102.846L98.6158 121.173C99.3909 121.945 100.345 122.503 101.388 122.797C105.587 123.979 110.188 120.493 111.659 115.017C113.13 109.541 110.898 104.149 106.706 102.974Z" fill="white" stroke="#263238" stroke-linecap="round" stroke-linejoin="round"/>
<path d="M105.945 106.01C105.918 105.998 105.896 105.977 105.882 105.95C105.869 105.923 105.864 105.892 105.87 105.863L106.109 104.913C106.123 104.873 106.129 104.83 106.125 104.787C106.121 104.745 106.107 104.704 106.085 104.667C106.064 104.631 106.034 104.6 105.999 104.577C105.964 104.554 105.924 104.539 105.882 104.534L104.883 104.29C104.844 104.274 104.801 104.267 104.759 104.271C104.717 104.274 104.676 104.288 104.64 104.31C104.604 104.333 104.574 104.363 104.552 104.4C104.529 104.437 104.516 104.478 104.512 104.521L104.317 105.503C104.31 105.533 104.292 105.558 104.268 105.576C104.244 105.594 104.215 105.602 104.185 105.6C103.844 105.564 103.501 105.564 103.16 105.6L101.331 111.871C102.758 113.386 104.983 114.144 104.688 115.415C104.518 116.134 103.877 116.699 102.752 116.442C102.517 116.41 102.291 116.327 102.09 116.197C101.889 116.068 101.718 115.896 101.588 115.693C101.458 115.491 101.372 115.262 101.337 115.022C101.301 114.782 101.316 114.538 101.382 114.304L101.438 114.048C101.47 113.906 101.388 113.791 101.193 113.746L100.81 113.65L99.7221 117.36C100.159 117.766 100.669 118.08 101.224 118.285C101.253 118.297 101.276 118.32 101.289 118.348C101.303 118.376 101.307 118.408 101.3 118.439L101.074 119.254C101.056 119.294 101.049 119.337 101.051 119.381C101.054 119.424 101.067 119.467 101.089 119.504C101.112 119.541 101.142 119.572 101.179 119.595C101.216 119.617 101.257 119.63 101.3 119.633L102.337 119.889C102.373 119.909 102.414 119.92 102.455 119.922C102.496 119.923 102.537 119.915 102.575 119.897C102.613 119.88 102.646 119.854 102.672 119.821C102.699 119.789 102.717 119.751 102.727 119.71L102.896 118.901C102.906 118.871 102.924 118.845 102.949 118.826C102.974 118.808 103.004 118.798 103.035 118.798C105.247 119.036 106.75 117.925 107.215 115.948C107.579 114.369 107.058 113.027 105.442 111.762C103.965 110.62 102.406 110.055 102.676 108.886C102.865 108.078 103.588 107.705 104.562 107.943C104.803 107.982 105.033 108.075 105.236 108.214C105.439 108.353 105.61 108.535 105.737 108.748C105.864 108.961 105.945 109.199 105.973 109.447C106.001 109.695 105.977 109.946 105.901 110.183L105.857 110.363C105.857 110.472 105.92 110.568 106.115 110.62L107.957 111.069C107.996 111.084 108.038 111.089 108.079 111.085C108.121 111.081 108.161 111.068 108.197 111.045C108.233 111.023 108.263 110.993 108.286 110.957C108.308 110.921 108.322 110.88 108.327 110.838L108.466 110.241C108.887 108.36 108.001 106.762 105.945 106.01Z" fill="#263238"/>
<path d="M123.828 67.1017C123.828 67.1017 126.575 71.3065 127.034 75.0491C127.424 78.239 126.694 81.4668 124.973 84.1584C123.602 86.2576 122.232 88.1256 121.088 91.3996C119.944 94.6735 119.718 99.3405 118.115 101.671C116.512 104.001 115.6 106.338 117.882 108.443C120.164 110.549 126.117 110.311 129.322 104.239C132.528 98.1658 134.584 91.6243 136.639 89.2876C138.695 86.9509 145.333 81.5842 145.333 81.5842C145.333 81.5842 163.398 79.0164 166.83 75.7488C170.262 72.4813 173.236 63.6031 173.236 63.6031" fill="white"/>
<path opacity="0.2" d="M171.872 66.7487C171.872 66.7487 162.128 73.1682 154.585 75.094C147.042 77.0199 142.328 77.0199 139.499 80.8716C136.671 84.7233 133.842 96.9204 130.07 99.1672C126.299 101.414 125.67 93.3896 120.327 94.9945L120.151 95.0587C119.63 97.5623 119.171 100.13 118.115 101.677C116.512 104.014 115.6 106.344 117.882 108.45C120.164 110.555 126.117 110.318 129.322 104.245C132.528 98.1722 134.584 91.6307 136.639 89.294C138.695 86.9573 145.333 81.5906 145.333 81.5906C145.333 81.5906 163.398 79.0228 166.83 75.7552C168.905 73.778 170.809 69.7594 171.991 66.8835L171.872 66.7487Z" fill="black"/>
<path d="M123.828 67.1017C123.828 67.1017 126.575 71.3065 127.034 75.0491C127.424 78.239 126.694 81.4668 124.973 84.1584C123.602 86.2576 122.232 88.1256 121.088 91.3996C119.944 94.6736 119.718 99.3405 118.115 101.671C116.512 104.001 115.6 106.338 117.882 108.443C120.164 110.549 126.117 110.311 129.322 104.239C132.528 98.1658 134.584 91.6243 136.639 89.2876C138.695 86.9509 145.333 81.5842 145.333 81.5842C145.333 81.5842 163.398 79.0164 166.83 75.7488C170.262 72.4813 173.236 63.6031 173.236 63.6031" stroke="#263238" stroke-linecap="round" stroke-linejoin="round"/>
<path d="M116.738 78.7853C116.738 78.7853 122.691 82.0528 127.034 78.3166" stroke="#263238" stroke-linecap="round" stroke-linejoin="round"/>
<path d="M136.865 110.787L131.61 100.509" stroke="#263238" stroke-linecap="round" stroke-linejoin="round"/>
<path d="M153.567 90.6999C153.567 90.6999 157.684 87.1948 157.452 79.485" stroke="#263238" stroke-linecap="round" stroke-linejoin="round"/>
<path d="M28.5533 280.968H277.474" stroke="#263238" stroke-linecap="round" stroke-linejoin="round"/>
<path d="M6.55262 280.968H17.8672" stroke="#263238" stroke-linecap="round" stroke-linejoin="round"/>
</svg>
