<svg width="629" height="603" viewBox="0 0 629 603" fill="none" xmlns="http://www.w3.org/2000/svg">
<path fill-rule="evenodd" clip-rule="evenodd" d="M410.678 32.4136C495.217 17.4334 585.767 -18.6908 663.031 11.9912C741.866 43.2973 781.232 117.306 795.894 185.386C809.417 248.175 776.617 309.778 739.365 366.422C707.048 415.561 654.117 450.699 598.768 485.12C540.564 521.317 482.731 556.291 410.678 570.83C319.611 589.207 204.413 628.618 135.578 578.587C64.5949 526.994 141.375 430.81 117.174 357.5C95.51 291.876 -23.0168 244.347 3.97494 179.937C30.9803 115.494 151.01 117.337 229.792 88.7609C290.142 66.8702 345.781 43.9134 410.678 32.4136Z" fill="#E8FFEE"/>
<path d="M515.385 443.535C515.385 443.535 472.37 368.04 482.3 348.785C492.231 329.53 517.587 364.151 517.587 364.151C517.587 364.151 495.534 293.737 507.667 262.976C519.8 232.214 540.752 262.976 541.853 284.746C542.954 306.517 537.439 343.643 537.439 343.643C537.439 343.643 546.268 266.865 567.22 289.868C588.172 312.871 540.752 389.73 540.752 389.73C540.752 389.73 572.736 371.808 571.625 394.852C570.514 417.895 533.034 438.382 533.034 438.382" fill="#92E3A9"/>
<path d="M515.749 429.452C515.749 429.452 475.946 392.316 495.342 375.677C514.739 359.039 524.942 393.599 524.942 393.599C524.942 393.599 503.505 287.333 538.206 283.484C572.908 279.635 547.389 375.667 547.389 375.667C547.389 375.667 576.989 334.702 574.949 368.04C572.908 401.378 529.023 429.502 529.023 429.502" stroke="#263238" stroke-miterlimit="10"/>
<path d="M535.297 422.694L508.405 393.548" stroke="#263238" stroke-miterlimit="10"/>
<path d="M529.7 424.936L536.984 339.743" stroke="#263238" stroke-miterlimit="10"/>
<path d="M528.579 418.764L552.673 386.82" stroke="#263238" stroke-miterlimit="10"/>
<path d="M563.432 412.824H489.028L496.474 500.582H555.987L563.432 412.824Z" fill="#263238"/>
<path d="M279.395 311.053C269.721 306.306 259.722 302.255 249.472 298.93C234.702 294.384 217.276 298.546 216.892 303.466C216.508 308.386 219.135 306.133 222.58 311.467C226.025 316.801 224.469 329.267 229.399 340.632C234.329 351.997 249.088 357.675 249.088 357.675L279.395 311.053Z" fill="#92E3A9" stroke="#263238" stroke-linecap="round" stroke-linejoin="round"/>
<path opacity="0.3" d="M269.545 322.044C269.545 322.044 246.815 307.648 233.561 302.718C220.306 297.788 219.549 304.991 219.549 304.991C221.729 305.792 223.601 307.262 224.895 309.191C226.188 311.12 226.839 313.409 226.752 315.73C226.752 324.236 231.005 341.855 241.34 345.492C251.674 349.128 269.545 322.044 269.545 322.044Z" fill="black"/>
<path d="M431.734 338.129C437.675 335.873 440.526 328.872 438.103 322.493C435.68 316.114 428.9 312.773 422.959 315.029C417.018 317.286 414.167 324.287 416.59 330.665C419.013 337.044 425.793 340.386 431.734 338.129Z" fill="#92E3A9" stroke="#263238" stroke-linecap="round" stroke-linejoin="round"/>
<path d="M268.869 458.779L281.618 497.026C281.964 498.063 282.627 498.964 283.514 499.602C284.4 500.24 285.465 500.583 286.558 500.582H306.429C307.446 500.584 308.44 500.287 309.29 499.729C310.139 499.17 310.806 498.374 311.207 497.441L320.098 476.812" fill="#92E3A9"/>
<path opacity="0.3" d="M275.263 458.779L285.81 497.026C286.01 497.987 286.519 498.855 287.26 499.497C288.001 500.14 288.933 500.521 289.912 500.582H306.388C307.293 500.536 308.161 500.208 308.871 499.645C309.581 499.082 310.097 498.311 310.349 497.441L317.723 476.812" fill="black"/>
<path d="M268.869 458.779L281.618 497.026C281.964 498.063 282.627 498.964 283.514 499.602C284.4 500.24 285.465 500.583 286.558 500.582H306.429C307.446 500.584 308.44 500.287 309.29 499.729C310.139 499.17 310.806 498.374 311.207 497.441L320.098 476.812" stroke="#263238" stroke-linecap="round" stroke-linejoin="round"/>
<path d="M364.76 458.779L352.021 497.026C351.675 498.063 351.012 498.964 350.125 499.602C349.238 500.24 348.173 500.583 347.081 500.582H327.23C326.213 500.584 325.218 500.287 324.369 499.729C323.52 499.17 322.853 498.374 322.451 497.441L313.561 476.812" fill="#263238"/>
<path d="M364.76 458.779L352.021 497.026C351.675 498.063 351.012 498.964 350.125 499.602C349.238 500.24 348.173 500.583 347.081 500.582H327.23C326.213 500.584 325.218 500.287 324.369 499.729C323.52 499.17 322.853 498.374 322.451 497.441L313.561 476.812" stroke="#263238" stroke-linecap="round" stroke-linejoin="round"/>
<path d="M406.977 458.779L394.228 497.026C393.882 498.063 393.219 498.964 392.332 499.602C391.446 500.24 390.381 500.583 389.288 500.582H369.417C368.4 500.584 367.405 500.287 366.556 499.729C365.707 499.17 365.04 498.374 364.638 497.441L355.748 476.812" fill="#92E3A9"/>
<path opacity="0.3" d="M397.946 458.779L389.228 497.026C388.743 499.148 387.389 500.582 385.853 500.582H372.266C370.851 500.582 369.568 499.35 369.003 497.441L360.557 477.236" fill="black"/>
<path d="M406.977 458.779L394.228 497.026C393.882 498.063 393.219 498.964 392.332 499.602C391.446 500.24 390.381 500.583 389.288 500.582H369.417C368.4 500.584 367.405 500.287 366.556 499.729C365.707 499.17 365.04 498.374 364.638 497.441L355.748 476.812" stroke="#263238" stroke-linecap="round" stroke-linejoin="round"/>
<path d="M338.847 483.944C399.199 483.944 448.124 439.574 448.124 384.84C448.124 330.107 399.199 285.736 338.847 285.736C278.495 285.736 229.571 330.107 229.571 384.84C229.571 439.574 278.495 483.944 338.847 483.944Z" fill="#92E3A9"/>
<path opacity="0.3" d="M414.11 317.124C420.518 329.833 423.857 343.867 423.858 358.099C423.858 412.834 374.933 457.203 314.582 457.203C292.123 457.317 270.109 450.939 251.189 438.837C270.242 464.406 302.499 481.267 339.08 481.267C397.673 481.267 445.154 438.221 445.154 385.113C445.093 358.534 433.233 334.52 414.11 317.124Z" fill="black"/>
<path d="M338.847 483.944C399.199 483.944 448.124 439.574 448.124 384.84C448.124 330.107 399.199 285.736 338.847 285.736C278.495 285.736 229.571 330.107 229.571 384.84C229.571 439.574 278.495 483.944 338.847 483.944Z" stroke="#263238" stroke-linecap="round" stroke-linejoin="round"/>
<path d="M438.931 393.73C436.547 413.692 427.344 431.806 413.483 446.111" stroke="#92E3A9" stroke-width="2" stroke-linecap="round" stroke-linejoin="round"/>
<path d="M437.123 362.989C438.735 369.675 439.549 376.528 439.547 383.406" stroke="#92E3A9" stroke-width="2" stroke-linecap="round" stroke-linejoin="round"/>
<path d="M311.753 291.919C320.757 289.814 329.974 288.756 339.221 288.767C345.141 288.766 351.053 289.198 356.91 290.06" stroke="#263238" stroke-width="4" stroke-linecap="round" stroke-linejoin="round"/>
<path d="M360.284 361.1C360.284 361.1 370.892 353.897 371.276 340.642C371.66 327.388 354.223 308.073 340.211 300.112C326.199 292.151 315.965 293.677 315.592 299.354C315.218 305.032 310.288 311.477 308.399 322.458C306.51 333.439 305.742 349.735 320.522 355.038" fill="#92E3A9"/>
<path d="M360.284 361.1C360.284 361.1 370.892 353.897 371.276 340.642C371.66 327.388 354.223 308.073 340.211 300.112C326.199 292.151 315.965 293.677 315.592 299.354C315.218 305.032 310.288 311.477 308.399 322.458C306.51 333.439 305.742 349.735 320.522 355.038" stroke="#263238" stroke-linecap="round" stroke-linejoin="round"/>
<path opacity="0.3" d="M337.463 356.847L339.635 357.17C348.95 358.513 352.223 352.432 351.95 343.299C351.576 330.419 334.534 303.143 327.331 299.354C320.128 295.566 317.865 300.87 317.865 300.87C317.865 300.87 318.875 301.546 315.329 313.316C313.693 318.751 307.601 337.703 313.632 346.108C318.966 353.533 328.876 355.564 337.463 356.847Z" fill="black"/>
<path opacity="0.3" d="M367.639 343.794H367.498C367.365 343.777 367.238 343.734 367.122 343.667C367.007 343.6 366.906 343.511 366.825 343.405C366.745 343.298 366.686 343.177 366.652 343.048C366.618 342.919 366.61 342.785 366.629 342.653C366.738 341.876 366.802 341.093 366.821 340.309C367.023 333.237 361.254 323.085 351.768 313.72C351.673 313.626 351.598 313.515 351.546 313.392C351.494 313.27 351.467 313.138 351.466 313.005C351.465 312.871 351.49 312.739 351.541 312.616C351.591 312.492 351.665 312.38 351.758 312.285C351.852 312.19 351.963 312.115 352.086 312.063C352.208 312.011 352.34 311.984 352.473 311.983C352.607 311.982 352.739 312.007 352.862 312.058C352.985 312.108 353.098 312.182 353.193 312.275C363.214 322.175 369.063 332.672 368.841 340.36C368.819 341.218 368.752 342.074 368.639 342.926C368.605 343.167 368.485 343.387 368.301 343.547C368.118 343.706 367.882 343.794 367.639 343.794Z" fill="black"/>
<path opacity="0.3" d="M362.204 355.978C362.013 355.978 361.825 355.925 361.663 355.823C361.501 355.722 361.372 355.576 361.289 355.404C361.207 355.231 361.175 355.039 361.197 354.849C361.22 354.659 361.295 354.48 361.416 354.331C363.081 352.291 364.411 350 365.356 347.542C365.451 347.292 365.642 347.089 365.886 346.979C366.13 346.87 366.408 346.861 366.659 346.956C366.909 347.051 367.112 347.242 367.222 347.487C367.332 347.731 367.34 348.009 367.245 348.26C366.224 350.919 364.785 353.399 362.982 355.604C362.888 355.72 362.769 355.813 362.635 355.878C362.5 355.943 362.353 355.977 362.204 355.978Z" fill="black"/>
<path opacity="0.3" d="M288.636 404.015C291.624 392.041 281.21 379.131 265.376 375.18C249.542 371.229 234.283 377.734 231.296 389.708C228.308 401.682 238.722 414.592 254.556 418.543C270.39 422.494 285.648 415.99 288.636 404.015Z" fill="black"/>
<path d="M287.214 401.841C290.202 389.866 279.788 376.956 263.954 373.006C248.12 369.055 232.861 375.559 229.874 387.534C226.886 399.508 237.3 412.418 253.134 416.369C268.968 420.32 284.227 413.815 287.214 401.841Z" fill="#92E3A9" stroke="#263238" stroke-linecap="round" stroke-linejoin="round"/>
<path d="M249.623 391.073C249.805 393.781 248.765 396.064 247.31 396.124C245.855 396.185 244.512 394.104 244.279 391.396C244.047 388.689 245.138 386.396 246.603 386.345C248.068 386.295 249.442 388.356 249.623 391.073Z" stroke="#263238" stroke-linecap="round" stroke-linejoin="round"/>
<path d="M269.646 396.094C269.828 398.812 268.788 401.085 267.333 401.145C265.878 401.206 264.535 399.125 264.302 396.407C264.07 393.69 265.161 391.417 266.626 391.356C268.091 391.295 269.434 393.376 269.646 396.094Z" stroke="#263238" stroke-linecap="round" stroke-linejoin="round"/>
<path d="M302.691 403.115C302.478 405.06 302.023 406.971 301.337 408.803C295.539 424.471 274.546 431.25 253.806 424.502" stroke="#263238" stroke-width="3" stroke-linecap="round" stroke-linejoin="round"/>
<path d="M299.307 401.63H305.742" stroke="#263238" stroke-width="3" stroke-linecap="round" stroke-linejoin="round"/>
<path d="M258.312 359.685C257.604 362.625 255.796 364.736 254.271 364.353C252.745 363.969 252.078 361.322 252.796 358.352C253.513 355.382 255.311 353.301 256.837 353.674C258.362 354.048 259.029 356.735 258.312 359.685Z" fill="#263238" stroke="#263238" stroke-linecap="round" stroke-linejoin="round"/>
<path d="M276.943 363.747C277.654 360.796 276.995 358.106 275.47 357.739C273.946 357.372 272.134 359.466 271.423 362.417C270.712 365.367 271.371 368.057 272.895 368.424C274.419 368.792 276.231 366.698 276.943 363.747Z" fill="#263238" stroke="#263238" stroke-linecap="round" stroke-linejoin="round"/>
<path d="M304.762 471.084L315.875 497.451C316.273 498.394 316.941 499.198 317.795 499.764C318.648 500.33 319.649 500.632 320.673 500.633H340.878C341.892 500.631 342.885 500.334 343.733 499.778C344.582 499.222 345.25 498.431 345.656 497.501L357.779 469.487H357.254" fill="#92E3A9"/>
<path opacity="0.3" d="M328.24 467.72C321.835 467.72 314.379 468.558 308.348 467.164L318.733 497.4C318.981 498.278 319.496 499.057 320.208 499.628C320.92 500.199 321.793 500.532 322.704 500.582H339.352C340.252 500.532 341.115 500.204 341.82 499.643C342.526 499.082 343.04 498.316 343.292 497.451L353.344 466.608L349.303 467.164C336.483 468.558 336.816 467.72 328.24 467.72Z" fill="black"/>
<path d="M304.762 471.084L315.875 497.451C316.273 498.394 316.941 499.198 317.795 499.764C318.648 500.33 319.649 500.632 320.673 500.633H340.878C341.892 500.631 342.885 500.334 343.733 499.778C344.582 499.222 345.25 498.431 345.656 497.501L357.779 469.487H357.254" stroke="#263238" stroke-linecap="round" stroke-linejoin="round"/>
<path d="M506.041 60.3637L450.165 140.869C450.165 140.869 445.387 152.264 439.507 160.72C433.628 169.176 417.141 177.631 417.141 177.631C417.141 177.631 415.676 193.431 410.897 198.947C406.119 204.463 395.825 201.16 395.825 201.16C395.825 201.16 391.41 205.938 386.632 208.14C381.853 210.343 367.154 202.261 367.154 202.261C367.154 202.261 380.378 216.596 382.217 221.374C384.055 226.153 387.369 230.194 381.489 234.609C375.61 239.023 368.983 232.77 368.983 232.77C368.983 232.77 371.933 242.327 363.477 244.165C355.021 246.004 345.808 227.618 342.131 221.374C338.454 215.131 327.796 191.593 325.967 190.492C324.139 189.391 321.562 183.511 325.24 177.995C328.917 172.479 355.001 137.192 357.941 134.676C360.881 132.161 417.141 118.816 417.141 118.816L438.467 60" fill="white"/>
<path opacity="0.2" d="M444.417 141.748C444.417 141.748 438.355 159.932 431.789 163.468C425.222 167.004 387.844 176.601 373.195 174.581C358.547 172.56 350.465 167.004 350.465 167.004C350.465 167.004 342.383 177.611 338.847 181.147C336.385 183.434 333.455 185.157 330.26 186.198C330.26 186.198 347.839 230.355 360.477 244.024C361.458 244.327 362.501 244.376 363.507 244.165C371.963 242.327 369.013 232.77 369.013 232.77C369.013 232.77 375.63 239.013 381.52 234.609C387.409 230.204 384.086 226.153 382.247 221.375C380.408 216.596 367.134 202.261 367.134 202.261C367.134 202.261 381.833 210.343 386.611 208.14C391.39 205.938 395.804 201.15 395.804 201.15C395.804 201.15 406.099 204.463 410.877 198.947C415.655 193.431 417.12 177.631 417.12 177.631C417.12 177.631 433.658 169.176 439.547 160.72C445.437 152.265 450.205 140.869 450.205 140.869L473.229 107.703L444.417 141.748Z" fill="black"/>
<path d="M506.041 60.3637L450.165 140.869C450.165 140.869 445.387 152.264 439.507 160.72C433.628 169.176 417.141 177.631 417.141 177.631C417.141 177.631 415.676 193.431 410.897 198.947C406.119 204.463 395.825 201.16 395.825 201.16C395.825 201.16 391.41 205.938 386.632 208.14C381.853 210.343 367.154 202.261 367.154 202.261C367.154 202.261 380.378 216.596 382.217 221.374C384.055 226.153 387.369 230.194 381.489 234.609C375.61 239.023 368.983 232.77 368.983 232.77C368.983 232.77 371.933 242.327 363.477 244.165C355.021 246.004 345.808 227.618 342.131 221.374C338.454 215.131 327.796 191.593 325.967 190.492C324.139 189.391 321.562 183.511 325.24 177.995C328.917 172.479 355.001 137.192 357.941 134.676C360.881 132.161 417.141 118.816 417.141 118.816L438.467 60" stroke="#263238" stroke-linecap="round" stroke-linejoin="round"/>
<path d="M314.935 275.038L316.4 280.554L339.191 275.038L360.517 219.162L346.545 214.384L314.935 275.038Z" fill="white" stroke="#263238" stroke-linecap="round" stroke-linejoin="round"/>
<path d="M321.916 200.786L353.526 212.555L338.09 282.392L300.964 270.997L321.916 200.786Z" fill="white" stroke="#263238" stroke-linecap="round" stroke-linejoin="round"/>
<path d="M302.206 266.825L335.15 276.513L349.485 214.384L320.623 205.11L302.206 266.825Z" fill="#92E3A9" stroke="#263238" stroke-linecap="round" stroke-linejoin="round"/>
<path d="M320.491 220.475C319.058 220.096 317.559 220.027 316.097 220.273L307.49 249.115C308.736 250.329 310.268 251.209 311.945 251.671C318.693 253.53 326.088 248.045 328.452 239.427C330.816 230.81 327.23 222.324 320.491 220.475Z" fill="white" stroke="#263238" stroke-linecap="round" stroke-linejoin="round"/>
<path d="M319.269 225.254C319.226 225.234 319.19 225.201 319.168 225.159C319.146 225.116 319.139 225.068 319.148 225.021L319.532 223.526C319.555 223.463 319.564 223.396 319.558 223.329C319.551 223.262 319.53 223.197 319.495 223.14C319.46 223.083 319.412 223.034 319.355 222.998C319.299 222.961 319.235 222.938 319.168 222.93L317.562 222.546C317.499 222.521 317.431 222.51 317.363 222.516C317.296 222.521 317.23 222.543 317.172 222.578C317.114 222.613 317.065 222.662 317.03 222.719C316.994 222.777 316.972 222.842 316.966 222.91L316.653 224.456C316.641 224.502 316.613 224.542 316.574 224.57C316.535 224.598 316.488 224.611 316.44 224.607C315.893 224.551 315.341 224.551 314.794 224.607L311.854 234.477C314.147 236.861 317.723 238.053 317.249 240.054C316.976 241.185 315.945 242.074 314.137 241.67C313.759 241.619 313.396 241.488 313.073 241.285C312.751 241.081 312.475 240.811 312.266 240.492C312.057 240.173 311.92 239.812 311.862 239.435C311.805 239.058 311.83 238.673 311.935 238.306L312.026 237.902C312.076 237.68 311.945 237.498 311.632 237.427L311.016 237.275L309.268 243.115C309.97 243.753 310.79 244.247 311.682 244.569C311.728 244.589 311.765 244.624 311.787 244.669C311.809 244.713 311.815 244.764 311.803 244.812L311.44 246.095C311.412 246.158 311.4 246.226 311.404 246.295C311.409 246.363 311.43 246.43 311.465 246.488C311.501 246.547 311.551 246.596 311.609 246.631C311.668 246.666 311.735 246.687 311.803 246.691L313.47 247.095C313.529 247.126 313.594 247.143 313.66 247.145C313.727 247.148 313.793 247.135 313.853 247.107C313.913 247.08 313.967 247.039 314.009 246.988C314.051 246.937 314.081 246.877 314.097 246.812L314.369 245.539C314.385 245.492 314.414 245.451 314.454 245.422C314.494 245.393 314.542 245.377 314.592 245.378C318.148 245.751 320.562 244.004 321.31 240.892C321.896 238.407 321.057 236.296 318.461 234.305C316.087 232.507 313.582 231.618 314.016 229.78C314.319 228.507 315.481 227.921 317.047 228.295C317.434 228.357 317.804 228.502 318.129 228.721C318.455 228.94 318.73 229.227 318.934 229.562C319.139 229.897 319.268 230.272 319.314 230.662C319.36 231.052 319.32 231.447 319.198 231.82L319.128 232.103C319.128 232.275 319.229 232.426 319.542 232.507L322.502 233.214C322.565 233.238 322.632 233.247 322.699 233.24C322.766 233.234 322.831 233.212 322.888 233.177C322.945 233.142 322.994 233.095 323.03 233.038C323.067 232.981 323.09 232.917 323.098 232.851L323.32 231.911C323.997 228.951 322.573 226.436 319.269 225.254Z" fill="#263238"/>
<path d="M348.01 164.024C348.01 164.024 352.425 170.641 353.163 176.53C353.789 181.55 352.615 186.63 349.849 190.865C347.647 194.169 345.444 197.109 343.606 202.261C341.767 207.413 341.403 214.757 338.827 218.425C336.251 222.092 334.786 225.769 338.454 229.083C342.121 232.396 351.688 232.022 356.84 222.466C361.992 212.909 365.295 202.614 368.599 198.937C371.902 195.26 382.57 186.814 382.57 186.814C382.57 186.814 411.604 182.774 417.12 177.631C422.636 172.489 427.415 158.518 427.415 158.518" fill="white"/>
<path opacity="0.2" d="M425.222 163.468C425.222 163.468 409.564 173.57 397.441 176.601C385.318 179.632 377.742 179.632 373.195 185.693C368.649 191.755 364.103 210.949 358.042 214.485C351.981 218.021 350.97 205.393 342.383 207.918L342.101 208.019C341.262 211.959 340.525 216 338.827 218.435C336.251 222.112 334.786 225.779 338.454 229.093C342.121 232.406 351.688 232.032 356.84 222.476C361.992 212.919 365.295 202.625 368.599 198.947C371.902 195.27 382.57 186.825 382.57 186.825C382.57 186.825 411.604 182.784 417.12 177.642C420.454 174.53 423.515 168.206 425.414 163.68L425.222 163.468Z" fill="black"/>
<path d="M348.01 164.024C348.01 164.024 352.425 170.641 353.163 176.53C353.789 181.55 352.615 186.63 349.849 190.865C347.647 194.169 345.444 197.109 343.606 202.261C341.767 207.413 341.403 214.757 338.827 218.425C336.251 222.092 334.786 225.769 338.454 229.083C342.121 232.396 351.688 232.022 356.84 222.466C361.992 212.909 365.295 202.614 368.599 198.937C371.902 195.26 382.57 186.814 382.57 186.814C382.57 186.814 411.605 182.774 417.12 177.631C422.636 172.489 427.415 158.518 427.415 158.518" stroke="#263238" stroke-linecap="round" stroke-linejoin="round"/>
<path d="M336.615 182.41C336.615 182.41 346.182 187.552 353.162 181.672" stroke="#263238" stroke-linecap="round" stroke-linejoin="round"/>
<path d="M368.962 232.77L360.517 216.596" stroke="#263238" stroke-linecap="round" stroke-linejoin="round"/>
<path d="M395.804 201.16C395.804 201.16 402.421 195.644 402.048 183.511" stroke="#263238" stroke-linecap="round" stroke-linejoin="round"/>
<path d="M194.889 500.582H594.941" stroke="#263238" stroke-linecap="round" stroke-linejoin="round"/>
<path d="M159.531 500.582H177.715" stroke="#263238" stroke-linecap="round" stroke-linejoin="round"/>
</svg>
