<svg width="629" height="603" viewBox="0 0 629 603" fill="none" xmlns="http://www.w3.org/2000/svg">
<path fill-rule="evenodd" clip-rule="evenodd" d="M410.678 32.4136C495.217 17.4334 585.767 -18.6908 663.031 11.9912C741.866 43.2973 781.232 117.306 795.894 185.386C809.417 248.175 776.617 309.778 739.365 366.422C707.048 415.561 654.117 450.699 598.768 485.12C540.564 521.317 482.731 556.291 410.678 570.83C319.611 589.207 204.413 628.618 135.578 578.587C64.5949 526.994 141.375 430.81 117.174 357.5C95.51 291.876 -23.0168 244.347 3.97494 179.937C30.9803 115.494 151.01 117.337 229.792 88.7609C290.142 66.8702 345.781 43.9134 410.678 32.4136Z" fill="#E8FFEE"/>
</svg>
