<svg width="594" height="586" viewBox="0 0 594 586" fill="none" xmlns="http://www.w3.org/2000/svg">
<path fill-rule="evenodd" clip-rule="evenodd" d="M236.57 0.449678C295.274 -4.6701 345.374 35.0446 397.372 62.77C459.009 95.6352 534.04 115.168 567.11 176.696C602.326 242.217 600.578 324.189 575.524 394.228C550.873 463.142 498.598 522.474 432.317 553.517C371.745 581.886 303.355 549.304 236.57 552.978C163.8 556.982 90.8712 606.107 24.5222 575.953C-45.0286 544.344 -90.7864 470.522 -108.418 396.188C-125.367 324.735 -108.744 246.296 -68.1949 185.071C-32.4903 131.16 39.6258 122.65 94.9317 89.1466C143.773 59.5597 179.682 5.41099 236.57 0.449678Z" fill="#E8FFEE"/>
</svg>
