<svg width="595" height="516" viewBox="0 0 595 516" fill="none" xmlns="http://www.w3.org/2000/svg">
<path fill-rule="evenodd" clip-rule="evenodd" d="M250.443 42.8415C304.795 48.6709 361.302 21.9088 410.391 45.9593C463.715 72.0848 496.424 124.725 524.437 177.082C557.929 239.682 615.689 310.567 586.616 375.337C557.013 441.285 463.004 440.421 395.102 465.213C347.487 482.598 300.791 492.211 250.443 498.079C192.247 504.862 129.288 532.152 79.0191 502.053C28.0922 471.561 15.4356 404.832 -0.697393 347.708C-16.2186 292.752 -22.2916 237.052 -11.6708 180.942C0.268145 117.868 6.66876 38.6732 63.4622 8.75041C120.919 -21.5219 185.87 35.9158 250.443 42.8415Z" fill="#E8FFEE"/>
</svg>
