<svg width="326" height="280" viewBox="0 0 326 280" fill="none" xmlns="http://www.w3.org/2000/svg">
<path d="M300.279 232.635C300.21 232.635 301.288 227.856 301.387 227.561C302.565 224.166 306.815 218.299 310.782 218.408C311.442 218.444 312.087 218.621 312.675 218.927C313.262 219.233 313.78 219.662 314.193 220.186C314.607 220.71 314.907 221.316 315.074 221.966C315.241 222.615 315.271 223.293 315.163 223.956C314.803 226.776 312.242 229.131 309.941 230.467C307.235 232.036 300.287 232.635 300.279 232.635Z" fill="#263238"/>
<path d="M300.722 213.194C300.654 213.194 302.427 208.626 302.572 208.354C304.246 205.168 309.315 200.025 313.221 200.747C313.867 200.884 314.477 201.159 315.012 201.552C315.547 201.945 315.995 202.448 316.326 203.028C316.657 203.609 316.864 204.254 316.934 204.921C317.003 205.588 316.934 206.263 316.73 206.901C315.965 209.644 313.068 211.563 310.614 212.534C307.686 213.676 300.73 213.194 300.722 213.194Z" fill="#263238"/>
<path d="M305.706 191.586C305.63 191.586 307.403 187.018 307.549 186.746C309.223 183.568 314.299 178.424 318.205 179.139C318.851 179.277 319.462 179.552 319.996 179.946C320.531 180.34 320.978 180.844 321.309 181.425C321.639 182.007 321.845 182.652 321.914 183.32C321.982 183.988 321.911 184.663 321.706 185.301C320.942 188.036 318.044 189.963 315.591 190.934C312.67 192.068 305.706 191.586 305.706 191.586Z" fill="#263238"/>
<path d="M309.429 170.981C309.353 170.981 311.126 166.412 311.272 166.132C312.946 162.954 318.022 157.811 321.928 158.533C322.574 158.671 323.184 158.945 323.719 159.338C324.254 159.731 324.702 160.234 325.033 160.815C325.364 161.395 325.571 162.04 325.64 162.707C325.71 163.374 325.641 164.049 325.437 164.687C324.672 167.43 321.767 169.349 319.321 170.32C316.393 171.455 309.429 170.981 309.429 170.981Z" fill="#263238"/>
<path d="M307.847 153.071C307.77 153.071 308.298 148.207 308.367 147.904C309.131 144.384 312.709 138.06 316.668 137.71C317.327 137.67 317.987 137.771 318.604 138.007C319.222 138.243 319.783 138.609 320.253 139.08C320.722 139.551 321.089 140.118 321.328 140.743C321.568 141.367 321.676 142.036 321.645 142.706C321.645 145.558 319.352 148.192 317.196 149.784C314.689 151.634 307.847 153.071 307.847 153.071Z" fill="#263238"/>
<path d="M298.353 232.106C298.422 232.106 297.657 227.274 297.588 226.978C296.633 223.505 292.773 217.367 288.805 217.212C288.145 217.204 287.49 217.338 286.884 217.605C286.278 217.872 285.734 218.265 285.287 218.76C284.841 219.255 284.502 219.84 284.293 220.477C284.084 221.114 284.009 221.788 284.073 222.456C284.249 225.3 286.657 227.817 288.866 229.301C291.45 231.05 298.345 232.106 298.353 232.106Z" fill="#263238"/>
<path d="M300.447 210.491C300.524 210.491 299.041 205.829 298.918 205.533C297.451 202.247 292.719 196.777 288.774 197.235C288.121 197.33 287.494 197.564 286.935 197.921C286.376 198.278 285.898 198.751 285.531 199.309C285.164 199.867 284.916 200.497 284.805 201.158C284.693 201.82 284.72 202.498 284.883 203.148C285.48 205.93 288.239 208.051 290.639 209.177C293.468 210.506 300.44 210.491 300.447 210.491Z" fill="#263238"/>
<path d="M305.187 190.118C305.256 190.118 303.78 185.456 303.658 185.168C302.198 181.882 297.466 176.412 293.522 176.87C292.868 176.964 292.241 177.197 291.682 177.553C291.123 177.91 290.644 178.382 290.276 178.939C289.909 179.496 289.66 180.125 289.548 180.786C289.435 181.447 289.461 182.125 289.623 182.775C290.227 185.565 292.979 187.678 295.387 188.813C298.208 190.133 305.179 190.118 305.187 190.118Z" fill="#263238"/>
<path d="M308.65 171.159C308.726 171.159 307.243 166.497 307.121 166.202C305.653 162.923 300.929 157.453 296.977 157.912C296.323 158.006 295.697 158.238 295.138 158.595C294.579 158.951 294.101 159.424 293.733 159.981C293.366 160.538 293.119 161.168 293.007 161.829C292.896 162.49 292.922 163.167 293.086 163.817C293.682 166.606 296.442 168.72 298.85 169.846C301.67 171.175 308.65 171.159 308.65 171.159Z" fill="#263238"/>
<path d="M307.702 153.654C307.778 153.654 305.806 149.171 305.645 148.899C303.834 145.791 298.544 140.888 294.668 141.789C294.029 141.956 293.431 142.257 292.914 142.675C292.397 143.092 291.972 143.615 291.668 144.211C291.363 144.806 291.186 145.46 291.147 146.13C291.108 146.8 291.209 147.471 291.442 148.098C292.337 150.795 295.303 152.597 297.818 153.444C300.768 154.446 307.702 153.654 307.702 153.654Z" fill="#263238"/>
<path d="M303.528 138.161C303.589 138.161 303.872 133.289 303.857 132.978C303.65 129.373 301.181 122.535 297.336 121.517C296.693 121.367 296.026 121.355 295.378 121.483C294.73 121.612 294.116 121.877 293.576 122.263C293.036 122.648 292.582 123.145 292.243 123.721C291.905 124.297 291.689 124.938 291.61 125.604C291.182 128.425 293.002 131.409 294.844 133.374C297.007 135.612 303.52 138.153 303.528 138.161Z" fill="#263238"/>
<path d="M299.652 258.742C299.652 258.742 299.4 256.683 299.094 253.108C298.788 249.534 298.437 244.422 298.276 238.276C298.192 235.168 298.162 231.873 298.223 228.346C298.223 226.574 298.315 224.803 298.383 222.907C298.444 221.99 298.513 221.065 298.574 220.125C298.636 219.185 298.788 218.222 298.888 217.258C299.411 213.336 300.144 209.445 301.082 205.603C302.022 201.679 303.092 197.74 304.14 193.809C305.187 189.877 306.219 185.945 307.029 182.037C307.853 178.221 308.408 174.349 308.688 170.452C308.885 166.804 308.762 163.146 308.321 159.52C307.959 156.234 307.405 152.973 306.662 149.753C305.989 146.777 305.202 144.089 304.483 141.719C303.765 139.349 303.023 137.314 302.412 135.643C301.166 132.302 300.317 130.453 300.317 130.453C300.317 130.453 301.204 132.287 302.519 135.597C303.176 137.252 303.933 139.28 304.728 141.634C305.523 143.988 306.349 146.669 307.083 149.645C307.908 152.841 308.549 156.084 309.001 159.357C309.527 163.019 309.732 166.722 309.613 170.421C309.409 174.372 308.931 178.303 308.183 182.185C307.419 186.147 306.502 190.126 305.531 194.088C304.56 198.051 303.543 202.021 302.695 205.906C301.852 209.706 301.214 213.55 300.784 217.421C300.707 218.361 300.57 219.255 300.539 220.203C300.508 221.151 300.447 222.075 300.401 222.992C300.401 224.764 300.348 226.598 300.363 228.33C300.363 231.819 300.478 235.113 300.631 238.151C300.914 244.235 301.395 249.293 301.754 252.821C302.114 256.348 302.42 258.338 302.42 258.338C302.446 258.522 302.437 258.709 302.392 258.89C302.347 259.07 302.268 259.24 302.159 259.39C302.049 259.539 301.912 259.665 301.755 259.76C301.598 259.856 301.423 259.919 301.242 259.946C301.061 259.973 300.876 259.963 300.699 259.918C300.521 259.872 300.354 259.792 300.207 259.681C300.06 259.57 299.936 259.43 299.842 259.27C299.749 259.111 299.687 258.934 299.66 258.749V258.742H299.652Z" fill="#263238"/>
<path d="M291.152 250.715H310.209V254.725H308.55L305.11 276.605H296.258L292.811 254.725H291.152V250.715Z" fill="#263238" stroke="#263238" stroke-linecap="round" stroke-linejoin="round"/>
<path d="M165.578 265.346C165.578 265.346 164.921 269.285 165.402 270.171C165.884 271.057 166.656 272.222 166.656 272.222H172.726L173.054 270.319C173.891 271.263 174.918 272.013 176.066 272.518C177.679 273.1 179.239 272.518 181.127 272.665C182.724 272.79 186.478 272.665 186.478 272.665L186.371 270.606L175.416 265.618L171.495 262.51C171.495 262.51 168.055 265.665 165.578 265.346Z" fill="#263238" stroke="#263238" stroke-linecap="round" stroke-linejoin="round"/>
<path d="M120.369 265.346C120.369 265.346 121.409 268.555 121.027 269.433C120.645 270.311 120.018 272.222 120.018 272.222H113.956L113.421 270.319C112.683 271.267 111.731 272.022 110.646 272.518C109.117 273.1 107.466 272.518 105.601 272.665C104.018 272.79 100.249 272.665 100.249 272.665L100.142 270.606L110.562 265.618L114.697 263.287C114.697 263.287 117.923 265.665 120.369 265.346Z" fill="#263238" stroke="#263238" stroke-linecap="round" stroke-linejoin="round"/>
<path d="M168.85 113.864C168.85 113.864 171.357 146.855 172.229 162.628C173.1 178.401 173.505 185.557 173.605 196.66C173.704 207.763 174.186 229.705 174.186 237.949C174.194 246.365 173.655 254.772 172.573 263.116L165.242 267.086C165.242 267.086 162.872 245.921 161.916 238.338C161.053 231.477 157.895 203.56 156.466 194.927C155.036 186.295 148.523 156.28 148.523 156.28C148.523 156.28 139.832 187.771 137.584 200.351C135.337 212.93 126.882 241.298 125.071 248.198C123.259 255.098 120.369 265.33 120.369 265.33C119.35 265.634 118.28 265.719 117.228 265.579C116.755 265.541 116.299 265.386 115.899 265.127C115.499 264.869 115.168 264.514 114.934 264.095C114.934 264.095 117.067 243.443 117.946 233.404C119.039 220.972 119.383 204.469 120.713 197.561C122.043 190.654 121.998 177.422 123.542 168.541C124.421 163.498 128.893 115.255 128.893 115.255C128.893 115.255 153.691 125.457 168.85 113.864Z" fill="#263238" stroke="#263238" stroke-linecap="round" stroke-linejoin="round"/>
<path d="M172.573 263.116L166.862 267.825" stroke="white" stroke-width="0.5" stroke-linecap="round" stroke-linejoin="round"/>
<path d="M114.705 263.271L119.238 266.807" stroke="white" stroke-width="0.5" stroke-linecap="round" stroke-linejoin="round"/>
<path d="M152.269 124.967L151.811 144.206L155.021 140.95" stroke="white" stroke-width="0.5" stroke-linecap="round" stroke-linejoin="round"/>
<path d="M150.266 155.721L159.386 144.19" stroke="white" stroke-width="0.5" stroke-linecap="round" stroke-linejoin="round"/>
<path d="M161.916 145.029L154.31 152.613" stroke="white" stroke-width="0.5" stroke-linecap="round" stroke-linejoin="round"/>
<path d="M144.839 145.876C142.486 140.582 138.465 136.235 133.411 133.522" stroke="white" stroke-width="0.5" stroke-linecap="round" stroke-linejoin="round"/>
<path d="M156.435 119.762L156 122.015L152.453 122.854L152.858 120.049" stroke="white" stroke-width="0.5" stroke-linecap="round" stroke-linejoin="round"/>
<path d="M152.453 122.854C152.453 122.854 145.81 122.574 142.439 121.448L143.15 119.202" stroke="white" stroke-width="0.5" stroke-linecap="round" stroke-linejoin="round"/>
<path d="M140.077 118.643L139.404 121.448C139.404 121.448 134.137 121.168 133.288 120.329" stroke="white" stroke-width="0.5" stroke-linecap="round" stroke-linejoin="round"/>
<path d="M156 121.992C157.808 121.937 159.579 121.459 161.175 120.593L163.583 119.187L162.65 117.221" stroke="white" stroke-width="0.5" stroke-linecap="round" stroke-linejoin="round"/>
<path d="M172.122 49.3042C172.122 49.3042 176.922 53.5388 178.359 56.336C179.797 59.1331 198.663 98.2312 198.586 100.904C198.51 103.577 195.72 108.674 190.797 108.674C185.874 108.674 167.214 78.2004 167.214 78.2004L172.122 49.3042Z" fill="white"/>
<g style="mix-blend-mode:multiply" opacity="0.5">
<path d="M172.71 53.9972L173.031 54.1759C173.597 54.51 174.866 55.2637 176.257 56.2039C177.829 57.4296 179.262 58.8289 180.53 60.3763C180.53 60.3763 178.803 55.7144 176.272 53.4844C174.865 52.2556 173.557 50.9149 172.359 49.4751L172.71 53.9972Z" fill="#92E3A9"/>
</g>
<path d="M172.122 49.3042C172.122 49.3042 176.922 53.5388 178.359 56.336C179.797 59.1331 198.663 98.2312 198.586 100.904C198.51 103.577 195.72 108.674 190.797 108.674C185.874 108.674 167.214 78.2004 167.214 78.2004L172.122 49.3042Z" stroke="#263238" stroke-linecap="round" stroke-linejoin="round"/>
<path opacity="0.5" d="M184.146 90.1894C183.512 89.4124 178.795 81.6969 178.314 78.8142C177.832 75.9316 179.078 72.2409 179.078 70.314C179.078 68.3871 176.081 73.6783 175.921 73.0412C175.76 72.4041 173.872 65.5044 173.872 65.5044L168.085 73.1111L167.222 78.216C167.222 78.216 174.53 90.1427 181.211 99.0704C185.966 97.5164 193.144 95.1466 194.688 94.1986C197.08 92.7612 184.781 90.9974 184.146 90.1894Z" fill="#92E3A9"/>
<path d="M149.074 44.0207L172.152 49.3042C172.152 49.3042 173.758 61.3242 173.574 67.8198C173.391 74.3155 168.636 114.486 168.636 114.486C168.636 114.486 156.405 127.166 128.946 115.263C128.946 115.263 127.991 113.39 127.632 99.3889C127.288 85.5818 117.075 59.9412 117.893 57.0197C119.574 51.0291 139.771 45.2716 142.423 45.1085C144.661 44.8922 146.883 44.5289 149.074 44.0207Z" fill="white" stroke="#263238" stroke-linecap="round" stroke-linejoin="round"/>
<g style="mix-blend-mode:multiply" opacity="0.5">
<path d="M151.161 114.416L130.024 105.993L133.678 65.1859L157.72 76.6231L172.129 70.0343L161.825 112.621L151.161 114.416Z" fill="#92E3A9"/>
</g>
<g style="mix-blend-mode:multiply" opacity="0.5">
<path d="M157.414 51.068C158.4 51.068 167.52 52.925 172.703 53.9972C172.404 51.2467 172.144 49.3353 172.144 49.3353L149.066 44.0518C146.875 44.5626 144.653 44.9285 142.416 45.1473C139.763 45.3105 119.567 51.068 117.885 57.0585C117.617 58.0298 118.55 61.4796 119.934 66.1649C121.952 60.8736 123.756 56.5147 124.375 55.9008C125.766 54.4867 139.664 50.8193 139.664 50.8193L157.414 51.068Z" fill="#92E3A9"/>
</g>
<path d="M155.342 56.0174L152.17 63.2278L159.126 113.188L154.027 120.181L149.189 114.478L150.542 63.865L144.136 56.266L148.233 48.3874L155.342 56.0174Z" fill="#263238"/>
<path d="M179.919 72.1632L161.427 82.5904L137.646 69.941L133.877 105.644L157.429 117.182L175.263 106.273L179.919 72.1632Z" fill="#92E3A9" stroke="#263238" stroke-linecap="round" stroke-linejoin="round"/>
<path d="M160.724 90.6089L161.427 84.8748" stroke="#263238" stroke-width="0.5" stroke-linecap="round" stroke-linejoin="round"/>
<path d="M157.429 117.182L160.334 93.7557" stroke="#263238" stroke-width="0.5" stroke-linecap="round" stroke-linejoin="round"/>
<path d="M151.222 42.016C151.222 42.016 155.388 42.016 157.2 44.8132C159.012 47.6104 162.49 58.6669 162.49 58.6669L149.953 55.085L142.355 63.0647C142.355 63.0647 135.391 52.5753 138.227 45.9165C141.063 39.2577 151.222 42.016 151.222 42.016Z" fill="white" stroke="#263238" stroke-linecap="round" stroke-linejoin="round"/>
<g style="mix-blend-mode:multiply" opacity="0.5">
<path d="M158.469 47.4006C158.11 46.5071 157.686 45.6422 157.2 44.8132C155.388 41.9772 151.222 42.016 151.222 42.016C151.222 42.016 141.078 39.2577 138.227 45.901C137.309 48.0533 137.462 50.6095 137.99 53.0804C138.487 51.7595 139.61 49.11 141.047 47.6414C142.989 45.6679 143.218 47.385 143.218 47.385L154.089 46.507C155.528 46.8996 156.991 47.1981 158.469 47.4006Z" fill="#92E3A9"/>
</g>
<path d="M153.011 35.5826C153.011 35.5826 153.714 50.2832 151.887 53.1814C150.06 56.0796 147.981 54.9685 146.459 53.1814C144.938 51.3943 143.218 47.4006 143.218 47.4006L141.361 36.5227C141.361 36.5227 152.185 38.5507 153.011 35.5826Z" fill="white" stroke="#263238" stroke-linecap="round" stroke-linejoin="round"/>
<g style="mix-blend-mode:multiply" opacity="0.5">
<path d="M149.089 47.4006C150.664 46.9421 152.062 46.0038 153.095 44.7122C153.095 43.8808 153.095 43.0572 153.095 42.2569C151.314 40.1823 147.224 36.2663 142.668 37.5251C142.278 37.6338 141.904 37.7581 141.56 37.8825L143.211 47.4006C143.211 47.4006 144.938 51.4254 146.452 53.1814L144.923 46.2429C145.456 46.7905 146.122 47.1858 146.853 47.3891C147.585 47.5923 148.356 47.5962 149.089 47.4006Z" fill="#92E3A9"/>
</g>
<path d="M159.386 22.2106C159.386 22.2106 161.481 22.0552 161.527 25.606C161.572 29.1569 159.516 32.1405 158.102 30.9051C156.688 29.6697 158.996 20.5945 159.386 22.2106Z" fill="white" stroke="#263238" stroke-linecap="round" stroke-linejoin="round"/>
<path d="M145.007 3.82703C135.475 6.11138 132.922 12.3739 132.998 18.0459C132.998 20.2137 133.984 23.9666 135.291 27.9215L135.123 27.5641C135.123 27.5641 132.256 22.4825 131.836 25.5361C131.416 28.5897 134.252 31.752 135.192 32.7699C135.453 33.0142 135.789 33.1586 136.144 33.1785C136.498 33.1983 136.848 33.0923 137.134 32.8787C139.029 37.5406 141.147 41.713 142.53 42.8474C145.527 45.3105 149.739 46.577 153.087 43.6244C156.436 40.6719 159.746 23.8345 159.746 23.8345C160.541 6.8029 154.54 1.55822 145.007 3.82703Z" fill="white"/>
<g style="mix-blend-mode:multiply" opacity="0.5">
<path d="M139.931 21.7599C139.931 21.7599 143.257 18.9395 146.59 18.9395C149.923 18.9395 156.864 22.0474 157.689 24.5804C158.194 26.1344 157.597 31.146 157.039 34.9532C158.645 29.592 159.776 23.8578 159.776 23.8578C160.541 6.83398 154.532 1.57376 145.007 3.85811C135.482 6.14246 132.922 12.405 132.998 18.077C132.998 20.2448 133.984 23.9977 135.291 27.9525L135.123 27.5951C135.123 27.5951 132.256 22.5136 131.836 25.5672C131.416 28.6208 134.252 31.7831 135.192 32.801C135.453 33.0453 135.789 33.1897 136.144 33.2095C136.498 33.2294 136.848 33.1234 137.134 32.9097C139.029 37.5717 141.147 41.7441 142.53 42.8785C142.53 42.8785 139.343 35.5826 138.234 32.4824C137.126 29.3822 137.432 23.9899 139.931 21.7599Z" fill="#92E3A9"/>
</g>
<path d="M145.007 3.82703C135.475 6.11138 132.922 12.3739 132.998 18.0459C132.998 20.2137 133.984 23.9666 135.291 27.9215L135.123 27.564C135.123 27.564 132.256 22.4825 131.836 25.5361C131.416 28.5897 134.252 31.752 135.192 32.7699C135.453 33.0142 135.789 33.1586 136.144 33.1785C136.498 33.1983 136.848 33.0923 137.134 32.8787C139.029 37.5406 141.147 41.713 142.53 42.8474C145.527 45.3105 149.739 46.577 153.087 43.6244C156.436 40.6719 159.746 23.8345 159.746 23.8345C160.541 6.8029 154.54 1.55822 145.007 3.82703Z" stroke="#263238" stroke-linecap="round" stroke-linejoin="round"/>
<path d="M156.214 28.7917C155.736 29.5213 154.996 30.0312 154.153 30.2114C153.309 30.3916 152.429 30.2278 151.704 29.7552" stroke="#263238" stroke-linecap="round" stroke-linejoin="round"/>
<path d="M146.039 29.8173C145.562 30.547 144.822 31.0568 143.978 31.237C143.134 31.4172 142.255 31.2534 141.529 30.7808" stroke="#263238" stroke-linecap="round" stroke-linejoin="round"/>
<path d="M146.528 27.4708C145.296 26.8423 143.962 26.4449 142.591 26.2976C140.772 26.2199 138.983 27.7272 138.983 27.7272" stroke="#263238" stroke-linecap="round" stroke-linejoin="round"/>
<path d="M150.916 35.3184C150.851 35.7905 150.607 36.218 150.235 36.5086C149.863 36.7993 149.394 36.9299 148.929 36.8724C148.442 36.8874 147.962 36.7654 147.539 36.52C147.117 36.2745 146.77 35.9151 146.536 35.4816" stroke="#263238" stroke-linecap="round" stroke-linejoin="round"/>
<path d="M152.521 39.0713C152.521 39.0713 148.057 40.4232 145.191 39.25C145.565 39.9343 146.077 40.5308 146.694 41.0007C147.31 41.4706 148.017 41.8033 148.768 41.9772C150.465 42.4356 152.521 39.0713 152.521 39.0713Z" fill="#263238"/>
<path d="M156.772 25.4273C156.772 25.4273 155.098 25.2797 153.515 25.2952C152.063 25.2952 150.618 27.2144 150.618 27.2144L150.106 29.5454" stroke="#263238" stroke-linecap="round" stroke-linejoin="round"/>
<path d="M142.997 17.0436C146.463 19.9944 150.252 22.5311 154.287 24.6037C160.862 27.9448 165.907 21.4958 162.826 18.3256C159.745 15.1555 166.839 21.8066 167.955 17.8284C169.072 13.8502 158.859 0.198494 148.6 0.00424646C138.341 -0.190001 135.857 6.34448 135.857 6.34448C135.857 6.34448 134.649 2.98012 133.739 4.83712C133.21 5.84778 132.908 6.96478 132.853 8.10824C132.853 8.10824 130.773 9.66222 129.856 10.5868C128.939 11.5115 130.116 12.4905 130.116 12.4905C130.116 12.4905 128.281 17.1524 129.26 20.7499L134.527 28.5197C135.162 28.4988 135.784 28.3295 136.345 28.025C136.906 27.7205 137.39 27.289 137.76 26.7638C139.136 24.9301 138.127 19.2114 138.127 19.2114C138.127 19.2114 138.211 25.3652 139.824 24.0132C141.437 22.6612 139.06 16.6474 139.06 16.6474L142.997 17.0436Z" fill="#263238"/>
<path d="M138.418 10.6878C138.418 10.6878 143.111 14.2775 146.505 17.5564C149.9 20.8353 155.075 22.094 156.611 21.3714" stroke="white" stroke-width="0.5" stroke-miterlimit="10" stroke-linecap="round"/>
<path d="M152.919 15.2021C152.919 15.2021 146.192 13.6482 144.61 10.6801C143.027 7.71197 138.127 8.06162 138.127 8.06162C139.351 6.91434 140.845 6.106 142.464 5.71415C144.084 5.3223 145.776 5.36009 147.377 5.82389" stroke="white" stroke-width="0.5" stroke-miterlimit="10" stroke-linecap="round"/>
<path d="M135.864 12.1563C135.864 12.1563 141.124 20.2137 137.806 22.6923" stroke="white" stroke-width="0.5" stroke-miterlimit="10" stroke-linecap="round"/>
<path d="M117.893 57.0275C117.893 57.0275 103.621 96.5762 104.278 100.99C104.935 105.403 112.427 103.647 114.789 103.049C117.151 102.45 126.256 87.7652 126.317 84.6028C126.905 84.2289 127.408 83.732 127.793 83.1453C128.178 82.5585 128.435 81.8953 128.549 81.1996C129.107 78.6511 129.489 69.5448 125.866 62.715" fill="white"/>
<g style="mix-blend-mode:multiply" opacity="0.5">
<path d="M117.893 57.0275C117.893 57.0275 103.621 96.5762 104.278 100.99C104.645 103.406 107.061 103.965 109.553 103.888C111.296 98.8916 111.976 89.762 113.283 85.2399C114.728 80.1817 119.437 67.0895 122.303 60.2053L117.893 57.0275Z" fill="#92E3A9"/>
</g>
<path d="M117.893 57.0275C117.893 57.0275 103.621 96.5762 104.278 100.99C104.935 105.403 112.427 103.647 114.789 103.049C117.151 102.45 126.256 87.7652 126.317 84.6028C126.905 84.2289 127.408 83.732 127.793 83.1453C128.178 82.5585 128.435 81.8953 128.549 81.1996C129.107 78.6511 129.489 69.5448 125.866 62.715" stroke="#263238" stroke-linecap="round" stroke-linejoin="round"/>
<path d="M128.679 97.3765C128.679 97.3765 110.332 96.2421 107.978 96.0478C105.624 95.8536 102.803 99.1558 105.02 103.725C107.236 108.293 110.761 108.557 115.087 107.726C119.414 106.895 128.969 100.966 128.969 100.966L128.679 97.3765Z" fill="white"/>
<path opacity="0.5" d="M128.679 97.3765C128.679 97.3765 110.332 96.2421 107.978 96.0478C105.624 95.8536 102.803 99.1558 105.02 103.725C107.236 108.293 110.761 108.557 115.087 107.726C119.414 106.895 128.969 100.966 128.969 100.966L128.679 97.3765Z" fill="#92E3A9" stroke="#263238" stroke-linecap="round" stroke-linejoin="round"/>
<path d="M128.679 97.3765C128.679 97.3765 110.332 96.2421 107.978 96.0478C105.624 95.8536 102.803 99.1558 105.02 103.725C107.236 108.293 110.761 108.557 115.087 107.726C119.414 106.895 128.969 100.966 128.969 100.966L128.679 97.3765Z" stroke="#263238" stroke-linecap="round" stroke-linejoin="round"/>
<path d="M131.607 92.8311C131.607 92.8311 133.976 90.2748 134.603 90.3292C135.23 90.3836 139.832 90.1272 140.222 91.2228C140.612 92.3183 139.992 91.8366 139.358 92.2018C138.723 92.567 135.574 92.9788 135.574 92.9788C135.574 92.9788 138.288 93.2041 139.106 93.6936C139.924 94.1831 143.386 97.4309 143.371 98.068C143.356 98.7052 142.935 98.845 142.095 98.845C141.254 98.845 141.873 99.4588 141.644 100.073C141.414 100.686 139.755 100.554 139.755 100.554C139.755 100.554 139.901 102.683 138.647 102.575C137.393 102.466 135.146 100.803 135.146 100.803C135.146 100.803 130.506 102.528 128.839 102.396C127.745 102.346 126.657 102.595 125.69 103.118C127.091 99.3816 129.09 95.9056 131.607 92.8311Z" fill="white"/>
<g style="mix-blend-mode:multiply" opacity="0.5">
<path d="M131.607 92.8311C129.097 95.8844 127.098 99.3362 125.69 103.049C126.657 102.525 127.745 102.276 128.839 102.326C129.387 102.335 129.934 102.275 130.468 102.147C130.8 100.661 130.997 99.1477 131.056 97.6252C131.056 95.3641 134.603 90.3292 134.603 90.3292C133.969 90.2748 131.607 92.8311 131.607 92.8311Z" fill="#92E3A9"/>
</g>
<path d="M131.607 92.8311C131.607 92.8311 133.976 90.2748 134.603 90.3292C135.23 90.3836 139.832 90.1272 140.222 91.2228C140.612 92.3183 139.992 91.8366 139.358 92.2018C138.723 92.567 135.574 92.9788 135.574 92.9788C135.574 92.9788 138.288 93.2041 139.106 93.6936C139.924 94.1831 143.386 97.4309 143.371 98.068C143.356 98.7052 142.935 98.845 142.095 98.845C141.254 98.845 141.873 99.4588 141.644 100.073C141.414 100.686 139.755 100.554 139.755 100.554C139.755 100.554 139.901 102.683 138.647 102.575C137.393 102.466 135.146 100.803 135.146 100.803C135.146 100.803 130.506 102.528 128.839 102.396C127.745 102.346 126.657 102.595 125.69 103.118C127.091 99.3816 129.09 95.9056 131.607 92.8311Z" stroke="#263238" stroke-linecap="round" stroke-linejoin="round"/>
<path d="M142.095 98.7751L138.005 95.4729L134.672 94.9834" stroke="#263238" stroke-linecap="round" stroke-linejoin="round"/>
<path d="M139.748 100.484L135.215 97.9903L133.135 97.6096" stroke="#263238" stroke-linecap="round" stroke-linejoin="round"/>
<path d="M181.845 89.6843C181.845 89.6843 179.475 87.1358 178.849 87.1824C178.222 87.229 173.62 86.9882 173.23 88.076C172.84 89.1638 173.459 88.6898 174.094 89.0627C175.33 89.4261 176.597 89.6732 177.878 89.8009C177.878 89.8009 175.164 90.0262 174.346 90.5235C173.528 91.0208 170.065 94.2608 170.081 94.8902C170.096 95.5195 170.516 95.6671 171.357 95.6671C172.198 95.6671 171.579 96.281 171.808 96.8948C172.038 97.5086 173.696 97.3688 173.696 97.3688C173.696 97.3688 173.551 99.4977 174.805 99.3967C176.058 99.2957 178.306 97.6252 178.306 97.6252C178.306 97.6252 182.946 99.3501 184.612 99.1791C185.708 99.1274 186.797 99.3799 187.762 99.9095C186.355 96.1943 184.356 92.7397 181.845 89.6843Z" fill="white" stroke="#263238" stroke-linecap="round" stroke-linejoin="round"/>
<path d="M171.357 95.6283L175.439 92.3339L178.772 91.8443" stroke="#263238" stroke-linecap="round" stroke-linejoin="round"/>
<path d="M173.696 97.3377L178.23 94.8513L180.309 94.4628" stroke="#263238" stroke-linecap="round" stroke-linejoin="round"/>
<path d="M184.574 93.5537C184.574 93.5537 192.44 92.6369 195.139 94.6959C197.837 96.7549 197.386 102 197.386 102" stroke="#263238" stroke-linecap="round" stroke-linejoin="round"/>
<path d="M122.433 262.627C122.433 262.627 123.274 260.925 125.957 261.267C128.641 261.609 130.322 264.849 128.472 265.867C126.623 266.884 122.433 262.627 122.433 262.627Z" fill="#92E3A9" stroke="#263238" stroke-linecap="round" stroke-linejoin="round"/>
<path d="M126.401 183.498C126.401 183.498 132.715 184.788 135.75 186.839C138.785 188.89 139.281 189.403 140.038 193.513C140.795 197.624 138.02 208.657 138.02 214.306C138.02 219.954 133.976 254.352 133.976 257.188C133.976 260.024 136.759 265.913 136.507 267.964C136.399 269.439 136.571 270.922 137.011 272.331C137.011 272.331 138.777 273.613 136.507 273.885C134.236 274.157 133.976 274.398 131.958 273.372C129.94 272.347 128.9 267.211 127.158 265.672C125.415 264.134 124.383 262.339 124.383 261.049C124.383 259.759 128.419 254.895 128.419 254.895C128.419 254.895 127.914 247.708 127.654 241.547C127.394 235.385 124.597 221.78 124.597 215.906C124.597 210.032 128.419 196.14 128.419 196.14C128.419 196.14 118.611 197.359 114.789 194.795C110.967 192.231 115.294 180.934 126.401 183.498Z" fill="white" stroke="#263238" stroke-linecap="round" stroke-linejoin="round"/>
<path d="M127.158 265.641C127.158 265.641 122.571 261.64 122.433 262.658C122.296 263.676 122.265 271.702 122.602 272.549C122.938 273.396 131.997 274.258 136.698 275.113C141.399 275.967 139.549 272.891 138.54 272.207C137.531 271.523 127.158 265.641 127.158 265.641Z" fill="#92E3A9" stroke="#263238" stroke-linecap="round" stroke-linejoin="round"/>
<path opacity="0.2" d="M127.158 265.641C127.158 265.641 122.571 261.64 122.433 262.658C122.296 263.676 122.265 271.702 122.602 272.549C122.938 273.396 131.997 274.258 136.698 275.113C141.399 275.967 139.549 272.891 138.54 272.207C137.531 271.523 127.158 265.641 127.158 265.641Z" fill="black"/>
<path d="M128.472 270.163C129.391 269.045 130.464 268.068 131.66 267.265C133.08 266.24 134.674 265.489 136.361 265.051L138.54 269.309C137.038 269.669 135.577 270.19 134.183 270.863C133.124 271.514 132.164 272.318 131.331 273.248C131.331 273.248 128.809 271.531 128.472 270.163Z" fill="#263238" stroke="#263238" stroke-linecap="round" stroke-linejoin="round"/>
<path d="M133.006 265.393C132.794 265.42 132.589 265.49 132.405 265.601C132.221 265.711 132.061 265.858 131.935 266.034C131.809 266.209 131.72 266.409 131.672 266.621C131.625 266.832 131.621 267.052 131.66 267.265C131.828 268.975 131.996 274.429 132.669 274.6C133.342 274.771 141.728 276.154 144.747 276.302C147.767 276.449 151.123 276.473 151.123 274.942C151.123 273.411 150.618 272.727 149.953 272.727C149.288 272.727 147.767 272.215 145.756 271.026C143.746 269.837 138.876 265.229 137.348 265.059C135.819 264.888 133.846 263.854 133.006 265.393Z" fill="#92E3A9" stroke="#263238" stroke-linecap="round" stroke-linejoin="round"/>
<path opacity="0.2" d="M133.006 265.393C132.794 265.42 132.589 265.49 132.405 265.601C132.221 265.711 132.061 265.858 131.935 266.034C131.809 266.209 131.72 266.409 131.672 266.621C131.625 266.832 131.621 267.052 131.66 267.265C131.828 268.975 131.996 274.429 132.669 274.6C133.342 274.771 141.728 276.154 144.747 276.302C147.767 276.449 151.123 276.473 151.123 274.942C151.123 273.411 150.618 272.727 149.953 272.727C149.288 272.727 147.767 272.215 145.756 271.026C143.746 269.837 138.876 265.229 137.348 265.059C135.819 264.888 133.846 263.854 133.006 265.393Z" fill="black"/>
<path d="M62.6622 272.727C62.6622 271.959 62.4381 271.208 62.0181 270.569C61.5981 269.93 61.0012 269.432 60.3027 269.138C59.6043 268.844 58.8358 268.767 58.0944 268.917C57.353 269.067 56.6719 269.437 56.1374 269.98C55.6028 270.524 55.2388 271.216 55.0913 271.969C54.9438 272.723 55.0195 273.504 55.3088 274.214C55.5981 274.924 56.088 275.531 56.7166 275.958C57.3451 276.384 58.0841 276.612 58.8401 276.612C59.8538 276.612 60.8259 276.203 61.5427 275.474C62.2595 274.746 62.6622 273.758 62.6622 272.727Z" fill="#263238" stroke="#263238" stroke-linecap="round" stroke-linejoin="round"/>
<path d="M58.8401 274.662C59.8955 274.662 60.7512 273.792 60.7512 272.72C60.7512 271.647 59.8955 270.777 58.8401 270.777C57.7846 270.777 56.929 271.647 56.929 272.72C56.929 273.792 57.7846 274.662 58.8401 274.662Z" fill="white" stroke="#263238" stroke-linecap="round" stroke-linejoin="round"/>
<path d="M103.621 272.727C103.621 271.959 103.396 271.208 102.976 270.569C102.556 269.93 101.96 269.432 101.261 269.138C100.563 268.844 99.7942 268.767 99.0528 268.917C98.3113 269.067 97.6303 269.437 97.0957 269.98C96.5612 270.524 96.1972 271.216 96.0497 271.969C95.9022 272.723 95.9779 273.504 96.2672 274.214C96.5565 274.924 97.0464 275.531 97.675 275.958C98.3035 276.384 99.0425 276.612 99.7984 276.612C100.812 276.612 101.784 276.203 102.501 275.474C103.218 274.746 103.621 273.758 103.621 272.727Z" fill="#263238" stroke="#263238" stroke-linecap="round" stroke-linejoin="round"/>
<path d="M101.71 272.727C101.71 272.343 101.597 271.968 101.387 271.648C101.177 271.329 100.879 271.08 100.53 270.933C100.181 270.786 99.7963 270.747 99.4256 270.822C99.0549 270.897 98.7143 271.082 98.4471 271.354C98.1798 271.626 97.9978 271.972 97.924 272.348C97.8503 272.725 97.8882 273.116 98.0328 273.471C98.1775 273.826 98.4224 274.129 98.7367 274.342C99.0509 274.556 99.4204 274.67 99.7984 274.67C100.305 274.67 100.791 274.465 101.15 274.101C101.508 273.737 101.71 273.243 101.71 272.727Z" fill="white" stroke="#263238" stroke-linecap="round" stroke-linejoin="round"/>
<path d="M117.006 272.727C117.006 271.959 116.782 271.208 116.362 270.569C115.942 269.93 115.345 269.432 114.646 269.138C113.948 268.844 113.179 268.767 112.438 268.917C111.697 269.067 111.016 269.437 110.481 269.98C109.947 270.524 109.582 271.216 109.435 271.969C109.288 272.723 109.363 273.504 109.653 274.214C109.942 274.924 110.432 275.531 111.06 275.958C111.689 276.384 112.428 276.612 113.184 276.612C114.197 276.612 115.17 276.203 115.886 275.474C116.603 274.746 117.006 273.758 117.006 272.727Z" fill="#263238" stroke="#263238" stroke-linecap="round" stroke-linejoin="round"/>
<path d="M115.095 272.727C115.096 272.341 114.985 271.963 114.775 271.641C114.564 271.319 114.265 271.068 113.914 270.919C113.563 270.771 113.177 270.732 112.804 270.807C112.431 270.882 112.088 271.067 111.819 271.341C111.551 271.614 111.368 271.962 111.294 272.341C111.22 272.72 111.259 273.113 111.405 273.47C111.551 273.826 111.798 274.131 112.115 274.344C112.432 274.558 112.804 274.671 113.184 274.67C113.691 274.67 114.177 274.465 114.535 274.101C114.893 273.737 115.095 273.243 115.095 272.727Z" fill="white" stroke="#263238" stroke-linecap="round" stroke-linejoin="round"/>
<path d="M93.8665 206.031H85.7788V268.275H93.8665V206.031Z" fill="#263238" stroke="#263238" stroke-linecap="round" stroke-linejoin="round"/>
<path d="M96.0297 238.555H83.6306V268.275H96.0297V238.555Z" fill="#263238" stroke="#263238" stroke-linecap="round" stroke-linejoin="round"/>
<path d="M58.0528 267.102H115.179C115.99 267.102 116.768 267.429 117.341 268.012C117.915 268.595 118.237 269.386 118.237 270.21V270.622H54.995V270.21C54.995 269.386 55.3172 268.595 55.8906 268.012C56.4641 267.429 57.2418 267.102 58.0528 267.102Z" fill="#263238" stroke="#263238" stroke-linecap="round" stroke-linejoin="round"/>
<path d="M81.5667 181.96H71.1704V198.991H81.5667V181.96Z" fill="#263238" stroke="#263238" stroke-linecap="round" stroke-linejoin="round"/>
<path d="M123.504 196.637H56.1417C53.0471 196.637 50.5384 199.187 50.5384 202.332V203.863C50.5384 207.008 53.0471 209.558 56.1417 209.558H123.504C126.598 209.558 129.107 207.008 129.107 203.863V202.332C129.107 199.187 126.598 196.637 123.504 196.637Z" fill="#92E3A9" stroke="#263238" stroke-linecap="round" stroke-linejoin="round"/>
<path opacity="0.1" d="M123.504 196.637H56.1417C53.0471 196.637 50.5384 199.187 50.5384 202.332V203.863C50.5384 207.008 53.0471 209.558 56.1417 209.558H123.504C126.598 209.558 129.107 207.008 129.107 203.863V202.332C129.107 199.187 126.598 196.637 123.504 196.637Z" fill="black"/>
<path d="M129.107 203.094C129.107 201.381 128.438 199.739 127.246 198.528C126.055 197.317 124.439 196.637 122.754 196.637H88.0949C87.2416 196.607 86.3911 196.752 85.5941 197.063C84.7971 197.374 84.0699 197.845 83.4558 198.448C82.8417 199.051 82.3533 199.773 82.0198 200.572C81.6862 201.371 81.5143 202.23 81.5143 203.098C81.5143 203.965 81.6862 204.824 82.0198 205.623C82.3533 206.422 82.8417 207.144 83.4558 207.747C84.0699 208.35 84.7971 208.821 85.5941 209.132C86.3911 209.443 87.2416 209.588 88.0949 209.558H122.754C124.44 209.556 126.056 208.874 127.247 207.662C128.438 206.45 129.107 204.807 129.107 203.094Z" fill="#92E3A9" stroke="#263238" stroke-miterlimit="10"/>
<path opacity="0.1" d="M129.107 203.296C129.107 202.448 128.942 201.608 128.623 200.825C128.304 200.041 127.836 199.33 127.246 198.73C126.656 198.13 125.956 197.655 125.185 197.33C124.415 197.006 123.589 196.839 122.754 196.839H88.0949C87.2416 196.809 86.3911 196.954 85.5941 197.265C84.7971 197.576 84.0699 198.047 83.4558 198.65C82.8417 199.253 82.3533 199.975 82.0198 200.774C81.6862 201.573 81.5143 202.432 81.5143 203.3C81.5143 204.167 81.6862 205.026 82.0198 205.825C82.3533 206.624 82.8417 207.346 83.4558 207.949C84.0699 208.552 84.7971 209.023 85.5941 209.334C86.3911 209.645 87.2416 209.79 88.0949 209.76H122.754C123.589 209.76 124.416 209.593 125.187 209.268C125.958 208.943 126.659 208.467 127.249 207.866C127.839 207.266 128.307 206.553 128.625 205.769C128.944 204.985 129.108 204.144 129.107 203.296Z" fill="black"/>
<path d="M96.8478 181.967H56.3327C55.3855 181.968 54.4478 181.775 53.5749 181.401C52.7021 181.027 51.9118 180.479 51.2506 179.79C50.5894 179.101 50.0707 178.283 49.7252 177.387C49.3797 176.491 49.2143 175.533 49.2388 174.57L50.2402 134.423C50.2841 132.542 51.0511 130.752 52.377 129.438C53.7029 128.123 55.4822 127.389 57.3341 127.392H90.7629C92.459 127.389 94.0999 128.004 95.3875 129.126C96.6752 130.248 97.5242 131.802 97.7804 133.507L103.858 173.685C104.009 174.71 103.942 175.757 103.659 176.753C103.377 177.75 102.886 178.673 102.22 179.459C101.555 180.245 100.731 180.876 99.8035 181.309C98.8763 181.742 97.8681 181.967 96.8478 181.967Z" fill="#92E3A9" stroke="#263238" stroke-linecap="round" stroke-linejoin="round"/>
<path opacity="0.1" d="M96.8478 181.967H56.3327C55.3855 181.968 54.4478 181.775 53.5749 181.401C52.7021 181.027 51.9118 180.479 51.2506 179.79C50.5894 179.101 50.0707 178.283 49.7252 177.387C49.3797 176.491 49.2143 175.533 49.2388 174.57L50.2402 134.423C50.2841 132.542 51.0511 130.752 52.377 129.438C53.7029 128.123 55.4822 127.389 57.3341 127.392H90.7629C92.459 127.389 94.0999 128.004 95.3875 129.126C96.6752 130.248 97.5242 131.802 97.7804 133.507L103.858 173.685C104.009 174.71 103.942 175.757 103.659 176.753C103.377 177.75 102.886 178.673 102.22 179.459C101.555 180.245 100.731 180.876 99.8035 181.309C98.8763 181.742 97.8681 181.967 96.8478 181.967Z" fill="black"/>
<path d="M83.6154 207.499L65.85 219.387" stroke="#263238" stroke-linecap="round" stroke-linejoin="round"/>
<path d="M65.1772 217.561L62.1195 219.651C61.88 219.817 61.6797 220.035 61.5328 220.289C61.3859 220.543 61.2961 220.827 61.2698 221.12C61.2435 221.413 61.2813 221.709 61.3807 221.985C61.48 222.262 61.6383 222.513 61.8443 222.72L62.1042 222.969C62.4477 223.312 62.9042 223.514 63.3855 223.536C63.8669 223.557 64.3391 223.397 64.7109 223.086L67.5087 220.755C67.7164 220.58 67.8863 220.363 68.0079 220.119C68.1294 219.874 68.1999 219.607 68.215 219.333C68.2301 219.06 68.1894 218.786 68.0955 218.529C68.0016 218.272 67.8565 218.038 67.6693 217.841C67.3526 217.504 66.9291 217.291 66.4734 217.24C66.0176 217.189 65.5586 217.302 65.1772 217.561Z" fill="#263238" stroke="#263238" stroke-linecap="round" stroke-linejoin="round"/>
<path d="M86.3903 267.102H103.919C104.73 267.102 105.507 267.429 106.081 268.012C106.654 268.595 106.977 269.386 106.977 270.21V270.622H86.3903V267.102Z" fill="#263238" stroke="#263238" stroke-linecap="round" stroke-linejoin="round"/>
<path d="M100.425 161.276C103.883 161.276 106.686 159.655 106.686 157.655C106.686 155.656 103.883 154.035 100.425 154.035C96.9676 154.035 94.1646 155.656 94.1646 157.655C94.1646 159.655 96.9676 161.276 100.425 161.276Z" fill="white" stroke="#263238" stroke-linecap="round" stroke-linejoin="round"/>
<path d="M117.847 187.352C117.847 187.352 127.945 187.865 130.223 193.257C130.692 195.103 130.949 196.999 130.987 198.906C130.987 201.726 140.329 256.146 140.581 257.18C140.833 258.213 146.391 266.162 147.148 267.957C147.904 269.752 148.676 271.298 148.676 271.298C148.676 271.298 150.97 272.323 150.702 273.093C150.435 273.862 145.145 274.118 142.874 274.118C140.604 274.118 138.074 268.477 136.56 267.957C135.047 267.436 133.273 265.626 133.273 264.623C133.273 263.621 134.037 256.154 134.037 256.154C133.069 250.063 131.375 244.114 128.992 238.439C125.613 230.615 121.409 219.185 120.904 213.801C120.4 208.416 120.4 203.272 120.4 203.272L114.025 202.239C114.025 202.239 113.26 188.89 117.847 187.352Z" fill="white" stroke="#263238" stroke-linecap="round" stroke-linejoin="round"/>
<path d="M138.372 270.505C138.372 270.505 140.39 262.153 145.588 265.393L147.767 269.138C147.767 269.138 142.905 269.138 141.391 273.916C140.652 273.642 139.99 273.187 139.464 272.593C138.938 271.998 138.563 271.281 138.372 270.505Z" fill="#263238" stroke="#263238" stroke-linecap="round" stroke-linejoin="round"/>
<path d="M96.9471 171.765L96.7024 171.804C94.4091 162.309 91.3132 152.605 91.3132 152.605C91.3132 152.605 76.1239 156.684 67.3634 153.918C67.3634 153.918 62.9068 176.225 62.9068 182.053C62.9068 186.715 61.9589 191.454 65.4294 194.189C65.7651 194.692 66.1965 195.12 66.6981 195.45C67.1997 195.779 67.7613 196.003 68.3496 196.109C77.8209 197.919 94.1416 197.29 96.863 197.841C99.5844 198.393 114.025 202.239 114.025 202.239C114.025 202.239 114.888 194.143 117.335 188.89C119.781 183.638 130.949 184.531 130.949 184.531L96.9471 171.765Z" fill="#263238" stroke="#263238" stroke-linecap="round" stroke-linejoin="round"/>
<path d="M93.4384 109.56C93.4384 109.56 91.3438 106.887 89.0811 109.832C86.8184 112.776 88.6148 123.002 89.7309 127.089C90.847 131.176 109.698 148.129 111.471 149.388C113.245 150.647 136.354 155.954 138.372 154.982C140.39 154.011 140.971 149.093 139.824 146.436C138.678 143.778 117.082 138.137 117.082 138.137L93.4384 109.56Z" fill="white"/>
<g style="mix-blend-mode:multiply" opacity="0.5">
<path d="M111.471 149.404C113.245 150.655 136.354 155.969 138.372 154.998C139.534 154.439 140.214 152.558 140.367 150.561C136.797 149.101 132.562 148.114 130.597 148.23C127.746 148.394 129.657 151.098 125.086 150.336C120.515 149.575 115.301 147.228 110.562 144.478C105.822 141.727 97.314 133.6 97.314 133.6L103.987 134.377L96.3814 131.991L102.994 129.466L97.314 129.124C97.6778 128.21 97.8471 127.227 97.8109 126.242C97.8109 124.245 94.0651 116.832 94.0651 116.832L90.0901 127.935C92.865 133.001 109.797 148.215 111.471 149.404Z" fill="#92E3A9"/>
</g>
<path d="M93.4384 109.56C93.4384 109.56 91.3438 106.887 89.0811 109.832C86.8184 112.776 88.6148 123.002 89.7309 127.089C90.847 131.176 109.698 148.129 111.471 149.388C113.245 150.647 136.354 155.954 138.372 154.982C140.39 154.011 140.971 149.093 139.824 146.436C138.678 143.778 117.082 138.137 117.082 138.137L93.4384 109.56Z" stroke="#263238" stroke-linecap="round" stroke-linejoin="round"/>
<path d="M100.861 131.028L95.6705 133.071L104.4 136.024" stroke="#263238" stroke-width="0.5" stroke-linecap="round" stroke-linejoin="round"/>
<path d="M138.425 146.412C137.758 146.551 137.148 146.892 136.674 147.39C136.201 147.888 135.887 148.519 135.773 149.202C135.322 151.634 137.676 153.708 137.676 153.708C137.676 153.708 142.637 155.441 144.12 151.377C145.603 147.314 140.826 146.257 138.425 146.412Z" fill="white"/>
<g style="mix-blend-mode:multiply" opacity="0.5">
<path d="M137.676 153.708C137.676 153.708 141.911 155.177 143.723 152.216C141.234 150.808 138.574 149.74 135.811 149.039C135.795 149.092 135.782 149.146 135.773 149.202C135.322 151.634 137.676 153.708 137.676 153.708Z" fill="#92E3A9"/>
</g>
<path d="M138.425 146.412C137.758 146.551 137.148 146.892 136.674 147.39C136.201 147.888 135.887 148.519 135.773 149.202C135.322 151.634 137.676 153.708 137.676 153.708C137.676 153.708 142.637 155.441 144.12 151.377C145.603 147.314 140.826 146.257 138.425 146.412Z" stroke="#263238" stroke-linecap="round" stroke-linejoin="round"/>
<path d="M153.08 152.03C154.465 152.256 155.742 152.932 156.718 153.957C158.163 155.612 156.986 156.288 156.061 156.047C155.136 155.806 152.093 151.237 153.08 152.03Z" fill="white" stroke="#263238" stroke-linecap="round" stroke-linejoin="round"/>
<path d="M152.116 151.727C153.459 152.146 154.631 152.997 155.457 154.151C156.665 155.985 155.403 156.482 154.524 156.125C153.645 155.767 151.245 150.802 152.116 151.727Z" fill="white" stroke="#263238" stroke-linecap="round" stroke-linejoin="round"/>
<path d="M143.463 148.106C143.463 148.106 141.17 148.961 140.917 150.437C140.876 150.898 140.929 151.363 141.074 151.801C141.219 152.24 141.452 152.643 141.758 152.986C141.758 152.986 144.052 154.85 144.923 155.045C145.794 155.239 147.751 156.373 147.981 155.293C148.21 154.213 145.886 153.258 145.886 153.258C145.886 153.258 150.328 153.53 150.473 154.439C150.618 155.348 152.223 156.288 153.645 156.311C155.067 156.334 153.347 153.413 153.003 152.683C152.659 151.952 146.307 148.16 143.463 148.106Z" fill="white" stroke="#263238" stroke-linecap="round" stroke-linejoin="round"/>
<path d="M70.666 102.31C70.666 102.31 56.6921 110.57 55.599 111.114C54.5058 111.658 53.4203 120.204 53.4203 121.013C53.4203 121.821 67.3942 153.918 67.3942 153.918C67.3942 153.918 70.8341 156.878 80.9017 156.878C90.9693 156.878 91.7491 155.324 91.7491 155.324L92.5517 141.781C92.5517 141.781 95.9917 132.629 96.2592 131.012C96.5268 129.396 93.4385 109.56 93.4385 109.56L79.1435 99.8706C79.1435 99.8706 73.3185 96.3897 70.666 102.31Z" fill="white"/>
<g style="mix-blend-mode:multiply" opacity="0.5">
<path d="M57.0208 116.988C58.1139 115.208 68.1739 108.542 68.1739 108.542L71.8891 106.32L76.6515 98.9771C74.7404 98.6197 72.1872 98.9149 70.666 102.31C70.666 102.31 56.6615 110.57 55.599 111.106C54.5364 111.642 53.4203 120.197 53.4203 121.005C53.4203 121.183 54.0777 122.831 55.1021 125.309C55.4996 121.634 56.2564 118.231 57.0208 116.988Z" fill="#92E3A9"/>
</g>
<path d="M70.666 102.31C70.666 102.31 56.6921 110.57 55.599 111.114C54.5058 111.658 53.4203 120.204 53.4203 121.013C53.4203 121.821 67.3942 153.918 67.3942 153.918C67.3942 153.918 70.8341 156.878 80.9017 156.878C90.9693 156.878 91.7491 155.324 91.7491 155.324L92.5517 141.781C92.5517 141.781 95.9917 132.629 96.2592 131.012C96.5268 129.396 93.4385 109.56 93.4385 109.56L79.1435 99.8706C79.1435 99.8706 73.3185 96.3897 70.666 102.31Z" stroke="#263238" stroke-linecap="round" stroke-linejoin="round"/>
<path d="M75.3519 115.123L79.4263 119.591L78.5778 138.588L84.5404 140.189L85.1672 131.89L87.3612 140.507L91.7567 136.039L82.2548 119.272L83.5084 114.167L78.1727 108.107L74.7251 116.405" fill="#263238"/>
<path d="M75.3519 115.123L79.4263 119.591L78.5778 138.588L84.5404 140.189L85.1672 131.89L87.3612 140.507L91.7567 136.039L82.2548 119.272L83.5084 114.167L78.1727 108.107L74.7251 116.405" stroke="#263238" stroke-linecap="round" stroke-linejoin="round"/>
<path d="M67.9369 102.357C67.9369 102.357 68.8083 108.27 69.9703 110.904C71.1322 113.538 73.7542 118.006 73.7542 118.006L79.2811 112.38L84.8156 116.265C84.8156 116.265 84.2346 106.506 82.1936 102.07C80.1526 97.6329 70.2608 93.1885 67.9369 102.357Z" fill="white" stroke="#263238" stroke-linecap="round" stroke-linejoin="round"/>
<g style="mix-blend-mode:multiply" opacity="0.5">
<path d="M71.889 106.32L77.4159 97.7728C76.407 97.3237 75.3277 97.0606 74.2282 96.9958C73.2803 97.19 72.2101 97.4309 71.0787 97.6873C69.6951 98.4643 68.5484 99.925 67.9369 102.349C67.9369 102.349 68.3726 105.333 69.0453 108.013L71.889 106.32Z" fill="#92E3A9"/>
</g>
<path d="M81.6126 100.578C80.8643 102.253 80.4686 104.068 80.4507 105.908C80.4507 108.86 81.0316 112.124 81.0316 113.6V118.037C81.0316 118.037 77.5382 113.6 74.9162 110.344C72.2941 107.089 70.2607 104.129 70.5512 101.471C70.8417 98.8139 73.4637 88.4489 73.4637 88.4489C74.8487 88.4362 76.2097 88.8172 77.3929 89.549C78.5762 90.2808 79.5347 91.3342 80.1602 92.5903C82.4841 97.0269 81.6126 100.578 81.6126 100.578Z" fill="white" stroke="#263238" stroke-linecap="round" stroke-linejoin="round"/>
<g style="mix-blend-mode:multiply" opacity="0.5">
<path d="M72.5464 95.434L71.6749 95.8614C71.1398 98.1923 70.6659 100.422 70.5512 101.471C70.2684 104.035 72.1565 106.91 74.6409 110.018L74.9544 103.903L81.6126 100.601L76.2616 95.232L72.5464 95.434Z" fill="#92E3A9"/>
</g>
<path d="M87.2693 97.3998C87.2693 97.3998 85.343 101.028 87.4222 101.176C89.5015 101.324 89.0505 99.5132 89.3486 98.9149C89.6467 98.3167 90.9845 99.6919 90.243 102.536C89.5015 105.379 85.7863 107.369 83.5542 105.1C81.322 102.831 81.9259 100.438 82.6674 98.6119C83.4089 96.786 86.3979 95.8925 87.2693 97.3998Z" fill="#263238" stroke="#263238" stroke-linecap="round" stroke-linejoin="round"/>
<path d="M83.0956 65.3257C82.4458 65.2325 81.7655 65.1625 81.0622 65.1237C78.5013 64.9916 75.7112 65.1625 73.716 66.7864C69.5727 70.1586 70.2684 76.9339 70.5665 81.6502C70.9029 87.0037 70.8341 94.8124 74.7862 98.6896C81.4597 105.232 91.8942 98.2312 91.8942 90.4768C91.8942 87.1979 92.0165 82.2019 92.2306 81.083C92.5093 79.7009 92.7008 78.3021 92.8039 76.8951C93.2626 69.7545 89.2799 66.2192 83.0956 65.3257Z" fill="white" stroke="#263238" stroke-linecap="round" stroke-linejoin="round"/>
<g style="mix-blend-mode:multiply" opacity="0.5">
<path d="M85.5571 100.088C83.6899 100.062 81.8261 99.9163 79.9768 99.6531C77.1407 99.2102 73.2039 94.5405 75.1685 88.0993C77.1331 81.658 77.1407 78.317 77.1407 78.317L70.4519 74.0668C70.2985 76.594 70.3394 79.1295 70.5742 81.6502C70.9106 87.0037 70.8418 94.8124 74.7939 98.6896C78.0351 101.875 82.163 101.844 85.5571 100.088Z" fill="#92E3A9"/>
</g>
<path d="M81.7655 85.9936C82.1834 85.9936 82.5222 85.4022 82.5222 84.6727C82.5222 83.9432 82.1834 83.3519 81.7655 83.3519C81.3475 83.3519 81.0087 83.9432 81.0087 84.6727C81.0087 85.4022 81.3475 85.9936 81.7655 85.9936Z" fill="#263238"/>
<path d="M89.234 84.9991C89.1881 85.7294 88.8059 86.2966 88.3931 86.2656C87.9803 86.2345 87.6745 85.6284 87.7204 84.8981C87.7662 84.1677 88.1408 83.6005 88.5613 83.6316C88.9817 83.6627 89.2798 84.2687 89.234 84.9991Z" fill="#263238"/>
<path d="M79.4187 81.5104C79.4187 81.5104 80.9475 78.2315 83.4014 79.7777L79.4187 81.5104Z" fill="white"/>
<path d="M79.4187 81.5104C79.4187 81.5104 80.9475 78.2315 83.4014 79.7777" stroke="#263238" stroke-linecap="round" stroke-linejoin="round"/>
<path d="M87.3841 80.3527C87.3841 80.3527 89.1958 78.2393 90.2278 81.7046L87.3841 80.3527Z" fill="white"/>
<path d="M87.3841 80.3527C87.3841 80.3527 89.1958 78.2393 90.2278 81.7046" stroke="#263238" stroke-linecap="round" stroke-linejoin="round"/>
<path d="M86.2068 87.299C86.2068 87.4311 86.2068 87.5631 86.2068 87.6797C86.398 89.0316 87.3459 90.0107 86.9713 90.5701C86.5967 91.1295 84.678 91.3471 84.678 91.3471" fill="white"/>
<path d="M86.2068 87.299C86.2068 87.4311 86.2068 87.5631 86.2068 87.6797C86.398 89.0316 87.3459 90.0107 86.9713 90.5701C86.5967 91.1295 84.678 91.3471 84.678 91.3471" stroke="#263238" stroke-linecap="round" stroke-linejoin="round"/>
<path d="M83.967 94.4317C83.967 94.4317 80.6264 95.4807 79.3804 92.7379L83.967 94.4317Z" fill="white"/>
<path d="M83.967 94.4317C83.967 94.4317 80.6264 95.4807 79.3804 92.7379" stroke="#263238" stroke-linecap="round" stroke-linejoin="round"/>
<path d="M81.1157 87.905C83.2857 87.905 85.0449 86.117 85.0449 83.9113C85.0449 81.7056 83.2857 79.9176 81.1157 79.9176C78.9457 79.9176 77.1865 81.7056 77.1865 83.9113C77.1865 86.117 78.9457 87.905 81.1157 87.905Z" stroke="#263238" stroke-width="0.5" stroke-linecap="round" stroke-linejoin="round"/>
<path d="M90.006 87.905C91.9523 87.905 93.5301 86.117 93.5301 83.9113C93.5301 81.7056 91.9523 79.9176 90.006 79.9176C88.0598 79.9176 86.482 81.7056 86.482 83.9113C86.482 86.117 88.0598 87.905 90.006 87.905Z" stroke="#263238" stroke-width="0.5" stroke-linecap="round" stroke-linejoin="round"/>
<path d="M77.1865 83.9113L71.5756 84.1522" stroke="#263238" stroke-width="0.5" stroke-linecap="round" stroke-linejoin="round"/>
<path d="M93.5302 83.9113H92.093" stroke="#263238" stroke-width="0.5" stroke-linecap="round" stroke-linejoin="round"/>
<path d="M85.0372 82.6914H86.6654" stroke="#263238" stroke-width="0.5" stroke-linecap="round" stroke-linejoin="round"/>
<path d="M90.029 60.6094C87.0957 60.0887 84.1301 59.7772 81.1539 59.677C81.1539 59.677 75.9482 57.1829 68.923 59.9878C58.8707 63.9815 59.0924 77.6254 61.5844 86.32C62.3489 88.9462 64.1453 92.9321 62.4941 95.5661C61.4545 97.2289 58.4808 96.3431 58.9318 94.0588C59.3829 91.7744 60.1167 92.5514 60.713 92.2484C61.3092 91.9454 60.4148 91.6423 59.0771 91.1917C57.7393 90.741 56.5697 91.9687 56.4016 94.9601C55.9582 103.118 67.784 108.519 72.2942 101.386C74.1288 98.2778 72.5006 92.8777 71.7055 88.9539C71.4531 87.5957 71.2821 86.223 71.1934 84.8437C72.6205 84.7047 73.944 84.0252 74.9009 82.9401C75.6094 81.953 76.2141 80.8931 76.7049 79.7777C77.24 79.7777 77.7981 79.8166 78.4096 79.8787C84.5251 80.5003 86.375 69.9177 86.375 69.9177C86.375 69.9177 89.4328 75.8306 90.3501 78.0139L91.2674 80.1895C91.2674 80.1895 93.7212 80.5003 96.1674 75.209C98.6136 69.9177 95.8464 61.5651 90.029 60.6094Z" fill="#263238" stroke="#263238" stroke-linecap="round" stroke-linejoin="round"/>
<path d="M86.0233 67.4314C86.0233 67.4314 93.5453 70.0576 93.7747 74.5952C94.004 79.1328 92.8344 79.3659 92.8344 79.3659" stroke="white" stroke-width="0.5" stroke-miterlimit="10" stroke-linecap="round"/>
<path d="M85.0908 65.7608C85.0908 65.7608 92.1312 64.0903 94.4857 68.8688" stroke="white" stroke-width="0.5" stroke-miterlimit="10" stroke-linecap="round"/>
<path d="M76.3992 60.9823C76.3992 60.9823 83.4396 64.5642 84.6169 67.9131C85.7941 71.2619 79.6863 77.6954 75.6883 78.8919C71.6903 80.0885 68.6478 78.6511 65.8271 80.8033C63.0063 82.9556 64.1835 88.9151 64.1835 88.9151" stroke="white" stroke-width="0.5" stroke-miterlimit="10" stroke-linecap="round"/>
<path d="M62.043 82.233C62.043 82.233 60.1625 77.6954 64.1605 75.31C68.1585 72.9247 71.6749 75.31 76.1392 72.4429C80.6035 69.5758 81.3067 66.0017 81.3067 66.0017" stroke="white" stroke-width="0.5" stroke-miterlimit="10" stroke-linecap="round"/>
<path d="M72.3859 86.351C72.3859 86.351 69.9168 80.2517 67.44 82.4039C64.9632 84.5562 69.2058 90.2981 72.0266 89.5833" fill="white"/>
<path d="M72.3859 86.351C72.3859 86.351 69.9168 80.2517 67.44 82.4039C64.9632 84.5562 69.2058 90.2981 72.0266 89.5833" stroke="#263238" stroke-linecap="round" stroke-linejoin="round"/>
<g opacity="0.37">
<path d="M72.3859 86.351C72.3859 86.351 69.9168 80.2517 67.44 82.4039C64.9632 84.5562 69.2058 90.2981 72.0266 89.5833" fill="#92E3A9"/>
<path d="M72.3859 86.351C72.3859 86.351 69.9168 80.2517 67.44 82.4039C64.9632 84.5562 69.2058 90.2981 72.0266 89.5833" stroke="#263238" stroke-linecap="round" stroke-linejoin="round"/>
</g>
<path d="M57.3042 111.727C57.3042 111.727 56.104 110.811 53.4361 112.854C50.7683 114.898 48.2839 124.19 49.9503 128.13C51.6168 132.069 56.0658 152.55 58.1374 153.669C60.209 154.788 82.4846 154.695 85.1143 154.066C87.7439 153.436 89.5786 149.94 89.1352 146.917C88.6919 143.895 85.7564 143.11 84.8926 143.087C84.0288 143.063 66.2863 142.038 66.2863 142.038L60.7747 118.371" fill="white"/>
<g style="mix-blend-mode:multiply" opacity="0.5">
<path d="M85.8176 148.992C84.5486 147.399 64.3523 150.173 62.1966 148.992C60.0408 147.811 59.0012 145.565 60.576 144.05C62.1507 142.535 57.5641 142.193 57.6023 140.857C57.6405 139.52 60.2702 139.155 60.102 137.368C59.9338 135.581 54.2541 135.208 54.3917 130.095C54.5293 124.983 55.7906 118.798 56.9296 117.05C57.5604 116.313 58.2854 115.665 59.0853 115.123L57.3042 111.72C57.3042 111.72 56.104 110.803 53.4361 112.846C50.7683 114.89 48.2839 124.19 49.9503 128.13C51.6168 132.069 56.0658 152.55 58.1374 153.669C60.209 154.788 82.4846 154.695 85.1143 154.066C85.9643 153.789 86.7369 153.31 87.3673 152.668C87.9977 152.026 88.4676 151.239 88.7377 150.375C87.3235 149.963 86.1922 149.458 85.8176 148.992Z" fill="#92E3A9"/>
</g>
<path d="M57.3042 111.727C57.3042 111.727 56.104 110.811 53.4361 112.854C50.7683 114.898 48.2839 124.19 49.9503 128.13C51.6168 132.069 56.0658 152.55 58.1374 153.669C60.209 154.788 82.4846 154.695 85.1143 154.066C87.744 153.436 89.5786 149.94 89.1352 146.917C88.6919 143.895 85.7564 143.11 84.8926 143.087C84.0288 143.063 66.2863 142.038 66.2863 142.038L60.7747 118.371" stroke="#263238" stroke-linecap="round" stroke-linejoin="round"/>
<path d="M59.5357 146.405C60.8506 142.473 66.278 142.395 66.278 142.395C64.1134 141.819 61.85 141.737 59.6504 142.154" stroke="#263238" stroke-width="0.5" stroke-linecap="round" stroke-linejoin="round"/>
<path d="M88.1714 144.066C87.3681 144.415 86.6827 144.996 86.1993 145.735C85.7159 146.475 85.4554 147.342 85.45 148.23C85.3583 151.416 87.4376 152.007 87.9497 152.372C88.4619 152.737 91.5502 154.423 92.7962 153.39C94.0423 152.356 95.51 149.575 94.3251 147.244C93.1402 144.913 89.3869 144.097 88.1714 144.066Z" fill="white"/>
<g style="mix-blend-mode:multiply" opacity="0.5">
<path d="M92.7963 153.39C93.1138 153.116 93.3962 152.802 93.6372 152.457L91.0381 151.051C88.6531 150.383 86.3827 149.699 85.817 148.992C85.7185 148.886 85.5947 148.809 85.4577 148.767C85.603 151.486 87.4605 152.03 87.9498 152.372C88.439 152.714 91.5503 154.423 92.7963 153.39Z" fill="#92E3A9"/>
</g>
<path d="M88.1714 144.066C87.3681 144.415 86.6827 144.996 86.1993 145.735C85.7159 146.475 85.4554 147.342 85.45 148.23C85.3583 151.416 87.4376 152.007 87.9497 152.372C88.4619 152.737 91.5502 154.423 92.7962 153.39C94.0423 152.356 95.51 149.575 94.3251 147.244C93.1402 144.913 89.3869 144.097 88.1714 144.066Z" stroke="#263238" stroke-linecap="round" stroke-linejoin="round"/>
<path d="M92.4751 146.917C92.4751 146.917 90.5793 147.655 90.3194 149.108C90.0595 150.561 90.1513 151.346 90.48 151.439C90.8087 151.533 91.9018 152.038 91.9018 152.038L95.273 153.817C95.273 153.817 97.9485 156.925 98.8276 157.174C99.7067 157.422 98.9499 156.839 98.8276 156.163C98.445 155.195 97.9497 154.277 97.3522 153.428L101.343 157.018C101.343 157.018 102.657 157.5 102.352 156.482C102.046 155.464 100.005 153.374 100.005 153.374L103.773 156.847C103.773 156.847 104.538 157.205 104.538 156.754C104.581 156.528 104.565 156.295 104.493 156.077C104.421 155.859 104.294 155.664 104.125 155.511C103.697 155.161 101.129 152.17 101.129 152.17L104.706 154.4C104.706 154.4 105.471 155.433 106.006 155.449C106.541 155.464 106.235 155.115 105.83 153.895C105.425 152.675 102.703 150.888 101.732 150.188C100.762 149.489 95.4564 147.003 92.4751 146.917Z" fill="white" stroke="#263238" stroke-linecap="round" stroke-linejoin="round"/>
<path d="M263.51 145.985H233.651L239.025 128.27H268.884L263.51 145.985Z" fill="#263238" stroke="#263238" stroke-linecap="round" stroke-linejoin="round"/>
<path d="M261.163 147.655H231.312L236.686 129.932H266.537L261.163 147.655Z" fill="white" stroke="#263238" stroke-linecap="round" stroke-linejoin="round"/>
<path d="M218.263 140.639H267.462C268.678 140.639 269.845 141.13 270.705 142.005C271.565 142.879 272.048 144.065 272.048 145.301V158.339H218.263V140.639Z" fill="#263238" stroke="#263238" stroke-linecap="round" stroke-linejoin="round"/>
<path d="M263.242 140.639H209.434V158.362H263.242V140.639Z" fill="white" stroke="#263238" stroke-linecap="round" stroke-linejoin="round"/>
<path d="M251.134 153.607H208.149V155.946H251.134V153.607Z" fill="white" stroke="#263238" stroke-linecap="round" stroke-linejoin="round"/>
<path d="M251.133 151.268H217.323V153.607H251.133V151.268Z" fill="#263238" stroke="#263238" stroke-linecap="round" stroke-linejoin="round"/>
<path d="M208.325 156.637H174.407V158.246H208.325V156.637Z" fill="white" stroke="#263238" stroke-linecap="round" stroke-linejoin="round"/>
<path d="M234.408 99.7075H161.297V147.632H234.408V99.7075Z" fill="white" stroke="#263238" stroke-linecap="round" stroke-linejoin="round"/>
<path d="M234.408 99.7075H165.288V147.632H234.408V99.7075Z" fill="#263238" stroke="#263238" stroke-linecap="round" stroke-linejoin="round"/>
<path d="M209.113 121.976H193.113V158.976H209.113V121.976Z" fill="white" stroke="#263238" stroke-linecap="round" stroke-linejoin="round"/>
<path d="M210.588 121.976H194.588V158.976H210.588V121.976Z" fill="#263238" stroke="#263238" stroke-linecap="round" stroke-linejoin="round"/>
<path d="M193.526 122.411H210.962V147.749" stroke="white" stroke-linejoin="round"/>
<path d="M160.793 155.775H111.815V158.378H160.793V155.775Z" fill="white" stroke="#263238" stroke-linecap="round" stroke-linejoin="round"/>
<path d="M173.452 155.775H124.474V158.378H173.452V155.775Z" fill="white" stroke="#263238" stroke-linecap="round" stroke-linejoin="round"/>
<path d="M109.927 162.667H34.8826L31.3204 274.134C31.3007 274.442 31.3418 274.752 31.4411 275.044C31.5404 275.337 31.6959 275.606 31.8987 275.837C32.1015 276.068 32.3474 276.255 32.6222 276.388C32.8969 276.521 33.195 276.598 33.499 276.612C34.0612 276.596 34.5969 276.366 35.0003 275.967C35.4037 275.569 35.6453 275.031 35.6776 274.46L42.8404 183.374C42.9313 181.749 43.6173 180.218 44.7633 179.082C45.9093 177.946 47.4323 177.287 49.0323 177.235H95.7775C97.3767 177.287 98.8988 177.946 100.044 179.083C101.188 180.219 101.873 181.75 101.962 183.374L109.132 274.445C109.164 275.014 109.405 275.551 109.807 275.949C110.208 276.347 110.742 276.578 111.303 276.597C111.607 276.583 111.905 276.508 112.18 276.376C112.456 276.243 112.702 276.057 112.906 275.827C113.109 275.597 113.265 275.328 113.366 275.036C113.466 274.744 113.508 274.435 113.489 274.126L109.927 162.667Z" fill="#92E3A9" stroke="#263238" stroke-linecap="round" stroke-linejoin="round"/>
<path d="M110.095 167.795L109.927 162.667H85.3813H59.4287H34.8827L34.7146 167.795H110.095Z" fill="#263238" stroke="#263238" stroke-linecap="round" stroke-linejoin="round"/>
<path d="M280.824 162.667H205.757L202.202 274.134C202.183 274.442 202.225 274.751 202.325 275.042C202.425 275.334 202.581 275.602 202.783 275.832C202.986 276.062 203.232 276.249 203.506 276.381C203.78 276.514 204.077 276.59 204.381 276.605C204.942 276.586 205.475 276.355 205.877 275.957C206.279 275.558 206.52 275.022 206.552 274.452L213.737 183.374C213.828 181.749 214.514 180.218 215.66 179.082C216.806 177.946 218.329 177.287 219.929 177.235H266.674C268.274 177.287 269.796 177.946 270.941 179.083C272.085 180.219 272.77 181.75 272.859 183.374L280.029 274.445C280.058 275.017 280.297 275.557 280.699 275.959C281.101 276.36 281.637 276.594 282.2 276.612C282.503 276.597 282.801 276.522 283.075 276.389C283.349 276.256 283.595 276.07 283.798 275.84C284 275.61 284.156 275.341 284.256 275.05C284.356 274.758 284.397 274.45 284.379 274.142L280.824 162.667Z" fill="#92E3A9" stroke="#263238" stroke-linecap="round" stroke-linejoin="round"/>
<path d="M281.321 167.795L281.161 162.667H256.615H230.654H206.108L205.948 167.795H281.321Z" fill="#263238" stroke="#263238" stroke-linecap="round" stroke-linejoin="round"/>
<path d="M285.77 158.362H28.7978V164.236H285.77V158.362Z" fill="white" stroke="#263238" stroke-linecap="round" stroke-linejoin="round"/>
<path d="M285.778 158.362H101.595V164.236H285.778V158.362Z" fill="white" stroke="#263238" stroke-linecap="round" stroke-linejoin="round"/>
</svg>
