<svg width="594" height="586" viewBox="0 0 594 586" fill="none" xmlns="http://www.w3.org/2000/svg">
<path fill-rule="evenodd" clip-rule="evenodd" d="M236.57 0.449678C295.274 -4.6701 345.374 35.0446 397.372 62.77C459.009 95.6352 534.04 115.168 567.11 176.696C602.326 242.217 600.578 324.189 575.524 394.228C550.873 463.142 498.598 522.474 432.317 553.517C371.745 581.886 303.355 549.304 236.57 552.978C163.8 556.982 90.8712 606.107 24.5222 575.953C-45.0286 544.344 -90.7864 470.522 -108.418 396.188C-125.367 324.735 -108.744 246.296 -68.1949 185.071C-32.4903 131.16 39.6258 122.65 94.9317 89.1466C143.773 59.5597 179.682 5.41099 236.57 0.449678Z" fill="#E8FFEE"/>
<path d="M450.848 407.599C450.753 407.599 452.245 401.363 452.383 400.978C454.013 396.547 459.898 388.891 465.391 389.033C466.305 389.079 467.197 389.31 468.011 389.71C468.825 390.11 469.542 390.67 470.114 391.353C470.687 392.036 471.102 392.828 471.333 393.676C471.564 394.523 471.606 395.408 471.456 396.273C470.959 399.954 467.413 403.026 464.227 404.77C460.48 406.818 450.859 407.599 450.848 407.599Z" fill="#263238"/>
<path d="M451.462 382.229C451.366 382.229 453.822 376.266 454.023 375.912C456.341 371.754 463.359 365.041 468.767 365.984C469.662 366.164 470.507 366.521 471.248 367.034C471.989 367.547 472.608 368.204 473.067 368.962C473.525 369.719 473.812 370.561 473.908 371.431C474.004 372.302 473.908 373.183 473.626 374.015C472.567 377.595 468.556 380.099 465.158 381.367C461.104 382.858 451.472 382.229 451.462 382.229Z" fill="#263238"/>
<path d="M458.363 354.029C458.257 354.029 460.713 348.067 460.914 347.712C463.232 343.565 470.26 336.852 475.669 337.785C476.564 337.965 477.409 338.324 478.149 338.838C478.89 339.352 479.509 340.01 479.966 340.769C480.424 341.527 480.709 342.37 480.804 343.241C480.899 344.113 480.801 344.993 480.516 345.826C479.458 349.395 475.447 351.91 472.049 353.178C468.006 354.658 458.363 354.029 458.363 354.029Z" fill="#263238"/>
<path d="M463.518 327.138C463.412 327.138 465.867 321.176 466.069 320.81C468.387 316.663 475.415 309.95 480.823 310.894C481.718 311.073 482.563 311.43 483.304 311.943C484.045 312.456 484.664 313.113 485.123 313.871C485.581 314.628 485.868 315.47 485.964 316.341C486.06 317.211 485.964 318.092 485.682 318.924C484.623 322.504 480.601 325.008 477.214 326.276C473.16 327.756 463.518 327.138 463.518 327.138Z" fill="#263238"/>
<path d="M461.327 303.765C461.221 303.765 461.951 297.417 462.046 297.022C463.105 292.428 468.058 284.174 473.541 283.718C474.453 283.666 475.366 283.798 476.221 284.106C477.076 284.414 477.854 284.891 478.504 285.506C479.154 286.121 479.661 286.86 479.993 287.676C480.325 288.491 480.475 289.364 480.432 290.238C480.432 293.96 477.256 297.397 474.271 299.476C470.8 301.889 461.327 303.765 461.327 303.765Z" fill="#263238"/>
<path d="M448.181 406.91C448.276 406.91 447.218 400.603 447.123 400.217C445.8 395.685 440.454 387.674 434.961 387.471C434.047 387.461 433.14 387.636 432.301 387.984C431.461 388.332 430.708 388.846 430.09 389.492C429.472 390.138 429.003 390.901 428.713 391.732C428.423 392.563 428.32 393.444 428.409 394.316C428.653 398.027 431.987 401.312 435.046 403.249C438.623 405.531 448.17 406.91 448.181 406.91Z" fill="#263238"/>
<path d="M451.081 378.7C451.187 378.7 449.133 372.616 448.964 372.231C446.932 367.941 440.38 360.803 434.918 361.401C434.013 361.525 433.146 361.83 432.372 362.296C431.598 362.762 430.935 363.38 430.427 364.108C429.919 364.836 429.576 365.658 429.422 366.521C429.267 367.384 429.305 368.269 429.531 369.118C430.356 372.748 434.177 375.516 437.501 376.986C441.417 378.72 451.07 378.7 451.081 378.7Z" fill="#263238"/>
<path d="M457.644 352.113C457.739 352.113 455.696 346.029 455.527 345.653C453.505 341.364 446.953 334.226 441.492 334.824C440.587 334.947 439.719 335.25 438.945 335.715C438.171 336.181 437.508 336.797 436.999 337.524C436.489 338.251 436.146 339.072 435.99 339.935C435.834 340.797 435.869 341.682 436.094 342.53C436.93 346.171 440.74 348.929 444.074 350.409C447.98 352.133 457.633 352.113 457.644 352.113Z" fill="#263238"/>
<path d="M462.438 327.371C462.544 327.371 460.491 321.287 460.321 320.902C458.289 316.623 451.748 309.484 446.276 310.082C445.371 310.205 444.504 310.508 443.73 310.974C442.956 311.439 442.293 312.055 441.785 312.782C441.277 313.51 440.934 314.331 440.779 315.194C440.625 316.057 440.662 316.941 440.888 317.789C441.714 321.429 445.535 324.187 448.869 325.657C452.775 327.391 462.438 327.371 462.438 327.371Z" fill="#263238"/>
<path d="M461.125 304.525C461.231 304.525 458.501 298.675 458.278 298.32C455.77 294.264 448.445 287.865 443.079 289.042C442.193 289.259 441.366 289.653 440.65 290.197C439.934 290.742 439.346 291.425 438.924 292.202C438.503 292.979 438.257 293.832 438.203 294.707C438.15 295.581 438.289 296.456 438.612 297.275C439.851 300.794 443.957 303.146 447.44 304.252C451.525 305.56 461.125 304.525 461.125 304.525Z" fill="#263238"/>
<path d="M455.347 284.306C455.431 284.306 455.823 277.948 455.802 277.543C455.516 272.838 452.097 263.914 446.773 262.586C445.883 262.389 444.959 262.374 444.062 262.541C443.165 262.709 442.315 263.056 441.567 263.559C440.82 264.062 440.191 264.71 439.722 265.462C439.253 266.213 438.954 267.05 438.845 267.92C438.253 271.6 440.772 275.494 443.323 278.06C446.318 280.98 455.336 284.296 455.347 284.306Z" fill="#263238"/>
<path d="M449.98 441.67C449.98 441.67 449.631 438.983 449.208 434.318C448.784 429.654 448.297 422.982 448.075 414.961C447.959 410.905 447.916 406.605 448.001 402.002C448.001 399.69 448.128 397.378 448.223 394.904C448.308 393.707 448.403 392.501 448.488 391.274C448.573 390.047 448.784 388.789 448.922 387.532C449.647 382.413 450.661 377.336 451.96 372.322C453.262 367.201 454.743 362.06 456.193 356.929C457.644 351.798 459.072 346.667 460.194 341.567C461.336 336.586 462.103 331.534 462.491 326.448C462.764 321.687 462.594 316.913 461.983 312.181C461.482 307.893 460.715 303.636 459.686 299.435C458.755 295.551 457.665 292.043 456.67 288.95C455.675 285.857 454.648 283.201 453.801 281.021C452.076 276.66 450.901 274.247 450.901 274.247C450.901 274.247 452.129 276.64 453.95 280.96C454.86 283.12 455.908 285.766 457.008 288.839C458.109 291.911 459.252 295.409 460.268 299.293C461.411 303.465 462.298 307.697 462.925 311.968C463.654 316.748 463.937 321.58 463.772 326.408C463.489 331.563 462.828 336.693 461.793 341.76C460.734 346.931 459.464 352.123 458.12 357.294C456.776 362.466 455.368 367.647 454.193 372.717C453.026 377.677 452.143 382.693 451.547 387.745C451.441 388.972 451.251 390.138 451.208 391.375C451.166 392.612 451.081 393.819 451.018 395.015C451.018 397.327 450.944 399.72 450.965 401.982C450.965 406.534 451.123 410.834 451.335 414.799C451.727 422.738 452.394 429.34 452.891 433.943C453.389 438.547 453.812 441.143 453.812 441.143C453.849 441.383 453.836 441.628 453.774 441.863C453.712 442.099 453.602 442.321 453.451 442.515C453.299 442.71 453.109 442.875 452.892 442.999C452.674 443.124 452.433 443.206 452.182 443.242C451.931 443.277 451.675 443.264 451.429 443.205C451.184 443.146 450.952 443.04 450.749 442.895C450.545 442.75 450.374 442.568 450.244 442.36C450.114 442.151 450.028 441.92 449.991 441.68V441.67H449.98Z" fill="#263238"/>
<path d="M438.21 431.195H464.597V436.428H462.3L457.537 464.982H445.281L440.507 436.428H438.21V431.195Z" fill="#263238" stroke="#263238" stroke-linecap="round" stroke-linejoin="round"/>
<path d="M264.339 450.289C264.339 450.289 263.429 455.43 264.096 456.586C264.763 457.742 265.832 459.263 265.832 459.263H274.236L274.691 456.779C275.85 458.011 277.272 458.99 278.861 459.648C281.095 460.409 283.254 459.648 285.868 459.841C288.08 460.003 293.277 459.841 293.277 459.841L293.129 457.154L277.962 450.644L272.532 446.588C272.532 446.588 267.769 450.705 264.339 450.289Z" fill="#263238" stroke="#263238" stroke-linecap="round" stroke-linejoin="round"/>
<path d="M201.743 450.289C201.743 450.289 203.182 454.477 202.653 455.623C202.124 456.769 201.256 459.263 201.256 459.263H192.862L192.121 456.779C191.099 458.017 189.782 459.001 188.279 459.648C186.162 460.409 183.876 459.648 181.293 459.841C179.102 460.003 173.884 459.841 173.884 459.841L173.736 457.154L188.163 450.644L193.889 447.602C193.889 447.602 198.356 450.705 201.743 450.289Z" fill="#263238" stroke="#263238" stroke-linecap="round" stroke-linejoin="round"/>
<path d="M268.869 252.598C268.869 252.598 272.341 295.653 273.548 316.237C274.754 336.822 275.315 346.161 275.453 360.651C275.59 375.141 276.257 403.777 276.257 414.535C276.269 425.518 275.523 436.49 274.024 447.379L263.873 452.56C263.873 452.56 260.592 424.939 259.269 415.042C258.073 406.088 253.702 369.655 251.722 358.39C249.743 347.124 240.725 307.953 240.725 307.953C240.725 307.953 228.691 349.051 225.579 365.467C222.467 381.884 210.761 418.906 208.252 427.91C205.744 436.914 201.743 450.269 201.743 450.269C200.332 450.665 198.85 450.776 197.392 450.593C196.738 450.544 196.106 450.341 195.553 450.004C194.999 449.666 194.541 449.204 194.217 448.657C194.217 448.657 197.17 421.704 198.387 408.603C199.901 392.379 200.377 370.842 202.219 361.827C204.061 352.813 203.997 335.544 206.135 323.954C207.352 317.373 213.544 254.413 213.544 254.413C213.544 254.413 247.88 267.727 268.869 252.598Z" fill="#263238" stroke="#263238" stroke-linecap="round" stroke-linejoin="round"/>
<path d="M274.024 447.379L266.117 453.524" stroke="white" stroke-width="0.5" stroke-linecap="round" stroke-linejoin="round"/>
<path d="M193.9 447.582L200.176 452.195" stroke="white" stroke-width="0.5" stroke-linecap="round" stroke-linejoin="round"/>
<path d="M245.911 267.088L245.276 292.195L249.722 287.947" stroke="white" stroke-width="0.5" stroke-linecap="round" stroke-linejoin="round"/>
<path d="M243.138 307.223L255.766 292.175" stroke="white" stroke-width="0.5" stroke-linecap="round" stroke-linejoin="round"/>
<path d="M259.269 293.27L248.738 303.167" stroke="white" stroke-width="0.5" stroke-linecap="round" stroke-linejoin="round"/>
<path d="M235.623 294.375C232.366 287.466 226.798 281.793 219.8 278.253" stroke="white" stroke-width="0.5" stroke-linecap="round" stroke-linejoin="round"/>
<path d="M251.68 260.295L251.077 263.235L246.166 264.33L246.727 260.67" stroke="white" stroke-width="0.5" stroke-linecap="round" stroke-linejoin="round"/>
<path d="M246.166 264.33C246.166 264.33 236.968 263.965 232.3 262.495L233.284 259.564" stroke="white" stroke-width="0.5" stroke-linecap="round" stroke-linejoin="round"/>
<path d="M229.03 258.834L228.098 262.495C228.098 262.495 220.805 262.13 219.631 261.035" stroke="white" stroke-width="0.5" stroke-linecap="round" stroke-linejoin="round"/>
<path d="M251.077 263.205C253.58 263.134 256.033 262.509 258.243 261.379L261.577 259.544L260.285 256.979" stroke="white" stroke-width="0.5" stroke-linecap="round" stroke-linejoin="round"/>
<path d="M273.399 168.344C273.399 168.344 280.047 173.871 282.036 177.521C284.026 181.172 310.149 232.196 310.043 235.685C309.937 239.173 306.074 245.825 299.257 245.825C292.441 245.825 266.604 206.055 266.604 206.055L273.399 168.344Z" fill="white"/>
<g style="mix-blend-mode:multiply" opacity="0.5">
<path d="M274.214 174.469L274.659 174.702C275.442 175.138 277.199 176.122 279.126 177.349C281.302 178.948 283.287 180.775 285.042 182.794C285.042 182.794 282.65 176.71 279.147 173.8C277.198 172.196 275.386 170.446 273.728 168.567L274.214 174.469Z" fill="#92E3A9"/>
</g>
<path d="M273.399 168.344C273.399 168.344 280.047 173.871 282.036 177.521C284.026 181.172 310.149 232.196 310.043 235.685C309.937 239.173 306.074 245.825 299.257 245.825C292.441 245.825 266.604 206.055 266.604 206.055L273.399 168.344Z" stroke="#263238" stroke-linecap="round" stroke-linejoin="round"/>
<path opacity="0.5" d="M290.049 221.701C289.17 220.687 282.64 210.618 281.973 206.856C281.306 203.094 283.031 198.278 283.031 195.763C283.031 193.248 278.882 200.154 278.66 199.322C278.438 198.491 275.823 189.486 275.823 189.486L267.811 199.413L266.615 206.075C266.615 206.075 276.734 221.641 285.984 233.291C292.568 231.263 302.507 228.171 304.645 226.934C307.958 225.058 290.927 222.756 290.049 221.701Z" fill="#92E3A9"/>
<path d="M241.487 161.449L273.442 168.344C273.442 168.344 275.665 184.031 275.411 192.508C275.157 200.985 268.573 253.409 268.573 253.409C268.573 253.409 251.638 269.958 213.618 254.423C213.618 254.423 212.295 251.98 211.798 233.707C211.322 215.688 197.181 182.226 198.313 178.413C200.642 170.595 228.606 163.082 232.279 162.869C235.377 162.586 238.453 162.112 241.487 161.449Z" fill="white" stroke="#263238" stroke-linecap="round" stroke-linejoin="round"/>
<g style="mix-blend-mode:multiply" opacity="0.5">
<path d="M244.377 253.318L215.111 242.326L220.17 189.071L253.458 203.997L273.41 195.398L259.142 250.976L244.377 253.318Z" fill="#92E3A9"/>
</g>
<g style="mix-blend-mode:multiply" opacity="0.5">
<path d="M253.035 170.646C254.401 170.646 267.028 173.07 274.204 174.469C273.791 170.879 273.432 168.385 273.432 168.385L241.477 161.49C238.443 162.156 235.367 162.634 232.269 162.919C228.596 163.132 200.632 170.646 198.303 178.464C197.933 179.732 199.224 184.234 201.14 190.348C203.934 183.443 206.432 177.754 207.289 176.953C209.216 175.108 228.458 170.322 228.458 170.322L253.035 170.646Z" fill="#92E3A9"/>
</g>
<path d="M250.167 177.105L245.774 186.515L255.406 251.716L248.346 260.842L241.646 253.399L243.519 187.347L234.65 177.43L240.323 167.148L250.167 177.105Z" fill="#263238"/>
<path d="M284.196 198.176L258.592 211.784L225.664 195.276L220.446 241.87L253.056 256.928L277.75 242.691L284.196 198.176Z" fill="#92E3A9" stroke="#263238" stroke-linecap="round" stroke-linejoin="round"/>
<path d="M257.618 222.249L258.592 214.766" stroke="#263238" stroke-width="0.5" stroke-linecap="round" stroke-linejoin="round"/>
<path d="M253.056 256.928L257.078 226.356" stroke="#263238" stroke-width="0.5" stroke-linecap="round" stroke-linejoin="round"/>
<path d="M244.461 158.833C244.461 158.833 250.23 158.833 252.739 162.483C255.247 166.134 260.063 180.563 260.063 180.563L242.704 175.888L232.183 186.302C232.183 186.302 222.541 172.613 226.468 163.923C230.395 155.233 244.461 158.833 244.461 158.833Z" fill="white" stroke="#263238" stroke-linecap="round" stroke-linejoin="round"/>
<g style="mix-blend-mode:multiply" opacity="0.5">
<path d="M254.496 165.86C253.999 164.694 253.411 163.565 252.739 162.483C250.23 158.782 244.461 158.833 244.461 158.833C244.461 158.833 230.416 155.233 226.468 163.903C225.198 166.712 225.409 170.048 226.14 173.272C226.828 171.549 228.384 168.091 230.374 166.174C233.062 163.599 233.38 165.84 233.38 165.84L248.431 164.694C250.424 165.206 252.45 165.596 254.496 165.86Z" fill="#92E3A9"/>
</g>
<path d="M246.938 150.437C246.938 150.437 247.912 169.622 245.382 173.404C242.853 177.187 239.974 175.736 237.867 173.404C235.761 171.072 233.38 165.86 233.38 165.86L230.808 151.664C230.808 151.664 245.795 154.311 246.938 150.437Z" fill="white" stroke="#263238" stroke-linecap="round" stroke-linejoin="round"/>
<g style="mix-blend-mode:multiply" opacity="0.5">
<path d="M241.508 165.86C243.688 165.262 245.624 164.037 247.054 162.351C247.054 161.267 247.054 160.192 247.054 159.147C244.588 156.44 238.926 151.329 232.617 152.972C232.077 153.114 231.559 153.276 231.083 153.438L233.369 165.86C233.369 165.86 235.761 171.113 237.857 173.404L235.74 164.349C236.478 165.064 237.4 165.58 238.413 165.845C239.425 166.11 240.493 166.115 241.508 165.86Z" fill="#92E3A9"/>
</g>
<path d="M255.766 132.986C255.766 132.986 258.666 132.783 258.73 137.417C258.793 142.051 255.946 145.945 253.988 144.333C252.03 142.72 255.226 130.877 255.766 132.986Z" fill="white" stroke="#263238" stroke-linecap="round" stroke-linejoin="round"/>
<path d="M235.857 108.994C222.658 111.976 219.122 120.149 219.228 127.551C219.228 130.38 220.594 135.278 222.404 140.439L222.171 139.972C222.171 139.972 218.202 133.341 217.619 137.326C217.037 141.311 220.964 145.438 222.266 146.766C222.627 147.085 223.093 147.274 223.584 147.299C224.074 147.325 224.559 147.187 224.955 146.908C227.579 152.992 230.511 158.437 232.427 159.918C236.576 163.132 242.408 164.785 247.044 160.932C251.68 157.079 256.263 135.105 256.263 135.105C257.364 112.878 249.055 106.034 235.857 108.994Z" fill="white"/>
<g style="mix-blend-mode:multiply" opacity="0.5">
<path d="M228.828 132.398C228.828 132.398 233.433 128.717 238.048 128.717C242.662 128.717 252.273 132.773 253.416 136.079C254.115 138.107 253.289 144.647 252.516 149.616C254.739 142.619 256.306 135.136 256.306 135.136C257.364 112.919 249.045 106.054 235.857 109.035C222.668 112.016 219.122 120.189 219.228 127.591C219.228 130.42 220.594 135.318 222.404 140.479L222.171 140.013C222.171 140.013 218.202 133.381 217.619 137.366C217.037 141.351 220.964 145.478 222.266 146.807C222.627 147.126 223.093 147.314 223.584 147.34C224.074 147.366 224.559 147.228 224.955 146.949C227.579 153.033 230.511 158.478 232.427 159.958C232.427 159.958 228.013 150.437 226.479 146.391C224.944 142.345 225.367 135.308 228.828 132.398Z" fill="#92E3A9"/>
</g>
<path d="M235.857 108.994C222.658 111.976 219.122 120.149 219.228 127.551C219.228 130.38 220.594 135.278 222.404 140.439L222.171 139.972C222.171 139.972 218.202 133.341 217.619 137.326C217.037 141.311 220.964 145.438 222.266 146.766C222.627 147.085 223.093 147.274 223.584 147.299C224.074 147.325 224.559 147.187 224.955 146.908C227.579 152.992 230.511 158.437 232.427 159.918C236.576 163.132 242.408 164.785 247.044 160.932C251.68 157.079 256.263 135.105 256.263 135.105C257.364 112.878 249.055 106.034 235.857 108.994Z" stroke="#263238" stroke-linecap="round" stroke-linejoin="round"/>
<path d="M251.373 141.574C250.712 142.527 249.687 143.192 248.519 143.427C247.351 143.662 246.133 143.449 245.128 142.832" stroke="#263238" stroke-linecap="round" stroke-linejoin="round"/>
<path d="M237.285 142.913C236.624 143.865 235.6 144.531 234.431 144.766C233.263 145.001 232.046 144.787 231.041 144.17" stroke="#263238" stroke-linecap="round" stroke-linejoin="round"/>
<path d="M237.963 139.851C236.257 139.031 234.41 138.512 232.512 138.32C229.993 138.218 227.516 140.185 227.516 140.185" stroke="#263238" stroke-linecap="round" stroke-linejoin="round"/>
<path d="M244.039 150.092C243.949 150.708 243.61 151.266 243.096 151.645C242.581 152.025 241.931 152.195 241.287 152.12C240.613 152.14 239.948 151.981 239.363 151.66C238.778 151.34 238.297 150.871 237.974 150.305" stroke="#263238" stroke-linecap="round" stroke-linejoin="round"/>
<path d="M246.261 154.99C246.261 154.99 240.08 156.754 236.11 155.223C236.629 156.116 237.338 156.895 238.192 157.508C239.045 158.121 240.024 158.555 241.064 158.782C243.414 159.381 246.261 154.99 246.261 154.99Z" fill="#263238"/>
<path d="M252.146 137.184C252.146 137.184 249.828 136.991 247.637 137.012C245.626 137.012 243.625 139.516 243.625 139.516L242.916 142.558" stroke="#263238" stroke-linecap="round" stroke-linejoin="round"/>
<path d="M233.073 126.243C237.873 130.094 243.118 133.404 248.706 136.109C257.809 140.469 264.795 132.053 260.529 127.916C256.263 123.779 266.086 132.459 267.631 127.267C269.177 122.075 255.036 104.259 240.831 104.006C226.627 103.752 223.187 112.28 223.187 112.28C223.187 112.28 221.515 107.889 220.255 110.313C219.523 111.632 219.103 113.089 219.027 114.582C219.027 114.582 216.148 116.61 214.878 117.816C213.608 119.023 215.238 120.301 215.238 120.301C215.238 120.301 212.698 126.385 214.053 131.08L221.345 141.22C222.225 141.192 223.087 140.971 223.863 140.574C224.639 140.177 225.31 139.613 225.823 138.928C227.728 136.535 226.331 129.072 226.331 129.072C226.331 129.072 226.447 137.103 228.68 135.338C230.914 133.574 227.622 125.726 227.622 125.726L233.073 126.243Z" fill="#263238"/>
<path d="M226.732 117.948C226.732 117.948 233.231 122.633 237.931 126.912C242.63 131.191 249.796 132.834 251.923 131.891" stroke="white" stroke-width="0.5" stroke-miterlimit="10" stroke-linecap="round"/>
<path d="M246.812 123.839C246.812 123.839 237.497 121.811 235.306 117.938C233.115 114.064 226.331 114.521 226.331 114.521C228.025 113.023 230.093 111.969 232.336 111.457C234.579 110.946 236.921 110.995 239.138 111.6" stroke="white" stroke-width="0.5" stroke-miterlimit="10" stroke-linecap="round"/>
<path d="M223.197 119.865C223.197 119.865 230.479 130.38 225.886 133.615" stroke="white" stroke-width="0.5" stroke-miterlimit="10" stroke-linecap="round"/>
<path d="M198.313 178.424C198.313 178.424 178.552 230.037 179.462 235.796C180.372 241.556 190.745 239.264 194.016 238.483C197.286 237.702 209.893 218.538 209.977 214.411C210.792 213.923 211.488 213.274 212.021 212.509C212.554 211.743 212.911 210.877 213.068 209.969C213.841 206.643 214.37 194.759 209.353 185.846" fill="white"/>
<g style="mix-blend-mode:multiply" opacity="0.5">
<path d="M198.313 178.424C198.313 178.424 178.552 230.037 179.462 235.796C179.97 238.95 183.315 239.68 186.765 239.578C189.179 233.058 190.121 221.144 191.931 215.242C193.931 208.641 200.451 191.555 204.42 182.571L198.313 178.424Z" fill="#92E3A9"/>
</g>
<path d="M198.313 178.424C198.313 178.424 178.552 230.037 179.462 235.796C180.372 241.556 190.745 239.264 194.016 238.483C197.286 237.702 209.893 218.538 209.977 214.411C210.792 213.923 211.488 213.274 212.021 212.509C212.554 211.743 212.911 210.877 213.068 209.969C213.841 206.643 214.37 194.759 209.353 185.846" stroke="#263238" stroke-linecap="round" stroke-linejoin="round"/>
<path d="M213.248 231.081C213.248 231.081 187.845 229.601 184.585 229.347C181.325 229.094 177.42 233.403 180.489 239.365C183.559 245.328 188.438 245.673 194.429 244.588C200.42 243.503 213.65 235.766 213.65 235.766L213.248 231.081Z" fill="white"/>
<path opacity="0.5" d="M213.248 231.081C213.248 231.081 187.845 229.601 184.585 229.347C181.325 229.094 177.42 233.403 180.489 239.365C183.559 245.328 188.438 245.673 194.429 244.588C200.42 243.503 213.65 235.766 213.65 235.766L213.248 231.081Z" fill="#92E3A9" stroke="#263238" stroke-linecap="round" stroke-linejoin="round"/>
<path d="M213.248 231.081C213.248 231.081 187.845 229.601 184.585 229.347C181.325 229.094 177.42 233.403 180.489 239.365C183.559 245.328 188.438 245.673 194.429 244.588C200.42 243.503 213.65 235.766 213.65 235.766L213.248 231.081Z" stroke="#263238" stroke-linecap="round" stroke-linejoin="round"/>
<path d="M217.302 225.149C217.302 225.149 220.583 221.813 221.451 221.884C222.319 221.955 228.691 221.62 229.23 223.05C229.77 224.48 228.913 223.851 228.034 224.328C227.156 224.804 222.795 225.342 222.795 225.342C222.795 225.342 226.553 225.636 227.685 226.275C228.818 226.913 233.612 231.152 233.591 231.983C233.57 232.815 232.988 232.997 231.824 232.997C230.659 232.997 231.517 233.799 231.199 234.6C230.882 235.401 228.585 235.228 228.585 235.228C228.585 235.228 228.786 238.007 227.05 237.865C225.314 237.723 222.202 235.553 222.202 235.553C222.202 235.553 215.778 237.804 213.47 237.631C211.955 237.566 210.449 237.892 209.109 238.574C211.05 233.698 213.818 229.161 217.302 225.149Z" fill="white"/>
<g style="mix-blend-mode:multiply" opacity="0.5">
<path d="M217.302 225.149C213.827 229.134 211.059 233.639 209.109 238.483C210.449 237.8 211.955 237.475 213.47 237.54C214.229 237.552 214.986 237.474 215.725 237.307C216.185 235.368 216.457 233.392 216.54 231.405C216.54 228.455 221.451 221.884 221.451 221.884C220.572 221.813 217.302 225.149 217.302 225.149Z" fill="#92E3A9"/>
</g>
<path d="M217.302 225.149C217.302 225.149 220.583 221.813 221.451 221.884C222.319 221.955 228.691 221.62 229.23 223.05C229.77 224.48 228.913 223.851 228.034 224.328C227.156 224.804 222.795 225.342 222.795 225.342C222.795 225.342 226.553 225.636 227.685 226.275C228.818 226.913 233.612 231.152 233.591 231.983C233.57 232.815 232.988 232.997 231.824 232.997C230.659 232.997 231.517 233.799 231.199 234.6C230.882 235.401 228.585 235.228 228.585 235.228C228.585 235.228 228.786 238.007 227.05 237.865C225.314 237.723 222.202 235.553 222.202 235.553C222.202 235.553 215.778 237.804 213.47 237.631C211.955 237.566 210.449 237.892 209.109 238.574C211.05 233.698 213.818 229.161 217.302 225.149Z" stroke="#263238" stroke-linecap="round" stroke-linejoin="round"/>
<path d="M231.824 232.906L226.161 228.597L221.546 227.958" stroke="#263238" stroke-linecap="round" stroke-linejoin="round"/>
<path d="M228.574 235.137L222.298 231.882L219.419 231.385" stroke="#263238" stroke-linecap="round" stroke-linejoin="round"/>
<path d="M286.863 221.042C286.863 221.042 283.582 217.716 282.714 217.777C281.846 217.838 275.474 217.524 274.934 218.943C274.394 220.363 275.252 219.744 276.13 220.231C277.842 220.705 279.596 221.028 281.369 221.194C281.369 221.194 277.612 221.488 276.479 222.137C275.347 222.786 270.552 227.015 270.573 227.836C270.594 228.657 271.177 228.85 272.341 228.85C273.505 228.85 272.648 229.651 272.965 230.452C273.283 231.253 275.58 231.071 275.58 231.071C275.58 231.071 275.379 233.849 277.115 233.717C278.85 233.586 281.962 231.405 281.962 231.405C281.962 231.405 288.387 233.657 290.694 233.433C292.211 233.366 293.719 233.695 295.055 234.387C293.107 229.538 290.339 225.03 286.863 221.042Z" fill="white" stroke="#263238" stroke-linecap="round" stroke-linejoin="round"/>
<path d="M272.341 228.799L277.993 224.5L282.608 223.861" stroke="#263238" stroke-linecap="round" stroke-linejoin="round"/>
<path d="M275.58 231.03L281.856 227.785L284.735 227.278" stroke="#263238" stroke-linecap="round" stroke-linejoin="round"/>
<path d="M290.642 226.092C290.642 226.092 301.533 224.896 305.269 227.583C309.006 230.27 308.381 237.114 308.381 237.114" stroke="#263238" stroke-linecap="round" stroke-linejoin="round"/>
<path d="M204.6 446.74C204.6 446.74 205.765 444.519 209.48 444.965C213.195 445.412 215.524 449.64 212.962 450.968C210.401 452.297 204.6 446.74 204.6 446.74Z" fill="#92E3A9" stroke="#263238" stroke-linecap="round" stroke-linejoin="round"/>
<path d="M210.094 343.473C210.094 343.473 218.836 345.157 223.038 347.834C227.24 350.511 227.928 351.18 228.976 356.544C230.024 361.908 226.182 376.307 226.182 383.679C226.182 391.051 220.583 435.941 220.583 439.642C220.583 443.343 224.436 451.029 224.086 453.706C223.938 455.631 224.175 457.565 224.785 459.405C224.785 459.405 227.23 461.078 224.086 461.433C220.943 461.788 220.583 462.102 217.789 460.764C214.994 459.425 213.555 452.723 211.141 450.715C208.728 448.707 207.299 446.365 207.299 444.682C207.299 442.998 212.888 436.651 212.888 436.651C212.888 436.651 212.189 427.271 211.829 419.23C211.47 411.189 207.596 393.434 207.596 385.768C207.596 378.102 212.888 359.971 212.888 359.971C212.888 359.971 199.308 361.563 194.016 358.217C188.724 354.871 194.714 340.127 210.094 343.473Z" fill="white" stroke="#263238" stroke-linecap="round" stroke-linejoin="round"/>
<path d="M211.142 450.674C211.142 450.674 204.791 445.452 204.601 446.781C204.41 448.109 204.368 458.584 204.833 459.689C205.299 460.794 217.842 461.92 224.351 463.035C230.861 464.151 228.299 460.135 226.902 459.243C225.505 458.35 211.142 450.674 211.142 450.674Z" fill="#92E3A9" stroke="#263238" stroke-linecap="round" stroke-linejoin="round"/>
<path opacity="0.2" d="M211.142 450.674C211.142 450.674 204.791 445.452 204.601 446.781C204.41 448.109 204.368 458.584 204.833 459.689C205.299 460.794 217.842 461.92 224.351 463.035C230.861 464.151 228.299 460.135 226.902 459.243C225.505 458.35 211.142 450.674 211.142 450.674Z" fill="black"/>
<path d="M212.962 456.576C214.234 455.116 215.72 453.842 217.376 452.794C219.342 451.456 221.549 450.476 223.885 449.904L226.902 455.46C224.822 455.931 222.8 456.611 220.869 457.488C219.403 458.339 218.074 459.387 216.921 460.601C216.921 460.601 213.428 458.361 212.962 456.576Z" fill="#263238" stroke="#263238" stroke-linecap="round" stroke-linejoin="round"/>
<path d="M219.239 450.35C218.945 450.385 218.662 450.478 218.407 450.621C218.153 450.765 217.931 450.958 217.757 451.186C217.582 451.415 217.458 451.676 217.393 451.952C217.327 452.229 217.322 452.515 217.376 452.794C217.609 455.024 217.842 462.143 218.773 462.366C219.704 462.589 231.316 464.394 235.497 464.587C239.677 464.779 244.324 464.81 244.324 462.812C244.324 460.814 243.625 459.922 242.705 459.922C241.784 459.922 239.677 459.253 236.894 457.701C234.11 456.15 227.368 450.137 225.251 449.914C223.134 449.691 220.403 448.342 219.239 450.35Z" fill="#92E3A9" stroke="#263238" stroke-linecap="round" stroke-linejoin="round"/>
<path opacity="0.2" d="M219.239 450.35C218.945 450.385 218.662 450.478 218.407 450.621C218.153 450.765 217.931 450.958 217.757 451.186C217.582 451.415 217.458 451.676 217.393 451.952C217.327 452.229 217.322 452.515 217.376 452.794C217.609 455.024 217.842 462.143 218.773 462.366C219.704 462.589 231.316 464.394 235.497 464.587C239.677 464.779 244.324 464.81 244.324 462.812C244.324 460.814 243.625 459.922 242.705 459.922C241.784 459.922 239.677 459.253 236.894 457.701C234.11 456.15 227.368 450.137 225.251 449.914C223.134 449.691 220.403 448.342 219.239 450.35Z" fill="black"/>
<path d="M121.84 459.922C121.84 458.919 121.53 457.939 120.948 457.105C120.367 456.272 119.54 455.622 118.573 455.238C117.606 454.854 116.542 454.754 115.516 454.949C114.489 455.145 113.546 455.628 112.806 456.337C112.066 457.046 111.562 457.949 111.358 458.933C111.153 459.916 111.258 460.936 111.659 461.862C112.059 462.789 112.738 463.581 113.608 464.138C114.478 464.695 115.501 464.992 116.548 464.992C117.952 464.992 119.298 464.458 120.29 463.507C121.283 462.556 121.84 461.267 121.84 459.922Z" fill="#263238" stroke="#263238" stroke-linecap="round" stroke-linejoin="round"/>
<path d="M116.548 462.447C118.01 462.447 119.194 461.312 119.194 459.912C119.194 458.512 118.01 457.377 116.548 457.377C115.087 457.377 113.902 458.512 113.902 459.912C113.902 461.312 115.087 462.447 116.548 462.447Z" fill="white" stroke="#263238" stroke-linecap="round" stroke-linejoin="round"/>
<path d="M178.552 459.922C178.552 458.919 178.241 457.939 177.66 457.105C177.078 456.272 176.252 455.622 175.285 455.238C174.318 454.854 173.254 454.754 172.227 454.949C171.2 455.145 170.257 455.628 169.517 456.337C168.777 457.046 168.273 457.949 168.069 458.933C167.865 459.916 167.97 460.936 168.37 461.862C168.771 462.789 169.449 463.581 170.319 464.138C171.19 464.695 172.213 464.992 173.26 464.992C174.663 464.992 176.009 464.458 177.002 463.507C177.994 462.556 178.552 461.267 178.552 459.922Z" fill="#263238" stroke="#263238" stroke-linecap="round" stroke-linejoin="round"/>
<path d="M175.906 459.922C175.906 459.421 175.751 458.931 175.46 458.514C175.169 458.097 174.756 457.772 174.272 457.58C173.789 457.388 173.257 457.338 172.743 457.436C172.23 457.534 171.759 457.775 171.389 458.13C171.018 458.484 170.766 458.936 170.664 459.428C170.562 459.919 170.615 460.429 170.815 460.892C171.015 461.355 171.354 461.751 171.79 462.03C172.225 462.308 172.736 462.457 173.26 462.457C173.961 462.457 174.634 462.19 175.131 461.715C175.627 461.239 175.906 460.594 175.906 459.922Z" fill="white" stroke="#263238" stroke-linecap="round" stroke-linejoin="round"/>
<path d="M197.086 459.922C197.086 458.919 196.775 457.939 196.194 457.105C195.612 456.272 194.786 455.622 193.819 455.238C192.852 454.854 191.788 454.754 190.761 454.949C189.734 455.145 188.791 455.628 188.051 456.337C187.311 457.046 186.807 457.949 186.603 458.933C186.399 459.916 186.504 460.936 186.904 461.862C187.305 462.789 187.983 463.581 188.853 464.138C189.724 464.695 190.747 464.992 191.793 464.992C193.197 464.992 194.543 464.458 195.536 463.507C196.528 462.556 197.086 461.267 197.086 459.922Z" fill="#263238" stroke="#263238" stroke-linecap="round" stroke-linejoin="round"/>
<path d="M194.439 459.922C194.441 459.418 194.287 458.924 193.996 458.504C193.705 458.084 193.29 457.756 192.804 457.563C192.318 457.369 191.783 457.317 191.267 457.415C190.75 457.513 190.276 457.756 189.904 458.112C189.532 458.469 189.278 458.923 189.176 459.418C189.074 459.913 189.128 460.425 189.33 460.891C189.532 461.356 189.875 461.753 190.313 462.032C190.752 462.311 191.267 462.459 191.793 462.457C192.495 462.457 193.168 462.19 193.664 461.715C194.16 461.239 194.439 460.594 194.439 459.922Z" fill="white" stroke="#263238" stroke-linecap="round" stroke-linejoin="round"/>
<path d="M165.046 372.88H153.848V454.112H165.046V372.88Z" fill="#263238" stroke="#263238" stroke-linecap="round" stroke-linejoin="round"/>
<path d="M168.042 415.326H150.874V454.112H168.042V415.326Z" fill="#263238" stroke="#263238" stroke-linecap="round" stroke-linejoin="round"/>
<path d="M115.458 452.581H194.556C195.679 452.581 196.755 453.008 197.549 453.769C198.343 454.529 198.789 455.561 198.789 456.637V457.174H111.224V456.637C111.224 455.561 111.67 454.529 112.464 453.769C113.258 453.008 114.335 452.581 115.458 452.581Z" fill="#263238" stroke="#263238" stroke-linecap="round" stroke-linejoin="round"/>
<path d="M148.015 341.466H133.621V363.693H148.015V341.466Z" fill="#263238" stroke="#263238" stroke-linecap="round" stroke-linejoin="round"/>
<path d="M206.082 360.62H112.812C108.527 360.62 105.053 363.948 105.053 368.053V370.051C105.053 374.156 108.527 377.483 112.812 377.483H206.082C210.367 377.483 213.841 374.156 213.841 370.051V368.053C213.841 363.948 210.367 360.62 206.082 360.62Z" fill="#92E3A9" stroke="#263238" stroke-linecap="round" stroke-linejoin="round"/>
<path opacity="0.1" d="M206.082 360.62H112.812C108.527 360.62 105.053 363.948 105.053 368.053V370.051C105.053 374.156 108.527 377.483 112.812 377.483H206.082C210.367 377.483 213.841 374.156 213.841 370.051V368.053C213.841 363.948 210.367 360.62 206.082 360.62Z" fill="black"/>
<path d="M213.84 369.047C213.84 366.812 212.913 364.669 211.264 363.088C209.614 361.508 207.377 360.62 205.044 360.62H157.054C155.873 360.581 154.695 360.77 153.592 361.176C152.488 361.582 151.481 362.197 150.631 362.984C149.781 363.771 149.105 364.713 148.643 365.756C148.181 366.798 147.943 367.919 147.943 369.052C147.943 370.184 148.181 371.305 148.643 372.348C149.105 373.39 149.781 374.333 150.631 375.12C151.481 375.907 152.488 376.521 153.592 376.927C154.695 377.333 155.873 377.523 157.054 377.483H205.044C207.378 377.481 209.615 376.591 211.265 375.009C212.914 373.427 213.84 371.282 213.84 369.047Z" fill="#92E3A9" stroke="#263238" stroke-miterlimit="10"/>
<path opacity="0.1" d="M213.84 369.31C213.84 368.204 213.613 367.108 213.171 366.086C212.729 365.063 212.081 364.134 211.264 363.352C210.447 362.57 209.478 361.949 208.41 361.525C207.343 361.102 206.199 360.884 205.044 360.884H157.054C155.873 360.845 154.695 361.034 153.592 361.44C152.488 361.846 151.481 362.461 150.631 363.247C149.781 364.034 149.105 364.977 148.643 366.019C148.181 367.062 147.943 368.183 147.943 369.315C147.943 370.448 148.181 371.569 148.643 372.611C149.105 373.654 149.781 374.597 150.631 375.383C151.481 376.17 152.488 376.785 153.592 377.191C154.695 377.597 155.873 377.786 157.054 377.747H205.044C206.2 377.747 207.345 377.529 208.413 377.105C209.481 376.68 210.451 376.059 211.268 375.275C212.085 374.492 212.732 373.562 213.174 372.538C213.615 371.515 213.841 370.418 213.84 369.31Z" fill="black"/>
<path d="M169.174 341.476H113.076C111.765 341.476 110.466 341.225 109.258 340.737C108.049 340.249 106.955 339.534 106.04 338.634C105.124 337.735 104.406 336.668 103.928 335.498C103.449 334.329 103.22 333.079 103.254 331.823L104.641 279.429C104.701 276.973 105.763 274.637 107.599 272.922C109.435 271.207 111.899 270.249 114.463 270.252H160.749C163.097 270.248 165.369 271.051 167.152 272.516C168.935 273.98 170.111 276.008 170.465 278.232L178.88 330.667C179.09 332.005 178.996 333.371 178.605 334.672C178.214 335.972 177.535 337.177 176.613 338.203C175.692 339.229 174.55 340.052 173.267 340.617C171.983 341.182 170.587 341.475 169.174 341.476Z" fill="#92E3A9" stroke="#263238" stroke-linecap="round" stroke-linejoin="round"/>
<path opacity="0.1" d="M169.174 341.476H113.076C111.765 341.476 110.466 341.225 109.258 340.737C108.049 340.249 106.955 339.534 106.04 338.634C105.124 337.735 104.406 336.668 103.928 335.498C103.449 334.329 103.22 333.079 103.254 331.823L104.641 279.429C104.701 276.973 105.763 274.637 107.599 272.922C109.435 271.207 111.899 270.249 114.463 270.252H160.749C163.097 270.248 165.369 271.051 167.152 272.516C168.935 273.98 170.111 276.008 170.465 278.232L178.88 330.667C179.09 332.005 178.996 333.371 178.605 334.672C178.214 335.972 177.535 337.177 176.613 338.203C175.692 339.229 174.55 340.052 173.267 340.617C171.983 341.182 170.587 341.475 169.174 341.476Z" fill="black"/>
<path d="M150.852 374.796L126.254 390.31" stroke="#263238" stroke-linecap="round" stroke-linejoin="round"/>
<path d="M125.322 387.928L121.089 390.655C120.757 390.872 120.48 391.156 120.276 391.487C120.073 391.819 119.949 392.189 119.912 392.572C119.876 392.955 119.928 393.34 120.066 393.702C120.203 394.063 120.422 394.39 120.708 394.661L121.067 394.985C121.543 395.433 122.175 395.697 122.842 395.725C123.508 395.753 124.162 395.544 124.677 395.137L128.551 392.095C128.838 391.867 129.074 391.585 129.242 391.266C129.41 390.946 129.508 390.597 129.529 390.24C129.549 389.883 129.493 389.526 129.363 389.191C129.233 388.856 129.032 388.55 128.773 388.293C128.334 387.853 127.748 387.575 127.117 387.508C126.486 387.441 125.851 387.59 125.322 387.928Z" fill="#263238" stroke="#263238" stroke-linecap="round" stroke-linejoin="round"/>
<path d="M154.694 452.581H178.965C180.087 452.581 181.164 453.008 181.958 453.769C182.752 454.529 183.198 455.561 183.198 456.637V457.174H154.694V452.581Z" fill="#263238" stroke="#263238" stroke-linecap="round" stroke-linejoin="round"/>
<path d="M174.128 314.473C178.915 314.473 182.796 312.357 182.796 309.748C182.796 307.138 178.915 305.022 174.128 305.022C169.34 305.022 165.459 307.138 165.459 309.748C165.459 312.357 169.34 314.473 174.128 314.473Z" fill="white" stroke="#263238" stroke-linecap="round" stroke-linejoin="round"/>
<path d="M198.25 348.503C198.25 348.503 212.232 349.172 215.386 356.209C216.036 358.619 216.391 361.093 216.445 363.581C216.445 367.262 229.379 438.283 229.728 439.632C230.078 440.98 237.772 451.354 238.82 453.696C239.868 456.038 240.937 458.056 240.937 458.056C240.937 458.056 244.113 459.395 243.742 460.399C243.372 461.403 236.047 461.737 232.904 461.737C229.76 461.737 226.257 454.375 224.161 453.696C222.065 453.017 219.609 450.654 219.609 449.346C219.609 448.038 220.668 438.293 220.668 438.293C219.327 430.344 216.981 422.58 213.682 415.174C209.004 404.963 203.182 390.047 202.484 383.02C201.785 375.993 201.785 369.28 201.785 369.28L192.958 367.931C192.958 367.931 191.899 350.511 198.25 348.503Z" fill="white" stroke="#263238" stroke-linecap="round" stroke-linejoin="round"/>
<path d="M226.669 457.022C226.669 457.022 229.463 446.121 236.661 450.35L239.677 455.237C239.677 455.237 232.946 455.237 230.85 461.474C229.826 461.115 228.91 460.522 228.181 459.746C227.452 458.97 226.933 458.035 226.669 457.022Z" fill="#263238" stroke="#263238" stroke-linecap="round" stroke-linejoin="round"/>
<path d="M169.311 328.162L168.973 328.213C165.797 315.822 161.511 303.157 161.511 303.157C161.511 303.157 140.479 308.48 128.349 304.87C128.349 304.87 122.179 333.982 122.179 341.587C122.179 347.672 120.866 353.857 125.672 357.426C126.136 358.082 126.734 358.641 127.428 359.071C128.123 359.501 128.9 359.794 129.715 359.931C142.829 362.294 165.427 361.472 169.195 362.192C172.963 362.912 192.957 367.931 192.957 367.931C192.957 367.931 194.153 357.365 197.54 350.511C200.927 343.656 216.391 344.822 216.391 344.822L169.311 328.162Z" fill="#263238" stroke="#263238" stroke-linecap="round" stroke-linejoin="round"/>
<path d="M164.453 246.981C164.453 246.981 161.553 243.492 158.42 247.335C155.287 251.179 157.774 264.523 159.32 269.857C160.865 275.19 186.966 297.316 189.422 298.959C191.878 300.601 223.874 307.527 226.669 306.259C229.463 304.992 230.268 298.573 228.68 295.105C227.092 291.637 197.191 284.276 197.191 284.276L164.453 246.981Z" fill="white"/>
<g style="mix-blend-mode:multiply" opacity="0.5">
<path d="M189.422 298.979C191.878 300.611 223.874 307.547 226.669 306.28C228.278 305.55 229.22 303.096 229.431 300.49C224.488 298.583 218.624 297.296 215.904 297.448C211.956 297.661 214.602 301.189 208.273 300.196C201.943 299.202 194.725 296.14 188.162 292.55C181.6 288.96 169.819 278.354 169.819 278.354L179.06 279.368L168.528 276.255L177.684 272.959L169.819 272.513C170.323 271.32 170.558 270.038 170.507 268.751C170.507 266.145 165.321 256.472 165.321 256.472L159.817 270.962C163.659 277.573 187.104 297.427 189.422 298.979Z" fill="#92E3A9"/>
</g>
<path d="M164.453 246.981C164.453 246.981 161.553 243.492 158.42 247.335C155.287 251.179 157.774 264.523 159.32 269.857C160.865 275.19 186.966 297.316 189.422 298.959C191.878 300.601 223.874 307.527 226.669 306.259C229.463 304.992 230.267 298.573 228.68 295.105C227.092 291.637 197.191 284.276 197.191 284.276L164.453 246.981Z" stroke="#263238" stroke-linecap="round" stroke-linejoin="round"/>
<path d="M174.731 274.998L167.544 277.664L179.631 281.518" stroke="#263238" stroke-width="0.5" stroke-linecap="round" stroke-linejoin="round"/>
<path d="M226.743 295.075C225.819 295.256 224.974 295.701 224.318 296.351C223.663 297 223.228 297.825 223.07 298.715C222.445 301.889 225.706 304.596 225.706 304.596C225.706 304.596 232.575 306.858 234.628 301.554C236.682 296.251 230.066 294.872 226.743 295.075Z" fill="white"/>
<g style="mix-blend-mode:multiply" opacity="0.5">
<path d="M225.706 304.597C225.706 304.597 231.569 306.513 234.078 302.65C230.632 300.812 226.949 299.418 223.123 298.502C223.1 298.572 223.083 298.643 223.07 298.715C222.445 301.889 225.706 304.597 225.706 304.597Z" fill="#92E3A9"/>
</g>
<path d="M226.743 295.075C225.819 295.256 224.974 295.701 224.318 296.351C223.663 297 223.228 297.825 223.07 298.715C222.445 301.889 225.706 304.596 225.706 304.596C225.706 304.596 232.575 306.858 234.628 301.554C236.682 296.251 230.066 294.872 226.743 295.075Z" stroke="#263238" stroke-linecap="round" stroke-linejoin="round"/>
<path d="M247.034 302.406C248.952 302.701 250.72 303.583 252.072 304.921C254.072 307.081 252.442 307.963 251.162 307.649C249.881 307.334 245.668 301.372 247.034 302.406Z" fill="white" stroke="#263238" stroke-linecap="round" stroke-linejoin="round"/>
<path d="M245.7 302.011C247.558 302.557 249.182 303.668 250.325 305.174C251.997 307.568 250.251 308.216 249.034 307.75C247.816 307.284 244.493 300.804 245.7 302.011Z" fill="white" stroke="#263238" stroke-linecap="round" stroke-linejoin="round"/>
<path d="M233.718 297.286C233.718 297.286 230.543 298.401 230.194 300.328C230.136 300.929 230.21 301.535 230.41 302.108C230.611 302.681 230.933 303.207 231.358 303.654C231.358 303.654 234.533 306.087 235.74 306.341C236.946 306.594 239.656 308.075 239.974 306.665C240.291 305.256 237.073 304.008 237.073 304.008C237.073 304.008 243.223 304.363 243.424 305.55C243.625 306.736 245.848 307.963 247.817 307.993C249.785 308.024 247.404 304.211 246.928 303.258C246.451 302.305 237.656 297.357 233.718 297.286Z" fill="white" stroke="#263238" stroke-linecap="round" stroke-linejoin="round"/>
<path d="M132.922 237.52C132.922 237.52 113.574 248.299 112.06 249.009C110.547 249.718 109.044 260.872 109.044 261.927C109.044 262.982 128.392 304.87 128.392 304.87C128.392 304.87 133.155 308.734 147.095 308.734C161.035 308.734 162.114 306.706 162.114 306.706L163.226 289.031C163.226 289.031 167.989 277.086 168.359 274.977C168.73 272.868 164.453 246.981 164.453 246.981L144.66 234.336C144.66 234.336 136.595 229.793 132.922 237.52Z" fill="white"/>
<g style="mix-blend-mode:multiply" opacity="0.5">
<path d="M114.029 256.674C115.543 254.352 129.472 245.652 129.472 245.652L134.616 242.752L141.21 233.17C138.564 232.703 135.029 233.089 132.922 237.52C132.922 237.52 113.532 248.299 112.06 248.998C110.589 249.698 109.044 260.862 109.044 261.917C109.044 262.15 109.954 264.3 111.372 267.535C111.923 262.738 112.971 258.297 114.029 256.674Z" fill="#92E3A9"/>
</g>
<path d="M132.922 237.52C132.922 237.52 113.574 248.299 112.06 249.009C110.547 249.718 109.044 260.872 109.044 261.927C109.044 262.982 128.392 304.87 128.392 304.87C128.392 304.87 133.155 308.734 147.095 308.734C161.035 308.734 162.114 306.706 162.114 306.706L163.226 289.031C163.226 289.031 167.989 277.086 168.359 274.977C168.73 272.868 164.453 246.981 164.453 246.981L144.66 234.336C144.66 234.336 136.595 229.793 132.922 237.52Z" stroke="#263238" stroke-linecap="round" stroke-linejoin="round"/>
<path d="M139.41 254.241L145.052 260.071L143.877 284.864L152.133 286.953L153.001 276.123L156.039 287.368L162.125 281.538L148.968 259.656L150.704 252.994L143.316 245.084L138.542 255.914" fill="#263238"/>
<path d="M139.41 254.241L145.052 260.071L143.877 284.864L152.133 286.953L153.001 276.123L156.039 287.368L162.125 281.538L148.968 259.656L150.704 252.994L143.316 245.084L138.542 255.914" stroke="#263238" stroke-linecap="round" stroke-linejoin="round"/>
<path d="M129.144 237.581C129.144 237.581 130.35 245.297 131.959 248.735C133.568 252.172 137.198 258.003 137.198 258.003L144.851 250.661L152.514 255.731C152.514 255.731 151.71 242.996 148.884 237.206C146.058 231.416 132.361 225.615 129.144 237.581Z" fill="white" stroke="#263238" stroke-linecap="round" stroke-linejoin="round"/>
<g style="mix-blend-mode:multiply" opacity="0.5">
<path d="M134.616 242.752L142.268 231.598C140.871 231.012 139.377 230.669 137.855 230.584C136.542 230.837 135.06 231.152 133.494 231.486C131.578 232.5 129.99 234.407 129.144 237.57C129.144 237.57 129.747 241.464 130.678 244.963L134.616 242.752Z" fill="#92E3A9"/>
</g>
<path d="M148.079 235.259C147.043 237.445 146.495 239.814 146.471 242.215C146.471 246.068 147.275 250.327 147.275 252.253V258.043C147.275 258.043 142.438 252.253 138.807 248.005C135.177 243.756 132.361 239.893 132.764 236.425C133.166 232.957 136.796 219.43 136.796 219.43C138.714 219.413 140.598 219.911 142.237 220.866C143.875 221.821 145.202 223.195 146.068 224.835C149.286 230.625 148.079 235.259 148.079 235.259Z" fill="white" stroke="#263238" stroke-linecap="round" stroke-linejoin="round"/>
<g style="mix-blend-mode:multiply" opacity="0.5">
<path d="M135.526 228.546L134.319 229.104C133.578 232.146 132.922 235.056 132.763 236.425C132.372 239.771 134.986 243.523 138.426 247.579L138.86 239.599L148.079 235.289L140.67 228.282L135.526 228.546Z" fill="#92E3A9"/>
</g>
<path d="M155.911 231.111C155.911 231.111 153.244 235.847 156.123 236.039C159.002 236.232 158.378 233.869 158.79 233.089C159.203 232.308 161.056 234.103 160.029 237.814C159.002 241.525 153.858 244.121 150.767 241.16C147.677 238.199 148.513 235.076 149.54 232.693C150.566 230.31 154.705 229.144 155.911 231.111Z" fill="#263238" stroke="#263238" stroke-linecap="round" stroke-linejoin="round"/>
<path d="M150.132 189.253C149.233 189.131 148.291 189.04 147.317 188.989C143.771 188.817 139.908 189.04 137.145 191.159C131.409 195.56 132.372 204.402 132.785 210.557C133.25 217.544 133.155 227.735 138.627 232.795C147.867 241.332 162.315 232.196 162.315 222.076C162.315 217.797 162.485 211.277 162.781 209.817C163.167 208.013 163.432 206.188 163.575 204.352C164.21 195.033 158.695 190.419 150.132 189.253Z" fill="white" stroke="#263238" stroke-linecap="round" stroke-linejoin="round"/>
<g style="mix-blend-mode:multiply" opacity="0.5">
<path d="M153.541 234.62C150.955 234.585 148.375 234.395 145.814 234.052C141.887 233.474 136.436 227.38 139.156 218.974C141.877 210.567 141.887 206.207 141.887 206.207L132.626 200.661C132.413 203.959 132.47 207.268 132.795 210.557C133.261 217.544 133.166 227.735 138.638 232.795C143.126 236.952 148.841 236.911 153.541 234.62Z" fill="#92E3A9"/>
</g>
<path d="M148.291 216.226C148.87 216.226 149.339 215.454 149.339 214.502C149.339 213.55 148.87 212.778 148.291 212.778C147.712 212.778 147.243 213.55 147.243 214.502C147.243 215.454 147.712 216.226 148.291 216.226Z" fill="#263238"/>
<path d="M158.632 214.928C158.569 215.881 158.039 216.621 157.468 216.581C156.896 216.54 156.473 215.749 156.536 214.796C156.6 213.843 157.118 213.103 157.701 213.143C158.283 213.184 158.696 213.975 158.632 214.928Z" fill="#263238"/>
<path d="M145.041 210.375C145.041 210.375 147.158 206.096 150.556 208.114L145.041 210.375Z" fill="white"/>
<path d="M145.041 210.375C145.041 210.375 147.158 206.096 150.556 208.114" stroke="#263238" stroke-linecap="round" stroke-linejoin="round"/>
<path d="M156.07 208.864C156.07 208.864 158.579 206.106 160.008 210.628L156.07 208.864Z" fill="white"/>
<path d="M156.07 208.864C156.07 208.864 158.579 206.106 160.008 210.628" stroke="#263238" stroke-linecap="round" stroke-linejoin="round"/>
<path d="M154.441 217.929C154.441 218.102 154.441 218.274 154.441 218.426C154.705 220.19 156.018 221.468 155.499 222.198C154.98 222.928 152.324 223.212 152.324 223.212" fill="white"/>
<path d="M154.441 217.929C154.441 218.102 154.441 218.274 154.441 218.426C154.705 220.19 156.018 221.468 155.499 222.198C154.98 222.928 152.324 223.212 152.324 223.212" stroke="#263238" stroke-linecap="round" stroke-linejoin="round"/>
<path d="M151.339 227.238C151.339 227.238 146.714 228.607 144.989 225.027L151.339 227.238Z" fill="white"/>
<path d="M151.339 227.238C151.339 227.238 146.714 228.607 144.989 225.027" stroke="#263238" stroke-linecap="round" stroke-linejoin="round"/>
<path d="M147.391 218.72C150.396 218.72 152.832 216.387 152.832 213.508C152.832 210.63 150.396 208.296 147.391 208.296C144.387 208.296 141.951 210.63 141.951 213.508C141.951 216.387 144.387 218.72 147.391 218.72Z" stroke="#263238" stroke-width="0.5" stroke-linecap="round" stroke-linejoin="round"/>
<path d="M159.701 218.72C162.396 218.72 164.58 216.387 164.58 213.508C164.58 210.63 162.396 208.296 159.701 208.296C157.006 208.296 154.822 210.63 154.822 213.508C154.822 216.387 157.006 218.72 159.701 218.72Z" stroke="#263238" stroke-width="0.5" stroke-linecap="round" stroke-linejoin="round"/>
<path d="M141.951 213.508L134.182 213.823" stroke="#263238" stroke-width="0.5" stroke-linecap="round" stroke-linejoin="round"/>
<path d="M164.581 213.508H162.591" stroke="#263238" stroke-width="0.5" stroke-linecap="round" stroke-linejoin="round"/>
<path d="M152.821 211.916H155.076" stroke="#263238" stroke-width="0.5" stroke-linecap="round" stroke-linejoin="round"/>
<path d="M159.733 183.098C155.671 182.419 151.565 182.012 147.444 181.881C147.444 181.881 140.236 178.626 130.509 182.287C116.591 187.499 116.898 205.305 120.348 216.652C121.407 220.079 123.894 225.281 121.608 228.718C120.168 230.888 116.051 229.732 116.675 226.751C117.3 223.77 118.316 224.784 119.141 224.388C119.967 223.993 118.729 223.598 116.876 223.009C115.024 222.421 113.405 224.023 113.172 227.927C112.558 238.574 128.932 245.622 135.177 236.313C137.717 232.257 135.463 225.21 134.362 220.089C134.012 218.316 133.776 216.525 133.653 214.725C135.629 214.544 137.461 213.657 138.786 212.241C139.767 210.952 140.605 209.569 141.284 208.114C142.025 208.114 142.798 208.164 143.645 208.245C152.112 209.057 154.674 195.246 154.674 195.246C154.674 195.246 158.907 202.963 160.177 205.812L161.448 208.651C161.448 208.651 164.845 209.057 168.232 202.151C171.619 195.246 167.788 184.345 159.733 183.098Z" fill="#263238" stroke="#263238" stroke-linecap="round" stroke-linejoin="round"/>
<path d="M154.186 192.001C154.186 192.001 164.601 195.428 164.919 201.35C165.236 207.272 163.617 207.576 163.617 207.576" stroke="white" stroke-width="0.5" stroke-miterlimit="10" stroke-linecap="round"/>
<path d="M152.895 189.821C152.895 189.821 162.643 187.641 165.903 193.877" stroke="white" stroke-width="0.5" stroke-miterlimit="10" stroke-linecap="round"/>
<path d="M140.861 183.585C140.861 183.585 150.609 188.259 152.239 192.63C153.869 197 145.412 205.396 139.876 206.958C134.341 208.519 130.128 206.643 126.222 209.452C122.317 212.261 123.947 220.038 123.947 220.038" stroke="white" stroke-width="0.5" stroke-miterlimit="10" stroke-linecap="round"/>
<path d="M120.983 211.318C120.983 211.318 118.379 205.396 123.915 202.283C129.45 199.17 134.319 202.283 140.501 198.541C146.682 194.8 147.656 190.135 147.656 190.135" stroke="white" stroke-width="0.5" stroke-miterlimit="10" stroke-linecap="round"/>
<path d="M135.304 216.692C135.304 216.692 131.885 208.732 128.455 211.541C125.026 214.35 130.9 221.843 134.806 220.91" fill="white"/>
<path d="M135.304 216.692C135.304 216.692 131.885 208.732 128.455 211.541C125.026 214.35 130.9 221.843 134.806 220.91" stroke="#263238" stroke-linecap="round" stroke-linejoin="round"/>
<g opacity="0.37">
<path d="M135.304 216.692C135.304 216.692 131.885 208.732 128.455 211.541C125.026 214.35 130.9 221.843 134.806 220.91" fill="#92E3A9"/>
<path d="M135.304 216.692C135.304 216.692 131.885 208.732 128.455 211.541C125.026 214.35 130.9 221.843 134.806 220.91" stroke="#263238" stroke-linecap="round" stroke-linejoin="round"/>
</g>
<path d="M114.422 249.81C114.422 249.81 112.76 248.613 109.066 251.28C105.372 253.947 101.932 266.074 104.239 271.215C106.547 276.356 112.707 303.086 115.575 304.546C118.444 306.006 149.287 305.884 152.928 305.063C156.569 304.242 159.109 299.678 158.495 295.734C157.882 291.79 153.817 290.765 152.621 290.735C151.425 290.705 126.858 289.366 126.858 289.366L119.227 258.479" fill="white"/>
<g style="mix-blend-mode:multiply" opacity="0.5">
<path d="M153.902 298.441C152.145 296.363 124.181 299.983 121.196 298.441C118.211 296.9 116.771 293.97 118.952 291.992C121.132 290.015 114.782 289.569 114.834 287.825C114.887 286.081 118.528 285.604 118.296 283.272C118.063 280.94 110.198 280.453 110.389 273.781C110.579 267.109 112.326 259.037 113.903 256.756C114.776 255.794 115.78 254.948 116.888 254.241L114.422 249.799C114.422 249.799 112.76 248.603 109.066 251.27C105.372 253.937 101.932 266.074 104.239 271.215C106.547 276.356 112.707 303.086 115.575 304.546C118.444 306.006 149.287 305.884 152.928 305.063C154.105 304.702 155.175 304.077 156.047 303.239C156.92 302.401 157.571 301.375 157.945 300.246C155.987 299.709 154.42 299.05 153.902 298.441Z" fill="#92E3A9"/>
</g>
<path d="M114.422 249.81C114.422 249.81 112.76 248.613 109.066 251.28C105.372 253.947 101.932 266.074 104.239 271.215C106.547 276.356 112.707 303.086 115.575 304.546C118.444 306.006 149.287 305.884 152.928 305.063C156.569 304.242 159.109 299.678 158.495 295.734C157.882 291.79 153.817 290.765 152.621 290.735C151.425 290.705 126.858 289.366 126.858 289.366L119.227 258.479" stroke="#263238" stroke-linecap="round" stroke-linejoin="round"/>
<path d="M117.511 295.065C119.332 289.934 126.847 289.832 126.847 289.832C123.849 289.08 120.716 288.973 117.67 289.518" stroke="#263238" stroke-width="0.5" stroke-linecap="round" stroke-linejoin="round"/>
<path d="M157.161 292.013C156.049 292.469 155.1 293.226 154.43 294.191C153.761 295.157 153.4 296.289 153.393 297.448C153.266 301.605 156.145 302.376 156.854 302.852C157.563 303.329 161.839 305.529 163.564 304.181C165.29 302.832 167.322 299.202 165.681 296.16C164.041 293.118 158.844 292.053 157.161 292.013Z" fill="white"/>
<g style="mix-blend-mode:multiply" opacity="0.5">
<path d="M163.564 304.181C164.003 303.823 164.395 303.414 164.728 302.964L161.129 301.129C157.827 300.256 154.684 299.364 153.9 298.441C153.764 298.304 153.592 298.202 153.403 298.147C153.604 301.696 156.176 302.406 156.853 302.852C157.531 303.299 161.839 305.529 163.564 304.181Z" fill="#92E3A9"/>
</g>
<path d="M157.161 292.013C156.049 292.469 155.1 293.226 154.43 294.191C153.761 295.157 153.4 296.289 153.393 297.448C153.266 301.605 156.145 302.376 156.854 302.852C157.563 303.329 161.839 305.529 163.564 304.181C165.29 302.832 167.322 299.202 165.681 296.16C164.041 293.118 158.844 292.053 157.161 292.013Z" stroke="#263238" stroke-linecap="round" stroke-linejoin="round"/>
<path d="M163.12 295.734C163.12 295.734 160.495 296.697 160.135 298.594C159.775 300.49 159.902 301.514 160.357 301.636C160.812 301.757 162.326 302.416 162.326 302.416L166.994 304.738C166.994 304.738 170.698 308.794 171.915 309.119C173.133 309.443 172.085 308.683 171.915 307.801C171.386 306.537 170.7 305.339 169.873 304.231L175.398 308.916C175.398 308.916 177.218 309.545 176.795 308.216C176.371 306.888 173.545 304.16 173.545 304.16L178.764 308.693C178.764 308.693 179.822 309.159 179.822 308.571C179.881 308.277 179.86 307.972 179.76 307.688C179.66 307.403 179.484 307.149 179.25 306.949C178.658 306.493 175.101 302.589 175.101 302.589L180.055 305.499C180.055 305.499 181.113 306.848 181.854 306.868C182.595 306.888 182.172 306.432 181.611 304.84C181.05 303.248 177.282 300.916 175.937 300.003C174.593 299.09 167.248 295.846 163.12 295.734Z" fill="white" stroke="#263238" stroke-linecap="round" stroke-linejoin="round"/>
<path d="M399.937 294.517H358.594L366.035 271.398H407.378L399.937 294.517Z" fill="#263238" stroke="#263238" stroke-linecap="round" stroke-linejoin="round"/>
<path d="M396.687 296.697H355.355L362.796 273.568H404.128L396.687 296.697Z" fill="white" stroke="#263238" stroke-linecap="round" stroke-linejoin="round"/>
<path d="M337.287 287.541H405.409C407.093 287.541 408.708 288.182 409.899 289.323C411.09 290.464 411.759 292.011 411.759 293.625V310.64H337.287V287.541Z" fill="#263238" stroke="#263238" stroke-linecap="round" stroke-linejoin="round"/>
<path d="M399.566 287.541H325.062V310.67H399.566V287.541Z" fill="white" stroke="#263238" stroke-linecap="round" stroke-linejoin="round"/>
<path d="M382.8 304.465H323.283V307.517H382.8V304.465Z" fill="white" stroke="#263238" stroke-linecap="round" stroke-linejoin="round"/>
<path d="M382.8 301.412H335.985V304.465H382.8V301.412Z" fill="#263238" stroke="#263238" stroke-linecap="round" stroke-linejoin="round"/>
<path d="M323.527 308.419H276.564V310.518H323.527V308.419Z" fill="white" stroke="#263238" stroke-linecap="round" stroke-linejoin="round"/>
<path d="M359.642 234.123H258.412V296.667H359.642V234.123Z" fill="white" stroke="#263238" stroke-linecap="round" stroke-linejoin="round"/>
<path d="M359.641 234.123H263.937V296.667H359.641V234.123Z" fill="#263238" stroke="#263238" stroke-linecap="round" stroke-linejoin="round"/>
<path d="M324.617 263.184H302.464V311.471H324.617V263.184Z" fill="white" stroke="#263238" stroke-linecap="round" stroke-linejoin="round"/>
<path d="M326.66 263.184H304.507V311.471H326.66V263.184Z" fill="#263238" stroke="#263238" stroke-linecap="round" stroke-linejoin="round"/>
<path d="M303.035 263.752H327.178V296.819" stroke="white" stroke-linejoin="round"/>
<path d="M257.713 307.294H189.898V310.691H257.713V307.294Z" fill="white" stroke="#263238" stroke-linecap="round" stroke-linejoin="round"/>
<path d="M275.241 307.294H207.426V310.691H275.241V307.294Z" fill="white" stroke="#263238" stroke-linecap="round" stroke-linejoin="round"/>
<path d="M187.284 316.288H83.3757L78.4434 461.758C78.4162 462.16 78.473 462.565 78.6105 462.946C78.748 463.328 78.9634 463.679 79.2442 463.98C79.5249 464.282 79.8655 464.526 80.2459 464.7C80.6263 464.873 81.039 464.973 81.46 464.992C82.2385 464.971 82.9802 464.67 83.5387 464.15C84.0972 463.63 84.4318 462.928 84.4765 462.183L94.3942 343.311C94.52 341.191 95.4699 339.193 97.0567 337.711C98.6435 336.228 100.752 335.368 102.968 335.301H167.692C169.906 335.368 172.013 336.229 173.599 337.711C175.184 339.194 176.131 341.192 176.255 343.311L186.183 462.163C186.227 462.906 186.56 463.607 187.117 464.127C187.673 464.646 188.412 464.948 189.189 464.972C189.61 464.954 190.023 464.856 190.403 464.683C190.784 464.511 191.126 464.267 191.407 463.967C191.689 463.667 191.906 463.316 192.045 462.935C192.183 462.554 192.242 462.15 192.216 461.747L187.284 316.288Z" fill="#92E3A9" stroke="#263238" stroke-linecap="round" stroke-linejoin="round"/>
<path d="M187.517 322.981L187.284 316.288H153.297H117.363H83.3759L83.1431 322.981H187.517Z" fill="#263238" stroke="#263238" stroke-linecap="round" stroke-linejoin="round"/>
<path d="M423.91 316.288H319.97L315.049 461.758C315.023 462.16 315.081 462.563 315.219 462.943C315.357 463.324 315.573 463.674 315.853 463.974C316.134 464.274 316.474 464.517 316.854 464.691C317.233 464.864 317.645 464.963 318.065 464.982C318.842 464.958 319.581 464.656 320.137 464.137C320.694 463.617 321.027 462.917 321.071 462.173L331.021 343.311C331.146 341.191 332.096 339.193 333.683 337.711C335.27 336.228 337.379 335.368 339.594 335.301H404.318C406.532 335.368 408.64 336.229 410.225 337.711C411.81 339.194 412.758 341.192 412.881 343.311L422.809 462.163C422.849 462.91 423.18 463.615 423.736 464.139C424.293 464.663 425.035 464.968 425.815 464.992C426.235 464.973 426.647 464.874 427.027 464.701C427.406 464.528 427.746 464.284 428.027 463.984C428.308 463.684 428.523 463.334 428.661 462.953C428.8 462.573 428.857 462.17 428.832 461.768L423.91 316.288Z" fill="#92E3A9" stroke="#263238" stroke-linecap="round" stroke-linejoin="round"/>
<path d="M424.598 322.981L424.376 316.288H390.389H354.444H320.457L320.235 322.981H424.598Z" fill="#263238" stroke="#263238" stroke-linecap="round" stroke-linejoin="round"/>
<path d="M430.758 310.67H74.9507V318.336H430.758V310.67Z" fill="white" stroke="#263238" stroke-linecap="round" stroke-linejoin="round"/>
<path d="M430.769 310.67H175.746V318.336H430.769V310.67Z" fill="white" stroke="#263238" stroke-linecap="round" stroke-linejoin="round"/>
</svg>
