<svg width="595" height="516" viewBox="0 0 595 516" fill="none" xmlns="http://www.w3.org/2000/svg">
<path fill-rule="evenodd" clip-rule="evenodd" d="M250.443 42.8415C304.795 48.6709 361.302 21.9088 410.391 45.9593C463.715 72.0848 496.424 124.725 524.437 177.082C557.929 239.682 615.689 310.567 586.616 375.337C557.013 441.285 463.004 440.421 395.102 465.213C347.487 482.598 300.791 492.211 250.443 498.079C192.247 504.862 129.288 532.152 79.0191 502.053C28.0922 471.561 15.4356 404.832 -0.697393 347.708C-16.2186 292.752 -22.2916 237.052 -11.6708 180.942C0.268145 117.868 6.66876 38.6732 63.4622 8.75041C120.919 -21.5219 185.87 35.9158 250.443 42.8415Z" fill="#E8FFEE"/>
<path d="M149.705 69.1727H59.5512L58.3606 83.726H149.705V69.1727Z" stroke="#808080" stroke-linecap="round" stroke-linejoin="round"/>
<path d="M149.705 83.7255H59.5512L58.3606 98.2886H149.705V83.7255Z" stroke="#808080" stroke-linecap="round" stroke-linejoin="round"/>
<path d="M149.705 98.2891H59.5512L58.3606 112.852H149.705V98.2891Z" stroke="#808080" stroke-linecap="round" stroke-linejoin="round"/>
<path d="M149.705 112.852H59.5512L58.3606 127.415H149.705V112.852Z" stroke="#808080" stroke-linecap="round" stroke-linejoin="round"/>
<path d="M149.705 127.415H59.5512L58.3606 141.968H149.705V127.415Z" stroke="#808080" stroke-linecap="round" stroke-linejoin="round"/>
<path d="M149.705 141.969H59.5512L58.3606 156.532H149.705V141.969Z" stroke="#808080" stroke-linecap="round" stroke-linejoin="round"/>
<path d="M149.705 156.531H59.5512L58.3606 171.095H149.705V156.531Z" stroke="#808080" stroke-linecap="round" stroke-linejoin="round"/>
<path d="M149.705 171.094H59.5512L58.3606 185.648H149.705V171.094Z" stroke="#808080" stroke-linecap="round" stroke-linejoin="round"/>
<path d="M149.705 185.648H59.5512L58.3606 200.211H149.705V185.648Z" stroke="#808080" stroke-linecap="round" stroke-linejoin="round"/>
<path d="M149.705 200.211H59.5512L58.3606 214.774H149.705V200.211Z" stroke="#808080" stroke-linecap="round" stroke-linejoin="round"/>
<path d="M149.705 214.774H59.5512L58.3606 229.327H149.705V214.774Z" stroke="#808080" stroke-linecap="round" stroke-linejoin="round"/>
<path d="M149.705 229.327H59.5512L58.3606 243.89H149.705V229.327Z" stroke="#808080" stroke-linecap="round" stroke-linejoin="round"/>
<path d="M149.705 243.89H59.5512L58.3606 258.453H149.705V243.89Z" stroke="#808080" stroke-linecap="round" stroke-linejoin="round"/>
<path d="M149.705 258.453H59.5512L58.3606 273.016H149.705V258.453Z" stroke="#808080" stroke-linecap="round" stroke-linejoin="round"/>
<path d="M149.705 273.016H59.5512L58.3606 287.57H149.705V273.016Z" stroke="#808080" stroke-linecap="round" stroke-linejoin="round"/>
<path d="M242.387 69.1727H152.233L151.042 83.726H242.387V69.1727Z" stroke="#808080" stroke-linecap="round" stroke-linejoin="round"/>
<path d="M242.387 83.7255H152.233L151.042 98.2886H242.387V83.7255Z" stroke="#808080" stroke-linecap="round" stroke-linejoin="round"/>
<path d="M242.387 98.2891H152.233L151.042 112.852H242.387V98.2891Z" stroke="#808080" stroke-linecap="round" stroke-linejoin="round"/>
<path d="M242.387 112.852H152.233L151.042 127.415H242.387V112.852Z" stroke="#808080" stroke-linecap="round" stroke-linejoin="round"/>
<path d="M242.387 127.415H152.233L151.042 141.968H242.387V127.415Z" stroke="#808080" stroke-linecap="round" stroke-linejoin="round"/>
<path d="M242.387 141.969H152.233L151.042 156.532H242.387V141.969Z" stroke="#808080" stroke-linecap="round" stroke-linejoin="round"/>
<path d="M242.387 156.531H152.233L151.042 171.095H242.387V156.531Z" stroke="#808080" stroke-linecap="round" stroke-linejoin="round"/>
<path d="M242.387 171.094H152.233L151.042 185.648H242.387V171.094Z" stroke="#808080" stroke-linecap="round" stroke-linejoin="round"/>
<path d="M242.387 185.648H152.233L151.042 200.211H242.387V185.648Z" stroke="#808080" stroke-linecap="round" stroke-linejoin="round"/>
<path d="M242.387 200.211H152.233L151.042 214.774H242.387V200.211Z" stroke="#808080" stroke-linecap="round" stroke-linejoin="round"/>
<path d="M242.387 214.774H152.233L151.042 229.327H242.387V214.774Z" stroke="#808080" stroke-linecap="round" stroke-linejoin="round"/>
<path d="M242.387 229.327H152.233L151.042 243.89H242.387V229.327Z" stroke="#808080" stroke-linecap="round" stroke-linejoin="round"/>
<path d="M242.387 243.89H152.233L151.042 258.453H242.387V243.89Z" stroke="#808080" stroke-linecap="round" stroke-linejoin="round"/>
<path d="M242.387 258.453H152.233L151.042 273.016H242.387V258.453Z" stroke="#808080" stroke-linecap="round" stroke-linejoin="round"/>
<path d="M242.387 273.016H152.233L151.042 287.57H242.387V273.016Z" stroke="#808080" stroke-linecap="round" stroke-linejoin="round"/>
<path d="M246.903 57.8958H56.2539V68.8771H246.903V57.8958Z" stroke="#808080" stroke-linecap="round" stroke-linejoin="round"/>
<path d="M246.902 68.8768V262.32" stroke="#808080" stroke-linecap="round" stroke-linejoin="round"/>
<path d="M244.826 69.1923V201.913" stroke="#808080" stroke-linecap="round" stroke-linejoin="round"/>
<path d="M248.25 261.898H245.692V266.828H248.25V261.898Z" fill="#263238" stroke="#808080" stroke-linecap="round" stroke-linejoin="round"/>
<path d="M245.939 200.851H243.38V205.78H245.939V200.851Z" fill="#263238" stroke="#808080" stroke-linecap="round" stroke-linejoin="round"/>
<path d="M110.138 273.912C110.138 273.912 98.0351 267.191 97.1397 282.423C96.2442 297.655 94.0007 396.655 94.0007 396.655" stroke="#263238" stroke-width="2" stroke-linecap="round" stroke-linejoin="round"/>
<path d="M90.8606 283.761C90.8606 283.761 100.701 305.714 96.243 395.317" stroke="#263238" stroke-width="2" stroke-linecap="round" stroke-linejoin="round"/>
<path d="M100.554 276.982C100.554 276.982 95.9193 279.934 93.2921 276.549C90.6648 273.164 95.0731 266.945 91.1765 264.288C87.2799 261.632 80.6182 265.696 80.6182 265.696C80.6182 265.696 85.7842 267.211 85.6169 270.035C85.4496 272.859 82.9601 273.971 82.6649 272.692C82.3697 271.413 79.8606 265.243 75.6589 267.831C74.449 268.546 73.3964 269.499 72.5644 270.632C71.7324 271.765 71.1382 273.055 70.8177 274.424C70.8177 274.424 80.5986 273.381 81.189 277.061C81.7794 280.741 77.1841 276.411 73.1497 276.175C69.1154 275.939 65.4352 276.529 65.7009 278.979C65.7903 281.135 65.6617 283.295 65.3171 285.425C67.5261 283.59 70.3181 282.606 73.1891 282.65C77.6269 282.915 77.4596 285.74 73.4252 285.503C69.3909 285.267 65.8583 289.095 65.8583 289.095C65.8583 289.095 69.5385 295.383 74.2124 298.492C78.8864 301.601 80.569 300.46 81.1004 298.089C81.6317 295.717 80.3919 289.548 83.216 289.715C86.04 289.882 78.542 300.362 82.1434 300.982C85.7448 301.601 88.6476 300.558 89.5923 298.187L90.5763 295.816C90.5763 295.816 89.3167 289.666 89.8678 287.275C90.4188 284.883 91.0781 287.343 91.7177 290.227C92.3573 293.11 92.7607 299.998 93.9907 299.663C95.2207 299.328 99.1665 294.31 100.091 292.342C101.016 290.374 94.896 284.342 94.9649 283.132C95.0337 281.922 99.7569 284.224 100.495 285.484C101.233 286.743 101.941 288.436 101.941 288.436C101.941 288.436 104.893 286.586 104.815 280.918C104.736 275.25 100.554 276.982 100.554 276.982Z" fill="#92E3A9"/>
<path opacity="0.3" d="M100.554 276.982C100.554 276.982 95.9193 279.934 93.2921 276.549C90.6648 273.164 95.0731 266.945 91.1765 264.288C87.2799 261.632 80.6182 265.696 80.6182 265.696C80.6182 265.696 85.7842 267.211 85.6169 270.035C85.4496 272.859 82.9601 273.971 82.6649 272.692C82.3697 271.413 79.8606 265.243 75.6589 267.831C74.449 268.546 73.3964 269.499 72.5644 270.632C71.7324 271.765 71.1382 273.055 70.8177 274.424C70.8177 274.424 80.5986 273.381 81.189 277.061C81.7794 280.741 77.1841 276.411 73.1497 276.175C69.1154 275.939 65.4352 276.529 65.7009 278.979C65.7903 281.135 65.6617 283.295 65.3171 285.425C67.5261 283.59 70.3181 282.606 73.1891 282.65C77.6269 282.915 77.4596 285.74 73.4252 285.503C69.3909 285.267 65.8583 289.095 65.8583 289.095C65.8583 289.095 69.5385 295.383 74.2124 298.492C78.8864 301.601 80.569 300.46 81.1004 298.089C81.6317 295.717 80.3919 289.548 83.216 289.715C86.04 289.882 78.542 300.362 82.1434 300.982C85.7448 301.601 88.6476 300.558 89.5923 298.187L90.5763 295.816C90.5763 295.816 89.3167 289.666 89.8678 287.275C90.4188 284.883 91.0781 287.343 91.7177 290.227C92.3573 293.11 92.7607 299.998 93.9907 299.663C95.2207 299.328 99.1665 294.31 100.091 292.342C101.016 290.374 94.896 284.342 94.9649 283.132C95.0337 281.922 99.7569 284.224 100.495 285.484C101.233 286.743 101.941 288.436 101.941 288.436C101.941 288.436 104.893 286.586 104.815 280.918C104.736 275.25 100.554 276.982 100.554 276.982Z" fill="#263238"/>
<path d="M77.0957 290.295C80.1067 286.565 84.5544 281.518 88.2837 279.107" stroke="#263238" stroke-linecap="round" stroke-linejoin="round"/>
<path d="M73.5925 294.812C73.5925 294.812 74.3699 293.739 75.6294 292.126" stroke="#263238" stroke-linecap="round" stroke-linejoin="round"/>
<path d="M90.2505 280.013C90.2505 280.013 94.7375 286.349 95.5641 292.873" stroke="#263238" stroke-linecap="round" stroke-linejoin="round"/>
<path d="M85.1731 283.762C85.1731 283.762 86.4326 283.024 85.9603 291.093" stroke="#263238" stroke-linecap="round" stroke-linejoin="round"/>
<path d="M88.4893 276.264C88.4893 276.264 91.0476 273.991 89.6996 269.454" stroke="#263238" stroke-linecap="round" stroke-linejoin="round"/>
<path d="M84.9865 280.111L83.1562 276.766" stroke="#263238" stroke-linecap="round" stroke-linejoin="round"/>
<path d="M81.1394 283.525C81.1394 283.525 75.3338 279.137 71.7029 278.92" stroke="#263238" stroke-linecap="round" stroke-linejoin="round"/>
<path d="M117.025 265.027C117.025 265.027 116.848 271.678 111.653 272.003C106.457 272.328 103.249 263.669 97.9356 265.755C92.6221 267.841 92.1104 277.326 92.1104 277.326C92.1104 277.326 97.1484 273.184 99.8643 275.27C102.58 277.356 101.95 280.583 100.484 280.072C99.018 279.56 91.1166 277.799 90.8509 283.762C90.7407 285.462 90.9759 287.166 91.5425 288.773C92.109 290.38 92.9951 291.855 94.1473 293.11C94.1473 293.11 99.7659 282.61 103.849 284.529C107.933 286.448 100.474 288.101 97.4928 291.978C94.5113 295.855 92.5729 299.939 95.2198 301.346C97.4405 302.725 99.5173 304.324 101.419 306.118C101.082 302.665 101.993 299.206 103.987 296.367C107.274 292.106 109.99 294.202 106.998 298.069C104.007 301.936 105.512 308.007 105.512 308.007C105.512 308.007 114.309 308.608 120.607 306.039C126.904 303.471 126.944 301.041 124.917 298.856C122.89 296.672 115.874 293.749 117.97 291.033C120.066 288.318 125.448 302.969 128.518 299.781C131.588 296.593 132.523 292.982 130.801 290.423L129.069 287.855C129.069 287.855 122.063 284.903 120.036 282.738C118.009 280.574 120.932 281.577 124.238 282.896C127.544 284.214 134.737 288.514 135.249 287.048C135.76 285.582 133.409 278.192 132.061 275.949C130.712 273.705 120.518 275.703 119.357 274.807C118.196 273.912 123.716 270.753 125.478 270.871C126.798 270.981 128.112 271.162 129.414 271.413C129.414 271.413 129.571 267.201 123.844 263.413C118.117 259.624 117.025 265.027 117.025 265.027Z" fill="#92E3A9"/>
<path opacity="0.2" d="M117.025 265.027C117.025 265.027 116.848 271.678 111.653 272.003C106.457 272.328 103.249 263.669 97.9356 265.755C92.6221 267.841 92.1104 277.326 92.1104 277.326C92.1104 277.326 97.1484 273.184 99.8643 275.27C102.58 277.356 101.95 280.583 100.484 280.072C99.018 279.56 91.1166 277.799 90.8509 283.762C90.7407 285.462 90.9759 287.166 91.5425 288.773C92.109 290.38 92.9951 291.855 94.1473 293.11C94.1473 293.11 99.7659 282.61 103.849 284.529C107.933 286.448 100.474 288.101 97.4928 291.978C94.5113 295.855 92.5729 299.939 95.2198 301.346C97.4405 302.725 99.5173 304.324 101.419 306.118C101.082 302.665 101.993 299.206 103.987 296.367C107.274 292.106 109.99 294.202 106.998 298.069C104.007 301.936 105.512 308.007 105.512 308.007C105.512 308.007 114.309 308.608 120.607 306.039C126.904 303.471 126.944 301.041 124.917 298.856C122.89 296.672 115.874 293.749 117.97 291.033C120.066 288.318 125.448 302.969 128.518 299.781C131.588 296.593 132.523 292.982 130.801 290.423L129.069 287.855C129.069 287.855 122.063 284.903 120.036 282.738C118.009 280.574 120.932 281.577 124.238 282.896C127.544 284.214 134.737 288.514 135.249 287.048C135.76 285.582 133.409 278.192 132.061 275.949C130.712 273.705 120.518 275.703 119.357 274.807C118.196 273.912 123.716 270.753 125.478 270.871C126.798 270.981 128.112 271.162 129.414 271.413C129.414 271.413 129.571 267.201 123.844 263.413C118.117 259.624 117.025 265.027 117.025 265.027Z" fill="#263238"/>
<path d="M114.359 297.567C112.686 292.008 110.659 284.116 110.787 278.743" stroke="#263238" stroke-linecap="round" stroke-linejoin="round"/>
<path d="M116.524 304.169C116.524 304.169 115.973 302.654 115.215 300.302" stroke="#263238" stroke-linecap="round" stroke-linejoin="round"/>
<path d="M113.089 277.405C113.089 277.405 122.486 277.238 129.581 280.849" stroke="#263238" stroke-linecap="round" stroke-linejoin="round"/>
<path d="M113.355 285.041C113.355 285.041 113.473 283.279 121.227 289.252" stroke="#263238" stroke-linecap="round" stroke-linejoin="round"/>
<path d="M108.081 276.657C108.081 276.657 107.549 272.534 102.088 270.802" stroke="#263238" stroke-linecap="round" stroke-linejoin="round"/>
<path d="M109.566 282.738L104.971 282.285" stroke="#263238" stroke-linecap="round" stroke-linejoin="round"/>
<path d="M110.364 288.918C110.364 288.918 102.01 291.742 99.3137 295.215" stroke="#263238" stroke-linecap="round" stroke-linejoin="round"/>
<path d="M61.3025 309.306C61.3025 309.306 87.7325 326.772 87.2799 394.422" stroke="#263238" stroke-width="2" stroke-linecap="round" stroke-linejoin="round"/>
<path d="M93.8919 304.691C93.8919 304.691 93.0457 312.346 87.004 312.228C80.9623 312.11 78.1087 301.818 71.7619 303.726C65.4152 305.635 63.949 316.518 63.949 316.518C63.949 316.518 70.158 312.209 73.0903 314.885C76.0226 317.561 74.9993 321.212 73.356 320.484C71.7127 319.756 62.7682 316.971 61.8826 323.829C61.5997 325.781 61.7154 327.771 62.2227 329.677C62.7301 331.583 63.6186 333.366 64.8346 334.919C64.8346 334.919 72.313 323.337 76.8393 325.935C81.3657 328.533 72.6082 329.743 68.8001 333.935C64.9921 338.127 62.3943 342.653 65.2872 344.523C67.7239 346.325 69.9723 348.369 71.9981 350.624C71.9981 350.624 71.693 344.228 75.9341 339.613C80.1751 334.998 83.0582 337.645 79.2501 341.866C75.4421 346.087 76.5244 353.271 76.5244 353.271C76.5244 353.271 86.6301 354.796 94.1379 352.434C101.646 350.073 101.911 347.258 99.7762 344.562C97.6409 341.866 89.8379 337.812 92.5045 334.88C95.1711 331.947 100.003 349.335 103.85 345.93C107.697 342.525 109.114 338.461 107.363 335.332L105.611 332.203C105.611 332.203 97.7984 328.159 95.673 325.453C93.5475 322.747 96.8144 324.203 100.514 326.034C104.214 327.864 112.096 333.502 112.814 331.869C113.532 330.235 111.525 321.497 110.197 318.752C108.868 316.007 96.8931 317.374 95.6336 316.233C94.3741 315.092 101.046 311.972 103.073 312.297C104.575 312.547 106.062 312.876 107.53 313.281C107.53 313.281 108.101 308.44 101.852 303.52C95.6041 298.6 93.8919 304.691 93.8919 304.691Z" fill="#92E3A9"/>
<path opacity="0.3" d="M93.8919 304.691C93.8919 304.691 93.0457 312.346 87.004 312.228C80.9623 312.11 78.1087 301.818 71.7619 303.726C65.4152 305.635 63.949 316.518 63.949 316.518C63.949 316.518 70.158 312.209 73.0903 314.885C76.0226 317.561 74.9993 321.212 73.356 320.484C71.7127 319.756 62.7682 316.971 61.8826 323.829C61.5997 325.781 61.7154 327.771 62.2227 329.677C62.7301 331.583 63.6186 333.366 64.8346 334.919C64.8346 334.919 72.313 323.337 76.8393 325.935C81.3657 328.533 72.6082 329.743 68.8001 333.935C64.9921 338.127 62.3943 342.653 65.2872 344.523C67.7239 346.325 69.9723 348.369 71.9981 350.624C71.9981 350.624 71.693 344.228 75.9341 339.613C80.1751 334.998 83.0582 337.645 79.2501 341.866C75.4421 346.087 76.5244 353.271 76.5244 353.271C76.5244 353.271 86.6301 354.796 94.1379 352.434C101.646 350.073 101.911 347.258 99.7762 344.562C97.6409 341.866 89.8379 337.812 92.5045 334.88C95.1711 331.947 100.003 349.335 103.85 345.93C107.697 342.525 109.114 338.461 107.363 335.332L105.611 332.203C105.611 332.203 97.7984 328.159 95.673 325.453C93.5475 322.747 96.8144 324.203 100.514 326.034C104.214 327.864 112.096 333.502 112.814 331.869C113.532 330.235 111.525 321.497 110.197 318.752C108.868 316.007 96.8931 317.374 95.6336 316.233C94.3741 315.092 101.046 311.972 103.073 312.297C104.575 312.547 106.062 312.876 107.53 313.281C107.53 313.281 108.101 308.44 101.852 303.52C95.6041 298.6 93.8919 304.691 93.8919 304.691Z" fill="#263238"/>
<path d="M87.7322 341.994C86.3153 335.411 84.7802 326.112 85.3805 319.923" stroke="#263238" stroke-linecap="round" stroke-linejoin="round"/>
<path d="M89.6015 349.807C89.6015 349.807 89.1095 348.017 88.4502 345.222" stroke="#263238" stroke-linecap="round" stroke-linejoin="round"/>
<path d="M88.125 318.595C88.125 318.595 98.9489 319.284 106.821 324.125" stroke="#263238" stroke-linecap="round" stroke-linejoin="round"/>
<path d="M87.7419 327.431C87.7419 327.431 88.047 325.414 96.4306 333.04" stroke="#263238" stroke-linecap="round" stroke-linejoin="round"/>
<path d="M82.4474 317.257C82.4474 317.257 82.2211 312.455 76.0908 309.936" stroke="#263238" stroke-linecap="round" stroke-linejoin="round"/>
<path d="M83.589 324.42L78.3345 323.466" stroke="#263238" stroke-linecap="round" stroke-linejoin="round"/>
<path d="M83.9345 331.623C83.9345 331.623 74.0257 334.102 70.5916 337.871" stroke="#263238" stroke-linecap="round" stroke-linejoin="round"/>
<path d="M71.605 362.609C71.605 362.609 88.6281 375.607 90.4583 394.864L86.8766 330.353" stroke="#263238" stroke-width="2" stroke-linecap="round" stroke-linejoin="round"/>
<path d="M112.814 353.202C90.4573 349.167 90.4573 394.864 90.4573 394.864" stroke="#263238" stroke-width="2" stroke-linecap="round" stroke-linejoin="round"/>
<path d="M93.1048 394.421C93.1048 394.421 80.1161 299.899 117.705 299.899" stroke="#263238" stroke-width="2" stroke-linecap="round" stroke-linejoin="round"/>
<path d="M104.283 350.486C101.223 347.042 94.7184 347.042 90.9005 355.839C87.0826 364.636 90.5168 363.111 90.5168 363.111C90.5168 363.111 97.7786 360.818 102.325 359.283C106.871 357.748 113.09 353.93 113.463 356.223C113.837 358.516 110.403 360.818 106.192 361.576C101.98 362.334 90.9005 365.404 92.042 367.696C93.1834 369.989 95.8697 376.887 95.8697 376.887C99.1418 374.111 102.593 371.554 106.202 369.231C111.181 366.171 114.241 367.263 111.555 370.757C108.868 374.25 101.232 378.028 102.758 382.614C104.283 387.199 113.473 392.936 113.473 392.936C113.473 392.936 114.615 383.381 117.291 380.321C119.968 377.261 119.978 380.705 119.21 386.058C118.826 388.338 118.57 390.637 118.443 392.946L129.148 396.773C130.899 394.108 132.815 391.554 134.885 389.128L136.853 387.209C136.853 387.209 128.44 379.947 128.056 375.352C127.672 370.757 133.793 375.352 135.702 376.119C137.611 376.887 140.671 382.24 140.671 382.24C140.671 382.24 142.59 373.443 142.973 370.383L143.347 367.322C143.347 367.322 135.318 364.262 132.258 364.262C129.198 364.262 127.672 366.555 127.672 363.504C127.672 360.454 130.733 358.525 134.177 358.909C137.289 359.431 140.355 360.198 143.347 361.202C143.347 361.202 145.65 359.293 144.882 353.556C144.115 347.82 142.206 347.82 137.611 349.345C133.015 350.87 129.965 354.324 126.521 354.324C123.077 354.324 124.996 350.112 127.289 348.971C129.581 347.829 135.318 345.527 136.469 345.143C137.621 344.759 130.349 339.406 126.521 338.639C122.693 337.871 117.744 340.607 118.108 344.376C118.816 352.395 107.343 353.93 104.283 350.486Z" fill="#92E3A9"/>
<path d="M128.902 389.866C129.02 391.02 129.099 392.172 129.138 393.32" stroke="#263238" stroke-linecap="round" stroke-linejoin="round"/>
<path d="M121.217 362.412C124.578 369.986 126.997 377.943 128.419 386.106" stroke="#263238" stroke-linecap="round" stroke-linejoin="round"/>
<path d="M119.84 359.342C117.951 355.269 116.524 352.779 116.524 352.779C118.611 351.796 120.346 350.195 121.493 348.194C122.386 346.379 123.698 344.804 125.321 343.598" stroke="#263238" stroke-linecap="round" stroke-linejoin="round"/>
<path d="M103.132 365.788C103.132 365.788 116.908 360.051 116.908 361.192" stroke="#263238" stroke-linecap="round" stroke-linejoin="round"/>
<path d="M124.553 358.515C124.553 358.515 130.674 355.455 136.027 355.455" stroke="#263238" stroke-linecap="round" stroke-linejoin="round"/>
<path d="M122.259 367.696C119.605 369.878 117.169 372.313 114.988 374.968C112.755 377.602 110.949 380.571 109.635 383.765" stroke="#263238" stroke-linecap="round" stroke-linejoin="round"/>
<path d="M126.462 369.231C126.462 369.231 134.491 366.929 138.703 370.757" stroke="#263238" stroke-linecap="round" stroke-linejoin="round"/>
<path d="M141.016 317.552C136.854 315.092 132.248 315.033 129.985 312.435C127.722 309.838 132.16 308.499 134.531 309.483C136.903 310.467 142.403 313.291 143.436 313.902C144.47 314.512 143.761 305.528 141.833 302.094C139.904 298.659 134.62 296.731 131.993 299.506C126.423 305.351 117.754 297.685 118.345 293.12C118.935 288.554 114.674 283.644 105.553 286.517C96.4311 289.39 99.8161 290.994 99.8161 290.994C99.8161 290.994 106.31 294.979 110.473 297.439C114.635 299.899 121.543 302.015 120.057 303.806C118.571 305.597 114.586 304.504 111.201 301.838C107.816 299.171 98.3302 292.844 97.3462 295.215C96.3623 297.587 92.9183 304.121 92.9183 304.121C97.1572 304.77 101.348 305.701 105.464 306.905C111.034 308.657 112.175 311.717 107.816 311.953C103.457 312.189 95.5652 308.923 93.056 313.085C90.5468 317.247 92.2787 327.943 92.2787 327.943C92.2787 327.943 100.249 322.541 104.313 322.551C108.377 322.561 105.779 324.824 101.233 327.756C99.2613 328.96 97.3592 330.274 95.5357 331.692L99.6685 342.29C102.829 341.862 106.014 341.632 109.203 341.601L111.9 341.798C111.9 341.798 111.9 330.679 115.088 327.382C118.276 324.086 118.847 331.712 119.525 333.66C120.204 335.608 118.158 341.424 118.158 341.424C118.158 341.424 126.03 337.104 128.618 335.382L131.176 333.67C131.176 333.67 128.224 325.591 126.256 323.289C124.288 320.986 121.523 321.321 123.826 319.353C126.128 317.385 129.592 318.369 131.56 321.262C133.201 323.942 134.625 326.749 135.82 329.655C135.82 329.655 138.772 330.137 142.6 325.798C146.428 321.459 145.178 320.012 141.016 317.552ZM104.815 329.793C101.764 328.258 109.026 325.208 109.026 325.208C111.703 324.824 107.875 331.318 104.815 329.793ZM109.971 315.515C108.672 314.866 112.578 313.547 112.578 313.547C118.236 314.649 111.28 316.165 109.971 315.515Z" fill="#92E3A9"/>
<path d="M104.735 337.586C103.938 338.422 103.121 339.239 102.285 340.026" stroke="#263238" stroke-linecap="round" stroke-linejoin="round"/>
<path d="M120.429 313.783C116.915 321.287 112.489 328.33 107.254 334.752" stroke="#263238" stroke-linecap="round" stroke-linejoin="round"/>
<path d="M121.847 310.733C123.687 306.63 124.622 303.924 124.622 303.924C126.737 304.852 129.085 305.113 131.352 304.672C133.305 304.156 135.352 304.112 137.325 304.544" stroke="#263238" stroke-linecap="round" stroke-linejoin="round"/>
<path d="M118.522 309.729C119.388 308.971 106.025 302.339 106.025 302.339" stroke="#263238" stroke-linecap="round" stroke-linejoin="round"/>
<path d="M125.557 313.744C125.557 313.744 131.874 316.362 135.397 320.406" stroke="#263238" stroke-linecap="round" stroke-linejoin="round"/>
<path d="M117.124 318.034C113.738 317.459 110.304 317.215 106.871 317.306C103.417 317.349 99.9908 317.93 96.7158 319.028" stroke="#263238" stroke-linecap="round" stroke-linejoin="round"/>
<path d="M118.727 322.216C118.727 322.216 125.723 326.772 125.615 332.459" stroke="#263238" stroke-linecap="round" stroke-linejoin="round"/>
<path d="M81.6006 370.54C78.2551 368.572 74.5454 368.522 72.7447 366.426C70.944 364.331 74.4864 363.278 76.3953 364.065C78.3042 364.852 82.7224 367.135 83.5686 367.627C84.4148 368.119 83.8245 360.877 82.2697 358.151C80.715 355.425 76.4642 353.841 74.3486 356.065C69.8714 360.769 62.8851 354.609 63.3574 350.929C63.8297 347.248 60.4054 343.303 53.0451 345.615C45.6849 347.927 48.4302 349.216 48.4302 349.216C48.4302 349.216 53.6552 352.424 57.0106 354.412C60.366 356.4 65.8666 358.092 64.7153 359.529C63.564 360.965 60.3169 360.099 57.6305 357.944C54.9442 355.79 47.2396 350.663 46.4425 352.572C45.6455 354.481 42.8903 359.735 42.8903 359.735C46.301 360.262 49.6735 361.011 52.9861 361.979C57.4633 363.386 58.3784 365.846 54.8754 366.043C51.3724 366.24 45.0354 363.593 43.0674 366.948C41.0995 370.303 42.4475 378.904 42.4475 378.904C42.4475 378.904 48.8632 374.554 52.13 374.564C55.3969 374.574 53.3108 376.394 49.6602 378.756C48.0719 379.728 46.5379 380.785 45.065 381.924L48.3909 390.446C50.9353 390.104 53.4988 389.923 56.066 389.905L58.2406 390.052C58.2406 390.052 58.2406 381.108 60.799 378.451C63.3574 375.794 63.8297 381.944 64.3709 383.509C64.9121 385.073 63.2787 389.757 63.2787 389.757C63.2787 389.757 69.6353 386.274 71.6918 384.896L73.7582 383.509C73.7582 383.509 71.3769 377.014 69.7632 375.155C68.1494 373.295 65.9453 373.58 67.7952 371.966C69.6451 370.353 72.4298 371.199 74.014 373.492C75.3407 375.661 76.4955 377.931 77.4679 380.281C77.4679 380.281 79.8393 380.675 82.9192 377.182C85.9991 373.688 84.9364 372.527 81.6006 370.54ZM52.4744 380.38C50.0144 379.14 55.8594 376.68 55.8594 376.68C57.9848 376.394 54.9147 381.629 52.4547 380.399L52.4744 380.38ZM56.617 368.886C55.574 368.355 58.7228 367.312 58.7228 367.312C63.2492 368.208 57.6502 369.428 56.5974 368.906L56.617 368.886Z" fill="#92E3A9"/>
<path d="M52.3867 386.668C51.7471 387.347 51.0977 387.996 50.4187 388.636" stroke="#263238" stroke-linecap="round" stroke-linejoin="round"/>
<path d="M65.0209 367.51C62.1949 373.549 58.6356 379.216 54.4233 384.385" stroke="#263238" stroke-linecap="round" stroke-linejoin="round"/>
<path d="M66.1628 365.079C67.6388 361.772 68.3965 359.598 68.3965 359.598C70.0978 360.342 71.9854 360.552 73.8085 360.198C75.3783 359.782 77.0248 359.749 78.6104 360.1" stroke="#263238" stroke-linecap="round" stroke-linejoin="round"/>
<path d="M53.4304 358.299C53.4304 358.299 64.1855 363.642 63.4868 364.252" stroke="#263238" stroke-linecap="round" stroke-linejoin="round"/>
<path d="M69.144 367.48C69.144 367.48 74.2313 369.586 77.016 372.843" stroke="#263238" stroke-linecap="round" stroke-linejoin="round"/>
<path d="M62.3542 370.982C59.6309 370.522 56.8693 370.328 54.1083 370.402C51.33 370.433 48.5739 370.901 45.9412 371.789" stroke="#263238" stroke-linecap="round" stroke-linejoin="round"/>
<path d="M63.6445 374.299C63.6445 374.299 69.2828 377.969 69.1746 382.545" stroke="#263238" stroke-linecap="round" stroke-linejoin="round"/>
<path d="M67.9241 307.387C67.9241 307.387 63.7126 310.448 61.0362 307.387C58.3597 304.327 62.1874 298.207 58.3597 295.914C54.532 293.621 48.4115 297.882 48.4115 297.882C48.4115 297.882 53.3905 299.023 53.3905 301.7C53.3905 304.376 51.088 305.528 50.7141 304.376C50.3402 303.225 47.6539 297.488 43.8261 300.175C42.7216 300.916 41.7789 301.874 41.055 302.99C40.3311 304.107 39.8411 305.358 39.6146 306.669C39.6146 306.669 48.7953 305.144 49.5628 308.637C50.3303 312.13 45.7351 308.253 41.9172 308.253C38.0993 308.253 34.6455 309.021 35.0292 311.313C35.2375 313.348 35.2375 315.399 35.0292 317.434C37.0104 315.579 39.5896 314.494 42.3009 314.374C46.5026 314.374 46.5026 317.05 42.6749 317.05C38.8471 317.05 35.7869 320.878 35.7869 320.878C35.7869 320.878 39.6048 326.615 44.2001 329.291C48.7953 331.967 50.3205 330.816 50.7042 328.523C51.088 326.231 49.553 320.494 52.2294 320.494C54.9059 320.494 48.4017 330.816 51.8457 331.2C55.2897 331.584 57.9661 330.432 58.7336 328.14L59.5011 325.847C59.5011 325.847 57.9661 320.11 58.3499 317.818C58.7336 315.525 59.5011 317.818 60.2588 320.494C61.0165 323.171 61.7938 329.665 62.9353 329.291C64.0767 328.917 67.5305 323.928 68.298 322.019C69.0656 320.11 62.9058 314.659 62.9058 313.508C62.9058 312.356 67.501 314.275 68.2685 315.417C69.036 316.558 69.7937 318.093 69.7937 318.093C69.7937 318.093 72.4702 316.184 72.0864 310.831C71.7027 305.478 67.9241 307.387 67.9241 307.387Z" fill="#92E3A9"/>
<path d="M46.4924 321.262C49.1394 317.572 53.0557 312.553 56.4504 310.064" stroke="#263238" stroke-linecap="round" stroke-linejoin="round"/>
<path d="M43.4417 325.719C43.4417 325.719 44.1108 324.656 45.2128 323.062" stroke="#263238" stroke-linecap="round" stroke-linejoin="round"/>
<path d="M58.3606 310.832C58.3606 310.832 62.946 316.568 64.0973 322.689" stroke="#263238" stroke-linecap="round" stroke-linejoin="round"/>
<path d="M53.7744 314.659C53.7744 314.659 54.9158 313.891 54.9158 321.547" stroke="#263238" stroke-linecap="round" stroke-linejoin="round"/>
<path d="M56.4504 307.387C56.4504 307.387 58.7431 305.095 57.2081 300.883" stroke="#263238" stroke-linecap="round" stroke-linejoin="round"/>
<path d="M53.39 311.215L51.4712 308.155" stroke="#263238" stroke-linecap="round" stroke-linejoin="round"/>
<path d="M49.9463 314.659C49.9463 314.659 44.2096 310.832 40.7656 310.832" stroke="#263238" stroke-linecap="round" stroke-linejoin="round"/>
<path d="M106.546 393.073H76.9773V435.631H106.546V393.073Z" fill="#263238" stroke="#263238" stroke-width="2" stroke-linecap="round" stroke-linejoin="round"/>
<path d="M460.872 57.8466H266.327V431.429H460.872V57.8466Z" stroke="#808080" stroke-linecap="round" stroke-linejoin="round"/>
<path d="M431.904 138.692H397.995V288.327H431.904V138.692Z" stroke="#808080" stroke-linecap="round" stroke-linejoin="round"/>
<path d="M450.599 246.999H440.306V288.327H450.599V246.999Z" stroke="#808080" stroke-linecap="round" stroke-linejoin="round"/>
<path d="M468.311 431.431H38.217" stroke="#263238" stroke-linecap="round" stroke-linejoin="round"/>
<path d="M485 431.43H476.184" stroke="#263238" stroke-linecap="round" stroke-linejoin="round"/>
<path d="M315.301 470.366C350.896 470.366 379.752 465.079 379.752 458.558C379.752 452.037 350.896 446.75 315.301 446.75C279.705 446.75 250.849 452.037 250.849 458.558C250.849 465.079 279.705 470.366 315.301 470.366Z" fill="#263238" stroke="#263238" stroke-width="2" stroke-linecap="round" stroke-linejoin="round"/>
<path d="M304.172 135.238C302.516 134.77 301.027 133.843 299.877 132.562C298.727 131.282 297.965 129.702 297.677 128.005C296.329 121.836 307.812 120.065 312.683 116.827C317.554 113.59 327.876 113.196 335.315 114.485C342.754 115.774 352.594 119.081 355.034 124.394C357.475 129.708 362.09 140.473 361.371 147.164C360.98 151.872 359.545 156.433 357.17 160.517C355.635 163.114 356.628 165.437 356.992 166.775C357.357 168.113 356.589 168.241 354.532 171.026C352.476 173.81 352.122 174.784 345.421 174.066C338.72 173.348 336.309 170.071 334.597 167.621C332.885 165.171 329.155 155.242 326.134 150.647C323.114 146.052 322.435 140.709 317.544 137.176C312.654 133.644 309.889 133.339 304.172 135.238Z" fill="#EBEBEB" stroke="#B0B0B0" stroke-linecap="round" stroke-linejoin="round"/>
<path d="M274.257 441.968C274.257 441.968 273.037 447.754 270.597 450.499C268.156 453.245 262.981 457.811 265.116 461.766C267.251 465.722 279.128 469.992 286.134 467.552C293.14 465.112 292.53 458.696 296.18 455.675C299.831 452.654 301.1 450.499 299.536 445.009C297.971 439.518 289.785 434.047 284.304 432.827C278.823 431.607 274.257 441.968 274.257 441.968Z" fill="white" stroke="#263238" stroke-linecap="round" stroke-linejoin="round"/>
<path d="M298.011 453.235C296.486 454.76 293.445 456.285 291.92 458.421C290.395 460.556 289.175 465.122 285.829 465.122C282.483 465.122 278.213 462.376 276.078 460.546C273.942 458.716 271.207 460.546 269.377 461.766C268.455 462.369 267.495 462.911 266.503 463.39C270.439 466.765 280.083 469.658 286.134 467.552C293.14 465.122 292.53 458.696 296.181 455.675C298.021 454.14 299.241 452.841 299.812 451.228C299.142 452.025 298.483 452.763 298.011 453.235Z" fill="#92E3A9" stroke="#263238" stroke-linecap="round" stroke-linejoin="round"/>
<path d="M350.419 434.45C350.419 434.45 351.678 440.463 354.207 443.306C356.736 446.15 362.079 450.903 359.905 455.016C357.73 459.129 345.351 463.557 338.08 461.018C330.808 458.479 331.438 451.847 327.6 448.718C323.763 445.589 322.542 443.336 324.127 437.648C325.711 431.961 334.242 426.264 339.939 424.994C345.637 423.725 350.419 434.45 350.419 434.45Z" fill="white" stroke="#263238" stroke-linecap="round" stroke-linejoin="round"/>
<path d="M325.741 446.16C327.325 447.734 330.484 449.319 332.068 451.533C333.652 453.747 334.921 458.489 338.395 458.489C341.868 458.489 346.267 455.646 348.52 453.747C350.774 451.848 353.578 453.747 355.477 455.016C356.424 455.639 357.41 456.201 358.429 456.699C354.375 460.202 344.328 463.203 338.051 461.018C330.779 458.489 331.409 451.848 327.61 448.689C325.701 447.095 324.432 445.737 323.852 444.074C324.58 444.891 325.249 445.668 325.741 446.16Z" fill="#92E3A9" stroke="#263238" stroke-linecap="round" stroke-linejoin="round"/>
<path d="M273.55 273.459C273.55 273.459 271.975 296.229 271.975 306.039C271.975 315.85 270.391 332.607 270.391 334.821C270.391 337.035 267.547 378.786 267.862 392.385C268.177 405.983 277.033 429.393 277.033 429.393C277.033 429.393 271.021 429.707 271.336 433.191C271.651 436.674 274.465 444.261 274.465 444.261C274.465 444.261 278.263 442.991 286.165 442.991C294.066 442.991 302.017 448.718 302.017 448.718C302.017 448.718 301.702 444.92 303.601 438.278C305.5 431.636 302.017 430.022 302.341 424.335C302.666 418.647 303.325 387.642 304.87 379.73C306.415 371.819 314.041 333.867 314.041 333.867C314.041 333.867 323.212 373.728 325.426 377.516C326.745 379.815 327.196 382.51 326.695 385.113C326.695 385.113 325.426 387.327 322.897 395.228C320.368 403.13 320.998 410.096 321.628 416.109C322.012 418.94 322.226 421.792 322.267 424.65C322.267 425.909 320.683 426.549 320.368 429.393C320.053 432.236 323.527 439.518 323.527 439.518C323.527 439.518 332.383 436.664 338.71 436.664C343.216 436.816 347.682 437.56 351.994 438.878C352.912 436.788 353.346 434.518 353.263 432.236C352.948 429.078 352.279 424.01 352.279 420.222C352.279 416.433 358.921 383.814 358.921 376.257C358.921 368.7 362.719 333.552 362.719 331.653C362.719 329.753 364.618 299.712 364.618 290.217C364.541 283.557 364.12 276.907 363.359 270.291L275.104 263.964L273.55 273.459Z" fill="#666666" stroke="#263238" stroke-linecap="round" stroke-linejoin="round"/>
<path d="M301.071 323.436L314.04 333.867L302.656 329.124" stroke="#263238" stroke-linecap="round" stroke-linejoin="round"/>
<path d="M309.888 300.027C309.888 300.027 308.904 315.84 308.904 317.424" stroke="#263238" stroke-linecap="round" stroke-linejoin="round"/>
<path d="M314.04 299.713L313.726 310.783" stroke="#263238" stroke-linecap="round" stroke-linejoin="round"/>
<path d="M289.372 297.183L288.103 309.827" stroke="#263238" stroke-linecap="round" stroke-linejoin="round"/>
<path d="M291.901 297.183L292.531 309.827" stroke="#263238" stroke-linecap="round" stroke-linejoin="round"/>
<path d="M340.608 297.813L341.238 312.682" stroke="#263238" stroke-linecap="round" stroke-linejoin="round"/>
<path d="M343.452 298.128L346.935 309.513" stroke="#263238" stroke-linecap="round" stroke-linejoin="round"/>
<path d="M301.387 426.234C301.387 426.234 298.228 417.693 296.959 412.311C295.69 406.928 293.801 394.599 293.801 394.599" stroke="#263238" stroke-linecap="round" stroke-linejoin="round"/>
<path d="M326.696 380.37C326.696 380.37 331.124 394.599 336.181 398.082" stroke="#263238" stroke-linecap="round" stroke-linejoin="round"/>
<path d="M277.987 441.092C277.987 441.092 293.485 434.451 296.958 436.035C300.432 437.619 297.273 439.518 293.485 438.878" stroke="#263238" stroke-linecap="round" stroke-linejoin="round"/>
<path d="M348.835 434.765C348.835 434.765 344.092 435.09 335.551 433.191C327.01 431.292 321.952 432.207 324.481 433.191C326.104 433.786 327.811 434.118 329.539 434.175" stroke="#263238" stroke-linecap="round" stroke-linejoin="round"/>
<path d="M298.386 176.939C298.386 176.939 279.523 174.46 273.028 180.944C267.406 186.546 264.157 194.097 263.956 202.031C263.956 208.27 260.286 230.065 256.792 241.302C253.299 252.54 254.293 263.009 254.539 267.998C254.905 272.198 255.562 276.367 256.507 280.475V282.975C256.507 282.975 251.518 289.961 251.272 292.45C251.026 294.94 254.51 301.434 254.765 302.684C255.021 303.934 256.015 304.18 258.76 305.636C261.506 307.092 264.743 305.892 266.495 305.892C268.246 305.892 268.463 304.396 270.736 303.146C273.009 301.897 275.478 298.158 275.478 295.156C275.478 292.155 272.979 286.92 271.483 284.677C270.644 283.444 269.982 282.099 269.515 280.682L272.015 275.447C272.015 275.447 277.997 292.411 295.719 297.41C313.441 302.408 342.626 296.426 349.839 294.163C357.051 291.899 360.318 287.924 360.318 287.924L365.563 283.427C365.913 284.234 366.05 285.117 365.962 285.992C365.874 286.867 365.564 287.705 365.061 288.426C363.31 290.915 361.066 292.667 361.066 295.658C361.181 298.522 361.6 301.365 362.316 304.14C362.818 306.384 365.268 306.64 365.809 304.642C366.35 302.645 368.053 307.594 371.792 308.637C375.531 309.68 378.286 306.384 381.031 302.143C383.777 297.902 384.771 296.16 383.521 292.411C382.271 288.662 379.536 286.428 380.028 282.935C380.52 279.442 388.264 259.979 389.012 241.755C389.759 223.532 380.53 190.587 378.788 185.608C377.046 180.629 369.548 171.636 362.06 171.636C354.572 171.636 347.3 174.135 343.846 174.135C341.591 174.12 339.339 173.952 337.106 173.633L301.682 177.126L298.386 176.939Z" fill="#92E3A9" stroke="#263238" stroke-linecap="round" stroke-linejoin="round"/>
<path d="M272.015 275.535C272.015 275.535 276.502 262.802 279.749 249.331C282.996 235.86 282.986 225.873 282.986 216.86C282.986 207.846 286.233 195.399 286.233 195.399" stroke="#263238" stroke-linecap="round" stroke-linejoin="round"/>
<path d="M271.512 284.716C270.685 283.518 270.023 282.214 269.544 280.839C264.732 278.32 259.261 280.613 256.526 282.128V282.974C256.526 282.974 251.537 289.96 251.291 292.45C251.045 294.939 254.528 301.434 254.784 302.683C255.04 303.933 256.034 304.179 258.779 305.635C261.525 307.092 264.762 305.891 266.513 305.891C268.265 305.891 268.481 304.396 270.754 303.146C273.027 301.896 275.497 298.157 275.497 295.156C275.497 292.155 273.008 286.959 271.512 284.716Z" fill="white" stroke="#263238" stroke-linecap="round" stroke-linejoin="round"/>
<path d="M383.55 292.45C382.773 290.108 381.405 288.347 380.598 286.497C378.696 285.36 376.526 284.745 374.31 284.716C368.318 284.716 366.074 287.461 366.074 287.461L365.563 287.609C365.424 287.906 365.263 288.192 365.08 288.465C363.329 290.954 361.085 292.706 361.085 295.697C361.2 298.561 361.619 301.404 362.335 304.179C362.837 306.423 365.287 306.679 365.828 304.681C366.37 302.684 368.072 307.633 371.811 308.676C375.55 309.719 378.305 306.423 381.051 302.182C383.796 297.941 384.8 296.199 383.55 292.45Z" fill="white" stroke="#263238" stroke-linecap="round" stroke-linejoin="round"/>
<path d="M365.591 283.466C365.591 283.466 366.339 269.494 362.344 257.272C358.349 245.051 355.358 238.576 356.352 228.323C357.346 218.07 361.341 190.144 361.842 186.395" stroke="#263238" stroke-linecap="round" stroke-linejoin="round"/>
<path d="M273.755 270.242C273.755 270.242 281.244 285.002 297.962 291.211C314.68 297.42 334.369 294.95 343.629 291.457C352.888 287.963 362.325 280.229 363.594 277.976C364.276 276.779 364.858 275.529 365.336 274.237" stroke="#263238" stroke-linecap="round" stroke-linejoin="round"/>
<path d="M263.778 207.807C263.778 207.807 264.31 218.484 264.31 225.962" stroke="#263238" stroke-linecap="round" stroke-linejoin="round"/>
<path d="M359.521 203.635C359.521 203.635 354.719 219.379 352.584 224.456" stroke="#263238" stroke-linecap="round" stroke-linejoin="round"/>
<path d="M379.811 188.688C379.811 188.688 384.081 201.234 382.212 210.336C380.342 219.438 376.308 231.699 376.308 233.834" stroke="#263238" stroke-linecap="round" stroke-linejoin="round"/>
<path d="M309.19 199.621L321.165 222.331L334.4 196.629C334.4 196.629 330.149 189.643 322.916 188.393C315.684 187.144 306.936 193.382 309.19 199.621Z" fill="white" stroke="#263238" stroke-linecap="round" stroke-linejoin="round"/>
<path d="M320.171 198.381C318.146 198.49 316.178 199.088 314.434 200.123C311.433 201.874 305.696 206.115 305.696 206.115C305.696 206.115 304.447 194.632 304.712 188.895C304.978 183.158 317.937 172.423 326.173 169.432C334.409 166.44 340.146 169.432 341.642 174.175C343.137 178.917 342.891 190.647 340.392 196.383C338.654 200.227 336.565 203.903 334.153 207.365C334.153 207.365 326.419 201.372 324.924 200.123C323.428 198.873 320.171 198.381 320.171 198.381Z" fill="white" stroke="#263238" stroke-linecap="round" stroke-linejoin="round"/>
<path d="M307.409 128.005C307.409 128.005 300.59 137.845 300.393 141.89C300.197 145.934 299.488 152.595 298.042 154.839C296.595 157.082 293.692 161.806 294.42 166.204C295.149 170.603 297.973 180.029 298.976 181.81C299.98 183.591 308.551 186.445 308.551 186.445C308.551 186.445 317.485 194.848 318.745 196.659C320.004 198.469 325.633 197.161 332.363 188.285C339.094 179.409 338.336 170.691 338.336 170.691C338.336 170.691 342.744 172.128 344.575 168.487C346.405 164.846 348.353 155.695 346.08 154.495C343.807 153.294 337.608 157.447 337.057 158.076C336.506 158.706 335.404 155.488 332.521 151.552C329.638 147.616 325.889 146.278 324.078 140.807C322.267 135.336 320.142 130.78 316.787 128.261C313.431 125.742 310.066 125.654 307.409 128.005Z" fill="white" stroke="#263238" stroke-linecap="round" stroke-linejoin="round"/>
<path d="M345.106 152.035C345.106 152.035 343.197 152.212 340.639 155.695C336.339 161.55 335.059 159.631 334.961 155.695C334.902 153.668 330.897 153.255 328.457 150.411C323.731 144.612 319.392 138.507 315.468 132.138C312.221 126.461 307.409 128.006 307.409 128.006C307.409 128.006 298.819 122.8 316.265 120.37" fill="#EBEBEB"/>
<path d="M345.106 152.035C345.106 152.035 343.197 152.212 340.639 155.695C336.339 161.55 335.059 159.631 334.961 155.695C334.902 153.668 330.897 153.255 328.457 150.411C323.731 144.612 319.392 138.507 315.468 132.138C312.221 126.461 307.409 128.006 307.409 128.006C307.409 128.006 298.819 122.8 316.265 120.37" stroke="#B0B0B0" stroke-linecap="round" stroke-linejoin="round"/>
<path d="M308.126 145.845C308.126 145.845 309.376 149.781 308.805 150.765C308.235 151.749 303.206 162.642 303.206 162.642C303.206 162.642 303.797 166.066 307.005 165.21C310.212 164.354 311.019 165.879 312.436 166.037C313.853 166.194 314.67 165.318 313.932 163.321" stroke="#263238" stroke-linecap="round" stroke-linejoin="round"/>
<path d="M300.797 167.129C301.73 168.086 302.891 168.791 304.172 169.175C306.051 169.618 310.292 170.317 311.719 170.464C313.146 170.612 315.291 168.496 315.291 168.496" stroke="#263238" stroke-linecap="round" stroke-linejoin="round"/>
<path d="M302.685 171.892C302.685 171.892 306.719 174.489 310.93 173.259" stroke="#263238" stroke-linecap="round" stroke-linejoin="round"/>
<path d="M317.159 151.139L323.28 154.435" stroke="#263238" stroke-linecap="round" stroke-linejoin="round"/>
<path d="M306.75 149.771L302.371 150.263" stroke="#263238" stroke-linecap="round" stroke-linejoin="round"/>
<path d="M307.595 144.104C306.735 143.532 305.749 143.175 304.721 143.064C303.694 142.952 302.655 143.09 301.691 143.464" stroke="#B0B0B0" stroke-width="2" stroke-linecap="round" stroke-linejoin="round"/>
<path d="M315.083 145.874C315.083 145.874 319.186 143.434 323.467 148.216" stroke="#B0B0B0" stroke-width="2" stroke-linecap="round" stroke-linejoin="round"/>
<path d="M314.75 140.079C314.75 140.079 311.306 143.031 312.339 144.615" stroke="#263238" stroke-linecap="round" stroke-linejoin="round"/>
<path d="M316.777 154.691C316.777 154.691 316.255 157.279 320.634 158.952" stroke="#263238" stroke-linecap="round" stroke-linejoin="round"/>
<path d="M306.434 152.625C305.15 153.691 303.679 154.509 302.095 155.036" stroke="#263238" stroke-linecap="round" stroke-linejoin="round"/>
<path d="M304.605 151.297C304.565 151.643 304.392 151.959 304.121 152.178C303.851 152.397 303.505 152.501 303.159 152.468C302.828 152.412 302.531 152.232 302.328 151.965C302.126 151.697 302.032 151.363 302.068 151.03C302.103 150.696 302.264 150.389 302.517 150.169C302.771 149.95 303.099 149.836 303.434 149.85C303.78 149.89 304.096 150.064 304.315 150.334C304.534 150.605 304.638 150.95 304.605 151.297Z" fill="#263238"/>
<path d="M319.434 153.422C319.415 153.593 319.362 153.759 319.28 153.91C319.197 154.061 319.085 154.194 318.951 154.302C318.816 154.41 318.662 154.49 318.497 154.538C318.331 154.586 318.158 154.602 317.987 154.583C317.816 154.564 317.65 154.512 317.499 154.429C317.348 154.346 317.215 154.234 317.107 154.1C316.999 153.966 316.919 153.811 316.871 153.646C316.822 153.481 316.807 153.308 316.826 153.136C316.843 152.965 316.894 152.8 316.976 152.648C317.057 152.497 317.168 152.364 317.302 152.256C317.435 152.148 317.589 152.067 317.754 152.019C317.919 151.971 318.092 151.956 318.263 151.975C318.609 152.012 318.927 152.186 319.147 152.457C319.366 152.728 319.469 153.075 319.434 153.422Z" fill="#263238"/>
<path d="M338.325 170.691L334.872 169.411C334.131 171.002 333.213 172.504 332.136 173.889C331.158 175.142 330.261 176.457 329.45 177.825" stroke="#263238" stroke-linecap="round" stroke-linejoin="round"/>
<path d="M310.016 185.805C310.78 186.243 311.645 186.474 312.525 186.474C313.406 186.474 314.271 186.243 315.034 185.805C317.118 184.697 319.094 183.399 320.938 181.928" stroke="#263238" stroke-linecap="round" stroke-linejoin="round"/>
<path d="M368.553 318.555H263.502V325.473H368.553V318.555Z" fill="#8C8C8C" stroke="#263238" stroke-linecap="round" stroke-linejoin="round"/>
<path d="M263.286 464.688C262.86 464.688 262.438 464.604 262.045 464.441C261.651 464.278 261.294 464.038 260.993 463.737C260.692 463.435 260.454 463.077 260.292 462.683C260.13 462.289 260.047 461.867 260.048 461.441V295.865C260.047 295.439 260.13 295.017 260.292 294.623C260.454 294.229 260.692 293.871 260.993 293.569C261.294 293.268 261.651 293.028 262.045 292.865C262.438 292.702 262.86 292.618 263.286 292.618C263.712 292.618 264.134 292.702 264.528 292.865C264.922 293.028 265.28 293.267 265.582 293.569C265.883 293.87 266.123 294.228 266.286 294.622C266.449 295.016 266.533 295.438 266.533 295.865V461.441C266.533 461.868 266.449 462.29 266.286 462.684C266.123 463.078 265.883 463.436 265.582 463.737C265.28 464.039 264.922 464.278 264.528 464.441C264.134 464.604 263.712 464.688 263.286 464.688Z" fill="#8C8C8C" stroke="#263238" stroke-linecap="round" stroke-linejoin="round"/>
<path d="M370.502 464.688C370.076 464.688 369.654 464.604 369.261 464.441C368.867 464.278 368.51 464.038 368.209 463.737C367.909 463.435 367.67 463.077 367.508 462.683C367.346 462.289 367.263 461.867 367.265 461.441V295.865C367.263 295.439 367.346 295.017 367.508 294.623C367.67 294.229 367.909 293.871 368.209 293.569C368.51 293.268 368.867 293.028 369.261 292.865C369.654 292.702 370.076 292.618 370.502 292.618C370.928 292.618 371.351 292.702 371.745 292.865C372.139 293.028 372.497 293.267 372.798 293.569C373.1 293.87 373.339 294.228 373.502 294.622C373.665 295.016 373.749 295.438 373.749 295.865V461.441C373.749 461.868 373.665 462.29 373.502 462.684C373.339 463.078 373.1 463.436 372.798 463.737C372.497 464.039 372.139 464.278 371.745 464.441C371.351 464.604 370.928 464.688 370.502 464.688Z" fill="#8C8C8C" stroke="#263238" stroke-linecap="round" stroke-linejoin="round"/>
<path d="M187.381 470.366C216.455 470.366 240.024 465.079 240.024 458.558C240.024 452.037 216.455 446.75 187.381 446.75C158.306 446.75 134.737 452.037 134.737 458.558C134.737 465.079 158.306 470.366 187.381 470.366Z" fill="#263238" stroke="#263238" stroke-width="2" stroke-linecap="round" stroke-linejoin="round"/>
<path d="M200.911 437.963C200.911 437.963 211.223 445.392 214.028 447.124C216.832 448.856 221.388 448.699 219.233 452.438C217.078 456.177 206.087 455.606 199.681 455.833C193.275 456.059 186.348 453.55 179.48 453.323C172.612 453.097 178.604 441.004 178.604 441.004C178.604 441.004 193.925 434.086 200.911 437.963Z" fill="white" stroke="#263238" stroke-linecap="round" stroke-linejoin="round"/>
<path d="M219.233 452.438C219.557 451.94 219.747 451.368 219.784 450.775C210.515 454.288 195.342 450.391 191.573 450.519L176.38 451.031C176.537 451.723 176.937 452.335 177.508 452.757C178.079 453.178 178.782 453.379 179.49 453.324C186.378 453.55 193.266 456.049 199.691 455.833C206.117 455.616 217.068 456.167 219.233 452.438Z" fill="white" stroke="#263238" stroke-linecap="round" stroke-linejoin="round"/>
<path d="M217.393 245.848C217.393 245.848 219.44 297.439 216.793 313.99C214.146 330.54 210.151 360.847 206.805 370.077C203.46 379.307 196.857 413.845 197.064 419.779C197.27 425.712 196.985 431.213 196.985 431.213C196.985 431.213 199.73 431.114 200.232 432.472C200.621 434.268 200.835 436.097 200.872 437.933C200.872 437.933 192.705 439.587 190.451 440.571C188.198 441.555 176.882 443.798 176.882 443.798C176.882 443.798 176.282 439.705 176.213 437.422C176.144 435.139 178.181 428.212 178.181 428.212C178.181 428.212 175.504 403.159 174.52 387.642C173.536 372.124 177.876 338.156 177.699 332.676C177.522 327.195 182.953 244.274 182.953 244.274L214.903 242.739L217.393 245.848Z" fill="#92E3A9" stroke="#263238" stroke-linecap="round" stroke-linejoin="round"/>
<path d="M173.624 442.086C173.624 442.086 189.476 451.159 192.27 452.91C195.065 454.662 198.302 455.449 197.485 458.214C196.669 460.979 189.446 463.98 178.032 464.364C166.618 464.748 156.02 462.396 151.818 459.759C147.617 457.122 151.907 448.787 151.907 448.787C151.907 448.787 163.862 437.393 173.624 442.086Z" fill="white" stroke="#263238" stroke-linecap="round" stroke-linejoin="round"/>
<path d="M197.487 458.194C197.627 457.751 197.647 457.279 197.546 456.826C194.19 458.184 186.948 460.408 176.468 459.925C167.543 459.424 158.68 458.14 149.979 456.088C149.948 456.803 150.101 457.514 150.423 458.153C150.745 458.793 151.226 459.338 151.819 459.739C156.021 462.346 166.579 464.727 178.033 464.344C189.487 463.96 196.66 460.969 197.487 458.194Z" fill="white" stroke="#263238" stroke-linecap="round" stroke-linejoin="round"/>
<path d="M187.686 317.267C187.686 317.267 182.658 371.386 178.555 385.231C174.451 399.076 171.244 425.712 171.381 429.826C171.462 432.289 171.852 434.732 172.542 437.097C173.378 437.638 174.038 438.411 174.442 439.321C174.811 440.81 175.015 442.334 175.052 443.867C175.052 443.867 172.877 447.144 164.749 450.165C159.94 451.965 154.896 453.059 149.773 453.412C149.773 453.412 150.344 429.619 147.962 413.245C145.581 396.872 146.663 374.87 148.257 367.982C149.852 361.094 153.089 348.617 151.908 340.882C150.727 333.148 148.651 325.453 148.651 325.453L144.941 310.487L187.686 317.267Z" fill="#92E3A9" stroke="#263238" stroke-linecap="round" stroke-linejoin="round"/>
<path d="M190.51 143.749C190.51 143.749 180.256 147.144 177.009 150.292C173.762 153.441 183.012 246.724 183.012 246.724C183.012 246.724 198.037 249.263 203.823 249.066C209.609 248.869 217.392 245.848 217.392 245.848C217.392 245.848 215.316 193.5 212.472 182.321C210.659 175.248 208.388 168.299 205.673 161.52L193.57 146.081L190.51 143.749Z" fill="white" stroke="#263238" stroke-linecap="round" stroke-linejoin="round"/>
<path d="M203.104 159.247L206.932 169.461L200.3 166.135C200.3 166.135 202.524 160.133 203.104 159.247Z" stroke="#263238" stroke-linecap="round" stroke-linejoin="round"/>
<path d="M199.75 169.264L203.105 159.286L199.947 153.225C199.947 153.225 197.713 166.096 199.75 169.264Z" stroke="#263238" stroke-linecap="round" stroke-linejoin="round"/>
<path d="M234.121 117.339C234.751 114.387 233.137 102.166 233.137 102.166C233.137 102.166 215.593 109.713 203.873 112.744C192.154 115.774 182.658 120.832 182.717 124.552C182.717 124.552 185.305 133.083 185.876 135.73C186.447 138.377 183.327 143.848 183.327 143.848C183.327 143.848 190.511 152.812 194.702 156.64L199.002 174.922L200.616 155.292C202.349 153.019 203.962 150.658 205.448 148.217C205.448 148.217 211.775 150.637 213.703 150.185C215.632 149.732 225.511 138.308 225.511 138.308C225.511 138.308 232.311 137.098 232.97 135.444C233.629 133.791 231.317 121.924 231.317 121.924C232.704 120.723 233.684 119.121 234.121 117.339Z" fill="white" stroke="#263238" stroke-linecap="round" stroke-linejoin="round"/>
<path d="M205.397 148.226L199.69 144.832L201.678 152.763L205.397 148.226Z" fill="#263238" stroke="#263238" stroke-linecap="round" stroke-linejoin="round"/>
<path d="M225.097 123.685C224.723 124.925 223.995 125.801 223.473 125.653C222.952 125.506 222.834 124.364 223.208 123.125C223.582 121.885 224.31 121.009 224.831 121.157C225.353 121.304 225.471 122.446 225.097 123.685Z" fill="#263238"/>
<path d="M221.762 118.726C221.762 118.726 225.295 115.194 228.296 118.579" stroke="#263238" stroke-linecap="round" stroke-linejoin="round"/>
<path d="M220.413 139.449C220.413 139.449 216.536 139.016 214.509 134.401" stroke="#263238" stroke-linecap="round" stroke-linejoin="round"/>
<path d="M195.046 121.186C195.046 121.186 204.886 117.801 218.003 112.97C231.119 108.138 239.119 104.399 237.978 99.0954C236.836 93.7916 228.65 86.2149 216.33 83.8238C204.01 81.4327 190.746 84.5323 185.206 89.2554C179.666 93.9786 176.459 100.217 177.6 105.521C178.741 110.825 180.001 124.158 182.953 127.306C185.905 130.455 195.046 121.186 195.046 121.186Z" fill="#263238" stroke="#263238" stroke-linecap="round" stroke-linejoin="round"/>
<path d="M198.214 123.017C198.214 123.017 195.97 114.919 192.113 115.755C188.256 116.591 186.396 125.595 189.319 129.728C192.241 133.86 196.64 130.928 196.64 130.928" fill="white"/>
<path d="M198.214 123.017C198.214 123.017 195.97 114.919 192.113 115.755C188.256 116.591 186.396 125.595 189.319 129.728C192.241 133.86 196.64 130.928 196.64 130.928" stroke="#263238" stroke-linecap="round" stroke-linejoin="round"/>
<path d="M178.171 108.414C178.171 108.414 169.895 98.0819 164.474 97.4817C159.052 96.8814 153.02 105.245 151.593 113.875C150.166 122.505 158.481 125.771 164.228 124.532C169.974 123.292 178.692 114.357 178.673 113.098C178.653 111.838 178.171 108.414 178.171 108.414Z" fill="#263238" stroke="#263238" stroke-linecap="round" stroke-linejoin="round"/>
<path d="M197.22 158.302L189.939 171.045C189.939 171.045 183.74 155.704 182.392 152.29C181.423 149.43 180.744 146.479 180.365 143.483L183.513 141.643L197.22 158.302Z" fill="white" stroke="#263238" stroke-linecap="round" stroke-linejoin="round"/>
<path d="M232.851 254.763C232.851 254.763 228.866 256.525 226.445 256.603C224.024 256.682 225.461 250.699 226.366 246.36C227.272 242.021 231.168 251.585 232.851 254.763Z" fill="white" stroke="#263238" stroke-linecap="round" stroke-linejoin="round"/>
<path d="M229.575 245.435L228.315 264.131L220.444 253.612L219.597 252.559L218.613 238.567C218.613 238.567 227.794 240.643 229.575 245.435Z" fill="white" stroke="#263238" stroke-linecap="round" stroke-linejoin="round"/>
<path d="M217.274 224.82C217.274 224.82 225.274 229.937 228.777 237.917C230.989 243.291 232.363 248.972 232.851 254.763C232.851 254.763 228.797 246.547 225.215 244.234C223.029 242.853 220.623 241.855 218.101 241.282L217.274 224.82Z" fill="white" stroke="#263238" stroke-linecap="round" stroke-linejoin="round"/>
<path d="M180.365 143.484C180.365 143.484 185.905 162.573 190.56 172.216C195.214 181.859 197.605 211.743 199.416 217.628C199.416 217.628 198.481 271.147 199.022 287.137C199.563 303.127 200.518 344.691 200.518 344.691C200.518 344.691 187.362 347.879 164.356 343.628C141.35 339.377 126.029 332.607 126.029 332.607C126.029 332.607 141.921 234.69 142.334 233.303C142.747 231.915 150.127 206.981 150.944 190.499C151.761 174.017 151.505 166.706 158.54 158.234C165.576 149.762 180.365 143.484 180.365 143.484Z" fill="white" stroke="#263238" stroke-linecap="round" stroke-linejoin="round"/>
<path d="M160.754 325.247C159.387 324.942 158.009 324.578 156.631 324.174" stroke="#263238" stroke-linecap="round" stroke-linejoin="round"/>
<path d="M151.662 319.205L154.418 286.281C179.244 291.703 195.027 288.534 195.027 288.534L195.48 325.523C185.388 327.55 175.013 327.73 164.858 326.054" stroke="#263238" stroke-linecap="round" stroke-linejoin="round"/>
<path d="M194.977 292.588C194.977 292.588 179.233 295.766 154.367 290.335" stroke="#263238" stroke-linecap="round" stroke-linejoin="round"/>
<path d="M220.571 250.601C220.571 250.601 228.443 260.579 229.23 267.329C230.017 274.08 226.573 292.5 226.573 292.5L220.571 250.601Z" fill="white" stroke="#263238" stroke-linecap="round" stroke-linejoin="round"/>
<path d="M199.906 159.286C199.906 159.286 210.957 180.698 212.866 196.629C214.775 212.56 215.611 264.2 215.217 279.757C214.824 295.313 214.125 341.974 214.125 341.974C214.125 341.974 229.485 336.425 230.243 331.82C231.001 327.215 226.504 288.977 224.782 278.517C223.06 268.057 219.232 236.205 219.035 230.301C218.839 224.397 222.292 205.052 218.77 195.566C216.537 189.372 214.793 183.012 213.554 176.545C213.554 176.545 214.381 170.474 209.619 163.754C204.856 157.033 198.834 154.75 199.906 159.286Z" fill="white" stroke="#263238" stroke-linecap="round" stroke-linejoin="round"/>
<path d="M209.708 172.216C209.708 172.216 212.659 186.642 213.712 193.766" stroke="#263238" stroke-width="2" stroke-linecap="round" stroke-linejoin="round"/>
<path d="M218.15 222.222C218.15 222.222 215.266 221.701 214.42 220.914C213.574 220.126 209.953 209.608 209.746 203.704C209.54 197.8 211.616 192.181 213.682 192.112C215.749 192.043 217.618 199.138 217.057 207.138C216.772 211.3 210.711 219.015 206.883 220.776C203.055 222.537 202.386 220.933 202.386 220.933" stroke="#263238" stroke-width="2" stroke-linecap="round" stroke-linejoin="round"/>
<path d="M202.751 220.491C202.76 220.813 202.674 221.131 202.503 221.405C202.332 221.678 202.084 221.895 201.79 222.028C201.496 222.16 201.169 222.203 200.851 222.15C200.533 222.098 200.237 221.952 200.002 221.731C199.766 221.511 199.601 221.226 199.528 220.912C199.454 220.598 199.475 220.269 199.588 219.967C199.701 219.665 199.901 219.403 200.163 219.214C200.424 219.025 200.736 218.918 201.058 218.907C201.493 218.893 201.914 219.052 202.232 219.349C202.549 219.646 202.735 220.057 202.751 220.491Z" fill="#263238"/>
<path d="M221.22 222.114C221.234 222.44 221.15 222.762 220.98 223.04C220.81 223.318 220.561 223.539 220.266 223.675C219.97 223.811 219.64 223.857 219.318 223.805C218.997 223.754 218.698 223.608 218.459 223.386C218.221 223.164 218.053 222.876 217.979 222.559C217.904 222.242 217.925 221.91 218.04 221.605C218.154 221.3 218.357 221.036 218.622 220.846C218.887 220.657 219.202 220.55 219.528 220.54C219.96 220.527 220.381 220.685 220.698 220.979C221.014 221.274 221.202 221.682 221.22 222.114Z" fill="#263238"/>
<path d="M206.873 174.893C206.873 174.893 207.08 174.194 209.146 174.588C211.213 174.981 216.172 179.38 216.172 179.38C216.172 179.38 215.335 168.202 211.518 163.528C207.7 158.854 200.93 154.505 200.93 154.505C200.426 154.856 200.081 155.393 199.972 155.998C199.864 156.603 199.999 157.227 200.349 157.732C201.56 159.759 206.873 174.893 206.873 174.893Z" fill="white" stroke="#263238" stroke-linecap="round" stroke-linejoin="round"/>
<path d="M178.85 161.146C178.85 161.146 184.429 192.88 184.97 209.018" stroke="#263238" stroke-width="2" stroke-linecap="round" stroke-linejoin="round"/>
<path d="M190.058 208.033C190.026 207.02 189.694 206.04 189.104 205.216C188.514 204.392 187.693 203.761 186.744 203.405C185.796 203.048 184.762 202.981 183.776 203.213C182.789 203.444 181.893 203.963 181.202 204.704C180.511 205.445 180.055 206.375 179.893 207.375C179.731 208.375 179.869 209.401 180.291 210.323C180.712 211.245 181.398 212.02 182.261 212.552C183.124 213.083 184.125 213.346 185.138 213.307C186.488 213.256 187.763 212.673 188.685 211.685C189.607 210.697 190.1 209.384 190.058 208.033Z" fill="white" stroke="#263238" stroke-linecap="round" stroke-linejoin="round"/>
<path d="M180.364 143.484C180.364 143.484 176.556 143.484 175.011 145.334C174.307 146.158 173.65 147.022 173.043 147.921C173.043 147.921 174.027 170.553 174.244 176.457C174.46 182.361 174.559 185.825 174.559 185.825C174.559 185.825 183.257 179.586 186.18 178.11C188.097 177.168 190.069 176.34 192.084 175.631L182.755 149.889L180.364 143.484Z" fill="white" stroke="#263238" stroke-linecap="round" stroke-linejoin="round"/>
<path d="M145.305 282.001L212.256 275.959L208.359 232.397L141.782 241.667L145.305 282.001Z" fill="#263238" stroke="#263238" stroke-linecap="round" stroke-linejoin="round"/>
<path d="M175.514 261.032C175.514 261.032 179.775 263.777 181.054 263.738C182.796 263.932 184.519 264.261 186.21 264.722C187.017 264.85 190.195 268.756 191.042 270.006C191.888 271.255 195.696 274.985 195.716 275.624C195.735 276.264 194.476 276.785 193.511 276.815C192.599 276.699 191.719 276.401 190.924 275.939C191.487 277.335 191.963 278.765 192.35 280.219C192.26 280.705 192.013 281.148 191.647 281.481C191.281 281.813 190.816 282.016 190.323 282.06C188.893 281.876 187.485 281.546 186.122 281.076C186.122 281.076 185.521 282.217 182.993 283.26C180.464 284.303 180.316 284.638 178.23 284.549C177.083 284.524 175.956 284.24 174.934 283.718C173.912 283.197 173.02 282.452 172.326 281.538C170.811 279.511 166.422 273.086 166.088 272.613C165.839 272.279 165.562 271.966 165.261 271.678L174.678 261.1L175.514 261.032Z" fill="white" stroke="#263238" stroke-linecap="round" stroke-linejoin="round"/>
<path d="M165.241 152.222C165.241 152.222 149.9 158.224 146.181 165.358C142.461 172.492 120.351 230.853 121.709 234.769C123.067 238.685 138.634 252.796 143.081 258.129C147.529 263.462 162.289 276.52 162.289 276.52L177.049 261.396L151.376 230.39L163.184 190.676" fill="white"/>
<path d="M165.241 152.222C165.241 152.222 149.9 158.224 146.181 165.358C142.461 172.492 120.351 230.853 121.709 234.769C123.067 238.685 138.634 252.796 143.081 258.129C147.529 263.462 162.289 276.52 162.289 276.52L177.049 261.396L151.376 230.39L163.184 190.676" stroke="#263238" stroke-linecap="round" stroke-linejoin="round"/>
</svg>
