<svg width="281" height="281" viewBox="0 0 281 281" fill="none" xmlns="http://www.w3.org/2000/svg">
<path d="M71.3714 16.531H15.2758L14.535 26.0883H71.3714V16.531Z" stroke="#808080" stroke-linecap="round" stroke-linejoin="round"/>
<path d="M71.3714 26.0883H15.2758L14.535 35.6521H71.3714V26.0883Z" stroke="#808080" stroke-linecap="round" stroke-linejoin="round"/>
<path d="M71.3714 35.6521H15.2758L14.535 45.2159H71.3714V35.6521Z" stroke="#808080" stroke-linecap="round" stroke-linejoin="round"/>
<path d="M71.3714 45.2159H15.2758L14.535 54.7796H71.3714V45.2159Z" stroke="#808080" stroke-linecap="round" stroke-linejoin="round"/>
<path d="M71.3714 54.7796H15.2758L14.535 64.337H71.3714V54.7796Z" stroke="#808080" stroke-linecap="round" stroke-linejoin="round"/>
<path d="M71.3714 64.3369H15.2758L14.535 73.9007H71.3714V64.3369Z" stroke="#808080" stroke-linecap="round" stroke-linejoin="round"/>
<path d="M71.3714 73.9007H15.2758L14.535 83.4645H71.3714V73.9007Z" stroke="#808080" stroke-linecap="round" stroke-linejoin="round"/>
<path d="M71.3714 83.4645H15.2758L14.535 93.0218H71.3714V83.4645Z" stroke="#808080" stroke-linecap="round" stroke-linejoin="round"/>
<path d="M71.3714 93.0218H15.2758L14.535 102.586H71.3714V93.0218Z" stroke="#808080" stroke-linecap="round" stroke-linejoin="round"/>
<path d="M71.3714 102.586H15.2758L14.535 112.149H71.3714V102.586Z" stroke="#808080" stroke-linecap="round" stroke-linejoin="round"/>
<path d="M71.3714 112.149H15.2758L14.535 121.707H71.3714V112.149Z" stroke="#808080" stroke-linecap="round" stroke-linejoin="round"/>
<path d="M71.3714 121.707H15.2758L14.535 131.27H71.3714V121.707Z" stroke="#808080" stroke-linecap="round" stroke-linejoin="round"/>
<path d="M71.3714 131.27H15.2758L14.535 140.834H71.3714V131.27Z" stroke="#808080" stroke-linecap="round" stroke-linejoin="round"/>
<path d="M71.3714 140.834H15.2758L14.535 150.398H71.3714V140.834Z" stroke="#808080" stroke-linecap="round" stroke-linejoin="round"/>
<path d="M71.3714 150.398H15.2758L14.535 159.955H71.3714V150.398Z" stroke="#808080" stroke-linecap="round" stroke-linejoin="round"/>
<path d="M129.04 16.531H72.9448L72.204 26.0883H129.04V16.531Z" stroke="#808080" stroke-linecap="round" stroke-linejoin="round"/>
<path d="M129.04 26.0883H72.9448L72.204 35.6521H129.04V26.0883Z" stroke="#808080" stroke-linecap="round" stroke-linejoin="round"/>
<path d="M129.04 35.6521H72.9448L72.204 45.2159H129.04V35.6521Z" stroke="#808080" stroke-linecap="round" stroke-linejoin="round"/>
<path d="M129.04 45.2159H72.9448L72.204 54.7796H129.04V45.2159Z" stroke="#808080" stroke-linecap="round" stroke-linejoin="round"/>
<path d="M129.04 54.7796H72.9448L72.204 64.337H129.04V54.7796Z" stroke="#808080" stroke-linecap="round" stroke-linejoin="round"/>
<path d="M129.04 64.3369H72.9448L72.204 73.9007H129.04V64.3369Z" stroke="#808080" stroke-linecap="round" stroke-linejoin="round"/>
<path d="M129.04 73.9007H72.9448L72.204 83.4645H129.04V73.9007Z" stroke="#808080" stroke-linecap="round" stroke-linejoin="round"/>
<path d="M129.04 83.4645H72.9448L72.204 93.0218H129.04V83.4645Z" stroke="#808080" stroke-linecap="round" stroke-linejoin="round"/>
<path d="M129.04 93.0218H72.9448L72.204 102.586H129.04V93.0218Z" stroke="#808080" stroke-linecap="round" stroke-linejoin="round"/>
<path d="M129.04 102.586H72.9448L72.204 112.149H129.04V102.586Z" stroke="#808080" stroke-linecap="round" stroke-linejoin="round"/>
<path d="M129.04 112.149H72.9448L72.204 121.707H129.04V112.149Z" stroke="#808080" stroke-linecap="round" stroke-linejoin="round"/>
<path d="M129.04 121.707H72.9448L72.204 131.27H129.04V121.707Z" stroke="#808080" stroke-linecap="round" stroke-linejoin="round"/>
<path d="M129.04 131.27H72.9448L72.204 140.834H129.04V131.27Z" stroke="#808080" stroke-linecap="round" stroke-linejoin="round"/>
<path d="M129.04 140.834H72.9448L72.204 150.398H129.04V140.834Z" stroke="#808080" stroke-linecap="round" stroke-linejoin="round"/>
<path d="M129.04 150.398H72.9448L72.204 159.955H129.04V150.398Z" stroke="#808080" stroke-linecap="round" stroke-linejoin="round"/>
<path d="M131.851 9.12556H13.2247V16.3372H131.851V9.12556Z" stroke="#808080" stroke-linecap="round" stroke-linejoin="round"/>
<path d="M131.851 16.3372V143.374" stroke="#808080" stroke-linecap="round" stroke-linejoin="round"/>
<path d="M130.559 16.544V103.704" stroke="#808080" stroke-linecap="round" stroke-linejoin="round"/>
<path d="M132.689 143.096H131.098V146.333H132.689V143.096Z" fill="#263238" stroke="#808080" stroke-linecap="round" stroke-linejoin="round"/>
<path d="M131.251 103.006H129.659V106.243H131.251V103.006Z" fill="#263238" stroke="#808080" stroke-linecap="round" stroke-linejoin="round"/>
<path d="M46.7522 150.986C46.7522 150.986 39.2214 146.572 38.6642 156.576C38.1071 166.579 36.7111 231.593 36.7111 231.593" stroke="#263238" stroke-width="2" stroke-linecap="round" stroke-linejoin="round"/>
<path d="M34.758 157.454C34.758 157.454 40.8806 171.871 38.1071 230.714" stroke="#263238" stroke-width="2" stroke-linecap="round" stroke-linejoin="round"/>
<path d="M40.7888 153.002C40.7888 153.002 37.905 154.941 36.2703 152.718C34.6355 150.495 37.3785 146.411 34.9539 144.666C32.5294 142.921 28.3843 145.59 28.3843 145.59C28.3843 145.59 31.5987 146.585 31.4946 148.44C31.3906 150.295 29.8415 151.025 29.6578 150.185C29.4742 149.345 27.9129 145.293 25.2985 146.992C24.5457 147.462 23.8907 148.088 23.3731 148.832C22.8554 149.576 22.4857 150.423 22.2862 151.322C22.2862 151.322 28.3721 150.637 28.7395 153.054C29.1068 155.471 26.2475 152.627 23.7373 152.472C21.227 152.317 18.9371 152.705 19.1024 154.314C19.158 155.73 19.078 157.148 18.8636 158.547C20.2381 157.342 21.9754 156.696 23.7618 156.724C26.5231 156.899 26.419 158.753 23.9087 158.598C21.3984 158.443 19.2004 160.957 19.2004 160.957C19.2004 160.957 21.4903 165.086 24.3985 167.128C27.3068 169.17 28.3537 168.42 28.6843 166.863C29.015 165.306 28.2435 161.254 30.0007 161.364C31.7579 161.474 27.0925 168.356 29.3333 168.763C31.5742 169.17 33.3804 168.485 33.9682 166.928L34.5804 165.37C34.5804 165.37 33.7967 161.332 34.1396 159.761C34.4825 158.191 34.8927 159.807 35.2907 161.7C35.6886 163.593 35.9397 168.117 36.705 167.897C37.4703 167.677 39.9255 164.382 40.501 163.089C41.0766 161.797 37.2683 157.836 37.3111 157.041C37.354 156.246 40.2929 157.758 40.7521 158.585C41.2113 159.412 41.6521 160.524 41.6521 160.524C41.6521 160.524 43.4889 159.309 43.4399 155.587C43.3909 151.865 40.7888 153.002 40.7888 153.002Z" fill="#43A367"/>
<path opacity="0.3" d="M40.7888 153.002C40.7888 153.002 37.905 154.941 36.2703 152.718C34.6355 150.495 37.3785 146.411 34.9539 144.666C32.5294 142.921 28.3843 145.59 28.3843 145.59C28.3843 145.59 31.5987 146.585 31.4946 148.44C31.3906 150.295 29.8415 151.025 29.6578 150.185C29.4742 149.345 27.9129 145.293 25.2985 146.992C24.5457 147.462 23.8907 148.088 23.3731 148.832C22.8554 149.576 22.4857 150.423 22.2862 151.322C22.2862 151.322 28.3721 150.637 28.7395 153.054C29.1068 155.471 26.2475 152.627 23.7373 152.472C21.227 152.317 18.9371 152.705 19.1024 154.314C19.158 155.73 19.078 157.148 18.8636 158.547C20.2381 157.342 21.9754 156.696 23.7618 156.724C26.5231 156.899 26.419 158.753 23.9087 158.598C21.3984 158.443 19.2004 160.957 19.2004 160.957C19.2004 160.957 21.4903 165.086 24.3985 167.128C27.3068 169.17 28.3537 168.42 28.6843 166.863C29.015 165.306 28.2435 161.254 30.0007 161.364C31.7579 161.474 27.0925 168.356 29.3333 168.763C31.5742 169.17 33.3804 168.485 33.9682 166.928L34.5804 165.37C34.5804 165.37 33.7967 161.332 34.1396 159.761C34.4825 158.191 34.8927 159.807 35.2907 161.7C35.6886 163.593 35.9397 168.117 36.705 167.897C37.4703 167.677 39.9255 164.382 40.501 163.089C41.0766 161.797 37.2683 157.836 37.3111 157.041C37.354 156.246 40.2929 157.758 40.7521 158.585C41.2113 159.412 41.6521 160.524 41.6521 160.524C41.6521 160.524 43.4889 159.309 43.4399 155.587C43.3909 151.865 40.7888 153.002 40.7888 153.002Z" fill="#263238"/>
<path d="M26.1924 161.745C28.066 159.296 30.8334 155.981 33.1539 154.398" stroke="#263238" stroke-linecap="round" stroke-linejoin="round"/>
<path d="M24.0128 164.711C24.0128 164.711 24.4965 164.007 25.2802 162.947" stroke="#263238" stroke-linecap="round" stroke-linejoin="round"/>
<path d="M34.3784 154.992C34.3784 154.992 37.1703 159.154 37.6846 163.438" stroke="#263238" stroke-linecap="round" stroke-linejoin="round"/>
<path d="M31.2191 157.454C31.2191 157.454 32.0028 156.97 31.7089 162.269" stroke="#263238" stroke-linecap="round" stroke-linejoin="round"/>
<path d="M33.2824 152.53C33.2824 152.53 34.8743 151.038 34.0355 148.059" stroke="#263238" stroke-linecap="round" stroke-linejoin="round"/>
<path d="M31.1028 155.057L29.964 152.86" stroke="#263238" stroke-linecap="round" stroke-linejoin="round"/>
<path d="M28.7089 157.299C28.7089 157.299 25.0965 154.417 22.8372 154.275" stroke="#263238" stroke-linecap="round" stroke-linejoin="round"/>
<path d="M51.0381 145.151C51.0381 145.151 50.9279 149.519 47.6951 149.732C44.4623 149.946 42.4664 144.259 39.1602 145.629C35.8539 146.999 35.5356 153.228 35.5356 153.228C35.5356 153.228 38.6703 150.508 40.3602 151.878C42.05 153.248 41.6582 155.367 40.7459 155.031C39.8336 154.695 34.9172 153.538 34.7519 157.454C34.6833 158.571 34.8297 159.69 35.1822 160.745C35.5347 161.801 36.086 162.769 36.8029 163.593C36.8029 163.593 40.299 156.698 42.8399 157.959C45.3807 159.219 40.7398 160.304 38.8846 162.85C37.0295 165.396 35.8233 168.078 37.4703 169.002C38.8521 169.908 40.1443 170.958 41.3276 172.136C41.1179 169.869 41.6848 167.597 42.9256 165.732C44.9705 162.934 46.6604 164.311 44.7991 166.85C42.9378 169.39 43.8746 173.377 43.8746 173.377C43.8746 173.377 49.3482 173.771 53.2667 172.084C57.1852 170.398 57.2097 168.802 55.9484 167.367C54.6871 165.933 50.3217 164.013 51.6258 162.23C52.9299 160.446 56.279 170.068 58.1893 167.975C60.0996 165.881 60.6812 163.509 59.6097 161.829L58.5322 160.143C58.5322 160.143 54.1728 158.204 52.9116 156.782C51.6503 155.361 53.4687 156.02 55.5259 156.886C57.5832 157.752 62.0588 160.576 62.3772 159.613C62.6956 158.65 61.2322 153.797 60.3934 152.324C59.5546 150.85 53.2116 152.162 52.4891 151.574C51.7667 150.986 55.2014 148.912 56.2974 148.989C57.1192 149.061 57.9367 149.18 58.7464 149.345C58.7464 149.345 58.8444 146.579 55.281 144.091C51.7177 141.603 51.0381 145.151 51.0381 145.151Z" fill="#43A367"/>
<path opacity="0.2" d="M51.0381 145.151C51.0381 145.151 50.9279 149.519 47.6951 149.732C44.4623 149.946 42.4664 144.259 39.1602 145.629C35.8539 146.999 35.5356 153.228 35.5356 153.228C35.5356 153.228 38.6703 150.508 40.3602 151.878C42.05 153.248 41.6582 155.367 40.7459 155.031C39.8336 154.695 34.9172 153.538 34.7519 157.454C34.6833 158.571 34.8297 159.69 35.1822 160.745C35.5347 161.801 36.086 162.769 36.8029 163.593C36.8029 163.593 40.299 156.698 42.8399 157.959C45.3807 159.219 40.7398 160.304 38.8846 162.85C37.0295 165.396 35.8233 168.078 37.4703 169.002C38.8521 169.908 40.1443 170.958 41.3276 172.136C41.1179 169.869 41.6848 167.597 42.9256 165.732C44.9705 162.934 46.6604 164.311 44.7991 166.85C42.9378 169.39 43.8746 173.377 43.8746 173.377C43.8746 173.377 49.3482 173.771 53.2667 172.084C57.1852 170.398 57.2097 168.802 55.9484 167.367C54.6871 165.933 50.3217 164.013 51.6258 162.23C52.9299 160.446 56.279 170.068 58.1893 167.975C60.0996 165.881 60.6812 163.509 59.6097 161.829L58.5322 160.143C58.5322 160.143 54.1728 158.204 52.9116 156.782C51.6503 155.361 53.4687 156.02 55.5259 156.886C57.5832 157.752 62.0588 160.576 62.3772 159.613C62.6956 158.65 61.2322 153.797 60.3934 152.324C59.5546 150.85 53.2116 152.162 52.4891 151.574C51.7667 150.986 55.2014 148.912 56.2974 148.989C57.1192 149.061 57.9367 149.18 58.7464 149.345C58.7464 149.345 58.8444 146.579 55.281 144.091C51.7177 141.603 51.0381 145.151 51.0381 145.151Z" fill="#263238"/>
<path d="M49.3788 166.521C48.338 162.87 47.0767 157.687 47.1563 154.159" stroke="#263238" stroke-linecap="round" stroke-linejoin="round"/>
<path d="M50.7258 170.857C50.7258 170.857 50.3829 169.862 49.9115 168.317" stroke="#263238" stroke-linecap="round" stroke-linejoin="round"/>
<path d="M48.589 153.28C48.589 153.28 54.4361 153.17 58.8506 155.542" stroke="#263238" stroke-linecap="round" stroke-linejoin="round"/>
<path d="M48.7543 158.295C48.7543 158.295 48.8278 157.138 53.6524 161.06" stroke="#263238" stroke-linecap="round" stroke-linejoin="round"/>
<path d="M45.4726 152.789C45.4726 152.789 45.142 150.081 41.7439 148.944" stroke="#263238" stroke-linecap="round" stroke-linejoin="round"/>
<path d="M46.3971 156.782L43.5379 156.485" stroke="#263238" stroke-linecap="round" stroke-linejoin="round"/>
<path d="M46.8931 160.841C46.8931 160.841 41.6949 162.695 40.0173 164.976" stroke="#263238" stroke-linecap="round" stroke-linejoin="round"/>
<path d="M16.3656 174.23C16.3656 174.23 32.811 185.7 32.5293 230.126" stroke="#263238" stroke-width="2" stroke-linecap="round" stroke-linejoin="round"/>
<path d="M36.6438 171.199C36.6438 171.199 36.1172 176.227 32.3579 176.149C28.5986 176.071 26.8231 169.312 22.874 170.566C18.9249 171.819 18.0126 178.966 18.0126 178.966C18.0126 178.966 21.876 176.136 23.7005 177.894C25.5251 179.651 24.8883 182.049 23.8658 181.571C22.8434 181.092 17.2779 179.264 16.7269 183.768C16.5508 185.05 16.6228 186.356 16.9385 187.608C17.2542 188.859 17.807 190.031 18.5636 191.05C18.5636 191.05 23.2168 183.445 26.0333 185.151C28.8497 186.857 23.4005 187.651 21.0311 190.404C18.6616 193.157 17.0452 196.13 18.8453 197.357C20.3614 198.541 21.7604 199.883 23.0209 201.364C23.0209 201.364 22.8311 197.163 25.47 194.133C28.1088 191.102 29.9028 192.84 27.5333 195.613C25.1638 198.385 25.8373 203.102 25.8373 203.102C25.8373 203.102 32.1253 204.104 36.7968 202.553C41.4684 201.002 41.6337 199.154 40.3051 197.383C38.9765 195.613 34.1213 192.95 35.7805 191.025C37.4397 189.099 40.4459 200.517 42.8399 198.281C45.2338 196.046 46.1155 193.377 45.0257 191.322L43.9358 189.267C43.9358 189.267 39.0745 186.611 37.752 184.834C36.4295 183.057 38.4622 184.013 40.7643 185.215C43.0664 186.417 47.9706 190.12 48.4176 189.047C48.8646 187.975 47.6155 182.236 46.789 180.433C45.9624 178.63 38.5112 179.529 37.7275 178.779C36.9438 178.029 41.0949 175.981 42.3562 176.194C43.2907 176.359 44.2165 176.574 45.1297 176.84C45.1297 176.84 45.4849 173.661 41.597 170.43C37.7091 167.199 36.6438 171.199 36.6438 171.199Z" fill="#43A367"/>
<path opacity="0.3" d="M36.6438 171.199C36.6438 171.199 36.1172 176.227 32.3579 176.149C28.5986 176.071 26.8231 169.312 22.874 170.566C18.9249 171.819 18.0126 178.966 18.0126 178.966C18.0126 178.966 21.876 176.136 23.7005 177.894C25.5251 179.651 24.8883 182.049 23.8658 181.571C22.8434 181.092 17.2779 179.264 16.7269 183.768C16.5508 185.05 16.6228 186.356 16.9385 187.608C17.2542 188.859 17.807 190.031 18.5636 191.05C18.5636 191.05 23.2168 183.445 26.0333 185.151C28.8497 186.857 23.4005 187.651 21.0311 190.404C18.6616 193.157 17.0452 196.13 18.8453 197.357C20.3614 198.541 21.7604 199.883 23.0209 201.364C23.0209 201.364 22.8311 197.163 25.47 194.133C28.1088 191.102 29.9028 192.84 27.5333 195.613C25.1638 198.385 25.8373 203.102 25.8373 203.102C25.8373 203.102 32.1253 204.104 36.7968 202.553C41.4684 201.002 41.6337 199.154 40.3051 197.383C38.9765 195.613 34.1213 192.95 35.7805 191.025C37.4397 189.099 40.4459 200.517 42.8399 198.281C45.2338 196.046 46.1155 193.377 45.0257 191.322L43.9358 189.267C43.9358 189.267 39.0745 186.611 37.752 184.834C36.4295 183.057 38.4622 184.013 40.7643 185.215C43.0664 186.417 47.9706 190.12 48.4176 189.047C48.8646 187.975 47.6155 182.236 46.789 180.433C45.9624 178.63 38.5112 179.529 37.7275 178.779C36.9438 178.029 41.0949 175.981 42.3562 176.194C43.2907 176.359 44.2165 176.574 45.1297 176.84C45.1297 176.84 45.4849 173.661 41.597 170.43C37.7091 167.199 36.6438 171.199 36.6438 171.199Z" fill="#263238"/>
<path d="M32.811 195.697C31.9293 191.374 30.9742 185.267 31.3477 181.202" stroke="#263238" stroke-linecap="round" stroke-linejoin="round"/>
<path d="M33.9743 200.827C33.9743 200.827 33.6682 199.651 33.258 197.816" stroke="#263238" stroke-linecap="round" stroke-linejoin="round"/>
<path d="M33.0559 180.33C33.0559 180.33 39.7908 180.782 44.6889 183.962" stroke="#263238" stroke-linecap="round" stroke-linejoin="round"/>
<path d="M32.8171 186.133C32.8171 186.133 33.0069 184.808 38.2234 189.816" stroke="#263238" stroke-linecap="round" stroke-linejoin="round"/>
<path d="M29.5232 179.451C29.5232 179.451 29.3823 176.298 25.5679 174.643" stroke="#263238" stroke-linecap="round" stroke-linejoin="round"/>
<path d="M30.2334 184.155L26.9639 183.529" stroke="#263238" stroke-linecap="round" stroke-linejoin="round"/>
<path d="M30.4476 188.886C30.4476 188.886 24.2822 190.514 22.1454 192.989" stroke="#263238" stroke-linecap="round" stroke-linejoin="round"/>
<path d="M22.776 209.235C22.776 209.235 33.3682 217.771 34.507 230.417L32.2783 188.052" stroke="#263238" stroke-width="2" stroke-linecap="round" stroke-linejoin="round"/>
<path d="M48.4176 203.057C34.507 200.407 34.507 230.417 34.507 230.417" stroke="#263238" stroke-width="2" stroke-linecap="round" stroke-linejoin="round"/>
<path d="M36.154 230.126C36.154 230.126 28.0721 168.052 51.4605 168.052" stroke="#263238" stroke-width="2" stroke-linecap="round" stroke-linejoin="round"/>
<path d="M43.1093 201.273C41.2051 199.012 37.1581 199.012 34.7825 204.789C32.4069 210.566 34.5437 209.564 34.5437 209.564C34.5437 209.564 39.0622 208.058 41.8909 207.05C44.7195 206.042 48.589 203.535 48.8217 205.041C49.0544 206.546 46.9176 208.058 44.2971 208.556C41.6766 209.054 34.7825 211.07 35.4927 212.575C36.2029 214.081 37.8744 218.611 37.8744 218.611C39.9104 216.788 42.058 215.108 44.3032 213.583C47.4012 211.574 49.3054 212.291 47.6339 214.585C45.9624 216.879 41.2113 219.361 42.1603 222.372C43.1093 225.383 48.8278 229.15 48.8278 229.15C48.8278 229.15 49.538 222.876 51.2034 220.866C52.8688 218.856 52.8749 221.118 52.3973 224.634C52.1584 226.131 51.999 227.641 51.9197 229.157L58.5812 231.671C59.6706 229.92 60.8628 228.243 62.1507 226.65L63.3752 225.39C63.3752 225.39 58.1403 220.621 57.9016 217.603C57.6628 214.585 61.4711 217.603 62.6588 218.107C63.8466 218.611 65.7508 222.126 65.7508 222.126C65.7508 222.126 66.9447 216.349 67.1835 214.34L67.4161 212.33C67.4161 212.33 62.4201 210.32 60.5159 210.32C58.6118 210.32 57.6628 211.826 57.6628 209.823C57.6628 207.819 59.5669 206.553 61.7098 206.805C63.6465 207.148 65.5545 207.651 67.4161 208.31C67.4161 208.31 68.8488 207.057 68.3713 203.289C67.8937 199.522 66.7059 199.522 63.8466 200.524C60.9874 201.525 59.0893 203.794 56.9464 203.794C54.8035 203.794 55.9974 201.028 57.424 200.278C58.8506 199.529 62.4201 198.016 63.1364 197.764C63.8528 197.512 59.3281 193.997 56.9464 193.493C54.5647 192.989 51.485 194.785 51.7116 197.26C52.1524 202.527 45.0134 203.535 43.1093 201.273Z" fill="#43A367"/>
<path d="M58.4281 227.134C58.5015 227.893 58.5505 228.649 58.575 229.402" stroke="#263238" stroke-linecap="round" stroke-linejoin="round"/>
<path d="M53.6463 209.105C55.7377 214.079 57.2428 219.305 58.1281 224.666" stroke="#263238" stroke-linecap="round" stroke-linejoin="round"/>
<path d="M52.7891 207.089C51.6136 204.414 50.7258 202.779 50.7258 202.779C52.0245 202.133 53.1038 201.082 53.8177 199.768C54.3732 198.576 55.1896 197.542 56.1994 196.75" stroke="#263238" stroke-linecap="round" stroke-linejoin="round"/>
<path d="M42.3929 211.322C42.3929 211.322 50.9646 207.554 50.9646 208.304" stroke="#263238" stroke-linecap="round" stroke-linejoin="round"/>
<path d="M55.7219 206.546C55.7219 206.546 59.5301 204.537 62.8608 204.537" stroke="#263238" stroke-linecap="round" stroke-linejoin="round"/>
<path d="M54.2953 212.575C52.6436 214.008 51.1282 215.608 49.7707 217.351C48.3814 219.081 47.2575 221.03 46.44 223.128" stroke="#263238" stroke-linecap="round" stroke-linejoin="round"/>
<path d="M56.9097 213.583C56.9097 213.583 61.9058 212.071 64.5263 214.585" stroke="#263238" stroke-linecap="round" stroke-linejoin="round"/>
<path d="M65.9651 179.645C63.3752 178.03 60.5098 177.991 59.1016 176.285C57.6934 174.579 60.4547 173.7 61.9302 174.346C63.4058 174.992 66.8283 176.847 67.4712 177.248C68.1141 177.648 67.6733 171.748 66.4732 169.493C65.2732 167.238 61.9853 165.971 60.3506 167.794C56.8852 171.632 51.4912 166.598 51.8585 163.6C52.2259 160.601 49.5748 157.377 43.8991 159.264C38.2234 161.151 40.3296 162.204 40.3296 162.204C40.3296 162.204 44.3705 164.821 46.9604 166.437C49.5503 168.052 53.8484 169.442 52.9239 170.618C51.9993 171.794 49.5197 171.076 47.4135 169.325C45.3073 167.574 39.4051 163.419 38.7928 164.976C38.1806 166.534 36.0376 170.824 36.0376 170.824C38.6752 171.251 41.2831 171.862 43.844 172.653C47.3094 173.803 48.0196 175.813 45.3073 175.968C42.595 176.123 37.6846 173.978 36.1233 176.711C34.5621 179.445 35.6397 186.469 35.6397 186.469C35.6397 186.469 40.599 182.921 43.1276 182.928C45.6563 182.934 44.0399 184.42 41.2113 186.346C39.9844 187.137 38.8009 188 37.6663 188.931L40.2378 195.89C42.2045 195.609 44.186 195.458 46.1706 195.438L47.8482 195.567C47.8482 195.567 47.8482 188.265 49.8319 186.101C51.8157 183.936 52.1708 188.944 52.5932 190.223C53.0157 191.503 51.7422 195.322 51.7422 195.322C51.7422 195.322 56.6403 192.485 58.2505 191.354L59.8424 190.23C59.8424 190.23 58.0056 184.924 56.7811 183.412C55.5566 181.9 53.8361 182.12 55.2688 180.828C56.7015 179.535 58.8567 180.181 60.0812 182.081C61.1023 183.841 61.9888 185.684 62.7323 187.593C62.7323 187.593 64.5691 187.91 66.9508 185.06C69.3325 182.21 68.5549 181.261 65.9651 179.645ZM43.4399 187.684C41.5419 186.676 46.0604 184.672 46.0604 184.672C47.7257 184.42 45.344 188.685 43.4399 187.684ZM46.6482 178.307C45.84 177.881 48.2707 177.015 48.2707 177.015C51.7912 177.739 47.4625 178.734 46.6482 178.307Z" fill="#43A367"/>
<path d="M43.3909 192.802C42.895 193.351 42.3868 193.887 41.8664 194.404" stroke="#263238" stroke-linecap="round" stroke-linejoin="round"/>
<path d="M53.1565 177.17C50.9696 182.098 48.2161 186.723 44.9583 190.941" stroke="#263238" stroke-linecap="round" stroke-linejoin="round"/>
<path d="M54.0382 175.167C55.1831 172.472 55.7648 170.695 55.7648 170.695C57.0809 171.305 58.5418 171.476 59.9526 171.186C61.1676 170.847 62.4415 170.819 63.6691 171.102" stroke="#263238" stroke-linecap="round" stroke-linejoin="round"/>
<path d="M51.9687 174.508C52.5075 174.01 44.193 169.655 44.193 169.655" stroke="#263238" stroke-linecap="round" stroke-linejoin="round"/>
<path d="M56.3464 177.144C56.3464 177.144 60.2772 178.863 62.4691 181.519" stroke="#263238" stroke-linecap="round" stroke-linejoin="round"/>
<path d="M51.0993 179.962C48.9924 179.584 46.8558 179.424 44.7195 179.483C42.5705 179.512 40.4387 179.893 38.401 180.614" stroke="#263238" stroke-linecap="round" stroke-linejoin="round"/>
<path d="M52.0973 182.708C52.0973 182.708 56.4505 185.7 56.3831 189.435" stroke="#263238" stroke-linecap="round" stroke-linejoin="round"/>
<path d="M28.9966 214.443C26.9149 213.151 24.6067 213.118 23.4862 211.742C22.3658 210.365 24.5699 209.674 25.7577 210.191C26.9455 210.708 29.6946 212.207 30.2211 212.53C30.7477 212.853 30.3803 208.097 29.413 206.307C28.4456 204.517 25.8006 203.477 24.4842 204.937C21.6984 208.026 17.3514 203.981 17.6453 201.564C17.9391 199.147 15.8085 196.556 11.2287 198.075C6.649 199.593 8.35722 200.44 8.35722 200.44C8.35722 200.44 11.6083 202.546 13.6962 203.852C15.784 205.157 19.2065 206.268 18.4902 207.212C17.7738 208.155 15.7534 207.587 14.0819 206.172C12.4104 204.756 7.61638 201.39 7.12045 202.643C6.62451 203.897 4.91018 207.348 4.91018 207.348C7.0324 207.693 9.13084 208.185 11.192 208.821C13.9778 209.745 14.5472 211.361 12.3675 211.49C10.1879 211.619 6.24491 209.881 5.02038 212.084C3.79586 214.288 4.63466 219.936 4.63466 219.936C4.63466 219.936 8.62661 217.079 10.6593 217.086C12.692 217.092 11.394 218.288 9.12255 219.839C8.1343 220.477 7.17979 221.171 6.26328 221.919L8.33273 227.516C9.91595 227.291 11.511 227.173 13.1084 227.16L14.4615 227.257C14.4615 227.257 14.4615 221.383 16.0534 219.638C17.6453 217.894 17.9391 221.932 18.2759 222.96C18.6126 223.987 17.5963 227.063 17.5963 227.063C17.5963 227.063 21.5515 224.776 22.8311 223.871L24.1169 222.96C24.1169 222.96 22.6352 218.695 21.6311 217.474C20.627 216.252 19.2555 216.44 20.4066 215.38C21.5576 214.32 23.2903 214.876 24.2761 216.382C25.1016 217.806 25.8201 219.297 26.4251 220.84C26.4251 220.84 27.9007 221.099 29.817 218.805C31.7334 216.511 31.0722 215.748 28.9966 214.443ZM10.8736 220.905C9.34296 220.091 12.9798 218.475 12.9798 218.475C14.3023 218.288 12.392 221.726 10.8614 220.918L10.8736 220.905ZM13.4512 213.357C12.8022 213.008 14.7615 212.323 14.7615 212.323C17.5779 212.911 14.0941 213.713 13.439 213.37L13.4512 213.357Z" fill="#43A367"/>
<path d="M10.8185 225.034C10.4205 225.48 10.0164 225.907 9.59396 226.327" stroke="#263238" stroke-linecap="round" stroke-linejoin="round"/>
<path d="M18.68 212.453C16.9216 216.419 14.7069 220.141 12.0859 223.535" stroke="#263238" stroke-linecap="round" stroke-linejoin="round"/>
<path d="M19.3902 210.856C20.3086 208.685 20.78 207.257 20.78 207.257C21.8386 207.746 23.0131 207.884 24.1475 207.651C25.1243 207.378 26.1488 207.356 27.1353 207.587" stroke="#263238" stroke-linecap="round" stroke-linejoin="round"/>
<path d="M11.4675 206.404C11.4675 206.404 18.1595 209.913 17.7248 210.314" stroke="#263238" stroke-linecap="round" stroke-linejoin="round"/>
<path d="M21.2454 212.433C21.2454 212.433 24.4108 213.816 26.1435 215.955" stroke="#263238" stroke-linecap="round" stroke-linejoin="round"/>
<path d="M17.0207 214.734C15.3262 214.431 13.6079 214.304 11.89 214.352C10.1612 214.373 8.44629 214.68 6.80817 215.264" stroke="#263238" stroke-linecap="round" stroke-linejoin="round"/>
<path d="M17.8228 216.911C17.8228 216.911 21.3311 219.322 21.2637 222.327" stroke="#263238" stroke-linecap="round" stroke-linejoin="round"/>
<path d="M20.4861 172.97C20.4861 172.97 17.8657 174.979 16.2003 172.97C14.5349 170.96 16.9167 166.941 14.5349 165.435C12.1532 163.929 8.34497 166.727 8.34497 166.727C8.34497 166.727 11.443 167.477 11.443 169.235C11.443 170.992 10.0103 171.748 9.77766 170.992C9.545 170.236 7.87353 166.469 5.49182 168.233C4.80454 168.72 4.21796 169.349 3.76755 170.082C3.31715 170.815 3.01226 171.637 2.87134 172.498C2.87134 172.498 8.58375 171.496 9.06132 173.79C9.53888 176.084 6.67961 173.538 4.30403 173.538C1.92845 173.538 -0.220594 174.042 0.0181885 175.548C0.147796 176.884 0.147796 178.231 0.0181885 179.567C1.25094 178.349 2.85574 177.637 4.54281 177.558C7.15718 177.558 7.15718 179.315 4.77547 179.315C2.39377 179.315 0.489631 181.829 0.489631 181.829C0.489631 181.829 2.86521 185.597 5.72448 187.354C8.58375 189.112 9.53276 188.356 9.77154 186.85C10.0103 185.345 9.05519 181.577 10.7206 181.577C12.3859 181.577 8.33884 188.356 10.4818 188.608C12.6247 188.86 14.29 188.104 14.7676 186.598L15.2452 185.093C15.2452 185.093 14.29 181.325 14.5288 179.82C14.7676 178.314 15.2452 179.82 15.7166 181.577C16.1881 183.335 16.6717 187.6 17.382 187.354C18.0922 187.109 20.2412 183.832 20.7188 182.579C21.1964 181.325 17.3636 177.745 17.3636 176.989C17.3636 176.233 20.2229 177.493 20.7004 178.243C21.178 178.992 21.6494 180 21.6494 180C21.6494 180 23.3148 178.747 23.076 175.231C22.8372 171.716 20.4861 172.97 20.4861 172.97Z" fill="#43A367"/>
<path d="M7.15106 182.081C8.79805 179.658 11.2349 176.362 13.3472 174.727" stroke="#263238" stroke-linecap="round" stroke-linejoin="round"/>
<path d="M5.25305 185.008C5.25305 185.008 5.66939 184.311 6.35513 183.264" stroke="#263238" stroke-linecap="round" stroke-linejoin="round"/>
<path d="M14.535 175.231C14.535 175.231 17.3881 178.999 18.1045 183.018" stroke="#263238" stroke-linecap="round" stroke-linejoin="round"/>
<path d="M11.6818 177.745C11.6818 177.745 12.392 177.241 12.392 182.269" stroke="#263238" stroke-linecap="round" stroke-linejoin="round"/>
<path d="M13.3472 172.97C13.3472 172.97 14.7737 171.464 13.8186 168.698" stroke="#263238" stroke-linecap="round" stroke-linejoin="round"/>
<path d="M11.443 175.483L10.2491 173.474" stroke="#263238" stroke-linecap="round" stroke-linejoin="round"/>
<path d="M9.30012 177.745C9.30012 177.745 5.73063 175.231 3.58771 175.231" stroke="#263238" stroke-linecap="round" stroke-linejoin="round"/>
<path d="M44.5175 229.241H26.119V257.189H44.5175V229.241Z" fill="#263238" stroke="#263238" stroke-width="2" stroke-linecap="round" stroke-linejoin="round"/>
<path d="M264.987 9.09323H143.937V254.43H264.987V9.09323Z" stroke="#808080" stroke-linecap="round" stroke-linejoin="round"/>
<path d="M246.962 62.1851H225.864V160.453H246.962V62.1851Z" stroke="#808080" stroke-linecap="round" stroke-linejoin="round"/>
<path d="M258.595 133.312H252.191V160.453H258.595V133.312Z" stroke="#808080" stroke-linecap="round" stroke-linejoin="round"/>
<path d="M269.616 254.43H2.00192" stroke="#263238" stroke-linecap="round" stroke-linejoin="round"/>
<path d="M280 254.43H274.514" stroke="#263238" stroke-linecap="round" stroke-linejoin="round"/>
<path d="M174.409 280C196.557 280 214.512 276.528 214.512 272.246C214.512 267.963 196.557 264.491 174.409 264.491C152.261 264.491 134.306 267.963 134.306 272.246C134.306 276.528 152.261 280 174.409 280Z" fill="#263238" stroke="#263238" stroke-width="2" stroke-linecap="round" stroke-linejoin="round"/>
<path d="M167.484 59.9169C166.454 59.6099 165.527 59.0007 164.812 58.1599C164.097 57.3192 163.622 56.2814 163.443 55.1673C162.605 51.1157 169.75 49.9525 172.78 47.8265C175.811 45.7005 182.234 45.442 186.863 46.2885C191.491 47.1351 197.614 49.3063 199.132 52.7958C200.651 56.2853 203.522 63.3547 203.075 67.7489C202.832 70.8406 201.939 73.8362 200.461 76.5178C199.506 78.2238 200.124 79.7488 200.351 80.6276C200.577 81.5065 200.1 81.5905 198.82 83.4192C197.54 85.248 197.32 85.8877 193.15 85.416C188.981 84.9443 187.481 82.7924 186.416 81.1834C185.35 79.5743 183.03 73.0542 181.15 70.0364C179.27 67.0187 178.848 63.5098 175.805 61.1899C172.762 58.8701 171.042 58.6697 167.484 59.9169Z" fill="#EBEBEB" stroke="#B0B0B0" stroke-linecap="round" stroke-linejoin="round"/>
<path d="M148.872 261.351C148.872 261.351 148.112 265.15 146.594 266.953C145.076 268.756 141.855 271.754 143.184 274.352C144.512 276.95 151.902 279.754 156.262 278.152C160.621 276.549 160.241 272.336 162.513 270.352C164.784 268.368 165.574 266.953 164.601 263.347C163.627 259.742 158.533 256.149 155.123 255.347C151.712 254.546 148.872 261.351 148.872 261.351Z" fill="white" stroke="#263238" stroke-linecap="round" stroke-linejoin="round"/>
<path d="M163.652 268.75C162.703 269.751 160.811 270.753 159.862 272.155C158.913 273.557 158.154 276.556 156.072 276.556C153.99 276.556 151.333 274.753 150.004 273.551C148.676 272.349 146.974 273.551 145.835 274.352C145.261 274.748 144.664 275.104 144.047 275.418C146.496 277.635 152.496 279.535 156.262 278.152C160.621 276.556 160.241 272.336 162.513 270.352C163.658 269.344 164.417 268.491 164.772 267.431C164.356 267.955 163.946 268.439 163.652 268.75Z" fill="#43A367" stroke="#263238" stroke-linecap="round" stroke-linejoin="round"/>
<path d="M196.261 256.414C196.261 256.414 197.044 260.362 198.618 262.23C200.192 264.097 203.516 267.218 202.163 269.919C200.81 272.62 193.108 275.528 188.583 273.861C184.058 272.194 184.45 267.839 182.062 265.784C179.675 263.729 178.915 262.249 179.901 258.514C180.887 254.779 186.195 251.037 189.74 250.204C193.285 249.37 196.261 256.414 196.261 256.414Z" fill="white" stroke="#263238" stroke-linecap="round" stroke-linejoin="round"/>
<path d="M180.905 264.104C181.891 265.137 183.856 266.178 184.842 267.632C185.828 269.086 186.618 272.2 188.779 272.2C190.94 272.2 193.677 270.333 195.079 269.086C196.481 267.839 198.226 269.086 199.408 269.919C199.997 270.329 200.611 270.698 201.245 271.024C198.722 273.325 192.471 275.296 188.565 273.861C184.04 272.2 184.432 267.839 182.069 265.764C180.881 264.717 180.091 263.826 179.73 262.734C180.183 263.27 180.599 263.78 180.905 264.104Z" fill="#43A367" stroke="#263238" stroke-linecap="round" stroke-linejoin="round"/>
<path d="M148.431 150.689C148.431 150.689 147.451 165.642 147.451 172.084C147.451 178.527 146.465 189.532 146.465 190.986C146.465 192.44 144.696 219.858 144.892 228.789C145.088 237.719 150.598 253.092 150.598 253.092C150.598 253.092 146.857 253.299 147.053 255.586C147.249 257.874 149 262.856 149 262.856C149 262.856 151.364 262.023 156.28 262.023C161.196 262.023 166.144 265.784 166.144 265.784C166.144 265.784 165.948 263.289 167.129 258.927C168.311 254.565 166.144 253.506 166.346 249.771C166.548 246.036 166.958 225.674 167.919 220.478C168.88 215.283 173.625 190.359 173.625 190.359C173.625 190.359 179.332 216.537 180.709 219.024C181.53 220.534 181.811 222.304 181.499 224.013C181.499 224.013 180.709 225.467 179.136 230.656C177.562 235.845 177.954 240.42 178.346 244.368C178.585 246.228 178.718 248.101 178.744 249.977C178.744 250.805 177.758 251.225 177.562 253.092C177.366 254.96 179.528 259.742 179.528 259.742C179.528 259.742 185.038 257.868 188.975 257.868C191.779 257.967 194.558 258.456 197.24 259.322C197.812 257.949 198.082 256.458 198.03 254.96C197.834 252.885 197.418 249.557 197.418 247.07C197.418 244.582 201.551 223.16 201.551 218.197C201.551 213.234 203.914 190.152 203.914 188.905C203.914 187.658 205.096 167.929 205.096 161.694C205.047 157.32 204.786 152.953 204.312 148.608L149.398 144.453L148.431 150.689Z" fill="#666666" stroke="#263238" stroke-linecap="round" stroke-linejoin="round"/>
<path d="M165.556 183.509L173.625 190.359L166.542 187.244" stroke="#263238" stroke-linecap="round" stroke-linejoin="round"/>
<path d="M171.042 168.136C171.042 168.136 170.429 178.521 170.429 179.561" stroke="#263238" stroke-linecap="round" stroke-linejoin="round"/>
<path d="M173.625 167.929L173.429 175.199" stroke="#263238" stroke-linecap="round" stroke-linejoin="round"/>
<path d="M158.276 166.269L157.486 174.572" stroke="#263238" stroke-linecap="round" stroke-linejoin="round"/>
<path d="M159.849 166.269L160.241 174.572" stroke="#263238" stroke-linecap="round" stroke-linejoin="round"/>
<path d="M190.157 166.682L190.548 176.446" stroke="#263238" stroke-linecap="round" stroke-linejoin="round"/>
<path d="M191.926 166.889L194.093 174.366" stroke="#263238" stroke-linecap="round" stroke-linejoin="round"/>
<path d="M165.752 251.018C165.752 251.018 163.786 245.409 162.996 241.874C162.207 238.339 161.031 230.242 161.031 230.242" stroke="#263238" stroke-linecap="round" stroke-linejoin="round"/>
<path d="M181.499 220.898C181.499 220.898 184.254 230.243 187.401 232.53" stroke="#263238" stroke-linecap="round" stroke-linejoin="round"/>
<path d="M151.192 260.775C151.192 260.775 160.835 256.414 162.997 257.454C165.158 258.494 163.192 259.742 160.835 259.322" stroke="#263238" stroke-linecap="round" stroke-linejoin="round"/>
<path d="M195.275 256.621C195.275 256.621 192.324 256.834 187.009 255.587C181.695 254.339 178.548 254.94 180.121 255.587C181.131 255.977 182.194 256.195 183.269 256.233" stroke="#263238" stroke-linecap="round" stroke-linejoin="round"/>
<path d="M163.884 87.3029C163.884 87.3029 152.147 85.6745 148.106 89.9329C144.608 93.6114 142.586 98.5707 142.461 103.781C142.461 107.878 140.177 122.191 138.004 129.571C135.83 136.951 136.449 143.826 136.602 147.102C136.829 149.86 137.238 152.598 137.826 155.296V156.938C137.826 156.938 134.722 161.526 134.569 163.16C134.416 164.795 136.583 169.06 136.743 169.881C136.902 170.702 137.52 170.863 139.228 171.82C140.937 172.776 142.951 171.988 144.041 171.988C145.131 171.988 145.265 171.005 146.68 170.185C148.094 169.364 149.631 166.908 149.631 164.937C149.631 162.967 148.076 159.529 147.145 158.055C146.623 157.246 146.211 156.362 145.921 155.432L147.476 151.994C147.476 151.994 151.198 163.135 162.225 166.417C173.252 169.7 191.412 165.771 195.9 164.285C200.387 162.799 202.42 160.188 202.42 160.188L205.683 157.235C205.901 157.765 205.986 158.344 205.932 158.919C205.877 159.494 205.684 160.044 205.371 160.517C204.281 162.152 202.885 163.303 202.885 165.267C202.957 167.148 203.218 169.015 203.663 170.837C203.975 172.311 205.5 172.479 205.837 171.167C206.173 169.855 207.233 173.105 209.559 173.79C211.886 174.475 213.6 172.311 215.308 169.526C217.016 166.74 217.635 165.597 216.857 163.135C216.08 160.673 214.378 159.206 214.684 156.912C214.99 154.618 219.808 141.836 220.274 129.868C220.739 117.901 214.996 96.2657 213.912 92.9959C212.829 89.7262 208.163 83.8199 203.504 83.8199C198.845 83.8199 194.32 85.4612 192.171 85.4612C190.767 85.4513 189.366 85.3412 187.977 85.1317L165.935 87.4257L163.884 87.3029Z" fill="#43A367" stroke="#263238" stroke-linecap="round" stroke-linejoin="round"/>
<path d="M147.476 152.052C147.476 152.052 150.268 143.69 152.288 134.844C154.308 125.997 154.302 119.438 154.302 113.519C154.302 107.6 156.323 99.4256 156.323 99.4256" stroke="#263238" stroke-linecap="round" stroke-linejoin="round"/>
<path d="M147.163 158.081C146.649 157.294 146.237 156.438 145.939 155.535C142.945 153.881 139.541 155.387 137.839 156.382V156.938C137.839 156.938 134.734 161.526 134.581 163.16C134.428 164.795 136.596 169.06 136.755 169.881C136.914 170.702 137.532 170.863 139.241 171.82C140.949 172.776 142.963 171.988 144.053 171.988C145.143 171.988 145.278 171.005 146.692 170.185C148.106 169.364 149.643 166.908 149.643 164.937C149.643 162.967 148.094 159.555 147.163 158.081Z" fill="white" stroke="#263238" stroke-linecap="round" stroke-linejoin="round"/>
<path d="M216.876 163.16C216.392 161.622 215.541 160.466 215.039 159.251C213.855 158.504 212.505 158.101 211.127 158.081C207.398 158.081 206.002 159.884 206.002 159.884L205.683 159.981C205.597 160.176 205.497 160.364 205.383 160.543C204.294 162.178 202.898 163.328 202.898 165.293C202.969 167.173 203.23 169.041 203.675 170.863C203.988 172.336 205.512 172.504 205.849 171.193C206.186 169.881 207.245 173.131 209.571 173.816C211.898 174.501 213.612 172.336 215.321 169.551C217.029 166.766 217.653 165.622 216.876 163.16Z" fill="white" stroke="#263238" stroke-linecap="round" stroke-linejoin="round"/>
<path d="M205.702 157.261C205.702 157.261 206.167 148.085 203.681 140.059C201.196 132.033 199.334 127.781 199.953 121.047C200.571 114.314 203.057 95.9749 203.369 93.5129" stroke="#263238" stroke-linecap="round" stroke-linejoin="round"/>
<path d="M148.559 148.576C148.559 148.576 153.219 158.269 163.621 162.346C174.023 166.424 186.275 164.802 192.036 162.508C197.798 160.214 203.669 155.135 204.459 153.655C204.883 152.869 205.246 152.048 205.543 151.199" stroke="#263238" stroke-linecap="round" stroke-linejoin="round"/>
<path d="M142.351 107.574C142.351 107.574 142.682 114.585 142.682 119.497" stroke="#263238" stroke-linecap="round" stroke-linejoin="round"/>
<path d="M201.924 104.834C201.924 104.834 198.936 115.174 197.608 118.508" stroke="#263238" stroke-linecap="round" stroke-linejoin="round"/>
<path d="M214.549 95.0186C214.549 95.0186 217.206 103.258 216.043 109.235C214.88 115.212 212.369 123.264 212.369 124.666" stroke="#263238" stroke-linecap="round" stroke-linejoin="round"/>
<path d="M170.607 102.198L178.058 117.112L186.293 100.233C186.293 100.233 183.648 95.6454 179.148 94.8247C174.648 94.004 169.205 98.101 170.607 102.198Z" fill="white" stroke="#263238" stroke-linecap="round" stroke-linejoin="round"/>
<path d="M177.44 101.384C176.18 101.455 174.955 101.848 173.87 102.527C172.003 103.678 168.433 106.463 168.433 106.463C168.433 106.463 167.656 98.9216 167.821 95.1542C167.986 91.3869 176.05 84.3368 181.175 82.3724C186.299 80.4079 189.869 82.3724 190.799 85.4871C191.73 88.6017 191.577 96.3045 190.022 100.072C188.94 102.596 187.641 105.01 186.14 107.283C186.14 107.283 181.328 103.348 180.397 102.527C179.466 101.707 177.44 101.384 177.44 101.384Z" fill="white" stroke="#263238" stroke-linecap="round" stroke-linejoin="round"/>
<path d="M169.499 55.1673C169.499 55.1673 165.256 61.6293 165.133 64.2852C165.011 66.9411 164.57 71.3159 163.67 72.7892C162.77 74.2626 160.964 77.3643 161.417 80.2529C161.87 83.1414 163.627 89.332 164.252 90.5016C164.876 91.6712 170.209 93.5452 170.209 93.5452C170.209 93.5452 175.768 99.0638 176.552 100.253C177.336 101.442 180.838 100.582 185.026 94.7536C189.214 88.9249 188.742 83.1995 188.742 83.1995C188.742 83.1995 191.485 84.143 192.624 81.752C193.763 79.3611 194.975 73.3514 193.561 72.5631C192.146 71.7747 188.289 74.5017 187.946 74.9152C187.603 75.3288 186.918 73.2157 185.124 70.6309C183.33 68.0461 180.997 67.1673 179.871 63.5744C178.744 59.9815 177.421 56.9896 175.334 55.3354C173.246 53.6811 171.152 53.6229 169.499 55.1673Z" fill="white" stroke="#263238" stroke-linecap="round" stroke-linejoin="round"/>
<path d="M192.955 70.9475C192.955 70.9475 191.767 71.0639 190.175 73.3514C187.499 77.1963 186.703 75.9362 186.642 73.3514C186.605 72.0202 184.113 71.7488 182.595 69.8813C179.655 66.0726 176.955 62.064 174.513 57.8814C172.493 54.1528 169.499 55.1673 169.499 55.1673C169.499 55.1673 164.154 51.7489 175.009 50.1528" fill="#EBEBEB"/>
<path d="M192.955 70.9475C192.955 70.9475 191.767 71.0639 190.175 73.3514C187.499 77.1963 186.703 75.9362 186.642 73.3514C186.605 72.0202 184.113 71.7488 182.595 69.8813C179.655 66.0726 176.955 62.064 174.513 57.8814C172.493 54.1528 169.499 55.1673 169.499 55.1673C169.499 55.1673 164.154 51.7489 175.009 50.1528" stroke="#B0B0B0" stroke-linecap="round" stroke-linejoin="round"/>
<path d="M169.946 66.8829C169.946 66.8829 170.723 69.4677 170.368 70.1139C170.013 70.7601 166.884 77.9136 166.884 77.9136C166.884 77.9136 167.252 80.1624 169.248 79.6002C171.244 79.038 171.746 80.0396 172.627 80.143C173.509 80.2464 174.017 79.6712 173.558 78.3595" stroke="#263238" stroke-linecap="round" stroke-linejoin="round"/>
<path d="M165.384 80.8603C165.965 81.4893 166.688 81.9519 167.484 82.2044C168.654 82.4952 171.293 82.954 172.18 83.0509C173.068 83.1478 174.403 81.7585 174.403 81.7585" stroke="#263238" stroke-linecap="round" stroke-linejoin="round"/>
<path d="M166.56 83.9879C166.56 83.9879 169.07 85.6939 171.691 84.8861" stroke="#263238" stroke-linecap="round" stroke-linejoin="round"/>
<path d="M175.566 70.3595L179.375 72.5243" stroke="#263238" stroke-linecap="round" stroke-linejoin="round"/>
<path d="M169.089 69.4613L166.364 69.7844" stroke="#263238" stroke-linecap="round" stroke-linejoin="round"/>
<path d="M169.615 65.7392C169.08 65.3634 168.466 65.1291 167.827 65.056C167.187 64.9829 166.541 65.0731 165.941 65.3191" stroke="#B0B0B0" stroke-width="2" stroke-linecap="round" stroke-linejoin="round"/>
<path d="M174.274 66.9024C174.274 66.9024 176.828 65.2998 179.491 68.4403" stroke="#B0B0B0" stroke-width="2" stroke-linecap="round" stroke-linejoin="round"/>
<path d="M174.066 63.0962C174.066 63.0962 171.923 65.0348 172.566 66.0752" stroke="#263238" stroke-linecap="round" stroke-linejoin="round"/>
<path d="M175.327 72.6923C175.327 72.6923 175.003 74.3918 177.728 75.4903" stroke="#263238" stroke-linecap="round" stroke-linejoin="round"/>
<path d="M168.893 71.3353C168.094 72.0356 167.178 72.5725 166.193 72.9184" stroke="#263238" stroke-linecap="round" stroke-linejoin="round"/>
<path d="M167.754 70.4629C167.729 70.69 167.621 70.8978 167.453 71.0416C167.284 71.1854 167.069 71.2537 166.854 71.2319C166.648 71.1951 166.463 71.077 166.337 70.9015C166.211 70.7261 166.153 70.5065 166.175 70.2875C166.197 70.0685 166.297 69.8665 166.455 69.7226C166.613 69.5787 166.817 69.5038 167.025 69.513C167.24 69.5391 167.437 69.6532 167.573 69.8308C167.71 70.0084 167.774 70.2354 167.754 70.4629Z" fill="#263238"/>
<path d="M176.981 71.8587C176.969 71.9711 176.936 72.08 176.885 72.1792C176.833 72.2784 176.764 72.3659 176.68 72.4367C176.597 72.5075 176.501 72.5602 176.398 72.5919C176.295 72.6235 176.187 72.6335 176.081 72.6212C175.974 72.6089 175.871 72.5746 175.777 72.5202C175.683 72.4658 175.6 72.3924 175.533 72.3042C175.466 72.216 175.416 72.1147 175.386 72.0061C175.356 71.8975 175.346 71.7837 175.358 71.6713C175.369 71.559 175.4 71.4501 175.451 71.3509C175.502 71.2516 175.571 71.164 175.654 71.0931C175.737 71.0222 175.833 70.9694 175.936 70.9377C176.038 70.9061 176.146 70.8962 176.252 70.9088C176.468 70.9332 176.666 71.0469 176.802 71.2249C176.939 71.4029 177.003 71.6308 176.981 71.8587Z" fill="#263238"/>
<path d="M188.736 83.1995L186.587 82.3595C186.126 83.4038 185.555 84.3901 184.885 85.2997C184.276 86.123 183.718 86.9864 183.213 87.8845" stroke="#263238" stroke-linecap="round" stroke-linejoin="round"/>
<path d="M171.121 93.1252C171.596 93.4132 172.135 93.5647 172.683 93.5647C173.23 93.5647 173.769 93.4132 174.244 93.1252C175.54 92.3977 176.77 91.5454 177.917 90.5791" stroke="#263238" stroke-linecap="round" stroke-linejoin="round"/>
<path d="M207.545 180.304H142.18V184.847H207.545V180.304Z" fill="#8C8C8C" stroke="#263238" stroke-linecap="round" stroke-linejoin="round"/>
<path d="M142.045 276.271C141.78 276.271 141.517 276.216 141.273 276.109C141.028 276.002 140.805 275.845 140.618 275.646C140.431 275.448 140.283 275.213 140.182 274.955C140.081 274.696 140.03 274.419 140.031 274.139V165.403C140.03 165.123 140.081 164.846 140.182 164.587C140.283 164.328 140.431 164.093 140.618 163.895C140.805 163.697 141.028 163.54 141.273 163.433C141.517 163.325 141.78 163.27 142.045 163.27C142.31 163.27 142.573 163.325 142.818 163.433C143.063 163.54 143.286 163.697 143.474 163.895C143.661 164.093 143.81 164.328 143.912 164.587C144.013 164.845 144.065 165.123 144.065 165.403V274.139C144.065 274.419 144.013 274.696 143.912 274.955C143.81 275.214 143.661 275.449 143.474 275.647C143.286 275.845 143.063 276.002 142.818 276.109C142.573 276.216 142.31 276.271 142.045 276.271Z" fill="#8C8C8C" stroke="#263238" stroke-linecap="round" stroke-linejoin="round"/>
<path d="M208.757 276.271C208.492 276.271 208.23 276.216 207.985 276.109C207.74 276.002 207.518 275.845 207.331 275.646C207.143 275.448 206.995 275.213 206.894 274.955C206.793 274.696 206.742 274.419 206.743 274.139V165.403C206.742 165.123 206.793 164.846 206.894 164.587C206.995 164.328 207.143 164.093 207.331 163.895C207.518 163.697 207.74 163.54 207.985 163.433C208.23 163.325 208.492 163.27 208.757 163.27C209.022 163.27 209.285 163.325 209.53 163.433C209.775 163.54 209.998 163.697 210.186 163.895C210.373 164.093 210.522 164.328 210.624 164.587C210.725 164.845 210.778 165.123 210.778 165.403V274.139C210.778 274.419 210.725 274.696 210.624 274.955C210.522 275.214 210.373 275.449 210.186 275.647C209.998 275.845 209.775 276.002 209.53 276.109C209.285 276.216 209.022 276.271 208.757 276.271Z" fill="#8C8C8C" stroke="#263238" stroke-linecap="round" stroke-linejoin="round"/>
<path d="M94.8149 280C112.906 280 127.571 276.528 127.571 272.246C127.571 267.963 112.906 264.491 94.8149 264.491C76.7242 264.491 62.0588 267.963 62.0588 272.246C62.0588 276.528 76.7242 280 94.8149 280Z" fill="#263238" stroke="#263238" stroke-width="2" stroke-linecap="round" stroke-linejoin="round"/>
<path d="M103.234 258.721C103.234 258.721 109.65 263.599 111.395 264.737C113.14 265.874 115.975 265.771 114.634 268.226C113.293 270.682 106.454 270.307 102.468 270.456C98.4824 270.604 94.172 268.956 89.8984 268.808C85.6248 268.659 89.3535 260.717 89.3535 260.717C89.3535 260.717 98.8865 256.175 103.234 258.721Z" fill="white" stroke="#263238" stroke-linecap="round" stroke-linejoin="round"/>
<path d="M114.634 268.226C114.835 267.899 114.954 267.523 114.977 267.134C109.209 269.441 99.7681 266.882 97.4232 266.966L87.9698 267.302C88.0671 267.757 88.3161 268.159 88.6714 268.435C89.0267 268.712 89.4645 268.844 89.9046 268.808C94.1904 268.956 98.4762 270.598 102.474 270.456C106.472 270.313 113.287 270.675 114.634 268.226Z" fill="white" stroke="#263238" stroke-linecap="round" stroke-linejoin="round"/>
<path d="M113.489 132.556C113.489 132.556 114.762 166.437 113.115 177.306C111.468 188.175 108.983 208.078 106.901 214.139C104.819 220.201 100.711 242.882 100.84 246.779C100.968 250.675 100.791 254.288 100.791 254.288C100.791 254.288 102.499 254.223 102.811 255.115C103.053 256.294 103.186 257.495 103.209 258.701C103.209 258.701 98.1272 259.787 96.7251 260.433C95.3231 261.079 88.282 262.553 88.282 262.553C88.282 262.553 87.9086 259.864 87.8657 258.365C87.8228 256.866 89.0902 252.317 89.0902 252.317C89.0902 252.317 87.4249 235.864 86.8126 225.674C86.2003 215.483 88.9004 193.176 88.7902 189.577C88.68 185.978 92.0597 131.522 92.0597 131.522L111.94 130.514L113.489 132.556Z" fill="#43A367" stroke="#263238" stroke-linecap="round" stroke-linejoin="round"/>
<path d="M86.2555 261.428C86.2555 261.428 96.1191 267.386 97.8579 268.536C99.5967 269.687 101.611 270.204 101.103 272.019C100.595 273.835 96.1007 275.806 88.9984 276.058C81.8962 276.31 75.3021 274.766 72.6877 273.034C70.0734 271.302 72.7428 265.829 72.7428 265.829C72.7428 265.829 80.1818 258.346 86.2555 261.428Z" fill="white" stroke="#263238" stroke-linecap="round" stroke-linejoin="round"/>
<path d="M101.103 272.006C101.19 271.716 101.203 271.406 101.14 271.108C99.0518 272 94.5455 273.46 88.0249 273.144C82.4716 272.815 76.9563 271.971 71.5428 270.624C71.5233 271.093 71.6183 271.56 71.8188 271.98C72.0193 272.4 72.3185 272.758 72.6877 273.021C75.3021 274.733 81.8717 276.297 88.9984 276.045C96.1252 275.793 100.589 273.829 101.103 272.006Z" fill="white" stroke="#263238" stroke-linecap="round" stroke-linejoin="round"/>
<path d="M95.0047 179.458C95.0047 179.458 91.876 214.999 89.3229 224.091C86.7697 233.183 84.7738 250.675 84.8595 253.376C84.9099 254.994 85.1526 256.598 85.5819 258.152C86.1018 258.507 86.5124 259.015 86.7636 259.612C86.9933 260.59 87.1205 261.591 87.1432 262.598C87.1432 262.598 85.7901 264.75 80.7328 266.733C77.7406 267.916 74.6017 268.634 71.4142 268.866C71.4142 268.866 71.7693 253.241 70.2876 242.488C68.8059 231.735 69.4794 217.286 70.4713 212.763C71.4632 208.239 73.4775 200.046 72.7428 194.966C72.0081 189.887 70.7162 184.834 70.7162 184.834L68.408 175.005L95.0047 179.458Z" fill="#43A367" stroke="#263238" stroke-linecap="round" stroke-linejoin="round"/>
<path d="M96.7619 65.5066C96.7619 65.5066 90.3821 67.7359 88.3617 69.8038C86.3412 71.8716 92.0965 133.131 92.0965 133.131C92.0965 133.131 101.446 134.799 105.046 134.669C108.646 134.54 113.489 132.556 113.489 132.556C113.489 132.556 112.197 98.1785 110.428 90.8376C109.299 86.1921 107.886 81.6289 106.197 77.1769L98.666 67.0381L96.7619 65.5066Z" fill="white" stroke="#263238" stroke-linecap="round" stroke-linejoin="round"/>
<path d="M104.599 75.6842L106.981 82.3918L102.854 80.2076C102.854 80.2076 104.238 76.2658 104.599 75.6842Z" stroke="#263238" stroke-linecap="round" stroke-linejoin="round"/>
<path d="M102.511 82.2625L104.599 75.7101L102.633 71.7295C102.633 71.7295 101.244 80.1818 102.511 82.2625Z" stroke="#263238" stroke-linecap="round" stroke-linejoin="round"/>
<path d="M123.897 48.1625C124.289 46.2239 123.285 38.1981 123.285 38.1981C123.285 38.1981 112.369 43.1545 105.076 45.1448C97.7844 47.1351 91.8761 50.4565 91.9128 52.8992C91.9128 52.8992 93.5231 58.5018 93.8782 60.24C94.2333 61.9783 92.2924 65.5712 92.2924 65.5712C92.2924 65.5712 96.7619 71.4581 99.3702 73.9718L102.046 85.9782L103.05 73.0865C104.128 71.5942 105.132 70.0434 106.056 68.4403C106.056 68.4403 109.993 70.03 111.193 69.7327C112.393 69.4355 118.54 61.9331 118.54 61.9331C118.54 61.9331 122.771 61.1383 123.181 60.0526C123.591 58.967 122.152 51.1738 122.152 51.1738C123.016 50.3851 123.625 49.3329 123.897 48.1625Z" fill="white" stroke="#263238" stroke-linecap="round" stroke-linejoin="round"/>
<path d="M106.025 68.4468L102.474 66.2174L103.711 71.4258L106.025 68.4468Z" fill="#263238" stroke="#263238" stroke-linecap="round" stroke-linejoin="round"/>
<path d="M118.283 52.3306C118.05 53.1448 117.597 53.7199 117.273 53.623C116.948 53.526 116.875 52.7764 117.107 51.9622C117.34 51.148 117.793 50.5729 118.118 50.6698C118.442 50.7667 118.516 51.5163 118.283 52.3306Z" fill="#263238"/>
<path d="M116.207 49.0737C116.207 49.0737 118.405 46.7538 120.273 48.9767" stroke="#263238" stroke-linecap="round" stroke-linejoin="round"/>
<path d="M115.369 62.6827C115.369 62.6827 112.956 62.3983 111.695 59.3676" stroke="#263238" stroke-linecap="round" stroke-linejoin="round"/>
<path d="M99.5844 50.6892C99.5844 50.6892 105.707 48.4663 113.869 45.2934C122.03 42.1206 127.008 39.665 126.297 36.182C125.587 32.699 120.493 27.7232 112.828 26.1529C105.162 24.5827 96.9088 26.6182 93.4618 29.72C90.0148 32.8217 88.0188 36.9187 88.729 40.4017C89.4392 43.8847 90.2229 52.6407 92.0597 54.7086C93.8965 56.7764 99.5844 50.6892 99.5844 50.6892Z" fill="#263238" stroke="#263238" stroke-linecap="round" stroke-linejoin="round"/>
<path d="M101.556 51.8911C101.556 51.8911 100.16 46.5729 97.7599 47.1222C95.3598 47.6714 94.2027 53.5842 96.0211 56.2982C97.8395 59.0123 100.576 57.0866 100.576 57.0866" fill="white"/>
<path d="M101.556 51.8911C101.556 51.8911 100.16 46.5729 97.7599 47.1222C95.3598 47.6714 94.2027 53.5842 96.0211 56.2982C97.8395 59.0123 100.576 57.0866 100.576 57.0866" stroke="#263238" stroke-linecap="round" stroke-linejoin="round"/>
<path d="M89.0842 42.3015C89.0842 42.3015 83.935 35.5164 80.5615 35.1222C77.1879 34.728 73.4347 40.2207 72.5469 45.8879C71.6591 51.5551 76.8328 53.7005 80.4084 52.8862C83.984 52.072 89.4086 46.2045 89.3964 45.3774C89.3842 44.5503 89.0842 42.3015 89.0842 42.3015Z" fill="#263238" stroke="#263238" stroke-linecap="round" stroke-linejoin="round"/>
<path d="M100.938 75.0638L96.4068 83.4321C96.4068 83.4321 92.5496 73.3579 91.7108 71.1156C91.1081 69.2371 90.6856 67.2996 90.4495 65.3321L92.4087 64.1237L100.938 75.0638Z" fill="white" stroke="#263238" stroke-linecap="round" stroke-linejoin="round"/>
<path d="M123.108 138.411C123.108 138.411 120.628 139.568 119.122 139.619C117.616 139.671 118.509 135.742 119.073 132.892C119.636 130.043 122.061 136.324 123.108 138.411Z" fill="white" stroke="#263238" stroke-linecap="round" stroke-linejoin="round"/>
<path d="M121.069 132.285L120.285 144.563L115.387 137.655L114.86 136.963L114.248 127.775C114.248 127.775 119.961 129.138 121.069 132.285Z" fill="white" stroke="#263238" stroke-linecap="round" stroke-linejoin="round"/>
<path d="M113.415 118.747C113.415 118.747 118.393 122.107 120.573 127.348C121.949 130.877 122.804 134.608 123.108 138.411C123.108 138.411 120.585 133.015 118.356 131.497C116.996 130.589 115.499 129.934 113.93 129.558L113.415 118.747Z" fill="white" stroke="#263238" stroke-linecap="round" stroke-linejoin="round"/>
<path d="M90.4495 65.3321C90.4495 65.3321 93.8965 77.8684 96.7925 84.2012C99.6885 90.5339 101.176 110.159 102.303 114.023C102.303 114.023 101.721 149.17 102.058 159.671C102.395 170.172 102.989 197.467 102.989 197.467C102.989 197.467 94.8027 199.561 80.488 196.769C66.1733 193.978 56.6403 189.532 56.6403 189.532C56.6403 189.532 66.5284 125.228 66.7855 124.317C67.0427 123.406 71.6346 107.031 72.1428 96.2076C72.651 85.3837 72.4918 80.5824 76.8695 75.0187C81.2472 69.4549 90.4495 65.3321 90.4495 65.3321Z" fill="white" stroke="#263238" stroke-linecap="round" stroke-linejoin="round"/>
<path d="M78.2471 184.698C77.396 184.498 76.5388 184.259 75.6817 183.994" stroke="#263238" stroke-linecap="round" stroke-linejoin="round"/>
<path d="M72.5898 180.731L74.3041 159.109C89.7515 162.669 99.5722 160.589 99.5722 160.589L99.8538 184.879C93.5749 186.211 87.1192 186.329 80.8002 185.228" stroke="#263238" stroke-linecap="round" stroke-linejoin="round"/>
<path d="M99.5416 163.251C99.5416 163.251 89.7454 165.338 74.2735 161.771" stroke="#263238" stroke-linecap="round" stroke-linejoin="round"/>
<path d="M115.467 135.678C115.467 135.678 120.365 142.23 120.854 146.663C121.344 151.096 119.201 163.193 119.201 163.193L115.467 135.678Z" fill="white" stroke="#263238" stroke-linecap="round" stroke-linejoin="round"/>
<path d="M102.609 75.7101C102.609 75.7101 109.485 89.7714 110.673 100.233C111.86 110.695 112.381 144.608 112.136 154.824C111.891 165.041 111.456 195.684 111.456 195.684C111.456 195.684 121.014 192.039 121.485 189.015C121.957 185.991 119.158 160.879 118.087 154.01C117.016 147.141 114.634 126.224 114.511 122.346C114.389 118.469 116.538 105.765 114.346 99.5355C112.957 95.4677 111.872 91.2912 111.101 87.0444C111.101 87.0444 111.615 83.0574 108.652 78.6438C105.689 74.2303 101.942 72.7311 102.609 75.7101Z" fill="white" stroke="#263238" stroke-linecap="round" stroke-linejoin="round"/>
<path d="M108.707 84.2011C108.707 84.2011 110.544 93.6744 111.199 98.3529" stroke="#263238" stroke-width="2" stroke-linecap="round" stroke-linejoin="round"/>
<path d="M113.96 117.041C113.96 117.041 112.166 116.699 111.64 116.182C111.113 115.665 108.86 108.757 108.732 104.88C108.603 101.002 109.895 97.3125 111.181 97.2673C112.466 97.2221 113.63 101.881 113.281 107.135C113.103 109.868 109.332 114.934 106.95 116.091C104.568 117.248 104.152 116.195 104.152 116.195" stroke="#263238" stroke-width="2" stroke-linecap="round" stroke-linejoin="round"/>
<path d="M104.378 115.904C104.384 116.116 104.331 116.324 104.224 116.504C104.118 116.684 103.964 116.826 103.781 116.913C103.598 117 103.394 117.028 103.196 116.994C102.998 116.959 102.815 116.863 102.668 116.719C102.521 116.574 102.419 116.386 102.373 116.18C102.327 115.974 102.34 115.758 102.411 115.56C102.481 115.361 102.605 115.189 102.768 115.065C102.931 114.941 103.125 114.871 103.325 114.863C103.596 114.855 103.858 114.959 104.055 115.154C104.253 115.349 104.369 115.619 104.378 115.904Z" fill="#263238"/>
<path d="M115.871 116.97C115.879 117.184 115.827 117.395 115.721 117.578C115.616 117.76 115.461 117.906 115.277 117.995C115.093 118.084 114.887 118.114 114.687 118.08C114.487 118.046 114.301 117.951 114.153 117.805C114.004 117.659 113.9 117.47 113.854 117.262C113.807 117.054 113.821 116.836 113.892 116.635C113.963 116.435 114.089 116.262 114.254 116.137C114.419 116.013 114.615 115.943 114.818 115.936C115.087 115.927 115.348 116.031 115.545 116.225C115.743 116.418 115.859 116.686 115.871 116.97Z" fill="#263238"/>
<path d="M106.944 85.9588C106.944 85.9588 107.072 85.5 108.358 85.7585C109.644 86.017 112.73 88.9055 112.73 88.9055C112.73 88.9055 112.209 81.5647 109.834 78.4952C107.458 75.4258 103.246 72.5695 103.246 72.5695C102.932 72.8004 102.718 73.1532 102.65 73.5505C102.582 73.9478 102.667 74.3573 102.885 74.6891C103.638 76.0203 106.944 85.9588 106.944 85.9588Z" fill="white" stroke="#263238" stroke-linecap="round" stroke-linejoin="round"/>
<path d="M89.5066 76.9314C89.5066 76.9314 92.9782 97.7713 93.3149 108.369" stroke="#263238" stroke-width="2" stroke-linecap="round" stroke-linejoin="round"/>
<path d="M96.4803 107.723C96.4604 107.058 96.2539 106.414 95.8868 105.873C95.5197 105.331 95.0087 104.918 94.4184 104.683C93.8282 104.449 93.1853 104.405 92.5714 104.557C91.9575 104.709 91.4001 105.05 90.97 105.537C90.5399 106.023 90.2564 106.634 90.1554 107.291C90.0544 107.948 90.1406 108.621 90.4029 109.227C90.6652 109.832 91.0919 110.341 91.6289 110.69C92.1658 111.039 92.7889 111.212 93.419 111.186C94.2592 111.153 95.0526 110.77 95.6262 110.121C96.1997 109.472 96.5068 108.61 96.4803 107.723Z" fill="white" stroke="#263238" stroke-linecap="round" stroke-linejoin="round"/>
<path d="M90.4495 65.3321C90.4495 65.3321 88.08 65.3321 87.1188 66.547C86.6806 67.0886 86.2717 67.6561 85.8942 68.2465C85.8942 68.2465 86.5065 83.1091 86.6412 86.9863C86.7759 90.8635 86.8371 93.1381 86.8371 93.1381C86.8371 93.1381 92.2495 89.0412 94.0679 88.0719C95.2611 87.4533 96.4877 86.9096 97.7415 86.4435L91.9373 69.5389L90.4495 65.3321Z" fill="white" stroke="#263238" stroke-linecap="round" stroke-linejoin="round"/>
<path d="M68.6346 156.298L110.293 152.33L107.868 123.723L66.4427 129.81L68.6346 156.298Z" fill="#263238" stroke="#263238" stroke-linecap="round" stroke-linejoin="round"/>
<path d="M87.431 142.527C87.431 142.527 90.0821 144.33 90.8781 144.304C91.9617 144.432 93.0343 144.648 94.0863 144.951C94.5884 145.035 96.566 147.6 97.0925 148.421C97.6191 149.241 99.9885 151.69 100.001 152.11C100.013 152.53 99.2293 152.873 98.6293 152.892C98.0616 152.816 97.514 152.62 97.0191 152.317C97.3695 153.234 97.6659 154.173 97.9068 155.128C97.8505 155.447 97.6967 155.738 97.469 155.956C97.2412 156.175 96.952 156.308 96.6456 156.337C95.7555 156.216 94.8795 156 94.0312 155.69C94.0312 155.69 93.6577 156.44 92.0842 157.125C90.5107 157.81 90.4189 158.03 89.1209 157.971C88.407 157.955 87.706 157.768 87.0699 157.426C86.4338 157.084 85.8792 156.594 85.4473 155.994C84.5044 154.663 81.7737 150.443 81.5655 150.133C81.4109 149.913 81.2388 149.708 81.0512 149.519L86.9106 142.572L87.431 142.527Z" fill="white" stroke="#263238" stroke-linecap="round" stroke-linejoin="round"/>
<path d="M81.039 71.0703C81.039 71.0703 71.4938 75.0122 69.1795 79.6971C66.8651 84.3821 53.1076 122.708 53.9525 125.28C54.7974 127.852 64.4834 137.119 67.2508 140.621C70.0183 144.123 79.2022 152.698 79.2022 152.698L88.3862 142.766L72.4122 122.405L79.7594 96.3239" fill="white"/>
<path d="M81.039 71.0703C81.039 71.0703 71.4938 75.0122 69.1795 79.6971C66.8651 84.3821 53.1076 122.708 53.9525 125.28C54.7974 127.852 64.4834 137.119 67.2508 140.621C70.0183 144.123 79.2022 152.698 79.2022 152.698L88.3862 142.766L72.4122 122.405L79.7594 96.3239" stroke="#263238" stroke-linecap="round" stroke-linejoin="round"/>
</svg>
