<svg width="361" height="371" viewBox="0 0 361 371" fill="none" xmlns="http://www.w3.org/2000/svg">
<path fill-rule="evenodd" clip-rule="evenodd" d="M209.08 2.43807C249.369 -7.86432 293.53 16.0092 322.949 45.4015C350.478 72.9052 355.896 114.417 359.902 153.124C363.215 185.124 352.055 214.803 343.699 245.869C334.779 279.034 334.784 317.114 309.535 340.393C283.227 364.649 244.86 369.49 209.08 369.986C172.884 370.488 137.521 361.997 106.581 343.206C73.4958 323.113 45.519 295.651 29.0217 260.633C10.8406 222.042 -12.7204 173.675 9.58071 137.308C32.5588 99.837 94.4772 119.13 130.892 94.5123C165.086 71.3958 169.092 12.6633 209.08 2.43807Z" fill="#E8FFEE"/>
<path d="M269.973 288.717C269.973 288.717 243.208 240.744 249.387 228.508C255.566 216.273 271.343 238.272 271.343 238.272C271.343 238.272 257.621 193.528 265.171 173.981C272.72 154.433 285.757 173.981 286.442 187.815C287.127 201.649 283.695 225.241 283.695 225.241C283.695 225.241 289.189 176.452 302.226 191.07C315.263 205.687 285.757 254.527 285.757 254.527C285.757 254.527 305.658 243.138 304.967 257.781C304.275 272.424 280.955 285.443 280.955 285.443" fill="#92E3A9"/>
<path d="M270.199 279.768C270.199 279.768 245.433 256.17 257.502 245.597C269.571 235.024 275.92 256.985 275.92 256.985C275.92 256.985 262.581 189.458 284.173 187.013C305.765 184.567 289.887 245.591 289.887 245.591C289.887 245.591 308.305 219.559 307.035 240.744C305.765 261.928 278.459 279.8 278.459 279.8" stroke="#263238" stroke-miterlimit="10"/>
<path d="M282.363 275.473L265.63 256.953" stroke="#263238" stroke-miterlimit="10"/>
<path d="M278.88 276.899L283.412 222.763" stroke="#263238" stroke-miterlimit="10"/>
<path d="M278.182 272.976L293.174 252.678" stroke="#263238" stroke-miterlimit="10"/>
<path d="M299.869 269.202H253.573L258.206 324.968H295.236L299.869 269.202Z" fill="#263238"/>
<path d="M123.135 204.531C117.115 201.515 110.893 198.941 104.516 196.828C95.3259 193.939 84.4827 196.584 84.2439 199.71C84.005 202.837 85.6394 201.405 87.7828 204.795C89.9263 208.184 88.9583 216.106 92.0258 223.328C95.0933 230.55 104.277 234.157 104.277 234.157L123.135 204.531Z" fill="#92E3A9" stroke="#263238" stroke-linecap="round" stroke-linejoin="round"/>
<path opacity="0.3" d="M117.006 211.516C117.006 211.516 102.863 202.368 94.6156 199.235C86.3685 196.103 85.8971 200.68 85.8971 200.68C87.2539 201.188 88.4182 202.122 89.2233 203.348C90.0284 204.574 90.4329 206.029 90.3789 207.504C90.3789 212.909 93.0253 224.104 99.4557 226.416C105.886 228.727 117.006 211.516 117.006 211.516Z" fill="black"/>
<path d="M217.923 221.737C221.62 220.303 223.394 215.855 221.886 211.801C220.379 207.748 216.16 205.624 212.463 207.058C208.767 208.492 206.993 212.941 208.5 216.994C210.008 221.048 214.227 223.171 217.923 221.737Z" fill="#92E3A9" stroke="#263238" stroke-linecap="round" stroke-linejoin="round"/>
<path d="M116.585 298.404L124.518 322.708C124.733 323.367 125.145 323.939 125.697 324.345C126.249 324.751 126.912 324.969 127.591 324.968H139.956C140.588 324.969 141.207 324.78 141.736 324.425C142.264 324.07 142.679 323.565 142.929 322.971L148.461 309.863" fill="#92E3A9"/>
<path opacity="0.3" d="M120.564 298.404L127.126 322.708C127.25 323.318 127.567 323.87 128.028 324.278C128.49 324.687 129.069 324.929 129.678 324.968H139.931C140.494 324.938 141.034 324.73 141.475 324.372C141.917 324.014 142.238 323.525 142.395 322.971L146.983 309.863" fill="black"/>
<path d="M116.585 298.404L124.518 322.708C124.733 323.367 125.145 323.939 125.697 324.345C126.249 324.751 126.912 324.969 127.591 324.968H139.956C140.588 324.969 141.207 324.78 141.736 324.425C142.264 324.07 142.679 323.565 142.929 322.971L148.461 309.863" stroke="#263238" stroke-linecap="round" stroke-linejoin="round"/>
<path d="M176.25 298.404L168.324 322.708C168.109 323.367 167.696 323.939 167.144 324.345C166.593 324.751 165.93 324.969 165.25 324.968H152.898C152.266 324.969 151.647 324.78 151.118 324.425C150.59 324.07 150.175 323.565 149.925 322.971L144.394 309.863" fill="#263238"/>
<path d="M176.25 298.404L168.324 322.708C168.109 323.367 167.696 323.939 167.144 324.345C166.593 324.751 165.93 324.969 165.25 324.968H152.898C152.266 324.969 151.647 324.78 151.118 324.425C150.59 324.07 150.175 323.565 149.925 322.971L144.394 309.863" stroke="#263238" stroke-linecap="round" stroke-linejoin="round"/>
<path d="M202.519 298.404L194.586 322.708C194.371 323.367 193.959 323.939 193.407 324.345C192.855 324.751 192.192 324.969 191.513 324.968H179.148C178.516 324.969 177.897 324.78 177.368 324.425C176.84 324.07 176.425 323.565 176.175 322.971L170.643 309.863" fill="#92E3A9"/>
<path opacity="0.3" d="M196.9 298.404L191.475 322.708C191.173 324.056 190.331 324.968 189.375 324.968H180.921C180.041 324.968 179.243 324.185 178.891 322.971L173.636 310.132" fill="black"/>
<path d="M202.519 298.404L194.586 322.708C194.371 323.367 193.959 323.939 193.407 324.345C192.855 324.751 192.192 324.969 191.513 324.968H179.148C178.516 324.969 177.897 324.78 177.368 324.425C176.84 324.07 176.425 323.565 176.175 322.971L170.643 309.863" stroke="#263238" stroke-linecap="round" stroke-linejoin="round"/>
<path d="M160.127 314.395C197.679 314.395 228.122 286.2 228.122 251.42C228.122 216.639 197.679 188.444 160.127 188.444C122.575 188.444 92.1327 216.639 92.1327 251.42C92.1327 286.2 122.575 314.395 160.127 314.395Z" fill="#92E3A9"/>
<path opacity="0.3" d="M206.957 208.389C210.944 216.465 213.022 225.383 213.023 234.427C213.023 269.208 182.58 297.402 145.028 297.402C131.054 297.475 117.357 293.422 105.584 285.732C117.44 301.98 137.51 312.694 160.272 312.694C196.73 312.694 226.274 285.34 226.274 251.593C226.236 234.703 218.856 219.444 206.957 208.389Z" fill="black"/>
<path d="M160.127 314.395C197.679 314.395 228.122 286.2 228.122 251.42C228.122 216.639 197.679 188.444 160.127 188.444C122.575 188.444 92.1327 216.639 92.1327 251.42C92.1327 286.2 122.575 314.395 160.127 314.395Z" stroke="#263238" stroke-linecap="round" stroke-linejoin="round"/>
<path d="M222.401 257.069C220.918 269.754 215.192 281.264 206.567 290.354" stroke="#92E3A9" stroke-width="2" stroke-linecap="round" stroke-linejoin="round"/>
<path d="M221.276 237.534C222.279 241.783 222.786 246.138 222.785 250.508" stroke="#92E3A9" stroke-width="2" stroke-linecap="round" stroke-linejoin="round"/>
<path d="M143.268 192.373C148.871 191.035 154.606 190.363 160.36 190.37C164.043 190.369 167.722 190.644 171.366 191.192" stroke="#263238" stroke-width="4" stroke-linecap="round" stroke-linejoin="round"/>
<path d="M173.466 236.334C173.466 236.334 180.066 231.757 180.305 223.334C180.544 214.912 169.694 202.638 160.976 197.579C152.257 192.52 145.89 193.49 145.657 197.098C145.424 200.705 142.357 204.801 141.181 211.779C140.006 218.757 139.528 229.112 148.725 232.482" fill="#92E3A9"/>
<path d="M173.466 236.334C173.466 236.334 180.066 231.757 180.305 223.334C180.544 214.912 169.694 202.638 160.976 197.579C152.257 192.52 145.89 193.49 145.657 197.098C145.424 200.705 142.357 204.801 141.181 211.779C140.006 218.757 139.528 229.112 148.725 232.482" stroke="#263238" stroke-linecap="round" stroke-linejoin="round"/>
<path opacity="0.3" d="M159.266 233.631L160.617 233.836C166.413 234.69 168.45 230.826 168.28 225.022C168.047 216.838 157.443 199.505 152.961 197.098C148.479 194.69 147.071 198.06 147.071 198.06C147.071 198.06 147.7 198.491 145.494 205.969C144.475 209.423 140.685 221.466 144.438 226.807C147.757 231.525 153.923 232.816 159.266 233.631Z" fill="black"/>
<path opacity="0.3" d="M178.042 225.337H177.954C177.872 225.326 177.792 225.298 177.721 225.256C177.649 225.213 177.586 225.157 177.536 225.089C177.485 225.022 177.449 224.945 177.428 224.863C177.407 224.781 177.402 224.696 177.413 224.612C177.481 224.118 177.521 223.621 177.533 223.122C177.659 218.629 174.069 212.177 168.167 206.226C168.108 206.167 168.061 206.096 168.029 206.018C167.996 205.94 167.979 205.856 167.979 205.772C167.978 205.687 167.994 205.603 168.025 205.525C168.056 205.446 168.102 205.375 168.161 205.315C168.219 205.254 168.288 205.206 168.364 205.173C168.441 205.14 168.523 205.123 168.606 205.123C168.688 205.122 168.771 205.138 168.847 205.17C168.924 205.202 168.994 205.249 169.053 205.308C175.289 211.599 178.928 218.269 178.79 223.154C178.776 223.7 178.734 224.244 178.664 224.785C178.643 224.938 178.568 225.078 178.454 225.18C178.34 225.281 178.193 225.337 178.042 225.337Z" fill="black"/>
<path opacity="0.3" d="M174.66 233.079C174.541 233.079 174.425 233.045 174.324 232.981C174.223 232.916 174.142 232.824 174.091 232.714C174.04 232.605 174.02 232.482 174.034 232.362C174.048 232.241 174.095 232.127 174.17 232.033C175.206 230.736 176.033 229.28 176.621 227.719C176.681 227.559 176.799 227.431 176.951 227.361C177.103 227.291 177.276 227.286 177.432 227.346C177.588 227.407 177.714 227.528 177.782 227.683C177.851 227.839 177.856 228.015 177.797 228.174C177.162 229.865 176.266 231.44 175.144 232.841C175.086 232.915 175.012 232.975 174.928 233.016C174.845 233.057 174.753 233.078 174.66 233.079Z" fill="black"/>
<path opacity="0.3" d="M128.885 263.604C130.744 255.995 124.264 247.792 114.412 245.281C104.559 242.77 95.0652 246.904 93.2062 254.513C91.3471 262.122 97.827 270.326 107.679 272.836C117.532 275.347 127.026 271.213 128.885 263.604Z" fill="black"/>
<path d="M128 262.223C129.859 254.613 123.379 246.41 113.527 243.899C103.675 241.389 94.1806 245.522 92.3215 253.131C90.4624 260.74 96.9423 268.944 106.795 271.454C116.647 273.965 126.141 269.832 128 262.223Z" fill="#92E3A9" stroke="#263238" stroke-linecap="round" stroke-linejoin="round"/>
<path d="M104.61 255.38C104.723 257.101 104.076 258.552 103.171 258.59C102.266 258.629 101.43 257.306 101.285 255.586C101.14 253.865 101.819 252.408 102.731 252.376C103.642 252.344 104.497 253.653 104.61 255.38Z" stroke="#263238" stroke-linecap="round" stroke-linejoin="round"/>
<path d="M117.069 258.571C117.182 260.298 116.534 261.742 115.629 261.781C114.724 261.819 113.888 260.497 113.744 258.77C113.599 257.043 114.278 255.599 115.189 255.56C116.101 255.522 116.937 256.844 117.069 258.571Z" stroke="#263238" stroke-linecap="round" stroke-linejoin="round"/>
<path d="M137.63 263.032C137.497 264.268 137.214 265.482 136.788 266.647C133.18 276.603 120.117 280.911 107.213 276.623" stroke="#263238" stroke-width="3" stroke-linecap="round" stroke-linejoin="round"/>
<path d="M135.524 262.089H139.528" stroke="#263238" stroke-width="3" stroke-linecap="round" stroke-linejoin="round"/>
<path d="M110.016 235.435C109.576 237.303 108.451 238.645 107.502 238.401C106.552 238.157 106.138 236.475 106.584 234.588C107.03 232.7 108.149 231.378 109.098 231.615C110.047 231.853 110.462 233.56 110.016 235.435Z" fill="#263238" stroke="#263238" stroke-linecap="round" stroke-linejoin="round"/>
<path d="M121.609 238.016C122.051 236.141 121.641 234.432 120.693 234.198C119.744 233.965 118.617 235.296 118.174 237.171C117.732 239.046 118.142 240.755 119.09 240.988C120.039 241.222 121.166 239.891 121.609 238.016Z" fill="#263238" stroke="#263238" stroke-linecap="round" stroke-linejoin="round"/>
<path d="M138.919 306.223L145.833 322.978C146.081 323.577 146.497 324.088 147.028 324.448C147.559 324.808 148.182 325 148.819 325H161.391C162.022 324.999 162.639 324.81 163.167 324.457C163.695 324.104 164.111 323.601 164.364 323.01L171.907 305.209H171.58" fill="#92E3A9"/>
<path opacity="0.3" d="M153.527 304.085C149.542 304.085 144.903 304.618 141.15 303.732L147.612 322.946C147.766 323.504 148.087 323.999 148.53 324.361C148.973 324.724 149.515 324.936 150.082 324.968H160.441C161.001 324.936 161.538 324.728 161.977 324.371C162.416 324.015 162.736 323.528 162.893 322.978L169.147 303.379L166.633 303.732C158.656 304.618 158.864 304.085 153.527 304.085Z" fill="black"/>
<path d="M138.919 306.223L145.833 322.978C146.081 323.577 146.497 324.088 147.028 324.448C147.559 324.808 148.182 325 148.819 325H161.391C162.022 324.999 162.639 324.81 163.167 324.457C163.695 324.104 164.111 323.601 164.364 323.01L171.907 305.209H171.58" stroke="#263238" stroke-linecap="round" stroke-linejoin="round"/>
<path d="M264.159 45.2311L229.391 96.3882C229.391 96.3882 226.418 103.629 222.76 109.003C219.101 114.376 208.843 119.749 208.843 119.749C208.843 119.749 207.931 129.789 204.958 133.294C201.985 136.799 195.58 134.7 195.58 134.7C195.58 134.7 192.833 137.736 189.859 139.136C186.886 140.535 177.74 135.4 177.74 135.4C177.74 135.4 185.968 144.509 187.112 147.545C188.257 150.582 190.318 153.15 186.66 155.955C183.002 158.76 178.878 154.787 178.878 154.787C178.878 154.787 180.713 160.859 175.452 162.028C170.191 163.196 164.458 151.513 162.17 147.545C159.882 143.578 153.25 128.621 152.113 127.921C150.975 127.221 149.372 123.485 151.66 119.98C153.948 116.475 170.178 94.0515 172.007 92.4531C173.837 90.8546 208.843 82.3744 208.843 82.3744L222.112 45" fill="white"/>
<path opacity="0.2" d="M225.815 96.9467C225.815 96.9467 222.043 108.502 217.957 110.749C213.872 112.996 190.614 119.094 181.499 117.81C172.385 116.526 167.356 112.996 167.356 112.996C167.356 112.996 162.327 119.736 160.127 121.983C158.595 123.436 156.772 124.531 154.784 125.193C154.784 125.193 165.722 153.252 173.585 161.938C174.196 162.131 174.845 162.162 175.471 162.028C180.732 160.859 178.897 154.787 178.897 154.787C178.897 154.787 183.014 158.754 186.679 155.955C190.343 153.156 188.275 150.582 187.131 147.545C185.987 144.509 177.728 135.4 177.728 135.4C177.728 135.4 186.874 140.535 189.847 139.136C192.82 137.736 195.567 134.693 195.567 134.693C195.567 134.693 201.972 136.799 204.946 133.294C207.919 129.789 208.83 119.749 208.83 119.749C208.83 119.749 219.12 114.376 222.785 109.003C226.45 103.629 229.417 96.3882 229.417 96.3882L243.742 75.313L225.815 96.9467Z" fill="black"/>
<path d="M264.159 45.2311L229.391 96.3882C229.391 96.3882 226.418 103.629 222.76 109.003C219.101 114.376 208.843 119.749 208.843 119.749C208.843 119.749 207.931 129.789 204.958 133.294C201.985 136.799 195.58 134.7 195.58 134.7C195.58 134.7 192.833 137.736 189.859 139.136C186.886 140.535 177.74 135.4 177.74 135.4C177.74 135.4 185.968 144.509 187.112 147.545C188.257 150.582 190.318 153.15 186.66 155.955C183.002 158.76 178.878 154.787 178.878 154.787C178.878 154.787 180.713 160.859 175.452 162.028C170.191 163.196 164.458 151.513 162.17 147.545C159.882 143.578 153.25 128.621 152.113 127.921C150.975 127.221 149.372 123.485 151.66 119.98C153.948 116.475 170.178 94.0515 172.007 92.4531C173.837 90.8546 208.843 82.3744 208.843 82.3744L222.112 45" stroke="#263238" stroke-linecap="round" stroke-linejoin="round"/>
<path d="M145.248 181.646L146.16 185.151L160.341 181.646L173.61 146.139L164.917 143.103L145.248 181.646Z" fill="white" stroke="#263238" stroke-linecap="round" stroke-linejoin="round"/>
<path d="M149.592 134.462L169.261 141.941L159.656 186.319L136.555 179.078L149.592 134.462Z" fill="white" stroke="#263238" stroke-linecap="round" stroke-linejoin="round"/>
<path d="M137.328 176.427L157.827 182.583L166.746 143.103L148.787 137.21L137.328 176.427Z" fill="#92E3A9" stroke="#263238" stroke-linecap="round" stroke-linejoin="round"/>
<path d="M148.706 146.974C147.814 146.733 146.881 146.689 145.971 146.846L140.616 165.173C141.391 165.945 142.345 166.503 143.388 166.797C147.587 167.979 152.188 164.493 153.659 159.017C155.13 153.541 152.898 148.149 148.706 146.974Z" fill="white" stroke="#263238" stroke-linecap="round" stroke-linejoin="round"/>
<path d="M147.945 150.01C147.918 149.998 147.896 149.977 147.882 149.95C147.869 149.923 147.864 149.892 147.87 149.863L148.109 148.913C148.123 148.873 148.129 148.83 148.125 148.787C148.121 148.745 148.107 148.704 148.085 148.667C148.064 148.631 148.034 148.6 147.999 148.577C147.964 148.554 147.924 148.539 147.882 148.534L146.883 148.29C146.844 148.274 146.801 148.267 146.759 148.271C146.717 148.274 146.676 148.288 146.64 148.31C146.604 148.333 146.574 148.363 146.552 148.4C146.529 148.437 146.516 148.478 146.512 148.521L146.317 149.503C146.31 149.533 146.292 149.558 146.268 149.576C146.244 149.594 146.215 149.602 146.185 149.6C145.844 149.564 145.501 149.564 145.16 149.6L143.331 155.871C144.758 157.386 146.983 158.144 146.688 159.415C146.518 160.134 145.877 160.699 144.752 160.442C144.517 160.41 144.291 160.327 144.09 160.197C143.889 160.068 143.718 159.896 143.588 159.693C143.458 159.491 143.372 159.262 143.337 159.022C143.301 158.782 143.316 158.538 143.382 158.304L143.438 158.048C143.47 157.906 143.388 157.791 143.193 157.746L142.81 157.65L141.722 161.36C142.159 161.766 142.669 162.08 143.224 162.285C143.253 162.297 143.276 162.32 143.289 162.348C143.303 162.376 143.307 162.408 143.3 162.439L143.074 163.254C143.056 163.294 143.049 163.337 143.051 163.381C143.054 163.424 143.067 163.467 143.089 163.504C143.112 163.541 143.142 163.572 143.179 163.595C143.216 163.617 143.257 163.63 143.3 163.633L144.337 163.889C144.373 163.909 144.414 163.92 144.455 163.922C144.496 163.923 144.537 163.915 144.575 163.897C144.613 163.88 144.646 163.854 144.672 163.821C144.699 163.789 144.717 163.751 144.727 163.71L144.896 162.901C144.906 162.871 144.924 162.845 144.949 162.826C144.974 162.808 145.004 162.798 145.035 162.798C147.247 163.036 148.75 161.925 149.215 159.948C149.579 158.369 149.058 157.027 147.442 155.762C145.965 154.62 144.406 154.055 144.676 152.886C144.865 152.078 145.588 151.705 146.562 151.943C146.803 151.982 147.033 152.075 147.236 152.214C147.439 152.353 147.61 152.535 147.737 152.748C147.864 152.961 147.945 153.199 147.973 153.447C148.001 153.695 147.977 153.946 147.901 154.183L147.857 154.363C147.857 154.472 147.92 154.568 148.115 154.62L149.957 155.069C149.996 155.084 150.038 155.089 150.079 155.085C150.121 155.081 150.161 155.068 150.197 155.045C150.233 155.023 150.263 154.993 150.286 154.957C150.308 154.921 150.322 154.88 150.327 154.838L150.466 154.241C150.887 152.36 150.001 150.762 147.945 150.01Z" fill="#263238"/>
<path d="M165.828 111.102C165.828 111.102 168.575 115.307 169.034 119.049C169.424 122.239 168.694 125.467 166.973 128.158C165.602 130.258 164.232 132.126 163.088 135.4C161.944 138.674 161.718 143.341 160.115 145.671C158.512 148.001 157.6 150.338 159.882 152.443C162.164 154.549 168.117 154.311 171.322 148.239C174.528 142.166 176.584 135.624 178.639 133.288C180.695 130.951 187.333 125.584 187.333 125.584C187.333 125.584 205.398 123.016 208.83 119.749C212.262 116.481 215.236 107.603 215.236 107.603" fill="white"/>
<path opacity="0.2" d="M213.872 110.749C213.872 110.749 204.128 117.168 196.585 119.094C189.042 121.02 184.328 121.02 181.499 124.872C178.671 128.723 175.842 140.92 172.07 143.167C168.299 145.414 167.67 137.39 162.327 138.995L162.151 139.059C161.63 141.562 161.171 144.13 160.115 145.677C158.512 148.014 157.6 150.344 159.882 152.45C162.164 154.555 168.117 154.318 171.322 148.245C174.528 142.172 176.584 135.631 178.639 133.294C180.695 130.957 187.333 125.591 187.333 125.591C187.333 125.591 205.398 123.023 208.83 119.755C210.905 117.778 212.809 113.759 213.991 110.883L213.872 110.749Z" fill="black"/>
<path d="M165.828 111.102C165.828 111.102 168.575 115.307 169.034 119.049C169.424 122.239 168.694 125.467 166.973 128.158C165.602 130.258 164.232 132.126 163.088 135.4C161.944 138.674 161.718 143.341 160.115 145.671C158.512 148.001 157.6 150.338 159.882 152.443C162.164 154.549 168.117 154.311 171.322 148.239C174.528 142.166 176.584 135.624 178.639 133.288C180.695 130.951 187.333 125.584 187.333 125.584C187.333 125.584 205.398 123.016 208.83 119.749C212.262 116.481 215.236 107.603 215.236 107.603" stroke="#263238" stroke-linecap="round" stroke-linejoin="round"/>
<path d="M158.738 122.785C158.738 122.785 164.691 126.053 169.034 122.317" stroke="#263238" stroke-linecap="round" stroke-linejoin="round"/>
<path d="M178.865 154.787L173.61 144.509" stroke="#263238" stroke-linecap="round" stroke-linejoin="round"/>
<path d="M195.567 134.7C195.567 134.7 199.684 131.195 199.452 123.485" stroke="#263238" stroke-linecap="round" stroke-linejoin="round"/>
<path d="M70.5533 324.968H319.474" stroke="#263238" stroke-linecap="round" stroke-linejoin="round"/>
<path d="M48.5526 324.968H59.8672" stroke="#263238" stroke-linecap="round" stroke-linejoin="round"/>
</svg>
