<svg width="284" height="627" viewBox="0 0 284 627" fill="none" xmlns="http://www.w3.org/2000/svg">
<path fill-rule="evenodd" clip-rule="evenodd" d="M44.3796 3.24309C115.2 -2.20346 201.036 -7.33648 247.777 46.1462C294.815 99.9676 257.632 183.513 264.138 254.695C268.771 305.387 290.774 352.95 280.375 402.779C269.082 456.893 248.882 513.542 203.524 545.143C158.48 576.525 98.3557 557.173 44.3796 567.194C-27.4603 580.533 -106.102 657.507 -164.396 613.454C-223.099 569.091 -159.412 469.591 -178.726 398.59C-196.425 333.525 -278.925 290.714 -270.382 223.827C-261.768 156.396 -193.16 114.789 -137.491 75.7759C-82.7014 37.3796 -22.3275 8.37332 44.3796 3.24309Z" fill="#E8FFEE"/>
</svg>
