<svg width="361" height="371" viewBox="0 0 361 371" fill="none" xmlns="http://www.w3.org/2000/svg">
<path fill-rule="evenodd" clip-rule="evenodd" d="M209.08 2.43807C249.369 -7.86432 293.53 16.0092 322.949 45.4015C350.478 72.9052 355.896 114.417 359.902 153.124C363.215 185.124 352.055 214.803 343.699 245.869C334.779 279.034 334.784 317.114 309.535 340.393C283.227 364.649 244.86 369.49 209.08 369.986C172.884 370.488 137.521 361.997 106.581 343.206C73.4958 323.113 45.519 295.651 29.0217 260.633C10.8406 222.042 -12.7204 173.675 9.58071 137.308C32.5588 99.837 94.4772 119.13 130.892 94.5123C165.086 71.3958 169.092 12.6633 209.08 2.43807Z" fill="#E8FFEE"/>
</svg>
