<svg width="360" height="372" viewBox="0 0 360 372" fill="none" xmlns="http://www.w3.org/2000/svg">
<path fill-rule="evenodd" clip-rule="evenodd" d="M177.71 4.29527C219.609 -0.374315 267.326 -6.92694 300.146 19.5344C332.72 45.7976 330.57 94.5402 340.157 135.27C348.814 172.053 371.14 211.808 353.233 245.083C335.419 278.185 285.761 272.847 254.714 294.04C225.182 314.198 212.2 355.466 177.71 364.896C139.27 375.405 90.4591 375.01 62.5301 346.584C34.5327 318.088 57.0245 269.244 46.0053 230.846C35.6191 194.653 -5.01307 167.723 0.514129 130.478C6.16397 92.4058 42.2651 67.1067 73.6172 44.7806C104.704 22.6434 139.781 8.52238 177.71 4.29527Z" fill="#E8FFEE"/>
</svg>
