<svg width="360" height="390" viewBox="0 0 360 390" fill="none" xmlns="http://www.w3.org/2000/svg">
<path fill-rule="evenodd" clip-rule="evenodd" d="M170.246 5.25775C208.883 9.41295 248.477 17.1758 277.53 42.956C305.138 67.454 309.663 106.489 323.067 140.862C337.531 177.952 365.827 212.502 358.936 251.708C351.708 292.834 321.841 328.053 286.304 350.034C252.166 371.15 210.171 364.165 170.246 368.422C124.095 373.343 69.1099 407.951 34.6768 376.862C-0.763416 344.864 31.9886 284.767 25.2649 237.521C20.1993 201.927 -2.8792 171.115 0.299216 135.303C4.09037 92.5875 10.6764 43.9997 44.7552 17.9223C78.9687 -8.2583 127.396 0.649406 170.246 5.25775Z" fill="#E8FFEE"/>
</svg>
