<svg width="369" height="564" viewBox="0 0 369 564" fill="none" xmlns="http://www.w3.org/2000/svg">
<path fill-rule="evenodd" clip-rule="evenodd" d="M291.475 0.59521C346.443 3.49648 395.385 26.1816 444.407 51.2166C503.201 81.2424 571.581 102.644 603.957 160.177C639.207 222.818 645.657 301.212 623.583 369.617C601.487 438.091 552.012 501.685 485.165 528.299C423.105 553.008 358.17 498.136 291.475 501.841C217.92 505.927 139.92 595.595 81.493 550.725C22.4578 505.387 87.0146 405.955 71.7539 333.101C59.1367 272.867 -9.86905 227.93 1.19644 167.391C12.415 106.016 72.2492 65.5139 126.347 34.429C176.285 5.73388 233.959 -2.44054 291.475 0.59521Z" fill="#E8FFEE"/>
</svg>
