<svg width="360" height="372" viewBox="0 0 360 372" fill="none" xmlns="http://www.w3.org/2000/svg">
<path fill-rule="evenodd" clip-rule="evenodd" d="M177.71 4.29527C219.609 -0.374315 267.326 -6.92694 300.146 19.5344C332.72 45.7976 330.57 94.5402 340.157 135.27C348.814 172.053 371.14 211.808 353.233 245.083C335.419 278.185 285.761 272.847 254.714 294.04C225.182 314.198 212.2 355.466 177.71 364.896C139.27 375.405 90.4591 375.01 62.5301 346.584C34.5327 318.088 57.0245 269.244 46.0053 230.846C35.6191 194.653 -5.01307 167.723 0.514129 130.478C6.16397 92.4058 42.2651 67.1067 73.6172 44.7806C104.704 22.6434 139.781 8.52238 177.71 4.29527Z" fill="#E8FFEE"/>
<path d="M317.279 278.635C317.21 278.635 318.288 273.856 318.387 273.561C319.565 270.166 323.815 264.299 327.782 264.408C328.442 264.444 329.087 264.621 329.675 264.927C330.262 265.233 330.78 265.662 331.193 266.186C331.607 266.71 331.907 267.316 332.074 267.966C332.241 268.615 332.271 269.293 332.163 269.956C331.803 272.776 329.242 275.131 326.941 276.467C324.235 278.036 317.287 278.635 317.279 278.635Z" fill="#263238"/>
<path d="M317.722 259.194C317.654 259.194 319.427 254.626 319.572 254.354C321.246 251.168 326.315 246.025 330.221 246.747C330.867 246.884 331.477 247.159 332.012 247.552C332.547 247.945 332.995 248.448 333.326 249.028C333.657 249.609 333.864 250.254 333.934 250.921C334.003 251.588 333.934 252.263 333.73 252.901C332.965 255.644 330.068 257.563 327.614 258.534C324.686 259.676 317.73 259.194 317.722 259.194Z" fill="#263238"/>
<path d="M322.706 237.586C322.63 237.586 324.403 233.018 324.549 232.746C326.223 229.568 331.299 224.424 335.205 225.139C335.851 225.277 336.462 225.552 336.996 225.946C337.531 226.34 337.978 226.844 338.309 227.425C338.639 228.007 338.845 228.652 338.914 229.32C338.982 229.988 338.911 230.663 338.706 231.301C337.942 234.036 335.044 235.963 332.591 236.934C329.67 238.068 322.706 237.586 322.706 237.586Z" fill="#263238"/>
<path d="M326.429 216.981C326.353 216.981 328.126 212.412 328.272 212.132C329.946 208.954 335.022 203.811 338.928 204.533C339.574 204.671 340.184 204.945 340.719 205.338C341.254 205.731 341.702 206.234 342.033 206.815C342.364 207.395 342.571 208.04 342.64 208.707C342.71 209.374 342.641 210.049 342.437 210.687C341.672 213.43 338.767 215.349 336.321 216.32C333.393 217.455 326.429 216.981 326.429 216.981Z" fill="#263238"/>
<path d="M324.847 199.071C324.77 199.071 325.298 194.207 325.367 193.904C326.131 190.384 329.709 184.06 333.668 183.71C334.327 183.67 334.987 183.771 335.604 184.007C336.222 184.243 336.783 184.609 337.253 185.08C337.722 185.551 338.089 186.118 338.328 186.743C338.568 187.367 338.676 188.036 338.645 188.706C338.645 191.558 336.352 194.192 334.196 195.784C331.689 197.634 324.847 199.071 324.847 199.071Z" fill="#263238"/>
<path d="M315.353 278.106C315.422 278.106 314.657 273.274 314.588 272.978C313.633 269.505 309.773 263.367 305.805 263.212C305.145 263.204 304.49 263.338 303.884 263.605C303.278 263.872 302.734 264.265 302.287 264.76C301.841 265.255 301.502 265.84 301.293 266.477C301.084 267.114 301.009 267.788 301.073 268.456C301.249 271.3 303.657 273.817 305.866 275.301C308.45 277.05 315.345 278.106 315.353 278.106Z" fill="#263238"/>
<path d="M317.447 256.491C317.524 256.491 316.041 251.829 315.918 251.533C314.451 248.247 309.719 242.777 305.774 243.235C305.121 243.33 304.494 243.564 303.935 243.921C303.376 244.278 302.898 244.751 302.531 245.309C302.164 245.867 301.916 246.497 301.805 247.158C301.693 247.82 301.72 248.498 301.883 249.148C302.48 251.93 305.239 254.051 307.639 255.177C310.468 256.506 317.44 256.491 317.447 256.491Z" fill="#263238"/>
<path d="M322.187 236.118C322.256 236.118 320.78 231.456 320.658 231.168C319.198 227.882 314.466 222.412 310.522 222.87C309.868 222.964 309.241 223.197 308.682 223.553C308.123 223.91 307.644 224.382 307.276 224.939C306.909 225.496 306.66 226.125 306.548 226.786C306.435 227.447 306.461 228.125 306.623 228.775C307.227 231.565 309.979 233.678 312.387 234.813C315.208 236.133 322.179 236.118 322.187 236.118Z" fill="#263238"/>
<path d="M325.65 217.159C325.726 217.159 324.243 212.497 324.121 212.202C322.653 208.923 317.929 203.453 313.977 203.912C313.323 204.006 312.697 204.238 312.138 204.595C311.579 204.951 311.101 205.424 310.733 205.981C310.366 206.538 310.119 207.168 310.007 207.829C309.896 208.49 309.922 209.167 310.086 209.817C310.682 212.606 313.442 214.72 315.85 215.846C318.67 217.175 325.65 217.159 325.65 217.159Z" fill="#263238"/>
<path d="M324.702 199.654C324.778 199.654 322.806 195.171 322.645 194.899C320.834 191.791 315.544 186.888 311.668 187.789C311.029 187.956 310.431 188.257 309.914 188.675C309.397 189.092 308.972 189.615 308.668 190.211C308.363 190.806 308.186 191.46 308.147 192.13C308.108 192.8 308.209 193.471 308.442 194.098C309.337 196.795 312.303 198.597 314.818 199.444C317.768 200.446 324.702 199.654 324.702 199.654Z" fill="#263238"/>
<path d="M320.528 184.161C320.589 184.161 320.872 179.289 320.857 178.978C320.65 175.373 318.181 168.535 314.336 167.517C313.693 167.367 313.026 167.355 312.378 167.483C311.73 167.612 311.116 167.877 310.576 168.263C310.036 168.648 309.582 169.145 309.243 169.721C308.905 170.297 308.689 170.938 308.61 171.604C308.182 174.425 310.002 177.409 311.844 179.374C314.007 181.612 320.52 184.153 320.528 184.161Z" fill="#263238"/>
<path d="M316.652 304.742C316.652 304.742 316.4 302.683 316.094 299.108C315.788 295.534 315.437 290.422 315.276 284.276C315.192 281.168 315.162 277.873 315.223 274.346C315.223 272.574 315.315 270.803 315.383 268.907C315.444 267.99 315.513 267.065 315.574 266.125C315.636 265.185 315.788 264.222 315.888 263.258C316.411 259.336 317.144 255.445 318.082 251.603C319.022 247.679 320.092 243.74 321.14 239.809C322.187 235.877 323.219 231.945 324.029 228.037C324.853 224.221 325.408 220.349 325.688 216.452C325.885 212.804 325.762 209.146 325.321 205.52C324.959 202.234 324.405 198.973 323.662 195.753C322.989 192.777 322.202 190.089 321.483 187.719C320.765 185.349 320.023 183.314 319.412 181.643C318.166 178.302 317.317 176.453 317.317 176.453C317.317 176.453 318.204 178.287 319.519 181.597C320.176 183.252 320.933 185.28 321.728 187.634C322.523 189.988 323.349 192.669 324.083 195.645C324.908 198.841 325.549 202.084 326.001 205.357C326.527 209.019 326.732 212.722 326.613 216.421C326.409 220.372 325.931 224.303 325.183 228.185C324.419 232.147 323.502 236.126 322.531 240.088C321.56 244.051 320.543 248.021 319.695 251.906C318.852 255.706 318.214 259.55 317.784 263.421C317.707 264.361 317.57 265.255 317.539 266.203C317.508 267.151 317.447 268.075 317.401 268.992C317.401 270.764 317.348 272.598 317.363 274.33C317.363 277.819 317.478 281.113 317.631 284.151C317.914 290.235 318.395 295.293 318.754 298.821C319.114 302.348 319.42 304.338 319.42 304.338C319.446 304.522 319.437 304.709 319.392 304.89C319.347 305.07 319.268 305.24 319.159 305.39C319.049 305.539 318.912 305.665 318.755 305.76C318.598 305.856 318.423 305.919 318.242 305.946C318.061 305.973 317.876 305.963 317.699 305.918C317.521 305.872 317.354 305.792 317.207 305.681C317.06 305.57 316.936 305.43 316.842 305.27C316.749 305.111 316.687 304.934 316.66 304.749V304.742H316.652Z" fill="#263238"/>
<path d="M308.152 296.715H327.209V300.725H325.55L322.11 322.605H313.258L309.811 300.725H308.152V296.715Z" fill="#263238" stroke="#263238" stroke-linecap="round" stroke-linejoin="round"/>
<path d="M182.578 311.346C182.578 311.346 181.921 315.285 182.402 316.171C182.884 317.057 183.656 318.222 183.656 318.222H189.726L190.054 316.319C190.891 317.263 191.918 318.013 193.066 318.518C194.679 319.1 196.239 318.518 198.127 318.665C199.724 318.79 203.478 318.665 203.478 318.665L203.371 316.606L192.416 311.618L188.495 308.51C188.495 308.51 185.055 311.665 182.578 311.346Z" fill="#263238" stroke="#263238" stroke-linecap="round" stroke-linejoin="round"/>
<path d="M137.369 311.346C137.369 311.346 138.409 314.555 138.027 315.433C137.645 316.311 137.018 318.222 137.018 318.222H130.956L130.421 316.319C129.683 317.267 128.731 318.022 127.646 318.518C126.117 319.1 124.466 318.518 122.601 318.665C121.018 318.79 117.249 318.665 117.249 318.665L117.142 316.606L127.562 311.618L131.697 309.287C131.697 309.287 134.923 311.665 137.369 311.346Z" fill="#263238" stroke="#263238" stroke-linecap="round" stroke-linejoin="round"/>
<path d="M185.85 159.864C185.85 159.864 188.357 192.855 189.229 208.628C190.1 224.401 190.505 231.557 190.605 242.66C190.704 253.763 191.186 275.705 191.186 283.949C191.194 292.365 190.655 300.772 189.573 309.116L182.242 313.086C182.242 313.086 179.872 291.921 178.916 284.338C178.053 277.477 174.895 249.56 173.466 240.927C172.036 232.295 165.523 202.28 165.523 202.28C165.523 202.28 156.832 233.771 154.584 246.351C152.337 258.93 143.882 287.298 142.071 294.198C140.259 301.098 137.369 311.33 137.369 311.33C136.35 311.634 135.28 311.719 134.228 311.579C133.755 311.541 133.299 311.386 132.899 311.127C132.499 310.869 132.168 310.514 131.934 310.095C131.934 310.095 134.067 289.443 134.946 279.404C136.039 266.972 136.383 250.469 137.713 243.561C139.043 236.654 138.998 223.422 140.542 214.541C141.421 209.498 145.893 161.255 145.893 161.255C145.893 161.255 170.691 171.457 185.85 159.864Z" fill="#263238" stroke="#263238" stroke-linecap="round" stroke-linejoin="round"/>
<path d="M189.573 309.116L183.862 313.825" stroke="white" stroke-width="0.5" stroke-linecap="round" stroke-linejoin="round"/>
<path d="M131.705 309.271L136.238 312.807" stroke="white" stroke-width="0.5" stroke-linecap="round" stroke-linejoin="round"/>
<path d="M169.269 170.967L168.811 190.206L172.021 186.95" stroke="white" stroke-width="0.5" stroke-linecap="round" stroke-linejoin="round"/>
<path d="M167.266 201.721L176.386 190.19" stroke="white" stroke-width="0.5" stroke-linecap="round" stroke-linejoin="round"/>
<path d="M178.916 191.029L171.31 198.613" stroke="white" stroke-width="0.5" stroke-linecap="round" stroke-linejoin="round"/>
<path d="M161.839 191.876C159.486 186.582 155.465 182.235 150.411 179.522" stroke="white" stroke-width="0.5" stroke-linecap="round" stroke-linejoin="round"/>
<path d="M173.435 165.762L173 168.015L169.453 168.854L169.858 166.049" stroke="white" stroke-width="0.5" stroke-linecap="round" stroke-linejoin="round"/>
<path d="M169.453 168.854C169.453 168.854 162.81 168.574 159.439 167.448L160.15 165.202" stroke="white" stroke-width="0.5" stroke-linecap="round" stroke-linejoin="round"/>
<path d="M157.077 164.643L156.404 167.448C156.404 167.448 151.137 167.168 150.288 166.329" stroke="white" stroke-width="0.5" stroke-linecap="round" stroke-linejoin="round"/>
<path d="M173 167.992C174.808 167.937 176.579 167.459 178.175 166.593L180.583 165.187L179.65 163.221" stroke="white" stroke-width="0.5" stroke-linecap="round" stroke-linejoin="round"/>
<path d="M189.122 95.3042C189.122 95.3042 193.922 99.5388 195.359 102.336C196.797 105.133 215.663 144.231 215.586 146.904C215.51 149.577 212.72 154.674 207.797 154.674C202.874 154.674 184.214 124.2 184.214 124.2L189.122 95.3042Z" fill="white"/>
<g style="mix-blend-mode:multiply" opacity="0.5">
<path d="M189.71 99.9972L190.031 100.176C190.597 100.51 191.866 101.264 193.257 102.204C194.829 103.43 196.262 104.829 197.53 106.376C197.53 106.376 195.803 101.714 193.272 99.4844C191.865 98.2556 190.557 96.9149 189.359 95.4751L189.71 99.9972Z" fill="#92E3A9"/>
</g>
<path d="M189.122 95.3042C189.122 95.3042 193.922 99.5388 195.359 102.336C196.797 105.133 215.663 144.231 215.586 146.904C215.51 149.577 212.72 154.674 207.797 154.674C202.874 154.674 184.214 124.2 184.214 124.2L189.122 95.3042Z" stroke="#263238" stroke-linecap="round" stroke-linejoin="round"/>
<path opacity="0.5" d="M201.146 136.189C200.512 135.412 195.795 127.697 195.314 124.814C194.832 121.932 196.078 118.241 196.078 116.314C196.078 114.387 193.081 119.678 192.921 119.041C192.76 118.404 190.872 111.504 190.872 111.504L185.085 119.111L184.222 124.216C184.222 124.216 191.53 136.143 198.211 145.07C202.966 143.516 210.144 141.147 211.688 140.199C214.08 138.761 201.781 136.997 201.146 136.189Z" fill="#92E3A9"/>
<path d="M166.074 90.0207L189.152 95.3042C189.152 95.3042 190.758 107.324 190.574 113.82C190.391 120.315 185.636 160.486 185.636 160.486C185.636 160.486 173.405 173.166 145.946 161.263C145.946 161.263 144.991 159.39 144.632 145.389C144.288 131.582 134.075 105.941 134.893 103.02C136.574 97.0291 156.771 91.2716 159.423 91.1085C161.661 90.8922 163.883 90.5289 166.074 90.0207Z" fill="white" stroke="#263238" stroke-linecap="round" stroke-linejoin="round"/>
<g style="mix-blend-mode:multiply" opacity="0.5">
<path d="M168.161 160.416L147.024 151.993L150.678 111.186L174.72 122.623L189.129 116.034L178.825 158.621L168.161 160.416Z" fill="#92E3A9"/>
</g>
<g style="mix-blend-mode:multiply" opacity="0.5">
<path d="M174.414 97.068C175.4 97.068 184.52 98.925 189.703 99.9972C189.404 97.2467 189.144 95.3353 189.144 95.3353L166.066 90.0518C163.875 90.5626 161.653 90.9285 159.416 91.1473C156.763 91.3105 136.567 97.068 134.885 103.059C134.617 104.03 135.55 107.48 136.934 112.165C138.952 106.874 140.756 102.515 141.375 101.901C142.766 100.487 156.664 96.8193 156.664 96.8193L174.414 97.068Z" fill="#92E3A9"/>
</g>
<path d="M172.342 102.017L169.17 109.228L176.126 159.188L171.027 166.181L166.189 160.478L167.542 109.865L161.136 102.266L165.233 94.3874L172.342 102.017Z" fill="#263238"/>
<path d="M196.919 118.163L178.427 128.59L154.646 115.941L150.877 151.644L174.429 163.182L192.263 152.273L196.919 118.163Z" fill="#92E3A9" stroke="#263238" stroke-linecap="round" stroke-linejoin="round"/>
<path d="M177.724 136.609L178.427 130.875" stroke="#263238" stroke-width="0.5" stroke-linecap="round" stroke-linejoin="round"/>
<path d="M174.429 163.182L177.334 139.756" stroke="#263238" stroke-width="0.5" stroke-linecap="round" stroke-linejoin="round"/>
<path d="M168.222 88.016C168.222 88.016 172.388 88.016 174.2 90.8132C176.012 93.6104 179.49 104.667 179.49 104.667L166.953 101.085L159.355 109.065C159.355 109.065 152.391 98.5753 155.227 91.9165C158.063 85.2577 168.222 88.016 168.222 88.016Z" fill="white" stroke="#263238" stroke-linecap="round" stroke-linejoin="round"/>
<g style="mix-blend-mode:multiply" opacity="0.5">
<path d="M175.469 93.4006C175.11 92.5071 174.686 91.6422 174.2 90.8132C172.388 87.9772 168.222 88.016 168.222 88.016C168.222 88.016 158.078 85.2577 155.227 91.901C154.309 94.0533 154.462 96.6095 154.99 99.0804C155.487 97.7595 156.61 95.11 158.047 93.6414C159.989 91.6679 160.218 93.385 160.218 93.385L171.089 92.507C172.528 92.8996 173.991 93.1981 175.469 93.4006Z" fill="#92E3A9"/>
</g>
<path d="M170.011 81.5826C170.011 81.5826 170.714 96.2832 168.887 99.1814C167.06 102.08 164.981 100.968 163.459 99.1814C161.938 97.3943 160.218 93.4006 160.218 93.4006L158.361 82.5227C158.361 82.5227 169.185 84.5507 170.011 81.5826Z" fill="white" stroke="#263238" stroke-linecap="round" stroke-linejoin="round"/>
<g style="mix-blend-mode:multiply" opacity="0.5">
<path d="M166.089 93.4006C167.664 92.9421 169.062 92.0038 170.095 90.7122C170.095 89.8808 170.095 89.0572 170.095 88.2569C168.314 86.1823 164.224 82.2663 159.668 83.5251C159.278 83.6338 158.904 83.7581 158.56 83.8825L160.211 93.4006C160.211 93.4006 161.938 97.4254 163.452 99.1814L161.923 92.2429C162.456 92.7905 163.122 93.1858 163.853 93.3891C164.585 93.5923 165.356 93.5962 166.089 93.4006Z" fill="#92E3A9"/>
</g>
<path d="M176.386 68.2106C176.386 68.2106 178.481 68.0552 178.527 71.606C178.572 75.1569 176.516 78.1405 175.102 76.9051C173.688 75.6697 175.996 66.5945 176.386 68.2106Z" fill="white" stroke="#263238" stroke-linecap="round" stroke-linejoin="round"/>
<path d="M162.007 49.827C152.475 52.1114 149.922 58.3739 149.998 64.0459C149.998 66.2137 150.984 69.9666 152.291 73.9215L152.123 73.5641C152.123 73.5641 149.256 68.4825 148.836 71.5361C148.416 74.5897 151.252 77.752 152.192 78.7699C152.453 79.0142 152.789 79.1586 153.144 79.1785C153.498 79.1983 153.848 79.0923 154.134 78.8787C156.029 83.5406 158.147 87.713 159.53 88.8474C162.527 91.3105 166.739 92.577 170.087 89.6244C173.436 86.6719 176.746 69.8345 176.746 69.8345C177.541 52.8029 171.54 47.5582 162.007 49.827Z" fill="white"/>
<g style="mix-blend-mode:multiply" opacity="0.5">
<path d="M156.931 67.7599C156.931 67.7599 160.257 64.9395 163.59 64.9395C166.923 64.9395 173.864 68.0474 174.689 70.5804C175.194 72.1344 174.597 77.146 174.039 80.9532C175.645 75.592 176.776 69.8578 176.776 69.8578C177.541 52.834 171.532 47.5738 162.007 49.8581C152.482 52.1425 149.922 58.405 149.998 64.077C149.998 66.2448 150.984 69.9977 152.291 73.9525L152.123 73.5951C152.123 73.5951 149.256 68.5136 148.836 71.5672C148.416 74.6208 151.252 77.7831 152.192 78.801C152.453 79.0453 152.789 79.1897 153.144 79.2095C153.498 79.2294 153.848 79.1234 154.134 78.9097C156.029 83.5717 158.147 87.7441 159.53 88.8785C159.53 88.8785 156.343 81.5826 155.234 78.4824C154.126 75.3822 154.432 69.9899 156.931 67.7599Z" fill="#92E3A9"/>
</g>
<path d="M162.007 49.827C152.475 52.1114 149.922 58.3739 149.998 64.0459C149.998 66.2137 150.984 69.9666 152.291 73.9215L152.123 73.564C152.123 73.564 149.256 68.4825 148.836 71.5361C148.416 74.5897 151.252 77.752 152.192 78.7699C152.453 79.0142 152.789 79.1586 153.144 79.1785C153.498 79.1983 153.848 79.0923 154.134 78.8787C156.029 83.5406 158.147 87.713 159.53 88.8474C162.527 91.3105 166.739 92.577 170.087 89.6244C173.436 86.6719 176.746 69.8345 176.746 69.8345C177.541 52.8029 171.54 47.5582 162.007 49.827Z" stroke="#263238" stroke-linecap="round" stroke-linejoin="round"/>
<path d="M173.214 74.7917C172.736 75.5213 171.996 76.0312 171.153 76.2114C170.309 76.3916 169.429 76.2278 168.704 75.7552" stroke="#263238" stroke-linecap="round" stroke-linejoin="round"/>
<path d="M163.039 75.8173C162.562 76.547 161.822 77.0568 160.978 77.237C160.134 77.4172 159.255 77.2534 158.529 76.7808" stroke="#263238" stroke-linecap="round" stroke-linejoin="round"/>
<path d="M163.528 73.4708C162.296 72.8423 160.962 72.4449 159.591 72.2976C157.772 72.2199 155.983 73.7272 155.983 73.7272" stroke="#263238" stroke-linecap="round" stroke-linejoin="round"/>
<path d="M167.916 81.3184C167.851 81.7905 167.607 82.218 167.235 82.5086C166.863 82.7993 166.394 82.9299 165.929 82.8724C165.442 82.8874 164.962 82.7654 164.539 82.52C164.117 82.2745 163.77 81.9151 163.536 81.4816" stroke="#263238" stroke-linecap="round" stroke-linejoin="round"/>
<path d="M169.521 85.0713C169.521 85.0713 165.057 86.4232 162.191 85.25C162.565 85.9343 163.077 86.5308 163.694 87.0007C164.31 87.4706 165.017 87.8033 165.768 87.9772C167.465 88.4356 169.521 85.0713 169.521 85.0713Z" fill="#263238"/>
<path d="M173.772 71.4273C173.772 71.4273 172.098 71.2797 170.515 71.2952C169.063 71.2952 167.618 73.2144 167.618 73.2144L167.106 75.5454" stroke="#263238" stroke-linecap="round" stroke-linejoin="round"/>
<path d="M159.997 63.0436C163.463 65.9944 167.252 68.5311 171.287 70.6037C177.862 73.9448 182.907 67.4958 179.826 64.3256C176.745 61.1555 183.839 67.8066 184.955 63.8284C186.072 59.8502 175.859 46.1985 165.6 46.0042C155.341 45.81 152.857 52.3445 152.857 52.3445C152.857 52.3445 151.649 48.9801 150.739 50.8371C150.21 51.8478 149.908 52.9648 149.853 54.1082C149.853 54.1082 147.773 55.6622 146.856 56.5868C145.939 57.5115 147.116 58.4905 147.116 58.4905C147.116 58.4905 145.281 63.1524 146.26 66.7499L151.527 74.5197C152.162 74.4988 152.784 74.3295 153.345 74.025C153.906 73.7205 154.39 73.289 154.76 72.7638C156.136 70.9301 155.127 65.2114 155.127 65.2114C155.127 65.2114 155.211 71.3652 156.824 70.0132C158.437 68.6612 156.06 62.6474 156.06 62.6474L159.997 63.0436Z" fill="#263238"/>
<path d="M155.418 56.6878C155.418 56.6878 160.111 60.2775 163.505 63.5564C166.9 66.8353 172.075 68.094 173.611 67.3714" stroke="white" stroke-width="0.5" stroke-miterlimit="10" stroke-linecap="round"/>
<path d="M169.919 61.2021C169.919 61.2021 163.192 59.6482 161.61 56.6801C160.027 53.712 155.127 54.0616 155.127 54.0616C156.351 52.9143 157.845 52.106 159.464 51.7141C161.084 51.3223 162.776 51.3601 164.377 51.8239" stroke="white" stroke-width="0.5" stroke-miterlimit="10" stroke-linecap="round"/>
<path d="M152.864 58.1563C152.864 58.1563 158.124 66.2137 154.806 68.6923" stroke="white" stroke-width="0.5" stroke-miterlimit="10" stroke-linecap="round"/>
<path d="M134.893 103.027C134.893 103.027 120.621 142.576 121.278 146.99C121.935 151.403 129.427 149.647 131.789 149.049C134.151 148.45 143.256 133.765 143.317 130.603C143.905 130.229 144.408 129.732 144.793 129.145C145.178 128.559 145.435 127.895 145.549 127.2C146.107 124.651 146.489 115.545 142.866 108.715" fill="white"/>
<g style="mix-blend-mode:multiply" opacity="0.5">
<path d="M134.893 103.027C134.893 103.027 120.621 142.576 121.278 146.99C121.645 149.406 124.061 149.965 126.553 149.888C128.296 144.892 128.976 135.762 130.283 131.24C131.728 126.182 136.437 113.089 139.303 106.205L134.893 103.027Z" fill="#92E3A9"/>
</g>
<path d="M134.893 103.027C134.893 103.027 120.621 142.576 121.278 146.99C121.935 151.403 129.427 149.647 131.789 149.049C134.151 148.45 143.256 133.765 143.317 130.603C143.905 130.229 144.408 129.732 144.793 129.145C145.178 128.559 145.435 127.895 145.549 127.2C146.107 124.651 146.489 115.545 142.866 108.715" stroke="#263238" stroke-linecap="round" stroke-linejoin="round"/>
<path d="M145.679 143.377C145.679 143.377 127.332 142.242 124.978 142.048C122.624 141.854 119.803 145.156 122.02 149.725C124.236 154.293 127.761 154.557 132.087 153.726C136.414 152.895 145.969 146.966 145.969 146.966L145.679 143.377Z" fill="white"/>
<path opacity="0.5" d="M145.679 143.377C145.679 143.377 127.332 142.242 124.978 142.048C122.624 141.854 119.803 145.156 122.02 149.725C124.236 154.293 127.761 154.557 132.087 153.726C136.414 152.895 145.969 146.966 145.969 146.966L145.679 143.377Z" fill="#92E3A9" stroke="#263238" stroke-linecap="round" stroke-linejoin="round"/>
<path d="M145.679 143.377C145.679 143.377 127.332 142.242 124.978 142.048C122.624 141.854 119.803 145.156 122.02 149.725C124.236 154.293 127.761 154.557 132.087 153.726C136.414 152.895 145.969 146.966 145.969 146.966L145.679 143.377Z" stroke="#263238" stroke-linecap="round" stroke-linejoin="round"/>
<path d="M148.607 138.831C148.607 138.831 150.976 136.275 151.603 136.329C152.23 136.384 156.832 136.127 157.222 137.223C157.612 138.318 156.992 137.837 156.358 138.202C155.723 138.567 152.574 138.979 152.574 138.979C152.574 138.979 155.288 139.204 156.106 139.694C156.924 140.183 160.386 143.431 160.371 144.068C160.356 144.705 159.935 144.845 159.095 144.845C158.254 144.845 158.873 145.459 158.644 146.073C158.414 146.686 156.755 146.554 156.755 146.554C156.755 146.554 156.901 148.683 155.647 148.575C154.393 148.466 152.146 146.803 152.146 146.803C152.146 146.803 147.506 148.528 145.839 148.396C144.745 148.346 143.657 148.595 142.69 149.118C144.091 145.382 146.09 141.906 148.607 138.831Z" fill="white"/>
<g style="mix-blend-mode:multiply" opacity="0.5">
<path d="M148.607 138.831C146.097 141.884 144.098 145.336 142.69 149.049C143.657 148.525 144.745 148.276 145.839 148.326C146.387 148.335 146.934 148.275 147.468 148.147C147.8 146.661 147.997 145.148 148.056 143.625C148.056 141.364 151.603 136.329 151.603 136.329C150.969 136.275 148.607 138.831 148.607 138.831Z" fill="#92E3A9"/>
</g>
<path d="M148.607 138.831C148.607 138.831 150.976 136.275 151.603 136.329C152.23 136.384 156.832 136.127 157.222 137.223C157.612 138.318 156.992 137.837 156.358 138.202C155.723 138.567 152.574 138.979 152.574 138.979C152.574 138.979 155.288 139.204 156.106 139.694C156.924 140.183 160.386 143.431 160.371 144.068C160.356 144.705 159.935 144.845 159.095 144.845C158.254 144.845 158.873 145.459 158.644 146.073C158.414 146.686 156.755 146.554 156.755 146.554C156.755 146.554 156.901 148.683 155.647 148.575C154.393 148.466 152.146 146.803 152.146 146.803C152.146 146.803 147.506 148.528 145.839 148.396C144.745 148.346 143.657 148.595 142.69 149.118C144.091 145.382 146.09 141.906 148.607 138.831Z" stroke="#263238" stroke-linecap="round" stroke-linejoin="round"/>
<path d="M159.095 144.775L155.005 141.473L151.672 140.983" stroke="#263238" stroke-linecap="round" stroke-linejoin="round"/>
<path d="M156.748 146.484L152.215 143.99L150.135 143.61" stroke="#263238" stroke-linecap="round" stroke-linejoin="round"/>
<path d="M198.845 135.684C198.845 135.684 196.475 133.136 195.849 133.182C195.222 133.229 190.62 132.988 190.23 134.076C189.84 135.164 190.459 134.69 191.094 135.063C192.33 135.426 193.597 135.673 194.878 135.801C194.878 135.801 192.164 136.026 191.346 136.523C190.528 137.021 187.065 140.261 187.081 140.89C187.096 141.52 187.516 141.667 188.357 141.667C189.198 141.667 188.579 142.281 188.808 142.895C189.038 143.509 190.696 143.369 190.696 143.369C190.696 143.369 190.551 145.498 191.805 145.397C193.058 145.296 195.306 143.625 195.306 143.625C195.306 143.625 199.946 145.35 201.612 145.179C202.708 145.127 203.797 145.38 204.762 145.91C203.355 142.194 201.356 138.74 198.845 135.684Z" fill="white" stroke="#263238" stroke-linecap="round" stroke-linejoin="round"/>
<path d="M188.357 141.628L192.439 138.334L195.772 137.844" stroke="#263238" stroke-linecap="round" stroke-linejoin="round"/>
<path d="M190.696 143.338L195.23 140.851L197.309 140.463" stroke="#263238" stroke-linecap="round" stroke-linejoin="round"/>
<path d="M201.574 139.554C201.574 139.554 209.44 138.637 212.139 140.696C214.837 142.755 214.386 148 214.386 148" stroke="#263238" stroke-linecap="round" stroke-linejoin="round"/>
<path d="M139.433 308.627C139.433 308.627 140.274 306.925 142.957 307.267C145.641 307.609 147.322 310.849 145.472 311.867C143.623 312.884 139.433 308.627 139.433 308.627Z" fill="#92E3A9" stroke="#263238" stroke-linecap="round" stroke-linejoin="round"/>
<path d="M143.401 229.498C143.401 229.498 149.715 230.788 152.75 232.839C155.785 234.89 156.281 235.403 157.038 239.513C157.795 243.624 155.02 254.657 155.02 260.306C155.02 265.954 150.976 300.352 150.976 303.188C150.976 306.024 153.759 311.913 153.507 313.964C153.399 315.439 153.571 316.922 154.011 318.331C154.011 318.331 155.777 319.613 153.507 319.885C151.236 320.157 150.976 320.398 148.958 319.372C146.94 318.347 145.9 313.211 144.158 311.672C142.415 310.134 141.383 308.339 141.383 307.049C141.383 305.759 145.419 300.895 145.419 300.895C145.419 300.895 144.914 293.708 144.654 287.547C144.394 281.385 141.597 267.78 141.597 261.906C141.597 256.032 145.419 242.14 145.419 242.14C145.419 242.14 135.611 243.359 131.789 240.795C127.967 238.231 132.294 226.934 143.401 229.498Z" fill="white" stroke="#263238" stroke-linecap="round" stroke-linejoin="round"/>
<path d="M144.158 311.641C144.158 311.641 139.571 307.64 139.433 308.658C139.296 309.676 139.265 317.702 139.602 318.549C139.938 319.396 148.997 320.258 153.698 321.113C158.399 321.967 156.549 318.891 155.54 318.207C154.531 317.523 144.158 311.641 144.158 311.641Z" fill="#92E3A9" stroke="#263238" stroke-linecap="round" stroke-linejoin="round"/>
<path opacity="0.2" d="M144.158 311.641C144.158 311.641 139.571 307.64 139.433 308.658C139.296 309.676 139.265 317.702 139.602 318.549C139.938 319.396 148.997 320.258 153.698 321.113C158.399 321.967 156.549 318.891 155.54 318.207C154.531 317.523 144.158 311.641 144.158 311.641Z" fill="black"/>
<path d="M145.472 316.163C146.391 315.045 147.464 314.068 148.66 313.265C150.08 312.24 151.674 311.489 153.361 311.051L155.54 315.309C154.038 315.669 152.577 316.19 151.183 316.863C150.124 317.514 149.164 318.318 148.331 319.248C148.331 319.248 145.809 317.531 145.472 316.163Z" fill="#263238" stroke="#263238" stroke-linecap="round" stroke-linejoin="round"/>
<path d="M150.006 311.393C149.794 311.42 149.589 311.49 149.405 311.601C149.221 311.711 149.061 311.858 148.935 312.034C148.809 312.209 148.72 312.409 148.672 312.621C148.625 312.832 148.621 313.052 148.66 313.265C148.828 314.975 148.996 320.429 149.669 320.6C150.342 320.771 158.728 322.154 161.747 322.302C164.767 322.449 168.123 322.473 168.123 320.942C168.123 319.411 167.618 318.727 166.953 318.727C166.288 318.727 164.767 318.215 162.756 317.026C160.746 315.837 155.876 311.229 154.348 311.059C152.819 310.888 150.846 309.854 150.006 311.393Z" fill="#92E3A9" stroke="#263238" stroke-linecap="round" stroke-linejoin="round"/>
<path opacity="0.2" d="M150.006 311.393C149.794 311.42 149.589 311.49 149.405 311.601C149.221 311.711 149.061 311.858 148.935 312.034C148.809 312.209 148.72 312.409 148.672 312.621C148.625 312.832 148.621 313.052 148.66 313.265C148.828 314.975 148.996 320.429 149.669 320.6C150.342 320.771 158.728 322.154 161.747 322.302C164.767 322.449 168.123 322.473 168.123 320.942C168.123 319.411 167.618 318.727 166.953 318.727C166.288 318.727 164.767 318.215 162.756 317.026C160.746 315.837 155.876 311.229 154.348 311.059C152.819 310.888 150.846 309.854 150.006 311.393Z" fill="black"/>
<path d="M79.6622 318.727C79.6622 317.959 79.4381 317.208 79.0181 316.569C78.5981 315.93 78.0012 315.432 77.3027 315.138C76.6043 314.844 75.8358 314.767 75.0944 314.917C74.353 315.067 73.6719 315.437 73.1374 315.98C72.6028 316.524 72.2388 317.216 72.0913 317.969C71.9438 318.723 72.0195 319.504 72.3088 320.214C72.5981 320.924 73.088 321.531 73.7166 321.958C74.3451 322.384 75.0841 322.612 75.8401 322.612C76.8538 322.612 77.8259 322.203 78.5427 321.474C79.2595 320.746 79.6622 319.758 79.6622 318.727Z" fill="#263238" stroke="#263238" stroke-linecap="round" stroke-linejoin="round"/>
<path d="M75.8401 320.662C76.8955 320.662 77.7512 319.792 77.7512 318.72C77.7512 317.647 76.8955 316.777 75.8401 316.777C74.7846 316.777 73.929 317.647 73.929 318.72C73.929 319.792 74.7846 320.662 75.8401 320.662Z" fill="white" stroke="#263238" stroke-linecap="round" stroke-linejoin="round"/>
<path d="M120.621 318.727C120.621 317.959 120.396 317.208 119.976 316.569C119.556 315.93 118.96 315.432 118.261 315.138C117.563 314.844 116.794 314.767 116.053 314.917C115.311 315.067 114.63 315.437 114.096 315.98C113.561 316.524 113.197 317.216 113.05 317.969C112.902 318.723 112.978 319.504 113.267 320.214C113.556 320.924 114.046 321.531 114.675 321.958C115.304 322.384 116.042 322.612 116.798 322.612C117.812 322.612 118.784 322.203 119.501 321.474C120.218 320.746 120.621 319.758 120.621 318.727Z" fill="#263238" stroke="#263238" stroke-linecap="round" stroke-linejoin="round"/>
<path d="M118.71 318.727C118.71 318.343 118.597 317.968 118.387 317.648C118.177 317.329 117.879 317.08 117.53 316.933C117.181 316.786 116.796 316.747 116.426 316.822C116.055 316.897 115.714 317.082 115.447 317.354C115.18 317.626 114.998 317.972 114.924 318.348C114.85 318.725 114.888 319.116 115.033 319.471C115.177 319.826 115.422 320.129 115.737 320.342C116.051 320.556 116.42 320.67 116.798 320.67C117.305 320.67 117.791 320.465 118.15 320.101C118.508 319.737 118.71 319.243 118.71 318.727Z" fill="white" stroke="#263238" stroke-linecap="round" stroke-linejoin="round"/>
<path d="M134.006 318.727C134.006 317.959 133.782 317.208 133.362 316.569C132.942 315.93 132.345 315.432 131.646 315.138C130.948 314.844 130.179 314.767 129.438 314.917C128.697 315.067 128.016 315.437 127.481 315.98C126.947 316.524 126.582 317.216 126.435 317.969C126.288 318.723 126.363 319.504 126.653 320.214C126.942 320.924 127.432 321.531 128.06 321.958C128.689 322.384 129.428 322.612 130.184 322.612C131.197 322.612 132.17 322.203 132.886 321.474C133.603 320.746 134.006 319.758 134.006 318.727Z" fill="#263238" stroke="#263238" stroke-linecap="round" stroke-linejoin="round"/>
<path d="M132.095 318.727C132.096 318.341 131.985 317.963 131.775 317.641C131.564 317.319 131.265 317.068 130.914 316.919C130.563 316.771 130.177 316.732 129.804 316.807C129.431 316.882 129.088 317.067 128.819 317.341C128.551 317.614 128.368 317.962 128.294 318.341C128.22 318.72 128.259 319.113 128.405 319.47C128.551 319.826 128.798 320.131 129.115 320.344C129.432 320.558 129.804 320.671 130.184 320.67C130.691 320.67 131.177 320.465 131.535 320.101C131.893 319.737 132.095 319.243 132.095 318.727Z" fill="white" stroke="#263238" stroke-linecap="round" stroke-linejoin="round"/>
<path d="M110.866 252.031H102.779V314.275H110.866V252.031Z" fill="#263238" stroke="#263238" stroke-linecap="round" stroke-linejoin="round"/>
<path d="M113.03 284.555H100.631V314.275H113.03V284.555Z" fill="#263238" stroke="#263238" stroke-linecap="round" stroke-linejoin="round"/>
<path d="M75.0528 313.102H132.179C132.99 313.102 133.768 313.429 134.341 314.012C134.915 314.595 135.237 315.386 135.237 316.21V316.622H71.995V316.21C71.995 315.386 72.3172 314.595 72.8906 314.012C73.4641 313.429 74.2418 313.102 75.0528 313.102Z" fill="#263238" stroke="#263238" stroke-linecap="round" stroke-linejoin="round"/>
<path d="M98.5667 227.96H88.1704V244.991H98.5667V227.96Z" fill="#263238" stroke="#263238" stroke-linecap="round" stroke-linejoin="round"/>
<path d="M140.504 242.637H73.1417C70.0471 242.637 67.5384 245.187 67.5384 248.332V249.863C67.5384 253.008 70.0471 255.558 73.1417 255.558H140.504C143.598 255.558 146.107 253.008 146.107 249.863V248.332C146.107 245.187 143.598 242.637 140.504 242.637Z" fill="#92E3A9" stroke="#263238" stroke-linecap="round" stroke-linejoin="round"/>
<path opacity="0.1" d="M140.504 242.637H73.1417C70.0471 242.637 67.5384 245.187 67.5384 248.332V249.863C67.5384 253.008 70.0471 255.558 73.1417 255.558H140.504C143.598 255.558 146.107 253.008 146.107 249.863V248.332C146.107 245.187 143.598 242.637 140.504 242.637Z" fill="black"/>
<path d="M146.107 249.094C146.107 247.381 145.438 245.739 144.246 244.528C143.055 243.317 141.439 242.637 139.754 242.637H105.095C104.242 242.607 103.391 242.752 102.594 243.063C101.797 243.374 101.07 243.845 100.456 244.448C99.8417 245.051 99.3533 245.773 99.0198 246.572C98.6862 247.371 98.5143 248.23 98.5143 249.098C98.5143 249.965 98.6862 250.824 99.0198 251.623C99.3533 252.422 99.8417 253.144 100.456 253.747C101.07 254.35 101.797 254.821 102.594 255.132C103.391 255.443 104.242 255.588 105.095 255.558H139.754C141.44 255.556 143.056 254.874 144.247 253.662C145.438 252.45 146.107 250.807 146.107 249.094Z" fill="#92E3A9" stroke="#263238" stroke-miterlimit="10"/>
<path opacity="0.1" d="M146.107 249.296C146.107 248.448 145.942 247.608 145.623 246.825C145.304 246.041 144.836 245.33 144.246 244.73C143.656 244.13 142.956 243.655 142.185 243.33C141.415 243.006 140.589 242.839 139.754 242.839H105.095C104.242 242.809 103.391 242.954 102.594 243.265C101.797 243.576 101.07 244.047 100.456 244.65C99.8417 245.253 99.3533 245.975 99.0198 246.774C98.6862 247.573 98.5143 248.432 98.5143 249.3C98.5143 250.167 98.6862 251.026 99.0198 251.825C99.3533 252.624 99.8417 253.346 100.456 253.949C101.07 254.552 101.797 255.023 102.594 255.334C103.391 255.645 104.242 255.79 105.095 255.76H139.754C140.589 255.76 141.416 255.593 142.187 255.268C142.958 254.943 143.659 254.467 144.249 253.866C144.839 253.266 145.307 252.553 145.625 251.769C145.944 250.985 146.108 250.144 146.107 249.296Z" fill="black"/>
<path d="M113.848 227.967H73.3327C72.3855 227.968 71.4478 227.775 70.5749 227.401C69.7021 227.027 68.9118 226.479 68.2506 225.79C67.5894 225.101 67.0707 224.283 66.7252 223.387C66.3797 222.491 66.2143 221.533 66.2388 220.57L67.2402 180.423C67.2841 178.542 68.0511 176.752 69.377 175.438C70.7029 174.123 72.4822 173.389 74.3341 173.392H107.763C109.459 173.389 111.1 174.004 112.388 175.126C113.675 176.248 114.524 177.802 114.78 179.507L120.858 219.685C121.009 220.71 120.942 221.757 120.659 222.753C120.377 223.75 119.886 224.673 119.22 225.459C118.555 226.245 117.731 226.876 116.803 227.309C115.876 227.742 114.868 227.967 113.848 227.967Z" fill="#92E3A9" stroke="#263238" stroke-linecap="round" stroke-linejoin="round"/>
<path opacity="0.1" d="M113.848 227.967H73.3327C72.3855 227.968 71.4478 227.775 70.5749 227.401C69.7021 227.027 68.9118 226.479 68.2506 225.79C67.5894 225.101 67.0707 224.283 66.7252 223.387C66.3797 222.491 66.2143 221.533 66.2388 220.57L67.2402 180.423C67.2841 178.542 68.0511 176.752 69.377 175.438C70.7029 174.123 72.4822 173.389 74.3341 173.392H107.763C109.459 173.389 111.1 174.004 112.388 175.126C113.675 176.248 114.524 177.802 114.78 179.507L120.858 219.685C121.009 220.71 120.942 221.757 120.659 222.753C120.377 223.75 119.886 224.673 119.22 225.459C118.555 226.245 117.731 226.876 116.803 227.309C115.876 227.742 114.868 227.967 113.848 227.967Z" fill="black"/>
<path d="M100.615 253.499L82.85 265.387" stroke="#263238" stroke-linecap="round" stroke-linejoin="round"/>
<path d="M82.1772 263.561L79.1195 265.651C78.88 265.817 78.6797 266.035 78.5328 266.289C78.3859 266.543 78.2961 266.827 78.2698 267.12C78.2435 267.413 78.2813 267.709 78.3807 267.985C78.48 268.262 78.6383 268.513 78.8443 268.72L79.1042 268.969C79.4477 269.312 79.9042 269.514 80.3855 269.536C80.8669 269.557 81.3391 269.397 81.7109 269.086L84.5087 266.755C84.7164 266.58 84.8863 266.363 85.0079 266.119C85.1294 265.874 85.1999 265.607 85.215 265.333C85.2301 265.06 85.1894 264.786 85.0955 264.529C85.0016 264.272 84.8565 264.038 84.6693 263.841C84.3526 263.504 83.9291 263.291 83.4734 263.24C83.0176 263.189 82.5586 263.302 82.1772 263.561Z" fill="#263238" stroke="#263238" stroke-linecap="round" stroke-linejoin="round"/>
<path d="M103.39 313.102H120.919C121.73 313.102 122.507 313.429 123.081 314.012C123.654 314.595 123.977 315.386 123.977 316.21V316.622H103.39V313.102Z" fill="#263238" stroke="#263238" stroke-linecap="round" stroke-linejoin="round"/>
<path d="M117.425 207.276C120.883 207.276 123.686 205.655 123.686 203.655C123.686 201.656 120.883 200.035 117.425 200.035C113.968 200.035 111.165 201.656 111.165 203.655C111.165 205.655 113.968 207.276 117.425 207.276Z" fill="white" stroke="#263238" stroke-linecap="round" stroke-linejoin="round"/>
<path d="M134.847 233.352C134.847 233.352 144.945 233.865 147.223 239.257C147.692 241.103 147.949 242.999 147.987 244.906C147.987 247.726 157.329 302.146 157.581 303.18C157.833 304.213 163.391 312.162 164.148 313.957C164.904 315.752 165.676 317.298 165.676 317.298C165.676 317.298 167.97 318.323 167.702 319.093C167.435 319.862 162.145 320.118 159.874 320.118C157.604 320.118 155.074 314.477 153.56 313.957C152.047 313.436 150.273 311.626 150.273 310.623C150.273 309.621 151.037 302.154 151.037 302.154C150.069 296.063 148.375 290.114 145.992 284.439C142.613 276.615 138.409 265.185 137.904 259.801C137.4 254.416 137.4 249.272 137.4 249.272L131.025 248.239C131.025 248.239 130.26 234.89 134.847 233.352Z" fill="white" stroke="#263238" stroke-linecap="round" stroke-linejoin="round"/>
<path d="M155.372 316.505C155.372 316.505 157.39 308.153 162.588 311.393L164.767 315.138C164.767 315.138 159.905 315.138 158.391 319.916C157.652 319.642 156.99 319.187 156.464 318.593C155.938 317.998 155.563 317.281 155.372 316.505Z" fill="#263238" stroke="#263238" stroke-linecap="round" stroke-linejoin="round"/>
<path d="M113.947 217.765L113.702 217.804C111.409 208.309 108.313 198.605 108.313 198.605C108.313 198.605 93.1239 202.684 84.3634 199.918C84.3634 199.918 79.9068 222.225 79.9068 228.053C79.9068 232.715 78.9589 237.454 82.4294 240.189C82.7651 240.692 83.1965 241.12 83.6981 241.45C84.1997 241.779 84.7613 242.003 85.3496 242.109C94.8209 243.919 111.142 243.29 113.863 243.841C116.584 244.393 131.025 248.239 131.025 248.239C131.025 248.239 131.888 240.143 134.335 234.89C136.781 229.638 147.949 230.531 147.949 230.531L113.947 217.765Z" fill="#263238" stroke="#263238" stroke-linecap="round" stroke-linejoin="round"/>
<path d="M110.438 155.56C110.438 155.56 108.344 152.887 106.081 155.832C103.818 158.776 105.615 169.002 106.731 173.089C107.847 177.176 126.698 194.129 128.471 195.388C130.245 196.647 153.354 201.954 155.372 200.982C157.39 200.011 157.971 195.093 156.824 192.436C155.678 189.778 134.082 184.137 134.082 184.137L110.438 155.56Z" fill="white"/>
<g style="mix-blend-mode:multiply" opacity="0.5">
<path d="M128.471 195.404C130.245 196.655 153.354 201.969 155.372 200.998C156.534 200.439 157.214 198.558 157.367 196.561C153.797 195.101 149.562 194.114 147.597 194.23C144.746 194.394 146.657 197.098 142.086 196.336C137.515 195.575 132.301 193.228 127.562 190.478C122.822 187.727 114.314 179.6 114.314 179.6L120.987 180.377L113.381 177.991L119.994 175.466L114.314 175.124C114.678 174.21 114.847 173.227 114.811 172.242C114.811 170.245 111.065 162.832 111.065 162.832L107.09 173.935C109.865 179.001 126.797 194.215 128.471 195.404Z" fill="#92E3A9"/>
</g>
<path d="M110.438 155.56C110.438 155.56 108.344 152.887 106.081 155.832C103.818 158.776 105.615 169.002 106.731 173.089C107.847 177.176 126.698 194.129 128.471 195.388C130.245 196.647 153.354 201.954 155.372 200.982C157.39 200.011 157.971 195.093 156.824 192.436C155.678 189.778 134.082 184.137 134.082 184.137L110.438 155.56Z" stroke="#263238" stroke-linecap="round" stroke-linejoin="round"/>
<path d="M117.861 177.028L112.67 179.071L121.4 182.024" stroke="#263238" stroke-width="0.5" stroke-linecap="round" stroke-linejoin="round"/>
<path d="M155.425 192.412C154.758 192.551 154.148 192.892 153.674 193.39C153.201 193.888 152.887 194.519 152.773 195.202C152.322 197.634 154.676 199.708 154.676 199.708C154.676 199.708 159.637 201.441 161.12 197.377C162.603 193.314 157.826 192.257 155.425 192.412Z" fill="white"/>
<g style="mix-blend-mode:multiply" opacity="0.5">
<path d="M154.676 199.708C154.676 199.708 158.911 201.177 160.723 198.216C158.234 196.808 155.574 195.74 152.811 195.039C152.795 195.092 152.782 195.146 152.773 195.202C152.322 197.634 154.676 199.708 154.676 199.708Z" fill="#92E3A9"/>
</g>
<path d="M155.425 192.412C154.758 192.551 154.148 192.892 153.674 193.39C153.201 193.888 152.887 194.519 152.773 195.202C152.322 197.634 154.676 199.708 154.676 199.708C154.676 199.708 159.637 201.441 161.12 197.377C162.603 193.314 157.826 192.257 155.425 192.412Z" stroke="#263238" stroke-linecap="round" stroke-linejoin="round"/>
<path d="M170.08 198.03C171.465 198.256 172.742 198.932 173.718 199.957C175.163 201.612 173.986 202.288 173.061 202.047C172.136 201.806 169.093 197.237 170.08 198.03Z" fill="white" stroke="#263238" stroke-linecap="round" stroke-linejoin="round"/>
<path d="M169.116 197.727C170.459 198.146 171.631 198.997 172.457 200.151C173.665 201.985 172.403 202.482 171.524 202.125C170.645 201.767 168.245 196.802 169.116 197.727Z" fill="white" stroke="#263238" stroke-linecap="round" stroke-linejoin="round"/>
<path d="M160.463 194.106C160.463 194.106 158.17 194.961 157.917 196.437C157.876 196.898 157.929 197.363 158.074 197.801C158.219 198.24 158.452 198.643 158.758 198.986C158.758 198.986 161.052 200.85 161.923 201.045C162.794 201.239 164.751 202.373 164.981 201.293C165.21 200.213 162.886 199.258 162.886 199.258C162.886 199.258 167.328 199.53 167.473 200.439C167.618 201.348 169.223 202.288 170.645 202.311C172.067 202.334 170.347 199.413 170.003 198.683C169.659 197.952 163.307 194.16 160.463 194.106Z" fill="white" stroke="#263238" stroke-linecap="round" stroke-linejoin="round"/>
<path d="M87.666 148.31C87.666 148.31 73.6921 156.57 72.599 157.114C71.5058 157.658 70.4203 166.204 70.4203 167.013C70.4203 167.821 84.3942 199.918 84.3942 199.918C84.3942 199.918 87.8341 202.878 97.9017 202.878C107.969 202.878 108.749 201.324 108.749 201.324L109.552 187.781C109.552 187.781 112.992 178.629 113.259 177.012C113.527 175.396 110.438 155.56 110.438 155.56L96.1435 145.871C96.1435 145.871 90.3185 142.39 87.666 148.31Z" fill="white"/>
<g style="mix-blend-mode:multiply" opacity="0.5">
<path d="M74.0208 162.988C75.1139 161.208 85.1739 154.542 85.1739 154.542L88.8891 152.32L93.6515 144.977C91.7404 144.62 89.1872 144.915 87.666 148.31C87.666 148.31 73.6615 156.57 72.599 157.106C71.5364 157.642 70.4203 166.197 70.4203 167.005C70.4203 167.183 71.0777 168.831 72.1021 171.309C72.4996 167.634 73.2564 164.231 74.0208 162.988Z" fill="#92E3A9"/>
</g>
<path d="M87.666 148.31C87.666 148.31 73.6921 156.57 72.599 157.114C71.5058 157.658 70.4203 166.204 70.4203 167.013C70.4203 167.821 84.3942 199.918 84.3942 199.918C84.3942 199.918 87.8341 202.878 97.9017 202.878C107.969 202.878 108.749 201.324 108.749 201.324L109.552 187.781C109.552 187.781 112.992 178.629 113.259 177.012C113.527 175.396 110.438 155.56 110.438 155.56L96.1435 145.871C96.1435 145.871 90.3185 142.39 87.666 148.31Z" stroke="#263238" stroke-linecap="round" stroke-linejoin="round"/>
<path d="M92.3519 161.123L96.4263 165.591L95.5778 184.588L101.54 186.189L102.167 177.89L104.361 186.507L108.757 182.039L99.2548 165.272L100.508 160.167L95.1727 154.107L91.7251 162.405" fill="#263238"/>
<path d="M92.3519 161.123L96.4263 165.591L95.5778 184.588L101.54 186.189L102.167 177.89L104.361 186.507L108.757 182.039L99.2548 165.272L100.508 160.167L95.1727 154.107L91.7251 162.405" stroke="#263238" stroke-linecap="round" stroke-linejoin="round"/>
<path d="M84.9369 148.357C84.9369 148.357 85.8083 154.27 86.9703 156.904C88.1322 159.538 90.7542 164.006 90.7542 164.006L96.2811 158.38L101.816 162.265C101.816 162.265 101.235 152.506 99.1936 148.07C97.1526 143.633 87.2608 139.189 84.9369 148.357Z" fill="white" stroke="#263238" stroke-linecap="round" stroke-linejoin="round"/>
<g style="mix-blend-mode:multiply" opacity="0.5">
<path d="M88.889 152.32L94.4159 143.773C93.407 143.324 92.3277 143.061 91.2282 142.996C90.2803 143.19 89.2101 143.431 88.0787 143.687C86.6951 144.464 85.5484 145.925 84.9369 148.349C84.9369 148.349 85.3726 151.333 86.0453 154.013L88.889 152.32Z" fill="#92E3A9"/>
</g>
<path d="M98.6126 146.578C97.8643 148.253 97.4686 150.068 97.4507 151.908C97.4507 154.86 98.0316 158.124 98.0316 159.6V164.037C98.0316 164.037 94.5382 159.6 91.9162 156.344C89.2941 153.089 87.2607 150.129 87.5512 147.471C87.8417 144.814 90.4637 134.449 90.4637 134.449C91.8487 134.436 93.2097 134.817 94.3929 135.549C95.5762 136.281 96.5347 137.334 97.1602 138.59C99.4841 143.027 98.6126 146.578 98.6126 146.578Z" fill="white" stroke="#263238" stroke-linecap="round" stroke-linejoin="round"/>
<g style="mix-blend-mode:multiply" opacity="0.5">
<path d="M89.5464 141.434L88.6749 141.861C88.1398 144.192 87.6659 146.422 87.5512 147.471C87.2684 150.035 89.1565 152.91 91.6409 156.018L91.9544 149.903L98.6126 146.601L93.2616 141.232L89.5464 141.434Z" fill="#92E3A9"/>
</g>
<path d="M104.269 143.4C104.269 143.4 102.343 147.028 104.422 147.176C106.501 147.324 106.05 145.513 106.349 144.915C106.647 144.317 107.984 145.692 107.243 148.536C106.501 151.379 102.786 153.369 100.554 151.1C98.322 148.831 98.9259 146.438 99.6674 144.612C100.409 142.786 103.398 141.892 104.269 143.4Z" fill="#263238" stroke="#263238" stroke-linecap="round" stroke-linejoin="round"/>
<path d="M100.096 111.326C99.4458 111.232 98.7655 111.163 98.0622 111.124C95.5013 110.992 92.7112 111.163 90.716 112.786C86.5727 116.159 87.2684 122.934 87.5665 127.65C87.9029 133.004 87.8341 140.812 91.7862 144.69C98.4597 151.232 108.894 144.231 108.894 136.477C108.894 133.198 109.017 128.202 109.231 127.083C109.509 125.701 109.701 124.302 109.804 122.895C110.263 115.755 106.28 112.219 100.096 111.326Z" fill="white" stroke="#263238" stroke-linecap="round" stroke-linejoin="round"/>
<g style="mix-blend-mode:multiply" opacity="0.5">
<path d="M102.557 146.088C100.69 146.062 98.8261 145.916 96.9768 145.653C94.1407 145.21 90.2039 140.54 92.1685 134.099C94.1331 127.658 94.1407 124.317 94.1407 124.317L87.4519 120.067C87.2985 122.594 87.3394 125.13 87.5742 127.65C87.9106 133.004 87.8418 140.812 91.7939 144.69C95.0351 147.875 99.163 147.844 102.557 146.088Z" fill="#92E3A9"/>
</g>
<path d="M98.7655 131.994C99.1834 131.994 99.5222 131.402 99.5222 130.673C99.5222 129.943 99.1834 129.352 98.7655 129.352C98.3475 129.352 98.0087 129.943 98.0087 130.673C98.0087 131.402 98.3475 131.994 98.7655 131.994Z" fill="#263238"/>
<path d="M106.234 130.999C106.188 131.729 105.806 132.297 105.393 132.266C104.98 132.234 104.675 131.628 104.72 130.898C104.766 130.168 105.141 129.6 105.561 129.632C105.982 129.663 106.28 130.269 106.234 130.999Z" fill="#263238"/>
<path d="M96.4187 127.51C96.4187 127.51 97.9475 124.231 100.401 125.778L96.4187 127.51Z" fill="white"/>
<path d="M96.4187 127.51C96.4187 127.51 97.9475 124.231 100.401 125.778" stroke="#263238" stroke-linecap="round" stroke-linejoin="round"/>
<path d="M104.384 126.353C104.384 126.353 106.196 124.239 107.228 127.705L104.384 126.353Z" fill="white"/>
<path d="M104.384 126.353C104.384 126.353 106.196 124.239 107.228 127.705" stroke="#263238" stroke-linecap="round" stroke-linejoin="round"/>
<path d="M103.207 133.299C103.207 133.431 103.207 133.563 103.207 133.68C103.398 135.032 104.346 136.011 103.971 136.57C103.597 137.13 101.678 137.347 101.678 137.347" fill="white"/>
<path d="M103.207 133.299C103.207 133.431 103.207 133.563 103.207 133.68C103.398 135.032 104.346 136.011 103.971 136.57C103.597 137.13 101.678 137.347 101.678 137.347" stroke="#263238" stroke-linecap="round" stroke-linejoin="round"/>
<path d="M100.967 140.432C100.967 140.432 97.6264 141.481 96.3804 138.738L100.967 140.432Z" fill="white"/>
<path d="M100.967 140.432C100.967 140.432 97.6264 141.481 96.3804 138.738" stroke="#263238" stroke-linecap="round" stroke-linejoin="round"/>
<path d="M98.1157 133.905C100.286 133.905 102.045 132.117 102.045 129.911C102.045 127.706 100.286 125.918 98.1157 125.918C95.9457 125.918 94.1865 127.706 94.1865 129.911C94.1865 132.117 95.9457 133.905 98.1157 133.905Z" stroke="#263238" stroke-width="0.5" stroke-linecap="round" stroke-linejoin="round"/>
<path d="M107.006 133.905C108.952 133.905 110.53 132.117 110.53 129.911C110.53 127.706 108.952 125.918 107.006 125.918C105.06 125.918 103.482 127.706 103.482 129.911C103.482 132.117 105.06 133.905 107.006 133.905Z" stroke="#263238" stroke-width="0.5" stroke-linecap="round" stroke-linejoin="round"/>
<path d="M94.1865 129.911L88.5756 130.152" stroke="#263238" stroke-width="0.5" stroke-linecap="round" stroke-linejoin="round"/>
<path d="M110.53 129.911H109.093" stroke="#263238" stroke-width="0.5" stroke-linecap="round" stroke-linejoin="round"/>
<path d="M102.037 128.691H103.665" stroke="#263238" stroke-width="0.5" stroke-linecap="round" stroke-linejoin="round"/>
<path d="M107.029 106.609C104.096 106.089 101.13 105.777 98.1539 105.677C98.1539 105.677 92.9482 103.183 85.923 105.988C75.8707 109.982 76.0924 123.625 78.5844 132.32C79.3489 134.946 81.1453 138.932 79.4941 141.566C78.4545 143.229 75.4808 142.343 75.9318 140.059C76.3829 137.774 77.1167 138.551 77.713 138.248C78.3092 137.945 77.4148 137.642 76.0771 137.192C74.7393 136.741 73.5697 137.969 73.4016 140.96C72.9582 149.118 84.784 154.519 89.2942 147.386C91.1288 144.278 89.5006 138.878 88.7055 134.954C88.4531 133.596 88.2821 132.223 88.1934 130.844C89.6205 130.705 90.944 130.025 91.9009 128.94C92.6094 127.953 93.2141 126.893 93.7049 125.778C94.24 125.778 94.7981 125.817 95.4096 125.879C101.525 126.5 103.375 115.918 103.375 115.918C103.375 115.918 106.433 121.831 107.35 124.014L108.267 126.19C108.267 126.19 110.721 126.5 113.167 121.209C115.614 115.918 112.846 107.565 107.029 106.609Z" fill="#263238" stroke="#263238" stroke-linecap="round" stroke-linejoin="round"/>
<path d="M103.023 113.431C103.023 113.431 110.545 116.058 110.775 120.595C111.004 125.133 109.834 125.366 109.834 125.366" stroke="white" stroke-width="0.5" stroke-miterlimit="10" stroke-linecap="round"/>
<path d="M102.091 111.761C102.091 111.761 109.131 110.09 111.486 114.869" stroke="white" stroke-width="0.5" stroke-miterlimit="10" stroke-linecap="round"/>
<path d="M93.3992 106.982C93.3992 106.982 100.44 110.564 101.617 113.913C102.794 117.262 96.6863 123.695 92.6883 124.892C88.6903 126.088 85.6478 124.651 82.8271 126.803C80.0063 128.956 81.1835 134.915 81.1835 134.915" stroke="white" stroke-width="0.5" stroke-miterlimit="10" stroke-linecap="round"/>
<path d="M79.043 128.233C79.043 128.233 77.1625 123.695 81.1605 121.31C85.1585 118.925 88.6749 121.31 93.1392 118.443C97.6035 115.576 98.3067 112.002 98.3067 112.002" stroke="white" stroke-width="0.5" stroke-miterlimit="10" stroke-linecap="round"/>
<path d="M89.3859 132.351C89.3859 132.351 86.9168 126.252 84.44 128.404C81.9632 130.556 86.2058 136.298 89.0266 135.583" fill="white"/>
<path d="M89.3859 132.351C89.3859 132.351 86.9168 126.252 84.44 128.404C81.9632 130.556 86.2058 136.298 89.0266 135.583" stroke="#263238" stroke-linecap="round" stroke-linejoin="round"/>
<g opacity="0.37">
<path d="M89.3859 132.351C89.3859 132.351 86.9168 126.252 84.44 128.404C81.9632 130.556 86.2058 136.298 89.0266 135.583" fill="#92E3A9"/>
<path d="M89.3859 132.351C89.3859 132.351 86.9168 126.252 84.44 128.404C81.9632 130.556 86.2058 136.298 89.0266 135.583" stroke="#263238" stroke-linecap="round" stroke-linejoin="round"/>
</g>
<path d="M74.3042 157.727C74.3042 157.727 73.104 156.811 70.4361 158.854C67.7683 160.898 65.2839 170.19 66.9503 174.13C68.6168 178.069 73.0658 198.55 75.1374 199.669C77.209 200.788 99.4846 200.695 102.114 200.066C104.744 199.436 106.579 195.94 106.135 192.917C105.692 189.895 102.756 189.11 101.893 189.087C101.029 189.063 83.2863 188.038 83.2863 188.038L77.7747 164.371" fill="white"/>
<g style="mix-blend-mode:multiply" opacity="0.5">
<path d="M102.818 194.992C101.549 193.399 81.3523 196.173 79.1966 194.992C77.0408 193.811 76.0012 191.565 77.576 190.05C79.1507 188.535 74.5641 188.193 74.6023 186.857C74.6405 185.52 77.2702 185.155 77.102 183.368C76.9338 181.581 71.2541 181.208 71.3917 176.095C71.5293 170.983 72.7906 164.798 73.9296 163.05C74.5604 162.313 75.2854 161.665 76.0853 161.123L74.3042 157.72C74.3042 157.72 73.104 156.803 70.4361 158.846C67.7683 160.89 65.2839 170.19 66.9503 174.13C68.6168 178.069 73.0658 198.55 75.1374 199.669C77.209 200.788 99.4846 200.695 102.114 200.066C102.964 199.789 103.737 199.31 104.367 198.668C104.998 198.026 105.468 197.239 105.738 196.375C104.324 195.963 103.192 195.458 102.818 194.992Z" fill="#92E3A9"/>
</g>
<path d="M74.3042 157.727C74.3042 157.727 73.104 156.811 70.4361 158.854C67.7683 160.898 65.2839 170.19 66.9503 174.13C68.6168 178.069 73.0658 198.55 75.1374 199.669C77.209 200.788 99.4846 200.695 102.114 200.066C104.744 199.436 106.579 195.94 106.135 192.917C105.692 189.895 102.756 189.11 101.893 189.087C101.029 189.063 83.2863 188.038 83.2863 188.038L77.7747 164.371" stroke="#263238" stroke-linecap="round" stroke-linejoin="round"/>
<path d="M76.5357 192.405C77.8506 188.473 83.278 188.395 83.278 188.395C81.1134 187.819 78.85 187.737 76.6504 188.154" stroke="#263238" stroke-width="0.5" stroke-linecap="round" stroke-linejoin="round"/>
<path d="M105.171 190.066C104.368 190.415 103.683 190.996 103.199 191.735C102.716 192.475 102.455 193.342 102.45 194.23C102.358 197.416 104.438 198.007 104.95 198.372C105.462 198.737 108.55 200.423 109.796 199.39C111.042 198.356 112.51 195.575 111.325 193.244C110.14 190.913 106.387 190.097 105.171 190.066Z" fill="white"/>
<g style="mix-blend-mode:multiply" opacity="0.5">
<path d="M109.796 199.39C110.114 199.116 110.396 198.802 110.637 198.457L108.038 197.051C105.653 196.383 103.383 195.699 102.817 194.992C102.718 194.886 102.595 194.809 102.458 194.767C102.603 197.486 104.461 198.03 104.95 198.372C105.439 198.714 108.55 200.423 109.796 199.39Z" fill="#92E3A9"/>
</g>
<path d="M105.171 190.066C104.368 190.415 103.683 190.996 103.199 191.735C102.716 192.475 102.455 193.342 102.45 194.23C102.358 197.416 104.438 198.007 104.95 198.372C105.462 198.737 108.55 200.423 109.796 199.39C111.042 198.356 112.51 195.575 111.325 193.244C110.14 190.913 106.387 190.097 105.171 190.066Z" stroke="#263238" stroke-linecap="round" stroke-linejoin="round"/>
<path d="M109.475 192.917C109.475 192.917 107.579 193.655 107.319 195.108C107.06 196.561 107.151 197.346 107.48 197.439C107.809 197.533 108.902 198.038 108.902 198.038L112.273 199.817C112.273 199.817 114.948 202.925 115.828 203.174C116.707 203.422 115.95 202.839 115.828 202.163C115.445 201.195 114.95 200.277 114.352 199.428L118.343 203.018C118.343 203.018 119.657 203.5 119.352 202.482C119.046 201.464 117.005 199.374 117.005 199.374L120.773 202.847C120.773 202.847 121.538 203.205 121.538 202.754C121.581 202.528 121.565 202.295 121.493 202.077C121.421 201.859 121.294 201.664 121.125 201.511C120.697 201.161 118.129 198.17 118.129 198.17L121.706 200.4C121.706 200.4 122.471 201.433 123.006 201.449C123.541 201.464 123.235 201.115 122.83 199.895C122.425 198.675 119.703 196.888 118.732 196.188C117.762 195.489 112.456 193.003 109.475 192.917Z" fill="white" stroke="#263238" stroke-linecap="round" stroke-linejoin="round"/>
<path d="M280.51 191.985H250.651L256.025 174.27H285.884L280.51 191.985Z" fill="#263238" stroke="#263238" stroke-linecap="round" stroke-linejoin="round"/>
<path d="M278.163 193.655H248.312L253.686 175.932H283.537L278.163 193.655Z" fill="white" stroke="#263238" stroke-linecap="round" stroke-linejoin="round"/>
<path d="M235.263 186.639H284.462C285.678 186.639 286.845 187.13 287.705 188.005C288.565 188.879 289.048 190.065 289.048 191.301V204.339H235.263V186.639Z" fill="#263238" stroke="#263238" stroke-linecap="round" stroke-linejoin="round"/>
<path d="M280.242 186.639H226.434V204.362H280.242V186.639Z" fill="white" stroke="#263238" stroke-linecap="round" stroke-linejoin="round"/>
<path d="M268.134 199.607H225.149V201.946H268.134V199.607Z" fill="white" stroke="#263238" stroke-linecap="round" stroke-linejoin="round"/>
<path d="M268.133 197.268H234.323V199.607H268.133V197.268Z" fill="#263238" stroke="#263238" stroke-linecap="round" stroke-linejoin="round"/>
<path d="M225.325 202.637H191.407V204.246H225.325V202.637Z" fill="white" stroke="#263238" stroke-linecap="round" stroke-linejoin="round"/>
<path d="M251.408 145.707H178.297V193.632H251.408V145.707Z" fill="white" stroke="#263238" stroke-linecap="round" stroke-linejoin="round"/>
<path d="M251.408 145.707H182.288V193.632H251.408V145.707Z" fill="#263238" stroke="#263238" stroke-linecap="round" stroke-linejoin="round"/>
<path d="M226.113 167.976H210.113V204.976H226.113V167.976Z" fill="white" stroke="#263238" stroke-linecap="round" stroke-linejoin="round"/>
<path d="M227.588 167.976H211.588V204.976H227.588V167.976Z" fill="#263238" stroke="#263238" stroke-linecap="round" stroke-linejoin="round"/>
<path d="M210.526 168.411H227.962V193.749" stroke="white" stroke-linejoin="round"/>
<path d="M177.793 201.775H128.815V204.378H177.793V201.775Z" fill="white" stroke="#263238" stroke-linecap="round" stroke-linejoin="round"/>
<path d="M190.452 201.775H141.474V204.378H190.452V201.775Z" fill="white" stroke="#263238" stroke-linecap="round" stroke-linejoin="round"/>
<path d="M126.927 208.667H51.8826L48.3204 320.134C48.3007 320.442 48.3418 320.752 48.4411 321.044C48.5404 321.337 48.6959 321.606 48.8987 321.837C49.1015 322.068 49.3474 322.255 49.6222 322.388C49.8969 322.521 50.195 322.598 50.499 322.612C51.0612 322.596 51.5969 322.366 52.0003 321.967C52.4037 321.569 52.6453 321.031 52.6776 320.46L59.8404 229.374C59.9313 227.749 60.6173 226.218 61.7633 225.082C62.9093 223.946 64.4323 223.287 66.0323 223.235H112.777C114.377 223.287 115.899 223.946 117.044 225.083C118.188 226.219 118.873 227.75 118.962 229.374L126.132 320.445C126.164 321.014 126.405 321.551 126.807 321.949C127.208 322.347 127.742 322.578 128.303 322.597C128.607 322.583 128.905 322.508 129.18 322.376C129.456 322.243 129.702 322.057 129.906 321.827C130.109 321.597 130.265 321.328 130.366 321.036C130.466 320.744 130.508 320.435 130.489 320.126L126.927 208.667Z" fill="#92E3A9" stroke="#263238" stroke-linecap="round" stroke-linejoin="round"/>
<path d="M127.095 213.795L126.927 208.667H102.381H76.4287H51.8827L51.7146 213.795H127.095Z" fill="#263238" stroke="#263238" stroke-linecap="round" stroke-linejoin="round"/>
<path d="M297.824 208.667H222.757L219.202 320.134C219.183 320.442 219.225 320.751 219.325 321.042C219.425 321.334 219.581 321.602 219.783 321.832C219.986 322.062 220.232 322.249 220.506 322.381C220.78 322.514 221.077 322.59 221.381 322.605C221.942 322.586 222.475 322.355 222.877 321.957C223.279 321.558 223.52 321.022 223.552 320.452L230.737 229.374C230.828 227.749 231.514 226.218 232.66 225.082C233.806 223.946 235.329 223.287 236.929 223.235H283.674C285.274 223.287 286.796 223.946 287.941 225.083C289.085 226.219 289.77 227.75 289.859 229.374L297.029 320.445C297.058 321.017 297.297 321.557 297.699 321.959C298.101 322.36 298.637 322.594 299.2 322.612C299.503 322.597 299.801 322.522 300.075 322.389C300.349 322.256 300.595 322.07 300.798 321.84C301 321.61 301.156 321.341 301.256 321.05C301.356 320.758 301.397 320.45 301.379 320.142L297.824 208.667Z" fill="#92E3A9" stroke="#263238" stroke-linecap="round" stroke-linejoin="round"/>
<path d="M298.321 213.795L298.161 208.667H273.615H247.654H223.108L222.948 213.795H298.321Z" fill="#263238" stroke="#263238" stroke-linecap="round" stroke-linejoin="round"/>
<path d="M302.77 204.362H45.7978V210.236H302.77V204.362Z" fill="white" stroke="#263238" stroke-linecap="round" stroke-linejoin="round"/>
<path d="M302.778 204.362H118.595V210.236H302.778V204.362Z" fill="white" stroke="#263238" stroke-linecap="round" stroke-linejoin="round"/>
</svg>
