<svg width="75" height="75" viewBox="0 0 75 75" fill="none" xmlns="http://www.w3.org/2000/svg">
<circle cx="37.5" cy="37.5" r="37.5" fill="#2D2D2D"/>
<path d="M37.5 19.6938C42.9737 19.6938 43.622 19.7147 45.7836 19.8132C47.7824 19.9044 48.8679 20.2384 49.5904 20.5191C50.5471 20.891 51.23 21.3353 51.9474 22.0526C52.6649 22.77 53.109 23.4529 53.4809 24.4096C53.7616 25.1321 54.0956 26.2176 54.1868 28.2162C54.2853 30.378 54.3062 31.0263 54.3062 36.5C54.3062 41.9738 54.2853 42.6221 54.1868 44.7838C54.0956 46.7825 53.7616 47.8679 53.4809 48.5904C53.109 49.5471 52.6647 50.2302 51.9474 50.9475C51.23 51.6649 50.5471 52.1091 49.5904 52.4809C48.8679 52.7616 47.7824 53.0957 45.7836 53.1868C43.6223 53.2855 42.974 53.3063 37.5 53.3063C32.0259 53.3063 31.3775 53.2855 29.2162 53.1868C27.2175 53.0956 26.1321 52.7616 25.4096 52.4809C24.4529 52.1091 23.7698 51.6649 23.0525 50.9475C22.3351 50.23 21.8909 49.5471 21.5191 48.5904C21.2384 47.868 20.9043 46.7825 20.8132 44.7838C20.7145 42.6221 20.6937 41.9738 20.6937 36.5C20.6937 31.0263 20.7145 30.378 20.8132 28.2164C20.9044 26.2176 21.2384 25.1321 21.5191 24.4096C21.8909 23.4529 22.3351 22.77 23.0525 22.0526C23.77 21.3351 24.4529 20.891 25.4096 20.5191C26.1319 20.2384 27.2175 19.9044 29.2162 19.8132C31.3779 19.7147 32.0262 19.6938 37.5 19.6938ZM37.5 16C31.9325 16 31.2344 16.0235 29.0479 16.1233C26.8658 16.2229 25.3755 16.5695 24.0717 17.0762C22.7235 17.6001 21.5803 18.3011 20.4406 19.4408C19.301 20.5805 18.6001 21.7237 18.0762 23.0717C17.5694 24.3757 17.2229 25.8659 17.1233 28.0479C17.0235 30.2344 17 30.9325 17 36.5C17 42.0675 17.0235 42.7656 17.1233 44.9521C17.2229 47.1342 17.5694 48.6245 18.0762 49.9283C18.6 51.2763 19.301 52.4197 20.4406 53.5594C21.5803 54.699 22.7235 55.3999 24.0717 55.9237C25.3757 56.4306 26.8658 56.7771 29.0478 56.8767C31.2344 56.9765 31.9325 57 37.5 57C43.0675 57 43.7656 56.9765 45.9521 56.8767C48.1341 56.7771 49.6243 56.4306 50.9281 55.9237C52.2763 55.4 53.4195 54.699 54.5592 53.5594C55.6989 52.4197 56.3999 51.2765 56.9237 49.9283C57.4305 48.6243 57.7771 47.1342 57.8767 44.9522C57.9765 42.7656 58 42.0675 58 36.5C58 30.9325 57.9765 30.2344 57.8767 28.0479C57.7771 25.8659 57.4305 24.3757 56.9237 23.0719C56.3999 21.7237 55.6989 20.5805 54.5592 19.4408C53.4195 18.3011 52.2763 17.6 50.9283 17.0762C49.6243 16.5695 48.1341 16.2229 45.9521 16.1233C43.7656 16.0235 43.0675 16 37.5 16ZM37.5 25.9729C31.686 25.9729 26.9729 30.6863 26.9729 36.5C26.9729 42.314 31.686 47.0271 37.5 47.0271C43.3138 47.0271 48.0271 42.314 48.0271 36.5C48.0271 30.6862 43.3138 25.9729 37.5 25.9729ZM37.5 43.3334C33.7261 43.3334 30.6666 40.2739 30.6666 36.5C30.6666 32.7261 33.7261 29.6666 37.5 29.6666C41.2739 29.6666 44.3334 32.7261 44.3334 36.5C44.3334 40.2739 41.2739 43.3334 37.5 43.3334ZM50.9028 25.557C50.9028 26.9158 49.8016 28.017 48.4428 28.017C47.0842 28.017 45.9828 26.9158 45.9828 25.557C45.9828 24.1984 47.0842 23.097 48.4428 23.097C49.8016 23.097 50.9028 24.1984 50.9028 25.557Z" fill="white"/>
</svg>
