<svg width="360" height="390" viewBox="0 0 360 390" fill="none" xmlns="http://www.w3.org/2000/svg">
<path fill-rule="evenodd" clip-rule="evenodd" d="M170.246 5.25775C208.883 9.41295 248.477 17.1758 277.53 42.956C305.138 67.454 309.663 106.489 323.067 140.862C337.531 177.952 365.827 212.502 358.936 251.708C351.708 292.834 321.841 328.053 286.304 350.034C252.166 371.15 210.171 364.165 170.246 368.422C124.095 373.343 69.1099 407.951 34.6768 376.862C-0.763416 344.864 31.9886 284.767 25.2649 237.521C20.1993 201.927 -2.8792 171.115 0.299216 135.303C4.09037 92.5875 10.6764 43.9997 44.7552 17.9223C78.9687 -8.2583 127.396 0.649406 170.246 5.25775Z" fill="#E8FFEE"/>
<path d="M111.371 71.531H55.2758L54.535 81.0883H111.371V71.531Z" stroke="#808080" stroke-linecap="round" stroke-linejoin="round"/>
<path d="M111.371 81.0883H55.2758L54.535 90.6521H111.371V81.0883Z" stroke="#808080" stroke-linecap="round" stroke-linejoin="round"/>
<path d="M111.371 90.6521H55.2758L54.535 100.216H111.371V90.6521Z" stroke="#808080" stroke-linecap="round" stroke-linejoin="round"/>
<path d="M111.371 100.216H55.2758L54.535 109.78H111.371V100.216Z" stroke="#808080" stroke-linecap="round" stroke-linejoin="round"/>
<path d="M111.371 109.78H55.2758L54.535 119.337H111.371V109.78Z" stroke="#808080" stroke-linecap="round" stroke-linejoin="round"/>
<path d="M111.371 119.337H55.2758L54.535 128.901H111.371V119.337Z" stroke="#808080" stroke-linecap="round" stroke-linejoin="round"/>
<path d="M111.371 128.901H55.2758L54.535 138.464H111.371V128.901Z" stroke="#808080" stroke-linecap="round" stroke-linejoin="round"/>
<path d="M111.371 138.465H55.2758L54.535 148.022H111.371V138.465Z" stroke="#808080" stroke-linecap="round" stroke-linejoin="round"/>
<path d="M111.371 148.022H55.2758L54.535 157.586H111.371V148.022Z" stroke="#808080" stroke-linecap="round" stroke-linejoin="round"/>
<path d="M111.371 157.586H55.2758L54.535 167.149H111.371V157.586Z" stroke="#808080" stroke-linecap="round" stroke-linejoin="round"/>
<path d="M111.371 167.149H55.2758L54.535 176.707H111.371V167.149Z" stroke="#808080" stroke-linecap="round" stroke-linejoin="round"/>
<path d="M111.371 176.707H55.2758L54.535 186.27H111.371V176.707Z" stroke="#808080" stroke-linecap="round" stroke-linejoin="round"/>
<path d="M111.371 186.27H55.2758L54.535 195.834H111.371V186.27Z" stroke="#808080" stroke-linecap="round" stroke-linejoin="round"/>
<path d="M111.371 195.834H55.2758L54.535 205.398H111.371V195.834Z" stroke="#808080" stroke-linecap="round" stroke-linejoin="round"/>
<path d="M111.371 205.398H55.2758L54.535 214.955H111.371V205.398Z" stroke="#808080" stroke-linecap="round" stroke-linejoin="round"/>
<path d="M169.04 71.531H112.945L112.204 81.0883H169.04V71.531Z" stroke="#808080" stroke-linecap="round" stroke-linejoin="round"/>
<path d="M169.04 81.0883H112.945L112.204 90.6521H169.04V81.0883Z" stroke="#808080" stroke-linecap="round" stroke-linejoin="round"/>
<path d="M169.04 90.6521H112.945L112.204 100.216H169.04V90.6521Z" stroke="#808080" stroke-linecap="round" stroke-linejoin="round"/>
<path d="M169.04 100.216H112.945L112.204 109.78H169.04V100.216Z" stroke="#808080" stroke-linecap="round" stroke-linejoin="round"/>
<path d="M169.04 109.78H112.945L112.204 119.337H169.04V109.78Z" stroke="#808080" stroke-linecap="round" stroke-linejoin="round"/>
<path d="M169.04 119.337H112.945L112.204 128.901H169.04V119.337Z" stroke="#808080" stroke-linecap="round" stroke-linejoin="round"/>
<path d="M169.04 128.901H112.945L112.204 138.464H169.04V128.901Z" stroke="#808080" stroke-linecap="round" stroke-linejoin="round"/>
<path d="M169.04 138.465H112.945L112.204 148.022H169.04V138.465Z" stroke="#808080" stroke-linecap="round" stroke-linejoin="round"/>
<path d="M169.04 148.022H112.945L112.204 157.586H169.04V148.022Z" stroke="#808080" stroke-linecap="round" stroke-linejoin="round"/>
<path d="M169.04 157.586H112.945L112.204 167.149H169.04V157.586Z" stroke="#808080" stroke-linecap="round" stroke-linejoin="round"/>
<path d="M169.04 167.149H112.945L112.204 176.707H169.04V167.149Z" stroke="#808080" stroke-linecap="round" stroke-linejoin="round"/>
<path d="M169.04 176.707H112.945L112.204 186.27H169.04V176.707Z" stroke="#808080" stroke-linecap="round" stroke-linejoin="round"/>
<path d="M169.04 186.27H112.945L112.204 195.834H169.04V186.27Z" stroke="#808080" stroke-linecap="round" stroke-linejoin="round"/>
<path d="M169.04 195.834H112.945L112.204 205.398H169.04V195.834Z" stroke="#808080" stroke-linecap="round" stroke-linejoin="round"/>
<path d="M169.04 205.398H112.945L112.204 214.955H169.04V205.398Z" stroke="#808080" stroke-linecap="round" stroke-linejoin="round"/>
<path d="M171.851 64.1256H53.2247V71.3372H171.851V64.1256Z" stroke="#808080" stroke-linecap="round" stroke-linejoin="round"/>
<path d="M171.851 71.3372V198.374" stroke="#808080" stroke-linecap="round" stroke-linejoin="round"/>
<path d="M170.559 71.544V158.704" stroke="#808080" stroke-linecap="round" stroke-linejoin="round"/>
<path d="M172.689 198.096H171.098V201.333H172.689V198.096Z" fill="#263238" stroke="#808080" stroke-linecap="round" stroke-linejoin="round"/>
<path d="M171.251 158.006H169.659V161.243H171.251V158.006Z" fill="#263238" stroke="#808080" stroke-linecap="round" stroke-linejoin="round"/>
<path d="M86.7522 205.986C86.7522 205.986 79.2214 201.572 78.6642 211.576C78.1071 221.579 76.7111 286.593 76.7111 286.593" stroke="#263238" stroke-width="2" stroke-linecap="round" stroke-linejoin="round"/>
<path d="M74.758 212.454C74.758 212.454 80.8806 226.871 78.1071 285.714" stroke="#263238" stroke-width="2" stroke-linecap="round" stroke-linejoin="round"/>
<path d="M80.7888 208.002C80.7888 208.002 77.905 209.941 76.2703 207.718C74.6355 205.495 77.3785 201.411 74.9539 199.666C72.5294 197.921 68.3843 200.59 68.3843 200.59C68.3843 200.59 71.5987 201.585 71.4946 203.44C71.3906 205.295 69.8415 206.025 69.6578 205.185C69.4742 204.345 67.9129 200.293 65.2985 201.992C64.5457 202.462 63.8907 203.088 63.3731 203.832C62.8554 204.576 62.4857 205.423 62.2862 206.322C62.2862 206.322 68.3721 205.637 68.7395 208.054C69.1068 210.471 66.2475 207.627 63.7373 207.472C61.227 207.317 58.9371 207.705 59.1024 209.314C59.158 210.73 59.078 212.148 58.8636 213.547C60.2381 212.342 61.9754 211.696 63.7618 211.724C66.5231 211.899 66.419 213.753 63.9087 213.598C61.3984 213.443 59.2004 215.957 59.2004 215.957C59.2004 215.957 61.4903 220.086 64.3985 222.128C67.3068 224.17 68.3537 223.42 68.6843 221.863C69.015 220.306 68.2435 216.254 70.0007 216.364C71.7579 216.474 67.0925 223.356 69.3333 223.763C71.5742 224.17 73.3804 223.485 73.9682 221.928L74.5804 220.37C74.5804 220.37 73.7967 216.332 74.1396 214.761C74.4825 213.191 74.8927 214.807 75.2907 216.7C75.6886 218.593 75.9397 223.117 76.705 222.897C77.4703 222.677 79.9255 219.382 80.501 218.089C81.0766 216.797 77.2683 212.836 77.3111 212.041C77.354 211.246 80.2929 212.758 80.7521 213.585C81.2113 214.412 81.6521 215.524 81.6521 215.524C81.6521 215.524 83.4889 214.309 83.4399 210.587C83.3909 206.865 80.7888 208.002 80.7888 208.002Z" fill="#43A367"/>
<path opacity="0.3" d="M80.7888 208.002C80.7888 208.002 77.905 209.941 76.2703 207.718C74.6355 205.495 77.3785 201.411 74.9539 199.666C72.5294 197.921 68.3843 200.59 68.3843 200.59C68.3843 200.59 71.5987 201.585 71.4946 203.44C71.3906 205.295 69.8415 206.025 69.6578 205.185C69.4742 204.345 67.9129 200.293 65.2985 201.992C64.5457 202.462 63.8907 203.088 63.3731 203.832C62.8554 204.576 62.4857 205.423 62.2862 206.322C62.2862 206.322 68.3721 205.637 68.7395 208.054C69.1068 210.471 66.2475 207.627 63.7373 207.472C61.227 207.317 58.9371 207.705 59.1024 209.314C59.158 210.73 59.078 212.148 58.8636 213.547C60.2381 212.342 61.9754 211.696 63.7618 211.724C66.5231 211.899 66.419 213.753 63.9087 213.598C61.3984 213.443 59.2004 215.957 59.2004 215.957C59.2004 215.957 61.4903 220.086 64.3985 222.128C67.3068 224.17 68.3537 223.42 68.6843 221.863C69.015 220.306 68.2435 216.254 70.0007 216.364C71.7579 216.474 67.0925 223.356 69.3333 223.763C71.5742 224.17 73.3804 223.485 73.9682 221.928L74.5804 220.37C74.5804 220.37 73.7967 216.332 74.1396 214.761C74.4825 213.191 74.8927 214.807 75.2907 216.7C75.6886 218.593 75.9397 223.117 76.705 222.897C77.4703 222.677 79.9255 219.382 80.501 218.089C81.0766 216.797 77.2683 212.836 77.3111 212.041C77.354 211.246 80.2929 212.758 80.7521 213.585C81.2113 214.412 81.6521 215.524 81.6521 215.524C81.6521 215.524 83.4889 214.309 83.4399 210.587C83.3909 206.865 80.7888 208.002 80.7888 208.002Z" fill="#263238"/>
<path d="M66.1924 216.745C68.066 214.296 70.8334 210.981 73.1539 209.398" stroke="#263238" stroke-linecap="round" stroke-linejoin="round"/>
<path d="M64.0128 219.711C64.0128 219.711 64.4965 219.007 65.2802 217.947" stroke="#263238" stroke-linecap="round" stroke-linejoin="round"/>
<path d="M74.3784 209.992C74.3784 209.992 77.1703 214.154 77.6846 218.438" stroke="#263238" stroke-linecap="round" stroke-linejoin="round"/>
<path d="M71.2191 212.454C71.2191 212.454 72.0028 211.97 71.7089 217.269" stroke="#263238" stroke-linecap="round" stroke-linejoin="round"/>
<path d="M73.2824 207.53C73.2824 207.53 74.8743 206.038 74.0355 203.059" stroke="#263238" stroke-linecap="round" stroke-linejoin="round"/>
<path d="M71.1028 210.057L69.964 207.86" stroke="#263238" stroke-linecap="round" stroke-linejoin="round"/>
<path d="M68.7089 212.299C68.7089 212.299 65.0965 209.417 62.8372 209.275" stroke="#263238" stroke-linecap="round" stroke-linejoin="round"/>
<path d="M91.0381 200.151C91.0381 200.151 90.9279 204.519 87.6951 204.732C84.4623 204.946 82.4664 199.259 79.1602 200.629C75.8539 201.999 75.5356 208.228 75.5356 208.228C75.5356 208.228 78.6703 205.508 80.3602 206.878C82.05 208.248 81.6582 210.367 80.7459 210.031C79.8336 209.695 74.9172 208.538 74.7519 212.454C74.6833 213.571 74.8297 214.69 75.1822 215.745C75.5347 216.801 76.086 217.769 76.8029 218.593C76.8029 218.593 80.299 211.698 82.8399 212.959C85.3807 214.219 80.7398 215.304 78.8846 217.85C77.0295 220.396 75.8233 223.078 77.4703 224.002C78.8521 224.908 80.1443 225.958 81.3276 227.136C81.1179 224.869 81.6848 222.597 82.9256 220.732C84.9705 217.934 86.6604 219.311 84.7991 221.85C82.9378 224.39 83.8746 228.377 83.8746 228.377C83.8746 228.377 89.3482 228.771 93.2667 227.084C97.1852 225.398 97.2097 223.802 95.9484 222.367C94.6871 220.933 90.3217 219.013 91.6258 217.23C92.9299 215.446 96.279 225.068 98.1893 222.975C100.1 220.881 100.681 218.509 99.6097 216.829L98.5322 215.143C98.5322 215.143 94.1728 213.204 92.9116 211.782C91.6503 210.361 93.4687 211.02 95.5259 211.886C97.5832 212.752 102.059 215.576 102.377 214.613C102.696 213.65 101.232 208.797 100.393 207.324C99.5546 205.85 93.2116 207.162 92.4891 206.574C91.7667 205.986 95.2014 203.912 96.2974 203.989C97.1192 204.061 97.9367 204.18 98.7464 204.345C98.7464 204.345 98.8444 201.579 95.281 199.091C91.7177 196.603 91.0381 200.151 91.0381 200.151Z" fill="#43A367"/>
<path opacity="0.2" d="M91.0381 200.151C91.0381 200.151 90.9279 204.519 87.6951 204.732C84.4623 204.946 82.4664 199.259 79.1602 200.629C75.8539 201.999 75.5356 208.228 75.5356 208.228C75.5356 208.228 78.6703 205.508 80.3602 206.878C82.05 208.248 81.6582 210.367 80.7459 210.031C79.8336 209.695 74.9172 208.538 74.7519 212.454C74.6833 213.571 74.8297 214.69 75.1822 215.745C75.5347 216.801 76.086 217.769 76.8029 218.593C76.8029 218.593 80.299 211.698 82.8399 212.959C85.3807 214.219 80.7398 215.304 78.8846 217.85C77.0295 220.396 75.8233 223.078 77.4703 224.002C78.8521 224.908 80.1443 225.958 81.3276 227.136C81.1179 224.869 81.6848 222.597 82.9256 220.732C84.9705 217.934 86.6604 219.311 84.7991 221.85C82.9378 224.39 83.8746 228.377 83.8746 228.377C83.8746 228.377 89.3482 228.771 93.2667 227.084C97.1852 225.398 97.2097 223.802 95.9484 222.367C94.6871 220.933 90.3217 219.013 91.6258 217.23C92.9299 215.446 96.279 225.068 98.1893 222.975C100.1 220.881 100.681 218.509 99.6097 216.829L98.5322 215.143C98.5322 215.143 94.1728 213.204 92.9116 211.782C91.6503 210.361 93.4687 211.02 95.5259 211.886C97.5832 212.752 102.059 215.576 102.377 214.613C102.696 213.65 101.232 208.797 100.393 207.324C99.5546 205.85 93.2116 207.162 92.4891 206.574C91.7667 205.986 95.2014 203.912 96.2974 203.989C97.1192 204.061 97.9367 204.18 98.7464 204.345C98.7464 204.345 98.8444 201.579 95.281 199.091C91.7177 196.603 91.0381 200.151 91.0381 200.151Z" fill="#263238"/>
<path d="M89.3788 221.521C88.338 217.87 87.0767 212.687 87.1563 209.159" stroke="#263238" stroke-linecap="round" stroke-linejoin="round"/>
<path d="M90.7258 225.857C90.7258 225.857 90.3829 224.862 89.9115 223.317" stroke="#263238" stroke-linecap="round" stroke-linejoin="round"/>
<path d="M88.589 208.28C88.589 208.28 94.4361 208.17 98.8506 210.542" stroke="#263238" stroke-linecap="round" stroke-linejoin="round"/>
<path d="M88.7543 213.295C88.7543 213.295 88.8278 212.138 93.6524 216.06" stroke="#263238" stroke-linecap="round" stroke-linejoin="round"/>
<path d="M85.4726 207.789C85.4726 207.789 85.142 205.081 81.7439 203.944" stroke="#263238" stroke-linecap="round" stroke-linejoin="round"/>
<path d="M86.3971 211.782L83.5379 211.485" stroke="#263238" stroke-linecap="round" stroke-linejoin="round"/>
<path d="M86.8931 215.841C86.8931 215.841 81.6949 217.695 80.0173 219.976" stroke="#263238" stroke-linecap="round" stroke-linejoin="round"/>
<path d="M56.3656 229.23C56.3656 229.23 72.811 240.7 72.5293 285.126" stroke="#263238" stroke-width="2" stroke-linecap="round" stroke-linejoin="round"/>
<path d="M76.6438 226.199C76.6438 226.199 76.1172 231.227 72.3579 231.149C68.5986 231.071 66.8231 224.312 62.874 225.566C58.9249 226.819 58.0126 233.966 58.0126 233.966C58.0126 233.966 61.876 231.136 63.7005 232.894C65.5251 234.651 64.8883 237.049 63.8658 236.571C62.8434 236.092 57.2779 234.264 56.7269 238.768C56.5508 240.05 56.6228 241.356 56.9385 242.608C57.2542 243.859 57.807 245.031 58.5636 246.05C58.5636 246.05 63.2168 238.445 66.0333 240.151C68.8497 241.857 63.4005 242.651 61.0311 245.404C58.6616 248.157 57.0452 251.13 58.8453 252.357C60.3614 253.541 61.7604 254.883 63.0209 256.364C63.0209 256.364 62.8311 252.163 65.47 249.133C68.1088 246.102 69.9028 247.84 67.5333 250.613C65.1638 253.385 65.8373 258.102 65.8373 258.102C65.8373 258.102 72.1253 259.104 76.7968 257.553C81.4684 256.002 81.6337 254.154 80.3051 252.383C78.9765 250.613 74.1213 247.95 75.7805 246.025C77.4397 244.099 80.4459 255.517 82.8399 253.281C85.2338 251.046 86.1155 248.377 85.0257 246.322L83.9358 244.267C83.9358 244.267 79.0745 241.611 77.752 239.834C76.4295 238.057 78.4622 239.013 80.7643 240.215C83.0664 241.417 87.9706 245.12 88.4176 244.047C88.8646 242.975 87.6155 237.236 86.789 235.433C85.9624 233.63 78.5112 234.529 77.7275 233.779C76.9438 233.029 81.0949 230.981 82.3562 231.194C83.2907 231.359 84.2165 231.574 85.1297 231.84C85.1297 231.84 85.4849 228.661 81.597 225.43C77.7091 222.199 76.6438 226.199 76.6438 226.199Z" fill="#43A367"/>
<path opacity="0.3" d="M76.6438 226.199C76.6438 226.199 76.1172 231.227 72.3579 231.149C68.5986 231.071 66.8231 224.312 62.874 225.566C58.9249 226.819 58.0126 233.966 58.0126 233.966C58.0126 233.966 61.876 231.136 63.7005 232.894C65.5251 234.651 64.8883 237.049 63.8658 236.571C62.8434 236.092 57.2779 234.264 56.7269 238.768C56.5508 240.05 56.6228 241.356 56.9385 242.608C57.2542 243.859 57.807 245.031 58.5636 246.05C58.5636 246.05 63.2168 238.445 66.0333 240.151C68.8497 241.857 63.4005 242.651 61.0311 245.404C58.6616 248.157 57.0452 251.13 58.8453 252.357C60.3614 253.541 61.7604 254.883 63.0209 256.364C63.0209 256.364 62.8311 252.163 65.47 249.133C68.1088 246.102 69.9028 247.84 67.5333 250.613C65.1638 253.385 65.8373 258.102 65.8373 258.102C65.8373 258.102 72.1253 259.104 76.7968 257.553C81.4684 256.002 81.6337 254.154 80.3051 252.383C78.9765 250.613 74.1213 247.95 75.7805 246.025C77.4397 244.099 80.4459 255.517 82.8399 253.281C85.2338 251.046 86.1155 248.377 85.0257 246.322L83.9358 244.267C83.9358 244.267 79.0745 241.611 77.752 239.834C76.4295 238.057 78.4622 239.013 80.7643 240.215C83.0664 241.417 87.9706 245.12 88.4176 244.047C88.8646 242.975 87.6155 237.236 86.789 235.433C85.9624 233.63 78.5112 234.529 77.7275 233.779C76.9438 233.029 81.0949 230.981 82.3562 231.194C83.2907 231.359 84.2165 231.574 85.1297 231.84C85.1297 231.84 85.4849 228.661 81.597 225.43C77.7091 222.199 76.6438 226.199 76.6438 226.199Z" fill="#263238"/>
<path d="M72.811 250.697C71.9293 246.374 70.9742 240.267 71.3477 236.202" stroke="#263238" stroke-linecap="round" stroke-linejoin="round"/>
<path d="M73.9743 255.827C73.9743 255.827 73.6682 254.651 73.258 252.816" stroke="#263238" stroke-linecap="round" stroke-linejoin="round"/>
<path d="M73.0559 235.33C73.0559 235.33 79.7908 235.782 84.6889 238.962" stroke="#263238" stroke-linecap="round" stroke-linejoin="round"/>
<path d="M72.8171 241.133C72.8171 241.133 73.0069 239.808 78.2234 244.816" stroke="#263238" stroke-linecap="round" stroke-linejoin="round"/>
<path d="M69.5232 234.451C69.5232 234.451 69.3823 231.298 65.5679 229.643" stroke="#263238" stroke-linecap="round" stroke-linejoin="round"/>
<path d="M70.2334 239.155L66.9639 238.529" stroke="#263238" stroke-linecap="round" stroke-linejoin="round"/>
<path d="M70.4476 243.886C70.4476 243.886 64.2822 245.514 62.1454 247.989" stroke="#263238" stroke-linecap="round" stroke-linejoin="round"/>
<path d="M62.776 264.235C62.776 264.235 73.3682 272.771 74.507 285.417L72.2783 243.052" stroke="#263238" stroke-width="2" stroke-linecap="round" stroke-linejoin="round"/>
<path d="M88.4176 258.057C74.507 255.407 74.507 285.417 74.507 285.417" stroke="#263238" stroke-width="2" stroke-linecap="round" stroke-linejoin="round"/>
<path d="M76.154 285.126C76.154 285.126 68.0721 223.052 91.4605 223.052" stroke="#263238" stroke-width="2" stroke-linecap="round" stroke-linejoin="round"/>
<path d="M83.1093 256.273C81.2051 254.012 77.1581 254.012 74.7825 259.789C72.4069 265.566 74.5437 264.564 74.5437 264.564C74.5437 264.564 79.0622 263.058 81.8909 262.05C84.7195 261.042 88.589 258.535 88.8217 260.041C89.0544 261.546 86.9176 263.058 84.2971 263.556C81.6766 264.054 74.7825 266.07 75.4927 267.575C76.2029 269.081 77.8744 273.611 77.8744 273.611C79.9104 271.788 82.058 270.108 84.3032 268.583C87.4012 266.574 89.3054 267.291 87.6339 269.585C85.9624 271.879 81.2113 274.361 82.1603 277.372C83.1093 280.383 88.8278 284.15 88.8278 284.15C88.8278 284.15 89.538 277.876 91.2034 275.866C92.8688 273.856 92.8749 276.118 92.3973 279.634C92.1584 281.131 91.999 282.641 91.9197 284.157L98.5812 286.671C99.6706 284.92 100.863 283.243 102.151 281.65L103.375 280.39C103.375 280.39 98.1403 275.621 97.9016 272.603C97.6628 269.585 101.471 272.603 102.659 273.107C103.847 273.611 105.751 277.126 105.751 277.126C105.751 277.126 106.945 271.349 107.183 269.34L107.416 267.33C107.416 267.33 102.42 265.32 100.516 265.32C98.6118 265.32 97.6628 266.826 97.6628 264.823C97.6628 262.819 99.5669 261.553 101.71 261.805C103.646 262.148 105.554 262.651 107.416 263.31C107.416 263.31 108.849 262.057 108.371 258.289C107.894 254.522 106.706 254.522 103.847 255.524C100.987 256.525 99.0893 258.794 96.9464 258.794C94.8035 258.794 95.9974 256.028 97.424 255.278C98.8506 254.529 102.42 253.016 103.136 252.764C103.853 252.512 99.3281 248.997 96.9464 248.493C94.5647 247.989 91.485 249.785 91.7116 252.26C92.1524 257.527 85.0134 258.535 83.1093 256.273Z" fill="#43A367"/>
<path d="M98.4281 282.134C98.5015 282.893 98.5505 283.649 98.575 284.402" stroke="#263238" stroke-linecap="round" stroke-linejoin="round"/>
<path d="M93.6463 264.105C95.7377 269.079 97.2428 274.305 98.1281 279.666" stroke="#263238" stroke-linecap="round" stroke-linejoin="round"/>
<path d="M92.7891 262.089C91.6136 259.414 90.7258 257.779 90.7258 257.779C92.0245 257.133 93.1038 256.082 93.8177 254.768C94.3732 253.576 95.1896 252.542 96.1994 251.75" stroke="#263238" stroke-linecap="round" stroke-linejoin="round"/>
<path d="M82.3929 266.322C82.3929 266.322 90.9646 262.554 90.9646 263.304" stroke="#263238" stroke-linecap="round" stroke-linejoin="round"/>
<path d="M95.7219 261.546C95.7219 261.546 99.5301 259.537 102.861 259.537" stroke="#263238" stroke-linecap="round" stroke-linejoin="round"/>
<path d="M94.2953 267.575C92.6436 269.008 91.1282 270.608 89.7707 272.351C88.3814 274.081 87.2575 276.03 86.44 278.128" stroke="#263238" stroke-linecap="round" stroke-linejoin="round"/>
<path d="M96.9097 268.583C96.9097 268.583 101.906 267.071 104.526 269.585" stroke="#263238" stroke-linecap="round" stroke-linejoin="round"/>
<path d="M105.965 234.645C103.375 233.03 100.51 232.991 99.1016 231.285C97.6934 229.579 100.455 228.7 101.93 229.346C103.406 229.992 106.828 231.847 107.471 232.248C108.114 232.648 107.673 226.748 106.473 224.493C105.273 222.238 101.985 220.971 100.351 222.794C96.8852 226.632 91.4912 221.598 91.8585 218.6C92.2259 215.601 89.5748 212.377 83.8991 214.264C78.2234 216.151 80.3296 217.204 80.3296 217.204C80.3296 217.204 84.3705 219.821 86.9604 221.437C89.5503 223.052 93.8484 224.442 92.9239 225.618C91.9993 226.794 89.5197 226.076 87.4135 224.325C85.3073 222.574 79.4051 218.419 78.7928 219.976C78.1806 221.534 76.0376 225.824 76.0376 225.824C78.6752 226.251 81.2831 226.862 83.844 227.653C87.3094 228.803 88.0196 230.813 85.3073 230.968C82.595 231.123 77.6846 228.978 76.1233 231.711C74.5621 234.445 75.6397 241.469 75.6397 241.469C75.6397 241.469 80.599 237.921 83.1276 237.928C85.6563 237.934 84.0399 239.42 81.2113 241.346C79.9844 242.137 78.8009 243 77.6663 243.931L80.2378 250.89C82.2045 250.609 84.186 250.458 86.1706 250.438L87.8482 250.567C87.8482 250.567 87.8482 243.265 89.8319 241.101C91.8157 238.936 92.1708 243.944 92.5932 245.223C93.0157 246.503 91.7422 250.322 91.7422 250.322C91.7422 250.322 96.6403 247.485 98.2505 246.354L99.8424 245.23C99.8424 245.23 98.0056 239.924 96.7811 238.412C95.5566 236.9 93.8361 237.12 95.2688 235.828C96.7015 234.535 98.8567 235.181 100.081 237.081C101.102 238.841 101.989 240.684 102.732 242.593C102.732 242.593 104.569 242.91 106.951 240.06C109.333 237.21 108.555 236.261 105.965 234.645ZM83.4399 242.684C81.5419 241.676 86.0604 239.672 86.0604 239.672C87.7257 239.42 85.344 243.685 83.4399 242.684ZM86.6482 233.307C85.84 232.881 88.2707 232.015 88.2707 232.015C91.7912 232.739 87.4625 233.734 86.6482 233.307Z" fill="#43A367"/>
<path d="M83.3909 247.802C82.895 248.351 82.3868 248.887 81.8664 249.404" stroke="#263238" stroke-linecap="round" stroke-linejoin="round"/>
<path d="M93.1565 232.17C90.9696 237.098 88.2161 241.723 84.9583 245.941" stroke="#263238" stroke-linecap="round" stroke-linejoin="round"/>
<path d="M94.0382 230.167C95.1831 227.472 95.7648 225.695 95.7648 225.695C97.0809 226.305 98.5418 226.476 99.9526 226.186C101.168 225.847 102.442 225.819 103.669 226.102" stroke="#263238" stroke-linecap="round" stroke-linejoin="round"/>
<path d="M91.9687 229.508C92.5075 229.01 84.193 224.655 84.193 224.655" stroke="#263238" stroke-linecap="round" stroke-linejoin="round"/>
<path d="M96.3464 232.144C96.3464 232.144 100.277 233.863 102.469 236.519" stroke="#263238" stroke-linecap="round" stroke-linejoin="round"/>
<path d="M91.0993 234.962C88.9924 234.584 86.8558 234.424 84.7195 234.483C82.5705 234.512 80.4387 234.893 78.401 235.614" stroke="#263238" stroke-linecap="round" stroke-linejoin="round"/>
<path d="M92.0973 237.708C92.0973 237.708 96.4505 240.7 96.3831 244.435" stroke="#263238" stroke-linecap="round" stroke-linejoin="round"/>
<path d="M68.9966 269.443C66.9149 268.151 64.6067 268.118 63.4862 266.742C62.3658 265.365 64.5699 264.674 65.7577 265.191C66.9455 265.708 69.6946 267.207 70.2211 267.53C70.7477 267.853 70.3803 263.097 69.413 261.307C68.4456 259.517 65.8006 258.477 64.4842 259.937C61.6984 263.026 57.3514 258.981 57.6453 256.564C57.9391 254.147 55.8085 251.556 51.2287 253.075C46.649 254.593 48.3572 255.44 48.3572 255.44C48.3572 255.44 51.6083 257.546 53.6962 258.852C55.784 260.157 59.2065 261.268 58.4902 262.212C57.7738 263.155 55.7534 262.587 54.0819 261.172C52.4104 259.756 47.6164 256.39 47.1204 257.643C46.6245 258.897 44.9102 262.348 44.9102 262.348C47.0324 262.693 49.1308 263.185 51.192 263.821C53.9778 264.745 54.5472 266.361 52.3675 266.49C50.1879 266.619 46.2449 264.881 45.0204 267.084C43.7959 269.288 44.6347 274.936 44.6347 274.936C44.6347 274.936 48.6266 272.079 50.6593 272.086C52.692 272.092 51.394 273.288 49.1225 274.839C48.1343 275.477 47.1798 276.171 46.2633 276.919L48.3327 282.516C49.916 282.291 51.511 282.173 53.1084 282.16L54.4615 282.257C54.4615 282.257 54.4615 276.383 56.0534 274.638C57.6453 272.894 57.9391 276.932 58.2759 277.96C58.6126 278.987 57.5963 282.063 57.5963 282.063C57.5963 282.063 61.5515 279.776 62.8311 278.871L64.1169 277.96C64.1169 277.96 62.6352 273.695 61.6311 272.474C60.627 271.252 59.2555 271.44 60.4066 270.38C61.5576 269.32 63.2903 269.876 64.2761 271.382C65.1016 272.806 65.8201 274.297 66.4251 275.84C66.4251 275.84 67.9007 276.099 69.817 273.805C71.7334 271.511 71.0722 270.748 68.9966 269.443ZM50.8736 275.905C49.343 275.091 52.9798 273.475 52.9798 273.475C54.3023 273.288 52.392 276.726 50.8614 275.918L50.8736 275.905ZM53.4512 268.357C52.8022 268.008 54.7615 267.323 54.7615 267.323C57.5779 267.911 54.0941 268.713 53.439 268.37L53.4512 268.357Z" fill="#43A367"/>
<path d="M50.8185 280.034C50.4205 280.48 50.0164 280.907 49.594 281.327" stroke="#263238" stroke-linecap="round" stroke-linejoin="round"/>
<path d="M58.68 267.453C56.9216 271.419 54.7069 275.141 52.0859 278.535" stroke="#263238" stroke-linecap="round" stroke-linejoin="round"/>
<path d="M59.3902 265.856C60.3086 263.685 60.78 262.257 60.78 262.257C61.8386 262.746 63.0131 262.884 64.1475 262.651C65.1243 262.378 66.1488 262.356 67.1353 262.587" stroke="#263238" stroke-linecap="round" stroke-linejoin="round"/>
<path d="M51.4675 261.404C51.4675 261.404 58.1595 264.913 57.7248 265.314" stroke="#263238" stroke-linecap="round" stroke-linejoin="round"/>
<path d="M61.2454 267.433C61.2454 267.433 64.4108 268.816 66.1435 270.955" stroke="#263238" stroke-linecap="round" stroke-linejoin="round"/>
<path d="M57.0207 269.734C55.3262 269.431 53.6079 269.304 51.89 269.352C50.1612 269.373 48.4463 269.68 46.8082 270.264" stroke="#263238" stroke-linecap="round" stroke-linejoin="round"/>
<path d="M57.8228 271.911C57.8228 271.911 61.3311 274.322 61.2637 277.327" stroke="#263238" stroke-linecap="round" stroke-linejoin="round"/>
<path d="M60.4861 227.97C60.4861 227.97 57.8657 229.979 56.2003 227.97C54.5349 225.96 56.9167 221.941 54.5349 220.435C52.1532 218.929 48.345 221.727 48.345 221.727C48.345 221.727 51.443 222.477 51.443 224.235C51.443 225.992 50.0103 226.748 49.7777 225.992C49.545 225.236 47.8735 221.469 45.4918 223.233C44.8045 223.72 44.218 224.349 43.7676 225.082C43.3171 225.815 43.0123 226.637 42.8713 227.498C42.8713 227.498 48.5837 226.496 49.0613 228.79C49.5389 231.084 46.6796 228.538 44.304 228.538C41.9284 228.538 39.7794 229.042 40.0182 230.548C40.1478 231.884 40.1478 233.231 40.0182 234.567C41.2509 233.349 42.8557 232.637 44.5428 232.558C47.1572 232.558 47.1572 234.315 44.7755 234.315C42.3938 234.315 40.4896 236.829 40.4896 236.829C40.4896 236.829 42.8652 240.597 45.7245 242.354C48.5838 244.112 49.5328 243.356 49.7715 241.85C50.0103 240.345 49.0552 236.577 50.7206 236.577C52.3859 236.577 48.3388 243.356 50.4818 243.608C52.6247 243.86 54.29 243.104 54.7676 241.598L55.2452 240.093C55.2452 240.093 54.29 236.325 54.5288 234.82C54.7676 233.314 55.2452 234.82 55.7166 236.577C56.1881 238.335 56.6717 242.6 57.382 242.354C58.0922 242.109 60.2412 238.832 60.7188 237.579C61.1964 236.325 57.3636 232.745 57.3636 231.989C57.3636 231.233 60.2229 232.493 60.7004 233.243C61.178 233.992 61.6494 235 61.6494 235C61.6494 235 63.3148 233.747 63.076 230.231C62.8372 226.716 60.4861 227.97 60.4861 227.97Z" fill="#43A367"/>
<path d="M47.1511 237.081C48.798 234.658 51.2349 231.362 53.3472 229.727" stroke="#263238" stroke-linecap="round" stroke-linejoin="round"/>
<path d="M45.2531 240.008C45.2531 240.008 45.6694 239.311 46.3551 238.264" stroke="#263238" stroke-linecap="round" stroke-linejoin="round"/>
<path d="M54.535 230.231C54.535 230.231 57.3881 233.999 58.1045 238.018" stroke="#263238" stroke-linecap="round" stroke-linejoin="round"/>
<path d="M51.6818 232.745C51.6818 232.745 52.392 232.241 52.392 237.269" stroke="#263238" stroke-linecap="round" stroke-linejoin="round"/>
<path d="M53.3472 227.97C53.3472 227.97 54.7737 226.464 53.8186 223.698" stroke="#263238" stroke-linecap="round" stroke-linejoin="round"/>
<path d="M51.443 230.483L50.2491 228.474" stroke="#263238" stroke-linecap="round" stroke-linejoin="round"/>
<path d="M49.3001 232.745C49.3001 232.745 45.7306 230.231 43.5877 230.231" stroke="#263238" stroke-linecap="round" stroke-linejoin="round"/>
<path d="M84.5175 284.241H66.119V312.189H84.5175V284.241Z" fill="#263238" stroke="#263238" stroke-width="2" stroke-linecap="round" stroke-linejoin="round"/>
<path d="M304.987 64.0932H183.937V309.43H304.987V64.0932Z" stroke="#808080" stroke-linecap="round" stroke-linejoin="round"/>
<path d="M286.962 117.185H265.864V215.453H286.962V117.185Z" stroke="#808080" stroke-linecap="round" stroke-linejoin="round"/>
<path d="M298.595 188.312H292.191V215.453H298.595V188.312Z" stroke="#808080" stroke-linecap="round" stroke-linejoin="round"/>
<path d="M309.616 309.43H42.0019" stroke="#263238" stroke-linecap="round" stroke-linejoin="round"/>
<path d="M320 309.43H314.514" stroke="#263238" stroke-linecap="round" stroke-linejoin="round"/>
<path d="M214.409 335C236.557 335 254.512 331.528 254.512 327.246C254.512 322.963 236.557 319.491 214.409 319.491C192.261 319.491 174.306 322.963 174.306 327.246C174.306 331.528 192.261 335 214.409 335Z" fill="#263238" stroke="#263238" stroke-width="2" stroke-linecap="round" stroke-linejoin="round"/>
<path d="M207.484 114.917C206.454 114.61 205.527 114.001 204.812 113.16C204.097 112.319 203.622 111.281 203.443 110.167C202.605 106.116 209.75 104.952 212.78 102.826C215.811 100.7 222.234 100.442 226.863 101.289C231.491 102.135 237.614 104.306 239.132 107.796C240.651 111.285 243.522 118.355 243.075 122.749C242.832 125.841 241.939 128.836 240.461 131.518C239.506 133.224 240.124 134.749 240.351 135.628C240.577 136.506 240.1 136.59 238.82 138.419C237.54 140.248 237.32 140.888 233.15 140.416C228.981 139.944 227.481 137.792 226.416 136.183C225.35 134.574 223.03 128.054 221.15 125.036C219.27 122.019 218.848 118.51 215.805 116.19C212.762 113.87 211.042 113.67 207.484 114.917Z" fill="#EBEBEB" stroke="#B0B0B0" stroke-linecap="round" stroke-linejoin="round"/>
<path d="M188.872 316.351C188.872 316.351 188.112 320.15 186.594 321.953C185.076 323.756 181.855 326.754 183.184 329.352C184.512 331.95 191.902 334.754 196.262 333.152C200.621 331.549 200.241 327.336 202.513 325.352C204.784 323.368 205.574 321.953 204.601 318.347C203.627 314.742 198.533 311.149 195.123 310.347C191.712 309.546 188.872 316.351 188.872 316.351Z" fill="white" stroke="#263238" stroke-linecap="round" stroke-linejoin="round"/>
<path d="M203.652 323.75C202.703 324.751 200.811 325.753 199.862 327.155C198.913 328.557 198.154 331.556 196.072 331.556C193.99 331.556 191.333 329.753 190.004 328.551C188.676 327.349 186.974 328.551 185.835 329.352C185.261 329.748 184.664 330.104 184.047 330.418C186.496 332.635 192.496 334.535 196.262 333.152C200.621 331.556 200.241 327.336 202.513 325.352C203.658 324.344 204.417 323.491 204.772 322.431C204.356 322.955 203.946 323.439 203.652 323.75Z" fill="#43A367" stroke="#263238" stroke-linecap="round" stroke-linejoin="round"/>
<path d="M236.261 311.414C236.261 311.414 237.044 315.362 238.618 317.23C240.192 319.097 243.516 322.218 242.163 324.919C240.81 327.62 233.108 330.528 228.583 328.861C224.058 327.194 224.45 322.839 222.062 320.784C219.675 318.729 218.915 317.249 219.901 313.514C220.887 309.779 226.195 306.037 229.74 305.204C233.285 304.37 236.261 311.414 236.261 311.414Z" fill="white" stroke="#263238" stroke-linecap="round" stroke-linejoin="round"/>
<path d="M220.905 319.104C221.891 320.137 223.856 321.178 224.842 322.632C225.828 324.086 226.618 327.2 228.779 327.2C230.94 327.2 233.677 325.333 235.079 324.086C236.481 322.839 238.226 324.086 239.408 324.919C239.997 325.329 240.611 325.698 241.245 326.024C238.722 328.325 232.471 330.296 228.565 328.861C224.04 327.2 224.432 322.839 222.069 320.764C220.881 319.717 220.091 318.826 219.73 317.734C220.183 318.27 220.599 318.78 220.905 319.104Z" fill="#43A367" stroke="#263238" stroke-linecap="round" stroke-linejoin="round"/>
<path d="M188.431 205.689C188.431 205.689 187.451 220.642 187.451 227.084C187.451 233.527 186.465 244.532 186.465 245.986C186.465 247.44 184.696 274.858 184.892 283.789C185.088 292.719 190.598 308.092 190.598 308.092C190.598 308.092 186.857 308.299 187.053 310.586C187.249 312.874 189 317.856 189 317.856C189 317.856 191.364 317.023 196.28 317.023C201.196 317.023 206.144 320.784 206.144 320.784C206.144 320.784 205.948 318.289 207.129 313.927C208.311 309.565 206.144 308.506 206.346 304.771C206.548 301.036 206.958 280.674 207.919 275.478C208.88 270.283 213.625 245.359 213.625 245.359C213.625 245.359 219.332 271.537 220.709 274.024C221.53 275.534 221.811 277.304 221.499 279.013C221.499 279.013 220.709 280.467 219.136 285.656C217.562 290.845 217.954 295.42 218.346 299.368C218.585 301.228 218.718 303.101 218.744 304.977C218.744 305.805 217.758 306.225 217.562 308.092C217.366 309.96 219.528 314.742 219.528 314.742C219.528 314.742 225.038 312.868 228.975 312.868C231.779 312.967 234.558 313.456 237.24 314.322C237.812 312.949 238.082 311.458 238.03 309.96C237.834 307.885 237.418 304.557 237.418 302.07C237.418 299.582 241.551 278.16 241.551 273.197C241.551 268.234 243.914 245.152 243.914 243.905C243.914 242.658 245.096 222.929 245.096 216.694C245.047 212.32 244.786 207.953 244.312 203.608L189.398 199.453L188.431 205.689Z" fill="#666666" stroke="#263238" stroke-linecap="round" stroke-linejoin="round"/>
<path d="M205.556 238.509L213.625 245.359L206.542 242.244" stroke="#263238" stroke-linecap="round" stroke-linejoin="round"/>
<path d="M211.042 223.136C211.042 223.136 210.429 233.521 210.429 234.561" stroke="#263238" stroke-linecap="round" stroke-linejoin="round"/>
<path d="M213.625 222.929L213.429 230.199" stroke="#263238" stroke-linecap="round" stroke-linejoin="round"/>
<path d="M198.276 221.269L197.486 229.572" stroke="#263238" stroke-linecap="round" stroke-linejoin="round"/>
<path d="M199.849 221.269L200.241 229.572" stroke="#263238" stroke-linecap="round" stroke-linejoin="round"/>
<path d="M230.157 221.682L230.548 231.446" stroke="#263238" stroke-linecap="round" stroke-linejoin="round"/>
<path d="M231.926 221.889L234.093 229.366" stroke="#263238" stroke-linecap="round" stroke-linejoin="round"/>
<path d="M205.752 306.018C205.752 306.018 203.786 300.409 202.996 296.874C202.207 293.339 201.031 285.242 201.031 285.242" stroke="#263238" stroke-linecap="round" stroke-linejoin="round"/>
<path d="M221.499 275.898C221.499 275.898 224.254 285.243 227.401 287.53" stroke="#263238" stroke-linecap="round" stroke-linejoin="round"/>
<path d="M191.192 315.775C191.192 315.775 200.835 311.414 202.997 312.454C205.158 313.494 203.192 314.742 200.835 314.322" stroke="#263238" stroke-linecap="round" stroke-linejoin="round"/>
<path d="M235.275 311.621C235.275 311.621 232.324 311.834 227.009 310.587C221.695 309.339 218.548 309.94 220.121 310.587C221.131 310.977 222.194 311.195 223.269 311.233" stroke="#263238" stroke-linecap="round" stroke-linejoin="round"/>
<path d="M203.884 142.303C203.884 142.303 192.147 140.674 188.106 144.933C184.608 148.611 182.586 153.571 182.461 158.781C182.461 162.878 180.177 177.191 178.004 184.571C175.83 191.951 176.449 198.826 176.602 202.102C176.829 204.86 177.238 207.598 177.826 210.296V211.938C177.826 211.938 174.722 216.526 174.569 218.16C174.416 219.795 176.583 224.06 176.743 224.881C176.902 225.702 177.52 225.863 179.228 226.82C180.937 227.776 182.951 226.988 184.041 226.988C185.131 226.988 185.265 226.005 186.68 225.185C188.094 224.364 189.631 221.908 189.631 219.937C189.631 217.967 188.076 214.529 187.145 213.055C186.623 212.246 186.211 211.362 185.921 210.432L187.476 206.994C187.476 206.994 191.198 218.135 202.225 221.417C213.252 224.7 231.412 220.771 235.9 219.285C240.387 217.799 242.42 215.188 242.42 215.188L245.683 212.235C245.901 212.765 245.986 213.344 245.932 213.919C245.877 214.494 245.684 215.044 245.371 215.517C244.281 217.152 242.885 218.303 242.885 220.267C242.957 222.148 243.218 224.015 243.663 225.837C243.975 227.311 245.5 227.479 245.837 226.167C246.173 224.855 247.233 228.105 249.559 228.79C251.886 229.475 253.6 227.311 255.308 224.526C257.016 221.74 257.635 220.597 256.857 218.135C256.08 215.673 254.378 214.206 254.684 211.912C254.99 209.618 259.808 196.836 260.274 184.868C260.739 172.901 254.996 151.266 253.912 147.996C252.829 144.726 248.163 138.82 243.504 138.82C238.845 138.82 234.32 140.461 232.171 140.461C230.767 140.451 229.366 140.341 227.977 140.132L205.935 142.426L203.884 142.303Z" fill="#43A367" stroke="#263238" stroke-linecap="round" stroke-linejoin="round"/>
<path d="M187.476 207.052C187.476 207.052 190.268 198.69 192.288 189.844C194.308 180.997 194.302 174.438 194.302 168.519C194.302 162.6 196.323 154.426 196.323 154.426" stroke="#263238" stroke-linecap="round" stroke-linejoin="round"/>
<path d="M187.163 213.081C186.649 212.294 186.237 211.438 185.939 210.535C182.945 208.881 179.541 210.387 177.839 211.382V211.938C177.839 211.938 174.734 216.526 174.581 218.16C174.428 219.795 176.596 224.06 176.755 224.881C176.914 225.702 177.532 225.863 179.241 226.82C180.949 227.776 182.963 226.988 184.053 226.988C185.143 226.988 185.278 226.005 186.692 225.185C188.106 224.364 189.643 221.908 189.643 219.937C189.643 217.967 188.094 214.555 187.163 213.081Z" fill="white" stroke="#263238" stroke-linecap="round" stroke-linejoin="round"/>
<path d="M256.876 218.16C256.392 216.622 255.541 215.466 255.039 214.251C253.855 213.504 252.505 213.101 251.127 213.081C247.398 213.081 246.002 214.884 246.002 214.884L245.683 214.981C245.597 215.176 245.497 215.364 245.383 215.543C244.294 217.178 242.898 218.328 242.898 220.293C242.969 222.173 243.23 224.041 243.675 225.863C243.988 227.336 245.512 227.504 245.849 226.193C246.186 224.881 247.245 228.131 249.571 228.816C251.898 229.501 253.612 227.336 255.321 224.551C257.029 221.766 257.653 220.622 256.876 218.16Z" fill="white" stroke="#263238" stroke-linecap="round" stroke-linejoin="round"/>
<path d="M245.702 212.261C245.702 212.261 246.167 203.085 243.681 195.059C241.196 187.033 239.334 182.781 239.953 176.047C240.571 169.314 243.057 150.975 243.369 148.513" stroke="#263238" stroke-linecap="round" stroke-linejoin="round"/>
<path d="M188.559 203.576C188.559 203.576 193.219 213.269 203.621 217.346C214.023 221.424 226.275 219.802 232.036 217.508C237.798 215.214 243.669 210.135 244.459 208.655C244.883 207.869 245.246 207.048 245.543 206.199" stroke="#263238" stroke-linecap="round" stroke-linejoin="round"/>
<path d="M182.351 162.574C182.351 162.574 182.682 169.585 182.682 174.497" stroke="#263238" stroke-linecap="round" stroke-linejoin="round"/>
<path d="M241.924 159.834C241.924 159.834 238.936 170.174 237.608 173.508" stroke="#263238" stroke-linecap="round" stroke-linejoin="round"/>
<path d="M254.549 150.019C254.549 150.019 257.206 158.258 256.043 164.235C254.88 170.212 252.369 178.264 252.369 179.666" stroke="#263238" stroke-linecap="round" stroke-linejoin="round"/>
<path d="M210.607 157.198L218.058 172.112L226.293 155.233C226.293 155.233 223.648 150.645 219.148 149.825C214.648 149.004 209.205 153.101 210.607 157.198Z" fill="white" stroke="#263238" stroke-linecap="round" stroke-linejoin="round"/>
<path d="M217.44 156.384C216.18 156.455 214.955 156.848 213.87 157.527C212.003 158.678 208.433 161.463 208.433 161.463C208.433 161.463 207.656 153.922 207.821 150.154C207.986 146.387 216.05 139.337 221.175 137.372C226.299 135.408 229.869 137.372 230.799 140.487C231.73 143.602 231.577 151.304 230.022 155.072C228.94 157.596 227.641 160.01 226.14 162.283C226.14 162.283 221.328 158.348 220.397 157.527C219.466 156.707 217.44 156.384 217.44 156.384Z" fill="white" stroke="#263238" stroke-linecap="round" stroke-linejoin="round"/>
<path d="M209.499 110.167C209.499 110.167 205.256 116.629 205.133 119.285C205.011 121.941 204.57 126.316 203.67 127.789C202.77 129.263 200.964 132.364 201.417 135.253C201.87 138.141 203.627 144.332 204.252 145.502C204.876 146.671 210.209 148.545 210.209 148.545C210.209 148.545 215.768 154.064 216.552 155.253C217.336 156.442 220.838 155.582 225.026 149.754C229.214 143.925 228.742 138.2 228.742 138.2C228.742 138.2 231.485 139.143 232.624 136.752C233.763 134.361 234.975 128.351 233.561 127.563C232.146 126.775 228.289 129.502 227.946 129.915C227.603 130.329 226.918 128.216 225.124 125.631C223.33 123.046 220.997 122.167 219.871 118.574C218.744 114.982 217.421 111.99 215.334 110.335C213.246 108.681 211.152 108.623 209.499 110.167Z" fill="white" stroke="#263238" stroke-linecap="round" stroke-linejoin="round"/>
<path d="M232.955 125.948C232.955 125.948 231.767 126.064 230.175 128.351C227.499 132.196 226.703 130.936 226.642 128.351C226.605 127.02 224.113 126.749 222.595 124.881C219.655 121.073 216.955 117.064 214.513 112.881C212.493 109.153 209.499 110.167 209.499 110.167C209.499 110.167 204.154 106.749 215.009 105.153" fill="#EBEBEB"/>
<path d="M232.955 125.948C232.955 125.948 231.767 126.064 230.175 128.351C227.499 132.196 226.703 130.936 226.642 128.351C226.605 127.02 224.113 126.749 222.595 124.881C219.655 121.073 216.955 117.064 214.513 112.881C212.493 109.153 209.499 110.167 209.499 110.167C209.499 110.167 204.154 106.749 215.009 105.153" stroke="#B0B0B0" stroke-linecap="round" stroke-linejoin="round"/>
<path d="M209.946 121.883C209.946 121.883 210.723 124.468 210.368 125.114C210.013 125.76 206.884 132.914 206.884 132.914C206.884 132.914 207.252 135.162 209.248 134.6C211.244 134.038 211.746 135.04 212.627 135.143C213.509 135.246 214.017 134.671 213.558 133.359" stroke="#263238" stroke-linecap="round" stroke-linejoin="round"/>
<path d="M205.384 135.86C205.965 136.489 206.688 136.952 207.484 137.204C208.654 137.495 211.293 137.954 212.18 138.051C213.068 138.148 214.403 136.758 214.403 136.758" stroke="#263238" stroke-linecap="round" stroke-linejoin="round"/>
<path d="M206.56 138.988C206.56 138.988 209.07 140.694 211.691 139.886" stroke="#263238" stroke-linecap="round" stroke-linejoin="round"/>
<path d="M215.566 125.36L219.375 127.524" stroke="#263238" stroke-linecap="round" stroke-linejoin="round"/>
<path d="M209.089 124.461L206.364 124.784" stroke="#263238" stroke-linecap="round" stroke-linejoin="round"/>
<path d="M209.615 120.739C209.08 120.363 208.466 120.129 207.827 120.056C207.187 119.983 206.541 120.073 205.941 120.319" stroke="#B0B0B0" stroke-width="2" stroke-linecap="round" stroke-linejoin="round"/>
<path d="M214.274 121.902C214.274 121.902 216.828 120.3 219.491 123.44" stroke="#B0B0B0" stroke-width="2" stroke-linecap="round" stroke-linejoin="round"/>
<path d="M214.066 118.096C214.066 118.096 211.923 120.035 212.566 121.075" stroke="#263238" stroke-linecap="round" stroke-linejoin="round"/>
<path d="M215.327 127.692C215.327 127.692 215.003 129.392 217.728 130.49" stroke="#263238" stroke-linecap="round" stroke-linejoin="round"/>
<path d="M208.893 126.335C208.094 127.036 207.178 127.572 206.193 127.918" stroke="#263238" stroke-linecap="round" stroke-linejoin="round"/>
<path d="M207.754 125.463C207.729 125.69 207.621 125.898 207.453 126.042C207.284 126.185 207.069 126.254 206.854 126.232C206.648 126.195 206.463 126.077 206.337 125.902C206.211 125.726 206.153 125.507 206.175 125.288C206.197 125.068 206.297 124.866 206.455 124.723C206.613 124.579 206.817 124.504 207.025 124.513C207.24 124.539 207.437 124.653 207.573 124.831C207.71 125.008 207.774 125.235 207.754 125.463Z" fill="#263238"/>
<path d="M216.981 126.859C216.969 126.971 216.936 127.08 216.885 127.179C216.833 127.278 216.764 127.366 216.68 127.437C216.597 127.507 216.501 127.56 216.398 127.592C216.295 127.624 216.187 127.634 216.081 127.621C215.974 127.609 215.871 127.575 215.777 127.52C215.683 127.466 215.6 127.392 215.533 127.304C215.466 127.216 215.416 127.115 215.386 127.006C215.356 126.897 215.346 126.784 215.358 126.671C215.369 126.559 215.4 126.45 215.451 126.351C215.502 126.252 215.571 126.164 215.654 126.093C215.737 126.022 215.833 125.969 215.936 125.938C216.038 125.906 216.146 125.896 216.252 125.909C216.468 125.933 216.666 126.047 216.802 126.225C216.939 126.403 217.003 126.631 216.981 126.859Z" fill="#263238"/>
<path d="M228.736 138.2L226.587 137.359C226.126 138.404 225.555 139.39 224.885 140.3C224.276 141.123 223.718 141.986 223.213 142.884" stroke="#263238" stroke-linecap="round" stroke-linejoin="round"/>
<path d="M211.121 148.125C211.596 148.413 212.135 148.565 212.683 148.565C213.23 148.565 213.769 148.413 214.244 148.125C215.54 147.398 216.77 146.545 217.917 145.579" stroke="#263238" stroke-linecap="round" stroke-linejoin="round"/>
<path d="M247.545 235.304H182.18V239.847H247.545V235.304Z" fill="#8C8C8C" stroke="#263238" stroke-linecap="round" stroke-linejoin="round"/>
<path d="M182.045 331.271C181.78 331.271 181.517 331.216 181.273 331.109C181.028 331.002 180.805 330.845 180.618 330.646C180.431 330.448 180.283 330.213 180.182 329.955C180.081 329.696 180.03 329.419 180.031 329.139V220.403C180.03 220.123 180.081 219.846 180.182 219.587C180.283 219.328 180.431 219.093 180.618 218.895C180.805 218.697 181.028 218.54 181.273 218.433C181.517 218.325 181.78 218.27 182.045 218.27C182.31 218.27 182.573 218.325 182.818 218.433C183.063 218.54 183.286 218.697 183.474 218.895C183.661 219.093 183.81 219.328 183.912 219.587C184.013 219.845 184.065 220.123 184.065 220.403V329.139C184.065 329.419 184.013 329.696 183.912 329.955C183.81 330.214 183.661 330.449 183.474 330.647C183.286 330.845 183.063 331.002 182.818 331.109C182.573 331.216 182.31 331.271 182.045 331.271Z" fill="#8C8C8C" stroke="#263238" stroke-linecap="round" stroke-linejoin="round"/>
<path d="M248.757 331.271C248.492 331.271 248.23 331.216 247.985 331.109C247.74 331.002 247.518 330.845 247.331 330.646C247.143 330.448 246.995 330.213 246.894 329.955C246.793 329.696 246.742 329.419 246.743 329.139V220.403C246.742 220.123 246.793 219.846 246.894 219.587C246.995 219.328 247.143 219.093 247.331 218.895C247.518 218.697 247.74 218.54 247.985 218.433C248.23 218.325 248.492 218.27 248.757 218.27C249.022 218.27 249.285 218.325 249.53 218.433C249.775 218.54 249.998 218.697 250.186 218.895C250.373 219.093 250.522 219.328 250.624 219.587C250.725 219.845 250.778 220.123 250.778 220.403V329.139C250.778 329.419 250.725 329.696 250.624 329.955C250.522 330.214 250.373 330.449 250.186 330.647C249.998 330.845 249.775 331.002 249.53 331.109C249.285 331.216 249.022 331.271 248.757 331.271Z" fill="#8C8C8C" stroke="#263238" stroke-linecap="round" stroke-linejoin="round"/>
<path d="M134.815 335C152.906 335 167.571 331.528 167.571 327.246C167.571 322.963 152.906 319.491 134.815 319.491C116.724 319.491 102.059 322.963 102.059 327.246C102.059 331.528 116.724 335 134.815 335Z" fill="#263238" stroke="#263238" stroke-width="2" stroke-linecap="round" stroke-linejoin="round"/>
<path d="M143.234 313.721C143.234 313.721 149.65 318.599 151.395 319.737C153.14 320.874 155.975 320.771 154.634 323.226C153.293 325.682 146.454 325.307 142.468 325.456C138.482 325.604 134.172 323.956 129.898 323.808C125.625 323.659 129.354 315.717 129.354 315.717C129.354 315.717 138.886 311.175 143.234 313.721Z" fill="white" stroke="#263238" stroke-linecap="round" stroke-linejoin="round"/>
<path d="M154.634 323.226C154.835 322.899 154.954 322.523 154.977 322.134C149.209 324.441 139.768 321.882 137.423 321.966L127.97 322.302C128.067 322.757 128.316 323.159 128.671 323.435C129.027 323.712 129.464 323.844 129.905 323.808C134.19 323.956 138.476 325.598 142.474 325.456C146.472 325.313 153.287 325.675 154.634 323.226Z" fill="white" stroke="#263238" stroke-linecap="round" stroke-linejoin="round"/>
<path d="M153.489 187.556C153.489 187.556 154.762 221.437 153.115 232.306C151.468 243.175 148.983 263.078 146.901 269.139C144.819 275.201 140.711 297.882 140.84 301.779C140.968 305.675 140.791 309.288 140.791 309.288C140.791 309.288 142.499 309.223 142.811 310.115C143.053 311.294 143.186 312.495 143.209 313.701C143.209 313.701 138.127 314.787 136.725 315.433C135.323 316.079 128.282 317.553 128.282 317.553C128.282 317.553 127.909 314.864 127.866 313.365C127.823 311.866 129.09 307.317 129.09 307.317C129.09 307.317 127.425 290.864 126.813 280.674C126.2 270.483 128.9 248.176 128.79 244.577C128.68 240.978 132.06 186.522 132.06 186.522L151.94 185.514L153.489 187.556Z" fill="#43A367" stroke="#263238" stroke-linecap="round" stroke-linejoin="round"/>
<path d="M126.255 316.428C126.255 316.428 136.119 322.386 137.858 323.536C139.597 324.687 141.611 325.204 141.103 327.019C140.595 328.835 136.101 330.806 128.998 331.058C121.896 331.31 115.302 329.766 112.688 328.034C110.073 326.302 112.743 320.829 112.743 320.829C112.743 320.829 120.182 313.346 126.255 316.428Z" fill="white" stroke="#263238" stroke-linecap="round" stroke-linejoin="round"/>
<path d="M141.103 327.006C141.19 326.716 141.203 326.406 141.14 326.108C139.052 327 134.546 328.46 128.025 328.144C122.472 327.815 116.956 326.971 111.543 325.624C111.523 326.093 111.618 326.56 111.819 326.98C112.019 327.4 112.318 327.758 112.688 328.021C115.302 329.733 121.872 331.297 128.998 331.045C136.125 330.793 140.589 328.829 141.103 327.006Z" fill="white" stroke="#263238" stroke-linecap="round" stroke-linejoin="round"/>
<path d="M135.005 234.458C135.005 234.458 131.876 269.999 129.323 279.091C126.77 288.183 124.774 305.675 124.859 308.376C124.91 309.994 125.153 311.598 125.582 313.152C126.102 313.507 126.512 314.015 126.764 314.612C126.993 315.59 127.121 316.591 127.143 317.598C127.143 317.598 125.79 319.75 120.733 321.733C117.741 322.916 114.602 323.634 111.414 323.866C111.414 323.866 111.769 308.241 110.288 297.488C108.806 286.735 109.479 272.286 110.471 267.763C111.463 263.239 113.477 255.046 112.743 249.966C112.008 244.887 110.716 239.834 110.716 239.834L108.408 230.005L135.005 234.458Z" fill="#43A367" stroke="#263238" stroke-linecap="round" stroke-linejoin="round"/>
<path d="M136.762 120.507C136.762 120.507 130.382 122.736 128.362 124.804C126.341 126.872 132.096 188.131 132.096 188.131C132.096 188.131 141.446 189.799 145.046 189.669C148.646 189.54 153.489 187.556 153.489 187.556C153.489 187.556 152.197 153.178 150.428 145.838C149.299 141.192 147.886 136.629 146.197 132.177L138.666 122.038L136.762 120.507Z" fill="white" stroke="#263238" stroke-linecap="round" stroke-linejoin="round"/>
<path d="M144.599 130.684L146.981 137.392L142.854 135.208C142.854 135.208 144.238 131.266 144.599 130.684Z" stroke="#263238" stroke-linecap="round" stroke-linejoin="round"/>
<path d="M142.511 137.263L144.599 130.71L142.633 126.729C142.633 126.729 141.244 135.182 142.511 137.263Z" stroke="#263238" stroke-linecap="round" stroke-linejoin="round"/>
<path d="M163.897 103.163C164.289 101.224 163.285 93.1981 163.285 93.1981C163.285 93.1981 152.369 98.1545 145.076 100.145C137.784 102.135 131.876 105.457 131.913 107.899C131.913 107.899 133.523 113.502 133.878 115.24C134.233 116.978 132.292 120.571 132.292 120.571C132.292 120.571 136.762 126.458 139.37 128.972L142.046 140.978L143.05 128.087C144.128 126.594 145.132 125.043 146.056 123.44C146.056 123.44 149.993 125.03 151.193 124.733C152.393 124.435 158.54 116.933 158.54 116.933C158.54 116.933 162.771 116.138 163.181 115.053C163.591 113.967 162.152 106.174 162.152 106.174C163.016 105.385 163.625 104.333 163.897 103.163Z" fill="white" stroke="#263238" stroke-linecap="round" stroke-linejoin="round"/>
<path d="M146.025 123.447L142.474 121.217L143.711 126.426L146.025 123.447Z" fill="#263238" stroke="#263238" stroke-linecap="round" stroke-linejoin="round"/>
<path d="M158.283 107.331C158.05 108.145 157.597 108.72 157.273 108.623C156.948 108.526 156.875 107.776 157.107 106.962C157.34 106.148 157.793 105.573 158.118 105.67C158.442 105.767 158.516 106.516 158.283 107.331Z" fill="#263238"/>
<path d="M156.207 104.074C156.207 104.074 158.405 101.754 160.273 103.977" stroke="#263238" stroke-linecap="round" stroke-linejoin="round"/>
<path d="M155.369 117.683C155.369 117.683 152.956 117.398 151.695 114.368" stroke="#263238" stroke-linecap="round" stroke-linejoin="round"/>
<path d="M139.584 105.689C139.584 105.689 145.707 103.466 153.869 100.293C162.03 97.1206 167.008 94.665 166.297 91.182C165.587 87.699 160.493 82.7232 152.828 81.1529C145.162 79.5827 136.909 81.6182 133.462 84.72C130.015 87.8217 128.019 91.9187 128.729 95.4017C129.439 98.8847 130.223 107.641 132.06 109.709C133.897 111.776 139.584 105.689 139.584 105.689Z" fill="#263238" stroke="#263238" stroke-linecap="round" stroke-linejoin="round"/>
<path d="M141.556 106.891C141.556 106.891 140.16 101.573 137.76 102.122C135.36 102.671 134.203 108.584 136.021 111.298C137.84 114.012 140.576 112.087 140.576 112.087" fill="white"/>
<path d="M141.556 106.891C141.556 106.891 140.16 101.573 137.76 102.122C135.36 102.671 134.203 108.584 136.021 111.298C137.84 114.012 140.576 112.087 140.576 112.087" stroke="#263238" stroke-linecap="round" stroke-linejoin="round"/>
<path d="M129.084 97.3015C129.084 97.3015 123.935 90.5164 120.561 90.1222C117.188 89.728 113.435 95.2207 112.547 100.888C111.659 106.555 116.833 108.7 120.408 107.886C123.984 107.072 129.409 101.205 129.396 100.377C129.384 99.5503 129.084 97.3015 129.084 97.3015Z" fill="#263238" stroke="#263238" stroke-linecap="round" stroke-linejoin="round"/>
<path d="M140.938 130.064L136.407 138.432C136.407 138.432 132.55 128.358 131.711 126.116C131.108 124.237 130.686 122.3 130.449 120.332L132.409 119.124L140.938 130.064Z" fill="white" stroke="#263238" stroke-linecap="round" stroke-linejoin="round"/>
<path d="M163.108 193.411C163.108 193.411 160.628 194.568 159.122 194.619C157.616 194.671 158.509 190.742 159.073 187.892C159.636 185.043 162.061 191.324 163.108 193.411Z" fill="white" stroke="#263238" stroke-linecap="round" stroke-linejoin="round"/>
<path d="M161.069 187.285L160.285 199.563L155.387 192.655L154.86 191.963L154.248 182.775C154.248 182.775 159.961 184.138 161.069 187.285Z" fill="white" stroke="#263238" stroke-linecap="round" stroke-linejoin="round"/>
<path d="M153.415 173.747C153.415 173.747 158.393 177.107 160.573 182.348C161.949 185.877 162.804 189.608 163.108 193.411C163.108 193.411 160.585 188.015 158.356 186.497C156.996 185.589 155.499 184.934 153.93 184.558L153.415 173.747Z" fill="white" stroke="#263238" stroke-linecap="round" stroke-linejoin="round"/>
<path d="M130.449 120.332C130.449 120.332 133.897 132.868 136.793 139.201C139.689 145.534 141.176 165.159 142.303 169.023C142.303 169.023 141.721 204.17 142.058 214.671C142.395 225.172 142.989 252.467 142.989 252.467C142.989 252.467 134.803 254.561 120.488 251.769C106.173 248.978 96.6403 244.532 96.6403 244.532C96.6403 244.532 106.528 180.228 106.786 179.317C107.043 178.406 111.635 162.031 112.143 151.208C112.651 140.384 112.492 135.582 116.869 130.019C121.247 124.455 130.449 120.332 130.449 120.332Z" fill="white" stroke="#263238" stroke-linecap="round" stroke-linejoin="round"/>
<path d="M118.247 239.698C117.396 239.498 116.539 239.259 115.682 238.994" stroke="#263238" stroke-linecap="round" stroke-linejoin="round"/>
<path d="M112.59 235.731L114.304 214.109C129.751 217.669 139.572 215.589 139.572 215.589L139.854 239.879C133.575 241.211 127.119 241.329 120.8 240.228" stroke="#263238" stroke-linecap="round" stroke-linejoin="round"/>
<path d="M139.542 218.251C139.542 218.251 129.745 220.338 114.273 216.771" stroke="#263238" stroke-linecap="round" stroke-linejoin="round"/>
<path d="M155.467 190.678C155.467 190.678 160.365 197.23 160.854 201.663C161.344 206.096 159.201 218.193 159.201 218.193L155.467 190.678Z" fill="white" stroke="#263238" stroke-linecap="round" stroke-linejoin="round"/>
<path d="M142.609 130.71C142.609 130.71 149.485 144.771 150.673 155.233C151.86 165.695 152.381 199.608 152.136 209.824C151.891 220.041 151.456 250.684 151.456 250.684C151.456 250.684 161.014 247.039 161.485 244.015C161.957 240.991 159.158 215.879 158.087 209.01C157.016 202.141 154.634 181.224 154.511 177.346C154.389 173.469 156.538 160.765 154.346 154.535C152.957 150.468 151.872 146.291 151.101 142.044C151.101 142.044 151.615 138.057 148.652 133.644C145.689 129.23 141.942 127.731 142.609 130.71Z" fill="white" stroke="#263238" stroke-linecap="round" stroke-linejoin="round"/>
<path d="M148.707 139.201C148.707 139.201 150.544 148.674 151.199 153.353" stroke="#263238" stroke-width="2" stroke-linecap="round" stroke-linejoin="round"/>
<path d="M153.96 172.041C153.96 172.041 152.166 171.699 151.64 171.182C151.113 170.665 148.86 163.757 148.732 159.88C148.603 156.002 149.895 152.313 151.181 152.267C152.466 152.222 153.63 156.881 153.281 162.135C153.103 164.868 149.332 169.934 146.95 171.091C144.568 172.248 144.152 171.195 144.152 171.195" stroke="#263238" stroke-width="2" stroke-linecap="round" stroke-linejoin="round"/>
<path d="M144.378 170.904C144.384 171.116 144.331 171.324 144.224 171.504C144.118 171.684 143.964 171.826 143.781 171.913C143.598 172 143.394 172.028 143.196 171.994C142.998 171.959 142.815 171.863 142.668 171.719C142.521 171.574 142.419 171.386 142.373 171.18C142.327 170.974 142.34 170.758 142.411 170.56C142.481 170.361 142.605 170.189 142.768 170.065C142.931 169.941 143.125 169.871 143.325 169.863C143.596 169.855 143.858 169.959 144.055 170.154C144.253 170.349 144.369 170.619 144.378 170.904Z" fill="#263238"/>
<path d="M155.871 171.97C155.879 172.184 155.827 172.395 155.721 172.578C155.616 172.76 155.461 172.906 155.277 172.995C155.093 173.084 154.887 173.114 154.687 173.08C154.487 173.046 154.301 172.951 154.153 172.805C154.004 172.659 153.9 172.47 153.854 172.262C153.807 172.054 153.821 171.836 153.892 171.635C153.963 171.435 154.089 171.262 154.254 171.137C154.419 171.013 154.615 170.943 154.818 170.936C155.087 170.927 155.348 171.031 155.545 171.225C155.743 171.418 155.859 171.686 155.871 171.97Z" fill="#263238"/>
<path d="M146.944 140.959C146.944 140.959 147.072 140.5 148.358 140.759C149.644 141.017 152.73 143.906 152.73 143.906C152.73 143.906 152.209 136.565 149.834 133.495C147.458 130.426 143.246 127.57 143.246 127.57C142.932 127.8 142.718 128.153 142.65 128.551C142.582 128.948 142.667 129.357 142.885 129.689C143.638 131.02 146.944 140.959 146.944 140.959Z" fill="white" stroke="#263238" stroke-linecap="round" stroke-linejoin="round"/>
<path d="M129.507 131.931C129.507 131.931 132.978 152.771 133.315 163.369" stroke="#263238" stroke-width="2" stroke-linecap="round" stroke-linejoin="round"/>
<path d="M136.48 162.723C136.46 162.058 136.254 161.414 135.887 160.873C135.52 160.331 135.009 159.918 134.418 159.683C133.828 159.449 133.185 159.405 132.571 159.557C131.957 159.709 131.4 160.05 130.97 160.537C130.54 161.023 130.256 161.634 130.155 162.291C130.054 162.948 130.141 163.621 130.403 164.227C130.665 164.832 131.092 165.341 131.629 165.69C132.166 166.039 132.789 166.212 133.419 166.186C134.259 166.153 135.053 165.77 135.626 165.121C136.2 164.472 136.507 163.61 136.48 162.723Z" fill="white" stroke="#263238" stroke-linecap="round" stroke-linejoin="round"/>
<path d="M130.449 120.332C130.449 120.332 128.08 120.332 127.119 121.547C126.681 122.089 126.272 122.656 125.894 123.246C125.894 123.246 126.506 138.109 126.641 141.986C126.776 145.863 126.837 148.138 126.837 148.138C126.837 148.138 132.25 144.041 134.068 143.072C135.261 142.453 136.488 141.91 137.742 141.443L131.937 124.539L130.449 120.332Z" fill="white" stroke="#263238" stroke-linecap="round" stroke-linejoin="round"/>
<path d="M108.635 211.298L150.293 207.33L147.868 178.723L106.443 184.81L108.635 211.298Z" fill="#263238" stroke="#263238" stroke-linecap="round" stroke-linejoin="round"/>
<path d="M127.431 197.527C127.431 197.527 130.082 199.33 130.878 199.304C131.962 199.432 133.034 199.648 134.086 199.951C134.588 200.035 136.566 202.6 137.093 203.421C137.619 204.241 139.989 206.69 140.001 207.11C140.013 207.53 139.229 207.873 138.629 207.892C138.062 207.816 137.514 207.62 137.019 207.317C137.369 208.234 137.666 209.173 137.907 210.128C137.851 210.447 137.697 210.738 137.469 210.956C137.241 211.175 136.952 211.308 136.646 211.337C135.755 211.216 134.879 211 134.031 210.69C134.031 210.69 133.658 211.44 132.084 212.125C130.511 212.81 130.419 213.03 129.121 212.971C128.407 212.955 127.706 212.768 127.07 212.426C126.434 212.084 125.879 211.594 125.447 210.994C124.504 209.663 121.774 205.443 121.566 205.133C121.411 204.913 121.239 204.708 121.051 204.519L126.911 197.572L127.431 197.527Z" fill="white" stroke="#263238" stroke-linecap="round" stroke-linejoin="round"/>
<path d="M121.039 126.07C121.039 126.07 111.494 130.012 109.179 134.697C106.865 139.382 93.1076 177.708 93.9525 180.28C94.7974 182.852 104.483 192.119 107.251 195.621C110.018 199.123 119.202 207.698 119.202 207.698L128.386 197.766L112.412 177.405L119.759 151.324" fill="white"/>
<path d="M121.039 126.07C121.039 126.07 111.494 130.012 109.179 134.697C106.865 139.382 93.1076 177.708 93.9525 180.28C94.7974 182.852 104.483 192.119 107.251 195.621C110.018 199.123 119.202 207.698 119.202 207.698L128.386 197.766L112.412 177.405L119.759 151.324" stroke="#263238" stroke-linecap="round" stroke-linejoin="round"/>
</svg>
