<svg width="246" height="443" viewBox="0 0 246 443" fill="none" xmlns="http://www.w3.org/2000/svg">
<path fill-rule="evenodd" clip-rule="evenodd" d="M189.598 2.0202C232.287 11.9143 240.346 71.2162 275.825 96.9306C311.37 122.694 368.536 113.086 393.065 149.49C418.944 187.896 421.777 242.662 402.343 284.696C383.491 325.47 331.327 334.2 295.274 361.005C258.618 388.258 235.209 440.353 189.598 442.871C143.857 445.396 101.655 410.472 75.0891 373.16C52.0749 340.836 71.0243 295.819 58.1723 258.28C44.9617 219.693 -1.93567 194.751 0.061932 154.016C2.161 111.211 35.0043 75.6799 68.4417 48.8653C103.066 21.0988 146.358 -8.00153 189.598 2.0202Z" fill="#E8FFEE"/>
</svg>
