<svg width="450" height="507" viewBox="0 0 450 507" fill="none" xmlns="http://www.w3.org/2000/svg">
<rect width="450" height="507" fill="#E5E5E5"/>
<g clip-path="url(#clip0)">
<rect width="1440" height="4000" transform="translate(-913 -1051)" fill="white"/>
<path d="M217.02 506.394C314.602 506.394 393.708 490.574 393.708 471.059C393.708 451.544 314.602 435.724 217.02 435.724C119.437 435.724 40.3312 451.544 40.3312 471.059C40.3312 490.574 119.437 506.394 217.02 506.394Z" fill="#92E3A9"/>
<path opacity="0.5" d="M217.02 506.394C314.602 506.394 393.708 490.574 393.708 471.059C393.708 451.544 314.602 435.724 217.02 435.724C119.437 435.724 40.3312 451.544 40.3312 471.059C40.3312 490.574 119.437 506.394 217.02 506.394Z" fill="white"/>
<path d="M404.594 1.00012H277.197C272.845 1.00012 269.317 4.52805 269.317 8.87996V149.319C269.317 153.671 272.845 157.198 277.197 157.198H404.594C408.946 157.198 412.474 153.671 412.474 149.319V8.87996C412.474 4.52805 408.946 1.00012 404.594 1.00012Z" fill="white" stroke="#263238" stroke-linecap="round" stroke-linejoin="round"/>
<path d="M277.197 1.0001H404.581C406.66 1.0001 408.655 1.82616 410.125 3.29656C411.595 4.76697 412.421 6.76126 412.421 8.84072V17.0211H269.317V8.87993C269.312 7.84369 269.512 6.81668 269.906 5.85831C270.3 4.89994 270.881 4.02921 271.613 3.29646C272.346 2.56372 273.217 1.98349 274.175 1.58933C275.133 1.19517 276.16 0.994904 277.197 1.0001Z" fill="#263238" stroke="#263238" stroke-linecap="round" stroke-linejoin="round"/>
<path d="M277.118 84.3983H334.721" stroke="#263238" stroke-linecap="round" stroke-linejoin="round"/>
<path d="M277.118 91.8337H334.721" stroke="#263238" stroke-linecap="round" stroke-linejoin="round"/>
<path d="M277.118 99.2693H334.721" stroke="#263238" stroke-linecap="round" stroke-linejoin="round"/>
<path d="M277.118 106.705H334.721" stroke="#263238" stroke-linecap="round" stroke-linejoin="round"/>
<path d="M277.118 114.14H334.721" stroke="#263238" stroke-linecap="round" stroke-linejoin="round"/>
<path d="M277.118 121.589H334.721" stroke="#263238" stroke-linecap="round" stroke-linejoin="round"/>
<path d="M277.118 129.025H334.721" stroke="#263238" stroke-linecap="round" stroke-linejoin="round"/>
<path d="M277.118 136.46H334.721" stroke="#263238" stroke-linecap="round" stroke-linejoin="round"/>
<path d="M277.118 143.896H334.721" stroke="#263238" stroke-linecap="round" stroke-linejoin="round"/>
<path d="M344.848 84.3983H402.451" stroke="#263238" stroke-linecap="round" stroke-linejoin="round"/>
<path d="M344.848 91.8337H402.451" stroke="#263238" stroke-linecap="round" stroke-linejoin="round"/>
<path d="M344.848 99.2693H402.451" stroke="#263238" stroke-linecap="round" stroke-linejoin="round"/>
<path d="M344.848 106.705H402.451" stroke="#263238" stroke-linecap="round" stroke-linejoin="round"/>
<path d="M344.848 114.14H402.451" stroke="#263238" stroke-linecap="round" stroke-linejoin="round"/>
<path d="M344.848 121.589H402.451" stroke="#263238" stroke-linecap="round" stroke-linejoin="round"/>
<path d="M344.848 129.025H402.451" stroke="#263238" stroke-linecap="round" stroke-linejoin="round"/>
<path d="M344.848 136.46H402.451" stroke="#263238" stroke-linecap="round" stroke-linejoin="round"/>
<path d="M344.848 143.896H402.451" stroke="#263238" stroke-linecap="round" stroke-linejoin="round"/>
<path d="M315.642 37.3154C315.926 36.4324 316.076 35.5117 316.086 34.5842C316.086 31.1997 312.649 31.0037 309.278 31.0037H308.429V30.2065H323.143V31.0037C319.314 31.0037 317.916 33.4473 316.727 37.0671L308.886 60.4714C308.298 62.2094 307.801 63.5031 305.959 63.5031H305.802L298.902 41.1442L292.486 60.5236C291.885 62.2616 291.388 63.5553 289.546 63.5553H289.402L279.366 31.0037H275.838V30.2065H288.749V31.0037H285.077L292.525 56.6425H292.826L298.445 39.6153L295.831 31.069H292.303V30.2065H305.227V31.0037H301.555L309.004 56.6425H309.291L315.642 37.3154Z" fill="#92E3A9"/>
<path d="M402.856 22.797H343.581V76.3746H402.856V22.797Z" fill="#92E3A9" stroke="#263238" stroke-width="2" stroke-linecap="round" stroke-linejoin="round"/>
<path d="M402.856 45.1951C400.868 45.3083 398.892 45.5837 396.949 46.0183C387.945 47.9785 385.593 60.9025 375.414 60.9025C366.397 60.9025 365.626 48.7626 352.702 47.1944C349.557 46.6992 346.337 47.2695 343.554 48.8148V76.3746H402.856V45.1951Z" fill="#263238" stroke="#263238" stroke-linecap="round" stroke-linejoin="round"/>
<path d="M363.274 35.0546C363.276 36.3738 362.887 37.6641 362.156 38.7621C361.425 39.8601 360.384 40.7163 359.166 41.2223C357.947 41.7284 356.606 41.8615 355.312 41.6047C354.018 41.348 352.83 40.713 351.897 39.7802C350.964 38.8473 350.329 37.6586 350.072 36.3646C349.815 35.0706 349.948 33.7295 350.455 32.5112C350.961 31.2929 351.817 30.2521 352.915 29.5208C354.013 28.7895 355.303 28.4005 356.622 28.4031C358.386 28.4031 360.078 29.1039 361.326 30.3513C362.573 31.5987 363.274 33.2905 363.274 35.0546Z" fill="white" stroke="#263238" stroke-linecap="round" stroke-linejoin="round"/>
<path d="M405.561 5.69141H273.616V10.7747H405.561V5.69141Z" fill="white" stroke="#263238" stroke-linecap="round" stroke-linejoin="round"/>
<path d="M397.328 188.365H340.209C337.963 188.365 335.81 189.257 334.221 190.845C332.633 192.433 331.741 194.587 331.741 196.833V227.385C331.741 229.631 332.633 231.785 334.221 233.373C335.81 234.961 337.963 235.853 340.209 235.853H341.96C340.183 239.773 336.733 245.785 331.284 249.352C331.284 249.352 342.875 248.542 354.95 235.853H397.302C399.548 235.853 401.702 234.961 403.29 233.373C404.878 231.785 405.77 229.631 405.77 227.385V196.833C405.77 194.592 404.881 192.442 403.299 190.854C401.717 189.267 399.569 188.372 397.328 188.365Z" fill="#263238" stroke="#263238" stroke-linecap="round" stroke-linejoin="round"/>
<path d="M358.948 211.024C358.951 210.16 358.697 209.314 358.218 208.595C357.74 207.875 357.058 207.313 356.26 206.981C355.462 206.649 354.583 206.562 353.735 206.73C352.888 206.898 352.109 207.314 351.497 207.925C350.886 208.536 350.47 209.315 350.302 210.163C350.134 211.011 350.222 211.89 350.554 212.688C350.886 213.486 351.447 214.167 352.167 214.646C352.887 215.124 353.732 215.379 354.597 215.376C355.75 215.372 356.855 214.913 357.67 214.098C358.485 213.282 358.945 212.177 358.948 211.024Z" fill="#92E3A9" stroke="#263238" stroke-linecap="round" stroke-linejoin="round"/>
<path d="M373.754 211.024C373.754 210.164 373.499 209.322 373.021 208.607C372.542 207.891 371.863 207.333 371.068 207.004C370.273 206.675 369.398 206.589 368.554 206.756C367.709 206.924 366.934 207.339 366.325 207.947C365.717 208.556 365.302 209.331 365.135 210.175C364.967 211.02 365.053 211.895 365.382 212.69C365.712 213.485 366.269 214.164 366.985 214.643C367.7 215.121 368.542 215.376 369.402 215.376C370.555 215.372 371.66 214.913 372.476 214.098C373.291 213.282 373.751 212.177 373.754 211.024Z" fill="#92E3A9" stroke="#263238" stroke-linecap="round" stroke-linejoin="round"/>
<path d="M388.573 211.024C388.575 210.161 388.322 209.315 387.844 208.596C387.366 207.877 386.685 207.315 385.888 206.983C385.09 206.65 384.212 206.562 383.365 206.729C382.517 206.896 381.738 207.311 381.127 207.92C380.515 208.53 380.098 209.308 379.928 210.155C379.759 211.002 379.845 211.88 380.175 212.679C380.505 213.477 381.064 214.159 381.782 214.639C382.5 215.12 383.344 215.376 384.208 215.376C385.362 215.373 386.469 214.913 387.286 214.098C388.103 213.283 388.566 212.179 388.573 211.024Z" fill="#92E3A9" stroke="#263238" stroke-linecap="round" stroke-linejoin="round"/>
<path d="M83.2195 19.5302H177.307C179.546 19.5302 181.693 20.4195 183.276 22.0027C184.859 23.5858 185.749 25.733 185.749 27.9719V93.1928H74.817V27.9719C74.8169 25.7398 75.7009 23.5985 77.2756 22.0165C78.8503 20.4345 80.9874 19.5405 83.2195 19.5302Z" fill="#92E3A9" stroke="#263238" stroke-linecap="round" stroke-linejoin="round"/>
<path d="M185.697 82.6733H74.817V93.1537H185.697V82.6733Z" fill="#263238" stroke="#263238" stroke-linecap="round" stroke-linejoin="round"/>
<path d="M180.626 86.2539H79.9003V89.5731H180.626V86.2539Z" fill="white" stroke="#263238" stroke-linecap="round" stroke-linejoin="round"/>
<path d="M130.263 68.2727C138.722 68.2727 145.579 61.4158 145.579 52.9573C145.579 44.4989 138.722 37.642 130.263 37.642C121.805 37.642 114.948 44.4989 114.948 52.9573C114.948 61.4158 121.805 68.2727 130.263 68.2727Z" fill="#263238" stroke="#263238" stroke-linecap="round" stroke-linejoin="round"/>
<path d="M123.35 43.431L139.881 52.9705L123.35 62.5099V43.431Z" fill="white" stroke="#263238" stroke-linecap="round" stroke-linejoin="round"/>
<path d="M137.738 119.982H32.5037C30.4685 119.982 28.8186 121.632 28.8186 123.667V163.772C28.8186 165.807 30.4685 167.457 32.5037 167.457H137.738C139.773 167.457 141.423 165.807 141.423 163.772V123.667C141.423 121.632 139.773 119.982 137.738 119.982Z" fill="#263238" stroke="#263238" stroke-linecap="round" stroke-linejoin="round"/>
<path d="M42.2261 126.45L42.7749 127.365C40.2921 128.75 37.9791 131.181 37.9791 134.029C37.9473 134.519 38.0135 135.01 38.1739 135.473C38.3342 135.937 38.5854 136.363 38.9128 136.728C39.2402 137.094 39.6371 137.39 40.0804 137.599C40.5237 137.809 41.0044 137.928 41.4943 137.95C41.8602 137.95 42.1085 137.767 42.1085 137.401C42.1085 137.035 41.9255 136.917 41.5596 136.852C41.0662 136.718 40.6363 136.414 40.3467 135.992C40.0571 135.571 39.9266 135.061 39.9785 134.552C39.988 134.146 40.0799 133.747 40.2487 133.378C40.4175 133.009 40.6596 132.678 40.9603 132.405C41.261 132.133 41.614 131.924 41.9979 131.792C42.3817 131.66 42.7884 131.608 43.1931 131.638C43.6334 131.64 44.0689 131.729 44.4739 131.902C44.8789 132.075 45.2451 132.327 45.5509 132.644C45.8567 132.961 46.0959 133.336 46.2543 133.746C46.4127 134.157 46.4871 134.596 46.4731 135.036C46.4667 135.589 46.3489 136.135 46.1268 136.641C45.9047 137.148 45.5827 137.604 45.1802 137.984C44.7777 138.363 44.3029 138.657 43.7841 138.849C43.2653 139.041 42.7132 139.126 42.1608 139.1C41.4739 139.144 40.7854 139.044 40.1399 138.805C39.4943 138.567 38.906 138.195 38.4132 137.715C37.9204 137.234 37.5341 136.655 37.2792 136.016C37.0243 135.377 36.9066 134.691 36.9337 134.003C36.8945 130.697 39.4427 128.031 42.2261 126.45ZM53.4513 126.45L54.0001 127.365C51.5042 128.75 49.2043 131.181 49.2043 134.029C49.1707 134.519 49.2356 135.011 49.3953 135.475C49.5549 135.939 49.806 136.367 50.1337 136.732C50.4615 137.098 50.8592 137.394 51.3033 137.603C51.7474 137.812 52.229 137.93 52.7195 137.95C53.0854 137.95 53.3336 137.767 53.3336 137.401C53.3336 137.035 53.1507 136.917 52.7848 136.852C52.2914 136.718 51.8615 136.414 51.5719 135.992C51.2823 135.571 51.1517 135.061 51.2036 134.552C51.2113 134.146 51.3019 133.745 51.4701 133.375C51.6383 133.005 51.8804 132.674 52.1815 132.401C52.4826 132.128 52.8363 131.919 53.221 131.788C53.6057 131.657 54.0131 131.606 54.4183 131.638C54.8586 131.64 55.2941 131.729 55.699 131.902C56.104 132.075 56.4703 132.327 56.7761 132.644C57.0819 132.961 57.321 133.336 57.4794 133.746C57.6378 134.157 57.7122 134.596 57.6983 135.036C57.6901 135.588 57.5711 136.133 57.3483 136.639C57.1256 137.145 56.8036 137.601 56.4015 137.98C55.9993 138.359 55.5252 138.653 55.0072 138.845C54.4893 139.038 53.9379 139.124 53.3859 139.1C52.6996 139.142 52.012 139.04 51.3673 138.801C50.7227 138.562 50.1352 138.19 49.6429 137.71C49.1505 137.23 48.7641 136.652 48.5085 136.014C48.2529 135.375 48.1338 134.691 48.1588 134.003C48.1066 130.697 50.6548 128.031 53.4513 126.45Z" fill="#92E3A9"/>
<path d="M64.1929 136.12H128.277" stroke="white" stroke-linecap="round" stroke-linejoin="round"/>
<path d="M64.1929 141.622H128.277" stroke="white" stroke-linecap="round" stroke-linejoin="round"/>
<path d="M64.1929 147.123H128.277" stroke="white" stroke-linecap="round" stroke-linejoin="round"/>
<path d="M64.1929 152.638H128.277" stroke="white" stroke-linecap="round" stroke-linejoin="round"/>
<path d="M116.938 241.066C130.166 238.907 139.138 226.435 136.979 213.208C134.82 199.98 122.347 191.008 109.12 193.167C95.8932 195.326 86.9206 207.799 89.0795 221.026C91.2384 234.253 103.711 243.225 116.938 241.066Z" fill="#263238" stroke="#263238" stroke-linecap="round" stroke-linejoin="round"/>
<path d="M128.421 230.657C135.884 222.159 135.045 209.221 126.548 201.758C118.05 194.296 105.112 195.135 97.6492 203.632C90.1866 212.13 91.0255 225.068 99.523 232.53C108.021 239.993 120.959 239.154 128.421 230.657Z" fill="white" stroke="#263238" stroke-linecap="round" stroke-linejoin="round"/>
<path d="M113.04 202.308V217.114H123.05" stroke="#263238" stroke-width="2" stroke-linecap="round" stroke-linejoin="round"/>
<path d="M264.861 217.166C264.861 217.166 278.778 246.869 278.778 248.437C278.778 250.005 266.429 256.722 264.077 258.134C262.252 259.173 260.372 260.111 258.444 260.943L259.856 274.703C259.856 274.703 281.117 269.855 290.029 265.007C298.941 260.159 298.628 254.684 296.563 246.556C294.498 238.427 280.764 207.013 280.764 207.013L264.861 217.166Z" fill="white"/>
<g style="mix-blend-mode:multiply" opacity="0.5">
<path d="M289.99 265.007C298.902 260.159 298.589 254.684 296.524 246.556C294.459 238.427 280.725 207.013 280.725 207.013L278.503 208.424L277.798 209.731C277.798 209.731 290.617 241.198 291.388 251.678C291.911 258.722 277.732 267.503 268.363 272.521C275.315 270.679 284.776 267.843 289.99 265.007Z" fill="#92E3A9"/>
</g>
<path d="M264.861 217.166C264.861 217.166 278.778 246.869 278.778 248.437C278.778 250.005 266.429 256.722 264.077 258.134C262.252 259.173 260.372 260.111 258.444 260.943L259.856 274.703C259.856 274.703 281.117 269.855 290.029 265.007C298.941 260.159 298.628 254.684 296.563 246.556C294.498 238.427 280.764 207.013 280.764 207.013L264.861 217.166Z" stroke="#263238" stroke-linecap="round" stroke-linejoin="round"/>
<path d="M164.448 210.606C164.448 210.606 154.295 247.81 153.994 254.383C153.694 260.956 174.158 273.919 174.903 274.703C175.647 275.487 173.74 252.096 173.74 252.096L180.679 218.12L164.448 210.606Z" fill="white"/>
<g style="mix-blend-mode:multiply" opacity="0.5">
<path d="M169.101 213.651L168.878 212.645L164.448 210.606C164.448 210.606 154.295 247.81 153.994 254.383C153.694 260.956 174.158 273.919 174.903 274.703C175.203 275.017 175.086 271.515 174.837 267.19C168.748 262.028 160.005 254.762 158.986 251.704" fill="#92E3A9"/>
</g>
<path d="M164.448 210.606C164.448 210.606 154.295 247.81 153.994 254.383C153.694 260.956 174.158 273.919 174.903 274.703C175.647 275.487 173.74 252.096 173.74 252.096L180.679 218.12L164.448 210.606Z" stroke="#263238" stroke-linecap="round" stroke-linejoin="round"/>
<path d="M212.133 173.233C212.133 173.233 208.212 176.055 200.568 176.369C192.923 176.683 192.557 171.142 183.057 171.142C171.544 171.142 157.104 207.562 157.104 207.562C157.104 207.562 164.292 214.605 171.335 217.571C175.231 219.278 179.328 220.486 183.527 221.165L184.625 245.092H262.169L263.097 221.165L287.337 205.445C287.337 205.445 275.446 184.183 269.67 176.212C263.894 168.241 254.184 171.207 251.218 173.233C248.252 175.258 239.457 175.742 236.216 175.271C231.989 174.336 227.81 173.189 223.697 171.834C223.697 171.834 218.706 167.679 212.133 173.233Z" fill="#92E3A9" stroke="#263238" stroke-linecap="round" stroke-linejoin="round"/>
<path d="M184.311 181.674L183.998 221.387" stroke="#263238" stroke-width="0.5" stroke-linecap="round" stroke-linejoin="round"/>
<path d="M187.121 185.281C187.121 185.281 188.219 204.661 192.348 215.454" stroke="#263238" stroke-width="0.5" stroke-linecap="round" stroke-linejoin="round"/>
<path d="M193.067 217.01C193.959 219.644 195.055 222.204 196.347 224.667" stroke="#263238" stroke-width="0.5" stroke-linecap="round" stroke-linejoin="round"/>
<path d="M189.617 183.086C191.1 190.132 193.195 197.036 195.876 203.72" stroke="#263238" stroke-width="0.5" stroke-linecap="round" stroke-linejoin="round"/>
<path d="M257.02 186.522C257.02 186.522 253.27 201.851 249.977 208.738" stroke="#263238" stroke-width="0.5" stroke-linecap="round" stroke-linejoin="round"/>
<path d="M263.097 221.23L262.94 190.273" stroke="#263238" stroke-width="0.5" stroke-linecap="round" stroke-linejoin="round"/>
<path d="M261.385 190.9C261.385 190.9 258.562 210.502 251.688 220.76" stroke="#263238" stroke-width="0.5" stroke-linecap="round" stroke-linejoin="round"/>
<path d="M257.948 216.853C257.948 216.853 254.812 222.799 252.629 225.922" stroke="#263238" stroke-width="0.5" stroke-linecap="round" stroke-linejoin="round"/>
<path d="M207.755 175.585C207.755 175.585 209.95 189.032 213.073 195.905C216.196 202.779 221.672 204.19 226.363 202.165C231.054 200.139 234.491 190.116 234.204 177.336" stroke="#263238" stroke-width="0.5" stroke-linecap="round" stroke-linejoin="round"/>
<path d="M196.66 147.437C196.66 147.437 193.681 142.288 191.342 144.941C189.003 147.594 193.224 153.696 195.563 155.722C197.902 157.747 199.627 156.506 199.483 154.324C199.339 152.141 196.66 147.437 196.66 147.437Z" fill="#92E3A9" stroke="#263238" stroke-linecap="round" stroke-linejoin="round"/>
<path opacity="0.5" d="M196.66 147.437C196.66 147.437 193.681 142.288 191.342 144.941C189.003 147.594 193.224 153.696 195.563 155.722C197.902 157.747 199.627 156.506 199.483 154.324C199.339 152.141 196.66 147.437 196.66 147.437Z" fill="white"/>
<path d="M196.66 147.437C196.66 147.437 193.681 142.288 191.342 144.941C189.003 147.594 193.224 153.696 195.563 155.722C197.902 157.747 199.627 156.506 199.483 154.324C199.339 152.141 196.66 147.437 196.66 147.437Z" stroke="#263238" stroke-linecap="round" stroke-linejoin="round"/>
<path d="M243.952 147.437C243.952 147.437 246.919 142.288 249.271 144.941C251.623 147.594 247.389 153.696 245.05 155.722C242.711 157.747 240.973 156.506 241.13 154.324C241.287 152.141 243.952 147.437 243.952 147.437Z" fill="#92E3A9" stroke="#263238" stroke-linecap="round" stroke-linejoin="round"/>
<path opacity="0.5" d="M243.952 147.437C243.952 147.437 246.919 142.288 249.271 144.941C251.623 147.594 247.389 153.696 245.05 155.722C242.711 157.747 240.973 156.506 241.13 154.324C241.287 152.141 243.952 147.437 243.952 147.437Z" fill="white"/>
<path d="M243.952 147.437C243.952 147.437 246.919 142.288 249.271 144.941C251.623 147.594 247.389 153.696 245.05 155.722C242.711 157.747 240.973 156.506 241.13 154.324C241.287 152.141 243.952 147.437 243.952 147.437Z" stroke="#263238" stroke-linecap="round" stroke-linejoin="round"/>
<path d="M210.721 172.148C212.197 178.821 214.078 185.397 216.353 191.841C219.176 198.872 224.481 198.872 226.677 194.337C228.872 189.803 230.27 172.906 230.27 172.906C230.27 172.906 215.569 174.958 210.721 172.148Z" fill="white" stroke="#263238" stroke-linecap="round" stroke-linejoin="round"/>
<path d="M196.974 149.162C196.974 149.162 201.038 163.536 208.735 171.991C216.432 180.446 219.189 182.445 223.279 181.831C227.369 181.217 231.721 175.898 237.811 164.843C243.9 153.788 244.344 145.307 244.854 144.523C245.364 143.739 243.547 128.11 234.844 121.38C226.141 114.65 216.393 111.697 207.951 119.041C199.509 126.385 194.151 138.368 196.974 149.162Z" fill="white"/>
<g style="mix-blend-mode:multiply" opacity="0.5">
<path d="M234.805 121.328C226.05 114.611 216.353 111.644 207.912 118.989C199.47 126.333 194.151 138.368 196.974 149.162C196.974 149.162 197.745 151.932 199.274 155.696C199.269 155.214 199.335 154.734 199.47 154.271C201.339 148.352 206.853 136.891 225.409 142.145C240.15 146.3 238.346 159.263 236.974 166.176L237.771 164.739C243.874 153.644 244.305 145.202 244.815 144.418C245.324 143.634 243.56 128.058 234.805 121.328Z" fill="#92E3A9"/>
</g>
<path d="M196.974 149.162C196.974 149.162 201.038 163.536 208.735 171.991C216.432 180.446 219.189 182.445 223.279 181.831C227.369 181.217 231.721 175.898 237.811 164.843C243.9 153.788 244.344 145.307 244.854 144.523C245.364 143.739 243.547 128.11 234.844 121.38C226.141 114.65 216.393 111.697 207.951 119.041C199.509 126.385 194.151 138.368 196.974 149.162Z" stroke="#263238" stroke-linecap="round" stroke-linejoin="round"/>
<path d="M223.24 156.663C222.755 159.715 222.493 162.798 222.456 165.889C222.613 169.012 223.554 169.953 222.142 170.266C220.731 170.58 219.176 168.384 219.176 168.384" stroke="#263238" stroke-linecap="round" stroke-linejoin="round"/>
<path d="M207.598 159.172C208.504 159.826 209.586 160.191 210.703 160.219C211.821 160.247 212.92 159.937 213.857 159.329" stroke="#263238" stroke-linecap="round" stroke-linejoin="round"/>
<path d="M227.461 159.172C228.365 159.825 229.445 160.189 230.56 160.217C231.675 160.245 232.772 159.936 233.707 159.329" stroke="#263238" stroke-linecap="round" stroke-linejoin="round"/>
<path d="M217.582 153.905C217.582 153.905 214.602 146.548 204.762 149.985" stroke="#263238" stroke-linecap="round" stroke-linejoin="round"/>
<path d="M225.775 153.004C225.775 153.004 228.271 145.804 237.183 150.024" stroke="#263238" stroke-linecap="round" stroke-linejoin="round"/>
<path d="M219.477 159.708C219.477 163.733 214.864 166.986 209.166 166.986C203.469 166.986 198.843 163.733 198.843 159.708C198.843 155.683 203.155 154.01 208.853 154.01C214.55 154.01 219.477 155.696 219.477 159.708Z" stroke="#263238" stroke-linecap="round" stroke-linejoin="round"/>
<path d="M243.247 159.708C243.247 163.733 238.621 166.986 232.923 166.986C227.226 166.986 222.613 163.733 222.613 159.708C222.613 155.683 226.912 154.01 232.61 154.01C238.307 154.01 243.247 155.696 243.247 159.708Z" stroke="#263238" stroke-linecap="round" stroke-linejoin="round"/>
<path d="M111.485 285.066L110.845 443.486C110.845 443.985 111.043 444.464 111.396 444.817C111.749 445.17 112.227 445.368 112.726 445.368C113.213 445.368 113.681 445.178 114.03 444.839C114.379 444.5 114.581 444.038 114.595 443.551L119.117 285.288L111.485 285.066Z" fill="white" stroke="#263238" stroke-linecap="round" stroke-linejoin="round"/>
<path d="M100.822 322.1L100.208 485.878C100.206 486.125 100.253 486.371 100.347 486.6C100.441 486.829 100.58 487.037 100.755 487.212C100.93 487.387 101.138 487.526 101.367 487.62C101.596 487.714 101.842 487.761 102.089 487.759C102.575 487.76 103.042 487.572 103.393 487.236C103.744 486.9 103.951 486.441 103.971 485.956L108.479 322.309L100.822 322.1Z" fill="white" stroke="#263238" stroke-linecap="round" stroke-linejoin="round"/>
<path d="M330.5 285.066L331.14 443.486C331.142 443.733 331.095 443.977 331.002 444.205C330.909 444.433 330.771 444.641 330.597 444.816C330.424 444.991 330.217 445.13 329.99 445.224C329.762 445.319 329.518 445.368 329.271 445.368C328.784 445.368 328.315 445.179 327.963 444.84C327.612 444.501 327.407 444.039 327.39 443.551L322.881 285.288L330.5 285.066Z" fill="white" stroke="#263238" stroke-linecap="round" stroke-linejoin="round"/>
<path d="M341.176 322.1L341.817 485.878C341.818 486.125 341.771 486.371 341.677 486.6C341.583 486.829 341.444 487.037 341.269 487.212C341.094 487.387 340.886 487.526 340.657 487.62C340.428 487.714 340.182 487.761 339.935 487.759C339.45 487.76 338.985 487.572 338.636 487.235C338.287 486.899 338.083 486.44 338.066 485.956L333.545 322.309L341.176 322.1Z" fill="white" stroke="#263238" stroke-linecap="round" stroke-linejoin="round"/>
<path d="M175.072 328.908L174.694 474.274C174.652 474.636 174.753 475.001 174.975 475.291C175.196 475.581 175.522 475.773 175.883 475.829C176.235 475.78 176.555 475.598 176.779 475.322C177.002 475.045 177.112 474.694 177.085 474.339L179.921 329.078L175.072 328.908Z" fill="white" stroke="#263238" stroke-linecap="round" stroke-linejoin="round"/>
<path d="M267.082 324.23L267.435 451.092C267.465 451.398 267.376 451.705 267.187 451.949C266.997 452.192 266.721 452.353 266.416 452.398C266.112 452.353 265.837 452.191 265.649 451.948C265.462 451.704 265.376 451.397 265.41 451.092L262.992 324.335L267.082 324.23Z" fill="white" stroke="#263238" stroke-linecap="round" stroke-linejoin="round"/>
<path d="M173.648 324.23L174.001 451.092C174.031 451.398 173.942 451.705 173.753 451.949C173.563 452.192 173.287 452.353 172.982 452.398C172.678 452.353 172.403 452.191 172.215 451.948C172.028 451.704 171.942 451.397 171.975 451.092L169.558 324.335L173.648 324.23Z" fill="white" stroke="#263238" stroke-linecap="round" stroke-linejoin="round"/>
<path d="M264.456 328.908L264.861 474.274C264.902 474.636 264.801 475.001 264.58 475.291C264.358 475.581 264.032 475.773 263.672 475.829C263.321 475.777 263.002 475.595 262.779 475.319C262.556 475.043 262.446 474.693 262.469 474.339L259.634 329.078L264.456 328.908Z" fill="white" stroke="#263238" stroke-linecap="round" stroke-linejoin="round"/>
<path d="M219.124 339.088C251.24 339.088 277.275 333.138 277.275 325.798C277.275 318.458 251.24 312.508 219.124 312.508C187.008 312.508 160.972 318.458 160.972 325.798C160.972 333.138 187.008 339.088 219.124 339.088Z" fill="white" stroke="#263238" stroke-linecap="round" stroke-linejoin="round"/>
<path d="M190.806 438.612C190.806 438.612 187.761 442.976 189.944 445.146C192.126 447.315 194.295 446.452 194.073 448.635C193.851 450.817 190.375 458.213 187.33 466.054C184.285 473.895 190.597 481.735 196.477 479.566C202.358 477.397 201.705 455.6 202.567 451.68C203.429 447.759 204.096 447.106 203.874 443.408C203.652 439.709 203.443 435.789 200.607 435.345C197.771 434.901 192.113 437.096 190.806 438.612Z" fill="white" stroke="#263238" stroke-linecap="round" stroke-linejoin="round"/>
<path d="M200.149 473.555C196.229 472.065 190.218 472.366 186.833 472.705C187.97 477.632 192.322 481.095 196.477 479.566C198.215 478.926 199.352 476.6 200.149 473.555Z" fill="#92E3A9" stroke="#263238" stroke-linecap="round" stroke-linejoin="round"/>
<path d="M184.063 429.033C184.063 429.033 190.375 439.709 192.113 442.532C193.851 445.355 199.744 444.492 200.398 440.572C201.051 436.652 197.993 425.766 197.993 425.766L184.926 429.033H184.063Z" fill="white" stroke="#263238" stroke-linecap="round" stroke-linejoin="round"/>
<path d="M169.035 412.045C169.035 412.045 167.284 414.881 168.16 416.841C169.035 418.801 171.427 424.459 172.956 427.295C174.484 430.131 181.45 431.869 189.499 430.562C197.549 429.255 202.136 425.544 202.358 422.277C202.58 419.01 201.051 414.659 199.953 409.432C198.856 404.204 196.033 404.427 192.113 404.427C188.193 404.427 172.302 409 169.035 412.045Z" fill="#92E3A9" stroke="#263238" stroke-linecap="round" stroke-linejoin="round"/>
<path d="M192.557 348.013C192.675 342.656 195.772 340.016 196.007 336.344C196.376 331.489 195.974 326.607 194.818 321.878L188.859 313.737C171.714 313.959 159.43 314.246 159.234 314.312C158.581 314.521 158.137 318.232 157.706 321.277C157.706 321.277 150.427 322.205 151.734 342.46C151.917 345.282 159.261 377.938 159.796 381.663C163.063 404.414 170.342 415.809 170.342 415.809C170.342 415.809 170.995 418.644 179.489 417.991C187.983 417.338 196.477 411.679 196.477 411.679C196.477 411.679 192.113 367.393 192.557 348.013Z" fill="#263238" stroke="#263238" stroke-linecap="round" stroke-linejoin="round"/>
<path d="M156.529 317.958C156.529 317.958 147.526 319.264 142.011 325.563C136.497 331.862 141.175 336.017 151.89 334.893C162.606 333.769 174.968 322.806 175.491 322.218C176.013 321.63 164.318 314.181 156.529 317.958Z" fill="white" stroke="#263238" stroke-linecap="round" stroke-linejoin="round"/>
<path d="M172.511 321.878C178.248 322.173 183.939 323.049 189.499 324.491C196.909 326.674 209.976 331.025 213.021 331.025C216.066 331.025 215.203 319.696 215.203 317.526C215.203 315.357 176 314.037 171.204 314.037C166.409 314.037 172.511 321.878 172.511 321.878Z" fill="white" stroke="#263238" stroke-linecap="round" stroke-linejoin="round"/>
<path d="M215.204 317.526C215.204 317.526 211.714 319.264 210.408 325.798C209.101 332.332 207.363 335.821 209.976 337.559C212.59 339.297 223.92 340.604 225.658 338.866C227.396 337.128 232.192 328.412 233.067 322.754C233.943 317.095 215.204 317.526 215.204 317.526Z" fill="#92E3A9" stroke="#263238" stroke-linecap="round" stroke-linejoin="round"/>
<path d="M230.009 319.696C227.984 322.02 226.366 324.671 225.226 327.536C224.303 330.535 223.574 333.591 223.044 336.684C227.213 337.826 231.289 339.285 235.236 341.048C242.214 344.093 253.975 346.275 265.292 348.889C276.609 351.502 279.666 354.116 283.587 354.116C287.507 354.116 292.303 351.058 298.406 343.662C304.508 336.265 299.268 320.571 293.179 315.775C287.089 310.979 254.407 307.072 250.055 308.379C245.704 309.686 230.009 319.696 230.009 319.696Z" fill="#263238" stroke="#263238" stroke-linecap="round" stroke-linejoin="round"/>
<path d="M148.284 335.011C147.423 331.102 145.68 327.441 143.187 324.308C142.782 324.687 142.39 325.079 142.011 325.511C137.163 331.025 140.195 334.946 148.284 335.011Z" fill="#92E3A9" stroke="#263238" stroke-linecap="round" stroke-linejoin="round"/>
<path d="M191.891 338.461C191.891 338.461 187.395 386.563 178.222 394.051" stroke="white" stroke-width="0.5" stroke-linecap="round" stroke-linejoin="round"/>
<path d="M188.715 384.119C188.715 384.119 185.148 399.801 175.791 406.034" stroke="white" stroke-width="0.5" stroke-linecap="round" stroke-linejoin="round"/>
<path d="M246.566 329.719C246.566 329.719 232.623 330.594 241.77 336.684C250.917 342.773 267.474 346.707 267.474 346.707" stroke="white" stroke-width="0.5" stroke-linecap="round" stroke-linejoin="round"/>
<path d="M347.788 313.24L343.084 309.006L332.212 285.484C331.696 284.414 330.886 283.513 329.877 282.886C328.869 282.259 327.702 281.932 326.514 281.943H115.34C114.15 281.929 112.981 282.255 111.969 282.882C110.958 283.51 110.146 284.412 109.629 285.484L96.0781 314.782L93.8436 313.959V320.663L93.9481 320.584C94.0812 321.479 94.5352 322.294 95.2253 322.878C95.9153 323.463 96.7945 323.776 97.6985 323.76H344.143C345.095 323.782 346.018 323.433 346.718 322.787C347.418 322.14 347.839 321.248 347.893 320.297L347.788 313.24Z" fill="#263238" stroke="#263238" stroke-linecap="round" stroke-linejoin="round"/>
<path d="M344.143 317.631H97.6986C97.0883 317.655 96.4818 317.524 95.936 317.25C95.3903 316.976 94.9231 316.567 94.5783 316.063C94.2335 315.559 94.0224 314.976 93.9647 314.368C93.9071 313.759 94.0048 313.147 94.2487 312.587L109.629 279.356C110.144 278.281 110.955 277.377 111.967 276.75C112.979 276.122 114.149 275.797 115.34 275.814H326.514C327.703 275.8 328.871 276.126 329.88 276.753C330.889 277.381 331.699 278.283 332.212 279.356L347.592 312.587C347.836 313.147 347.934 313.759 347.876 314.368C347.819 314.976 347.608 315.559 347.263 316.063C346.918 316.567 346.451 316.976 345.905 317.25C345.359 317.524 344.753 317.655 344.143 317.631Z" fill="white" stroke="#263238" stroke-linecap="round" stroke-linejoin="round"/>
<g style="mix-blend-mode:multiply" opacity="0.5">
<path d="M110.178 295.311C110.178 295.311 104.598 299.14 108.087 300.538C111.576 301.937 151.681 300.891 156.569 299.493C161.456 298.095 167.023 285.197 167.023 283.106C167.023 281.015 159.992 279.512 157.405 279.395C154.818 279.277 120.632 281.355 120.632 281.355L110.178 295.311Z" fill="#92E3A9"/>
</g>
<g style="mix-blend-mode:multiply" opacity="0.5">
<path d="M309.67 301.937C317.565 301.937 323.966 299.28 323.966 296.004C323.966 292.727 317.565 290.071 309.67 290.071C301.774 290.071 295.374 292.727 295.374 296.004C295.374 299.28 301.774 301.937 309.67 301.937Z" fill="#92E3A9"/>
</g>
<g style="mix-blend-mode:multiply" opacity="0.5">
<path d="M218.653 309.267C246.966 309.267 269.918 304.973 269.918 299.676C269.918 294.378 246.966 290.084 218.653 290.084C190.341 290.084 167.389 294.378 167.389 299.676C167.389 304.973 190.341 309.267 218.653 309.267Z" fill="#92E3A9"/>
</g>
<path d="M299.216 272.665C299.216 272.665 298.275 268.914 295.152 270.169C292.029 271.423 292.342 279.708 292.956 284.4C293.571 289.091 297.804 286.896 297.804 286.896V284.086C297.804 284.086 296.249 285.328 295.465 283.616C294.681 281.904 294.838 273.292 295.622 273.449C296.406 273.606 297.961 276.259 297.961 276.259C297.961 276.259 298.432 275.958 299.216 272.665Z" fill="#92E3A9" stroke="#263238" stroke-linecap="round" stroke-linejoin="round"/>
<path d="M296.968 273.292V293.835C296.968 296.252 302.522 298.212 309.382 298.212C316.243 298.212 321.784 296.252 321.784 293.835V273.292H296.968Z" fill="#92E3A9" stroke="#263238" stroke-linecap="round" stroke-linejoin="round"/>
<path d="M321.784 273.292C321.784 275.383 316.23 277.069 309.382 277.069C302.535 277.069 296.968 275.383 296.968 273.292C296.968 271.201 302.522 269.516 309.382 269.516C316.243 269.516 321.784 271.214 321.784 273.292Z" fill="white" stroke="#263238" stroke-linecap="round" stroke-linejoin="round"/>
<path d="M320.163 273.292C320.163 275.109 315.328 276.572 309.382 276.572C303.437 276.572 298.589 275.109 298.589 273.292C298.589 271.476 303.424 270.012 309.382 270.012C315.341 270.012 320.163 271.476 320.163 273.292Z" fill="white" stroke="#263238" stroke-linecap="round" stroke-linejoin="round"/>
<path d="M301.058 275.383C306.49 276.968 312.262 276.968 317.693 275.383C312.262 273.798 306.49 273.798 301.058 275.383Z" fill="#263238" stroke="#263238" stroke-linecap="round" stroke-linejoin="round"/>
<path d="M108.636 282.675L108.793 289.705L156.163 290.176V282.047L108.636 282.675Z" fill="white" stroke="#263238" stroke-linecap="round" stroke-linejoin="round"/>
<path d="M156.163 290.176L163.05 275.331V270.953L155.85 283.459L156.163 290.176Z" fill="white" stroke="#263238" stroke-linecap="round" stroke-linejoin="round"/>
<path d="M108.636 289.078L108.793 296.121L156.163 296.592V288.464L108.636 289.078Z" fill="white" stroke="#263238" stroke-linecap="round" stroke-linejoin="round"/>
<path d="M156.163 296.592L163.05 281.734V277.356L155.85 289.862L156.163 296.592Z" fill="white" stroke="#263238" stroke-linecap="round" stroke-linejoin="round"/>
<path d="M126.931 264.85C126.931 264.85 128.029 262.668 126.461 261.727C124.893 260.786 123.181 263.034 122.24 263.753C121.299 264.471 101.606 277.513 100.979 279.552C100.351 281.59 100.979 286.085 105.199 286.582C109.42 287.079 113.171 284.243 115.053 283.772C116.934 283.302 117.666 283.145 117.666 283.145L130.642 265.634L126.931 264.85Z" fill="white" stroke="#263238" stroke-linecap="round" stroke-linejoin="round"/>
<path d="M105.199 286.595C109.42 287.066 113.171 284.256 115.052 283.786C116.934 283.315 117.666 283.158 117.666 283.158L118.136 282.518L105.944 280.035C105.281 279.411 104.429 279.025 103.523 278.94C102.616 278.855 101.707 279.075 100.939 279.565C100.351 281.577 100.979 286.112 105.199 286.595Z" fill="white" stroke="#263238" stroke-linecap="round" stroke-linejoin="round"/>
<path d="M105.983 280.061H142.573C153.994 280.061 157.431 279.434 157.431 279.434L164.461 264.89C164.461 264.89 142.246 266.301 135.386 265.83C132.551 265.749 129.727 265.434 126.944 264.89L105.983 280.061Z" fill="white" stroke="#263238" stroke-linecap="round" stroke-linejoin="round"/>
<path d="M105.983 280.061L106.611 282.871C106.611 282.871 136.314 283.028 144.128 283.028C151.943 283.028 157.888 283.341 157.888 283.341L157.418 279.421L105.983 280.061Z" fill="white" stroke="#263238" stroke-linecap="round" stroke-linejoin="round"/>
<path d="M157.888 283.302L164.448 268.287V264.85L157.418 279.395L157.888 283.302Z" fill="white" stroke="#263238" stroke-linecap="round" stroke-linejoin="round"/>
<path d="M263.423 300.865H173.844C173.646 300.867 173.449 300.829 173.265 300.754C173.081 300.68 172.914 300.569 172.773 300.43C172.632 300.29 172.52 300.124 172.444 299.94C172.368 299.757 172.328 299.561 172.328 299.362C172.328 299.164 172.368 298.967 172.444 298.784C172.52 298.601 172.632 298.435 172.773 298.295C172.914 298.155 173.081 298.045 173.265 297.97C173.449 297.895 173.646 297.858 173.844 297.859H263.423C263.621 297.858 263.817 297.895 264 297.97C264.184 298.045 264.35 298.156 264.49 298.296C264.63 298.436 264.74 298.602 264.815 298.785C264.89 298.968 264.928 299.164 264.926 299.362C264.928 299.56 264.89 299.756 264.815 299.939C264.74 300.123 264.63 300.289 264.49 300.429C264.35 300.569 264.184 300.679 264 300.754C263.817 300.829 263.621 300.867 263.423 300.865Z" fill="white" stroke="#263238" stroke-linecap="round" stroke-linejoin="round"/>
<path d="M264.181 297.833H173.073C172.74 297.834 172.419 297.707 172.176 297.479C171.933 297.25 171.786 296.938 171.766 296.605L166.814 237.082C166.791 236.897 166.809 236.71 166.864 236.533C166.92 236.356 167.013 236.193 167.136 236.054C167.26 235.916 167.412 235.805 167.581 235.73C167.751 235.655 167.935 235.617 168.12 235.618H269.147C269.333 235.617 269.516 235.655 269.686 235.73C269.856 235.805 270.008 235.916 270.131 236.054C270.255 236.193 270.348 236.356 270.403 236.533C270.459 236.71 270.476 236.897 270.454 237.082L265.501 296.605C265.481 296.94 265.333 297.255 265.087 297.483C264.841 297.712 264.517 297.837 264.181 297.833Z" fill="white" stroke="#263238" stroke-linecap="round" stroke-linejoin="round"/>
<path d="M227.226 267.751C227.226 271.306 223.371 274.181 218.627 274.181C213.884 274.181 210.016 271.306 210.016 267.751C210.016 264.197 213.87 261.335 218.627 261.335C223.384 261.335 227.226 264.21 227.226 267.751Z" fill="white" stroke="#263238" stroke-linecap="round" stroke-linejoin="round"/>
<path d="M316.256 221.256C317.654 220.166 318.636 218.631 319.04 216.905C319.333 215.611 319.302 214.264 318.948 212.985" stroke="#263238" stroke-linecap="round" stroke-linejoin="round"/>
<path d="M305.828 267.856C305.828 267.856 314.518 262.629 311.682 256.657C308.847 250.685 299.255 246.725 299.255 237.421C299.255 229.398 307.788 226.431 313.355 223.217" stroke="#263238" stroke-linecap="round" stroke-linejoin="round"/>
<path d="M313.852 267.686C313.852 267.686 318.7 264.458 318.7 259.336C318.7 255.899 315.028 253.651 310.18 248.124" stroke="#263238" stroke-linecap="round" stroke-linejoin="round"/>
<path d="M307.501 244.778C307.501 244.778 304.325 242.282 306.664 237.591" stroke="#263238" stroke-linecap="round" stroke-linejoin="round"/>
<path d="M233.929 107.894C235.485 107.567 238.817 106.287 241.064 101.073C241.099 100.994 241.118 100.909 241.119 100.823C241.121 100.737 241.106 100.651 241.074 100.571C241.042 100.491 240.995 100.418 240.935 100.356C240.875 100.294 240.804 100.244 240.725 100.21C240.565 100.144 240.386 100.142 240.225 100.206C240.064 100.269 239.934 100.393 239.862 100.55C237.798 105.333 234.844 106.391 233.616 106.627C235.814 103.966 237.028 100.629 237.053 97.1786C237.053 88.1096 228.65 80.7655 218.287 80.7655C207.925 80.7655 199.522 88.1096 199.522 97.1786C199.529 100.49 200.632 103.707 202.658 106.326C200.685 106.221 197.353 107.058 193.132 111.984C193.012 112.109 192.944 112.275 192.944 112.448C192.944 112.621 193.012 112.788 193.132 112.912C193.253 113.013 193.406 113.068 193.563 113.069C193.658 113.069 193.752 113.048 193.838 113.007C193.924 112.967 194 112.907 194.06 112.834C199.457 106.548 203.024 107.607 203.743 107.894C202.523 108.565 201.379 109.367 200.332 110.285C194.308 115.709 190.636 125.967 191.107 134.513C191.635 140.181 193.69 145.6 197.052 150.194C201.428 147.063 205.056 143.002 207.676 138.303C209.629 134.851 211.375 131.286 212.904 127.626C212.904 131.455 213.4 136.081 215.413 139.387C216.864 141.999 218.991 144.172 221.57 145.68C224.15 147.188 227.087 147.975 230.074 147.96C231.106 147.975 232.136 147.874 233.145 147.659C233.234 147.637 233.317 147.596 233.389 147.54C233.461 147.484 233.521 147.413 233.564 147.332C238.608 148.404 243.626 148.313 244.397 147.241C245.638 145.529 247.402 140.184 247.99 133.651C249.062 122.569 242.084 112.951 233.929 107.894ZM216.628 138.59C214.093 134.448 214.171 127.692 214.472 123.811L214.642 123.366C214.762 127.358 215.78 131.271 217.619 134.816C219.458 138.361 222.071 141.446 225.266 143.843C227.03 145.063 228.987 145.977 231.055 146.548C227.853 146.771 221.267 146.156 216.628 138.59Z" fill="#263238"/>
<path d="M216.85 118.021C216.85 118.021 215.778 125.941 225.841 133.703C235.903 141.465 245.442 138.407 245.442 138.407" stroke="white" stroke-width="0.5" stroke-linecap="round" stroke-linejoin="round"/>
<path d="M218.327 115.408C218.327 115.408 228.924 130.841 243.56 126.816" stroke="white" stroke-width="0.5" stroke-linecap="round" stroke-linejoin="round"/>
<path d="M213.086 110.272C211.415 109.424 209.543 109.051 207.674 109.193C205.805 109.336 204.011 109.99 202.489 111.083C196.856 114.833 194.034 123.693 194.034 123.693" stroke="white" stroke-width="0.5" stroke-linecap="round" stroke-linejoin="round"/>
<path d="M213.361 114.572C213.361 114.572 208.8 113.356 205.978 116.179C204.602 117.426 203.425 118.876 202.489 120.478" stroke="white" stroke-width="0.5" stroke-linecap="round" stroke-linejoin="round"/>
</g>
<defs>
<clipPath id="clip0">
<rect width="1440" height="4000" fill="white" transform="translate(-913 -1051)"/>
</clipPath>
</defs>
</svg>
