<svg width="527" height="824" viewBox="0 0 527 824" fill="none" xmlns="http://www.w3.org/2000/svg">
<path fill-rule="evenodd" clip-rule="evenodd" d="M449.475 0.59521C504.443 3.49648 553.385 26.1816 602.407 51.2166C661.201 81.2424 729.581 102.644 761.957 160.177C797.207 222.818 803.657 301.212 781.583 369.617C759.487 438.091 710.012 501.685 643.165 528.299C581.105 553.008 516.17 498.136 449.475 501.841C375.92 505.927 297.92 595.595 239.493 550.725C180.458 505.387 245.015 405.955 229.754 333.101C217.137 272.867 148.131 227.93 159.196 167.391C170.415 106.016 230.249 65.5139 284.347 34.429C334.285 5.73388 391.959 -2.44054 449.475 0.59521Z" fill="#E8FFEE"/>
<path d="M217.02 823.394C314.602 823.394 393.708 807.574 393.708 788.059C393.708 768.544 314.602 752.724 217.02 752.724C119.437 752.724 40.3312 768.544 40.3312 788.059C40.3312 807.574 119.437 823.394 217.02 823.394Z" fill="#92E3A9"/>
<path opacity="0.5" d="M217.02 823.394C314.602 823.394 393.708 807.574 393.708 788.059C393.708 768.544 314.602 752.724 217.02 752.724C119.437 752.724 40.3312 768.544 40.3312 788.059C40.3312 807.574 119.437 823.394 217.02 823.394Z" fill="white"/>
<path d="M404.594 318H277.197C272.845 318 269.317 321.528 269.317 325.88V466.319C269.317 470.671 272.845 474.198 277.197 474.198H404.594C408.946 474.198 412.474 470.671 412.474 466.319V325.88C412.474 321.528 408.946 318 404.594 318Z" fill="white" stroke="#263238" stroke-linecap="round" stroke-linejoin="round"/>
<path d="M277.197 318H404.581C406.66 318 408.655 318.826 410.125 320.297C411.595 321.767 412.421 323.761 412.421 325.841V334.021H269.317V325.88C269.312 324.844 269.512 323.817 269.906 322.858C270.3 321.9 270.881 321.029 271.613 320.296C272.346 319.564 273.217 318.983 274.175 318.589C275.133 318.195 276.16 317.995 277.197 318Z" fill="#263238" stroke="#263238" stroke-linecap="round" stroke-linejoin="round"/>
<path d="M277.118 401.398H334.721" stroke="#263238" stroke-linecap="round" stroke-linejoin="round"/>
<path d="M277.118 408.834H334.721" stroke="#263238" stroke-linecap="round" stroke-linejoin="round"/>
<path d="M277.118 416.269H334.721" stroke="#263238" stroke-linecap="round" stroke-linejoin="round"/>
<path d="M277.118 423.705H334.721" stroke="#263238" stroke-linecap="round" stroke-linejoin="round"/>
<path d="M277.118 431.14H334.721" stroke="#263238" stroke-linecap="round" stroke-linejoin="round"/>
<path d="M277.118 438.589H334.721" stroke="#263238" stroke-linecap="round" stroke-linejoin="round"/>
<path d="M277.118 446.025H334.721" stroke="#263238" stroke-linecap="round" stroke-linejoin="round"/>
<path d="M277.118 453.46H334.721" stroke="#263238" stroke-linecap="round" stroke-linejoin="round"/>
<path d="M277.118 460.896H334.721" stroke="#263238" stroke-linecap="round" stroke-linejoin="round"/>
<path d="M344.848 401.398H402.451" stroke="#263238" stroke-linecap="round" stroke-linejoin="round"/>
<path d="M344.848 408.834H402.451" stroke="#263238" stroke-linecap="round" stroke-linejoin="round"/>
<path d="M344.848 416.269H402.451" stroke="#263238" stroke-linecap="round" stroke-linejoin="round"/>
<path d="M344.848 423.705H402.451" stroke="#263238" stroke-linecap="round" stroke-linejoin="round"/>
<path d="M344.848 431.14H402.451" stroke="#263238" stroke-linecap="round" stroke-linejoin="round"/>
<path d="M344.848 438.589H402.451" stroke="#263238" stroke-linecap="round" stroke-linejoin="round"/>
<path d="M344.848 446.025H402.451" stroke="#263238" stroke-linecap="round" stroke-linejoin="round"/>
<path d="M344.848 453.46H402.451" stroke="#263238" stroke-linecap="round" stroke-linejoin="round"/>
<path d="M344.848 460.896H402.451" stroke="#263238" stroke-linecap="round" stroke-linejoin="round"/>
<path d="M315.642 354.315C315.926 353.432 316.076 352.512 316.086 351.584C316.086 348.2 312.649 348.004 309.278 348.004H308.429V347.207H323.143V348.004C319.314 348.004 317.916 350.447 316.727 354.067L308.886 377.471C308.298 379.209 307.801 380.503 305.959 380.503H305.802L298.902 358.144L292.486 377.524C291.885 379.262 291.388 380.555 289.546 380.555H289.402L279.366 348.004H275.838V347.207H288.749V348.004H285.077L292.525 373.643H292.826L298.445 356.615L295.831 348.069H292.303V347.207H305.227V348.004H301.555L309.004 373.643H309.291L315.642 354.315Z" fill="#92E3A9"/>
<path d="M402.856 339.797H343.581V393.375H402.856V339.797Z" fill="#92E3A9" stroke="#263238" stroke-width="2" stroke-linecap="round" stroke-linejoin="round"/>
<path d="M402.856 362.195C400.868 362.308 398.892 362.584 396.949 363.018C387.945 364.978 385.593 377.902 375.414 377.902C366.397 377.902 365.626 365.763 352.702 364.194C349.557 363.699 346.337 364.27 343.554 365.815V393.375H402.856V362.195Z" fill="#263238" stroke="#263238" stroke-linecap="round" stroke-linejoin="round"/>
<path d="M363.274 352.055C363.276 353.374 362.887 354.664 362.156 355.762C361.425 356.86 360.384 357.716 359.166 358.222C357.947 358.728 356.606 358.861 355.312 358.605C354.018 358.348 352.83 357.713 351.897 356.78C350.964 355.847 350.329 354.659 350.072 353.365C349.815 352.071 349.948 350.729 350.455 349.511C350.961 348.293 351.817 347.252 352.915 346.521C354.013 345.79 355.303 345.401 356.622 345.403C358.386 345.403 360.078 346.104 361.326 347.351C362.573 348.599 363.274 350.29 363.274 352.055Z" fill="white" stroke="#263238" stroke-linecap="round" stroke-linejoin="round"/>
<path d="M405.561 322.691H273.616V327.775H405.561V322.691Z" fill="white" stroke="#263238" stroke-linecap="round" stroke-linejoin="round"/>
<path d="M397.328 505.365H340.209C337.963 505.365 335.81 506.257 334.221 507.845C332.633 509.433 331.741 511.587 331.741 513.833V544.385C331.741 546.631 332.633 548.785 334.221 550.373C335.81 551.961 337.963 552.853 340.209 552.853H341.96C340.183 556.773 336.733 562.785 331.284 566.352C331.284 566.352 342.875 565.542 354.95 552.853H397.302C399.548 552.853 401.702 551.961 403.29 550.373C404.878 548.785 405.77 546.631 405.77 544.385V513.833C405.77 511.592 404.881 509.442 403.299 507.854C401.717 506.267 399.569 505.372 397.328 505.365Z" fill="#263238" stroke="#263238" stroke-linecap="round" stroke-linejoin="round"/>
<path d="M358.948 528.024C358.951 527.16 358.697 526.314 358.218 525.595C357.74 524.875 357.058 524.313 356.26 523.981C355.462 523.649 354.583 523.562 353.735 523.73C352.888 523.898 352.109 524.314 351.497 524.925C350.886 525.536 350.47 526.315 350.302 527.163C350.134 528.011 350.222 528.89 350.554 529.688C350.886 530.486 351.447 531.167 352.167 531.646C352.887 532.124 353.732 532.379 354.597 532.376C355.75 532.372 356.855 531.913 357.67 531.098C358.485 530.282 358.945 529.177 358.948 528.024Z" fill="#92E3A9" stroke="#263238" stroke-linecap="round" stroke-linejoin="round"/>
<path d="M373.754 528.024C373.754 527.164 373.499 526.322 373.021 525.607C372.542 524.891 371.863 524.333 371.068 524.004C370.273 523.675 369.398 523.589 368.554 523.756C367.709 523.924 366.934 524.339 366.325 524.947C365.717 525.556 365.302 526.331 365.135 527.175C364.967 528.02 365.053 528.895 365.382 529.69C365.712 530.485 366.269 531.164 366.985 531.643C367.7 532.121 368.542 532.376 369.402 532.376C370.555 532.372 371.66 531.913 372.476 531.098C373.291 530.282 373.751 529.177 373.754 528.024Z" fill="#92E3A9" stroke="#263238" stroke-linecap="round" stroke-linejoin="round"/>
<path d="M388.573 528.024C388.575 527.161 388.322 526.315 387.844 525.596C387.366 524.877 386.685 524.315 385.888 523.983C385.09 523.65 384.212 523.562 383.365 523.729C382.517 523.896 381.738 524.311 381.127 524.92C380.515 525.53 380.098 526.308 379.928 527.155C379.759 528.002 379.845 528.88 380.175 529.679C380.505 530.477 381.064 531.159 381.782 531.639C382.5 532.12 383.344 532.376 384.208 532.376C385.362 532.373 386.469 531.913 387.286 531.098C388.103 530.283 388.566 529.179 388.573 528.024Z" fill="#92E3A9" stroke="#263238" stroke-linecap="round" stroke-linejoin="round"/>
<path d="M83.2195 336.53H177.307C179.546 336.53 181.693 337.42 183.276 339.003C184.859 340.586 185.749 342.733 185.749 344.972V410.193H74.817V344.972C74.8169 342.74 75.7009 340.599 77.2756 339.016C78.8503 337.434 80.9874 336.541 83.2195 336.53Z" fill="#92E3A9" stroke="#263238" stroke-linecap="round" stroke-linejoin="round"/>
<path d="M185.697 399.673H74.817V410.154H185.697V399.673Z" fill="#263238" stroke="#263238" stroke-linecap="round" stroke-linejoin="round"/>
<path d="M180.626 403.254H79.9003V406.573H180.626V403.254Z" fill="white" stroke="#263238" stroke-linecap="round" stroke-linejoin="round"/>
<path d="M130.263 385.273C138.722 385.273 145.579 378.416 145.579 369.957C145.579 361.499 138.722 354.642 130.263 354.642C121.805 354.642 114.948 361.499 114.948 369.957C114.948 378.416 121.805 385.273 130.263 385.273Z" fill="#263238" stroke="#263238" stroke-linecap="round" stroke-linejoin="round"/>
<path d="M123.35 360.431L139.881 369.97L123.35 379.51V360.431Z" fill="white" stroke="#263238" stroke-linecap="round" stroke-linejoin="round"/>
<path d="M137.738 436.982H32.5037C30.4685 436.982 28.8186 438.632 28.8186 440.667V480.772C28.8186 482.807 30.4685 484.457 32.5037 484.457H137.738C139.773 484.457 141.423 482.807 141.423 480.772V440.667C141.423 438.632 139.773 436.982 137.738 436.982Z" fill="#263238" stroke="#263238" stroke-linecap="round" stroke-linejoin="round"/>
<path d="M42.2261 443.45L42.7749 444.365C40.2921 445.75 37.9791 448.181 37.9791 451.029C37.9473 451.519 38.0135 452.01 38.1739 452.473C38.3342 452.937 38.5854 453.363 38.9128 453.728C39.2402 454.094 39.6371 454.39 40.0804 454.599C40.5237 454.809 41.0044 454.928 41.4943 454.95C41.8602 454.95 42.1085 454.767 42.1085 454.401C42.1085 454.035 41.9255 453.917 41.5596 453.852C41.0662 453.718 40.6363 453.414 40.3467 452.992C40.0571 452.571 39.9266 452.061 39.9785 451.552C39.988 451.146 40.0799 450.747 40.2487 450.378C40.4175 450.009 40.6596 449.678 40.9603 449.405C41.261 449.133 41.614 448.924 41.9979 448.792C42.3817 448.66 42.7884 448.608 43.1931 448.638C43.6334 448.64 44.0689 448.729 44.4739 448.902C44.8789 449.075 45.2451 449.327 45.5509 449.644C45.8567 449.961 46.0959 450.336 46.2543 450.746C46.4127 451.157 46.4871 451.596 46.4731 452.036C46.4667 452.589 46.3489 453.135 46.1268 453.641C45.9047 454.148 45.5827 454.604 45.1802 454.984C44.7777 455.363 44.3029 455.657 43.7841 455.849C43.2653 456.041 42.7132 456.126 42.1608 456.1C41.4739 456.144 40.7854 456.044 40.1399 455.805C39.4943 455.567 38.906 455.195 38.4132 454.715C37.9204 454.234 37.5341 453.655 37.2792 453.016C37.0243 452.377 36.9066 451.691 36.9337 451.003C36.8945 447.697 39.4427 445.031 42.2261 443.45ZM53.4513 443.45L54.0001 444.365C51.5042 445.75 49.2043 448.181 49.2043 451.029C49.1707 451.519 49.2356 452.011 49.3953 452.475C49.5549 452.939 49.806 453.367 50.1337 453.732C50.4615 454.098 50.8592 454.394 51.3033 454.603C51.7474 454.812 52.229 454.93 52.7195 454.95C53.0854 454.95 53.3336 454.767 53.3336 454.401C53.3336 454.035 53.1507 453.917 52.7848 453.852C52.2914 453.718 51.8615 453.414 51.5719 452.992C51.2823 452.571 51.1517 452.061 51.2036 451.552C51.2113 451.146 51.3019 450.745 51.4701 450.375C51.6383 450.005 51.8804 449.674 52.1815 449.401C52.4826 449.128 52.8363 448.919 53.221 448.788C53.6057 448.657 54.0131 448.606 54.4183 448.638C54.8586 448.64 55.2941 448.729 55.699 448.902C56.104 449.075 56.4703 449.327 56.7761 449.644C57.0819 449.961 57.321 450.336 57.4794 450.746C57.6378 451.157 57.7122 451.596 57.6983 452.036C57.6901 452.588 57.5711 453.133 57.3483 453.639C57.1256 454.145 56.8036 454.601 56.4015 454.98C55.9993 455.359 55.5252 455.653 55.0072 455.845C54.4893 456.038 53.9379 456.124 53.3859 456.1C52.6996 456.142 52.012 456.04 51.3673 455.801C50.7227 455.562 50.1352 455.19 49.6429 454.71C49.1505 454.23 48.7641 453.652 48.5085 453.014C48.2529 452.375 48.1338 451.691 48.1588 451.003C48.1066 447.697 50.6548 445.031 53.4513 443.45Z" fill="#92E3A9"/>
<path d="M64.1929 453.12H128.277" stroke="white" stroke-linecap="round" stroke-linejoin="round"/>
<path d="M64.1929 458.622H128.277" stroke="white" stroke-linecap="round" stroke-linejoin="round"/>
<path d="M64.1929 464.123H128.277" stroke="white" stroke-linecap="round" stroke-linejoin="round"/>
<path d="M64.1929 469.638H128.277" stroke="white" stroke-linecap="round" stroke-linejoin="round"/>
<path d="M116.938 558.066C130.166 555.907 139.138 543.435 136.979 530.208C134.82 516.98 122.347 508.008 109.12 510.167C95.8932 512.326 86.9206 524.799 89.0795 538.026C91.2384 551.253 103.711 560.225 116.938 558.066Z" fill="#263238" stroke="#263238" stroke-linecap="round" stroke-linejoin="round"/>
<path d="M128.421 547.657C135.884 539.159 135.045 526.221 126.548 518.758C118.05 511.296 105.112 512.135 97.6492 520.632C90.1866 529.13 91.0255 542.068 99.523 549.53C108.021 556.993 120.959 556.154 128.421 547.657Z" fill="white" stroke="#263238" stroke-linecap="round" stroke-linejoin="round"/>
<path d="M113.04 519.308V534.114H123.05" stroke="#263238" stroke-width="2" stroke-linecap="round" stroke-linejoin="round"/>
<path d="M264.861 534.166C264.861 534.166 278.778 563.869 278.778 565.437C278.778 567.005 266.429 573.722 264.077 575.134C262.252 576.173 260.372 577.111 258.444 577.943L259.856 591.703C259.856 591.703 281.117 586.855 290.029 582.007C298.941 577.159 298.628 571.684 296.563 563.556C294.498 555.427 280.764 524.013 280.764 524.013L264.861 534.166Z" fill="white"/>
<g style="mix-blend-mode:multiply" opacity="0.5">
<path d="M289.99 582.007C298.902 577.159 298.589 571.684 296.524 563.556C294.459 555.427 280.725 524.013 280.725 524.013L278.503 525.424L277.798 526.731C277.798 526.731 290.617 558.198 291.388 568.678C291.911 575.722 277.732 584.503 268.363 589.521C275.315 587.679 284.776 584.843 289.99 582.007Z" fill="#92E3A9"/>
</g>
<path d="M264.861 534.166C264.861 534.166 278.778 563.869 278.778 565.437C278.778 567.005 266.429 573.722 264.077 575.134C262.252 576.173 260.372 577.111 258.444 577.943L259.856 591.703C259.856 591.703 281.117 586.855 290.029 582.007C298.941 577.159 298.628 571.684 296.563 563.556C294.498 555.427 280.764 524.013 280.764 524.013L264.861 534.166Z" stroke="#263238" stroke-linecap="round" stroke-linejoin="round"/>
<path d="M164.448 527.606C164.448 527.606 154.295 564.81 153.994 571.383C153.694 577.956 174.158 590.919 174.903 591.703C175.647 592.487 173.74 569.096 173.74 569.096L180.679 535.12L164.448 527.606Z" fill="white"/>
<g style="mix-blend-mode:multiply" opacity="0.5">
<path d="M169.101 530.651L168.878 529.645L164.448 527.606C164.448 527.606 154.295 564.81 153.994 571.383C153.694 577.956 174.158 590.919 174.903 591.703C175.203 592.017 175.086 588.515 174.837 584.19C168.748 579.028 160.005 571.762 158.986 568.704" fill="#92E3A9"/>
</g>
<path d="M164.448 527.606C164.448 527.606 154.295 564.81 153.994 571.383C153.694 577.956 174.158 590.919 174.903 591.703C175.647 592.487 173.74 569.096 173.74 569.096L180.679 535.12L164.448 527.606Z" stroke="#263238" stroke-linecap="round" stroke-linejoin="round"/>
<path d="M212.133 490.233C212.133 490.233 208.212 493.055 200.568 493.369C192.923 493.683 192.557 488.142 183.057 488.142C171.544 488.142 157.104 524.562 157.104 524.562C157.104 524.562 164.292 531.605 171.335 534.571C175.231 536.278 179.328 537.486 183.527 538.165L184.625 562.092H262.169L263.097 538.165L287.337 522.445C287.337 522.445 275.446 501.183 269.67 493.212C263.894 485.241 254.184 488.207 251.218 490.233C248.252 492.258 239.457 492.742 236.216 492.271C231.989 491.336 227.81 490.189 223.697 488.834C223.697 488.834 218.706 484.679 212.133 490.233Z" fill="#92E3A9" stroke="#263238" stroke-linecap="round" stroke-linejoin="round"/>
<path d="M184.311 498.674L183.998 538.387" stroke="#263238" stroke-width="0.5" stroke-linecap="round" stroke-linejoin="round"/>
<path d="M187.121 502.281C187.121 502.281 188.219 521.661 192.348 532.454" stroke="#263238" stroke-width="0.5" stroke-linecap="round" stroke-linejoin="round"/>
<path d="M193.067 534.01C193.959 536.644 195.055 539.204 196.347 541.667" stroke="#263238" stroke-width="0.5" stroke-linecap="round" stroke-linejoin="round"/>
<path d="M189.617 500.086C191.1 507.132 193.195 514.036 195.876 520.72" stroke="#263238" stroke-width="0.5" stroke-linecap="round" stroke-linejoin="round"/>
<path d="M257.02 503.522C257.02 503.522 253.27 518.851 249.977 525.738" stroke="#263238" stroke-width="0.5" stroke-linecap="round" stroke-linejoin="round"/>
<path d="M263.097 538.23L262.94 507.273" stroke="#263238" stroke-width="0.5" stroke-linecap="round" stroke-linejoin="round"/>
<path d="M261.385 507.9C261.385 507.9 258.562 527.502 251.688 537.76" stroke="#263238" stroke-width="0.5" stroke-linecap="round" stroke-linejoin="round"/>
<path d="M257.948 533.853C257.948 533.853 254.812 539.799 252.629 542.922" stroke="#263238" stroke-width="0.5" stroke-linecap="round" stroke-linejoin="round"/>
<path d="M207.755 492.585C207.755 492.585 209.95 506.032 213.073 512.905C216.196 519.779 221.672 521.19 226.363 519.165C231.054 517.139 234.491 507.116 234.204 494.336" stroke="#263238" stroke-width="0.5" stroke-linecap="round" stroke-linejoin="round"/>
<path d="M196.66 464.437C196.66 464.437 193.681 459.288 191.342 461.941C189.003 464.594 193.224 470.696 195.563 472.722C197.902 474.747 199.627 473.506 199.483 471.324C199.339 469.141 196.66 464.437 196.66 464.437Z" fill="#92E3A9" stroke="#263238" stroke-linecap="round" stroke-linejoin="round"/>
<path opacity="0.5" d="M196.66 464.437C196.66 464.437 193.681 459.288 191.342 461.941C189.003 464.594 193.224 470.696 195.563 472.722C197.902 474.747 199.627 473.506 199.483 471.324C199.339 469.141 196.66 464.437 196.66 464.437Z" fill="white"/>
<path d="M196.66 464.437C196.66 464.437 193.681 459.288 191.342 461.941C189.003 464.594 193.224 470.696 195.563 472.722C197.902 474.747 199.627 473.506 199.483 471.324C199.339 469.141 196.66 464.437 196.66 464.437Z" stroke="#263238" stroke-linecap="round" stroke-linejoin="round"/>
<path d="M243.952 464.437C243.952 464.437 246.919 459.288 249.271 461.941C251.623 464.594 247.389 470.696 245.05 472.722C242.711 474.747 240.973 473.506 241.13 471.324C241.287 469.141 243.952 464.437 243.952 464.437Z" fill="#92E3A9" stroke="#263238" stroke-linecap="round" stroke-linejoin="round"/>
<path opacity="0.5" d="M243.952 464.437C243.952 464.437 246.919 459.288 249.271 461.941C251.623 464.594 247.389 470.696 245.05 472.722C242.711 474.747 240.973 473.506 241.13 471.324C241.287 469.141 243.952 464.437 243.952 464.437Z" fill="white"/>
<path d="M243.952 464.437C243.952 464.437 246.919 459.288 249.271 461.941C251.623 464.594 247.389 470.696 245.05 472.722C242.711 474.747 240.973 473.506 241.13 471.324C241.287 469.141 243.952 464.437 243.952 464.437Z" stroke="#263238" stroke-linecap="round" stroke-linejoin="round"/>
<path d="M210.721 489.148C212.197 495.821 214.078 502.397 216.353 508.841C219.176 515.872 224.481 515.872 226.677 511.337C228.872 506.803 230.27 489.906 230.27 489.906C230.27 489.906 215.569 491.958 210.721 489.148Z" fill="white" stroke="#263238" stroke-linecap="round" stroke-linejoin="round"/>
<path d="M196.974 466.162C196.974 466.162 201.038 480.536 208.735 488.991C216.432 497.446 219.189 499.445 223.279 498.831C227.369 498.217 231.721 492.898 237.811 481.843C243.9 470.788 244.344 462.307 244.854 461.523C245.364 460.739 243.547 445.11 234.844 438.38C226.141 431.65 216.393 428.697 207.951 436.041C199.509 443.385 194.151 455.368 196.974 466.162Z" fill="white"/>
<g style="mix-blend-mode:multiply" opacity="0.5">
<path d="M234.805 438.328C226.05 431.611 216.353 428.644 207.912 435.989C199.47 443.333 194.151 455.368 196.974 466.162C196.974 466.162 197.745 468.932 199.274 472.696C199.269 472.214 199.335 471.734 199.47 471.271C201.339 465.352 206.853 453.891 225.409 459.145C240.15 463.3 238.346 476.263 236.974 483.176L237.771 481.739C243.874 470.644 244.305 462.202 244.815 461.418C245.324 460.634 243.56 445.058 234.805 438.328Z" fill="#92E3A9"/>
</g>
<path d="M196.974 466.162C196.974 466.162 201.038 480.536 208.735 488.991C216.432 497.446 219.189 499.445 223.279 498.831C227.369 498.217 231.721 492.898 237.811 481.843C243.9 470.788 244.344 462.307 244.854 461.523C245.364 460.739 243.547 445.11 234.844 438.38C226.141 431.65 216.393 428.697 207.951 436.041C199.509 443.385 194.151 455.368 196.974 466.162Z" stroke="#263238" stroke-linecap="round" stroke-linejoin="round"/>
<path d="M223.24 473.663C222.755 476.715 222.493 479.798 222.456 482.889C222.613 486.012 223.554 486.953 222.142 487.266C220.731 487.58 219.176 485.384 219.176 485.384" stroke="#263238" stroke-linecap="round" stroke-linejoin="round"/>
<path d="M207.598 476.172C208.504 476.826 209.586 477.191 210.703 477.219C211.821 477.247 212.92 476.937 213.857 476.329" stroke="#263238" stroke-linecap="round" stroke-linejoin="round"/>
<path d="M227.461 476.172C228.365 476.825 229.445 477.189 230.56 477.217C231.675 477.245 232.772 476.936 233.707 476.329" stroke="#263238" stroke-linecap="round" stroke-linejoin="round"/>
<path d="M217.582 470.905C217.582 470.905 214.602 463.548 204.762 466.985" stroke="#263238" stroke-linecap="round" stroke-linejoin="round"/>
<path d="M225.775 470.004C225.775 470.004 228.271 462.804 237.183 467.024" stroke="#263238" stroke-linecap="round" stroke-linejoin="round"/>
<path d="M219.477 476.708C219.477 480.733 214.864 483.986 209.166 483.986C203.469 483.986 198.843 480.733 198.843 476.708C198.843 472.683 203.155 471.01 208.853 471.01C214.55 471.01 219.477 472.696 219.477 476.708Z" stroke="#263238" stroke-linecap="round" stroke-linejoin="round"/>
<path d="M243.247 476.708C243.247 480.733 238.621 483.986 232.923 483.986C227.226 483.986 222.613 480.733 222.613 476.708C222.613 472.683 226.912 471.01 232.61 471.01C238.307 471.01 243.247 472.696 243.247 476.708Z" stroke="#263238" stroke-linecap="round" stroke-linejoin="round"/>
<path d="M111.485 602.066L110.845 760.486C110.845 760.985 111.043 761.464 111.396 761.817C111.749 762.17 112.227 762.368 112.726 762.368C113.213 762.368 113.681 762.178 114.03 761.839C114.379 761.5 114.581 761.038 114.595 760.551L119.117 602.288L111.485 602.066Z" fill="white" stroke="#263238" stroke-linecap="round" stroke-linejoin="round"/>
<path d="M100.822 639.1L100.208 802.878C100.206 803.125 100.253 803.371 100.347 803.6C100.441 803.829 100.58 804.037 100.755 804.212C100.93 804.387 101.138 804.526 101.367 804.62C101.596 804.714 101.842 804.761 102.089 804.759C102.575 804.76 103.042 804.572 103.393 804.236C103.744 803.9 103.951 803.441 103.971 802.956L108.479 639.309L100.822 639.1Z" fill="white" stroke="#263238" stroke-linecap="round" stroke-linejoin="round"/>
<path d="M330.5 602.066L331.14 760.486C331.142 760.733 331.095 760.977 331.002 761.205C330.909 761.433 330.771 761.641 330.597 761.816C330.424 761.991 330.217 762.13 329.99 762.224C329.762 762.319 329.518 762.368 329.271 762.368C328.784 762.368 328.315 762.179 327.963 761.84C327.612 761.501 327.407 761.039 327.39 760.551L322.881 602.288L330.5 602.066Z" fill="white" stroke="#263238" stroke-linecap="round" stroke-linejoin="round"/>
<path d="M341.176 639.1L341.817 802.878C341.818 803.125 341.771 803.371 341.677 803.6C341.583 803.829 341.444 804.037 341.269 804.212C341.094 804.387 340.886 804.526 340.657 804.62C340.428 804.714 340.182 804.761 339.935 804.759C339.45 804.76 338.985 804.572 338.636 804.235C338.287 803.899 338.083 803.44 338.066 802.956L333.545 639.309L341.176 639.1Z" fill="white" stroke="#263238" stroke-linecap="round" stroke-linejoin="round"/>
<path d="M175.072 645.908L174.694 791.274C174.652 791.636 174.753 792.001 174.975 792.291C175.196 792.581 175.522 792.773 175.883 792.829C176.235 792.78 176.555 792.598 176.779 792.322C177.002 792.045 177.112 791.694 177.085 791.339L179.921 646.078L175.072 645.908Z" fill="white" stroke="#263238" stroke-linecap="round" stroke-linejoin="round"/>
<path d="M267.082 641.23L267.435 768.092C267.465 768.398 267.376 768.705 267.187 768.949C266.997 769.192 266.721 769.353 266.416 769.398C266.112 769.353 265.837 769.191 265.649 768.948C265.462 768.704 265.376 768.397 265.41 768.092L262.992 641.335L267.082 641.23Z" fill="white" stroke="#263238" stroke-linecap="round" stroke-linejoin="round"/>
<path d="M173.648 641.23L174.001 768.092C174.031 768.398 173.942 768.705 173.753 768.949C173.563 769.192 173.287 769.353 172.982 769.398C172.678 769.353 172.403 769.191 172.215 768.948C172.028 768.704 171.942 768.397 171.975 768.092L169.558 641.335L173.648 641.23Z" fill="white" stroke="#263238" stroke-linecap="round" stroke-linejoin="round"/>
<path d="M264.456 645.908L264.861 791.274C264.902 791.636 264.801 792.001 264.58 792.291C264.358 792.581 264.032 792.773 263.672 792.829C263.321 792.777 263.002 792.595 262.779 792.319C262.556 792.043 262.446 791.693 262.469 791.339L259.634 646.078L264.456 645.908Z" fill="white" stroke="#263238" stroke-linecap="round" stroke-linejoin="round"/>
<path d="M219.124 656.088C251.24 656.088 277.275 650.138 277.275 642.798C277.275 635.458 251.24 629.508 219.124 629.508C187.008 629.508 160.972 635.458 160.972 642.798C160.972 650.138 187.008 656.088 219.124 656.088Z" fill="white" stroke="#263238" stroke-linecap="round" stroke-linejoin="round"/>
<path d="M190.806 755.612C190.806 755.612 187.761 759.976 189.944 762.146C192.126 764.315 194.295 763.452 194.073 765.635C193.851 767.817 190.375 775.213 187.33 783.054C184.285 790.895 190.597 798.735 196.477 796.566C202.358 794.397 201.705 772.6 202.567 768.68C203.429 764.759 204.096 764.106 203.874 760.408C203.652 756.709 203.443 752.789 200.607 752.345C197.771 751.901 192.113 754.096 190.806 755.612Z" fill="white" stroke="#263238" stroke-linecap="round" stroke-linejoin="round"/>
<path d="M200.149 790.555C196.229 789.065 190.218 789.366 186.833 789.705C187.97 794.632 192.322 798.095 196.477 796.566C198.215 795.926 199.352 793.6 200.149 790.555Z" fill="#92E3A9" stroke="#263238" stroke-linecap="round" stroke-linejoin="round"/>
<path d="M184.063 746.033C184.063 746.033 190.375 756.709 192.113 759.532C193.851 762.355 199.744 761.492 200.398 757.572C201.051 753.652 197.993 742.766 197.993 742.766L184.926 746.033H184.063Z" fill="white" stroke="#263238" stroke-linecap="round" stroke-linejoin="round"/>
<path d="M169.035 729.045C169.035 729.045 167.284 731.881 168.16 733.841C169.035 735.801 171.427 741.459 172.956 744.295C174.484 747.131 181.45 748.869 189.499 747.562C197.549 746.255 202.136 742.544 202.358 739.277C202.58 736.01 201.051 731.659 199.953 726.432C198.856 721.204 196.033 721.427 192.113 721.427C188.193 721.427 172.302 726 169.035 729.045Z" fill="#92E3A9" stroke="#263238" stroke-linecap="round" stroke-linejoin="round"/>
<path d="M192.557 665.013C192.675 659.656 195.772 657.016 196.007 653.344C196.376 648.489 195.974 643.607 194.818 638.878L188.859 630.737C171.714 630.959 159.43 631.246 159.234 631.312C158.581 631.521 158.137 635.232 157.706 638.277C157.706 638.277 150.427 639.205 151.734 659.46C151.917 662.282 159.261 694.938 159.796 698.663C163.063 721.414 170.342 732.809 170.342 732.809C170.342 732.809 170.995 735.644 179.489 734.991C187.983 734.338 196.477 728.679 196.477 728.679C196.477 728.679 192.113 684.393 192.557 665.013Z" fill="#263238" stroke="#263238" stroke-linecap="round" stroke-linejoin="round"/>
<path d="M156.529 634.958C156.529 634.958 147.526 636.264 142.011 642.563C136.497 648.862 141.175 653.017 151.89 651.893C162.606 650.769 174.968 639.806 175.491 639.218C176.013 638.63 164.318 631.181 156.529 634.958Z" fill="white" stroke="#263238" stroke-linecap="round" stroke-linejoin="round"/>
<path d="M172.511 638.878C178.248 639.173 183.939 640.049 189.499 641.491C196.909 643.674 209.976 648.025 213.021 648.025C216.066 648.025 215.203 636.696 215.203 634.526C215.203 632.357 176 631.037 171.204 631.037C166.409 631.037 172.511 638.878 172.511 638.878Z" fill="white" stroke="#263238" stroke-linecap="round" stroke-linejoin="round"/>
<path d="M215.204 634.526C215.204 634.526 211.714 636.264 210.408 642.798C209.101 649.332 207.363 652.821 209.976 654.559C212.59 656.297 223.92 657.604 225.658 655.866C227.396 654.128 232.192 645.412 233.067 639.754C233.943 634.095 215.204 634.526 215.204 634.526Z" fill="#92E3A9" stroke="#263238" stroke-linecap="round" stroke-linejoin="round"/>
<path d="M230.009 636.696C227.984 639.02 226.366 641.671 225.226 644.536C224.303 647.535 223.574 650.591 223.044 653.684C227.213 654.826 231.289 656.285 235.236 658.048C242.214 661.093 253.975 663.275 265.292 665.889C276.609 668.502 279.666 671.116 283.587 671.116C287.507 671.116 292.303 668.058 298.406 660.662C304.508 653.265 299.268 637.571 293.179 632.775C287.089 627.979 254.407 624.072 250.055 625.379C245.704 626.686 230.009 636.696 230.009 636.696Z" fill="#263238" stroke="#263238" stroke-linecap="round" stroke-linejoin="round"/>
<path d="M148.284 652.011C147.423 648.102 145.68 644.441 143.187 641.308C142.782 641.687 142.39 642.079 142.011 642.511C137.163 648.025 140.195 651.946 148.284 652.011Z" fill="#92E3A9" stroke="#263238" stroke-linecap="round" stroke-linejoin="round"/>
<path d="M191.891 655.461C191.891 655.461 187.395 703.563 178.222 711.051" stroke="white" stroke-width="0.5" stroke-linecap="round" stroke-linejoin="round"/>
<path d="M188.715 701.119C188.715 701.119 185.148 716.801 175.791 723.034" stroke="white" stroke-width="0.5" stroke-linecap="round" stroke-linejoin="round"/>
<path d="M246.566 646.719C246.566 646.719 232.623 647.594 241.77 653.684C250.917 659.773 267.474 663.707 267.474 663.707" stroke="white" stroke-width="0.5" stroke-linecap="round" stroke-linejoin="round"/>
<path d="M347.788 630.24L343.084 626.006L332.212 602.484C331.696 601.414 330.886 600.513 329.877 599.886C328.869 599.259 327.702 598.932 326.514 598.943H115.34C114.15 598.929 112.981 599.255 111.969 599.882C110.958 600.51 110.146 601.412 109.629 602.484L96.0781 631.782L93.8436 630.959V637.663L93.9481 637.584C94.0812 638.479 94.5352 639.294 95.2253 639.878C95.9153 640.463 96.7945 640.776 97.6985 640.76H344.143C345.095 640.782 346.018 640.433 346.718 639.787C347.418 639.14 347.839 638.248 347.893 637.297L347.788 630.24Z" fill="#263238" stroke="#263238" stroke-linecap="round" stroke-linejoin="round"/>
<path d="M344.143 634.631H97.6986C97.0883 634.655 96.4818 634.524 95.936 634.25C95.3903 633.976 94.9231 633.567 94.5783 633.063C94.2335 632.559 94.0224 631.976 93.9647 631.368C93.9071 630.759 94.0048 630.147 94.2487 629.587L109.629 596.356C110.144 595.281 110.955 594.377 111.967 593.75C112.979 593.122 114.149 592.797 115.34 592.814H326.514C327.703 592.8 328.871 593.126 329.88 593.753C330.889 594.381 331.699 595.283 332.212 596.356L347.592 629.587C347.836 630.147 347.934 630.759 347.876 631.368C347.819 631.976 347.608 632.559 347.263 633.063C346.918 633.567 346.451 633.976 345.905 634.25C345.359 634.524 344.753 634.655 344.143 634.631Z" fill="white" stroke="#263238" stroke-linecap="round" stroke-linejoin="round"/>
<g style="mix-blend-mode:multiply" opacity="0.5">
<path d="M110.178 612.311C110.178 612.311 104.598 616.14 108.087 617.538C111.576 618.937 151.681 617.891 156.569 616.493C161.456 615.095 167.023 602.197 167.023 600.106C167.023 598.015 159.992 596.512 157.405 596.395C154.818 596.277 120.632 598.355 120.632 598.355L110.178 612.311Z" fill="#92E3A9"/>
</g>
<g style="mix-blend-mode:multiply" opacity="0.5">
<path d="M309.67 618.937C317.565 618.937 323.966 616.28 323.966 613.004C323.966 609.727 317.565 607.071 309.67 607.071C301.774 607.071 295.374 609.727 295.374 613.004C295.374 616.28 301.774 618.937 309.67 618.937Z" fill="#92E3A9"/>
</g>
<g style="mix-blend-mode:multiply" opacity="0.5">
<path d="M218.653 626.267C246.966 626.267 269.918 621.973 269.918 616.676C269.918 611.378 246.966 607.084 218.653 607.084C190.341 607.084 167.389 611.378 167.389 616.676C167.389 621.973 190.341 626.267 218.653 626.267Z" fill="#92E3A9"/>
</g>
<path d="M299.216 589.665C299.216 589.665 298.275 585.914 295.152 587.169C292.029 588.423 292.342 596.708 292.956 601.4C293.571 606.091 297.804 603.896 297.804 603.896V601.086C297.804 601.086 296.249 602.328 295.465 600.616C294.681 598.904 294.838 590.292 295.622 590.449C296.406 590.606 297.961 593.259 297.961 593.259C297.961 593.259 298.432 592.958 299.216 589.665Z" fill="#92E3A9" stroke="#263238" stroke-linecap="round" stroke-linejoin="round"/>
<path d="M296.968 590.292V610.835C296.968 613.252 302.522 615.212 309.382 615.212C316.243 615.212 321.784 613.252 321.784 610.835V590.292H296.968Z" fill="#92E3A9" stroke="#263238" stroke-linecap="round" stroke-linejoin="round"/>
<path d="M321.784 590.292C321.784 592.383 316.23 594.069 309.382 594.069C302.535 594.069 296.968 592.383 296.968 590.292C296.968 588.201 302.522 586.516 309.382 586.516C316.243 586.516 321.784 588.214 321.784 590.292Z" fill="white" stroke="#263238" stroke-linecap="round" stroke-linejoin="round"/>
<path d="M320.163 590.292C320.163 592.109 315.328 593.572 309.382 593.572C303.437 593.572 298.589 592.109 298.589 590.292C298.589 588.476 303.424 587.012 309.382 587.012C315.341 587.012 320.163 588.476 320.163 590.292Z" fill="white" stroke="#263238" stroke-linecap="round" stroke-linejoin="round"/>
<path d="M301.058 592.383C306.49 593.968 312.262 593.968 317.693 592.383C312.262 590.798 306.49 590.798 301.058 592.383Z" fill="#263238" stroke="#263238" stroke-linecap="round" stroke-linejoin="round"/>
<path d="M108.636 599.675L108.793 606.705L156.163 607.176V599.047L108.636 599.675Z" fill="white" stroke="#263238" stroke-linecap="round" stroke-linejoin="round"/>
<path d="M156.163 607.176L163.05 592.331V587.953L155.85 600.459L156.163 607.176Z" fill="white" stroke="#263238" stroke-linecap="round" stroke-linejoin="round"/>
<path d="M108.636 606.078L108.793 613.121L156.163 613.592V605.464L108.636 606.078Z" fill="white" stroke="#263238" stroke-linecap="round" stroke-linejoin="round"/>
<path d="M156.163 613.592L163.05 598.734V594.356L155.85 606.862L156.163 613.592Z" fill="white" stroke="#263238" stroke-linecap="round" stroke-linejoin="round"/>
<path d="M126.931 581.85C126.931 581.85 128.029 579.668 126.461 578.727C124.893 577.786 123.181 580.034 122.24 580.753C121.299 581.471 101.606 594.513 100.979 596.552C100.351 598.59 100.979 603.085 105.199 603.582C109.42 604.079 113.171 601.243 115.053 600.772C116.934 600.302 117.666 600.145 117.666 600.145L130.642 582.634L126.931 581.85Z" fill="white" stroke="#263238" stroke-linecap="round" stroke-linejoin="round"/>
<path d="M105.199 603.595C109.42 604.066 113.171 601.256 115.052 600.786C116.934 600.315 117.666 600.158 117.666 600.158L118.136 599.518L105.944 597.035C105.281 596.411 104.429 596.025 103.523 595.94C102.616 595.855 101.707 596.075 100.939 596.565C100.351 598.577 100.979 603.112 105.199 603.595Z" fill="white" stroke="#263238" stroke-linecap="round" stroke-linejoin="round"/>
<path d="M105.983 597.061H142.573C153.994 597.061 157.431 596.434 157.431 596.434L164.461 581.89C164.461 581.89 142.246 583.301 135.386 582.83C132.551 582.749 129.727 582.434 126.944 581.89L105.983 597.061Z" fill="white" stroke="#263238" stroke-linecap="round" stroke-linejoin="round"/>
<path d="M105.983 597.061L106.611 599.871C106.611 599.871 136.314 600.028 144.128 600.028C151.943 600.028 157.888 600.341 157.888 600.341L157.418 596.421L105.983 597.061Z" fill="white" stroke="#263238" stroke-linecap="round" stroke-linejoin="round"/>
<path d="M157.888 600.302L164.448 585.287V581.85L157.418 596.395L157.888 600.302Z" fill="white" stroke="#263238" stroke-linecap="round" stroke-linejoin="round"/>
<path d="M263.423 617.865H173.844C173.646 617.867 173.449 617.829 173.265 617.754C173.081 617.68 172.914 617.569 172.773 617.43C172.632 617.29 172.52 617.124 172.444 616.94C172.368 616.757 172.328 616.561 172.328 616.362C172.328 616.164 172.368 615.967 172.444 615.784C172.52 615.601 172.632 615.435 172.773 615.295C172.914 615.155 173.081 615.045 173.265 614.97C173.449 614.895 173.646 614.858 173.844 614.859H263.423C263.621 614.858 263.817 614.895 264 614.97C264.184 615.045 264.35 615.156 264.49 615.296C264.63 615.436 264.74 615.602 264.815 615.785C264.89 615.968 264.928 616.164 264.926 616.362C264.928 616.56 264.89 616.756 264.815 616.939C264.74 617.123 264.63 617.289 264.49 617.429C264.35 617.569 264.184 617.679 264 617.754C263.817 617.829 263.621 617.867 263.423 617.865Z" fill="white" stroke="#263238" stroke-linecap="round" stroke-linejoin="round"/>
<path d="M264.181 614.833H173.073C172.74 614.834 172.419 614.707 172.176 614.479C171.933 614.25 171.786 613.938 171.766 613.605L166.814 554.082C166.791 553.897 166.809 553.71 166.864 553.533C166.92 553.356 167.013 553.193 167.136 553.054C167.26 552.916 167.412 552.805 167.581 552.73C167.751 552.655 167.935 552.617 168.12 552.618H269.147C269.333 552.617 269.516 552.655 269.686 552.73C269.856 552.805 270.008 552.916 270.131 553.054C270.255 553.193 270.348 553.356 270.403 553.533C270.459 553.71 270.476 553.897 270.454 554.082L265.501 613.605C265.481 613.94 265.333 614.255 265.087 614.483C264.841 614.712 264.517 614.837 264.181 614.833Z" fill="white" stroke="#263238" stroke-linecap="round" stroke-linejoin="round"/>
<path d="M227.226 584.751C227.226 588.306 223.371 591.181 218.627 591.181C213.884 591.181 210.016 588.306 210.016 584.751C210.016 581.197 213.87 578.335 218.627 578.335C223.384 578.335 227.226 581.21 227.226 584.751Z" fill="white" stroke="#263238" stroke-linecap="round" stroke-linejoin="round"/>
<path d="M316.256 538.256C317.654 537.166 318.636 535.631 319.04 533.905C319.333 532.611 319.302 531.264 318.948 529.985" stroke="#263238" stroke-linecap="round" stroke-linejoin="round"/>
<path d="M305.828 584.856C305.828 584.856 314.518 579.629 311.682 573.657C308.847 567.685 299.255 563.725 299.255 554.421C299.255 546.398 307.788 543.431 313.355 540.217" stroke="#263238" stroke-linecap="round" stroke-linejoin="round"/>
<path d="M313.852 584.686C313.852 584.686 318.7 581.458 318.7 576.336C318.7 572.899 315.028 570.651 310.18 565.124" stroke="#263238" stroke-linecap="round" stroke-linejoin="round"/>
<path d="M307.501 561.778C307.501 561.778 304.325 559.282 306.664 554.591" stroke="#263238" stroke-linecap="round" stroke-linejoin="round"/>
<path d="M233.929 424.894C235.485 424.567 238.817 423.287 241.064 418.073C241.099 417.994 241.118 417.909 241.119 417.823C241.121 417.737 241.106 417.651 241.074 417.571C241.042 417.491 240.995 417.418 240.935 417.356C240.875 417.294 240.804 417.244 240.725 417.21C240.565 417.144 240.386 417.142 240.225 417.206C240.064 417.269 239.934 417.393 239.862 417.55C237.798 422.333 234.844 423.391 233.616 423.627C235.814 420.966 237.028 417.629 237.053 414.179C237.053 405.11 228.65 397.766 218.287 397.766C207.925 397.766 199.522 405.11 199.522 414.179C199.529 417.49 200.632 420.707 202.658 423.326C200.685 423.221 197.353 424.058 193.132 428.984C193.012 429.109 192.944 429.275 192.944 429.448C192.944 429.621 193.012 429.788 193.132 429.912C193.253 430.013 193.406 430.068 193.563 430.069C193.658 430.069 193.752 430.048 193.838 430.007C193.924 429.967 194 429.907 194.06 429.834C199.457 423.548 203.024 424.607 203.743 424.894C202.523 425.565 201.379 426.367 200.332 427.285C194.308 432.709 190.636 442.967 191.107 451.513C191.635 457.181 193.69 462.6 197.052 467.194C201.428 464.063 205.056 460.002 207.676 455.303C209.629 451.851 211.375 448.286 212.904 444.626C212.904 448.455 213.4 453.081 215.413 456.387C216.864 458.999 218.991 461.172 221.57 462.68C224.15 464.188 227.087 464.975 230.074 464.96C231.106 464.975 232.136 464.874 233.145 464.659C233.234 464.637 233.317 464.596 233.389 464.54C233.461 464.484 233.521 464.413 233.564 464.332C238.608 465.404 243.626 465.313 244.397 464.241C245.638 462.529 247.402 457.184 247.99 450.651C249.062 439.569 242.084 429.951 233.929 424.894ZM216.628 455.59C214.093 451.448 214.171 444.692 214.472 440.811L214.642 440.366C214.762 444.358 215.78 448.271 217.619 451.816C219.458 455.361 222.071 458.446 225.266 460.843C227.03 462.063 228.987 462.977 231.055 463.548C227.853 463.771 221.267 463.156 216.628 455.59Z" fill="#263238"/>
<path d="M216.85 435.021C216.85 435.021 215.778 442.941 225.841 450.703C235.903 458.465 245.442 455.407 245.442 455.407" stroke="white" stroke-width="0.5" stroke-linecap="round" stroke-linejoin="round"/>
<path d="M218.327 432.408C218.327 432.408 228.924 447.841 243.56 443.816" stroke="white" stroke-width="0.5" stroke-linecap="round" stroke-linejoin="round"/>
<path d="M213.086 427.272C211.415 426.424 209.543 426.051 207.674 426.193C205.805 426.336 204.011 426.99 202.489 428.083C196.856 431.833 194.034 440.693 194.034 440.693" stroke="white" stroke-width="0.5" stroke-linecap="round" stroke-linejoin="round"/>
<path d="M213.361 431.572C213.361 431.572 208.8 430.356 205.978 433.179C204.602 434.426 203.425 435.876 202.489 437.478" stroke="white" stroke-width="0.5" stroke-linecap="round" stroke-linejoin="round"/>
</svg>
