<svg width="369" height="564" viewBox="0 0 369 564" fill="none" xmlns="http://www.w3.org/2000/svg">
<rect width="369" height="564" fill="#E5E5E5"/>
<g clip-path="url(#clip0)">
<rect width="1440" height="4000" transform="translate(-1071 -734)" fill="white"/>
<path fill-rule="evenodd" clip-rule="evenodd" d="M291.475 0.59521C346.443 3.49648 395.385 26.1816 444.407 51.2166C503.201 81.2424 571.581 102.644 603.957 160.177C639.207 222.818 645.657 301.212 623.583 369.617C601.487 438.091 552.012 501.685 485.165 528.299C423.105 553.008 358.17 498.136 291.475 501.841C217.92 505.927 139.92 595.595 81.493 550.725C22.4578 505.387 87.0146 405.955 71.7539 333.101C59.1367 272.867 -9.86905 227.93 1.19644 167.391C12.415 106.016 72.2492 65.5139 126.347 34.429C176.285 5.73388 233.959 -2.44054 291.475 0.59521Z" fill="#E8FFEE"/>
<path d="M246.594 318H119.197C114.845 318 111.317 321.528 111.317 325.88V466.319C111.317 470.671 114.845 474.198 119.197 474.198H246.594C250.946 474.198 254.474 470.671 254.474 466.319V325.88C254.474 321.528 250.946 318 246.594 318Z" fill="white" stroke="#263238" stroke-linecap="round" stroke-linejoin="round"/>
<path d="M119.197 318H246.581C248.66 318 250.655 318.826 252.125 320.297C253.595 321.767 254.421 323.761 254.421 325.841V334.021H111.317V325.88C111.312 324.844 111.512 323.817 111.906 322.858C112.3 321.9 112.881 321.029 113.613 320.296C114.346 319.564 115.217 318.983 116.175 318.589C117.133 318.195 118.16 317.995 119.197 318Z" fill="#263238" stroke="#263238" stroke-linecap="round" stroke-linejoin="round"/>
<path d="M119.118 401.398H176.721" stroke="#263238" stroke-linecap="round" stroke-linejoin="round"/>
<path d="M119.118 408.834H176.721" stroke="#263238" stroke-linecap="round" stroke-linejoin="round"/>
<path d="M119.118 416.269H176.721" stroke="#263238" stroke-linecap="round" stroke-linejoin="round"/>
<path d="M119.118 423.705H176.721" stroke="#263238" stroke-linecap="round" stroke-linejoin="round"/>
<path d="M119.118 431.14H176.721" stroke="#263238" stroke-linecap="round" stroke-linejoin="round"/>
<path d="M119.118 438.589H176.721" stroke="#263238" stroke-linecap="round" stroke-linejoin="round"/>
<path d="M119.118 446.025H176.721" stroke="#263238" stroke-linecap="round" stroke-linejoin="round"/>
<path d="M119.118 453.46H176.721" stroke="#263238" stroke-linecap="round" stroke-linejoin="round"/>
<path d="M119.118 460.896H176.721" stroke="#263238" stroke-linecap="round" stroke-linejoin="round"/>
<path d="M186.848 401.398H244.451" stroke="#263238" stroke-linecap="round" stroke-linejoin="round"/>
<path d="M186.848 408.834H244.451" stroke="#263238" stroke-linecap="round" stroke-linejoin="round"/>
<path d="M186.848 416.269H244.451" stroke="#263238" stroke-linecap="round" stroke-linejoin="round"/>
<path d="M186.848 423.705H244.451" stroke="#263238" stroke-linecap="round" stroke-linejoin="round"/>
<path d="M186.848 431.14H244.451" stroke="#263238" stroke-linecap="round" stroke-linejoin="round"/>
<path d="M186.848 438.589H244.451" stroke="#263238" stroke-linecap="round" stroke-linejoin="round"/>
<path d="M186.848 446.025H244.451" stroke="#263238" stroke-linecap="round" stroke-linejoin="round"/>
<path d="M186.848 453.46H244.451" stroke="#263238" stroke-linecap="round" stroke-linejoin="round"/>
<path d="M186.848 460.896H244.451" stroke="#263238" stroke-linecap="round" stroke-linejoin="round"/>
<path d="M157.642 354.315C157.926 353.432 158.076 352.512 158.086 351.584C158.086 348.2 154.649 348.004 151.278 348.004H150.429V347.207H165.143V348.004C161.314 348.004 159.916 350.447 158.727 354.067L150.886 377.471C150.298 379.209 149.801 380.503 147.959 380.503H147.802L140.902 358.144L134.486 377.524C133.885 379.262 133.388 380.555 131.546 380.555H131.402L121.366 348.004H117.838V347.207H130.749V348.004H127.077L134.525 373.643H134.826L140.445 356.615L137.831 348.069H134.303V347.207H147.227V348.004H143.555L151.004 373.643H151.291L157.642 354.315Z" fill="#92E3A9"/>
<path d="M244.856 339.797H185.581V393.375H244.856V339.797Z" fill="#92E3A9" stroke="#263238" stroke-width="2" stroke-linecap="round" stroke-linejoin="round"/>
<path d="M244.856 362.195C242.868 362.308 240.892 362.584 238.949 363.018C229.945 364.978 227.593 377.902 217.414 377.902C208.397 377.902 207.626 365.763 194.702 364.194C191.557 363.699 188.337 364.27 185.554 365.815V393.375H244.856V362.195Z" fill="#263238" stroke="#263238" stroke-linecap="round" stroke-linejoin="round"/>
<path d="M205.274 352.055C205.276 353.374 204.887 354.664 204.156 355.762C203.425 356.86 202.384 357.716 201.166 358.222C199.947 358.728 198.606 358.861 197.312 358.605C196.018 358.348 194.83 357.713 193.897 356.78C192.964 355.847 192.329 354.659 192.072 353.365C191.815 352.071 191.948 350.729 192.455 349.511C192.961 348.293 193.817 347.252 194.915 346.521C196.013 345.79 197.303 345.401 198.622 345.403C200.386 345.403 202.078 346.104 203.326 347.351C204.573 348.599 205.274 350.29 205.274 352.055Z" fill="white" stroke="#263238" stroke-linecap="round" stroke-linejoin="round"/>
<path d="M247.561 322.691H115.616V327.775H247.561V322.691Z" fill="white" stroke="#263238" stroke-linecap="round" stroke-linejoin="round"/>
<path d="M239.328 505.365H182.209C179.963 505.365 177.81 506.257 176.221 507.845C174.633 509.433 173.741 511.587 173.741 513.833V544.385C173.741 546.631 174.633 548.785 176.221 550.373C177.81 551.961 179.963 552.853 182.209 552.853H183.96C182.183 556.773 178.733 562.785 173.284 566.352C173.284 566.352 184.875 565.542 196.95 552.853H239.302C241.548 552.853 243.702 551.961 245.29 550.373C246.878 548.785 247.77 546.631 247.77 544.385V513.833C247.77 511.592 246.881 509.442 245.299 507.854C243.717 506.267 241.569 505.372 239.328 505.365Z" fill="#263238" stroke="#263238" stroke-linecap="round" stroke-linejoin="round"/>
<path d="M200.948 528.024C200.951 527.16 200.697 526.314 200.218 525.595C199.74 524.875 199.058 524.313 198.26 523.981C197.462 523.649 196.583 523.562 195.735 523.73C194.888 523.898 194.109 524.314 193.497 524.925C192.886 525.536 192.47 526.315 192.302 527.163C192.134 528.011 192.222 528.89 192.554 529.688C192.886 530.486 193.447 531.167 194.167 531.646C194.887 532.124 195.732 532.379 196.597 532.376C197.75 532.372 198.855 531.913 199.67 531.098C200.485 530.282 200.945 529.177 200.948 528.024Z" fill="#92E3A9" stroke="#263238" stroke-linecap="round" stroke-linejoin="round"/>
<path d="M215.754 528.024C215.754 527.164 215.499 526.322 215.021 525.607C214.542 524.891 213.863 524.333 213.068 524.004C212.273 523.675 211.398 523.589 210.554 523.756C209.709 523.924 208.934 524.339 208.325 524.947C207.717 525.556 207.302 526.331 207.135 527.175C206.967 528.02 207.053 528.895 207.382 529.69C207.712 530.485 208.269 531.164 208.985 531.643C209.7 532.121 210.542 532.376 211.402 532.376C212.555 532.372 213.66 531.913 214.476 531.098C215.291 530.282 215.751 529.177 215.754 528.024Z" fill="#92E3A9" stroke="#263238" stroke-linecap="round" stroke-linejoin="round"/>
<path d="M230.573 528.024C230.575 527.161 230.322 526.315 229.844 525.596C229.366 524.877 228.685 524.315 227.888 523.983C227.09 523.65 226.212 523.562 225.365 523.729C224.517 523.896 223.738 524.311 223.127 524.92C222.515 525.53 222.098 526.308 221.928 527.155C221.759 528.002 221.845 528.88 222.175 529.679C222.505 530.477 223.064 531.159 223.782 531.639C224.5 532.12 225.344 532.376 226.208 532.376C227.362 532.373 228.469 531.913 229.286 531.098C230.103 530.283 230.566 529.179 230.573 528.024Z" fill="#92E3A9" stroke="#263238" stroke-linecap="round" stroke-linejoin="round"/>
<path d="M-74.7805 336.53H19.307C21.5459 336.53 23.6931 337.42 25.2763 339.003C26.8594 340.586 27.7488 342.733 27.7488 344.972V410.193H-83.183V344.972C-83.1831 342.74 -82.2991 340.599 -80.7244 339.016C-79.1497 337.434 -77.0126 336.541 -74.7805 336.53Z" fill="#92E3A9" stroke="#263238" stroke-linecap="round" stroke-linejoin="round"/>
<path d="M27.6965 399.673H-83.183V410.154H27.6965V399.673Z" fill="#263238" stroke="#263238" stroke-linecap="round" stroke-linejoin="round"/>
<path d="M22.6263 403.254H-78.0997V406.573H22.6263V403.254Z" fill="white" stroke="#263238" stroke-linecap="round" stroke-linejoin="round"/>
<path d="M106.861 534.166C106.861 534.166 120.778 563.869 120.778 565.437C120.778 567.005 108.429 573.722 106.077 575.134C104.252 576.173 102.372 577.111 100.444 577.943L101.856 591.703C101.856 591.703 123.117 586.855 132.029 582.007C140.941 577.159 140.628 571.684 138.563 563.556C136.498 555.427 122.764 524.013 122.764 524.013L106.861 534.166Z" fill="white"/>
<g style="mix-blend-mode:multiply" opacity="0.5">
<path d="M131.99 582.007C140.902 577.159 140.589 571.684 138.524 563.556C136.459 555.427 122.725 524.013 122.725 524.013L120.503 525.424L119.798 526.731C119.798 526.731 132.617 558.198 133.388 568.678C133.911 575.722 119.732 584.503 110.363 589.521C117.315 587.679 126.776 584.843 131.99 582.007Z" fill="#92E3A9"/>
</g>
<path d="M106.861 534.166C106.861 534.166 120.778 563.869 120.778 565.437C120.778 567.005 108.429 573.722 106.077 575.134C104.252 576.173 102.372 577.111 100.444 577.943L101.856 591.703C101.856 591.703 123.117 586.855 132.029 582.007C140.941 577.159 140.628 571.684 138.563 563.556C136.498 555.427 122.764 524.013 122.764 524.013L106.861 534.166Z" stroke="#263238" stroke-linecap="round" stroke-linejoin="round"/>
<path d="M6.44842 527.606C6.44842 527.606 -3.7052 564.81 -4.00575 571.383C-4.30631 577.956 16.1577 590.919 16.9026 591.703C17.6474 592.487 15.7396 569.096 15.7396 569.096L22.6785 535.12L6.44842 527.606Z" fill="white"/>
<g style="mix-blend-mode:multiply" opacity="0.5">
<path d="M11.1005 530.651L10.8784 529.645L6.44842 527.606C6.44842 527.606 -3.7052 564.81 -4.00575 571.383C-4.30631 577.956 16.1577 590.919 16.9026 591.703C17.2031 592.017 17.0855 588.515 16.8372 584.19C10.7477 579.028 2.00538 571.762 0.986101 568.704" fill="#92E3A9"/>
</g>
<path d="M6.44842 527.606C6.44842 527.606 -3.7052 564.81 -4.00575 571.383C-4.30631 577.956 16.1577 590.919 16.9026 591.703C17.6474 592.487 15.7396 569.096 15.7396 569.096L22.6785 535.12L6.44842 527.606Z" stroke="#263238" stroke-linecap="round" stroke-linejoin="round"/>
<path d="M54.1325 490.233C54.1325 490.233 50.2122 493.055 42.5676 493.369C34.923 493.683 34.5571 488.142 25.0569 488.142C13.5442 488.142 -0.89563 524.562 -0.89563 524.562C-0.89563 524.562 6.29161 531.605 13.3351 534.571C17.2315 536.278 21.328 537.486 25.5273 538.165L26.625 562.092H104.169L105.097 538.165L129.337 522.445C129.337 522.445 117.446 501.183 111.67 493.212C105.894 485.241 96.1844 488.207 93.218 490.233C90.2517 492.258 81.4571 492.742 78.2163 492.271C73.9885 491.336 69.8103 490.189 65.6974 488.834C65.6974 488.834 60.7056 484.679 54.1325 490.233Z" fill="#92E3A9" stroke="#263238" stroke-linecap="round" stroke-linejoin="round"/>
<path d="M26.3113 498.674L25.9977 538.387" stroke="#263238" stroke-width="0.5" stroke-linecap="round" stroke-linejoin="round"/>
<path d="M29.1208 502.281C29.1208 502.281 30.2185 521.661 34.3479 532.454" stroke="#263238" stroke-width="0.5" stroke-linecap="round" stroke-linejoin="round"/>
<path d="M35.0668 534.01C35.9587 536.644 37.0554 539.204 38.3468 541.667" stroke="#263238" stroke-width="0.5" stroke-linecap="round" stroke-linejoin="round"/>
<path d="M31.6168 500.086C33.1003 507.132 35.1947 514.036 37.8763 520.72" stroke="#263238" stroke-width="0.5" stroke-linecap="round" stroke-linejoin="round"/>
<path d="M99.0201 503.522C99.0201 503.522 95.2696 518.851 91.9766 525.738" stroke="#263238" stroke-width="0.5" stroke-linecap="round" stroke-linejoin="round"/>
<path d="M105.097 538.23L104.94 507.273" stroke="#263238" stroke-width="0.5" stroke-linecap="round" stroke-linejoin="round"/>
<path d="M103.385 507.9C103.385 507.9 100.562 527.502 93.6885 537.76" stroke="#263238" stroke-width="0.5" stroke-linecap="round" stroke-linejoin="round"/>
<path d="M99.9479 533.853C99.9479 533.853 96.8117 539.799 94.6294 542.922" stroke="#263238" stroke-width="0.5" stroke-linecap="round" stroke-linejoin="round"/>
<path d="M49.7548 492.585C49.7548 492.585 51.9501 506.032 55.0733 512.905C58.1965 519.779 63.6719 521.19 68.3632 519.165C73.0545 517.139 76.4913 507.116 76.2038 494.336" stroke="#263238" stroke-width="0.5" stroke-linecap="round" stroke-linejoin="round"/>
<path d="M38.6604 464.437C38.6604 464.437 35.681 459.288 33.3418 461.941C31.0027 464.594 35.2236 470.696 37.5627 472.722C39.9018 474.747 41.6268 473.506 41.483 471.324C41.3393 469.141 38.6604 464.437 38.6604 464.437Z" fill="#92E3A9" stroke="#263238" stroke-linecap="round" stroke-linejoin="round"/>
<path opacity="0.5" d="M38.6604 464.437C38.6604 464.437 35.681 459.288 33.3418 461.941C31.0027 464.594 35.2236 470.696 37.5627 472.722C39.9018 474.747 41.6268 473.506 41.483 471.324C41.3393 469.141 38.6604 464.437 38.6604 464.437Z" fill="white"/>
<path d="M38.6604 464.437C38.6604 464.437 35.681 459.288 33.3418 461.941C31.0027 464.594 35.2236 470.696 37.5627 472.722C39.9018 474.747 41.6268 473.506 41.483 471.324C41.3393 469.141 38.6604 464.437 38.6604 464.437Z" stroke="#263238" stroke-linecap="round" stroke-linejoin="round"/>
<path d="M85.9525 464.437C85.9525 464.437 88.9188 459.288 91.271 461.941C93.6232 464.594 89.3893 470.696 87.0501 472.722C84.711 474.747 82.973 473.506 83.1298 471.324C83.2866 469.141 85.9525 464.437 85.9525 464.437Z" fill="#92E3A9" stroke="#263238" stroke-linecap="round" stroke-linejoin="round"/>
<path opacity="0.5" d="M85.9525 464.437C85.9525 464.437 88.9188 459.288 91.271 461.941C93.6232 464.594 89.3893 470.696 87.0501 472.722C84.711 474.747 82.973 473.506 83.1298 471.324C83.2866 469.141 85.9525 464.437 85.9525 464.437Z" fill="white"/>
<path d="M85.9525 464.437C85.9525 464.437 88.9188 459.288 91.271 461.941C93.6232 464.594 89.3893 470.696 87.0501 472.722C84.711 474.747 82.973 473.506 83.1298 471.324C83.2866 469.141 85.9525 464.437 85.9525 464.437Z" stroke="#263238" stroke-linecap="round" stroke-linejoin="round"/>
<path d="M52.7212 489.148C54.1972 495.821 56.0781 502.397 58.3534 508.841C61.176 515.872 66.4815 515.872 68.6769 511.337C70.8722 506.803 72.2705 489.906 72.2705 489.906C72.2705 489.906 57.5693 491.958 52.7212 489.148Z" fill="white" stroke="#263238" stroke-linecap="round" stroke-linejoin="round"/>
<path d="M38.974 466.162C38.974 466.162 43.038 480.536 50.7349 488.991C58.4318 497.446 61.1891 499.445 65.2793 498.831C69.3695 498.217 73.721 492.898 79.8105 481.843C85.9001 470.788 86.3444 462.307 86.8541 461.523C87.3637 460.739 85.5473 445.11 76.8442 438.38C68.1411 431.65 58.3926 428.697 49.9508 436.041C41.5091 443.385 36.1513 455.368 38.974 466.162Z" fill="white"/>
<g style="mix-blend-mode:multiply" opacity="0.5">
<path d="M76.8049 438.328C68.0496 431.611 58.3533 428.644 49.9116 435.989C41.4698 443.333 36.1513 455.368 38.9739 466.162C38.9739 466.162 39.7449 468.932 41.2738 472.696C41.2693 472.214 41.3354 471.734 41.4698 471.271C43.3385 465.352 48.8531 453.891 67.4092 459.145C82.1496 463.3 80.3463 476.263 78.9742 483.176L79.7713 481.739C85.8739 470.644 86.3052 462.202 86.8148 461.418C87.3244 460.634 85.5603 445.058 76.8049 438.328Z" fill="#92E3A9"/>
</g>
<path d="M38.974 466.162C38.974 466.162 43.038 480.536 50.7349 488.991C58.4318 497.446 61.1891 499.445 65.2793 498.831C69.3695 498.217 73.721 492.898 79.8105 481.843C85.9001 470.788 86.3444 462.307 86.8541 461.523C87.3637 460.739 85.5473 445.11 76.8442 438.38C68.1411 431.65 58.3926 428.697 49.9508 436.041C41.5091 443.385 36.1513 455.368 38.974 466.162Z" stroke="#263238" stroke-linecap="round" stroke-linejoin="round"/>
<path d="M65.24 473.663C64.7553 476.715 64.4932 479.798 64.4559 482.889C64.6127 486.012 65.5536 486.953 64.1423 487.266C62.731 487.58 61.1759 485.384 61.1759 485.384" stroke="#263238" stroke-linecap="round" stroke-linejoin="round"/>
<path d="M49.598 476.172C50.5039 476.826 51.5864 477.191 52.7035 477.219C53.8206 477.247 54.92 476.937 55.8575 476.329" stroke="#263238" stroke-linecap="round" stroke-linejoin="round"/>
<path d="M69.4611 476.172C70.3649 476.825 71.4451 477.189 72.5599 477.217C73.6747 477.245 74.7719 476.936 75.7074 476.329" stroke="#263238" stroke-linecap="round" stroke-linejoin="round"/>
<path d="M59.5818 470.905C59.5818 470.905 56.6023 463.548 46.7623 466.985" stroke="#263238" stroke-linecap="round" stroke-linejoin="round"/>
<path d="M67.7751 470.004C67.7751 470.004 70.2711 462.804 79.1833 467.024" stroke="#263238" stroke-linecap="round" stroke-linejoin="round"/>
<path d="M61.4766 476.708C61.4766 480.733 56.8637 483.986 51.1662 483.986C45.4686 483.986 40.8427 480.733 40.8427 476.708C40.8427 472.683 45.155 471.01 50.8525 471.01C56.55 471.01 61.4766 472.696 61.4766 476.708Z" stroke="#263238" stroke-linecap="round" stroke-linejoin="round"/>
<path d="M85.2467 476.708C85.2467 480.733 80.6207 483.986 74.9232 483.986C69.2257 483.986 64.6128 480.733 64.6128 476.708C64.6128 472.683 68.9121 471.01 74.6096 471.01C80.3071 471.01 85.2467 472.696 85.2467 476.708Z" stroke="#263238" stroke-linecap="round" stroke-linejoin="round"/>
<path d="M106.181 614.833H15.0731C14.7397 614.834 14.4186 614.707 14.1757 614.479C13.9328 614.25 13.7863 613.938 13.7663 613.605L8.81365 554.082C8.79137 553.897 8.8086 553.71 8.86422 553.533C8.91983 553.356 9.01255 553.193 9.13619 553.054C9.25984 552.916 9.41156 552.805 9.58127 552.73C9.75098 552.655 9.93478 552.617 10.1204 552.618H111.147C111.333 552.617 111.516 552.655 111.686 552.73C111.856 552.805 112.008 552.916 112.131 553.054C112.255 553.193 112.348 553.356 112.403 553.533C112.459 553.71 112.476 553.897 112.454 554.082L107.501 613.605C107.481 613.94 107.333 614.255 107.087 614.483C106.841 614.712 106.517 614.837 106.181 614.833Z" fill="white" stroke="#263238" stroke-linecap="round" stroke-linejoin="round"/>
<path d="M158.256 538.256C159.654 537.166 160.636 535.631 161.04 533.905C161.333 532.611 161.302 531.264 160.948 529.985" stroke="#263238" stroke-linecap="round" stroke-linejoin="round"/>
<path d="M147.828 584.856C147.828 584.856 156.518 579.629 153.682 573.657C150.847 567.685 141.255 563.725 141.255 554.421C141.255 546.398 149.788 543.431 155.355 540.217" stroke="#263238" stroke-linecap="round" stroke-linejoin="round"/>
<path d="M149.501 561.778C149.501 561.778 146.325 559.282 148.664 554.591" stroke="#263238" stroke-linecap="round" stroke-linejoin="round"/>
<path d="M75.9295 424.894C77.4845 424.567 80.8168 423.287 83.0644 418.073C83.0991 417.994 83.1177 417.909 83.1193 417.823C83.121 417.737 83.1056 417.651 83.074 417.571C83.0424 417.491 82.9953 417.418 82.9354 417.356C82.8754 417.294 82.8038 417.244 82.7247 417.21C82.5649 417.144 82.3857 417.142 82.2247 417.206C82.0638 417.269 81.9338 417.393 81.8622 417.55C79.7975 422.333 76.8442 423.391 75.6158 423.627C77.814 420.966 79.0278 417.629 79.0527 414.179C79.0527 405.11 70.6501 397.766 60.2874 397.766C49.9247 397.766 41.5222 405.11 41.5222 414.179C41.5293 417.49 42.632 420.707 44.6584 423.326C42.6852 423.221 39.3529 424.058 35.1321 428.984C35.0115 429.109 34.9441 429.275 34.9441 429.448C34.9441 429.621 35.0115 429.788 35.1321 429.912C35.2533 430.013 35.4057 430.068 35.5633 430.069C35.6583 430.069 35.7522 430.048 35.8381 430.007C35.924 429.967 35.9998 429.907 36.0599 429.834C41.4568 423.548 45.0243 424.607 45.743 424.894C44.5228 425.565 43.3792 426.367 42.3324 427.285C36.3082 432.709 32.6361 442.967 33.1066 451.513C33.6354 457.181 35.6901 462.6 39.0524 467.194C43.4278 464.063 47.0559 460.002 49.6764 455.303C51.6293 451.851 53.3747 448.286 54.9035 444.626C54.9035 448.455 55.4001 453.081 57.4125 456.387C58.8642 458.999 60.991 461.172 63.5703 462.68C66.1496 464.188 69.0867 464.975 72.0745 464.96C73.1061 464.975 74.1362 464.874 75.1454 464.659C75.2341 464.637 75.3171 464.596 75.3892 464.54C75.4612 464.484 75.5206 464.413 75.5636 464.332C80.6077 465.404 85.6257 465.313 86.3967 464.241C87.6381 462.529 89.4023 457.184 89.9903 450.651C91.0619 439.569 84.0837 429.951 75.9295 424.894ZM58.6278 455.59C56.0927 451.448 56.1711 444.692 56.4716 440.811L56.6415 440.366C56.7621 444.358 57.7796 448.271 59.6188 451.816C61.4579 455.361 64.0714 458.446 67.2656 460.843C69.0301 462.063 70.987 462.977 73.0546 463.548C69.853 463.771 63.2668 463.156 58.6278 455.59Z" fill="#263238"/>
<path d="M58.8499 435.021C58.8499 435.021 57.7784 442.941 67.8405 450.703C77.9027 458.465 87.4421 455.407 87.4421 455.407" stroke="white" stroke-width="0.5" stroke-linecap="round" stroke-linejoin="round"/>
<path d="M60.3265 432.408C60.3265 432.408 70.9245 447.841 85.5603 443.816" stroke="white" stroke-width="0.5" stroke-linecap="round" stroke-linejoin="round"/>
<path d="M55.0864 427.272C53.4152 426.424 51.5429 426.051 49.674 426.193C47.8051 426.336 46.0113 426.99 44.4885 428.083C38.8563 431.833 36.0337 440.693 36.0337 440.693" stroke="white" stroke-width="0.5" stroke-linecap="round" stroke-linejoin="round"/>
<path d="M55.3609 431.572C55.3609 431.572 50.8002 430.356 47.9776 433.179C46.602 434.426 45.4254 435.876 44.4885 437.478" stroke="white" stroke-width="0.5" stroke-linecap="round" stroke-linejoin="round"/>
</g>
<defs>
<clipPath id="clip0">
<rect width="1440" height="4000" fill="white" transform="translate(-1071 -734)"/>
</clipPath>
</defs>
</svg>
