<svg width="689" height="586" viewBox="0 0 689 586" fill="none" xmlns="http://www.w3.org/2000/svg">
<path d="M451.687 38.6434H316.095V234.056H451.687V38.6434Z" fill="#92E3A9"/>
<path opacity="0.4" d="M451.687 38.6434H316.095V234.056H451.687V38.6434Z" fill="white"/>
<path d="M432.326 66.5594H335.477V206.14H432.326V66.5594Z" fill="white"/>
<path d="M208.12 155.632H114.043V291.224H208.12V155.632Z" fill="#92E3A9"/>
<path opacity="0.4" d="M208.12 155.632H114.043V291.224H208.12V155.632Z" fill="white"/>
<path d="M194.68 174.993H127.482V271.842H194.68V174.993Z" fill="white"/>
<path d="M664.746 155.632H570.669V291.224H664.746V155.632Z" fill="#92E3A9"/>
<path opacity="0.4" d="M664.746 155.632H570.669V291.224H664.746V155.632Z" fill="white"/>
<path d="M651.307 174.993H584.109V271.842H651.307V174.993Z" fill="white"/>
<path d="M559.962 426.896C555.974 436.866 551.746 428.89 552.404 386.896C552.723 367.235 554.099 327.076 575.854 335.909C596.731 344.404 569.214 403.805 569.214 403.805L559.962 426.896ZM589.872 432.878C589.872 432.878 635.195 385.64 618.187 370.824C600.5 355.391 586.143 392.938 579.463 411.442C565.226 450.903 566.542 459.856 573.621 451.701L589.872 432.878ZM599.423 475.27C599.423 475.27 640.918 445.719 630.071 431.92C618.785 417.564 602.374 444.203 594.578 457.364C577.967 485.479 577.688 492.518 584.269 487.274L599.423 475.27ZM610.649 517.543C610.649 517.543 652.164 487.992 641.317 474.193C630.011 459.836 613.6 486.456 605.824 499.637C589.214 527.732 588.915 534.791 595.515 529.547L610.649 517.543ZM538.187 432.558C538.187 432.558 480.102 402.329 470.67 422.808C460.84 444.124 500.899 447.354 520.52 448.55C562.394 451.143 570.63 447.354 560.819 442.848L538.187 432.558ZM546.363 465.818C546.363 465.818 483.432 447.753 478.247 469.707C472.864 492.538 512.764 487.653 532.245 485.021C573.8 479.238 581.098 473.894 570.59 471.422L546.363 465.818ZM560.759 502.109C560.759 502.109 507.141 488.271 503.252 506.955C499.264 526.396 532.863 521.411 549.274 518.66C584.269 512.797 590.33 508.111 581.397 506.277L560.759 502.109ZM569.154 532.019C569.154 532.019 517.31 512.558 511.468 530.723C505.386 549.646 539.384 548.25 555.974 547.253C591.407 545.14 597.848 541.132 589.214 538.34L569.154 532.019ZM534.399 380.216C534.399 380.216 510.73 306.637 483.851 320.017C455.935 333.975 488.198 367.095 504.369 382.988C538.845 416.886 549.513 419.239 544.987 407.414L534.399 380.216Z" fill="white"/>
<path d="M495.097 346.318C495.097 346.318 554.558 418.86 568.775 455.171C585.126 496.905 596.252 543.904 598.466 582.787" stroke="#CCCCCC" stroke-width="1.25197" stroke-linecap="round" stroke-linejoin="round"/>
<path d="M556.931 431.462L565.206 362.29" stroke="#CCCCCC" stroke-width="1.25197" stroke-linecap="round" stroke-linejoin="round"/>
<path d="M568.775 455.151L598.685 397.005" stroke="#CCCCCC" stroke-width="1.25197" stroke-linecap="round" stroke-linejoin="round"/>
<path d="M564.408 446.537L501.756 433.775" stroke="#CCCCCC" stroke-width="1.25197" stroke-linecap="round" stroke-linejoin="round"/>
<path d="M580.54 488.151L617.369 446.198" stroke="#CCCCCC" stroke-width="1.25197" stroke-linecap="round" stroke-linejoin="round"/>
<path d="M575.395 474.333L528.117 473.914" stroke="#CCCCCC" stroke-width="1.25197" stroke-linecap="round" stroke-linejoin="round"/>
<path d="M584.507 508.67L548.236 510.085" stroke="#CCCCCC" stroke-width="1.25197" stroke-linecap="round" stroke-linejoin="round"/>
<path d="M591.945 530.564L611.367 504.682" stroke="#CCCCCC" stroke-width="1.25197" stroke-linecap="round" stroke-linejoin="round"/>
<path d="M593.381 540.195L550.948 538.081" stroke="#CCCCCC" stroke-width="1.25197" stroke-linecap="round" stroke-linejoin="round"/>
<path d="M711.545 484.183C704.227 486.935 706.461 480.773 729.093 460.514C739.701 451.003 761.754 432 767.736 447.912C773.499 463.206 728.375 477.822 728.375 477.822L711.545 484.183ZM723.051 502.987C723.051 502.987 770.468 503.884 769.99 487.553C769.491 470.564 742.472 481.372 729.352 486.915C701.436 498.739 697.228 503.844 705.045 503.605L723.051 502.987ZM705.204 528.909C705.204 528.909 741.316 536.466 743.33 523.904C745.324 510.843 723.17 515.21 712.343 517.543C689.232 522.508 685.344 525.818 691.346 526.775L705.204 528.909ZM688.315 555.688C688.315 555.688 724.447 563.245 726.441 550.683C728.534 537.622 706.301 541.969 695.454 544.302C672.363 549.267 668.375 552.578 674.357 553.535L688.315 555.688ZM697.906 475.37C697.906 475.37 685.424 429.607 669.99 434.652C653.819 439.896 671.805 462.808 680.818 473.834C700.02 497.384 706.082 499.896 703.649 492.458L697.906 475.37ZM684.228 496.068C684.228 496.068 662.912 453.715 648.694 461.731C633.879 470.106 656.052 488.969 667.059 497.982C690.568 517.244 696.969 518.5 693.161 511.7L684.228 496.068ZM672.004 521.551C672.004 521.551 653.001 486.237 641.157 493.356C628.834 500.773 648.016 516.207 657.548 523.585C677.867 539.317 683.33 540.235 679.92 534.572L672.004 521.551ZM660.2 540.753C660.2 540.753 645.045 503.605 632.523 509.427C619.482 515.409 636.91 532.877 645.604 541.232C664.148 559.038 669.532 560.534 666.7 554.532L660.2 540.753ZM723.828 447.693C723.828 447.693 751.326 398.94 731.007 391.223C709.87 383.247 708.096 416.686 707.597 433.097C706.52 468.112 710.508 474.971 714.576 466.716L723.828 447.693Z" fill="white"/>
<path d="M722.512 410.126C722.512 410.126 713.16 477.404 700.837 502.827C686.68 532.019 665.304 563.106 645.683 583.405" stroke="#CCCCCC" stroke-width="1.25197" stroke-linecap="round" stroke-linejoin="round"/>
<path d="M703.27 496.207L679.262 456.606" stroke="#CCCCCC" stroke-width="1.25197" stroke-linecap="round" stroke-linejoin="round"/>
<path d="M689.073 525.24L729.492 524.203" stroke="#CCCCCC" stroke-width="1.25197" stroke-linecap="round" stroke-linejoin="round"/>
<path d="M693.898 515.708L670.868 490.345" stroke="#CCCCCC" stroke-width="1.25197" stroke-linecap="round" stroke-linejoin="round"/>
<path d="M680.1 537.423L661.516 518.839" stroke="#CCCCCC" stroke-width="1.25197" stroke-linecap="round" stroke-linejoin="round"/>
<path d="M672.104 552.159L695.434 549.766" stroke="#CCCCCC" stroke-width="1.25197" stroke-linecap="round" stroke-linejoin="round"/>
<path d="M667.677 557.642L647.957 534.053" stroke="#CCCCCC" stroke-width="1.25197" stroke-linecap="round" stroke-linejoin="round"/>
<path d="M100.504 426.896C96.5155 436.866 92.2882 428.89 92.9463 386.896C93.2653 367.235 94.6412 327.076 116.396 335.909C137.293 344.404 109.756 403.805 109.756 403.805L100.504 426.896ZM130.414 432.878C130.414 432.878 175.737 385.64 158.748 370.824C141.042 355.391 126.685 392.938 120.005 411.442C105.768 450.903 107.084 459.856 114.162 451.701L130.414 432.878ZM139.965 475.23C139.965 475.23 181.48 445.679 170.613 431.881C159.327 417.524 142.916 444.164 135.119 457.324C118.509 485.439 118.23 492.478 124.83 487.234L139.965 475.23ZM151.211 517.503C151.211 517.503 192.666 487.892 181.839 474.153C170.533 459.797 154.122 486.417 146.346 499.597C129.736 527.692 129.436 534.751 136.037 529.507L151.211 517.503ZM78.6891 432.519C78.6891 432.519 20.6238 402.29 11.1722 422.768C1.3418 444.084 41.4013 447.314 61.0223 448.511C102.896 451.103 111.112 447.314 101.301 442.808L78.6891 432.519ZM86.8645 465.779C86.8645 465.779 23.9538 447.713 18.7494 469.667C13.3656 492.498 53.2656 487.613 72.747 484.981C114.302 479.198 121.62 473.854 111.112 471.382L86.8645 465.779ZM101.261 502.069C101.261 502.069 47.6425 488.231 43.7542 506.915C39.7662 526.356 73.3652 521.371 89.7758 518.62C124.771 512.757 130.832 508.071 121.899 506.237L101.261 502.069ZM109.656 531.979C109.656 531.979 57.8119 512.518 51.9695 530.683C45.8878 549.606 79.8855 548.211 96.4756 547.214C131.909 545.1 138.35 541.092 129.736 538.3L109.656 531.979ZM74.9404 380.216C74.9404 380.216 51.2716 306.717 24.3127 320.097C-3.60333 334.055 28.6596 367.175 44.831 383.067C79.3272 416.965 89.9951 419.318 85.4488 407.494L74.9404 380.216Z" fill="white"/>
<path d="M35.6387 346.318C35.6387 346.318 95.0998 418.86 109.317 455.171C125.668 496.905 136.794 543.904 139.008 582.787" stroke="#CCCCCC" stroke-width="1.25197" stroke-linecap="round" stroke-linejoin="round"/>
<path d="M97.4927 431.462L105.748 362.29" stroke="#CCCCCC" stroke-width="1.25197" stroke-linecap="round" stroke-linejoin="round"/>
<path d="M109.317 455.151L139.227 397.005" stroke="#CCCCCC" stroke-width="1.25197" stroke-linecap="round" stroke-linejoin="round"/>
<path d="M104.95 446.537L42.3184 433.775" stroke="#CCCCCC" stroke-width="1.25197" stroke-linecap="round" stroke-linejoin="round"/>
<path d="M121.082 488.151L157.911 446.198" stroke="#CCCCCC" stroke-width="1.25197" stroke-linecap="round" stroke-linejoin="round"/>
<path d="M115.937 474.333L68.6592 473.914" stroke="#CCCCCC" stroke-width="1.25197" stroke-linecap="round" stroke-linejoin="round"/>
<path d="M125.05 508.67L88.7788 510.085" stroke="#CCCCCC" stroke-width="1.25197" stroke-linecap="round" stroke-linejoin="round"/>
<path d="M132.507 530.564L151.929 504.682" stroke="#CCCCCC" stroke-width="1.25197" stroke-linecap="round" stroke-linejoin="round"/>
<path d="M133.923 540.195L91.4907 538.081" stroke="#CCCCCC" stroke-width="1.25197" stroke-linecap="round" stroke-linejoin="round"/>
<path d="M252.088 484.183C244.77 486.935 247.003 480.773 269.635 460.514C280.263 451.003 302.296 432 308.279 447.912C314.041 463.206 268.917 477.822 268.917 477.822L252.088 484.183ZM263.593 502.987C263.593 502.987 311.01 503.884 310.532 487.553C310.033 470.564 283.014 481.372 269.894 486.915C241.978 498.739 237.771 503.844 245.587 503.605L263.593 502.987ZM245.747 528.909C245.747 528.909 281.858 536.466 283.872 523.904C285.866 510.843 263.713 515.21 252.885 517.543C229.695 522.508 225.886 525.778 231.888 526.775L245.747 528.909ZM228.778 555.688C228.778 555.688 264.909 563.245 266.903 550.683C268.997 537.622 246.764 541.969 235.936 544.302C212.806 549.287 208.917 552.597 214.939 553.555L228.778 555.688ZM238.369 475.37C238.369 475.37 225.906 429.607 210.453 434.652C194.281 439.896 212.247 462.808 221.26 473.834C240.462 497.384 246.524 499.896 244.092 492.458L238.369 475.37ZM224.69 496.068C224.69 496.068 203.374 453.715 189.157 461.731C174.341 470.106 196.515 488.969 207.542 497.982C231.051 517.244 237.452 518.5 233.623 511.7L224.69 496.068ZM212.467 521.551C212.467 521.551 193.464 486.237 181.619 493.356C169.297 500.773 188.479 516.207 198.01 523.585C218.329 539.317 223.813 540.235 220.383 534.572L212.467 521.551ZM200.662 540.753C200.662 540.753 185.528 503.605 172.985 509.427C159.945 515.409 177.392 532.877 186.066 541.232C204.61 559.038 209.994 560.534 207.163 554.532L200.662 540.753ZM264.291 447.693C264.291 447.693 291.808 398.94 271.489 391.223C250.333 383.247 248.578 416.686 248.06 433.097C247.003 468.112 250.971 474.971 255.039 466.716L264.291 447.693Z" fill="white"/>
<path d="M263.054 410.126C263.054 410.126 253.703 477.404 241.38 502.827C227.222 532.019 205.847 563.106 186.226 583.405" stroke="#CCCCCC" stroke-width="1.25197" stroke-linecap="round" stroke-linejoin="round"/>
<path d="M248.159 484.821L289.016 455.23" stroke="#CCCCCC" stroke-width="1.25197" stroke-linecap="round" stroke-linejoin="round"/>
<path d="M241.38 502.767L287.003 490.086" stroke="#CCCCCC" stroke-width="1.25197" stroke-linecap="round" stroke-linejoin="round"/>
<path d="M243.812 496.207L219.805 456.606" stroke="#CCCCCC" stroke-width="1.25197" stroke-linecap="round" stroke-linejoin="round"/>
<path d="M229.615 525.24L270.034 524.203" stroke="#CCCCCC" stroke-width="1.25197" stroke-linecap="round" stroke-linejoin="round"/>
<path d="M234.44 515.708L211.41 490.345" stroke="#CCCCCC" stroke-width="1.25197" stroke-linecap="round" stroke-linejoin="round"/>
<path d="M220.642 537.423L202.058 518.839" stroke="#CCCCCC" stroke-width="1.25197" stroke-linecap="round" stroke-linejoin="round"/>
<path d="M212.646 552.159L235.976 549.766" stroke="#CCCCCC" stroke-width="1.25197" stroke-linecap="round" stroke-linejoin="round"/>
<path d="M208.24 557.642L188.499 534.053" stroke="#CCCCCC" stroke-width="1.25197" stroke-linecap="round" stroke-linejoin="round"/>
<path d="M366.224 172.242C366.224 172.242 340.701 164.106 321.18 184.206C301.658 204.305 311.947 244.444 311.947 258.542C311.947 272.64 294.001 362.23 294.001 362.23C294.001 362.23 285.307 394.792 309.196 415.43C333.084 436.068 377.231 434.273 396.074 394.553C414.918 354.832 394.938 298.203 394.938 268.931C394.938 239.659 399.285 220.098 392.764 198.941C390.785 192.7 387.344 187.021 382.728 182.377C378.111 177.733 372.454 174.259 366.224 172.242Z" fill="#263238" stroke="#263238" stroke-linecap="round" stroke-linejoin="round"/>
<path d="M358.647 187.456C358.647 187.456 334.041 218.044 317.431 226.678" stroke="white" stroke-linecap="round" stroke-linejoin="round"/>
<path d="M337.371 184.804C337.371 184.804 324.749 215.372 313.443 224.026" stroke="white" stroke-linecap="round" stroke-linejoin="round"/>
<path d="M408.178 289.948C410.536 291.6 412.516 293.735 413.987 296.21C415.458 298.684 416.387 301.444 416.712 304.304C418.168 314.474 407.321 337.983 405.147 349.608C403.093 363.721 401.769 377.931 401.179 392.18C401.179 395.809 413.542 449.567 415.715 462.648C417.889 475.729 414.619 506.516 412.804 508.769C410.989 511.023 405.905 500.415 405.546 493.515C405.187 486.616 391.747 433.576 386.663 417.604C381.578 401.632 383.014 380.555 383.014 380.555C383.014 380.555 389.933 332.24 389.933 313.716C389.933 295.192 390.491 281.333 390.491 281.333L408.178 289.948Z" fill="#92E3A9" stroke="#263238" stroke-linecap="round" stroke-linejoin="round"/>
<path d="M412.765 508.69C414.579 506.516 417.849 475.629 415.676 462.568C413.502 449.508 401.179 395.729 401.179 392.18C401.779 377.957 403.11 363.774 405.167 349.688C405.965 345.96 406.991 342.284 408.238 338.681C403.965 340.738 399.282 341.802 394.539 341.792C392.007 341.792 389.534 344.125 387.162 348.093C385.168 364.962 382.994 380.555 382.994 380.555C382.994 380.555 381.558 401.612 386.643 417.604C391.728 433.595 405.167 486.616 405.526 493.515C405.885 500.414 410.95 510.863 412.765 508.69Z" fill="white" stroke="#263238" stroke-linecap="round" stroke-linejoin="round"/>
<path d="M339.843 584.96C340.641 576.027 342.316 557.842 343.393 550.823C344.848 541.391 347.74 522.129 347.74 522.129L355.098 584.96H405.506C407.32 571.261 411.887 534.532 412.764 508.69C413.861 476.367 389.514 409.528 388.836 404.443C388.158 399.358 389.554 384.503 389.554 380.116C389.554 375.73 402.236 347.893 403.312 333.716C404.389 319.539 407.679 315.192 407.679 315.192L409.494 291.264C408.397 290.905 392.106 278.083 375.755 273.318C365.811 270.495 355.313 270.248 345.247 272.6C345.247 272.6 321.638 283.128 309.654 288.213C297.67 293.297 287.82 303.108 287.521 315.81C287.222 328.512 310.751 382.649 312.944 386.657C315.138 390.665 308.219 404.802 305.307 412.08C302.396 419.358 290.412 445.5 282.436 474.552C275.597 499.358 280.163 566.017 281.658 584.96H339.843Z" fill="#92E3A9" stroke="#263238" stroke-linecap="round" stroke-linejoin="round"/>
<path d="M351.169 376.627C351.169 376.627 369.793 378.86 388.437 360.974" stroke="#263238" stroke-linecap="round" stroke-linejoin="round"/>
<path d="M364.091 324.543C369.534 323.088 376.454 300.615 377.171 288.951C377.57 282.43 377.969 277.565 377.79 273.976C377.112 273.756 376.414 273.517 375.796 273.318C365.851 270.495 355.353 270.248 345.287 272.6L335.676 276.867C334.874 282.032 335.43 287.317 337.291 292.201C341.22 303.108 358.647 325.999 364.091 324.543Z" fill="white" stroke="#263238" stroke-linecap="round" stroke-linejoin="round"/>
<path d="M339.764 261.453C339.764 261.453 341.598 282.849 342.695 288.093C343.792 293.337 354.818 314.015 361.06 312.879C367.301 311.742 371.269 284.723 371.269 282.091C371.269 279.459 372.007 258.163 372.007 258.163C372.007 258.163 358.866 268.951 339.764 261.453Z" fill="white" stroke="#263238" stroke-linecap="round" stroke-linejoin="round"/>
<path d="M303.792 291.842C303.792 291.842 288.917 292.58 280.562 309.289C272.207 325.999 281.998 337.205 285.268 343.786C288.538 350.366 297.631 377.205 300.522 385.201C303.413 393.197 309.256 402.629 319.425 415.709C329.594 428.79 351.01 456.746 351.01 456.746L356.832 466.915C356.832 466.915 366.643 478.181 367.72 478.54C368.796 478.899 375.357 487.254 377.889 482.169C380.422 477.085 377.889 458.939 377.889 458.939C377.889 458.939 381.877 466.915 383.353 465.101C384.828 463.286 382.974 459.298 381.538 454.931C380.102 450.564 366.663 442.229 363.732 441.851C360.801 441.472 357.191 437.863 352.844 429.149C348.498 420.435 345.207 405.221 338.308 396.088C331.409 386.956 322.356 373.576 322.356 373.576C322.356 373.576 312.187 337.245 312.187 335.79C312.93 329.005 311.935 322.144 309.295 315.85" fill="#92E3A9"/>
<path d="M303.792 291.842C303.792 291.842 288.917 292.58 280.562 309.289C272.207 325.999 281.998 337.205 285.268 343.786C288.538 350.366 297.631 377.205 300.522 385.201C303.413 393.197 309.256 402.629 319.425 415.709C329.594 428.79 351.01 456.746 351.01 456.746L356.832 466.915C356.832 466.915 366.643 478.181 367.72 478.54C368.796 478.899 375.357 487.254 377.889 482.169C380.422 477.085 377.889 458.939 377.889 458.939C377.889 458.939 381.877 466.915 383.353 465.101C384.828 463.286 382.974 459.298 381.538 454.931C380.102 450.564 366.663 442.229 363.732 441.851C360.801 441.472 357.191 437.863 352.844 429.149C348.498 420.435 345.207 405.221 338.308 396.088C331.409 386.956 322.356 373.576 322.356 373.576C322.356 373.576 312.187 337.245 312.187 335.79C312.93 329.005 311.935 322.144 309.295 315.85" stroke="#263238" stroke-linecap="round" stroke-linejoin="round"/>
<path d="M363.732 441.851C360.82 441.492 357.191 437.863 352.844 429.149C348.497 420.435 345.207 405.221 338.308 396.088C331.409 386.956 322.356 373.576 322.356 373.576C322.356 373.576 315.477 348.97 313.044 339.459C299.684 337.584 290.871 340.276 285.268 343.706C288.538 350.246 297.63 377.125 300.522 385.121C303.413 393.117 309.255 402.549 319.425 415.63C329.594 428.71 351.01 456.666 351.01 456.666L356.832 466.836C356.832 466.836 366.643 478.102 367.72 478.461C368.796 478.819 375.357 487.174 377.889 482.09C380.421 477.005 377.889 458.859 377.889 458.859C377.889 458.859 381.877 466.835 383.353 465.021C384.828 463.206 382.974 459.218 381.538 454.852C380.102 450.485 366.663 442.23 363.732 441.851Z" fill="white" stroke="#263238" stroke-linecap="round" stroke-linejoin="round"/>
<path d="M339.843 584.96C340.641 576.027 342.316 557.842 343.393 550.823C344.848 541.391 347.74 522.129 347.74 522.129L355.097 584.96H405.506C407.32 571.261 411.887 534.532 412.764 508.69C413.223 495.23 409.255 475.769 404.429 457.284C361.817 466.616 313.503 459.856 288.418 454.991C286.304 461.232 284.231 467.793 282.436 474.552C275.597 499.358 280.163 566.017 281.658 584.96H339.843Z" fill="#263238" stroke="#263238" stroke-linecap="round" stroke-linejoin="round"/>
<path d="M327.142 229.589C327.142 229.589 323.892 228.134 323.892 234.654C323.892 241.174 331.13 245.501 331.13 245.501L327.142 229.589Z" fill="white" stroke="#263238" stroke-linecap="round" stroke-linejoin="round"/>
<path d="M364.45 193.777C364.45 193.777 352.844 210.128 342.655 216.668C337.398 220.124 331.945 223.274 326.324 226.1C326.324 226.1 331.409 247.176 333.582 254.016C335.756 260.855 342.276 272.939 355.357 273.657C368.438 274.374 374.26 260.556 376.812 254.016C378.265 250.636 379.044 247.006 379.105 243.328C380.941 242.168 382.506 240.628 383.697 238.812C384.887 236.996 385.674 234.945 386.005 232.799C386.723 225.9 384.908 226.259 384.908 226.259C384.908 226.259 382.914 228.512 378.587 225.123C375.078 222.51 363.293 203.587 364.45 193.777Z" fill="white" stroke="#263238" stroke-linecap="round" stroke-linejoin="round"/>
<path d="M336.753 235.073C336.753 235.073 341.878 231.324 349.375 235.073" stroke="#263238" stroke-linecap="round" stroke-linejoin="round"/>
<path d="M359.943 235.751C359.943 235.751 366.084 230.287 372.565 234.734" stroke="#263238" stroke-linecap="round" stroke-linejoin="round"/>
<path d="M335.736 226.877C335.736 226.877 338.468 221.773 347.7 224.165" stroke="#263238" stroke-linecap="round" stroke-linejoin="round"/>
<path d="M359.943 224.504C362.031 222.981 364.607 222.277 367.18 222.527C369.753 222.777 372.145 223.963 373.901 225.86" stroke="#263238" stroke-linecap="round" stroke-linejoin="round"/>
<path d="M358.926 246.997C358.926 246.997 353.463 250.745 351.09 246.997" stroke="#263238" stroke-linecap="round" stroke-linejoin="round"/>
<path d="M349.036 254.853C349.036 254.853 355.856 257.565 359.265 254.514" stroke="#263238" stroke-linecap="round" stroke-linejoin="round"/>
<path d="M233.783 450.864C233.783 450.864 249.735 486.277 253.543 493.416C257.352 500.554 261.778 520.873 262.317 532.937C262.855 545 262.317 547.493 259.585 547.214C256.853 546.935 255.737 531.84 255.737 529.367V525.539C255.737 525.539 254.361 539.796 252.167 542.548C249.974 545.3 246.943 548.31 246.684 546.675C246.425 545.04 247.222 542.269 248.319 538.161C248.981 535.003 249.17 531.764 248.877 528.55C248.877 528.55 247.222 536.227 243.394 538.979C239.565 541.73 235.418 542.827 236.794 540.634C238.169 538.44 241.739 535.968 242.556 533.216C243.121 530.696 243.402 528.121 243.394 525.539C243.394 525.539 238.169 534.033 235.976 535.409C233.783 536.785 233.783 533.774 235.158 532.398C236.534 531.022 239.545 521.691 239.545 521.691C239.545 521.691 238.708 521.132 234.879 512.638C231.051 504.143 228.897 489.288 227.741 483.525C226.584 477.763 224.451 470.086 224.451 470.086L203.314 434.672C203.314 434.672 201.659 426.158 209.615 424.702C217.571 423.247 233.783 450.864 233.783 450.864Z" fill="white"/>
<path opacity="0.15" d="M233.783 450.864C233.783 450.864 249.735 486.277 253.543 493.416C257.352 500.554 261.778 520.873 262.317 532.937C262.855 545 262.317 547.493 259.585 547.214C256.853 546.935 255.737 531.84 255.737 529.367V525.539C255.737 525.539 254.361 539.796 252.167 542.548C249.974 545.3 246.943 548.31 246.684 546.675C246.425 545.04 247.222 542.269 248.319 538.161C248.981 535.003 249.17 531.764 248.877 528.55C248.877 528.55 247.222 536.227 243.394 538.979C239.565 541.73 235.418 542.827 236.794 540.634C238.169 538.44 241.739 535.968 242.556 533.216C243.121 530.696 243.402 528.121 243.394 525.539C243.394 525.539 238.169 534.033 235.976 535.409C233.783 536.785 233.783 533.774 235.158 532.398C236.534 531.022 239.545 521.691 239.545 521.691C239.545 521.691 238.708 521.132 234.879 512.638C231.051 504.143 228.897 489.288 227.741 483.525C226.584 477.763 224.451 470.086 224.451 470.086L203.314 434.672C203.314 434.672 201.659 426.158 209.615 424.702C217.571 423.247 233.783 450.864 233.783 450.864Z" fill="black"/>
<path d="M233.783 450.864C233.783 450.864 249.735 486.277 253.543 493.416C257.352 500.554 261.778 520.873 262.317 532.937C262.855 545 262.317 547.493 259.585 547.214C256.853 546.935 255.737 531.84 255.737 529.367V525.539C255.737 525.539 254.361 539.796 252.167 542.548C249.974 545.3 246.943 548.31 246.684 546.675C246.425 545.04 247.222 542.269 248.319 538.161C248.981 535.003 249.17 531.764 248.877 528.55C248.877 528.55 247.222 536.227 243.394 538.979C239.565 541.73 235.418 542.827 236.794 540.634C238.169 538.44 241.739 535.968 242.556 533.216C243.121 530.696 243.402 528.121 243.394 525.539C243.394 525.539 238.169 534.033 235.976 535.409C233.783 536.785 233.783 533.774 235.158 532.398C236.534 531.022 239.545 521.691 239.545 521.691C239.545 521.691 238.708 521.132 234.879 512.638C231.051 504.143 228.897 489.288 227.741 483.525C226.584 477.763 224.451 470.086 224.451 470.086L203.314 434.672C203.314 434.672 201.659 426.158 209.615 424.702C217.571 423.247 233.783 450.864 233.783 450.864Z" stroke="#263238" stroke-linecap="round" stroke-linejoin="round"/>
<path d="M253.623 503.844C253.623 503.844 256.374 517.304 256.095 523.326C255.816 529.347 257.192 532.398 255.258 532.398C253.324 532.398 252.805 531.022 250.871 524.981C249.598 520.5 248.769 515.905 248.398 511.262C248.398 511.262 241.539 511.262 239.066 501.092" fill="white"/>
<path opacity="0.15" d="M253.623 503.844C253.623 503.844 256.374 517.304 256.095 523.326C255.816 529.347 257.192 532.398 255.258 532.398C253.324 532.398 252.805 531.022 250.871 524.981C249.598 520.5 248.769 515.905 248.398 511.262C248.398 511.262 241.539 511.262 239.066 501.092" fill="black"/>
<path d="M253.623 503.844C253.623 503.844 256.374 517.304 256.095 523.326C255.816 529.347 257.192 532.398 255.258 532.398C253.324 532.398 252.805 531.022 250.871 524.981C249.598 520.5 248.769 515.905 248.398 511.262C248.398 511.262 241.539 511.262 239.066 501.092" stroke="#263238" stroke-linecap="round" stroke-linejoin="round"/>
<path d="M131.092 584.96H232.148C232.646 566.057 235.956 442.588 236.953 437.065C238.05 431.083 243.473 374.653 244.012 352.42C244.55 330.186 234.78 298.143 234.78 295.969C234.78 293.796 233.164 280.237 217.97 268.831C202.776 257.425 190.832 257.445 187.582 259.06C187.582 259.06 175.618 267.216 156.635 287.295C137.652 307.375 131.131 323.646 131.131 354.573C131.146 373.29 132.78 391.97 136.017 410.405C136.017 410.405 130.035 506.995 130.035 509.168C130.035 511.342 130.912 572.059 131.092 584.96Z" fill="white" stroke="#263238" stroke-linecap="round" stroke-linejoin="round"/>
<path d="M176.954 366.617C179.099 366.612 181.242 366.492 183.374 366.258C206.624 363.726 226.843 339.957 240.183 319.419C239.565 316.448 238.947 313.596 238.329 310.984C225.747 331.503 205.408 357.843 182.736 360.316C151.171 363.746 136.874 338.88 132.886 330.845C132.328 333.915 131.909 337.146 131.63 340.555C138.689 351.243 152.946 366.617 176.954 366.617Z" fill="#263238"/>
<path d="M169.376 318.641L175.159 320.177C181.12 298.474 192.831 278.785 209.057 263.188C207.125 262.17 205.127 261.284 203.075 260.536C186.931 276.607 175.308 296.648 169.376 318.641Z" fill="#263238"/>
<path d="M175.06 347.255C176.415 346.557 204.67 331.842 234.501 293.417C234.038 291.008 233.302 288.66 232.307 286.418C202.278 326.298 172.667 341.732 172.348 341.891L175.06 347.255Z" fill="#263238"/>
<path d="M145.568 325.62L151.55 324.723C151.55 324.563 149.815 310.426 163.733 280.077C161.5 282.291 159.167 284.683 156.694 287.296C155.099 288.97 153.623 290.626 152.208 292.281C144.052 314.414 145.488 325.022 145.568 325.62Z" fill="#263238"/>
<path d="M194.899 414.254C160.523 418.72 143.055 411.502 135.239 405.959C135.697 408.87 136.016 410.485 136.016 410.485C136.016 410.485 136.016 411.542 135.837 413.456C143.494 417.663 155.777 421.651 174.58 421.651C181.637 421.621 188.683 421.135 195.677 420.196C211.523 418.158 226.755 412.775 240.363 404.403C240.602 401.891 240.821 399.319 241.041 396.706C227.247 406.089 211.442 412.099 194.899 414.254Z" fill="#263238"/>
<path d="M193.125 451.063C208.927 447.044 223.972 440.485 237.671 431.641C237.91 429.488 238.189 426.856 238.508 423.845C224.278 433.668 208.43 440.911 191.689 445.24C168.539 450.923 146.066 444.582 134.202 440.016C134.082 442.01 133.943 444.164 133.823 446.317C146.12 450.94 159.131 453.376 172.268 453.516C179.293 453.53 186.295 452.707 193.125 451.063Z" fill="#263238"/>
<path d="M131.151 490.145C131.012 492.299 130.892 494.333 130.792 496.127C146.208 499.827 161.998 501.748 177.851 501.85C197.344 502.062 216.699 498.557 234.879 491.521C234.879 489.328 235.019 487.134 235.079 485.001C195.039 501.85 152.208 495.27 131.151 490.145Z" fill="#263238"/>
<path d="M197.492 470.405C176.033 475.606 153.568 474.917 132.468 468.411C132.348 470.504 132.209 472.578 132.089 474.632C143.718 478.188 155.82 479.956 167.981 479.876C178.391 479.865 188.766 478.674 198.908 476.327C211.758 473.35 224.171 468.725 235.837 462.568C235.837 460.096 236.016 457.743 236.096 455.549C223.991 462.294 210.995 467.295 197.492 470.405Z" fill="#263238"/>
<path d="M180.742 386.198C156.216 387.434 140.363 378.382 131.57 370.924C131.709 373.676 131.889 376.348 132.088 378.9C145.002 387.938 160.457 392.631 176.216 392.3C177.791 392.3 179.406 392.3 181.041 392.18C205.109 390.964 226.405 380.435 243.613 361.772C243.812 358.282 243.952 355.092 244.012 352.44V352.041C229.954 369.488 209.555 384.722 180.742 386.198Z" fill="#263238"/>
<path d="M221.479 271.742C220.383 270.765 219.246 269.748 217.97 268.831C202.776 257.445 190.832 257.445 187.581 259.06C181.248 263.695 175.251 268.773 169.635 274.255C169.065 276.701 169.063 279.246 169.63 281.694C170.197 284.141 171.317 286.426 172.905 288.372C183.214 301.393 216.773 351.323 225.547 340.476C234.321 329.628 232.048 299.778 222.277 273.716C222.038 273.038 221.719 272.38 221.479 271.742Z" fill="#92E3A9" stroke="#263238" stroke-linecap="round" stroke-linejoin="round"/>
<path d="M189.815 329.07C189.815 329.07 219.127 391.482 225.089 401.253C227.716 405.895 230.81 410.258 234.321 414.274C234.321 414.274 260.243 422.987 282.476 431.143C304.709 439.298 343.353 450.006 351.469 452.259C359.584 454.513 373.163 454.433 375.397 454.433C377.63 454.433 403.612 460.415 405.307 461.492C407.002 462.568 404.768 464.742 400.96 465.839C397.151 466.935 384.689 467.992 378.707 470.165C372.725 472.339 367.859 471.801 359.185 469.627C352.349 467.525 345.789 464.613 339.644 460.953C339.644 460.953 268.438 455.988 251.629 453.994C234.82 452 215.737 449.647 208.22 440.973C193.133 423.943 179.21 405.916 166.545 387.016C156.336 371.582 137.652 349.907 144.73 330.266" fill="white"/>
<path d="M189.815 329.07C189.815 329.07 219.127 391.482 225.089 401.253C227.716 405.895 230.81 410.258 234.321 414.274C234.321 414.274 260.243 422.987 282.476 431.143C304.709 439.298 343.353 450.006 351.469 452.259C359.584 454.513 373.163 454.433 375.397 454.433C377.63 454.433 403.612 460.415 405.307 461.492C407.002 462.568 404.768 464.742 400.96 465.839C397.151 466.935 384.689 467.992 378.707 470.165C372.725 472.339 367.859 471.801 359.185 469.627C352.349 467.525 345.789 464.613 339.644 460.953C339.644 460.953 268.438 455.988 251.629 453.994C234.82 452 215.737 449.647 208.22 440.973C193.133 423.943 179.21 405.916 166.545 387.016C156.336 371.582 137.652 349.907 144.73 330.266" stroke="#263238" stroke-linecap="round" stroke-linejoin="round"/>
<path d="M375.257 454.433C373.083 454.433 359.524 454.433 351.329 452.259C343.134 450.086 304.49 439.278 282.257 431.143C260.024 423.007 234.102 414.274 234.102 414.274C230.59 410.258 227.497 405.895 224.869 401.253C222.417 397.265 215.996 384.244 209.276 370.386C187.641 376.049 176.754 386.338 171.39 394.314C182.721 410.522 194.964 426.074 208.06 440.894C215.657 449.567 234.64 451.741 251.469 453.914C268.299 456.088 339.385 460.973 339.385 460.973C345.53 464.633 352.09 467.545 358.926 469.647C367.6 471.821 372.485 472.359 378.447 470.185C384.409 468.012 396.912 466.935 400.7 465.858C404.489 464.782 406.682 462.588 405.047 461.511C403.412 460.435 377.51 454.433 375.257 454.433Z" fill="white"/>
<path opacity="0.15" d="M375.257 454.433C373.083 454.433 359.524 454.433 351.329 452.259C343.134 450.086 304.49 439.278 282.257 431.143C260.024 423.007 234.102 414.274 234.102 414.274C230.59 410.258 227.497 405.895 224.869 401.253C222.417 397.265 215.996 384.244 209.276 370.386C187.641 376.049 176.754 386.338 171.39 394.314C182.721 410.522 194.964 426.074 208.06 440.894C215.657 449.567 234.64 451.741 251.469 453.914C268.299 456.088 339.385 460.973 339.385 460.973C345.53 464.633 352.09 467.545 358.926 469.647C367.6 471.821 372.485 472.359 378.447 470.185C384.409 468.012 396.912 466.935 400.7 465.858C404.489 464.782 406.682 462.588 405.047 461.511C403.412 460.435 377.51 454.433 375.257 454.433Z" fill="black"/>
<path d="M375.257 454.433C373.083 454.433 359.524 454.433 351.329 452.259C343.134 450.086 304.49 439.278 282.257 431.143C260.024 423.007 234.102 414.274 234.102 414.274C230.59 410.258 227.497 405.895 224.869 401.253C222.417 397.265 215.996 384.244 209.276 370.386C187.641 376.049 176.754 386.338 171.39 394.314C182.721 410.522 194.964 426.074 208.06 440.894C215.657 449.567 234.64 451.741 251.469 453.914C268.299 456.088 339.385 460.973 339.385 460.973C345.53 464.633 352.09 467.545 358.926 469.647C367.6 471.821 372.485 472.359 378.447 470.185C384.409 468.012 396.912 466.935 400.7 465.858C404.489 464.782 406.682 462.588 405.047 461.512C403.412 460.435 377.51 454.433 375.257 454.433Z" stroke="#263238" stroke-linecap="round" stroke-linejoin="round"/>
<path d="M232.147 584.96C232.386 575.548 233.344 539.995 234.36 506.077C219.985 511.69 204.911 515.312 189.555 516.845C157.651 520.574 139.266 512.857 130.174 506.875C130.174 508.211 130.054 509.049 130.054 509.228C130.054 511.222 130.912 572.039 131.091 585L232.147 584.96Z" fill="#92E3A9" stroke="#263238" stroke-linecap="round" stroke-linejoin="round"/>
<path d="M206.724 580.434C201.779 561.67 213.743 537.742 196.475 525.32" stroke="#263238" stroke-linecap="round" stroke-linejoin="round"/>
<path d="M206.724 537.264L228.937 515.928" stroke="#263238" stroke-linecap="round" stroke-linejoin="round"/>
<path d="M151.031 537.403L150.453 580.434" stroke="#263238" stroke-linecap="round" stroke-linejoin="round"/>
<path d="M151.231 521.91L151.131 529.766" stroke="#263238" stroke-linecap="round" stroke-linejoin="round"/>
<path d="M240.263 171.564C249.089 173.903 256.888 179.107 262.436 186.359C266.199 191.174 268.75 196.823 269.874 202.83C272.526 218.981 263.433 223.966 266.364 231.304C269.296 238.642 272.227 242.45 269.874 245.98C267.521 249.509 260.203 250.087 259.026 250.387C257.85 250.686 255.497 264.165 250.811 270.047C246.125 275.93 229.675 269.17 229.675 269.17C229.675 269.17 222.935 280.616 220.881 284.424C218.827 288.233 222.875 311.124 219.984 321.393C217.093 331.662 210.313 320.516 197.392 304.384C184.471 288.253 178.608 275.032 179.207 270.626C179.805 266.219 190.054 255.95 191.829 252.141C193.603 248.333 194.461 246.558 193.583 243.049C192.706 239.539 182.437 225.103 182.437 206.658C182.437 188.214 197.093 170.567 216.474 169.091C224.487 168.565 232.53 169.401 240.263 171.564Z" fill="white"/>
<path opacity="0.15" d="M240.263 171.564C249.089 173.903 256.888 179.107 262.436 186.359C266.199 191.174 268.75 196.823 269.874 202.83C272.526 218.981 263.433 223.966 266.364 231.304C269.296 238.642 272.227 242.45 269.874 245.98C267.521 249.509 260.203 250.087 259.026 250.387C257.85 250.686 255.497 264.165 250.811 270.047C246.125 275.93 229.675 269.17 229.675 269.17C229.675 269.17 222.935 280.616 220.881 284.424C218.827 288.233 222.875 311.124 219.984 321.393C217.093 331.662 210.313 320.516 197.392 304.384C184.471 288.253 178.608 275.032 179.207 270.626C179.805 266.219 190.054 255.95 191.829 252.141C193.603 248.333 194.461 246.558 193.583 243.049C192.706 239.539 182.437 225.103 182.437 206.658C182.437 188.214 197.093 170.567 216.474 169.091C224.487 168.565 232.53 169.401 240.263 171.564Z" fill="black"/>
<path d="M240.263 171.564C249.089 173.903 256.888 179.107 262.436 186.359C266.199 191.174 268.75 196.823 269.874 202.83C272.526 218.981 263.433 223.966 266.364 231.304C269.296 238.642 272.227 242.45 269.874 245.98C267.521 249.509 260.203 250.087 259.026 250.387C257.85 250.686 255.497 264.165 250.811 270.047C246.125 275.93 229.675 269.17 229.675 269.17C229.675 269.17 222.935 280.616 220.881 284.424C218.827 288.233 222.875 311.124 219.984 321.393C217.093 331.662 210.313 320.516 197.392 304.384C184.471 288.253 178.608 275.032 179.207 270.626C179.805 266.219 190.054 255.95 191.829 252.141C193.603 248.333 194.461 246.558 193.583 243.049C192.706 239.539 182.437 225.103 182.437 206.658C182.437 188.214 197.093 170.567 216.474 169.091C224.487 168.565 232.53 169.401 240.263 171.564Z" stroke="#263238" stroke-linecap="round" stroke-linejoin="round"/>
<path d="M243.773 184.943C250.831 181.474 255.836 181.574 259.106 182.551C253.912 177.28 247.408 173.488 240.263 171.564C232.53 169.401 224.487 168.565 216.475 169.091C197.093 170.567 182.437 188.174 182.437 206.658C182.437 225.142 192.706 239.519 193.583 243.049C193.898 244.211 193.973 245.426 193.803 246.618C207.761 249.39 212.327 242.411 212.327 242.411C210.712 242.613 209.073 242.485 207.509 242.032C205.946 241.579 204.491 240.813 203.234 239.778C199.107 236.249 199.107 222.75 204.112 216.588C209.117 210.427 214.082 218.941 214.082 223.926C214.082 228.911 216.435 233.019 218.788 232.441C221.141 231.862 220.542 226.279 221.42 222.75C222.297 219.22 232.566 213.956 234.919 211.025C237.272 208.094 233.743 205.442 229.934 201.055C226.126 196.668 229.376 191.982 243.773 184.943Z" fill="#263238" stroke="#263238" stroke-linecap="round" stroke-linejoin="round"/>
<path d="M211.749 243.328C211.749 243.328 211.749 251.563 216.753 256.827" stroke="#263238" stroke-linecap="round" stroke-linejoin="round"/>
<path d="M257.451 228.472C254.967 227.421 252.257 227.016 249.575 227.296" stroke="#263238" stroke-linecap="round" stroke-linejoin="round"/>
<path d="M261.778 221.394C261.778 221.394 257.451 213.916 249.176 219.818" stroke="#263238" stroke-linecap="round" stroke-linejoin="round"/>
<path d="M251.629 254.454C249.83 254.609 248.032 254.149 246.529 253.149C245.026 252.149 243.907 250.669 243.354 248.951" stroke="#263238" stroke-linecap="round" stroke-linejoin="round"/>
<path d="M194.7 339.598L190.951 331.622C166.844 332.041 152.726 341.034 144.75 349.568C145.611 352.406 146.691 355.173 147.98 357.843C154.261 349.688 167.721 339.02 194.7 339.598Z" fill="#263238"/>
<path d="M203.055 357.126L199.306 349.269C176.913 350.466 161.859 358.721 152.626 366.298C154.022 368.611 155.518 370.884 157.013 373.097C165.528 365.919 180.343 357.544 203.055 357.126Z" fill="#263238"/>
<path d="M462.614 410.405C465.127 417.923 466.802 444.662 466.802 458.879C466.802 470.724 459.224 556.865 456.712 584.96H570.011C571.367 557.543 575.415 475.15 575.415 464.722C575.415 452.18 571.228 400.794 576.671 382.828C582.115 364.862 588.356 317.664 578.665 303.068C568.974 288.472 532.803 280.097 521.856 276.328C510.909 272.56 494.698 270.486 486.762 274.334C486.762 274.334 465.047 286.458 451.667 298.98C438.287 311.503 432.465 330.745 434.957 346.198C437.45 361.652 460.102 402.888 462.614 410.405Z" fill="white" stroke="#263238" stroke-linecap="round" stroke-linejoin="round"/>
<path d="M561.058 289.908C556.175 287.652 551.176 285.656 546.083 283.926C527.639 330.973 498.623 373.15 461.278 407.195C461.896 408.571 462.355 409.687 462.614 410.445C463.87 415.334 464.684 420.326 465.047 425.36C507.709 388.798 540.688 342.271 561.058 289.908Z" fill="#263238"/>
<path d="M583.152 344.324C584.131 334.366 583.944 324.328 582.593 314.414C559.323 353.716 519.084 413.655 466.762 460.574C466.622 464.702 466.104 472.758 465.326 482.967C516.253 440.814 556.532 386.318 583.152 344.324Z" fill="#263238"/>
<path d="M570.011 584.96C570.968 565.439 573.301 518.081 574.557 488.63C519.423 499.178 480.66 489.148 465.266 483.745C462.913 514.791 458.507 564.801 456.712 584.96H570.011Z" fill="#263238" stroke="#263238" stroke-linecap="round" stroke-linejoin="round"/>
<path d="M501.039 324.065C516.17 324.065 528.436 312.2 528.436 297.565C528.436 282.929 516.17 271.064 501.039 271.064C485.907 271.064 473.641 282.929 473.641 297.565C473.641 312.2 485.907 324.065 501.039 324.065Z" fill="#92E3A9" stroke="#263238" stroke-linecap="round" stroke-linejoin="round"/>
<path d="M475.994 264.185C475.994 264.185 480.58 280.476 480.58 290.107C480.58 299.738 491.029 321.871 508.157 311.842C525.286 301.812 516.512 278.841 513.581 271.722C511.501 266.284 509.828 260.699 508.576 255.013C508.576 255.013 503.133 264.983 492.624 265.461C487.049 265.794 481.454 265.364 475.994 264.185Z" fill="white" stroke="#263238" stroke-linecap="round" stroke-linejoin="round"/>
<path d="M447.739 205.043C447.739 205.043 444.848 212.241 448.457 218.004C452.066 223.767 457.011 231.663 457.011 231.663L456.293 200.018C456.293 200.018 449.175 194.255 447.739 205.043Z" fill="#263238" stroke="#263238" stroke-linecap="round" stroke-linejoin="round"/>
<path d="M457.011 224.465C457.011 224.465 451.248 226.638 454.12 235.97C456.991 245.302 461.318 242.45 461.318 242.45L457.011 224.465Z" fill="white" stroke="#263238" stroke-linecap="round" stroke-linejoin="round"/>
<path d="M451.747 208.213C451.747 208.213 456.772 234.135 459.723 247.057C462.674 259.978 478.527 271.702 486.881 274.215C495.236 276.727 506.104 267.535 508.616 262.111C511.128 256.688 512.365 244.564 512.365 244.564C512.365 244.564 521.557 240.795 522.335 231.184C523.112 221.573 520.66 218.662 515.655 217.406L511.886 215.731C511.886 215.731 513.98 200.277 508.556 190.666C503.132 181.055 483.91 193.597 473.88 196.509C463.851 199.42 450.491 198.602 451.747 208.213Z" fill="white" stroke="#263238" stroke-linecap="round" stroke-linejoin="round"/>
<path d="M475.994 227.017C475.994 227.017 474 242.052 476.812 243.308C479.623 244.564 485.166 241.633 486.423 241.214" stroke="#263238" stroke-linecap="round" stroke-linejoin="round"/>
<path d="M483.93 252.6C483.93 252.6 495.615 254.275 500.221 240.895" stroke="#263238" stroke-linecap="round" stroke-linejoin="round"/>
<path d="M461.777 223.667C462.708 222.226 464.022 221.072 465.571 220.336C467.121 219.6 468.845 219.31 470.55 219.499" stroke="#263238" stroke-linecap="round" stroke-linejoin="round"/>
<path d="M481.836 217.406C481.836 217.406 490.191 213.218 495.196 217.824" stroke="#263238" stroke-linecap="round" stroke-linejoin="round"/>
<path d="M469.559 234.515C470.698 234.317 471.301 232.31 470.905 230.031C470.509 227.753 469.264 226.066 468.125 226.264C466.986 226.462 466.383 228.47 466.779 230.748C467.175 233.027 468.42 234.713 469.559 234.515Z" fill="#263238"/>
<path d="M487.948 230.764C489.087 230.566 489.689 228.559 489.293 226.28C488.897 224.002 487.653 222.315 486.513 222.513C485.374 222.711 484.772 224.719 485.168 226.997C485.564 229.276 486.808 230.962 487.948 230.764Z" fill="#263238"/>
<path d="M499.384 196.927C488.297 202.131 476.667 206.09 464.708 208.732C446.323 212.481 437.968 208.313 438.786 199.121C439.604 189.928 463.432 169.869 485.147 169.869C506.861 169.869 514.399 179.839 515.655 190.347C516.34 199.387 516.34 208.466 515.655 217.505L511.886 222.929C511.886 222.929 512.843 218.702 506.861 215.312C500.879 211.922 496.453 205.701 499.384 196.927Z" fill="#263238" stroke="#263238" stroke-linecap="round" stroke-linejoin="round"/>
<path d="M615.654 226.797C619.742 229.928 614.936 243.009 628.416 253.497C659.442 277.625 677.388 293.956 680.698 329.808C684.328 368.89 663.331 384.084 669.851 397.105C676.371 410.126 685.045 425.32 671.287 436.985C657.528 448.65 635.116 458.7 616.312 431.203C597.509 403.705 587.359 342.928 579.403 309.569C571.447 276.209 558.426 260.376 560.58 245.9C562.693 231.942 574.079 221.972 587.698 219.559C592.605 218.702 597.638 218.904 602.46 220.153C607.281 221.401 611.78 223.667 615.654 226.797Z" fill="#263238" stroke="#263238" stroke-linecap="round" stroke-linejoin="round"/>
<path d="M578.286 365.72L520.301 408.132C520.301 408.132 427.44 441.312 421.976 443.007C416.513 444.702 390.471 449.308 385.008 452.239C379.544 455.171 369.055 474.512 367.361 479.138C367.008 479.785 366.874 480.528 366.979 481.257C367.084 481.986 367.422 482.661 367.943 483.182C368.464 483.703 369.139 484.041 369.868 484.146C370.597 484.251 371.34 484.117 371.987 483.765C373.243 482.488 385.426 470.724 389.215 470.305C393.003 469.886 396.353 469.468 396.353 469.468C396.353 469.468 386.682 477.882 386.264 480.395C385.845 482.907 387.959 482.07 390.471 480.813C392.984 479.557 402.654 476.187 406.423 469.468C410.192 462.748 413.562 458.959 419.863 456.447C426.164 453.934 508.396 436.108 523.112 433.595C537.828 431.083 590.769 399.279 593.301 398.86C595.833 398.441 586.282 365.72 578.286 365.72Z" fill="white" stroke="#263238" stroke-linecap="round" stroke-linejoin="round"/>
<path d="M566.96 419.956C567.478 421.512 565.923 443.386 564.866 481.412C564.069 510.584 557.15 562.428 553.959 584.96H664.806C665.603 562.109 666.6 509.846 660.18 488.171C651.845 460.056 642.473 454.273 639.362 441.831C636.252 429.388 631.546 360.575 623.729 334.533C615.913 308.492 592.483 292.859 588.834 287.136C585.185 281.413 573.72 248.074 573.72 248.074L553.939 264.743C553.939 264.743 568.515 288.173 570.609 295.471C572.703 302.769 556.531 319.937 548.216 337.664C539.901 355.391 538.246 369.429 545.604 380.356C552.962 391.283 566.442 418.381 566.96 419.956Z" fill="#92E3A9"/>
<path d="M583.91 526.975L602.075 530.963L620.241 526.975L638.406 530.963L656.571 526.975L664.986 528.809L664.807 524.701L656.571 522.887L638.406 526.875L620.241 522.887L602.075 526.875L583.91 522.887L565.765 526.875L561.398 525.918C561.258 527.254 561.119 528.57 560.959 529.906L565.765 530.963L583.91 526.975Z" fill="white"/>
<path d="M603.969 390.505L585.804 394.493L567.639 390.505L553.441 393.616L555.435 397.265L567.659 394.593L585.824 398.581L603.989 394.593L622.155 398.581L633.64 396.048C633.481 394.732 633.341 393.396 633.182 392.06L622.155 394.493L603.969 390.505Z" fill="white"/>
<path d="M583.909 557.343L602.075 561.331L620.24 557.343L638.405 561.331L656.571 557.343L665.364 559.337C665.364 558.001 665.364 556.645 665.364 555.349L656.551 553.355L638.386 557.343L620.22 553.355L602.055 557.343L583.889 553.355L565.744 557.343L557.888 555.608C557.728 556.964 557.549 558.28 557.389 559.596L565.744 561.431L583.909 557.343Z" fill="white"/>
<path d="M665.205 570.364L656.571 568.47L638.406 572.458L620.241 568.47L602.075 572.458L583.91 568.47L565.765 572.458L555.974 570.304C555.795 571.66 555.615 572.996 555.456 574.292L565.765 576.546L583.91 572.557L602.075 576.546L620.241 572.557L638.406 576.546L656.571 572.557L665.126 574.452C665.146 573.116 665.186 571.76 665.205 570.364Z" fill="white"/>
<path d="M542.893 351.562L549.473 352.998L567.639 349.01L585.804 352.998L603.969 349.01L622.135 352.998L627.578 351.802C627.339 350.466 627.1 349.15 626.86 347.814L622.135 348.85L603.969 344.862L585.804 348.85L567.639 344.862L549.473 348.85L544.089 347.674C543.651 349.017 543.252 350.313 542.893 351.562Z" fill="white"/>
<path d="M603.969 360.117L585.804 364.105L567.639 360.117L549.473 364.105L541.019 362.25C540.939 363.611 540.939 364.976 541.019 366.338L549.473 368.192L567.639 364.204L585.804 368.192L603.969 364.204L622.135 368.192L629.911 366.477C629.712 365.141 629.533 363.825 629.333 362.489L622.135 364.065L603.969 360.117Z" fill="white"/>
<path d="M603.97 375.311L585.804 379.299L567.639 375.311L549.473 379.299L544.289 378.162C544.688 378.9 545.127 379.638 545.605 380.356C546.084 381.074 546.662 381.971 547.22 382.888L549.473 383.387L567.639 379.399L585.804 383.387L603.97 379.399L622.135 383.387L631.866 381.253C631.706 379.917 631.527 378.601 631.367 377.265L622.135 379.259L603.97 375.311Z" fill="white"/>
<path d="M583.91 542.169L602.075 546.157L620.24 542.169L638.406 546.157L656.571 542.169L665.345 544.163V540.075L656.631 538.081L638.465 542.069L620.3 538.081L602.135 542.069L583.969 538.081L565.824 542.069L559.842 540.733L559.363 544.721L565.884 546.157L583.91 542.169Z" fill="white"/>
<path d="M566.96 419.956C567.478 421.512 565.923 443.386 564.866 481.412C564.069 510.584 557.15 562.428 553.959 584.96H664.806C665.603 562.109 666.6 509.846 660.18 488.171C651.845 460.056 642.473 454.273 639.362 441.831C636.252 429.388 631.546 360.575 623.729 334.533C615.913 308.492 592.483 292.859 588.834 287.136C585.185 281.413 573.72 248.074 573.72 248.074L553.939 264.743C553.939 264.743 568.515 288.173 570.609 295.471C572.703 302.769 556.531 319.937 548.216 337.664C539.901 355.391 538.246 369.429 545.604 380.356C552.962 391.283 566.442 418.381 566.96 419.956Z" stroke="#263238" stroke-linecap="round" stroke-linejoin="round"/>
<path d="M553.919 386.318C553.919 386.318 560.619 399.737 582.992 394.513" stroke="#263238" stroke-linecap="round" stroke-linejoin="round"/>
<path d="M615.036 472.778C615.036 472.778 581.497 513.774 566.582 546.556" stroke="#263238" stroke-linecap="round" stroke-linejoin="round"/>
<path d="M579.263 506.337C579.263 506.337 565.086 532.418 561.317 548.809" stroke="#263238" stroke-linecap="round" stroke-linejoin="round"/>
<path d="M560.32 333.616C571.148 327.634 584.966 301.712 590.988 296.927L595.096 293.636C592.801 291.68 590.704 289.502 588.835 287.136C585.186 281.413 573.72 248.074 573.72 248.074L553.94 264.743C553.94 264.743 568.516 288.173 570.609 295.471C572.444 301.912 560.061 316.089 551.407 331.503C552.424 334.354 554.817 336.667 560.32 333.616Z" fill="white" stroke="#263238" stroke-linecap="round" stroke-linejoin="round"/>
<path d="M536.472 207.974C534.162 213.448 533.008 219.341 533.082 225.282C533.441 230.546 534.578 234.714 532.464 239.918C531.228 242.909 527.04 246.718 527.618 250.167C528.137 253.278 535.953 254.335 535.953 254.335C535.953 254.335 543.77 278.801 547.917 279.319C552.065 279.838 561.457 277.325 573.421 267.355C585.385 257.385 570.828 221.493 560.4 212.142C549.971 202.79 541.676 201.713 536.472 207.974Z" fill="white" stroke="#263238" stroke-linecap="round" stroke-linejoin="round"/>
<path d="M540.021 240.616C540.77 240.616 541.377 238.902 541.377 236.787C541.377 234.673 540.77 232.959 540.021 232.959C539.273 232.959 538.666 234.673 538.666 236.787C538.666 238.902 539.273 240.616 540.021 240.616Z" fill="#263238"/>
<path d="M536.413 227.994C536.413 227.994 537.769 222.57 543.192 226.638" stroke="#263238" stroke-linecap="round" stroke-linejoin="round"/>
<path d="M539.124 259.579C539.124 259.579 542.733 260.496 546.801 255.591" stroke="#263238" stroke-linecap="round" stroke-linejoin="round"/>
<path d="M547.938 180.357C547.938 180.357 528.656 180.896 525.525 193.378C522.395 205.86 536.472 216.827 546.363 222.032C556.253 227.236 565.106 235.571 565.106 244.424C565.106 253.278 565.645 263.706 572.923 273.078C580.201 282.45 596.851 290.267 609.912 289.748C622.972 289.23 608.875 258.582 616.153 236.648C623.431 214.714 614.159 192.899 599.483 183.528C584.807 174.156 547.938 180.357 547.938 180.357Z" fill="#263238" stroke="#263238" stroke-linecap="round" stroke-linejoin="round"/>
<path d="M665.663 369.468C665.489 372.201 665.062 374.911 664.387 377.564" stroke="white" stroke-linecap="round" stroke-linejoin="round"/>
<path d="M543.511 212.72C547.1 218.702 553.899 225.083 566.681 228.672C594.597 236.648 605.225 255.93 605.225 272.54C605.225 289.15 606.561 301.114 633.141 314.414C640.977 318.333 647.845 323.943 653.249 330.84C658.653 337.737 662.457 345.748 664.387 354.294" stroke="white" stroke-linecap="round" stroke-linejoin="round"/>
<path d="M539.423 199.42C539.428 200.578 539.541 201.733 539.762 202.869" stroke="white" stroke-linecap="round" stroke-linejoin="round"/>
<path d="M576.651 199.42C576.651 199.42 609.891 216.05 609.213 238.642C608.535 261.234 610.549 282.51 631.147 295.132C651.745 307.754 673.021 315.75 680.339 340.994" stroke="white" stroke-linecap="round" stroke-linejoin="round"/>
<path d="M595.195 320.396C595.195 320.396 586.362 323.746 581.756 340.974C577.15 358.202 596.033 388.451 598.984 401.911C601.935 415.37 604.866 435.928 604.866 435.928C604.866 435.928 538.885 489.767 529.234 498.121C519.583 506.476 514.518 511.98 514.518 511.98C514.518 511.98 490.59 532.997 488.476 537.204C486.363 541.411 480.5 563.245 482.594 564.083C484.688 564.92 488.476 555.688 488.476 554.013C488.476 552.338 492.664 543.086 492.664 543.086C492.664 543.086 489.314 564.462 489.314 565.658C489.314 566.855 492.664 565.658 493.083 563.963C493.501 562.268 498.127 544.641 498.127 544.641C498.127 544.641 495.615 564.382 497.29 566.575C498.965 568.769 501.916 553.973 501.916 553.973L505.266 542.209C505.266 542.209 504.429 562.787 506.123 563.624C507.818 564.462 511.587 543.465 511.587 543.465C511.587 543.465 519.144 528.331 522.075 523.286C523.747 520.541 525.023 517.574 525.864 514.472C525.864 514.472 564.946 493.037 589.313 481.272C613.68 469.507 634.278 447.653 636.79 443.885C639.303 440.116 633.839 387.155 629.652 364.463C625.464 341.772 616.631 314.414 595.195 320.396Z" fill="white" stroke="#263238" stroke-linecap="round" stroke-linejoin="round"/>
<path d="M458.686 293.317C458.686 293.317 443.651 303.547 431.627 313.257C419.604 322.968 421.398 342.131 421.398 346.338C421.398 350.545 420.8 369.787 420.8 369.787L411.767 389.03C411.767 389.03 397.949 401.671 394.938 404.682C391.927 407.693 374.499 441.95 374.499 441.95L370.292 447.932L393.203 450.883C401.757 441.345 411.22 432.664 421.458 424.961C436.433 414.114 449.035 384.204 449.653 380.515C452.194 370.439 453.987 360.188 455.017 349.847" fill="white"/>
<path d="M458.686 293.317C458.686 293.317 443.651 303.547 431.627 313.257C419.604 322.968 421.398 342.131 421.398 346.338C421.398 350.545 420.8 369.787 420.8 369.787L411.767 389.03C411.767 389.03 397.949 401.671 394.938 404.682C391.927 407.693 374.499 441.95 374.499 441.95L370.292 447.932L393.203 450.883C401.757 441.345 411.22 432.664 421.458 424.961C436.433 414.114 449.035 384.204 449.653 380.515C452.194 370.439 453.987 360.188 455.017 349.847" stroke="#263238" stroke-linecap="round" stroke-linejoin="round"/>
<path d="M451.029 374.094C440.919 357.504 427.101 359.658 420.959 361.732C420.82 366.118 420.72 369.708 420.72 369.708L411.687 388.95C411.687 388.95 397.869 401.592 394.858 404.603C391.847 407.614 374.419 441.871 374.419 441.871L370.212 447.853L393.203 450.883C401.757 441.345 411.22 432.664 421.458 424.961C436.433 414.114 449.035 384.204 449.653 380.515C449.872 379.299 450.431 377.065 451.029 374.094Z" fill="white" stroke="#263238" stroke-linecap="round" stroke-linejoin="round"/>
<path d="M383.074 434.054C383.074 434.054 368.139 446.257 365.128 450.126C362.117 453.994 359.764 476.746 360.961 478.401C362.157 480.056 370.512 484.502 374.101 480.614C377.69 476.726 390.831 457.982 390.831 457.982C390.831 457.982 380.861 471.462 387.979 470.704C395.098 469.946 399.186 458.979 403.373 453.994C407.56 449.009 406.962 448.451 403.373 441.252L399.804 434.054" fill="white"/>
<path d="M383.074 434.054C383.074 434.054 368.139 446.257 365.128 450.126C362.117 453.994 359.764 476.746 360.961 478.401C362.157 480.056 370.512 484.502 374.101 480.614C377.69 476.726 390.831 457.982 390.831 457.982C390.831 457.982 380.861 471.462 387.979 470.704C395.098 469.946 399.186 458.979 403.373 453.994C407.56 449.009 406.962 448.451 403.373 441.252L399.804 434.054" stroke="#263238" stroke-linecap="round" stroke-linejoin="round"/>
<path d="M360.98 478.381C360.98 478.381 368.577 452.459 371.608 450.465" stroke="#263238" stroke-linecap="round" stroke-linejoin="round"/>
<path d="M364.549 480.275C364.549 480.275 373.363 455.908 377.909 450.863" stroke="#263238" stroke-linecap="round" stroke-linejoin="round"/>
<path d="M369.275 482.01C369.275 482.01 378.826 458.082 385.087 452.279" stroke="#263238" stroke-linecap="round" stroke-linejoin="round"/>
<path d="M390.831 457.982C390.831 457.982 395.915 453.476 396.693 450.764L390.831 457.982Z" fill="white"/>
<path d="M390.831 457.982C390.831 457.982 395.915 453.476 396.693 450.764" stroke="#263238" stroke-linecap="round" stroke-linejoin="round"/>
<path d="M22.8374 584.96H769.073" stroke="#263238" stroke-linecap="round" stroke-linejoin="round"/>
</svg>
