<svg width="471" height="586" viewBox="0 0 471 586" fill="none" xmlns="http://www.w3.org/2000/svg">
<path d="M251.203 586C364.156 586 455.723 567.688 455.723 545.099C455.723 522.51 364.156 504.198 251.203 504.198C138.25 504.198 46.6841 522.51 46.6841 545.099C46.6841 567.688 138.25 586 251.203 586Z" fill="#92E3A9"/>
<path opacity="0.5" d="M251.203 586C364.156 586 455.723 567.688 455.723 545.099C455.723 522.51 364.156 504.198 251.203 504.198C138.25 504.198 46.6841 522.51 46.6841 545.099C46.6841 567.688 138.25 586 251.203 586Z" fill="white"/>
<path d="M468.323 1.00012H320.859C315.821 1.00012 311.738 5.08374 311.738 10.1211V172.681C311.738 177.718 315.821 181.802 320.859 181.802H468.323C473.36 181.802 477.444 177.718 477.444 172.681V10.1211C477.444 5.08374 473.36 1.00012 468.323 1.00012Z" fill="white" stroke="#263238" stroke-linecap="round" stroke-linejoin="round"/>
<path d="M320.859 1.00011H468.308C470.715 1.00011 473.023 1.95629 474.725 3.6583C476.427 5.36031 477.383 7.66873 477.383 10.0757V19.5446H311.738V10.1211C311.732 8.92165 311.964 7.73289 312.42 6.62356C312.876 5.51423 313.548 4.50635 314.396 3.65819C315.244 2.81002 316.252 2.1384 317.361 1.68216C318.471 1.22592 319.659 0.994102 320.859 1.00011Z" fill="#263238" stroke="#263238" stroke-linecap="round" stroke-linejoin="round"/>
<path d="M320.768 97.5345H387.444" stroke="#263238" stroke-linecap="round" stroke-linejoin="round"/>
<path d="M320.768 106.141H387.444" stroke="#263238" stroke-linecap="round" stroke-linejoin="round"/>
<path d="M320.768 114.748H387.444" stroke="#263238" stroke-linecap="round" stroke-linejoin="round"/>
<path d="M320.768 123.355H387.444" stroke="#263238" stroke-linecap="round" stroke-linejoin="round"/>
<path d="M320.768 131.961H387.444" stroke="#263238" stroke-linecap="round" stroke-linejoin="round"/>
<path d="M320.768 140.583H387.444" stroke="#263238" stroke-linecap="round" stroke-linejoin="round"/>
<path d="M320.768 149.19H387.444" stroke="#263238" stroke-linecap="round" stroke-linejoin="round"/>
<path d="M320.768 157.797H387.444" stroke="#263238" stroke-linecap="round" stroke-linejoin="round"/>
<path d="M320.768 166.403H387.444" stroke="#263238" stroke-linecap="round" stroke-linejoin="round"/>
<path d="M399.167 97.5345H465.842" stroke="#263238" stroke-linecap="round" stroke-linejoin="round"/>
<path d="M399.167 106.141H465.842" stroke="#263238" stroke-linecap="round" stroke-linejoin="round"/>
<path d="M399.167 114.748H465.842" stroke="#263238" stroke-linecap="round" stroke-linejoin="round"/>
<path d="M399.167 123.355H465.842" stroke="#263238" stroke-linecap="round" stroke-linejoin="round"/>
<path d="M399.167 131.961H465.842" stroke="#263238" stroke-linecap="round" stroke-linejoin="round"/>
<path d="M399.167 140.583H465.842" stroke="#263238" stroke-linecap="round" stroke-linejoin="round"/>
<path d="M399.167 149.19H465.842" stroke="#263238" stroke-linecap="round" stroke-linejoin="round"/>
<path d="M399.167 157.797H465.842" stroke="#263238" stroke-linecap="round" stroke-linejoin="round"/>
<path d="M399.167 166.403H465.842" stroke="#263238" stroke-linecap="round" stroke-linejoin="round"/>
<path d="M365.36 43.0354C365.688 42.0134 365.862 40.9477 365.874 39.8741C365.874 35.9565 361.896 35.7296 357.993 35.7296H357.01V34.8069H374.042V35.7296C369.61 35.7296 367.992 38.5581 366.615 42.7481L357.539 69.8388C356.859 71.8506 356.284 73.348 354.151 73.348H353.97L345.983 47.4674L338.556 69.8993C337.86 71.9111 337.286 73.4086 335.153 73.4086H334.986L323.37 35.7296H319.286V34.8069H334.23V35.7296H329.98L338.602 65.4069H338.95L345.454 45.6976L342.429 35.8052H338.344V34.8069H353.304V35.7296H349.054L357.676 65.4069H358.008L365.36 43.0354Z" fill="#92E3A9"/>
<path d="M466.311 26.2303H397.699V88.2471H466.311V26.2303Z" fill="#92E3A9" stroke="#263238" stroke-width="2" stroke-linecap="round" stroke-linejoin="round"/>
<path d="M466.311 52.1564C464.01 52.2875 461.723 52.6062 459.474 53.1093C449.052 55.3782 446.329 70.3379 434.546 70.3379C424.109 70.3379 423.217 56.2858 408.257 54.4707C404.617 53.8974 400.89 54.5576 397.669 56.3463V88.2471H466.311V52.1564Z" fill="#263238" stroke="#263238" stroke-linecap="round" stroke-linejoin="round"/>
<path d="M420.494 40.4185C420.497 41.9456 420.047 43.4391 419.2 44.71C418.354 45.981 417.149 46.9721 415.739 47.5578C414.329 48.1436 412.776 48.2976 411.278 48.0004C409.781 47.7033 408.405 46.9682 407.325 45.8885C406.245 44.8087 405.51 43.4328 405.213 41.9349C404.916 40.4371 405.07 38.8848 405.656 37.4745C406.241 36.0643 407.232 34.8597 408.503 34.0132C409.774 33.1667 411.268 32.7164 412.795 32.7194C414.837 32.7194 416.795 33.5305 418.239 34.9744C419.683 36.4183 420.494 38.3766 420.494 40.4185Z" fill="white" stroke="#263238" stroke-linecap="round" stroke-linejoin="round"/>
<path d="M469.442 6.43042H316.714V12.3145H469.442V6.43042Z" fill="white" stroke="#263238" stroke-linecap="round" stroke-linejoin="round"/>
<path d="M459.913 217.877H393.797C391.197 217.877 388.704 218.91 386.866 220.748C385.028 222.586 383.995 225.079 383.995 227.679V263.044C383.995 265.643 385.028 268.136 386.866 269.975C388.704 271.813 391.197 272.845 393.797 272.845H395.824C393.767 277.383 389.773 284.341 383.466 288.471C383.466 288.471 396.883 287.533 410.859 272.845H459.883C462.482 272.845 464.975 271.813 466.813 269.975C468.652 268.136 469.684 265.643 469.684 263.044V227.679C469.684 225.085 468.656 222.596 466.824 220.759C464.993 218.922 462.507 217.885 459.913 217.877Z" fill="#263238" stroke="#263238" stroke-linecap="round" stroke-linejoin="round"/>
<path d="M415.487 244.106C415.49 243.105 415.196 242.127 414.642 241.293C414.088 240.46 413.299 239.81 412.375 239.426C411.451 239.042 410.434 238.941 409.453 239.135C408.472 239.329 407.57 239.811 406.863 240.518C406.155 241.226 405.674 242.127 405.479 243.109C405.285 244.09 405.386 245.107 405.77 246.031C406.155 246.955 406.804 247.744 407.638 248.298C408.471 248.852 409.45 249.146 410.45 249.143C411.785 249.139 413.064 248.607 414.007 247.663C414.951 246.719 415.483 245.441 415.487 244.106Z" fill="#92E3A9" stroke="#263238" stroke-linecap="round" stroke-linejoin="round"/>
<path d="M432.625 244.106C432.625 243.11 432.33 242.136 431.776 241.308C431.223 240.479 430.436 239.834 429.516 239.452C428.595 239.071 427.583 238.971 426.606 239.166C425.628 239.36 424.731 239.84 424.027 240.544C423.322 241.249 422.842 242.146 422.648 243.123C422.454 244.1 422.553 245.113 422.935 246.034C423.316 246.954 423.962 247.741 424.79 248.294C425.618 248.848 426.592 249.143 427.588 249.143C428.923 249.139 430.202 248.607 431.146 247.663C432.089 246.719 432.621 245.441 432.625 244.106Z" fill="#92E3A9" stroke="#263238" stroke-linecap="round" stroke-linejoin="round"/>
<path d="M449.778 244.106C449.781 243.106 449.487 242.128 448.934 241.295C448.381 240.462 447.593 239.812 446.67 239.428C445.747 239.043 444.731 238.941 443.75 239.134C442.769 239.327 441.867 239.807 441.159 240.513C440.451 241.219 439.968 242.119 439.772 243.1C439.576 244.08 439.675 245.097 440.057 246.021C440.439 246.945 441.086 247.735 441.918 248.29C442.749 248.846 443.726 249.143 444.726 249.143C446.062 249.139 447.342 248.607 448.289 247.664C449.235 246.721 449.77 245.442 449.778 244.106Z" fill="#92E3A9" stroke="#263238" stroke-linecap="round" stroke-linejoin="round"/>
<path d="M96.3276 22.4489H205.235C207.827 22.4489 210.312 23.4783 212.145 25.3108C213.977 27.1433 215.007 29.6287 215.007 32.2203V107.714H86.6016V32.2203C86.6015 29.6366 87.6248 27.158 89.4475 25.3268C91.2702 23.4956 93.7439 22.4609 96.3276 22.4489Z" fill="#92E3A9" stroke="#263238" stroke-linecap="round" stroke-linejoin="round"/>
<path d="M214.946 95.538H86.6016V107.669H214.946V95.538Z" fill="#263238" stroke="#263238" stroke-linecap="round" stroke-linejoin="round"/>
<path d="M209.077 99.6824H92.4858V103.524H209.077V99.6824Z" fill="white" stroke="#263238" stroke-linecap="round" stroke-linejoin="round"/>
<path d="M150.781 78.869C160.572 78.869 168.509 70.9321 168.509 61.1413C168.509 51.3506 160.572 43.4136 150.781 43.4136C140.991 43.4136 133.054 51.3506 133.054 61.1413C133.054 70.9321 140.991 78.869 150.781 78.869Z" fill="#263238" stroke="#263238" stroke-linecap="round" stroke-linejoin="round"/>
<path d="M142.779 50.1144L161.914 61.1564L142.779 72.1984V50.1144Z" fill="white" stroke="#263238" stroke-linecap="round" stroke-linejoin="round"/>
<path d="M159.434 138.723H37.6235C35.2677 138.723 33.3579 140.633 33.3579 142.988V189.41C33.3579 191.766 35.2677 193.676 37.6235 193.676H159.434C161.789 193.676 163.699 191.766 163.699 189.41V142.988C163.699 140.633 161.789 138.723 159.434 138.723Z" fill="#263238" stroke="#263238" stroke-linecap="round" stroke-linejoin="round"/>
<path d="M48.877 146.21L49.5123 147.269C46.6384 148.872 43.9611 151.686 43.9611 154.983C43.9243 155.55 44.0009 156.118 44.1865 156.654C44.3721 157.191 44.6629 157.685 45.0418 158.107C45.4208 158.53 45.8803 158.873 46.3934 159.115C46.9065 159.358 47.4629 159.496 48.03 159.521C48.4535 159.521 48.7409 159.309 48.7409 158.886C48.7409 158.462 48.5291 158.326 48.1056 158.251C47.5345 158.096 47.0369 157.743 46.7016 157.256C46.3664 156.768 46.2153 156.177 46.2754 155.588C46.2864 155.119 46.3928 154.656 46.5882 154.229C46.7835 153.802 47.0638 153.419 47.4118 153.103C47.7599 152.788 48.1685 152.546 48.6128 152.394C49.0572 152.241 49.5279 152.18 49.9964 152.215C50.506 152.217 51.0101 152.321 51.4789 152.521C51.9476 152.721 52.3716 153.013 52.7255 153.38C53.0795 153.746 53.3563 154.18 53.5397 154.656C53.723 155.131 53.8092 155.639 53.793 156.148C53.7856 156.788 53.6493 157.42 53.3921 158.007C53.135 158.593 52.7624 159.121 52.2965 159.56C51.8306 160 51.2809 160.34 50.6804 160.562C50.0799 160.784 49.4409 160.883 48.8014 160.852C48.0064 160.904 47.2094 160.788 46.4622 160.511C45.7149 160.235 45.034 159.805 44.4636 159.249C43.8932 158.693 43.446 158.023 43.1509 157.283C42.8559 156.543 42.7197 155.749 42.751 154.953C42.7056 151.126 45.6552 148.04 48.877 146.21ZM61.8703 146.21L62.5056 147.269C59.6165 148.872 56.9543 151.686 56.9543 154.983C56.9155 155.55 56.9906 156.119 57.1754 156.656C57.3602 157.194 57.6509 157.689 58.0302 158.112C58.4096 158.535 58.8699 158.877 59.384 159.12C59.8981 159.362 60.4555 159.498 61.0232 159.521C61.4468 159.521 61.7342 159.309 61.7342 158.886C61.7342 158.462 61.5224 158.326 61.0989 158.251C60.5277 158.096 60.0301 157.743 59.6949 157.256C59.3597 156.768 59.2086 156.177 59.2686 155.588C59.2775 155.118 59.3824 154.654 59.5771 154.226C59.7717 153.798 60.052 153.414 60.4005 153.098C60.749 152.782 61.1585 152.541 61.6038 152.389C62.0491 152.237 62.5207 152.178 62.9896 152.215C63.4993 152.217 64.0034 152.321 64.4721 152.521C64.9409 152.721 65.3648 153.013 65.7188 153.38C66.0728 153.746 66.3496 154.18 66.533 154.656C66.7163 155.131 66.8025 155.639 66.7863 156.148C66.7768 156.788 66.639 157.419 66.3812 158.004C66.1234 158.589 65.7507 159.117 65.2852 159.556C64.8197 159.994 64.271 160.335 63.6714 160.558C63.0718 160.781 62.4336 160.881 61.7947 160.852C61.0002 160.901 60.2043 160.784 59.4581 160.506C58.7119 160.229 58.032 159.799 57.4621 159.244C56.8922 158.688 56.4449 158.019 56.149 157.28C55.8532 156.541 55.7153 155.748 55.7443 154.953C55.6837 151.126 58.6333 148.04 61.8703 146.21Z" fill="#92E3A9"/>
<path d="M74.3042 157.403H148.482" stroke="white" stroke-linecap="round" stroke-linejoin="round"/>
<path d="M74.3042 163.771H148.482" stroke="white" stroke-linecap="round" stroke-linejoin="round"/>
<path d="M74.3042 170.14H148.482" stroke="white" stroke-linecap="round" stroke-linejoin="round"/>
<path d="M74.3042 176.523H148.482" stroke="white" stroke-linecap="round" stroke-linejoin="round"/>
<path d="M135.358 278.88C150.668 276.381 161.054 261.944 158.555 246.633C156.056 231.322 141.619 220.937 126.308 223.436C110.998 225.935 100.612 240.372 103.111 255.683C105.61 270.993 120.047 281.379 135.358 278.88Z" fill="#263238" stroke="#263238" stroke-linecap="round" stroke-linejoin="round"/>
<path d="M148.649 266.83C157.287 256.994 156.316 242.018 146.48 233.38C136.644 224.742 121.668 225.713 113.03 235.549C104.392 245.385 105.363 260.361 115.199 268.999C125.035 277.637 140.011 276.666 148.649 266.83Z" fill="white" stroke="#263238" stroke-linecap="round" stroke-linejoin="round"/>
<path d="M130.845 234.017V251.155H142.432" stroke="#263238" stroke-width="2" stroke-linecap="round" stroke-linejoin="round"/>
<path d="M306.58 251.215C306.58 251.215 322.689 285.597 322.689 287.412C322.689 289.227 308.395 297.002 305.673 298.635C303.561 299.838 301.385 300.924 299.153 301.888L300.787 317.815C300.787 317.815 325.397 312.204 335.713 306.592C346.029 300.98 345.666 294.642 343.276 285.234C340.886 275.825 324.989 239.462 324.989 239.462L306.58 251.215Z" fill="white"/>
<g style="mix-blend-mode:multiply" opacity="0.5">
<path d="M335.667 306.592C345.983 300.98 345.62 294.642 343.23 285.234C340.841 275.825 324.943 239.462 324.943 239.462L322.372 241.096L321.555 242.609C321.555 242.609 336.393 279.032 337.286 291.163C337.891 299.316 321.479 309.481 310.634 315.289C318.681 313.157 329.632 309.874 335.667 306.592Z" fill="#92E3A9"/>
</g>
<path d="M306.58 251.215C306.58 251.215 322.689 285.597 322.689 287.412C322.689 289.227 308.395 297.002 305.673 298.635C303.561 299.838 301.385 300.924 299.153 301.888L300.787 317.815C300.787 317.815 325.397 312.204 335.713 306.592C346.029 300.98 345.666 294.642 343.276 285.234C340.886 275.825 324.989 239.462 324.989 239.462L306.58 251.215Z" stroke="#263238" stroke-linecap="round" stroke-linejoin="round"/>
<path d="M190.351 243.622C190.351 243.622 178.598 286.686 178.25 294.294C177.902 301.903 201.59 316.908 202.452 317.815C203.314 318.723 201.106 291.647 201.106 291.647L209.138 252.319L190.351 243.622Z" fill="white"/>
<g style="mix-blend-mode:multiply" opacity="0.5">
<path d="M195.736 247.146L195.479 245.982L190.351 243.622C190.351 243.622 178.598 286.686 178.25 294.294C177.902 301.903 201.59 316.908 202.452 317.815C202.8 318.178 202.664 314.124 202.376 309.118C195.328 303.143 185.208 294.733 184.029 291.193" fill="#92E3A9"/>
</g>
<path d="M190.351 243.622C190.351 243.622 178.598 286.686 178.25 294.294C177.902 301.903 201.59 316.908 202.452 317.815C203.314 318.723 201.106 291.647 201.106 291.647L209.138 252.319L190.351 243.622Z" stroke="#263238" stroke-linecap="round" stroke-linejoin="round"/>
<path d="M245.546 200.362C245.546 200.362 241.009 203.629 232.16 203.992C223.311 204.355 222.888 197.941 211.891 197.941C198.565 197.941 181.851 240.098 181.851 240.098C181.851 240.098 190.17 248.251 198.323 251.684C202.833 253.66 207.575 255.058 212.435 255.844L213.706 283.54H303.464L304.538 255.844L332.597 237.647C332.597 237.647 318.832 213.037 312.146 203.81C305.461 194.583 294.222 198.017 290.788 200.362C287.355 202.706 277.175 203.266 273.424 202.721C268.53 201.638 263.694 200.31 258.933 198.743C258.933 198.743 253.155 193.933 245.546 200.362Z" fill="#92E3A9" stroke="#263238" stroke-linecap="round" stroke-linejoin="round"/>
<path d="M213.343 210.133L212.98 256.101" stroke="#263238" stroke-width="0.5" stroke-linecap="round" stroke-linejoin="round"/>
<path d="M216.595 214.308C216.595 214.308 217.866 236.74 222.646 249.234" stroke="#263238" stroke-width="0.5" stroke-linecap="round" stroke-linejoin="round"/>
<path d="M223.478 251.034C224.51 254.083 225.779 257.047 227.274 259.898" stroke="#263238" stroke-width="0.5" stroke-linecap="round" stroke-linejoin="round"/>
<path d="M219.484 211.766C221.201 219.923 223.625 227.915 226.729 235.651" stroke="#263238" stroke-width="0.5" stroke-linecap="round" stroke-linejoin="round"/>
<path d="M297.505 215.745C297.505 215.745 293.163 233.488 289.352 241.459" stroke="#263238" stroke-width="0.5" stroke-linecap="round" stroke-linejoin="round"/>
<path d="M304.538 255.919L304.356 220.086" stroke="#263238" stroke-width="0.5" stroke-linecap="round" stroke-linejoin="round"/>
<path d="M302.557 220.812C302.557 220.812 299.289 243.501 291.333 255.375" stroke="#263238" stroke-width="0.5" stroke-linecap="round" stroke-linejoin="round"/>
<path d="M298.578 250.852C298.578 250.852 294.948 257.735 292.422 261.35" stroke="#263238" stroke-width="0.5" stroke-linecap="round" stroke-linejoin="round"/>
<path d="M240.479 203.084C240.479 203.084 243.02 218.649 246.635 226.605C250.25 234.562 256.588 236.195 262.018 233.851C267.449 231.506 271.427 219.904 271.094 205.111" stroke="#263238" stroke-width="0.5" stroke-linecap="round" stroke-linejoin="round"/>
<path d="M227.637 170.503C227.637 170.503 224.189 164.543 221.481 167.614C218.773 170.684 223.659 177.748 226.367 180.093C229.074 182.437 231.071 181 230.905 178.474C230.738 175.948 227.637 170.503 227.637 170.503Z" fill="#92E3A9" stroke="#263238" stroke-linecap="round" stroke-linejoin="round"/>
<path opacity="0.5" d="M227.637 170.503C227.637 170.503 224.189 164.543 221.481 167.614C218.773 170.684 223.659 177.748 226.367 180.093C229.074 182.437 231.071 181 230.905 178.474C230.738 175.948 227.637 170.503 227.637 170.503Z" fill="white"/>
<path d="M227.637 170.503C227.637 170.503 224.189 164.543 221.481 167.614C218.773 170.684 223.659 177.748 226.367 180.093C229.074 182.437 231.071 181 230.905 178.474C230.738 175.948 227.637 170.503 227.637 170.503Z" stroke="#263238" stroke-linecap="round" stroke-linejoin="round"/>
<path d="M282.379 170.503C282.379 170.503 285.812 164.543 288.535 167.614C291.258 170.684 286.357 177.748 283.649 180.093C280.942 182.437 278.93 181 279.111 178.474C279.293 175.948 282.379 170.503 282.379 170.503Z" fill="#92E3A9" stroke="#263238" stroke-linecap="round" stroke-linejoin="round"/>
<path opacity="0.5" d="M282.379 170.503C282.379 170.503 285.812 164.543 288.535 167.614C291.258 170.684 286.357 177.748 283.649 180.093C280.942 182.437 278.93 181 279.111 178.474C279.293 175.948 282.379 170.503 282.379 170.503Z" fill="white"/>
<path d="M282.379 170.503C282.379 170.503 285.812 164.543 288.535 167.614C291.258 170.684 286.357 177.748 283.649 180.093C280.942 182.437 278.93 181 279.111 178.474C279.293 175.948 282.379 170.503 282.379 170.503Z" stroke="#263238" stroke-linecap="round" stroke-linejoin="round"/>
<path d="M243.913 199.106C245.622 206.83 247.799 214.442 250.432 221.901C253.7 230.039 259.841 230.039 262.382 224.79C264.923 219.541 266.542 199.983 266.542 199.983C266.542 199.983 249.525 202.358 243.913 199.106Z" fill="white" stroke="#263238" stroke-linecap="round" stroke-linejoin="round"/>
<path d="M228 172.499C228 172.499 232.704 189.138 241.614 198.925C250.523 208.711 253.714 211.025 258.449 210.314C263.183 209.604 268.22 203.447 275.269 190.651C282.318 177.854 282.832 168.037 283.422 167.13C284.012 166.222 281.909 148.131 271.835 140.341C261.761 132.551 250.477 129.133 240.706 137.634C230.935 146.135 224.733 160.005 228 172.499Z" fill="white"/>
<g style="mix-blend-mode:multiply" opacity="0.5">
<path d="M271.79 140.281C261.656 132.506 250.432 129.072 240.661 137.573C230.889 146.074 224.733 160.005 228 172.499C228 172.499 228.893 175.706 230.662 180.062C230.657 179.505 230.734 178.949 230.889 178.414C233.052 171.561 239.436 158.296 260.915 164.377C277.977 169.187 275.889 184.192 274.301 192.193L275.224 190.53C282.288 177.688 282.787 167.916 283.377 167.009C283.967 166.101 281.925 148.071 271.79 140.281Z" fill="#92E3A9"/>
</g>
<path d="M228 172.499C228 172.499 232.704 189.138 241.614 198.925C250.523 208.711 253.714 211.025 258.449 210.314C263.183 209.604 268.22 203.447 275.269 190.651C282.318 177.854 282.832 168.037 283.422 167.13C284.012 166.222 281.909 148.131 271.835 140.341C261.761 132.551 250.477 129.133 240.706 137.634C230.935 146.135 224.733 160.005 228 172.499Z" stroke="#263238" stroke-linecap="round" stroke-linejoin="round"/>
<path d="M258.403 181.182C257.842 184.715 257.539 188.284 257.496 191.861C257.677 195.476 258.766 196.565 257.133 196.928C255.499 197.291 253.699 194.75 253.699 194.75" stroke="#263238" stroke-linecap="round" stroke-linejoin="round"/>
<path d="M240.298 184.086C241.346 184.843 242.599 185.266 243.892 185.298C245.185 185.331 246.458 184.971 247.543 184.267" stroke="#263238" stroke-linecap="round" stroke-linejoin="round"/>
<path d="M263.289 184.086C264.335 184.842 265.586 185.264 266.876 185.296C268.166 185.329 269.436 184.97 270.519 184.267" stroke="#263238" stroke-linecap="round" stroke-linejoin="round"/>
<path d="M251.854 177.99C251.854 177.99 248.405 169.474 237.015 173.452" stroke="#263238" stroke-linecap="round" stroke-linejoin="round"/>
<path d="M261.338 176.946C261.338 176.946 264.227 168.612 274.543 173.498" stroke="#263238" stroke-linecap="round" stroke-linejoin="round"/>
<path d="M254.048 184.706C254.048 189.365 248.708 193.131 242.113 193.131C235.518 193.131 230.164 189.365 230.164 184.706C230.164 180.047 235.155 178.111 241.75 178.111C248.345 178.111 254.048 180.062 254.048 184.706Z" stroke="#263238" stroke-linecap="round" stroke-linejoin="round"/>
<path d="M281.562 184.706C281.562 189.365 276.207 193.131 269.612 193.131C263.017 193.131 257.678 189.365 257.678 184.706C257.678 180.047 262.654 178.111 269.249 178.111C275.844 178.111 281.562 180.062 281.562 184.706Z" stroke="#263238" stroke-linecap="round" stroke-linejoin="round"/>
<path d="M129.045 329.81L128.304 513.183C128.304 513.761 128.534 514.315 128.942 514.723C129.351 515.132 129.905 515.361 130.482 515.361C131.046 515.362 131.587 515.142 131.991 514.749C132.395 514.357 132.63 513.822 132.645 513.259L137.879 330.067L129.045 329.81Z" fill="white" stroke="#263238" stroke-linecap="round" stroke-linejoin="round"/>
<path d="M116.703 372.677L115.992 562.252C115.99 562.539 116.045 562.823 116.153 563.088C116.262 563.353 116.423 563.594 116.625 563.797C116.828 563.999 117.069 564.16 117.334 564.269C117.599 564.377 117.883 564.432 118.17 564.43C118.732 564.431 119.273 564.214 119.679 563.825C120.085 563.436 120.325 562.905 120.348 562.343L125.567 372.919L116.703 372.677Z" fill="white" stroke="#263238" stroke-linecap="round" stroke-linejoin="round"/>
<path d="M382.558 329.81L383.299 513.183C383.301 513.469 383.247 513.751 383.139 514.016C383.031 514.28 382.872 514.52 382.671 514.723C382.47 514.925 382.231 515.086 381.968 515.195C381.704 515.305 381.422 515.361 381.136 515.361C380.572 515.362 380.029 515.143 379.622 514.75C379.216 514.358 378.978 513.823 378.958 513.259L373.74 330.067L382.558 329.81Z" fill="white" stroke="#263238" stroke-linecap="round" stroke-linejoin="round"/>
<path d="M394.916 372.677L395.657 562.252C395.659 562.539 395.604 562.823 395.496 563.088C395.387 563.353 395.226 563.594 395.024 563.797C394.821 563.999 394.58 564.16 394.315 564.269C394.05 564.377 393.766 564.432 393.479 564.43C392.918 564.431 392.379 564.213 391.976 563.824C391.572 563.434 391.336 562.903 391.316 562.343L386.083 372.919L394.916 372.677Z" fill="white" stroke="#263238" stroke-linecap="round" stroke-linejoin="round"/>
<path d="M202.649 380.558L202.21 548.82C202.162 549.24 202.279 549.662 202.536 549.998C202.792 550.333 203.169 550.556 203.587 550.62C203.994 550.564 204.365 550.354 204.624 550.034C204.882 549.713 205.009 549.306 204.978 548.896L208.261 380.755L202.649 380.558Z" fill="white" stroke="#263238" stroke-linecap="round" stroke-linejoin="round"/>
<path d="M309.151 375.143L309.56 521.987C309.595 522.342 309.492 522.697 309.272 522.979C309.053 523.26 308.733 523.447 308.38 523.499C308.028 523.447 307.71 523.26 307.493 522.978C307.276 522.696 307.176 522.34 307.215 521.987L304.417 375.264L309.151 375.143Z" fill="white" stroke="#263238" stroke-linecap="round" stroke-linejoin="round"/>
<path d="M201.001 375.143L201.409 521.987C201.444 522.342 201.341 522.697 201.121 522.979C200.902 523.26 200.582 523.447 200.229 523.499C199.877 523.447 199.559 523.26 199.342 522.978C199.125 522.696 199.025 522.34 199.064 521.987L196.266 375.264L201.001 375.143Z" fill="white" stroke="#263238" stroke-linecap="round" stroke-linejoin="round"/>
<path d="M306.111 380.558L306.58 548.82C306.628 549.24 306.511 549.662 306.255 549.998C305.998 550.333 305.621 550.556 305.204 550.62C304.798 550.56 304.429 550.35 304.171 550.03C303.913 549.711 303.785 549.306 303.812 548.896L300.53 380.755L306.111 380.558Z" fill="white" stroke="#263238" stroke-linecap="round" stroke-linejoin="round"/>
<path d="M253.639 392.341C290.814 392.341 320.95 385.454 320.95 376.958C320.95 368.462 290.814 361.575 253.639 361.575C216.464 361.575 186.328 368.462 186.328 376.958C186.328 385.454 216.464 392.341 253.639 392.341Z" fill="white" stroke="#263238" stroke-linecap="round" stroke-linejoin="round"/>
<path d="M220.861 507.541C220.861 507.541 217.337 512.593 219.863 515.104C222.389 517.615 224.9 516.617 224.642 519.143C224.385 521.669 220.362 530.23 216.837 539.306C213.313 548.382 220.619 557.457 227.426 554.946C234.232 552.435 233.476 527.205 234.474 522.667C235.473 518.13 236.244 517.373 235.987 513.093C235.73 508.812 235.488 504.274 232.206 503.76C228.923 503.246 222.374 505.787 220.861 507.541Z" fill="white" stroke="#263238" stroke-linecap="round" stroke-linejoin="round"/>
<path d="M231.676 547.988C227.138 546.264 220.18 546.612 216.262 547.005C217.578 552.708 222.615 556.716 227.425 554.946C229.437 554.205 230.753 551.513 231.676 547.988Z" fill="#92E3A9" stroke="#263238" stroke-linecap="round" stroke-linejoin="round"/>
<path d="M213.056 496.454C213.056 496.454 220.362 508.812 222.373 512.079C224.385 515.346 231.207 514.348 231.963 509.81C232.72 505.272 229.18 492.672 229.18 492.672L214.054 496.454H213.056Z" fill="white" stroke="#263238" stroke-linecap="round" stroke-linejoin="round"/>
<path d="M195.661 476.79C195.661 476.79 193.634 480.072 194.648 482.341C195.661 484.61 198.429 491.16 200.199 494.442C201.969 497.724 210.031 499.736 219.348 498.224C228.666 496.711 233.975 492.415 234.232 488.634C234.49 484.852 232.72 479.815 231.449 473.765C230.179 467.714 226.911 467.972 222.374 467.972C217.836 467.972 199.442 473.266 195.661 476.79Z" fill="#92E3A9" stroke="#263238" stroke-linecap="round" stroke-linejoin="round"/>
<path d="M222.888 402.672C223.024 396.471 226.609 393.415 226.881 389.165C227.308 383.546 226.843 377.894 225.504 372.42L218.607 362.997C198.762 363.254 184.543 363.587 184.316 363.662C183.56 363.904 183.046 368.2 182.547 371.725C182.547 371.725 174.121 372.799 175.634 396.244C175.846 399.511 184.347 437.311 184.967 441.622C188.748 467.956 197.173 481.146 197.173 481.146C197.173 481.146 197.93 484.429 207.762 483.672C217.594 482.916 227.426 476.367 227.426 476.367C227.426 476.367 222.373 425.104 222.888 402.672Z" fill="#263238" stroke="#263238" stroke-linecap="round" stroke-linejoin="round"/>
<path d="M181.185 367.883C181.185 367.883 170.763 369.395 164.38 376.686C157.997 383.977 163.412 388.787 175.816 387.486C188.219 386.185 202.528 373.494 203.133 372.814C203.738 372.133 190.2 363.511 181.185 367.883Z" fill="white" stroke="#263238" stroke-linecap="round" stroke-linejoin="round"/>
<path d="M199.684 372.42C206.324 372.762 212.912 373.776 219.348 375.446C227.924 377.972 243.051 383.009 246.575 383.009C250.099 383.009 249.101 369.894 249.101 367.383C249.101 364.872 203.723 363.345 198.172 363.345C192.62 363.345 199.684 372.42 199.684 372.42Z" fill="white" stroke="#263238" stroke-linecap="round" stroke-linejoin="round"/>
<path d="M249.101 367.383C249.101 367.383 245.062 369.395 243.55 376.958C242.037 384.521 240.025 388.56 243.05 390.571C246.076 392.583 259.19 394.096 261.202 392.084C263.214 390.072 268.765 379.983 269.778 373.434C270.792 366.884 249.101 367.383 249.101 367.383Z" fill="#92E3A9" stroke="#263238" stroke-linecap="round" stroke-linejoin="round"/>
<path d="M266.239 369.894C263.894 372.585 262.022 375.654 260.703 378.97C259.634 382.441 258.79 385.978 258.177 389.558C263.003 390.881 267.72 392.57 272.289 394.61C280.367 398.135 293.98 400.661 307.079 403.686C320.178 406.711 323.718 409.736 328.256 409.736C332.794 409.736 338.345 406.197 345.409 397.635C352.473 389.074 346.407 370.908 339.358 365.356C332.31 359.805 294.479 355.283 289.442 356.795C284.405 358.308 266.239 369.894 266.239 369.894Z" fill="#263238" stroke="#263238" stroke-linecap="round" stroke-linejoin="round"/>
<path d="M171.64 387.622C170.644 383.097 168.626 378.859 165.741 375.234C165.272 375.672 164.819 376.126 164.38 376.625C158.768 383.008 162.277 387.546 171.64 387.622Z" fill="#92E3A9" stroke="#263238" stroke-linecap="round" stroke-linejoin="round"/>
<path d="M222.116 391.615C222.116 391.615 216.913 447.294 206.294 455.961" stroke="white" stroke-width="0.5" stroke-linecap="round" stroke-linejoin="round"/>
<path d="M218.441 444.466C218.441 444.466 214.311 462.617 203.481 469.832" stroke="white" stroke-width="0.5" stroke-linecap="round" stroke-linejoin="round"/>
<path d="M285.404 381.496C285.404 381.496 269.264 382.509 279.852 389.558C290.441 396.607 309.605 401.16 309.605 401.16" stroke="white" stroke-width="0.5" stroke-linecap="round" stroke-linejoin="round"/>
<path d="M402.57 362.422L397.125 357.521L384.54 330.294C383.943 329.056 383.006 328.012 381.838 327.287C380.67 326.561 379.32 326.182 377.945 326.195H133.508C132.13 326.179 130.777 326.556 129.606 327.282C128.435 328.008 127.496 329.053 126.898 330.294L111.212 364.207L108.625 363.254V371.014L108.746 370.923C108.901 371.958 109.426 372.902 110.225 373.578C111.024 374.255 112.041 374.617 113.088 374.598H398.35C399.452 374.624 400.521 374.22 401.331 373.472C402.141 372.724 402.628 371.691 402.691 370.59L402.57 362.422Z" fill="#263238" stroke="#263238" stroke-linecap="round" stroke-linejoin="round"/>
<path d="M398.35 367.504H113.088C112.381 367.532 111.679 367.381 111.048 367.063C110.416 366.746 109.875 366.273 109.476 365.69C109.077 365.106 108.832 364.431 108.766 363.727C108.699 363.023 108.812 362.314 109.094 361.666L126.898 323.2C127.493 321.957 128.432 320.91 129.603 320.184C130.775 319.457 132.13 319.081 133.508 319.101H377.945C379.32 319.084 380.672 319.461 381.841 320.188C383.009 320.914 383.946 321.959 384.54 323.2L402.343 361.666C402.625 362.314 402.738 363.023 402.672 363.727C402.605 364.431 402.361 365.106 401.962 365.69C401.562 366.273 401.022 366.746 400.39 367.063C399.758 367.381 399.056 367.532 398.35 367.504Z" fill="white" stroke="#263238" stroke-linecap="round" stroke-linejoin="round"/>
<g style="mix-blend-mode:multiply" opacity="0.5">
<path d="M127.533 341.669C127.533 341.669 121.074 346.101 125.113 347.72C129.151 349.338 175.573 348.128 181.23 346.509C186.887 344.891 193.331 329.962 193.331 327.541C193.331 325.121 185.193 323.382 182.198 323.246C179.203 323.109 139.634 325.514 139.634 325.514L127.533 341.669Z" fill="#92E3A9"/>
</g>
<g style="mix-blend-mode:multiply" opacity="0.5">
<path d="M358.447 349.338C367.586 349.338 374.995 346.263 374.995 342.471C374.995 338.678 367.586 335.604 358.447 335.604C349.308 335.604 341.899 338.678 341.899 342.471C341.899 346.263 349.308 349.338 358.447 349.338Z" fill="#92E3A9"/>
</g>
<g style="mix-blend-mode:multiply" opacity="0.5">
<path d="M253.094 357.824C285.867 357.824 312.434 352.853 312.434 346.721C312.434 340.589 285.867 335.619 253.094 335.619C220.322 335.619 193.755 340.589 193.755 346.721C193.755 352.853 220.322 357.824 253.094 357.824Z" fill="#92E3A9"/>
</g>
<path d="M346.346 315.456C346.346 315.456 345.257 311.114 341.642 312.566C338.027 314.019 338.39 323.609 339.101 329.039C339.812 334.469 344.713 331.928 344.713 331.928V328.676C344.713 328.676 342.913 330.113 342.005 328.131C341.098 326.15 341.279 316.182 342.187 316.363C343.094 316.545 344.894 319.615 344.894 319.615C344.894 319.615 345.439 319.267 346.346 315.456Z" fill="#92E3A9" stroke="#263238" stroke-linecap="round" stroke-linejoin="round"/>
<path d="M343.745 316.182V339.96C343.745 342.758 350.173 345.027 358.114 345.027C366.056 345.027 372.469 342.758 372.469 339.96V316.182H343.745Z" fill="#92E3A9" stroke="#263238" stroke-linecap="round" stroke-linejoin="round"/>
<path d="M372.469 316.182C372.469 318.602 366.04 320.553 358.114 320.553C350.188 320.553 343.745 318.602 343.745 316.182C343.745 313.761 350.173 311.81 358.114 311.81C366.056 311.81 372.469 313.777 372.469 316.182Z" fill="white" stroke="#263238" stroke-linecap="round" stroke-linejoin="round"/>
<path d="M370.594 316.182C370.594 318.284 364.997 319.978 358.115 319.978C351.232 319.978 345.621 318.284 345.621 316.182C345.621 314.079 351.217 312.385 358.115 312.385C365.012 312.385 370.594 314.079 370.594 316.182Z" fill="white" stroke="#263238" stroke-linecap="round" stroke-linejoin="round"/>
<path d="M348.479 318.602C354.766 320.437 361.447 320.437 367.734 318.602C361.447 316.767 354.766 316.767 348.479 318.602Z" fill="#263238" stroke="#263238" stroke-linecap="round" stroke-linejoin="round"/>
<path d="M125.748 327.042L125.93 335.18L180.761 335.725V326.316L125.748 327.042Z" fill="white" stroke="#263238" stroke-linecap="round" stroke-linejoin="round"/>
<path d="M180.762 335.725L188.733 318.541V313.474L180.399 327.95L180.762 335.725Z" fill="white" stroke="#263238" stroke-linecap="round" stroke-linejoin="round"/>
<path d="M125.748 334.454L125.93 342.607L180.761 343.151V333.743L125.748 334.454Z" fill="white" stroke="#263238" stroke-linecap="round" stroke-linejoin="round"/>
<path d="M180.762 343.151L188.733 325.953V320.886L180.399 335.362L180.762 343.151Z" fill="white" stroke="#263238" stroke-linecap="round" stroke-linejoin="round"/>
<path d="M146.925 306.41C146.925 306.41 148.195 303.884 146.38 302.795C144.565 301.706 142.583 304.308 141.494 305.14C140.405 305.972 117.61 321.067 116.884 323.427C116.158 325.787 116.884 330.99 121.77 331.565C126.656 332.14 130.997 328.857 133.175 328.313C135.353 327.768 136.2 327.587 136.2 327.587L151.22 307.318L146.925 306.41Z" fill="white" stroke="#263238" stroke-linecap="round" stroke-linejoin="round"/>
<path d="M121.77 331.58C126.656 332.124 130.997 328.872 133.175 328.328C135.353 327.783 136.2 327.602 136.2 327.602L136.745 326.861L122.632 323.987C121.865 323.264 120.878 322.818 119.829 322.719C118.779 322.621 117.727 322.875 116.839 323.442C116.158 325.771 116.884 331.02 121.77 331.58Z" fill="white" stroke="#263238" stroke-linecap="round" stroke-linejoin="round"/>
<path d="M122.678 324.017H165.031C178.251 324.017 182.229 323.291 182.229 323.291L190.367 306.456C190.367 306.456 164.653 308.089 156.711 307.545C153.43 307.45 150.162 307.086 146.94 306.456L122.678 324.017Z" fill="white" stroke="#263238" stroke-linecap="round" stroke-linejoin="round"/>
<path d="M122.678 324.017L123.404 327.269C123.404 327.269 157.785 327.451 166.831 327.451C175.876 327.451 182.758 327.814 182.758 327.814L182.214 323.276L122.678 324.017Z" fill="white" stroke="#263238" stroke-linecap="round" stroke-linejoin="round"/>
<path d="M182.758 327.768L190.352 310.388V306.41L182.214 323.246L182.758 327.768Z" fill="white" stroke="#263238" stroke-linecap="round" stroke-linejoin="round"/>
<path d="M304.916 348.098H201.227C200.998 348.1 200.77 348.056 200.557 347.97C200.344 347.883 200.151 347.755 199.987 347.593C199.824 347.432 199.695 347.239 199.607 347.027C199.518 346.815 199.473 346.588 199.473 346.358C199.473 346.128 199.518 345.901 199.607 345.689C199.695 345.477 199.824 345.284 199.987 345.123C200.151 344.961 200.344 344.833 200.557 344.747C200.77 344.66 200.998 344.617 201.227 344.619H304.916C305.145 344.617 305.372 344.66 305.584 344.747C305.796 344.834 305.989 344.962 306.151 345.124C306.313 345.286 306.441 345.478 306.528 345.69C306.614 345.902 306.658 346.129 306.656 346.358C306.658 346.587 306.614 346.814 306.528 347.026C306.441 347.238 306.313 347.431 306.151 347.593C305.989 347.755 305.796 347.883 305.584 347.969C305.372 348.056 305.145 348.1 304.916 348.098Z" fill="white" stroke="#263238" stroke-linecap="round" stroke-linejoin="round"/>
<path d="M305.794 344.588H200.335C199.949 344.589 199.577 344.442 199.296 344.178C199.015 343.914 198.845 343.552 198.822 343.167L193.09 274.267C193.064 274.054 193.084 273.838 193.148 273.633C193.212 273.428 193.32 273.239 193.463 273.078C193.606 272.918 193.782 272.79 193.978 272.703C194.175 272.616 194.387 272.572 194.602 272.573H311.542C311.756 272.572 311.969 272.616 312.166 272.703C312.362 272.79 312.538 272.918 312.681 273.078C312.824 273.239 312.931 273.428 312.996 273.633C313.06 273.838 313.08 274.054 313.054 274.267L307.321 343.167C307.298 343.554 307.127 343.918 306.842 344.183C306.558 344.448 306.182 344.593 305.794 344.588Z" fill="white" stroke="#263238" stroke-linecap="round" stroke-linejoin="round"/>
<path d="M263.017 309.768C263.017 313.882 258.555 317.21 253.064 317.21C247.573 317.21 243.096 313.882 243.096 309.768C243.096 305.654 247.558 302.341 253.064 302.341C258.57 302.341 263.017 305.669 263.017 309.768Z" fill="white" stroke="#263238" stroke-linecap="round" stroke-linejoin="round"/>
<path d="M366.071 255.95C367.688 254.688 368.825 252.91 369.293 250.913C369.633 249.415 369.596 247.856 369.187 246.375" stroke="#263238" stroke-linecap="round" stroke-linejoin="round"/>
<path d="M354 309.889C354 309.889 364.059 303.839 360.776 296.926C357.494 290.014 346.392 285.43 346.392 274.661C346.392 265.373 356.269 261.94 362.713 258.219" stroke="#263238" stroke-linecap="round" stroke-linejoin="round"/>
<path d="M363.288 309.693C363.288 309.693 368.899 305.956 368.899 300.027C368.899 296.049 364.649 293.447 359.037 287.049" stroke="#263238" stroke-linecap="round" stroke-linejoin="round"/>
<path d="M355.936 283.177C355.936 283.177 352.261 280.288 354.968 274.857" stroke="#263238" stroke-linecap="round" stroke-linejoin="round"/>
<path d="M270.776 124.731C272.576 124.353 276.434 122.871 279.035 116.835C279.075 116.744 279.097 116.646 279.099 116.546C279.101 116.446 279.083 116.347 279.046 116.254C279.01 116.162 278.955 116.077 278.886 116.005C278.816 115.934 278.734 115.877 278.642 115.837C278.457 115.76 278.25 115.758 278.063 115.832C277.877 115.905 277.726 116.048 277.644 116.23C275.254 121.767 271.835 122.992 270.413 123.264C272.958 120.185 274.363 116.322 274.392 112.328C274.392 101.83 264.666 93.3296 252.671 93.3296C240.676 93.3296 230.95 101.83 230.95 112.328C230.958 116.161 232.234 119.884 234.58 122.916C232.296 122.795 228.439 123.763 223.553 129.466C223.413 129.61 223.335 129.802 223.335 130.003C223.335 130.203 223.413 130.396 223.553 130.54C223.693 130.656 223.87 130.72 224.052 130.721C224.162 130.721 224.271 130.697 224.37 130.65C224.47 130.603 224.557 130.534 224.627 130.449C230.874 123.173 235.003 124.398 235.835 124.731C234.423 125.508 233.099 126.436 231.887 127.499C224.914 133.777 220.664 145.651 221.208 155.543C221.82 162.104 224.199 168.377 228.091 173.694C233.155 170.07 237.355 165.369 240.388 159.93C242.649 155.934 244.669 151.807 246.439 147.572C246.439 152.004 247.013 157.358 249.343 161.185C251.023 164.208 253.485 166.724 256.471 168.469C259.456 170.215 262.856 171.126 266.314 171.108C267.508 171.125 268.701 171.008 269.869 170.76C269.972 170.734 270.068 170.687 270.151 170.622C270.234 170.557 270.303 170.475 270.353 170.382C276.192 171.622 282 171.516 282.892 170.276C284.329 168.294 286.371 162.108 287.052 154.545C288.292 141.718 280.215 130.585 270.776 124.731ZM250.75 160.262C247.815 155.467 247.906 147.647 248.254 143.155L248.45 142.641C248.59 147.261 249.768 151.791 251.897 155.894C254.025 159.997 257.051 163.568 260.748 166.343C262.79 167.755 265.055 168.813 267.449 169.474C263.743 169.731 256.119 169.02 250.75 160.262Z" fill="#263238"/>
<path d="M251.007 136.454C251.007 136.454 249.767 145.62 261.414 154.605C273.061 163.59 284.103 160.051 284.103 160.051" stroke="white" stroke-width="0.5" stroke-linecap="round" stroke-linejoin="round"/>
<path d="M252.716 133.429C252.716 133.429 264.984 151.293 281.925 146.634" stroke="white" stroke-width="0.5" stroke-linecap="round" stroke-linejoin="round"/>
<path d="M246.65 127.484C244.716 126.502 242.549 126.07 240.386 126.235C238.222 126.401 236.146 127.157 234.383 128.422C227.864 132.763 224.597 143.019 224.597 143.019" stroke="white" stroke-width="0.5" stroke-linecap="round" stroke-linejoin="round"/>
<path d="M246.968 132.461C246.968 132.461 241.689 131.054 238.422 134.321C236.83 135.764 235.468 137.442 234.383 139.298" stroke="white" stroke-width="0.5" stroke-linecap="round" stroke-linejoin="round"/>
</svg>
