<svg width="683" height="585" viewBox="0 0 683 585" fill="none" xmlns="http://www.w3.org/2000/svg">
<path d="M309.997 494.104L194.493 542.91L60.4849 401.378L148.282 387.964L309.997 494.104Z" fill="#92E3A9"/>
<path opacity="0.5" d="M309.997 494.104L194.493 542.91L60.4849 401.378L148.282 387.964L309.997 494.104Z" fill="white"/>
<path d="M452.079 558.776C467.391 558.776 479.803 550.034 479.803 539.25C479.803 528.466 467.391 519.724 452.079 519.724C436.768 519.724 424.356 528.466 424.356 539.25C424.356 550.034 436.768 558.776 452.079 558.776Z" fill="#92E3A9"/>
<path opacity="0.5" d="M452.079 558.776C467.391 558.776 479.803 550.034 479.803 539.25C479.803 528.466 467.391 519.724 452.079 519.724C436.768 519.724 424.356 528.466 424.356 539.25C424.356 550.034 436.768 558.776 452.079 558.776Z" fill="white"/>
<path d="M343.507 428.388L512.759 442.552L475.194 422.13L343.507 428.388Z" fill="#92E3A9"/>
<path opacity="0.5" d="M343.507 428.388L512.759 442.552L475.194 422.13L343.507 428.388Z" fill="white"/>
<path d="M381.627 373.323L331.413 368.986L337.72 361.117H366.604L381.627 373.323Z" fill="#92E3A9"/>
<path opacity="0.5" d="M381.627 373.323L331.413 368.986L337.72 361.117H366.604L381.627 373.323Z" fill="white"/>
<path d="M544.451 585C563.906 585 579.677 574.898 579.677 562.436C579.677 549.974 563.906 539.872 544.451 539.872C524.996 539.872 509.225 549.974 509.225 562.436C509.225 574.898 524.996 585 544.451 585Z" fill="#92E3A9"/>
<path opacity="0.5" d="M544.451 585C563.906 585 579.677 574.898 579.677 562.436C579.677 549.974 563.906 539.872 544.451 539.872C524.996 539.872 509.225 549.974 509.225 562.436C509.225 574.898 524.996 585 544.451 585Z" fill="white"/>
<path d="M335.71 510.043L316.736 542.965L358.755 551.566L375.025 518.644L335.71 510.043Z" fill="white" stroke="#263238" stroke-linecap="round" stroke-linejoin="round"/>
<path d="M368.25 472.839L349.276 502.888L388.574 515.771L404.845 485.722L368.25 472.839Z" fill="#92E3A9"/>
<path opacity="0.5" d="M368.25 472.839L349.276 502.888L388.574 515.771L404.845 485.722L368.25 472.839Z" fill="white" stroke="#263238" stroke-miterlimit="10"/>
<path d="M368.25 472.839L349.276 502.888L388.574 515.771L404.845 485.722L368.25 472.839Z" stroke="#263238" stroke-linecap="round" stroke-linejoin="round"/>
<path d="M410.268 530.1L376.376 540.11L389.926 563.022L429.242 552.993L410.268 530.1Z" fill="#92E3A9" stroke="#263238" stroke-linecap="round" stroke-linejoin="round"/>
<path d="M506.956 524.225L510.421 552.023C510.421 563.534 523.676 572.885 540.033 572.885C556.39 572.885 569.663 563.534 569.663 552.023L573.232 524.225H506.956Z" fill="#92E3A9" stroke="#263238" stroke-linecap="round" stroke-linejoin="round"/>
<path d="M540.067 547.595C558.393 547.595 573.249 537.132 573.249 524.225C573.249 511.319 558.393 500.856 540.067 500.856C521.742 500.856 506.886 511.319 506.886 524.225C506.886 537.132 521.742 547.595 540.067 547.595Z" fill="#92E3A9" stroke="#263238" stroke-linecap="round" stroke-linejoin="round"/>
<path d="M540.067 544.099C555.656 544.099 568.293 535.201 568.293 524.225C568.293 513.249 555.656 504.352 540.067 504.352C524.478 504.352 511.841 513.249 511.841 524.225C511.841 535.201 524.478 544.099 540.067 544.099Z" fill="#92E3A9" stroke="#263238" stroke-linecap="round" stroke-linejoin="round"/>
<path d="M540.067 544.118C555.388 544.118 567.808 536.826 567.808 527.83C567.808 518.835 555.388 511.543 540.067 511.543C524.747 511.543 512.327 518.835 512.327 527.83C512.327 536.826 524.747 544.118 540.067 544.118Z" fill="#263238" stroke="#263238" stroke-linecap="round" stroke-linejoin="round"/>
<path d="M550.065 470.881C545.248 467.605 537.936 467.898 535.008 473.955C530.676 482.776 533.778 499.118 532.218 501.405C530.659 503.693 526.032 504.352 523.867 499.447C521.701 494.543 521.701 488.01 518.911 487.68C516.121 487.351 512.413 488.669 511.789 496.19C511.166 503.711 512.413 512.202 517.369 516.119C522.324 520.035 527.886 518.735 529.498 520.382C531.109 522.029 529.498 524.591 529.498 526.275C529.498 533.595 538.56 537.255 544.295 535.425C552.647 532.808 551.729 523.969 552.959 520.382C554.189 516.796 561.016 516.448 563.494 510.903C565.972 505.358 569.68 494.213 564.412 489.968C559.145 485.722 555.125 487.68 554.518 492.255C553.797 495.888 552.632 499.407 551.053 502.723C554.761 494.982 558.4 476.554 550.065 470.881Z" fill="#92E3A9"/>
<path opacity="0.2" d="M550.065 470.881C545.248 467.605 537.936 467.898 535.008 473.955C530.676 482.776 533.778 499.118 532.218 501.405C530.659 503.693 526.032 504.352 523.867 499.447C521.701 494.543 521.701 488.01 518.911 487.68C516.121 487.351 512.413 488.669 511.789 496.19C511.166 503.711 512.413 512.202 517.369 516.119C522.324 520.035 527.886 518.735 529.498 520.382C531.109 522.029 529.498 524.591 529.498 526.275C529.498 533.595 538.56 537.255 544.295 535.425C552.647 532.808 551.729 523.969 552.959 520.382C554.189 516.796 561.016 516.448 563.494 510.903C565.972 505.358 569.68 494.213 564.412 489.968C559.145 485.722 555.125 487.68 554.518 492.255C553.797 495.888 552.632 499.407 551.053 502.723C554.761 494.982 558.4 476.554 550.065 470.881Z" fill="black"/>
<path d="M550.065 470.881C545.248 467.605 537.936 467.898 535.008 473.955C530.676 482.776 533.778 499.118 532.218 501.405C530.659 503.693 526.032 504.352 523.867 499.447C521.701 494.543 521.701 488.01 518.911 487.68C516.121 487.351 512.413 488.669 511.789 496.19C511.166 503.711 512.413 512.202 517.369 516.119C522.324 520.035 527.886 518.735 529.498 520.382C531.109 522.029 529.498 524.591 529.498 526.275C529.498 533.595 538.56 537.255 544.295 535.425C552.647 532.808 551.729 523.969 552.959 520.382C554.189 516.796 561.016 516.448 563.494 510.903C565.972 505.358 569.68 494.213 564.412 489.968C559.145 485.722 555.125 487.68 554.518 492.255C553.797 495.888 552.632 499.407 551.053 502.723C554.761 494.982 558.4 476.554 550.065 470.881Z" stroke="#263238" stroke-linecap="round" stroke-linejoin="round"/>
<path d="M542.442 473.296C541.036 474.273 539.86 475.575 539.001 477.103C538.143 478.631 537.625 480.346 537.486 482.117C537.174 488.01 537.486 506.639 535.32 509.256C533.154 511.873 526.033 511.214 521.459 506.639C516.884 502.064 518.911 492.273 518.911 492.273" stroke="#263238" stroke-width="0.5" stroke-linecap="round" stroke-linejoin="round"/>
<path d="M520.28 512.404C521.885 513.723 523.741 514.659 525.721 515.149C531.3 516.448 535.32 513.52 536.256 516.448C537.192 519.376 535.32 529.862 535.32 529.862" stroke="#263238" stroke-width="0.5" stroke-linecap="round" stroke-linejoin="round"/>
<path d="M517.057 508.926C517.634 509.785 518.296 510.577 519.032 511.287" stroke="#263238" stroke-width="0.5" stroke-linecap="round" stroke-linejoin="round"/>
<path d="M542.337 524.5C542.65 519.627 542.684 514.738 542.441 509.86C541.886 502.54 545.109 488.943 545.906 482.794" stroke="#263238" stroke-width="0.5" stroke-linecap="round" stroke-linejoin="round"/>
<path d="M541.817 532.149C541.817 532.149 541.991 530.155 542.181 527.227" stroke="#263238" stroke-width="0.5" stroke-linecap="round" stroke-linejoin="round"/>
<path d="M563.252 499.392C563.408 497.8 563.495 496.83 563.495 496.83" stroke="#263238" stroke-width="0.5" stroke-linecap="round" stroke-linejoin="round"/>
<path d="M548.627 526.257C548.627 526.257 549.875 515.478 552.353 513.447C554.831 511.415 561.935 510.171 562.559 505.267C562.662 504.498 562.749 503.766 562.836 503.089" stroke="#263238" stroke-width="0.5" stroke-linecap="round" stroke-linejoin="round"/>
<path d="M559.162 492.585C558.513 493.044 557.995 493.683 557.665 494.432C557.335 495.18 557.206 496.01 557.291 496.83C557.418 498.789 557.023 500.747 556.15 502.481C555.277 504.214 553.961 505.655 552.353 506.639" stroke="#263238" stroke-width="0.5" stroke-linecap="round" stroke-linejoin="round"/>
<path d="M546.253 479.061C546.346 477.231 546.311 475.396 546.149 473.571" stroke="#263238" stroke-width="0.5" stroke-linecap="round" stroke-linejoin="round"/>
<path d="M428.254 471.887L432.846 522.944V528.343C432.846 535.663 442.584 541.464 454.609 541.464C466.634 541.464 476.372 535.59 476.372 528.343V522.944L480.547 471.357L428.254 471.887Z" fill="white" stroke="#263238" stroke-linecap="round" stroke-linejoin="round"/>
<path d="M476.579 520.181L478.988 490.444C475.747 495.769 466.079 499.594 454.643 499.594C442.6 499.594 432.533 495.311 429.848 489.547L432.585 519.998C437.021 523.896 445.217 526.531 454.643 526.531C464.069 526.531 472.143 524.024 476.579 520.181Z" fill="#92E3A9" stroke="#263238" stroke-linecap="round" stroke-linejoin="round"/>
<path d="M429.121 481.513V481.166L428.896 479.116L429.121 481.513Z" fill="white" stroke="#263238" stroke-linecap="round" stroke-linejoin="round"/>
<path d="M481.379 464.311C476.77 458.162 466.53 453.862 454.608 453.862C442.687 453.862 432.447 458.162 427.82 464.311H425.204V471.631C425.204 481.44 438.373 489.382 454.66 489.382C470.948 489.382 484.117 481.44 484.117 471.631V464.311H481.379Z" fill="#92E3A9" stroke="#263238" stroke-linecap="round" stroke-linejoin="round"/>
<path opacity="0.2" d="M481.379 464.311C476.77 458.162 466.53 453.862 454.608 453.862C442.687 453.862 432.447 458.162 427.82 464.311H425.204V471.631C425.204 481.44 438.373 489.382 454.66 489.382C470.948 489.382 484.117 481.44 484.117 471.631V464.311H481.379Z" fill="black"/>
<path d="M454.608 482.062C470.848 482.062 484.013 474.115 484.013 464.311C484.013 454.507 470.848 446.56 454.608 446.56C438.369 446.56 425.204 454.507 425.204 464.311C425.204 474.115 438.369 482.062 454.608 482.062Z" fill="white" stroke="#263238" stroke-linecap="round" stroke-linejoin="round"/>
<path d="M478 454.411C473.963 449.031 465.022 445.261 454.608 445.261C444.195 445.261 435.254 449.012 431.217 454.411H428.981V460.779C428.981 469.344 440.469 476.279 454.66 476.279C468.851 476.279 480.339 469.344 480.339 460.779V454.411H478Z" fill="#92E3A9" stroke="#263238" stroke-linecap="round" stroke-linejoin="round"/>
<path d="M454.609 469.911C468.791 469.911 480.288 462.971 480.288 454.411C480.288 445.85 468.791 438.911 454.609 438.911C440.427 438.911 428.93 445.85 428.93 454.411C428.93 462.971 440.427 469.911 454.609 469.911Z" fill="white" stroke="#263238" stroke-linecap="round" stroke-linejoin="round"/>
<path d="M195.429 303.893C195.429 303.893 197.439 302.484 210.191 308.139C222.944 313.793 227.952 312.567 240.358 310.261C255.26 307.516 267.631 304.771 269.121 311.14C271.703 322.12 261.272 321.992 242.507 324.114C223.741 326.237 212.86 320.18 206.83 317.343C204.054 316.14 201.367 314.721 198.79 313.098L195.429 303.893Z" fill="white" stroke="#263238" stroke-linecap="round" stroke-linejoin="round"/>
<path d="M166.596 309.566C166.596 309.566 183.369 330.099 190.733 324.426C198.097 318.753 197.439 300.361 190.733 294.688C184.028 289.015 165.262 299.647 166.596 309.566Z" fill="white" stroke="#263238" stroke-linecap="round" stroke-linejoin="round"/>
<path d="M217.59 252.909C217.59 252.909 218.266 272.033 213.57 284.769C208.874 297.506 200.159 306.016 198.825 313.098C197.491 320.18 198.149 330.099 191.443 332.935C184.738 335.772 184.738 330.812 185.413 325.139C186.089 319.466 187.423 298.238 187.423 298.238L165.262 312.384C165.262 312.384 171.292 330.099 158.556 332.221C145.821 334.344 130.4 313.812 128.39 298.293C126.38 282.775 134.419 248.005 148.507 238.8C162.594 229.595 180.683 231.022 190.092 231.022C199.5 231.022 213.536 238.049 217.59 252.909Z" fill="white" stroke="#263238" stroke-linecap="round" stroke-linejoin="round"/>
<path d="M164.136 233.255C164.136 233.255 160.67 235.085 154.623 245.132C148.576 255.178 160.67 263.834 167.168 259.278C173.666 254.721 168.017 245.132 172.782 240.557C175.523 238.101 177.362 234.708 177.98 230.968L164.136 233.255Z" fill="#263238"/>
<path d="M144.695 247.401C143.146 248.569 141.844 250.066 140.875 251.796C139.905 253.526 139.288 255.451 139.063 257.447C138.63 263.834 149.46 251.957 150.742 246.467C152.024 240.977 144.695 247.401 144.695 247.401Z" fill="#263238"/>
<path d="M183.369 233.09C181.832 236.04 181.082 239.376 181.201 242.742C181.32 246.107 182.303 249.375 184.045 252.195C190.075 262.114 203.486 266.36 208.84 259.278C214.195 252.195 216.222 248.664 214.212 245.132C212.202 241.6 192.761 227.417 183.369 233.09Z" fill="#92E3A9" stroke="#263238" stroke-linecap="round" stroke-linejoin="round"/>
<path d="M232.977 198.394C230.432 198.686 227.857 198.394 225.429 197.538C223 196.682 220.776 195.282 218.907 193.434C212.201 187.066 206.154 172.902 203.486 173.597C200.817 174.292 191.357 194.843 191.357 194.843C191.357 194.843 175.26 196.271 173.925 201.212C172.591 206.153 179.955 229.54 186.054 239.459C188.899 243.877 192.685 247.528 197.109 250.119C201.533 252.709 206.471 254.166 211.525 254.373C219.565 254.373 243.702 256.496 247.064 247.987C250.425 239.477 247.722 214.004 247.722 214.004C247.722 214.004 258.465 202.676 253.769 200.553C249.074 198.43 232.977 198.394 232.977 198.394Z" fill="white" stroke="#263238" stroke-linecap="round" stroke-linejoin="round"/>
<path d="M229.72 233.822C228.905 232.706 228.126 231.571 227.363 230.4C226.098 228.424 223.101 225.404 217.331 227.326C209.118 230.052 203.469 238.306 212.583 245.132C221.16 251.628 238.383 245.772 229.72 233.822Z" fill="#263238"/>
<path d="M191.409 194.843C191.409 194.843 200.8 200.516 206.154 198.393C211.508 196.27 208.164 172.188 203.486 173.597C198.807 175.006 190.733 185.638 191.409 194.843Z" fill="white" stroke="#263238" stroke-linecap="round" stroke-linejoin="round"/>
<path d="M253.77 200.516C253.77 200.516 245.106 199.802 239.683 206.171C234.259 212.539 237.673 218.981 245.054 220.335C252.435 221.689 256.438 200.516 253.77 200.516Z" fill="white" stroke="#263238" stroke-linecap="round" stroke-linejoin="round"/>
<path d="M201.476 240.172C201.476 240.172 192.813 233.09 194.771 238.745C196.728 244.4 200.125 245.132 203.434 243.704C206.744 242.277 201.476 240.172 201.476 240.172Z" fill="#92E3A9" stroke="#263238" stroke-linecap="round" stroke-linejoin="round"/>
<path d="M196.694 222.421C196.191 224.251 194.77 225.532 193.523 225.166C192.275 224.8 191.669 222.97 192.171 221.085C192.674 219.2 194.095 217.974 195.342 218.34C196.59 218.706 197.196 220.555 196.694 222.421Z" fill="#263238"/>
<path d="M217.365 239.129C215.753 240.117 213.899 239.971 213.276 238.781C212.652 237.592 213.379 235.853 215.008 234.865C215.604 234.365 216.356 234.121 217.114 234.182C217.872 234.244 218.581 234.605 219.097 235.195C219.721 236.384 218.959 238.141 217.365 239.129Z" fill="white"/>
<path d="M157.222 284.074C157.222 284.074 155.212 299.647 157.881 306.034C160.549 312.421 163.252 336.485 168.623 337.144C173.995 337.803 171.968 324.334 171.968 322.266C171.968 320.198 172.643 297.488 172.643 297.488C172.643 297.488 177.339 286.856 180.007 281.201" fill="white"/>
<path d="M157.222 284.074C157.222 284.074 155.212 299.647 157.881 306.034C160.549 312.421 163.252 336.485 168.623 337.144C173.995 337.803 171.968 324.334 171.968 322.266C171.968 320.198 172.643 297.488 172.643 297.488C172.643 297.488 177.339 286.856 180.007 281.201" stroke="#263238" stroke-linecap="round" stroke-linejoin="round"/>
<path d="M135.095 283.36C135.095 283.36 153.202 277.687 155.212 298.934" stroke="#263238" stroke-linecap="round" stroke-linejoin="round"/>
<path d="M187.389 298.293C187.389 298.293 202.81 289.784 203.486 271.374" stroke="#263238" stroke-linecap="round" stroke-linejoin="round"/>
<path d="M1 327.262L12.4186 324.536" stroke="#263238" stroke-linecap="round" stroke-linejoin="round"/>
<path d="M96.2998 398.431L188.377 370.853C191.303 370.525 194.247 371.275 196.711 372.975L346.539 474.083C347.178 474.519 347.674 475.151 347.961 475.895C348.247 476.638 348.311 477.456 348.143 478.239C347.974 479.022 347.582 479.731 347.02 480.271C346.457 480.811 345.751 481.155 344.997 481.257L218.994 522.706L96.2998 398.431Z" fill="#92E3A9" stroke="#263238" stroke-linecap="round" stroke-linejoin="round"/>
<path d="M150.136 404.25L163.183 413.748L178.258 409.246L165.228 399.767L150.136 404.25Z" fill="#263238"/>
<path d="M158.262 430.804L145.232 421.306L130.14 425.808L143.188 435.305L158.262 430.804Z" fill="#263238"/>
<path d="M182.918 410.07L195.948 419.549L211.023 415.047L197.993 405.568L182.918 410.07Z" fill="#263238"/>
<path d="M198.114 421.123L211.144 430.602L226.219 426.101L213.189 416.621L198.114 421.123Z" fill="#263238"/>
<path d="M165.332 415.304L178.362 424.801L193.436 420.3L180.406 410.82L165.332 415.304Z" fill="#263238"/>
<path d="M132.548 409.502L145.578 419L160.67 414.498L147.623 405L132.548 409.502Z" fill="#263238"/>
<path d="M236.597 469.764L223.55 460.267L208.493 464.769L221.523 474.266L236.597 469.764Z" fill="#263238"/>
<path d="M218.994 475.017L205.964 465.519L190.889 470.021L203.937 479.5L218.994 475.017Z" fill="#263238"/>
<path d="M173.441 441.857L160.411 432.359L145.336 436.861L158.366 446.34L173.441 441.857Z" fill="#263238"/>
<path d="M251.777 480.818L238.747 471.338L223.672 475.822L236.702 485.32L251.777 480.818Z" fill="#263238"/>
<path d="M188.636 452.91L175.589 443.412L160.514 447.914L173.562 457.394L188.636 452.91Z" fill="#263238"/>
<path d="M203.815 463.963L190.785 454.465L175.71 458.967L188.741 468.465L203.815 463.963Z" fill="#263238"/>
<path d="M213.293 432.176L226.323 441.656L241.398 437.154L228.368 427.674L213.293 432.176Z" fill="#263238"/>
<path d="M147.744 420.556L160.774 430.053L175.849 425.551L162.819 416.072L147.744 420.556Z" fill="#263238"/>
<path d="M269.364 475.565L256.333 466.086L241.259 470.588L254.289 480.067L269.364 475.565Z" fill="#263238"/>
<path d="M223.81 442.406L210.78 432.926L195.706 437.41L208.736 446.908L223.81 442.406Z" fill="#263238"/>
<path d="M191.028 436.605L177.998 427.107L162.923 431.609L175.953 441.107L191.028 436.605Z" fill="#263238"/>
<path d="M127.887 408.697L120.263 403.134L109.954 406.19L115.983 412.247L127.887 408.697Z" fill="#263238"/>
<path d="M143.066 419.75L130.035 410.253L117.681 413.949L127.887 424.161L127.991 424.234L143.066 419.75Z" fill="#263238"/>
<path d="M180.51 426.375L193.557 435.854L208.632 431.353L195.584 421.873L180.51 426.375Z" fill="#263238"/>
<path d="M206.223 447.658L193.193 438.179L178.119 442.662L191.149 452.16L206.223 447.658Z" fill="#263238"/>
<path d="M271.772 459.26L258.742 449.781L243.667 454.283L256.698 463.762L271.772 459.26Z" fill="#263238"/>
<path d="M228.472 443.229L241.519 452.709L256.594 448.207L243.564 438.728L228.472 443.229Z" fill="#263238"/>
<path d="M254.185 464.512L241.155 455.033L226.081 459.535L239.111 469.014L254.185 464.512Z" fill="#263238"/>
<path d="M238.99 453.459L225.959 443.98L210.885 448.463L223.932 457.961L238.99 453.459Z" fill="#263238"/>
<path d="M221.402 458.711L208.372 449.232L193.297 453.715L206.327 463.213L221.402 458.711Z" fill="#263238"/>
<path d="M155.854 447.091L142.824 437.611L141.663 437.959L151.938 448.262L155.854 447.091Z" fill="#263238"/>
<path d="M271.529 477.139L256.455 481.641L272.084 493.005L286.777 488.229L271.529 477.139Z" fill="#263238"/>
<path d="M253.925 482.391L238.85 486.875L254.947 498.587L269.623 493.811L253.925 482.391Z" fill="#263238"/>
<path d="M186.229 469.197L173.198 459.718L165.626 461.969L175.919 472.29L186.229 469.197Z" fill="#263238"/>
<path d="M286.968 470.313L273.921 460.834L258.846 465.336L271.894 474.815L286.968 470.313Z" fill="#263238"/>
<path d="M201.406 480.269L188.376 470.771L177.616 473.992L187.891 484.295L201.406 480.269Z" fill="#263238"/>
<path d="M216.602 491.322L203.572 481.824L189.589 485.997L199.881 496.299L216.602 491.322Z" fill="#263238"/>
<path d="M234.19 486.07L221.16 476.572L206.085 481.074L219.115 490.572L234.19 486.07Z" fill="#263238"/>
<path d="M319.335 471.174L310.672 465.446L291.612 471.137L306.34 481.861L317.811 478.201C318.566 478.131 319.281 477.81 319.853 477.284C320.425 476.758 320.825 476.054 320.994 475.273C321.164 474.492 321.094 473.675 320.796 472.938C320.498 472.202 319.987 471.584 319.335 471.174Z" fill="#263238"/>
<path d="M218.751 492.877L201.58 498.001L215.095 511.543L235.351 504.955L218.751 492.877Z" fill="#263238"/>
<path d="M294.592 454.667L276.451 460.084L289.481 469.563L308.454 463.908L294.592 454.667Z" fill="#263238"/>
<path d="M289.117 471.887L274.042 476.389L289.221 487.442L303.914 482.666L289.117 471.887Z" fill="#263238"/>
<path d="M183.178 392.191L195.497 388.512L187.544 383.205L175.658 386.719L183.178 392.191Z" fill="#263238"/>
<path d="M252.487 499.392L236.338 487.625L221.263 492.127L237.793 504.168L252.487 499.392Z" fill="#263238"/>
<path d="M185.327 393.764L198.357 403.244L211.647 399.291L197.785 390.049L185.327 393.764Z" fill="#263238"/>
<path d="M215.702 415.871L228.732 425.35L243.91 420.83L230.066 411.589L215.702 415.871Z" fill="#263238"/>
<path d="M200.506 404.817L213.553 414.297L227.779 410.051L213.917 400.81L200.506 404.817Z" fill="#263238"/>
<path d="M230.88 426.924L243.91 436.404L260.042 431.609L246.197 422.349L230.88 426.924Z" fill="#263238"/>
<path d="M246.076 437.977L259.106 447.457L276.173 442.369L262.329 433.128L246.076 437.977Z" fill="#263238"/>
<path d="M278.46 443.888L261.254 449.031L274.284 458.51L292.305 453.148L278.46 443.888Z" fill="#263238"/>
<path d="M167.74 399.016L180.77 408.496L195.844 403.994L182.814 394.515L167.74 399.016Z" fill="#263238"/>
<path d="M137.296 433.604L139.964 436.257L140.657 436.037L137.296 433.604Z" fill="#263238"/>
<path d="M130.399 407.947L145.474 403.445L137.885 397.919L122.775 402.384L130.399 407.947Z" fill="#263238"/>
<path d="M147.987 402.695L163.061 398.193L155.507 392.685L140.397 397.168L147.987 402.695Z" fill="#263238"/>
<path d="M158.037 391.953L165.591 397.443L180.666 392.941L173.129 387.469L158.037 391.953Z" fill="#263238"/>
<path d="M171.032 458.162L158.002 448.664L153.636 449.964L163.928 460.267L171.032 458.162Z" fill="#263238"/>
<path d="M218.907 522.706L179.055 352.315C178.147 348.441 176.19 344.931 173.423 342.213L65.9946 236.421C65.538 235.973 64.9575 235.691 64.3382 235.618C63.719 235.545 63.0938 235.683 62.5546 236.013C62.0154 236.343 61.5907 236.846 61.3428 237.45C61.0949 238.054 61.037 238.726 61.1776 239.367L96.2999 398.431L218.907 522.706Z" fill="#92E3A9" stroke="#263238" stroke-linecap="round" stroke-linejoin="round"/>
<path d="M158.678 335.241L170.963 346.587C170.963 346.587 174.792 347.392 178.621 367.65" stroke="#263238" stroke-width="0.5" stroke-linecap="round" stroke-linejoin="round"/>
<path d="M180.926 378.173L203.573 481.824" stroke="#263238" stroke-width="0.5" stroke-linecap="round" stroke-linejoin="round"/>
<path d="M114.614 330.611C119.934 344.263 119.449 357.42 113.523 360.001C107.597 362.581 98.4655 353.596 93.146 339.871C87.8266 326.146 88.3117 313.061 94.2376 310.499C100.164 307.937 109.295 316.959 114.614 330.611Z" fill="#92E3A9"/>
<path opacity="0.6" d="M114.614 330.611C119.934 344.263 119.449 357.42 113.523 360.001C107.597 362.581 98.4655 353.596 93.146 339.871C87.8266 326.146 88.3117 313.061 94.2376 310.499C100.164 307.937 109.295 316.959 114.614 330.611Z" fill="white"/>
<path d="M110.733 352.857C114.945 351.026 115.291 341.669 111.505 331.959C107.719 322.249 101.236 315.863 97.024 317.694C92.812 319.526 92.4664 328.882 96.2521 338.592C100.038 348.302 106.521 354.689 110.733 352.857Z" stroke="#263238" stroke-miterlimit="10"/>
<path d="M122.827 386.591C125.6 393.673 124.456 400.883 120.297 402.695C116.139 404.506 110.525 400.224 107.752 393.16C104.98 386.097 106.141 378.868 110.3 377.056C114.458 375.245 120.072 379.527 122.827 386.591Z" fill="#263238"/>
<path d="M117.092 398.577C114.476 398.577 111.634 396.07 110.161 392.154C109.332 390.14 109.044 387.924 109.33 385.749C109.406 384.842 109.705 383.971 110.197 383.223C110.689 382.476 111.358 381.876 112.137 381.485C115.065 380.204 118.808 382.894 120.644 387.597C122.464 392.3 121.597 396.985 118.669 398.266C118.167 398.476 117.632 398.582 117.092 398.577ZM113.627 383.004C113.329 383.001 113.034 383.063 112.76 383.187C112.263 383.469 111.842 383.881 111.538 384.384C111.235 384.887 111.059 385.464 111.028 386.06C110.78 387.926 111.032 389.828 111.755 391.55C113.159 395.21 116.018 397.516 117.993 396.656C119.969 395.796 120.436 392.008 119.016 388.384C117.716 385.182 115.36 383.004 113.627 383.004Z" fill="#92E3A9"/>
<g opacity="0.5">
<path opacity="0.5" d="M117.092 398.577C114.476 398.577 111.634 396.07 110.161 392.154C109.332 390.14 109.044 387.924 109.33 385.749C109.406 384.842 109.705 383.971 110.197 383.223C110.689 382.476 111.358 381.876 112.137 381.485C115.065 380.204 118.808 382.894 120.644 387.597C122.464 392.3 121.597 396.985 118.669 398.266C118.167 398.476 117.632 398.582 117.092 398.577ZM113.627 383.004C113.329 383.001 113.034 383.063 112.76 383.187C112.263 383.469 111.842 383.881 111.538 384.384C111.235 384.887 111.059 385.464 111.028 386.06C110.78 387.926 111.032 389.828 111.755 391.55C113.159 395.21 116.018 397.516 117.993 396.656C119.969 395.796 120.436 392.008 119.016 388.384C117.716 385.182 115.36 383.004 113.627 383.004Z" fill="white"/>
</g>
<path d="M153.722 388.86L143.863 405.33C143.609 405.731 143.473 406.202 143.473 406.684C143.473 407.167 143.609 407.638 143.863 408.038L164.967 440.539C165.152 440.828 165.392 441.072 165.672 441.256C165.952 441.441 166.266 441.561 166.592 441.609C166.919 441.657 167.251 441.633 167.569 441.537C167.886 441.441 168.18 441.276 168.433 441.052L179.366 431.627C179.802 431.256 180.096 430.732 180.195 430.15C180.294 429.569 180.19 428.969 179.903 428.461L157.707 388.952C157.509 388.583 157.223 388.275 156.878 388.057C156.533 387.84 156.141 387.721 155.739 387.712C155.338 387.703 154.941 387.804 154.587 388.005C154.234 388.206 153.935 388.501 153.722 388.86Z" fill="#263238"/>
<path d="M136.568 410.692C136.568 410.692 163.876 405.897 182.641 446.523L187.302 440.466C187.302 440.466 169.23 408.679 154.502 405.842C139.774 403.006 134.419 402.988 134.419 402.988L136.568 410.692Z" fill="#92E3A9"/>
<path opacity="0.5" d="M136.568 410.692C136.568 410.692 163.876 405.897 182.641 446.523L187.302 440.466C187.302 440.466 169.23 408.679 154.502 405.842C139.774 403.006 134.419 402.988 134.419 402.988L136.568 410.692Z" fill="white"/>
<path d="M18.7954 323.016L63.361 312.384" stroke="#263238" stroke-linecap="round" stroke-linejoin="round"/>
<path d="M301.748 425.497C296.406 426.387 291.02 426.955 285.616 427.199C277.247 427.546 273.695 427.546 274.977 429.596C276.259 431.645 286.275 433.677 289.809 434.354C293.344 435.031 301.748 425.497 301.748 425.497Z" fill="white" stroke="#263238" stroke-miterlimit="10"/>
<path d="M615.995 499.52L601.076 491.285" stroke="#263238" stroke-linecap="round" stroke-linejoin="round"/>
<path d="M317.984 307.187C317.984 307.187 321.12 301.386 322.437 308.578L317.984 307.187Z" fill="#263238"/>
<path d="M591.841 486.179L228.108 285.483" stroke="#263238" stroke-linecap="round" stroke-linejoin="round"/>
<path d="M237.672 364.082L314.102 416.127L376.965 389.043L292.287 343.586L237.672 364.082Z" fill="#263238" stroke="#263238" stroke-linecap="round" stroke-linejoin="round"/>
<path d="M286.795 353.23L256.334 364.594" stroke="white" stroke-width="0.5" stroke-linecap="round" stroke-linejoin="round"/>
<path d="M261.116 368.382L316.078 404.982L360.868 386.682" stroke="white" stroke-width="0.5" stroke-linecap="round" stroke-linejoin="round"/>
<path d="M552.594 118.147C552.594 118.147 596.363 125.467 610.45 150.246C624.537 175.024 614.469 213.966 609.774 227.417C605.529 239.623 618.074 249.816 625.784 256.441C643.111 271.3 652.035 292.272 643.025 315.092C637.411 329.293 612.442 335.662 615.821 352.754C619.2 369.846 633.911 393.819 615.145 411.534C595.34 430.2 565.624 420.574 548.262 403.134C528.734 383.516 522.011 349.387 532.009 323.016C544.138 291.156 550.775 270.623 539.373 257.136C527.972 243.649 513.227 235.176 513.227 216.071C513.227 196.966 529.324 191.293 536.029 172.151C542.735 153.009 533.343 133.208 533.343 133.208L552.594 118.147Z" fill="#263238" stroke="#263238" stroke-linecap="round" stroke-linejoin="round"/>
<path d="M593.591 151.197C602.047 157.95 609.74 169.314 607.072 187.797C601.666 225.312 575.415 227.765 592.396 251.408C609.376 275.052 624.832 264.438 621.731 293.791C618.629 323.144 608.614 333.74 608.614 333.74" stroke="white" stroke-miterlimit="10"/>
<path d="M575.484 142.175C578.869 143.016 582.157 144.243 585.291 145.835" stroke="white" stroke-miterlimit="10"/>
<path d="M566.993 152.79C566.993 152.79 589.38 159.304 596.328 178.867C603.276 198.43 575.535 214.754 573.941 226.978" stroke="white" stroke-miterlimit="10"/>
<path d="M566.006 471.924C565.694 460.706 565.555 445.736 566.196 429.943C567.548 397.369 604.42 354.163 605.754 346.385C607.089 338.608 603.744 337.235 603.744 337.235L530.658 303.948C496.68 327.518 488.414 396.07 486.387 428.058L566.006 471.924Z" fill="#92E3A9" stroke="#263238" stroke-linecap="round" stroke-linejoin="round"/>
<path d="M595.809 339.304C595.809 339.304 601.942 343.348 595.809 349.826C589.675 356.304 572.798 383.846 565.867 400.041" stroke="#263238" stroke-width="0.5" stroke-linecap="round" stroke-linejoin="round"/>
<path d="M562.835 408.093C562.835 408.093 557.463 421.05 558.243 434.006C559.023 446.962 559.005 459.114 559.005 459.114" stroke="#263238" stroke-width="0.5" stroke-linecap="round" stroke-linejoin="round"/>
<path d="M419.469 321.717C422.692 330.574 426.574 349.625 423.992 360.513C422.658 366.168 418.187 378.045 414.219 388.164L512.759 442.552C512.655 420.885 512.915 386.682 515.531 380.332C519.395 370.798 550.342 280.945 548.453 260.522C546.564 240.099 509.138 210.819 509.138 210.819L514.873 161.043L480.721 182.838C480.721 182.838 476.84 202.566 472.976 207.342C469.112 212.118 437.524 218.907 428.497 231.132C419.469 243.356 422.692 280.835 422.692 282.866C422.692 284.897 416.247 312.933 419.469 321.717Z" fill="white"/>
<g style="mix-blend-mode:multiply" opacity="0.5">
<path d="M548.4 260.449C546.46 240.026 509.085 210.746 509.085 210.746L514.872 161.043L480.72 182.838C480.72 182.838 479.594 188.529 477.965 194.55C480.166 194.349 482.626 194.019 485.381 193.507C498.411 191.073 505.325 186.187 505.325 186.187L498.394 216.968C498.394 216.968 533.672 238.928 542.873 265.573C544.121 269.233 545.455 272.655 546.824 276.058C547.99 270.95 548.52 265.702 548.4 260.449Z" fill="#92E3A9"/>
</g>
<path d="M419.469 321.717C422.692 330.574 426.574 349.625 423.992 360.513C422.658 366.168 418.187 378.045 414.219 388.164L512.759 442.552C512.655 420.885 512.915 386.682 515.531 380.332C519.395 370.798 550.342 280.945 548.453 260.522C546.564 240.099 509.138 210.819 509.138 210.819L514.873 161.043L480.721 182.838C480.721 182.838 476.84 202.566 472.976 207.342C469.112 212.118 437.524 218.907 428.497 231.132C419.469 243.356 422.692 280.835 422.692 282.866C422.692 284.897 416.247 312.933 419.469 321.717Z" stroke="#263238" stroke-linecap="round" stroke-linejoin="round"/>
<path d="M419.469 321.717C422.692 330.574 426.574 349.625 423.992 360.513C422.658 366.168 418.187 378.045 414.219 388.165L512.759 442.552C512.655 420.885 512.915 386.682 515.531 380.332C519.395 370.798 550.342 280.945 548.453 260.522C547.258 247.803 532.322 231.681 521.215 221.305C510.281 233.547 486.56 256.386 469.233 246.211C453.639 237.061 454.626 223.153 456.931 214.881C446.396 218.981 433.799 224.214 428.618 231.242C419.591 243.503 422.814 280.945 422.814 282.976C422.814 285.007 416.247 312.933 419.469 321.717Z" fill="#263238" stroke="#263238" stroke-linecap="round" stroke-linejoin="round"/>
<path d="M477.03 297.525L455.579 286.892C455.579 286.892 449.532 276.278 446.188 276.278C442.844 276.278 440.816 291.156 440.816 291.156C440.816 291.156 429.432 302.484 433.452 313.812C437.472 325.139 452.218 342.14 470.325 335.772C488.432 329.403 483.06 309.584 483.06 309.584C483.06 309.584 490.442 296.134 490.442 293.297C490.442 290.461 477.03 297.525 477.03 297.525Z" fill="white" stroke="#263238" stroke-linecap="round" stroke-linejoin="round"/>
<path d="M431.079 77.9789C431.079 77.9789 435.602 102.501 434.943 119.52C434.285 136.539 427.856 143.31 429.745 150.831C431.634 158.353 454.887 186.242 469.06 188.95C483.234 191.659 516.762 168.527 526.431 158.316C536.099 148.105 537.382 133.135 536.099 127.005C534.817 120.874 529.654 71.8666 510.316 52.1209C490.979 32.3752 440.107 34.4248 431.079 77.9789Z" fill="white"/>
<g style="mix-blend-mode:multiply" opacity="0.5">
<path d="M510.421 52.1208C503.195 44.8008 491.552 40.4088 479.336 40.1343L478.539 65.5347C478.539 65.5347 474.692 90.6424 488.502 110.882C502.312 131.122 514.579 136.813 516.104 144.902C517.629 152.991 510.698 161.043 493.094 174.877C486.209 180.38 478.834 185.161 471.071 189.151C486.163 189.719 517.265 168.106 526.518 158.316C536.186 148.104 537.469 133.135 536.186 127.005C534.904 120.874 529.706 71.8665 510.421 52.1208Z" fill="#92E3A9"/>
</g>
<path d="M431.079 77.9789C431.079 77.9789 435.602 102.501 434.943 119.52C434.285 136.539 427.856 143.31 429.745 150.831C431.634 158.353 454.887 186.242 469.06 188.95C483.234 191.659 516.762 168.527 526.431 158.316C536.099 148.105 537.382 133.135 536.099 127.005C534.817 120.874 529.654 71.8666 510.316 52.1209C490.979 32.3752 440.107 34.4248 431.079 77.9789Z" stroke="#263238" stroke-linecap="round" stroke-linejoin="round"/>
<path d="M455.58 128.359C455.58 128.359 453.639 141.297 450.381 145.378C452.911 147.708 456.068 149.142 459.409 149.477" stroke="#263238" stroke-linecap="round" stroke-linejoin="round"/>
<path d="M456.862 161.043C461.061 163.008 465.638 163.91 470.226 163.675C474.814 163.44 479.286 162.074 483.286 159.688" stroke="#263238" stroke-linecap="round" stroke-linejoin="round"/>
<path d="M480.063 121.551C480.063 123.82 479.058 125.65 477.81 125.65C476.563 125.65 475.558 123.82 475.558 121.551C475.558 119.282 476.563 117.47 477.81 117.47C479.058 117.47 480.063 119.3 480.063 121.551Z" fill="#263238"/>
<path d="M448.164 116.116C448.164 118.367 447.159 120.197 445.911 120.197C444.664 120.197 443.659 118.367 443.659 116.116C443.659 113.865 444.664 112.035 445.911 112.035C447.159 112.035 448.164 113.865 448.164 116.116Z" fill="#263238"/>
<path d="M439.465 98.4198C441.272 97.2281 443.288 96.4326 445.393 96.0805C447.497 95.7284 449.647 95.8269 451.715 96.3703" stroke="#263238" stroke-linecap="round" stroke-linejoin="round"/>
<path d="M469.753 99.0971C469.753 99.0971 473.617 97.0475 482.003 102.501" stroke="#263238" stroke-linecap="round" stroke-linejoin="round"/>
<path d="M473.617 59.6056C473.617 59.6056 455.58 75.2704 446.552 84.7865C437.525 94.3025 433.661 101.128 420.128 95.0162C406.596 88.904 396.91 67.7674 414.93 42.5866C432.95 17.4057 467.795 9.90269 501.947 20.1141C536.099 30.3255 550.307 53.4751 552.872 78.6743C555.436 103.873 550.273 131.763 538.144 139.266C526.015 146.769 498.811 116.116 489.142 97.0475C483.084 84.9966 477.894 72.4806 473.617 59.6056Z" fill="#263238" stroke="#263238" stroke-linecap="round" stroke-linejoin="round"/>
<path d="M473.617 59.6056C473.617 59.6056 424.945 67.1818 422.641 78.5827C420.336 89.9836 434.995 86.7445 434.995 86.7445" stroke="white" stroke-miterlimit="10"/>
<path d="M416.368 67.1271C413.076 74.5569 415.692 79.4064 415.692 79.4064" stroke="white" stroke-miterlimit="10"/>
<path d="M522.219 35.3764C522.219 35.3764 475.124 27.2328 475.124 49.2295C475.124 49.2295 446.569 38.6338 428.046 53.3104C425.266 55.4509 422.715 57.9054 420.439 60.6304" stroke="white" stroke-miterlimit="10"/>
<path d="M477.499 54.1339C477.499 54.1339 489.507 95.0528 514.562 105.502" stroke="white" stroke-miterlimit="10"/>
<path d="M502.484 65.1321C512.136 73.5501 525.945 81.8583 542.337 81.0348" stroke="white" stroke-miterlimit="10"/>
<path d="M487.479 48.4244C489.736 51.7023 492.215 54.8031 494.896 57.7026" stroke="white" stroke-miterlimit="10"/>
<path d="M426.574 101.824L501.982 115.439C501.982 115.439 501.982 127.554 498.759 133.739C495.536 139.925 491.672 139.998 483.286 139.998C474.899 139.998 463.238 134.508 462.666 132.513C461.332 127.682 462.233 111.742 462.233 111.742L456.221 110.718C456.221 110.718 457 129.292 453.777 131.342C450.555 133.391 429.277 129.292 425.413 123.857C421.549 118.422 423.992 101.128 426.574 101.824Z" stroke="#263238" stroke-linecap="round" stroke-linejoin="round"/>
<path d="M501.981 115.439L535.509 109.309V114.067L501.981 122.924V115.439Z" fill="#92E3A9" stroke="#263238" stroke-linecap="round" stroke-linejoin="round"/>
<path d="M560.254 119.677C562.873 102.463 556.732 87.1061 546.537 85.3758C536.343 83.6454 525.955 96.1968 523.336 113.41C520.716 130.624 526.857 145.981 537.052 147.711C547.247 149.441 557.635 136.89 560.254 119.677Z" fill="#92E3A9" stroke="#263238" stroke-linecap="round" stroke-linejoin="round"/>
<path d="M565.641 120.362C563.441 134.856 555.799 145.598 548.609 144.372C541.418 143.145 537.346 130.427 539.546 115.933C541.747 101.44 549.371 90.7158 556.579 91.9419C563.787 93.168 567.842 105.887 565.641 120.362Z" fill="#92E3A9" stroke="#263238" stroke-linecap="round" stroke-linejoin="round"/>
<path d="M555.471 59.6056C556.716 78.6568 554.751 97.7902 549.666 116.116C549.666 116.116 549.025 127.096 558.693 122.247C568.362 117.397 567.08 75.9475 565.78 58.9285C564.481 41.9095 552.265 46.6675 555.471 59.6056Z" fill="white" stroke="#263238" stroke-linecap="round" stroke-linejoin="round"/>
<path d="M519.395 27.599C519.395 27.599 534.21 23.5181 541.921 37.8287C549.631 52.1393 548.366 65.0591 559.248 66.4133C570.129 67.7675 570.857 54.8477 565.053 38.5058C559.248 22.1639 547.015 9.90283 530.242 8.54863C513.469 7.19442 505.222 21.4868 505.222 21.4868C505.222 21.4868 514.232 22.841 519.395 27.599Z" fill="#92E3A9" stroke="#263238" stroke-linecap="round" stroke-linejoin="round"/>
<path d="M518.096 282.226L473.617 389.116C473.617 389.116 352.431 412.906 341.48 412.906C330.529 412.906 308.558 421.068 304.088 423.886C299.617 426.704 255.797 447.951 264.235 449.268C269.433 450.092 282.879 442.278 282.879 442.278C282.879 442.278 261.602 453.258 263.525 456.57C265.448 459.882 291.248 446.359 291.248 446.359C291.248 446.359 267.666 460.999 272.5 461.822C276.901 462.646 282.221 459.992 286.743 456.57C290.687 454.013 294.935 452.019 299.375 450.641C299.375 450.641 288.979 457.961 287.748 461.291C286.518 464.622 290.33 462.646 294.194 461.291C301.425 457.998 308.415 454.144 315.108 449.762C317.672 447.713 325.418 443.632 330.581 438.874L340.891 429.34C340.891 429.34 409.853 431.371 441.389 430.017C472.924 428.662 488.449 425.259 500.059 412.998C511.668 400.737 544.538 323.126 552.266 302.026C559.993 280.926 554.847 268.665 547.067 254.446" fill="white"/>
<g style="mix-blend-mode:multiply" opacity="0.5">
<path d="M519.898 352.26C499.105 393.563 481.553 406.52 463.151 416.31C444.75 426.101 343.507 428.461 343.507 428.461L347.769 429.541C366.05 430.017 415.9 431.133 441.336 430.035C472.924 428.681 488.397 425.277 500.006 413.016C511.615 400.755 544.485 323.145 552.213 302.045C555.8 292.272 556.597 284.403 555.678 277.34L551.295 280.249C542.212 304.899 531.728 328.946 519.898 352.26Z" fill="#92E3A9"/>
</g>
<path d="M518.096 282.226L473.617 389.116C473.617 389.116 352.431 412.906 341.48 412.906C330.529 412.906 308.558 421.068 304.088 423.886C299.617 426.704 255.797 447.951 264.235 449.268C269.433 450.092 282.879 442.278 282.879 442.278C282.879 442.278 261.602 453.258 263.525 456.57C265.448 459.882 291.248 446.359 291.248 446.359C291.248 446.359 267.666 460.999 272.5 461.822C276.901 462.646 282.221 459.992 286.743 456.57C290.687 454.013 294.935 452.019 299.375 450.641C299.375 450.641 288.979 457.961 287.748 461.291C286.518 464.622 290.33 462.646 294.194 461.291C301.425 457.998 308.415 454.144 315.108 449.762C317.672 447.713 325.418 443.632 330.581 438.874L340.891 429.34C340.891 429.34 409.853 431.371 441.389 430.017C472.924 428.662 488.449 425.259 500.059 412.998C511.668 400.737 544.538 323.126 552.265 302.026C559.993 280.926 554.847 268.665 547.067 254.446" stroke="#263238" stroke-miterlimit="10"/>
<path d="M517.351 279.536L503.818 316.593C513.764 310.993 532.426 303.472 547.31 314.763C549.406 309.566 551.122 305.174 552.265 302.045C560.01 280.945 554.847 268.684 547.067 254.465" fill="#263238"/>
<path d="M517.351 279.536L503.818 316.593C513.764 310.993 532.426 303.472 547.31 314.763C549.406 309.566 551.122 305.174 552.265 302.045C560.01 280.945 554.847 268.684 547.067 254.465" stroke="#263238" stroke-linecap="round" stroke-linejoin="round"/>
<path d="M421.583 328.708C408.501 332.752 356.832 348.728 352.032 349.917C349.059 350.682 346.044 351.25 343.005 351.619C343.005 351.619 324.95 343.439 320.115 339.706C315.281 335.973 309.476 338.333 306.583 339.706C303.689 341.078 301.385 350.594 306.912 350.594C312.439 350.594 313.358 350.247 319.474 355.7C325.591 361.153 325.608 363.88 330.113 365.912C334.618 367.943 342.052 366.589 345.915 365.912C349.381 365.308 409.298 361.099 424.044 360.275C425.967 351.711 424.044 338.333 421.583 328.708Z" fill="white"/>
<g style="mix-blend-mode:multiply" opacity="0.5">
<path d="M423.645 338.553L345.916 366.003C349.381 365.399 409.298 361.19 424.044 360.367C425.361 354.401 424.876 346.258 423.645 338.553Z" fill="#92E3A9"/>
</g>
<path d="M421.583 328.708C408.501 332.752 356.832 348.728 352.032 349.917C349.059 350.682 346.044 351.25 343.005 351.619C343.005 351.619 324.95 343.439 320.115 339.706C315.281 335.973 309.476 338.333 306.583 339.706C303.689 341.078 301.385 350.594 306.912 350.594C312.439 350.594 313.358 350.247 319.474 355.7C325.591 361.153 325.608 363.88 330.113 365.912C334.618 367.943 342.052 366.589 345.915 365.912C349.381 365.308 409.298 361.099 424.044 360.275C425.967 351.711 424.044 338.333 421.583 328.708Z" stroke="#263238" stroke-linecap="round" stroke-linejoin="round"/>
<path d="M292.392 350.942C292.392 350.942 285.617 355.023 283.728 359.781C281.839 364.539 285.651 363.185 286.951 362.178C288.25 361.172 293.726 356.377 293.726 356.377L292.392 350.942Z" fill="white" stroke="#263238" stroke-linecap="round" stroke-linejoin="round"/>
<path d="M294.332 347.52C293.064 348.38 292.06 349.612 291.444 351.065C290.829 352.518 290.628 354.129 290.867 355.7C291.508 361.483 297.312 369.993 297.971 366.589C298.629 363.185 294.332 347.52 294.332 347.52Z" fill="white" stroke="#263238" stroke-linecap="round" stroke-linejoin="round"/>
<path d="M302.389 342.415C302.389 342.415 296.256 344.116 294.332 347.52C292.409 350.924 295.614 365.582 297.884 366.589C298.366 366.818 298.89 366.927 299.418 366.909C299.946 366.89 300.462 366.745 300.929 366.484C301.395 366.223 301.799 365.852 302.109 365.401C302.419 364.95 302.628 364.43 302.719 363.881C303.36 361.483 302.389 342.415 302.389 342.415Z" fill="white" stroke="#263238" stroke-linecap="round" stroke-linejoin="round"/>
<path d="M310.136 339.01C310.136 339.01 302.061 339.01 301.108 343.11C300.155 347.209 298.526 364.887 300.138 367.613C301.749 370.34 304.331 369.315 305.613 365.912C306.895 362.508 310.136 339.01 310.136 339.01Z" fill="white" stroke="#263238" stroke-linecap="round" stroke-linejoin="round"/>
<path d="M317.464 307.297L304.226 370.963L306.305 379.088C306.336 379.212 306.398 379.326 306.484 379.417C306.57 379.508 306.677 379.574 306.795 379.607C306.913 379.641 307.037 379.641 307.155 379.607C307.272 379.574 307.38 379.508 307.466 379.417L313.253 373.342L322.922 308.999L317.464 307.297Z" fill="#263238"/>
<path d="M330.443 358.683C330.443 358.683 323.026 361.758 317.222 364.484C311.417 367.211 305.613 368.565 306.254 372.317C306.895 376.068 309.477 374.696 313.67 373.341C319.423 371.222 325.37 369.738 331.413 368.913C339.47 367.888 345.916 360.056 345.916 360.056" fill="white"/>
<path d="M330.443 358.683C330.443 358.683 323.026 361.758 317.222 364.484C311.417 367.211 305.613 368.565 306.254 372.317C306.895 376.068 309.477 374.696 313.67 373.341C319.423 371.222 325.37 369.738 331.413 368.913C339.47 367.888 345.916 360.056 345.916 360.056" stroke="#263238" stroke-linecap="round" stroke-linejoin="round"/>
<path d="M304.4 371.951L305.752 377.953C305.818 378.243 305.955 378.509 306.149 378.725C306.343 378.941 306.587 379.099 306.857 379.184C307.127 379.269 307.414 379.278 307.688 379.21C307.962 379.142 308.215 378.999 308.42 378.795L311.591 375.611" stroke="white" stroke-width="0.5" stroke-linecap="round" stroke-linejoin="round"/>
<path d="M304.244 370.962L311.088 338.718" stroke="white" stroke-width="0.5" stroke-linecap="round" stroke-linejoin="round"/>
<path d="M67.4326 244.528L154.848 330.391" stroke="#263238" stroke-width="0.5" stroke-linecap="round" stroke-linejoin="round"/>
</svg>
