<svg width="533" height="585" viewBox="0 0 533 585" fill="none" xmlns="http://www.w3.org/2000/svg">
<path d="M14.8726 561.42H532.408" stroke="#263238" stroke-linecap="round" stroke-linejoin="round"/>
<path d="M329.067 293.83V99.52H341.097" stroke="#263238" stroke-linecap="round" stroke-linejoin="round"/>
<path d="M329.066 316.954V311.803" stroke="#263238" stroke-linecap="round" stroke-linejoin="round"/>
<path d="M372.039 99.52H496.186V335.072H329.067" stroke="#263238" stroke-linecap="round" stroke-linejoin="round"/>
<path d="M356.824 99.52H367.732" stroke="#263238" stroke-linecap="round" stroke-linejoin="round"/>
<path d="M489.9 105.793H335.353V328.799H489.9V105.793Z" stroke="#263238" stroke-linecap="round" stroke-linejoin="round"/>
<path d="M482.715 117.731V210.343H342.536V204.295" stroke="#263238" stroke-linecap="round" stroke-linejoin="round"/>
<path d="M342.536 190.138V112.369H482.715" stroke="#263238" stroke-linecap="round" stroke-linejoin="round"/>
<path d="M342.536 199.66V193.783" stroke="#263238" stroke-linecap="round" stroke-linejoin="round"/>
<path d="M459.037 217.289H489.899" stroke="#263238" stroke-linecap="round" stroke-linejoin="round"/>
<path d="M448.063 217.289H452.434" stroke="#263238" stroke-linecap="round" stroke-linejoin="round"/>
<path d="M335.353 217.289H442.861" stroke="#263238" stroke-linecap="round" stroke-linejoin="round"/>
<path d="M404.854 210.343V207.147H417.782V208.957H412.632V210.343" stroke="#263238" stroke-linecap="round" stroke-linejoin="round"/>
<path d="M335.616 300.697C335.616 300.697 337.768 302.322 339.274 312.147C339.274 312.147 341.915 296.458 345.005 296.221C348.095 295.983 347.514 306.415 347.514 306.415C347.514 306.415 348.042 301.278 350.499 301.516C352.955 301.754 350.499 312.081 350.499 312.081C350.499 312.081 353.457 303.972 356.256 304.157C359.056 304.342 354.408 318.842 354.408 318.842C354.408 318.842 361.592 313.639 364.497 316.201C367.402 318.763 362.886 325.154 362.886 325.154C362.886 325.154 373.186 322.923 374.771 328.971" stroke="#263238" stroke-linecap="round" stroke-linejoin="round"/>
<path d="M374.785 323.147C374.785 323.147 379.275 320.202 382.814 321.576C382.814 321.576 380.569 318.155 382.814 316.069C385.059 313.982 387.938 321.576 387.938 321.576C387.938 321.576 388.268 308.832 392.758 309.479C397.248 310.126 392.758 321.576 392.758 321.576C392.758 321.576 400.774 314.471 402.702 316.94C404.63 319.41 401.381 323.147 401.381 323.147C402.83 322.736 404.362 322.708 405.825 323.067C407.288 323.426 408.633 324.159 409.727 325.194C409.727 325.194 415.102 319.714 421.071 318.921C421.071 318.921 417.109 307.393 419.024 305.068C420.939 302.744 424.452 315.131 424.452 315.131C424.452 315.131 425.984 307.076 431.055 306.442C431.055 306.442 426.868 304.17 428.11 300.724C429.351 297.277 435.122 301.542 435.122 301.542C435.122 301.542 432.745 295.481 436.509 293.817C440.272 292.153 441.791 298.888 441.791 298.888C441.791 298.888 442.847 291.836 447.258 292.285C451.669 292.734 450.243 300.79 450.243 300.79C450.243 300.79 454.403 294.345 456.634 294.992C461.085 296.313 459.738 306.508 459.738 306.508C459.738 306.508 465.944 302.19 467.556 304.184C469.167 306.178 461.085 311.856 461.085 311.856C461.085 311.856 467.252 312.53 471.095 316.135" stroke="#263238" stroke-linecap="round" stroke-linejoin="round"/>
<path d="M489.899 303.074C489.899 303.074 489.186 296.603 482.715 296.26C476.244 295.917 484.498 310.456 484.498 310.456C484.498 310.456 479.149 306.032 477.235 307.393C475.32 308.753 482.715 316.254 482.715 316.254C482.715 316.254 479.163 312.965 475.425 313.982C471.688 314.999 477.552 325.419 477.552 325.419C472.022 324.311 466.284 324.986 461.163 327.347" stroke="#263238" stroke-linecap="round" stroke-linejoin="round"/>
<path d="M269.27 503.605V561.076" stroke="#263238" stroke-linecap="round" stroke-linejoin="round"/>
<path d="M269.27 484.8V497.107" stroke="#263238" stroke-linecap="round" stroke-linejoin="round"/>
<path d="M27.3389 561.42V454.321H269.269V477.827" stroke="#263238" stroke-linecap="round" stroke-linejoin="round"/>
<path d="M62.5847 466.034H41.5874V551.595" stroke="#263238" stroke-linecap="round" stroke-linejoin="round"/>
<path d="M255.02 561.076V466.034H74.7734" stroke="#263238" stroke-linecap="round" stroke-linejoin="round"/>
<path d="M244.957 443.228H238.288" stroke="#263238" stroke-linecap="round" stroke-linejoin="round"/>
<path d="M228.714 443.228H21.3301V454.241H275.278V443.228H249.21" stroke="#263238" stroke-linecap="round" stroke-linejoin="round"/>
<path d="M35.6318 372.656C35.6318 372.656 55.4406 374.227 56.3386 388.886C56.3386 388.886 36.1997 398.156 35.6318 372.656Z" stroke="#263238" stroke-linecap="round" stroke-linejoin="round"/>
<path d="M74.9453 376.301C74.9453 376.301 86.0514 361.286 103.998 368.985C103.998 368.985 93.0373 387.129 74.9453 376.301Z" stroke="#263238" stroke-linecap="round" stroke-linejoin="round"/>
<path d="M102.48 328.892C102.48 328.892 105.676 357.773 79.3828 349.823C79.3828 349.823 87.7289 328.588 102.48 328.892Z" stroke="#263238" stroke-linecap="round" stroke-linejoin="round"/>
<path d="M70.1917 312.807C70.1917 312.807 90.9909 324.032 75.6985 341.041C75.6985 341.041 61.1193 328.892 70.1917 312.807Z" stroke="#263238" stroke-linecap="round" stroke-linejoin="round"/>
<path d="M44.6118 338.624C44.6118 338.624 67.2202 336.353 67.2202 357.271C67.2202 357.271 44.6118 358.169 44.6118 338.624Z" stroke="#263238" stroke-linecap="round" stroke-linejoin="round"/>
<path d="M61.555 400.705C61.2249 393.679 61.2249 384.647 65.5168 375.099C75.4079 353.072 78.7226 334.517 73.5855 321.444" stroke="#263238" stroke-linecap="round" stroke-linejoin="round"/>
<path d="M52.0332 344.277C52.0332 344.277 65.5824 349.665 70.1912 363.623" stroke="#263238" stroke-linecap="round" stroke-linejoin="round"/>
<path d="M95.3622 340.447C95.3622 340.447 87.5312 351.117 74.2329 349.968" stroke="#263238" stroke-linecap="round" stroke-linejoin="round"/>
<path d="M95.3621 372.009C95.3621 372.009 73.665 378.255 64.9888 376.208" stroke="#263238" stroke-linecap="round" stroke-linejoin="round"/>
<path d="M42.103 379.259C42.103 379.259 51.8093 389.903 61.5552 389.731" stroke="#263238" stroke-linecap="round" stroke-linejoin="round"/>
<path d="M87.3459 400.705H40.2143C39.9096 400.705 39.6174 400.826 39.4019 401.041C39.1865 401.257 39.0654 401.549 39.0654 401.854V405.433C39.0654 405.583 39.0952 405.732 39.1531 405.87C39.211 406.009 39.2959 406.135 39.4027 406.24C39.5096 406.346 39.6363 406.429 39.7757 406.486C39.915 406.542 40.0641 406.57 40.2143 406.568H41.5349L45.7344 443.228H81.7598L85.9593 406.568H87.3459C87.4955 406.57 87.644 406.542 87.7826 406.485C87.9212 406.429 88.0471 406.345 88.1529 406.24C88.2587 406.134 88.3423 406.008 88.3987 405.869C88.4552 405.731 88.4834 405.582 88.4816 405.433V401.854C88.4833 401.704 88.4552 401.554 88.399 401.415C88.3427 401.276 88.2593 401.149 88.1536 401.042C88.048 400.935 87.9222 400.85 87.7836 400.793C87.6449 400.735 87.4961 400.705 87.3459 400.705V400.705Z" stroke="#263238" stroke-miterlimit="10"/>
<path d="M44.6118 406.568H72.0271" stroke="#263238" stroke-linecap="round" stroke-linejoin="round"/>
<path d="M77.1904 406.568H81.3106" stroke="#263238" stroke-linecap="round" stroke-linejoin="round"/>
<path d="M377.582 254.596L372.3 283.305L329.223 309.479L335.178 320.414C335.178 320.414 384.978 305.227 386.193 301.675C387.407 298.122 398.883 260.499 398.883 260.499L377.582 254.596Z" fill="#263238"/>
<path d="M396.454 206.051L393.575 240.862L392.056 259.125C383.75 263.166 375.628 257.092 375.126 256.695C377.385 250.066 380.013 212.654 396.454 206.051Z" fill="#999999" stroke="#263238" stroke-linecap="round" stroke-linejoin="round"/>
<path d="M393.522 240.862L392.003 259.126C383.697 263.166 375.575 257.092 375.073 256.696C375.43 256.854 379.801 258.703 382.64 256.696C381.647 255.623 380.762 254.456 379.999 253.209C379.827 252.523 382.64 252.338 382.64 252.338C382.64 252.338 380.791 237.534 385.717 231.208C387.645 228.805 390.656 233.823 393.522 240.862Z" fill="#263238"/>
<path d="M426.286 528.418L427.606 532.301C425.605 535.605 423.363 538.756 420.898 541.73C420.898 541.73 419.577 541.307 417.411 543.222C416.077 544.553 415.254 546.311 415.087 548.188C415.087 548.188 404.998 560.284 392.201 560.456C379.405 560.627 383.261 554.183 383.261 554.183L426.286 528.418Z" fill="#92E3A9" stroke="#263238" stroke-linecap="round" stroke-linejoin="round"/>
<path d="M414.255 497.636C414.255 497.636 397.087 491.31 393.733 503.961C393.733 503.961 396.797 517.893 394.961 525.513C393.125 533.133 383.881 547.686 383.313 550.446C382.191 555.86 383.036 556.23 383.036 556.23C383.036 556.23 389.758 560.112 398.791 555.953C407.823 551.793 423.459 533.886 425.902 530.201C428.345 526.517 418.243 511.99 418.243 511.99L414.255 497.636Z" fill="white"/>
<path opacity="0.4" d="M414.255 497.636C414.255 497.636 397.087 491.31 393.733 503.961C393.733 503.961 396.797 517.893 394.961 525.513C393.125 533.133 383.881 547.686 383.313 550.446C382.191 555.86 383.036 556.23 383.036 556.23C383.036 556.23 389.758 560.112 398.791 555.953C407.823 551.793 423.459 533.886 425.902 530.201C428.345 526.517 418.243 511.99 418.243 511.99L414.255 497.636Z" fill="#92E3A9"/>
<path d="M414.255 497.636C414.255 497.636 397.087 491.31 393.733 503.961C393.733 503.961 396.797 517.893 394.961 525.513C393.125 533.133 383.881 547.686 383.313 550.446C382.191 555.86 383.036 556.23 383.036 556.23C383.036 556.23 389.758 560.112 398.791 555.953C407.823 551.793 423.459 533.886 425.902 530.201C428.345 526.517 418.243 511.99 418.243 511.99L414.255 497.636Z" stroke="#263238" stroke-linecap="round" stroke-linejoin="round"/>
<path d="M405.473 515.53C406.967 524.052 405.45 532.83 401.181 540.356" stroke="#263238" stroke-linecap="round" stroke-linejoin="round"/>
<path d="M401.181 543.684C400.542 545.292 399.551 546.737 398.28 547.912C397.009 549.086 395.492 549.961 393.839 550.472C390.378 551.398 386.735 551.398 383.274 550.472L387.394 542.126C391.768 543.869 396.529 544.407 401.181 543.684Z" fill="#92E3A9" stroke="#263238" stroke-linecap="round" stroke-linejoin="round"/>
<path d="M403.611 538.627C403.611 538.627 394.631 539.168 389.943 537.306" stroke="#263238" stroke-linecap="round" stroke-linejoin="round"/>
<path d="M405.275 533.674C405.275 533.674 396.877 534.995 392.188 532.354" stroke="#263238" stroke-linecap="round" stroke-linejoin="round"/>
<path d="M406.702 528.168C406.702 528.168 399.346 529.237 394.539 526.966" stroke="#263238" stroke-linecap="round" stroke-linejoin="round"/>
<path d="M407.52 521.934C407.52 521.934 399.332 524.496 395.463 521.934" stroke="#263238" stroke-linecap="round" stroke-linejoin="round"/>
<path d="M408.749 506.536L410.175 515.529C410.175 515.529 399.346 522.661 392.188 513.747V504.357C392.188 504.357 394.882 510.67 408.749 506.536Z" fill="#92E3A9" stroke="#263238" stroke-linecap="round" stroke-linejoin="round"/>
<path d="M399.345 304.659C388.371 339.43 354.313 395.198 357.76 409.474C359.648 417.265 370.886 461.412 379.682 480.785C383.023 488.194 390.246 493.146 390.246 493.146L395.463 504.331C408.18 509.864 412.736 498.613 412.736 498.613L410.174 485.935C416.988 473.548 414.136 473.548 405.274 409.342C404.231 401.775 421.782 378.387 421.782 378.387L430.788 437.232L432.254 485.434L436.929 500.33C436.929 500.33 438.091 514.315 437.985 515.16H458.89L461.161 499.788C461.161 499.788 470.868 490.637 470.868 480.072C470.868 469.507 468.781 415.694 470.868 400.018C472.954 384.343 465.982 311.262 465.982 311.262L399.345 304.659Z" fill="#263238"/>
<path d="M257.232 273.677L286.285 276.292C286.943 276.351 287.551 276.67 287.975 277.177C288.399 277.685 288.604 278.34 288.544 278.998L286.678 299.731L252.66 296.67L254.526 275.936C254.585 275.278 254.904 274.67 255.411 274.246C255.919 273.823 256.574 273.618 257.232 273.677Z" fill="#92E3A9"/>
<path opacity="0.3" d="M257.233 273.677L286.285 276.292C286.944 276.351 287.552 276.67 287.976 277.177C288.399 277.685 288.604 278.34 288.545 278.998L286.679 299.731L252.661 296.67L254.527 275.936C254.586 275.278 254.904 274.67 255.412 274.246C255.919 273.823 256.574 273.618 257.233 273.677Z" fill="black" fill-opacity="0.7"/>
<path opacity="0.3" d="M286.742 275.932L278.413 275.217L276.982 291.874L285.311 292.589L286.742 275.932Z" fill="white" fill-opacity="0.7"/>
<path d="M257.232 273.677L286.285 276.292C286.943 276.351 287.551 276.67 287.975 277.177C288.399 277.685 288.604 278.34 288.544 278.998L286.678 299.731L252.66 296.67L254.526 275.936C254.585 275.278 254.904 274.67 255.411 274.246C255.919 273.823 256.574 273.618 257.232 273.677V273.677Z" stroke="#263238" stroke-width="1.00404" stroke-linecap="round" stroke-linejoin="round"/>
<path d="M307.379 275.513L336.325 277.999C336.981 278.056 337.588 278.37 338.012 278.874C338.436 279.378 338.642 280.029 338.586 280.685L336.812 301.342L302.918 298.431L304.693 277.774C304.749 277.118 305.064 276.511 305.568 276.087C306.071 275.663 306.723 275.456 307.379 275.513Z" fill="#92E3A9"/>
<path opacity="0.3" d="M307.379 275.513L336.326 277.999C336.982 278.056 337.588 278.37 338.012 278.874C338.436 279.378 338.643 280.029 338.587 280.685L336.812 301.342L302.919 298.431L304.693 277.774C304.75 277.118 305.064 276.511 305.568 276.087C306.072 275.663 306.723 275.456 307.379 275.513Z" fill="black" fill-opacity="0.7"/>
<path opacity="0.3" d="M336.168 280.186L331.142 279.755L329.711 296.412L334.737 296.844L336.168 280.186Z" fill="white" fill-opacity="0.7"/>
<path d="M307.379 275.513L336.325 277.999C336.981 278.056 337.588 278.37 338.012 278.874C338.436 279.378 338.642 280.029 338.586 280.685L336.812 301.342L302.918 298.431L304.693 277.774C304.749 277.118 305.064 276.511 305.568 276.087C306.071 275.663 306.723 275.456 307.379 275.513Z" stroke="#263238" stroke-linecap="round" stroke-linejoin="round"/>
<path d="M296.865 274.602L325.811 277.089C326.467 277.145 327.074 277.46 327.498 277.963C327.922 278.467 328.128 279.119 328.072 279.775L326.297 300.432L292.404 297.52L294.179 276.863C294.235 276.207 294.55 275.6 295.053 275.176C295.557 274.752 296.209 274.546 296.865 274.602Z" fill="#92E3A9" stroke="#263238" stroke-linecap="round" stroke-linejoin="round"/>
<path d="M346.852 278.905L375.798 281.392C376.454 281.448 377.06 281.763 377.485 282.266C377.909 282.77 378.115 283.422 378.059 284.078L376.285 304.722L342.392 301.81L344.167 281.153C344.226 280.5 344.542 279.896 345.045 279.475C345.548 279.054 346.198 278.849 346.852 278.905Z" fill="#92E3A9" stroke="#263238" stroke-linecap="round" stroke-linejoin="round"/>
<path opacity="0.3" d="M326.215 279.325L317.886 278.609L316.455 295.266L324.784 295.982L326.215 279.325Z" fill="white" fill-opacity="0.7"/>
<path opacity="0.3" d="M375.653 283.567L367.325 282.852L365.894 299.509L374.222 300.224L375.653 283.567Z" fill="white" fill-opacity="0.7"/>
<path d="M391.422 301.212L383.248 396.202L230.206 382.996L238.38 288.02C238.446 287.234 238.667 286.469 239.03 285.768C239.393 285.068 239.89 284.446 240.494 283.938C241.097 283.43 241.795 283.046 242.548 282.808C243.3 282.571 244.091 282.484 244.877 282.553L385.942 294.675C386.733 294.74 387.503 294.961 388.207 295.326C388.912 295.69 389.538 296.191 390.047 296.799C390.557 297.407 390.941 298.11 391.177 298.868C391.413 299.625 391.496 300.422 391.422 301.212Z" fill="#92E3A9"/>
<path opacity="0.3" d="M391.422 301.212L383.248 396.202L230.206 382.996L238.38 288.02C238.446 287.234 238.667 286.469 239.03 285.768C239.393 285.068 239.89 284.446 240.494 283.938C241.097 283.43 241.795 283.046 242.548 282.808C243.3 282.571 244.091 282.484 244.877 282.553L385.942 294.675C386.733 294.74 387.503 294.961 388.207 295.326C388.912 295.69 389.538 296.191 390.047 296.799C390.557 297.407 390.941 298.11 391.177 298.868C391.413 299.625 391.496 300.422 391.422 301.212Z" fill="black" fill-opacity="0.7"/>
<path d="M391.422 301.212L383.248 396.202L230.206 382.996L238.38 288.02C238.446 287.234 238.667 286.469 239.03 285.768C239.393 285.068 239.89 284.446 240.494 283.938C241.097 283.43 241.795 283.046 242.548 282.808C243.3 282.571 244.091 282.484 244.877 282.553L385.942 294.675C386.733 294.74 387.503 294.961 388.207 295.326C388.912 295.69 389.538 296.191 390.047 296.799C390.557 297.407 390.941 298.11 391.177 298.868C391.413 299.625 391.496 300.422 391.422 301.212V301.212Z" stroke="#263238" stroke-linecap="round" stroke-linejoin="round"/>
<path d="M391.422 301.212L383.248 396.202L269.678 386.43L277.865 291.453C277.932 290.667 278.153 289.902 278.516 289.202C278.878 288.501 279.376 287.879 279.979 287.371C280.583 286.863 281.281 286.48 282.033 286.242C282.785 286.004 283.577 285.917 284.363 285.986L385.955 294.715C386.741 294.782 387.506 295.003 388.207 295.365C388.907 295.728 389.529 296.226 390.037 296.829C390.545 297.433 390.929 298.131 391.166 298.883C391.404 299.635 391.491 300.427 391.422 301.212Z" fill="#92E3A9" stroke="#263238" stroke-linecap="round" stroke-linejoin="round"/>
<path opacity="0.3" d="M383.446 303.933L286.37 295.587C285.723 295.529 285.124 295.221 284.702 294.727C284.279 294.233 284.068 293.594 284.112 292.945C284.169 292.298 284.478 291.699 284.971 291.277C285.465 290.855 286.105 290.643 286.753 290.687L383.829 299.033C384.476 299.091 385.075 299.399 385.497 299.893C385.919 300.387 386.131 301.026 386.087 301.675C386.03 302.322 385.721 302.921 385.227 303.343C384.734 303.765 384.094 303.977 383.446 303.933Z" fill="white" fill-opacity="0.7"/>
<path d="M459.577 515.701C459.577 515.701 452.261 510.485 437.128 511.528C437.128 511.528 436.018 529.686 433.958 534.968C431.898 540.251 421.043 549.402 419.022 550.974C417.002 552.545 417.002 558.026 417.002 558.026H462.985C462.395 550.166 461.171 542.367 459.327 534.704L459.577 515.701Z" fill="white"/>
<path opacity="0.4" d="M459.577 515.701C459.577 515.701 452.261 510.485 437.128 511.528C437.128 511.528 436.018 529.686 433.958 534.968C431.898 540.251 421.043 549.402 419.022 550.974C417.002 552.545 417.002 558.026 417.002 558.026H462.985C462.395 550.166 461.171 542.367 459.327 534.704L459.577 515.701Z" fill="#92E3A9"/>
<path d="M459.577 515.701C459.577 515.701 452.261 510.485 437.128 511.528C437.128 511.528 436.018 529.686 433.958 534.968C431.898 540.251 421.043 549.402 419.022 550.974C417.002 552.545 417.002 558.026 417.002 558.026H462.985C462.395 550.166 461.171 542.367 459.327 534.704L459.577 515.701Z" stroke="#263238" stroke-linecap="round" stroke-linejoin="round"/>
<path d="M450.083 518.052C450.083 518.052 449 534.77 446.398 539.181C445.009 541.605 443.294 543.827 441.301 545.784" stroke="#263238" stroke-linecap="round" stroke-linejoin="round"/>
<path d="M440.033 548.095C440.033 548.095 437.722 550.974 435.16 551.357C432.598 551.74 419.062 550.974 419.062 550.974L424.582 546.193C424.582 546.193 435.807 544.305 440.033 548.095Z" fill="#92E3A9" stroke="#263238" stroke-linecap="round" stroke-linejoin="round"/>
<path d="M444.813 544.173C444.813 544.173 435.015 538.547 428.029 542.852" stroke="#263238" stroke-linecap="round" stroke-linejoin="round"/>
<path d="M447.177 540.356C447.177 540.356 440.336 535.008 432.268 537.94" stroke="#263238" stroke-linecap="round" stroke-linejoin="round"/>
<path d="M450.082 534.533C450.082 534.533 442.713 528.801 434.948 532.446" stroke="#263238" stroke-linecap="round" stroke-linejoin="round"/>
<path d="M451.086 527.256C451.086 527.256 442.146 522.449 435.648 526.094" stroke="#263238" stroke-linecap="round" stroke-linejoin="round"/>
<path d="M462.971 558.026V561.42H457.689C457.689 561.42 453.159 558.779 448.854 561.42H424.054C421.433 561.411 418.846 560.83 416.474 559.716L416.989 558.026H462.971Z" fill="#92E3A9" stroke="#263238" stroke-linecap="round" stroke-linejoin="round"/>
<path d="M456.382 514.632L455.206 522.04C455.206 522.04 441.406 517.563 433.787 520.469V511.357C433.787 511.357 447.956 506.391 456.382 514.632Z" fill="#92E3A9" stroke="#263238" stroke-linecap="round" stroke-linejoin="round"/>
<path d="M471.305 330.054C471.305 330.054 441.975 335.798 413.199 326.475C406.647 324.387 400.379 321.495 394.539 317.865C394.539 317.865 394.618 316.016 394.671 312.992C394.909 301.186 394.843 271.486 388.623 264.13C384.661 259.495 381.558 230.839 389.204 216.352L412.592 197.547C444.972 203.872 451.813 212.443 457.161 230.931C458.152 234.312 459.076 238.023 460.106 242.116C461.229 246.58 462.285 252.034 463.289 257.963C468.148 287.492 471.305 330.054 471.305 330.054Z" fill="#999999"/>
<path opacity="0.2" d="M463.289 257.963L450.083 316.954C450.083 316.954 431 322.236 413.212 326.475C406.656 324.388 400.383 321.496 394.539 317.865C394.539 317.865 394.618 316.016 394.671 312.992C410.65 304.818 433.972 292.8 433.787 292.232C433.483 291.348 433.787 260.538 433.787 260.538C433.787 260.538 454.916 255.639 457.161 230.891C458.151 234.272 459.076 237.983 460.106 242.077C461.228 246.554 462.285 251.968 463.289 257.963Z" fill="black"/>
<path d="M471.305 330.054C471.305 330.054 441.975 335.798 413.199 326.475C406.647 324.387 400.379 321.495 394.539 317.865C394.539 317.865 394.618 316.016 394.671 312.992C394.909 301.186 394.843 271.486 388.623 264.13C384.661 259.495 381.558 230.839 389.204 216.352L412.592 197.547C444.972 203.872 451.813 212.443 457.161 230.931C458.152 234.312 459.076 238.023 460.106 242.116C461.229 246.58 462.285 252.034 463.289 257.963C468.148 287.492 471.305 330.054 471.305 330.054Z" stroke="#263238" stroke-linecap="round" stroke-linejoin="round"/>
<path d="M413.621 172.865C413.621 172.865 403.294 187.656 417.028 199.197C417.028 199.197 400.362 217.897 394.882 215.322C392.57 214.239 394.882 207.491 394.882 207.491L385.215 189.61L413.621 172.865Z" fill="white" stroke="#263238" stroke-linecap="round" stroke-linejoin="round"/>
<path d="M410.254 180.524C413.476 166.434 411.931 145.45 392.188 147.312C378.348 148.632 368.484 156.292 372.379 174.859C374.004 182.69 375.337 193.783 382.521 203.793C384.515 206.566 405.381 196.754 404.113 188.818" fill="white"/>
<path d="M410.254 180.524C413.476 166.434 411.931 145.45 392.188 147.312C378.348 148.632 368.484 156.292 372.379 174.859C374.004 182.69 375.337 193.783 382.521 203.793C384.515 206.566 405.381 196.754 404.113 188.818" stroke="#263238" stroke-linecap="round" stroke-linejoin="round"/>
<path d="M382.006 171.716C383.399 171.177 384.898 170.972 386.384 171.116C387.87 171.261 389.301 171.751 390.564 172.548" stroke="#263238" stroke-linecap="round" stroke-linejoin="round"/>
<path d="M372.076 173.446C372.329 172.905 372.769 172.474 373.315 172.232C373.861 171.989 374.476 171.951 375.047 172.125" stroke="#263238" stroke-linecap="round" stroke-linejoin="round"/>
<path d="M377.014 176.378C377.014 176.378 372.947 183.786 372.934 184.843C372.92 185.899 377.939 186.256 377.939 186.256" fill="white"/>
<path d="M377.014 176.378C377.014 176.378 372.947 183.786 372.934 184.843C372.92 185.899 377.939 186.256 377.939 186.256" stroke="#263238" stroke-linecap="round" stroke-linejoin="round"/>
<path d="M385.757 177.883C385.757 178.689 385.4 179.349 384.898 179.375C384.397 179.402 383.974 178.742 383.948 177.936C383.921 177.13 384.304 176.47 384.806 176.457C385.308 176.444 385.73 177.104 385.757 177.883Z" fill="#263238"/>
<path d="M380.012 191.644C380.012 191.644 387.817 190.178 389.256 187.431" stroke="#263238" stroke-linecap="round" stroke-linejoin="round"/>
<path d="M372.023 162.036L378.098 160.267C378.098 160.267 386.616 156.305 388.425 156.86C390.234 157.414 393.905 163.053 393.786 166.275C393.786 166.275 399.518 171.32 400.244 178.636L401.987 177.844C401.987 177.844 401.895 171.241 405.645 171.412C409.396 171.584 411.086 176.074 410.835 177.487C410.584 178.9 406.477 184.763 406.477 184.763C406.477 184.763 415.88 183.364 416.183 164.955C416.487 146.546 396.309 143.548 386.497 144.301C381.529 144.777 376.537 144.962 371.548 144.855L372.102 150.138L368.141 151.181L371.125 154.839L367.85 156.331L372.023 162.036Z" fill="#263238"/>
<path d="M406.041 362.765C406.041 362.765 429.944 369.09 436.414 386.892" stroke="white" stroke-linecap="round" stroke-linejoin="round"/>
<path d="M416.988 372.339C416.988 372.339 404.073 393.851 384.304 405.023" stroke="white" stroke-linecap="round" stroke-linejoin="round"/>
<path d="M398.83 493.317C398.83 493.317 406.173 491.667 408.18 488.814" stroke="white" stroke-linecap="round" stroke-linejoin="round"/>
<path d="M439.716 496.051C439.716 496.051 446.9 492.327 454.057 496.051" stroke="white" stroke-linecap="round" stroke-linejoin="round"/>
<path d="M462.97 395.898C462.97 395.898 450.914 427.13 444.812 430.022" stroke="white" stroke-linecap="round" stroke-linejoin="round"/>
<path d="M410.175 346.984C410.505 350.378 424.701 366.106 436.415 372.339" stroke="white" stroke-linecap="round" stroke-linejoin="round"/>
<path d="M422.284 333.712C423.993 337.923 424.348 342.561 423.301 346.984C422.162 350.801 422.162 354.867 423.301 358.684" stroke="white" stroke-linecap="round" stroke-linejoin="round"/>
<path d="M396.454 268.766C396.454 268.766 418.679 297.528 442.568 306.97" stroke="#263238" stroke-linecap="round" stroke-linejoin="round"/>
<path d="M419.458 222.268C419.458 222.268 419.379 241.826 433.483 250.647" stroke="#263238" stroke-linecap="round" stroke-linejoin="round"/>
<path d="M427.394 250.806C424.41 253.737 427.659 290.529 427.659 290.529C427.659 290.529 410.319 297.317 404.892 301.688C399.464 306.059 373.752 316.095 373.752 316.095C373.752 316.095 369.791 329.592 374.73 330.054C379.669 330.516 430.815 313.084 442.515 306.97C442.515 306.97 450.135 262.07 450.082 250.647" fill="white"/>
<path d="M427.394 250.806C424.41 253.737 427.659 290.529 427.659 290.529C427.659 290.529 410.319 297.317 404.892 301.688C399.464 306.059 373.752 316.095 373.752 316.095C373.752 316.095 369.791 329.592 374.73 330.054C379.669 330.516 430.815 313.084 442.515 306.97C442.515 306.97 450.135 262.07 450.082 250.647" stroke="#263238" stroke-linecap="round" stroke-linejoin="round"/>
<path d="M375.787 315.29C373.41 314.841 369.184 313.282 366.966 313.797C364.747 314.313 360.693 316.756 356.52 317.759C352.347 318.763 354.077 320.4 356.52 320.889C358.308 321.187 360.133 321.187 361.921 320.889L358.527 324.204C356.584 325.256 354.577 326.186 352.518 326.99C351.29 326.99 346.946 328.165 347.236 330.014C347.527 331.863 350.023 331.652 352.809 331.757C352.809 331.757 348.372 332.642 348.847 335.164C349.138 336.894 354.13 335.336 356.678 335.336C356.678 335.336 354.592 337.608 356.15 338.307C357.708 339.007 361.168 337.264 361.168 337.264C361.168 337.264 361.036 339.139 362.594 339.324C364.153 339.509 368.075 338.004 370.742 336.393C373.369 334.7 375.884 332.838 378.27 330.82C379.28 329.897 380.435 329.147 381.69 328.601" fill="white"/>
<path d="M375.787 315.29C373.41 314.841 369.184 313.282 366.966 313.797C364.747 314.313 360.693 316.756 356.52 317.759C352.347 318.763 354.077 320.4 356.52 320.889C358.308 321.187 360.133 321.187 361.921 320.889L358.527 324.204C356.584 325.256 354.577 326.186 352.518 326.99C351.29 326.99 346.946 328.165 347.236 330.014C347.527 331.863 350.023 331.652 352.809 331.757C352.809 331.757 348.372 332.642 348.847 335.164C349.138 336.894 354.13 335.336 356.678 335.336C356.678 335.336 354.592 337.608 356.15 338.307C357.708 339.007 361.168 337.264 361.168 337.264C361.168 337.264 361.036 339.139 362.594 339.324C364.153 339.509 368.075 338.004 370.742 336.393C373.369 334.7 375.884 332.838 378.27 330.82C379.28 329.897 380.435 329.147 381.69 328.601" stroke="#263238" stroke-linecap="round" stroke-linejoin="round"/>
<path d="M352.875 331.81C354.101 331.744 355.323 331.603 356.533 331.388C357.576 331.124 358.619 330.78 358.619 330.78" stroke="#263238" stroke-linecap="round" stroke-linejoin="round"/>
<path d="M356.691 335.389C358.287 335.165 359.824 334.636 361.221 333.831" stroke="#263238" stroke-linecap="round" stroke-linejoin="round"/>
<path d="M361.181 337.317C362.361 337.168 363.491 336.748 364.482 336.089" stroke="#263238" stroke-linecap="round" stroke-linejoin="round"/>
<path d="M358.949 325.207C358.949 325.207 357.998 327.386 358.949 328.601C359.9 329.816 361.049 329.922 361.22 331.242C361.392 332.563 363.663 332.563 364.482 333.421C365.301 334.28 365.922 335.93 368.536 336.062" stroke="#263238" stroke-linecap="round" stroke-linejoin="round"/>
<path d="M426.286 212.654C417.292 233.004 426.286 261.238 426.286 261.238C426.286 261.238 448.049 268.634 450.056 265.451C452.063 262.268 455.734 246.659 456.355 239.449" fill="#999999"/>
<path d="M426.286 212.654C417.292 233.004 426.286 261.238 426.286 261.238C426.286 261.238 448.049 268.634 450.056 265.451C452.063 262.268 455.734 246.659 456.355 239.449" stroke="#263238" stroke-linecap="round" stroke-linejoin="round"/>
<path d="M450.083 241.707C450.083 241.707 440.839 254.424 433.483 254.596" stroke="#263238" stroke-linecap="round" stroke-linejoin="round"/>
<path d="M119.674 561.42C119.674 561.42 117.416 552.796 120.057 549.601C124.785 543.869 119.476 539.036 124.23 537.068L126.224 539.379C126.607 537.042 125.498 529.897 134.319 528.973C144.99 527.851 145.188 535.576 145.769 538.217L145.584 534.638C150.14 534.638 147.776 539.181 154.669 546.603C156.477 548.607 157.852 550.961 158.711 553.519C159.57 556.077 159.893 558.784 159.661 561.473L119.674 561.42Z" fill="#263238"/>
<path d="M201.008 561.42C196.716 559.505 200.652 543.315 200.652 543.315C200.652 543.315 194.881 539.445 200.652 535.391C202.884 537.282 205.59 538.528 208.478 538.994C211.367 539.459 214.327 539.127 217.04 538.032C217.04 538.032 218.163 527.204 224.964 528.59C224.964 528.59 226.707 535.457 230.682 539.379C241.445 549.944 255.35 551.265 257.674 556.336C258.374 557.867 257.529 561.367 257.529 561.367L201.008 561.42Z" fill="#263238"/>
<path d="M182.666 303.22L187.948 314.418C187.948 314.418 209.791 359.556 223.168 411.243C223.485 412.471 230.405 436.955 224.858 497.926L228.028 508.623L224.568 526.292C224.568 526.292 229.771 533.806 229.586 536.263C229.586 536.263 216.75 538.653 212.419 540.951C209.091 542.747 199.094 552.612 199.094 552.612C196.255 552.031 196.004 540.568 196.004 540.568C196.004 540.568 190.074 438.791 188.371 434.406C186.667 430.022 176.261 411.111 160.018 367.836C160.018 367.836 159.648 428.279 155.317 443.571C151.447 457.173 156.03 495.245 156.03 495.245L153.389 537.623C153.389 537.623 162.527 547.118 155.118 549.667C155.118 549.667 150.166 540.145 136.063 537.979C128.892 536.87 119.965 549.601 119.965 549.601C116.822 548.597 121.285 532.605 121.285 532.605C111.288 457.173 118.644 470.828 116.663 433.957C115.343 410.292 108.674 309.057 116.544 300.829L182.666 303.22Z" fill="#BFBFBF"/>
<path opacity="0.2" d="M112.873 338.083C148.186 340.856 178.757 329.301 192.029 323.266C189.507 317.614 187.961 314.418 187.961 314.418L182.679 303.233L116.65 300.829C113.85 303.801 112.86 318.895 112.873 338.083Z" fill="black"/>
<path opacity="0.2" d="M160.375 368.615C176.446 411.336 186.787 430.035 188.451 434.393C189.415 436.928 191.778 471.488 193.627 500.488C195.74 474.076 197.919 446.252 198.104 440.798C198.5 429.916 190.643 415.007 189.467 411.151C188.292 407.295 190.946 403.122 190.946 403.122L176.816 385.294C177.292 379.245 169.804 352.847 169.804 352.847C165.354 357.06 161.392 366.026 160.375 368.615Z" fill="black"/>
<path d="M182.666 303.22L187.948 314.418C187.948 314.418 209.791 359.556 223.168 411.243C223.485 412.471 230.405 436.955 224.858 497.926L228.028 508.623L224.568 526.292C224.568 526.292 229.771 533.806 229.586 536.263C229.586 536.263 216.75 538.653 212.419 540.951C209.091 542.747 199.094 552.612 199.094 552.612C196.255 552.03 196.004 540.568 196.004 540.568C196.004 540.568 190.074 438.791 188.371 434.406C186.667 430.022 176.261 411.111 160.018 367.836C160.018 367.836 159.648 428.279 155.317 443.571C151.447 457.173 156.03 495.245 156.03 495.245L153.389 537.623C153.389 537.623 162.527 547.118 155.118 549.667C155.118 549.667 150.166 540.145 136.063 537.979C128.892 536.87 119.965 549.601 119.965 549.601C116.822 548.597 121.285 532.605 121.285 532.605C111.288 457.173 118.644 470.828 116.663 433.957C115.343 410.292 108.674 309.057 116.544 300.829L182.666 303.22Z" stroke="#263238" stroke-linecap="round" stroke-linejoin="round"/>
<path d="M160.071 367.836C160.071 367.836 168.14 352.266 175.02 347.921" stroke="#263238" stroke-linecap="round" stroke-linejoin="round"/>
<path d="M178.057 342.877C178.057 342.877 153.547 350.338 145.042 351.777" stroke="#263238" stroke-linecap="round" stroke-linejoin="round"/>
<path d="M165.512 317.865C166.568 338.268 173.765 341.741 166.832 346.191C166.832 346.191 167.03 355.739 163.57 361.787" stroke="#263238" stroke-linecap="round" stroke-linejoin="round"/>
<path d="M122.566 310.06C122.566 310.06 125.458 341.424 115.804 347.327" stroke="#263238" stroke-linecap="round" stroke-linejoin="round"/>
<path d="M115.805 320.176C115.805 320.176 115.078 341.054 115.805 357.878C115.805 357.878 118.221 428.992 120.638 437.919C123.055 446.846 116.914 460.369 117.442 498.956" stroke="#263238" stroke-linecap="round" stroke-linejoin="round"/>
<path d="M138.942 529.158C136.656 528.661 134.269 528.978 132.193 530.056" stroke="#263238" stroke-linecap="round" stroke-linejoin="round"/>
<path d="M153.468 537.623C150.44 534.676 146.929 532.268 143.088 530.505" stroke="#263238" stroke-linecap="round" stroke-linejoin="round"/>
<path d="M149.507 372.761C144.092 378.836 135.508 390.286 126.713 391.25" stroke="#263238" stroke-linecap="round" stroke-linejoin="round"/>
<path d="M157.786 362.884C156.122 364.983 154.405 367.043 152.662 369.09" stroke="#263238" stroke-linecap="round" stroke-linejoin="round"/>
<path d="M150.074 433.957C150.074 433.957 137.766 450.715 131.018 451.679" stroke="#263238" stroke-linecap="round" stroke-linejoin="round"/>
<path d="M164.547 364.812C164.547 364.812 186.469 425.862 194.089 431.884C194.089 431.884 194.947 476.784 195.198 492.459C195.449 508.134 199.054 528.973 199.054 528.973" stroke="#263238" stroke-linecap="round" stroke-linejoin="round"/>
<path d="M222.455 528.524C222.455 528.524 214.016 531.443 209.909 533.305C207.387 534.535 205.411 536.657 204.363 539.26" stroke="#263238" stroke-linecap="round" stroke-linejoin="round"/>
<path d="M201.102 409.87C189.335 402.488 173.819 393.257 167.559 380.249" stroke="#263238" stroke-linecap="round" stroke-linejoin="round"/>
<path d="M211.362 415.958C209.13 414.73 206.938 413.449 204.759 412.128" stroke="#263238" stroke-linecap="round" stroke-linejoin="round"/>
<path d="M174.28 326.119C167.954 326.026 161.074 325.194 155.62 321.615" stroke="#263238" stroke-linecap="round" stroke-linejoin="round"/>
<path d="M184.329 325.524C182.52 325.775 180.698 325.934 178.875 326.026" stroke="#263238" stroke-linecap="round" stroke-linejoin="round"/>
<path d="M196.07 185.331C191.236 178.015 166.607 176.153 150.8 176.153C134.993 176.153 115.805 173.512 107.142 191.34C100.539 204.955 115.752 276.953 115.752 276.953L112.028 308.04C140.658 317.02 189.704 315.039 189.704 315.039L183.101 286.937C183.101 286.937 200.903 192.634 196.07 185.331Z" fill="#263238"/>
<path d="M141.411 158.075C141.411 158.075 143.537 175.018 137.092 178.676C137.092 178.676 140.315 191.102 151.619 191.881C162.923 192.661 167.915 180.524 167.915 180.524L141.411 158.075Z" fill="white" stroke="#263238" stroke-linecap="round" stroke-linejoin="round"/>
<path d="M201.317 114.572L230.247 111.903C230.903 111.843 231.556 112.045 232.062 112.466C232.568 112.887 232.887 113.492 232.947 114.148L234.852 134.793L201.03 137.913L199.125 117.267C199.066 116.621 199.262 115.976 199.671 115.472C200.081 114.969 200.672 114.645 201.317 114.572Z" fill="#92E3A9"/>
<path opacity="0.3" d="M201.318 114.572L230.248 111.903C230.903 111.843 231.556 112.045 232.062 112.466C232.569 112.887 232.887 113.492 232.948 114.147L234.852 134.793L201.03 137.913L199.126 117.267C199.066 116.621 199.262 115.976 199.672 115.472C200.082 114.968 200.672 114.645 201.318 114.572Z" fill="black" fill-opacity="0.7"/>
<path opacity="0.3" d="M231.091 113.992L222.767 114.759L224.302 131.407L232.626 130.64L231.091 113.992Z" fill="white" fill-opacity="0.7"/>
<path d="M201.317 114.572L230.247 111.903C230.903 111.843 231.556 112.045 232.062 112.466C232.568 112.887 232.887 113.492 232.947 114.148L234.852 134.793L201.03 137.913L199.125 117.267C199.066 116.621 199.262 115.976 199.671 115.472C200.081 114.969 200.672 114.645 201.317 114.572V114.572Z" stroke="#263238" stroke-linecap="round" stroke-linejoin="round"/>
<path d="M251.337 109.931L280.267 107.262C280.923 107.202 281.576 107.404 282.082 107.825C282.589 108.246 282.907 108.851 282.968 109.506L284.872 130.152L250.998 133.276L249.093 112.631C249.033 111.975 249.235 111.322 249.656 110.816C250.077 110.31 250.682 109.991 251.337 109.931Z" fill="#92E3A9"/>
<path opacity="0.3" d="M251.337 109.931L280.267 107.262C280.923 107.202 281.575 107.404 282.082 107.825C282.588 108.246 282.907 108.851 282.967 109.506L284.871 130.152L250.997 133.276L249.093 112.631C249.032 111.975 249.235 111.322 249.656 110.816C250.076 110.31 250.681 109.991 251.337 109.931Z" fill="black" fill-opacity="0.7"/>
<path opacity="0.3" d="M280.512 109.446L275.489 109.91L277.024 126.558L282.048 126.094L280.512 109.446Z" fill="white" fill-opacity="0.7"/>
<path d="M251.337 109.931L280.267 107.262C280.923 107.202 281.576 107.404 282.082 107.825C282.589 108.246 282.907 108.851 282.968 109.506L284.872 130.152L250.998 133.276L249.093 112.631C249.033 111.975 249.235 111.322 249.656 110.816C250.077 110.31 250.682 109.991 251.337 109.931V109.931Z" stroke="#263238" stroke-linecap="round" stroke-linejoin="round"/>
<path d="M240.827 110.892L269.757 108.224C270.412 108.163 271.065 108.366 271.571 108.787C272.078 109.207 272.396 109.812 272.457 110.468L274.361 131.113L240.434 134.243L238.53 113.597C238.499 113.268 238.535 112.936 238.635 112.621C238.734 112.306 238.896 112.014 239.109 111.762C239.323 111.51 239.585 111.303 239.88 111.154C240.175 111.004 240.497 110.916 240.827 110.892Z" fill="#92E3A9" stroke="#263238" stroke-linecap="round" stroke-linejoin="round"/>
<path d="M290.796 106.282L319.726 103.614C320.382 103.553 321.035 103.756 321.541 104.177C322.048 104.597 322.366 105.202 322.427 105.858L324.331 126.503L290.457 129.628L288.552 108.982C288.492 108.327 288.694 107.674 289.115 107.168C289.536 106.661 290.141 106.343 290.796 106.282Z" fill="#92E3A9" stroke="#263238" stroke-linecap="round" stroke-linejoin="round"/>
<path opacity="0.3" d="M270.551 110.356L262.227 111.124L263.763 127.772L272.087 127.004L270.551 110.356Z" fill="white" fill-opacity="0.7"/>
<path opacity="0.3" d="M319.972 105.784L311.648 106.552L313.184 123.2L321.508 122.432L319.972 105.784Z" fill="white" fill-opacity="0.7"/>
<path d="M338.627 120.332L347.396 215.256L194.406 229.386L185.691 134.436C185.544 132.85 186.033 131.27 187.051 130.044C188.069 128.818 189.532 128.046 191.118 127.899L332.104 114.891C332.889 114.819 333.682 114.902 334.436 115.136C335.189 115.371 335.889 115.752 336.495 116.257C337.101 116.763 337.602 117.383 337.967 118.082C338.333 118.781 338.558 119.546 338.627 120.332Z" fill="#92E3A9"/>
<path opacity="0.3" d="M338.627 120.332L347.396 215.256L194.406 229.386L185.691 134.436C185.544 132.85 186.033 131.27 187.051 130.044C188.069 128.818 189.532 128.046 191.118 127.899L332.104 114.891C332.889 114.819 333.682 114.902 334.436 115.136C335.189 115.371 335.889 115.752 336.495 116.257C337.101 116.763 337.602 117.383 337.967 118.082C338.333 118.781 338.558 119.546 338.627 120.332Z" fill="black" fill-opacity="0.7"/>
<path d="M338.627 120.332L347.396 215.256L194.406 229.386L185.691 134.436C185.544 132.85 186.033 131.27 187.051 130.044C188.069 128.818 189.532 128.046 191.118 127.899L332.104 114.891C332.889 114.819 333.682 114.902 334.436 115.136C335.189 115.371 335.889 115.752 336.495 116.257C337.101 116.763 337.602 117.383 337.967 118.082C338.333 118.781 338.558 119.546 338.627 120.332V120.332Z" stroke="#263238" stroke-linecap="round" stroke-linejoin="round"/>
<path d="M338.627 120.332L347.396 215.256L233.826 225.728L225.07 130.805C224.923 129.218 225.412 127.638 226.43 126.412C227.448 125.186 228.911 124.415 230.498 124.268L332.037 114.892C332.828 114.81 333.628 114.886 334.389 115.116C335.15 115.346 335.858 115.726 336.471 116.232C337.085 116.738 337.591 117.362 337.961 118.066C338.331 118.769 338.557 119.54 338.627 120.332Z" fill="#92E3A9" stroke="#263238" stroke-linecap="round" stroke-linejoin="round"/>
<path opacity="0.3" d="M331.271 124.413L234.248 133.366C233.601 133.411 232.964 133.201 232.47 132.781C231.977 132.362 231.667 131.766 231.606 131.121C231.559 130.477 231.766 129.839 232.183 129.345C232.6 128.851 233.194 128.541 233.838 128.48L330.861 119.527C331.507 119.483 332.145 119.693 332.639 120.112C333.132 120.531 333.442 121.127 333.502 121.772C333.543 122.415 333.334 123.049 332.918 123.541C332.502 124.034 331.912 124.346 331.271 124.413Z" fill="white" fill-opacity="0.7"/>
<path d="M160.783 124.479C160.783 124.479 138.399 119.989 135.89 134.396C133.381 148.804 141.582 154.932 141.582 154.932L160.783 124.479Z" fill="#263238"/>
<path d="M141.583 162.842C139.025 155.68 138.626 147.924 140.434 140.537C142.626 131.293 153.64 118.576 170.345 130.131C178.942 136.087 179.471 149.015 176.79 160.848C176.156 163.674 176.631 166.434 175.694 169.035C172.392 178.147 166.357 185.16 163.056 185.318C157.549 185.595 146.535 178.926 146.984 173.116" fill="white"/>
<path d="M141.583 162.842C139.025 155.68 138.626 147.924 140.434 140.537C142.626 131.293 153.64 118.576 170.345 130.131C178.942 136.087 179.471 149.015 176.79 160.848C176.156 163.674 176.631 166.434 175.694 169.035C172.392 178.147 166.357 185.16 163.056 185.318C157.549 185.595 146.535 178.926 146.984 173.116" stroke="#263238" stroke-linecap="round" stroke-linejoin="round"/>
<path d="M163.887 158.655C163.887 158.655 159.437 155.433 155.158 158.074" stroke="#263238" stroke-linecap="round" stroke-linejoin="round"/>
<path d="M172.286 158.074C172.286 158.074 175.653 154.984 177.845 155.433" stroke="#263238" stroke-linecap="round" stroke-linejoin="round"/>
<path d="M157.601 163.595C157.601 164.413 158.01 165.087 158.525 165.087C159.041 165.087 159.463 164.413 159.463 163.595C159.463 162.776 159.041 162.115 158.525 162.115C158.01 162.115 157.601 162.776 157.601 163.595Z" fill="#263238"/>
<path d="M172.286 164.255C172.804 164.255 173.223 163.593 173.223 162.776C173.223 161.959 172.804 161.297 172.286 161.297C171.768 161.297 171.348 161.959 171.348 162.776C171.348 163.593 171.768 164.255 172.286 164.255Z" fill="#263238"/>
<path d="M170.398 161.191C168.76 163.33 171.058 171.478 170.398 172.059C169.737 172.64 165.538 170.99 165.538 170.99C165.538 170.99 164.561 169.748 166.608 169.088" stroke="#263238" stroke-linecap="round" stroke-linejoin="round"/>
<path d="M166.674 176.153C166.674 176.153 161.035 176.153 159.529 174.093" stroke="#263238" stroke-linecap="round" stroke-linejoin="round"/>
<path d="M153.177 145.635L152.741 152.449C152.741 152.449 147.908 154.945 146.693 157.48C145.97 159.141 145.705 160.965 145.927 162.763C145.927 162.763 142.995 157.639 141.411 158.061C140.843 158.207 140.843 160.359 140.843 160.359C140.843 160.359 134.24 145.621 140.209 137.83C146.178 130.039 153.177 145.635 153.177 145.635Z" fill="#757575" stroke="#263238" stroke-linecap="round" stroke-linejoin="round"/>
<path d="M143.867 161.297C143.867 161.297 142.546 156.345 138.096 155.037C133.646 153.73 136.696 165.602 140.486 167.147C144.276 168.692 145.227 169.788 145.452 168.375" fill="white"/>
<path d="M143.867 161.297C143.867 161.297 142.546 156.345 138.096 155.037C133.646 153.73 136.696 165.602 140.486 167.147C144.276 168.692 145.227 169.788 145.452 168.375" stroke="#263238" stroke-linecap="round" stroke-linejoin="round"/>
<path d="M137.806 144.776C137.436 144.274 135.799 131.57 144.184 125.866C152.57 120.161 166.74 120.768 175.759 128.665C184.779 136.562 182.217 150.257 175.759 154.932V149.213C175.759 149.213 172.788 154.945 163.874 155.42L166.594 151.221C166.594 151.221 162.21 153.862 154.485 153.637C154.485 153.637 158.116 150.745 157.588 148.17C157.601 148.17 145.333 155.077 137.806 144.776Z" fill="#263238"/>
<path d="M139.377 190.574C133.197 191.314 124.402 199.382 130.133 213.711C133.791 222.796 163.848 217.395 163.848 217.395C174.994 212.799 191.276 196.266 203.228 188.593C203.228 188.593 200.705 172.746 197.8 174.991C184.29 185.331 173.184 186.044 154.34 195.104C154.379 195.051 143.26 190.112 139.377 190.574Z" fill="white" stroke="#263238" stroke-linecap="round" stroke-linejoin="round"/>
<path d="M153.177 208.164C152.992 214.08 155.422 215.124 159.516 216.523L153.177 208.164Z" fill="white"/>
<path d="M153.177 208.164C152.992 214.08 155.422 215.124 159.516 216.523" stroke="#263238" stroke-linecap="round" stroke-linejoin="round"/>
<path d="M196.901 176.153C197.179 175.295 202.184 166.5 203.597 164.268C205.01 162.036 211.322 160.016 213.765 158.669C216.208 157.322 216.406 155.275 217.727 156.741C219.048 158.207 217.727 161.548 210.411 165.1C213.01 165.244 215.616 165.244 218.216 165.1C220.17 164.809 221.913 163.04 222.785 164.268C223.656 165.496 223.828 167.701 219.47 169.048C217.398 169.8 215.227 170.245 213.026 170.369C215.158 170.825 217.254 171.434 219.298 172.191C219.998 172.707 221.042 173.908 222.085 174.093C223.128 174.278 224.264 175.414 222.349 176.734C221.67 177.11 220.909 177.313 220.134 177.327C219.358 177.341 218.591 177.164 217.899 176.814C217.899 176.814 222.956 179.257 221.385 180.775C219.813 182.294 214.782 181.99 214.782 181.99C214.782 181.99 207.321 191.089 201.008 189.187" fill="white"/>
<path d="M196.901 176.153C197.179 175.295 202.184 166.5 203.597 164.268C205.01 162.036 211.322 160.016 213.765 158.669C216.208 157.322 216.406 155.275 217.727 156.741C219.048 158.207 217.727 161.548 210.411 165.1C213.01 165.244 215.616 165.244 218.216 165.1C220.17 164.809 221.913 163.04 222.785 164.268C223.656 165.496 223.828 167.701 219.47 169.048C217.398 169.8 215.227 170.245 213.026 170.369C215.158 170.825 217.254 171.434 219.298 172.191C219.998 172.707 221.042 173.908 222.085 174.093C223.128 174.278 224.264 175.414 222.349 176.734C221.67 177.11 220.909 177.313 220.134 177.327C219.358 177.341 218.591 177.164 217.899 176.814C217.899 176.814 222.956 179.257 221.385 180.775C219.813 182.294 214.782 181.99 214.782 181.99C214.782 181.99 207.321 191.089 201.008 189.187" stroke="#263238" stroke-linecap="round" stroke-linejoin="round"/>
<path d="M205.842 164.255C206.269 164.354 206.661 164.569 206.973 164.877C207.285 165.185 207.506 165.573 207.612 165.998C208.048 167.556 209.329 167.649 210.108 169.392C210.887 171.135 210.662 173.829 211.428 174.753C212.194 175.678 211.428 179.574 211.428 179.574" stroke="#263238" stroke-linecap="round" stroke-linejoin="round"/>
<path d="M140.671 189.452C137.436 185.331 130.172 187.193 130.172 187.193" stroke="white" stroke-linecap="round" stroke-linejoin="round"/>
<path d="M126.21 179.6C126.21 179.6 133.685 180.696 135.89 186.916" stroke="white" stroke-linecap="round" stroke-linejoin="round"/>
<path d="M139.377 218.98C139.377 218.98 132.088 224.619 120.995 216.523" stroke="white" stroke-linecap="round" stroke-linejoin="round"/>
<path d="M130.173 220.683C130.173 220.683 126.475 225.794 117.469 225.728" stroke="white" stroke-linecap="round" stroke-linejoin="round"/>
<path d="M176.499 284.982C176.499 284.982 157.43 300.182 138.057 298.188" stroke="white" stroke-linecap="round" stroke-linejoin="round"/>
<path d="M124.956 251.585C124.956 251.585 154.55 273.295 176.459 274.682" stroke="white" stroke-linecap="round" stroke-linejoin="round"/>
<path d="M125.735 412.3C130.826 409.476 136.812 408.728 142.441 410.213C152.094 412.643 177.172 448.51 180.658 452.01C184.145 455.509 190.668 457.292 196.677 463.617C206.185 473.535 220.012 482.304 221.411 482.304C222.811 482.304 223.934 481.432 225.677 481.089C227.42 480.745 240.916 479.517 240.916 479.517C240.916 479.517 245.446 480.521 240.916 482.462C236.387 484.403 236.73 486.133 236.73 486.133C236.73 486.133 235.819 487.599 237.641 488.999C239.464 490.399 240.534 489.633 243.135 493.317C245.737 497.002 239.464 494.915 239.464 494.915C239.464 494.915 240.85 498.877 238.064 498.481C235.278 498.085 237.721 502.35 233.191 501.769C228.661 501.188 218.968 495.074 216.539 488.669C216.539 488.669 177 469.771 171.084 464.898C165.168 460.025 140.262 433.891 138.558 433.548" fill="#263238"/>
<path d="M229.177 447.691H258.229C258.888 447.691 259.519 447.953 259.985 448.418C260.45 448.884 260.712 449.515 260.712 450.174V470.907H226.694V450.174C226.694 449.515 226.955 448.884 227.421 448.418C227.887 447.953 228.518 447.691 229.177 447.691Z" fill="#92E3A9"/>
<path opacity="0.3" d="M229.177 447.691H258.229C258.888 447.691 259.519 447.953 259.985 448.418C260.45 448.884 260.712 449.515 260.712 450.174V470.907H226.694V450.174C226.694 449.515 226.955 448.884 227.421 448.418C227.887 447.953 228.518 447.691 229.177 447.691Z" fill="black" fill-opacity="0.7"/>
<path opacity="0.3" d="M258.823 449.883H250.464V466.602H258.823V449.883Z" fill="white" fill-opacity="0.7"/>
<path d="M229.177 447.691H258.229C258.888 447.691 259.519 447.953 259.985 448.418C260.45 448.884 260.712 449.515 260.712 450.174V470.907H226.694V450.174C226.694 449.515 226.955 448.884 227.421 448.418C227.887 447.953 228.518 447.691 229.177 447.691V447.691Z" stroke="#263238" stroke-linecap="round" stroke-linejoin="round"/>
<path d="M279.359 447.691H308.411C309.07 447.691 309.701 447.953 310.167 448.418C310.633 448.884 310.894 449.515 310.894 450.174V470.907H276.876V450.174C276.876 449.848 276.94 449.525 277.065 449.224C277.19 448.923 277.373 448.649 277.603 448.418C277.834 448.188 278.107 448.005 278.409 447.88C278.71 447.755 279.033 447.691 279.359 447.691Z" fill="#92E3A9"/>
<path opacity="0.3" d="M279.359 447.691H308.411C309.07 447.691 309.701 447.953 310.167 448.418C310.633 448.884 310.894 449.515 310.894 450.174V470.907H276.876V450.174C276.876 449.848 276.94 449.525 277.065 449.224C277.19 448.923 277.373 448.649 277.603 448.418C277.834 448.188 278.107 448.005 278.409 447.88C278.71 447.755 279.033 447.691 279.359 447.691Z" fill="black" fill-opacity="0.7"/>
<path opacity="0.3" d="M308.451 449.883H303.407V466.602H308.451V449.883Z" fill="white" fill-opacity="0.7"/>
<path d="M279.359 447.691H308.411C309.07 447.691 309.701 447.953 310.167 448.418C310.633 448.884 310.894 449.515 310.894 450.174V470.907H276.876V450.174C276.876 449.848 276.94 449.525 277.065 449.224C277.19 448.923 277.373 448.649 277.603 448.418C277.834 448.188 278.107 448.005 278.409 447.88C278.71 447.755 279.033 447.691 279.359 447.691V447.691Z" stroke="#263238" stroke-linecap="round" stroke-linejoin="round"/>
<path d="M268.794 447.691H297.847C298.505 447.691 299.137 447.953 299.603 448.418C300.068 448.884 300.33 449.515 300.33 450.174V470.907H266.312V450.174C266.312 449.848 266.376 449.525 266.501 449.224C266.625 448.923 266.808 448.649 267.039 448.418C267.269 448.188 267.543 448.005 267.844 447.88C268.145 447.755 268.468 447.691 268.794 447.691Z" fill="#92E3A9" stroke="#263238" stroke-linecap="round" stroke-linejoin="round"/>
<path d="M318.976 447.691H348.029C348.687 447.691 349.319 447.953 349.784 448.418C350.25 448.884 350.511 449.515 350.511 450.174V470.907H316.493V450.174C316.493 449.515 316.755 448.884 317.22 448.418C317.686 447.953 318.317 447.691 318.976 447.691Z" fill="#92E3A9" stroke="#263238" stroke-linecap="round" stroke-linejoin="round"/>
<path opacity="0.3" d="M298.441 449.883H290.082V466.602H298.441V449.883Z" fill="white" fill-opacity="0.7"/>
<path opacity="0.3" d="M348.068 449.883H339.709V466.602H348.068V449.883Z" fill="white" fill-opacity="0.7"/>
<path d="M365.316 466.074V561.407H211.719V466.074C211.719 464.48 212.352 462.952 213.479 461.825C214.605 460.698 216.134 460.065 217.727 460.065H359.307C360.901 460.065 362.429 460.698 363.556 461.825C364.683 462.952 365.316 464.48 365.316 466.074Z" fill="#92E3A9"/>
<path opacity="0.3" d="M365.316 466.074V561.407H211.719V466.074C211.719 464.48 212.352 462.952 213.479 461.825C214.605 460.698 216.134 460.065 217.727 460.065H359.307C360.901 460.065 362.429 460.698 363.556 461.825C364.683 462.952 365.316 464.48 365.316 466.074Z" fill="black" fill-opacity="0.7"/>
<path d="M365.316 466.074V561.407H211.719V466.074C211.719 464.48 212.352 462.952 213.479 461.825C214.605 460.698 216.134 460.065 217.727 460.065H359.307C360.901 460.065 362.429 460.698 363.556 461.825C364.683 462.952 365.316 464.48 365.316 466.074V466.074Z" stroke="#263238" stroke-linecap="round" stroke-linejoin="round"/>
<path d="M365.315 466.074V561.407H251.336V466.074C251.336 464.48 251.969 462.952 253.096 461.825C254.223 460.698 255.751 460.065 257.345 460.065H359.307C360.9 460.065 362.429 460.698 363.555 461.825C364.682 462.952 365.315 464.48 365.315 466.074Z" fill="#92E3A9" stroke="#263238" stroke-linecap="round" stroke-linejoin="round"/>
<path opacity="0.3" d="M357.603 469.468H260.17C259.512 469.468 258.88 469.206 258.415 468.741C257.949 468.275 257.688 467.643 257.688 466.985C257.681 466.655 257.74 466.326 257.861 466.019C257.983 465.711 258.165 465.431 258.396 465.195C258.627 464.959 258.903 464.771 259.208 464.643C259.513 464.515 259.84 464.449 260.17 464.449H357.603C358.261 464.449 358.893 464.711 359.358 465.177C359.824 465.642 360.085 466.274 360.085 466.932C360.092 467.263 360.034 467.591 359.912 467.898C359.79 468.206 359.608 468.486 359.377 468.722C359.146 468.958 358.87 469.146 358.565 469.274C358.261 469.402 357.933 469.468 357.603 469.468Z" fill="white" fill-opacity="0.7"/>
<path d="M177.238 561.407C169.315 561.407 158.182 556.309 145.359 550.921C132.061 545.322 116.914 539.406 101.542 538.521C95.811 538.191 99.2841 561.407 99.2841 561.407H86.7386C86.7386 561.407 74.3515 544.873 72.9121 530.069C72.9121 530.069 83.0278 523.823 85.4576 523.466C86.2955 523.379 87.1376 523.339 87.9799 523.347C90.7003 523.347 94.3319 523.466 94.3319 523.466C93.7509 523.123 84.4936 517.55 79.383 511.885C75.1703 507.21 73.2423 499.828 73.097 495.417C73.2603 492.497 73.5821 489.587 74.061 486.701L139.984 487.797C139.984 487.797 140.698 488.299 141.965 489.237C149.611 494.81 177.555 515.569 191.527 531.218C196.043 536.276 199.094 540.792 199.543 544.094C201.642 559.32 189.189 561.407 177.238 561.407Z" fill="#757575" stroke="#263238" stroke-linecap="round" stroke-linejoin="round"/>
<path d="M191.54 531.192L159.476 538.521C153.979 541.666 149.169 545.882 145.333 550.921C132.035 545.322 116.887 539.406 101.516 538.521C95.7846 538.191 99.2577 561.407 99.2577 561.407H86.7122C86.7122 561.407 74.3515 544.873 72.9121 530.069C72.9121 530.069 84.586 546.708 87.4385 555.16C87.4385 555.16 91.9681 539.524 99.3237 533.252C96.0015 529.51 92.2264 526.196 88.0856 523.387C90.806 523.387 94.4376 523.506 94.4376 523.506C93.8565 523.162 84.5993 517.59 79.4886 511.924C75.276 507.249 73.5724 499.854 73.2026 495.457C73.0178 493.291 73.2819 486.741 73.2819 486.741C73.2819 486.741 122.447 493.753 142.071 489.276C149.625 494.823 177.568 515.543 191.54 531.192Z" fill="#263238"/>
<path d="M139.998 530.069C139.998 530.069 166.119 543.156 173.091 548.28C180.064 553.404 182.137 552.017 182.137 552.017" stroke="#263238" stroke-linecap="round" stroke-linejoin="round"/>
<path d="M79.3965 528.682C79.3965 528.682 85.6692 538.257 85.9994 541.122" stroke="#263238" stroke-linecap="round" stroke-linejoin="round"/>
<path d="M184.462 344.91C184.462 344.91 198.367 338.862 197.047 364.587C195.726 390.312 200.441 391.632 200.441 391.632C200.441 391.632 165.445 406 156.558 393.719C147.67 381.438 156.109 347.829 184.462 344.91Z" fill="#263238"/>
<path d="M182.52 391.633C182.52 391.633 168.126 398.42 166.818 404.693C165.511 410.966 147.485 401.524 147.485 401.524L160.545 382.745L182.52 391.633Z" fill="white" stroke="#263238" stroke-linecap="round" stroke-linejoin="round"/>
<path d="M88.138 460.488C55.1235 502.535 81.9181 522.819 119.343 519.465L111.842 531.35L130.674 534.612C130.674 534.612 145.108 525.183 164.785 515.107C198.275 497.939 211.81 498.969 208.364 481.789C204.917 464.608 163.873 453.462 122.724 471.567C122.684 471.554 100.34 445.01 88.138 460.488Z" fill="#757575" stroke="#263238" stroke-linecap="round" stroke-linejoin="round"/>
<path d="M99.654 552.017C99.654 552.017 108.251 528.247 111.843 526.926C115.435 525.606 129.011 530.756 130.675 534.585C130.675 534.585 135.257 527.56 137.132 530.545C139.007 533.529 136.3 538.468 137.132 542.245C137.964 546.022 147.248 551.304 150.959 552.004C154.669 552.704 156.782 554.79 156.782 556.877V561.407H99.654C99.0202 559.923 98.6934 558.326 98.6934 556.712C98.6934 555.098 99.0202 553.501 99.654 552.017Z" fill="white" stroke="#263238" stroke-linecap="round" stroke-linejoin="round"/>
<path d="M137.132 538.521C137.132 538.521 129.565 542.258 126.805 541.162C124.045 540.066 128.218 547.435 129.262 548.135C130.305 548.835 137.185 545.692 137.185 545.692" stroke="#263238" stroke-linecap="round" stroke-linejoin="round"/>
<path d="M106.798 534.599C106.798 534.599 117.072 534.797 120.202 538.56" stroke="#263238" stroke-linecap="round" stroke-linejoin="round"/>
<path d="M99.6538 552.017C99.6538 552.017 116.029 555.847 117.416 555.847C119.668 555.4 121.877 554.759 124.019 553.932C124.019 553.932 128.509 556.19 131.493 557.59C134.478 558.99 153.943 557.59 153.943 557.59" stroke="#263238" stroke-linecap="round" stroke-linejoin="round"/>
<path d="M119.344 519.491C134.979 517.801 165.353 498.534 175.917 491.838C186.482 485.143 189.123 486.899 189.123 486.899" stroke="#263238" stroke-linecap="round" stroke-linejoin="round"/>
<path d="M73.189 486.675L75.6849 467.724L81.7067 463.182C91.4658 439.504 135.679 395.277 147.736 395.423C165.841 395.634 169.037 414.637 171.269 435.436C173.5 456.235 145.293 453.106 145.293 453.106V458.322L129.248 466.628L138.967 466.325C138.967 466.325 111.01 493.502 73.189 486.675Z" fill="#92E3A9" stroke="#263238" stroke-linecap="round" stroke-linejoin="round"/>
<path d="M151.553 358.803C155.343 346.918 172.682 343.748 178.915 345.69C184.032 347.687 188.225 351.513 190.682 356.426C192.266 359.846 188.952 365.894 191.316 369.42C194.696 374.478 194.406 385.149 193.191 391.87C192.531 395.436 177.7 397.549 165.578 389.229C152.557 380.223 147.882 370.239 151.553 358.803Z" fill="white" stroke="#263238" stroke-linecap="round" stroke-linejoin="round"/>
<path d="M169.077 342.137C169.077 342.137 184.343 339.654 184.448 343.577C185.122 369.632 169.499 375.099 169.499 375.099C169.499 375.099 163.121 370.015 161.695 373.501C160.269 376.987 163.94 386.628 168.456 386.826C167.415 388.442 166.847 390.318 166.814 392.24C166.781 394.163 167.286 396.056 168.271 397.707C168.271 397.707 142.414 402.026 140.275 390.048C141.274 385.884 141.989 381.657 142.414 377.397C144.091 360.612 140.169 349.321 169.077 342.137Z" fill="#263238"/>
<path d="M189.467 368.694C192.649 371.56 194.934 371.56 194.894 372.59C194.776 375.799 190.933 377.397 190.933 377.397" fill="white"/>
<path d="M189.467 368.694C192.649 371.56 194.934 371.56 194.894 372.59C194.776 375.799 190.933 377.397 190.933 377.397" stroke="#263238" stroke-linecap="round" stroke-linejoin="round"/>
<path d="M190.853 382.745C188.604 383.506 186.177 383.566 183.894 382.917" stroke="#263238" stroke-linecap="round" stroke-linejoin="round"/>
<path d="M182.388 352.702C182.388 352.702 192.544 349.757 190.682 366.238C190.682 366.238 194.908 360.493 194.894 354.036C194.894 342.85 179.932 345.095 179.932 345.095L181.887 353.019" fill="#263238"/>
<path d="M191.619 360.771C191.234 360.515 190.802 360.34 190.348 360.256C189.894 360.172 189.428 360.181 188.978 360.282" stroke="#263238" stroke-linecap="round" stroke-linejoin="round"/>
<path d="M184.779 360.586C184.779 360.586 179.325 360.903 176.961 364.547" stroke="#263238" stroke-linecap="round" stroke-linejoin="round"/>
<path d="M183.471 369.262C183.55 370.134 183.181 370.886 182.639 370.939C182.098 370.992 181.596 370.318 181.504 369.447C181.411 368.575 181.794 367.823 182.336 367.77C182.877 367.717 183.392 368.39 183.471 369.262Z" fill="#263238"/>
<path d="M120.203 523.453C120.203 523.453 132.352 524.774 134.993 530.056" stroke="#263238" stroke-linecap="round" stroke-linejoin="round"/>
<path d="M150.958 404.337C156.049 401.512 162.035 400.765 167.664 402.25C177.331 404.693 202.395 440.547 205.881 444.046C209.368 447.546 215.891 449.329 221.9 455.654C231.408 465.572 245.235 474.341 246.635 474.341C248.034 474.341 249.157 473.469 250.9 473.126C252.643 472.782 266.14 471.554 266.14 471.554C266.14 471.554 270.669 472.571 266.14 474.499C261.61 476.427 261.953 478.183 261.953 478.183C261.953 478.183 261.055 479.636 262.865 481.036C264.674 482.436 265.757 481.67 268.358 485.354C270.96 489.039 264.687 486.952 264.687 486.952C264.687 486.952 266.074 490.914 263.287 490.518C260.501 490.122 262.944 494.387 258.414 493.806C253.885 493.225 244.192 487.111 241.762 480.706C241.762 480.706 202.223 461.808 196.307 456.935C190.391 452.062 165.511 425.928 163.755 425.585" fill="white"/>
<path d="M150.958 404.337C156.049 401.512 162.035 400.765 167.664 402.25C177.331 404.693 202.395 440.547 205.881 444.046C209.368 447.546 215.891 449.329 221.9 455.654C231.408 465.572 245.235 474.341 246.635 474.341C248.034 474.341 249.157 473.469 250.9 473.126C252.643 472.782 266.14 471.554 266.14 471.554C266.14 471.554 270.669 472.571 266.14 474.499C261.61 476.427 261.953 478.183 261.953 478.183C261.953 478.183 261.055 479.636 262.865 481.036C264.674 482.436 265.757 481.67 268.358 485.354C270.96 489.039 264.687 486.952 264.687 486.952C264.687 486.952 266.074 490.914 263.287 490.518C260.501 490.122 262.944 494.387 258.414 493.806C253.885 493.225 244.192 487.111 241.762 480.706C241.762 480.706 202.223 461.808 196.307 456.935C190.391 452.062 165.511 425.928 163.755 425.585" stroke="#263238" stroke-linecap="round" stroke-linejoin="round"/>
<path d="M145.28 400.507C145.28 400.507 164.772 395.291 171.573 399.12C178.374 402.95 191.262 420.712 191.262 420.712C191.262 420.712 175.547 434.776 170.688 433.495C165.828 432.214 150.958 430.114 150.958 430.114" fill="#92E3A9"/>
<path d="M145.28 400.507C145.28 400.507 164.772 395.291 171.573 399.12C178.374 402.95 191.262 420.712 191.262 420.712C191.262 420.712 175.547 434.776 170.688 433.495C165.828 432.214 150.958 430.114 150.958 430.114" stroke="#263238" stroke-linecap="round" stroke-linejoin="round"/>
<path d="M162.183 431.831C162.183 431.831 155.118 435.714 152.517 435.714" stroke="#263238" stroke-linecap="round" stroke-linejoin="round"/>
<path d="M150.958 412.353C151.553 413.396 151.355 424.819 163.755 428.371" stroke="#263238" stroke-linecap="round" stroke-linejoin="round"/>
<path d="M84.6787 463.551C84.6787 463.551 111.09 468.081 120.202 460.065" stroke="#263238" stroke-linecap="round" stroke-linejoin="round"/>
<path d="M129.235 466.628C129.235 466.628 122.632 465.466 120.202 468.86C117.772 472.254 104.54 475.463 104.54 475.463" stroke="#263238" stroke-linecap="round" stroke-linejoin="round"/>
<path d="M76.1471 491.838C76.1471 491.838 72.3306 508.293 88.6134 515.609" stroke="#263238" stroke-linecap="round" stroke-linejoin="round"/>
<path d="M84.6787 492.974C84.6787 492.974 84.7712 501.082 87.3199 505.519L95.415 508.161L104.474 503.116C104.474 503.116 102.546 492.749 102.374 490.65" stroke="#263238" stroke-linecap="round" stroke-linejoin="round"/>
</svg>
